<svg xmlns="http://www.w3.org/2000/svg" viewBox="0 0 129.39 99.41"><defs><style>.cls-1{fill:#467d85}</style></defs><title>category__artisan</title><g id="Layer_2" data-name="Layer 2"><g id="Layer_1-2" data-name="Layer 1"><path class="cls-1" d="M26.89 59.88a1.5 1.5 0 0 0 .06-.27 1 1 0 0 0-.06.27zm.58 21.2a.66.66 0 0 0 .32-.08c-.5 0-.63-.17-.32.08zM26.85 60v.07-.17a.81.81 0 0 1 0 .1zm35.23 5.2h-.13zm24.09-45.25A6.29 6.29 0 0 0 86 22a4.07 4.07 0 0 0 .17-2.05zM84.6 33a9.85 9.85 0 0 0-.15 1.6c.42-.32.14-1.72.15-1.6zm1.05-7.75a1.27 1.27 0 0 0-.26 1c.16-.36.37-.58.26-1zm-57.06 23.6a4.52 4.52 0 0 0-.14 1.1zm27.68 14.71a2.47 2.47 0 0 0 .62 0q-.17-.38-.62 0zM87.16 28.3a2.3 2.3 0 0 0-.15.85 1.29 1.29 0 0 0 .15-.85zM85.44 27a1 1 0 0 0 .08-.61 1 1 0 0 0-.08.61zm1.21-10.23q.18-.58-.06-.26-.18.58.06.26zM27 76.46c0-.22-.09-.36 0 0zm-.26 2.8zm-.03-.02zM82.75 48.7c.12 0 .07-.13 0 0zM84.84 31c0 .22.09.36 0 0zM41.46 66.42c0 .07.4.11 0 0zm43.73-22.16s.06-.11 0 0zM26.83 78.43c0-.14-.12 0 0 0zm.17-1.48c0-.33-.06-.26 0 0zM99.5 52c.21-.31 0 0 0 0zm-69.91 4.94L29.45 58a5.42 5.42 0 0 0 .14-1.06zM93.52 30zm-.24-1.16l-.14-.65q-.14.56.14.65zm-5.63-6.43a10.16 10.16 0 0 0 .41-3.78c-.17 1.26-.31 2.52-.41 3.78zm11.79 40.16zM97.91 42l.06.34a.66.66 0 0 0-.06-.34zm-13.73-3.72v1.78c.07-1.06.1-1.77 0-1.78zm-.12 2.47v-.11c-.06.08-.06.12 0 .11zm4-22.12c.13-1 .26-1.93.38-2.89a7.38 7.38 0 0 0-.38 2.89zm7.46 55.51c.06.13.18.35.24.53-.07-.33-.15-.54-.24-.53zm.72-28.78c.09 0 0-.08 0 0zm-1.33 22.92a1.24 1.24 0 0 1 .29.34.7.7 0 0 0-.29-.34zm-7.38-44.05v.23a4.52 4.52 0 0 0 .07-1.07 8 8 0 0 1-.07.84zm11.1 34.53a.17.17 0 0 0 0 .23.17.17 0 0 0 0-.23z"/><path class="cls-1" d="M105.47 82.44c-1-5.09-1.55-10.29-2.69-15.27-.89-3.86-2.24-9.19-2.8-12.11a3.84 3.84 0 0 1-.05-.6c.14 0 0 0 0 0a5 5 0 0 0-.32-2.3c0 .38-.51-1-.64-1.6s-.87-4.46-.65-4.56c.45-.08-.06.9.48.8 0 0-.37-1.84-.83-4.47a1.83 1.83 0 0 1 0 .35c-.2-.26-.27-.86-.43-1 .08.15.31.15.42.35-1-5.88-2.57-15.31-2.85-17.43-.5-3.84-1.07-7.8-1.9-11.54-.33-1.48-.71-2.92-1.15-4.36a31.18 31.18 0 0 0-1.54-4.47c-.56-1.17-.83-.34-.91-1.65q-.44.21-.18.81c-.44-.21-.61-1.21-1.39-.23s.24 2.31-.16 2.87a.46.46 0 0 1-.12-.4c-.3.3.66 4.07.63 4.83-.1 2.18-.49 4.41-.74 6.58-.59 5-1.27 9.9-1.88 14.85.16-1.28 1.53-13.65 1.37-13.67-.47.14-.84 2.57-1.16 5.77a3.68 3.68 0 0 0 0-.68c-.25 0-.26 1.72-.29 2a3.46 3.46 0 0 0 .27-.88c-.64 6.56-1.09 16-1.75 15.91v-.21c0 .19 0 .39-.07.59v.12c-.2 1.67-.53 4-.85 6.09h-.09.08c-.43 2.88-.85 5.47-.9 5.88.09-.76 0-1.61.11-2.36-.87 7-1.91 14-2.91 21-.33 2.35-.22 6-1.11 8.2-.78 1.93-2.56 1.07-4.55 1.07.78-4.19 1.77-11-1.42-14.44-3.77-4.08-12.36-2.48-17.26-2.4-5.59.1-13.89-1.78-18.65 1.68A11 11 0 0 0 32.86 71c-.73 2.09-1.83 6-1.39 8.11a2.31 2.31 0 0 0 .24-.72 10.86 10.86 0 0 1-.31 1.54h-.1.09c-.46 1.42-1.19.71-3.6 1h1c-.68 0-2.23.39-2.76.29.35-1.5.42-3.16.65-4.7.12-.81.41-8.27 1.2-8.67.45.06-.52 2.3 0 2.37 0 0 .66-5.21 1.57-12.28-.07.34-.17.66-.26 1a2 2 0 0 1 0-1c.09-.74.14-1.49.23-2.22a2.89 2.89 0 0 1 .19 1.13c1.74-13.66 4.29-33.49 4.7-36.85.45-3.62 1.13-7.25 1.64-10.88.18-1.31-.14-4.24.89-4.84.65-.38 4.11.06 4.68.07 2.56 0 5.12.16 7.67.26 4.35.17 8.76-.09 13.11-.17s9-.21 13.49-.41a53.58 53.58 0 0 0 8.28-.62c.62-.13 4.65-1.65 5.07-1.06C87.86.54 84.8 1.08 82 .55a2.23 2.23 0 0 1-1.48 0h1.11c-2.12-1.17-7 0-9.55.16-3.49.18-7 0-10.49.43 1.36 0 2.72.14 4.08.14-10.4 0-21 1.44-31.29.23-.06 0-.53-.16-.18 0-.78 2.38-.83 5.75-1.2 8.49a139.06 139.06 0 0 0-1.7 15.15.79.79 0 0 1 .24-.47c.68 3-.89 7.64-1.24 10.74-.38 3.36-.8 6.67-1.14 10-.39 3.87-.74 8.17-1.48 12.15v-1c-.07.6-.29 1.22-.36 1.82a1.41 1.41 0 0 0-.06-.63c-.34 0-.29 2.7-.3 2.83 0-.22-.07-.36-.09-.56-.61 4.48-1.3 9-1.82 13.47-.35 3.06-.38 6.6-1.1 9.61a35.89 35.89 0 0 0 6.29.09c2.59 0 2.76.31 3.09-2.25.26-2 .58-4.07.9-6.1A11.76 11.76 0 0 1 37.57 68a5.13 5.13 0 0 1 2.88-1.44.91.91 0 0 0 .51-.08c1-.1 2 0 3-.06 7.12-.1 14.26.16 21.39 0 9.4-.22 6.32 10.65 5.82 16.85 2.21 0 5.83.53 7.93-.08 1.78-.51 1.37-1 1.62-3 .22-1.77.47-3.55.73-5.31.88-6.06 1.61-12.15 2.37-18.24a2.53 2.53 0 0 0-.22.72c.41-3.4 1.85-15.89 2.11-17.42.12.52.16-.89.15-1.39.22-2.55 1.48-12.06 1.68-13.83 0-.1.1-1.5.11-1.49 0-.24 0-.49.06-.73a1.4 1.4 0 0 1-.21.32c-.27-1.71.32-3.9.47-5.61a54 54 0 0 1 .84-7.25 14.62 14.62 0 0 0 .92 2.92c-.09-.49-.05-1-.14-1.51 1.09 5.8 2.35 11.34 3.61 16.92v-.12c0-.05.42.76.24.79a.39.39 0 0 1-.13 0l.22 1.04c0-.05.07 0 0 0 .91 4.07 1.8 8.18 2.61 12.44l-.14-.25v.7c-.12-.64 0 .73.06.83.4.54.67 5.35 1 6.77.33 1.6.6 3.14.94 4.77.57 2.67 1 4.93 1.49 7.31 0 0 .06 0 0 0 .17.82.34 1.65.53 2.52.58 2.71.73 5.38 1.46 8.07a24.49 24.49 0 0 1 1.1 6.33c0 1.3.57 1-.53 1.39a10.38 10.38 0 0 1-3.74 0 5 5 0 0 0 0-.62.45.45 0 0 0-.13.29l-.1.05c-.3-2-.92-5.15-.95-6.73l.14.27c.26 0 0-.57-.14-.45.06-1.55-1-3.69-1.86-5A21.63 21.63 0 0 0 92.68 66c0 .14 2 1.91 1.9 2.16-1.47-1.28-4.75-4.29-7-3.29A11.58 11.58 0 0 1 93 67.51c-.1-.06-.18-.08-.24 0 .19-.28 4.16 7.18 3 7.35a.89.89 0 0 0 0-.17 23.48 23.48 0 0 1 .3 2.63c.08 1.07.13 2 .15 2.19 0-.25-.28-.63-.31-.84a14.53 14.53 0 0 0 .32 2.82c.69 1.86-.56 1.15 1.83 1.63a22 22 0 0 0 6.21.09c1-.15 1.49.71 1.21-.77zM98.41 45c-.27.05 0 0 0 0zM74.12 76a1.11 1.11 0 0 1 0 .62 1 1 0 0 1 0-.62zM75.92.83a9.09 9.09 0 0 1-1.85 0 17.94 17.94 0 0 1 1.85 0zm-2.47 0a1.08 1.08 0 0 0 .37.09 5.83 5.83 0 0 1-1 .08c-.29 0 .18-.13.62-.13zm-1 .09a7.46 7.46 0 0 1-3.71.14C70 1.1 71.21 1 72.45 1zm-4.58.27c.31.12-.1.06-.15 0a.12.12 0 0 0 .15.05zm-1.24 0c.8 0-.15.27-.5.14zm-33.87 12c.37 0 0 .64 0 0zm-.09 2.24a1.05 1.05 0 0 1-.08.61 1 1 0 0 1 .09-.6zm-.4 2.57s.05 2.25-.18 2.22.18-2.22.18-2.22zm-.35 19.28a.37.37 0 0 1-.11.48.36.36 0 0 1 .1-.47zm-.15-.28c0 .24-.17 0-.14 0s.13.06.14 0zm0 1.15c0 .15 0 1.12-.32 1.08a1.08 1.08 0 0 1 .36-1.08zm-.73 4.4q.23-.78.12.14t-.08-.14zm-.39 2.07c.09-.72.41.55 0 .5a.55.55 0 0 1 .04-.5zm-.47 5.3v1.12a1 1 0 0 1 .03-1.12zm-.33 2.7q-.13.23-.13 0zM29 59.74q.27-.64.09.39-.28.37-.09-.39zm-.23.72c0 .08.24.9 0 .87a1.15 1.15 0 0 1 0-.87zm-.3 3.2a7.18 7.18 0 0 0 .1-.9c0 .43-.06.88-.1 1.28.01-.12-.02-.25 0-.37zm0 1.74s-.05.01-.03.01zM27.33 59q-.13.23-.14 0s.07-.09.14 0zm-1.77 17.4c.09-.3.05 0 0 0zm6.88-.16c-.07-.36 0-.22 0 0zM35.85 70c-.06.1-.1.07-.15.17a.86.86 0 0 1 .28-.48c-.05.13-.07.25-.13.31zm36.93-1zm-1.19-2.39a2.89 2.89 0 0 0-.35-.32 4.3 4.3 0 0 1 .34.27zm-11.12-2.69h.74H60a1.36 1.36 0 0 0 .47 0zm-1 .09c-.32.15 0-.09-.17-.09a.16.16 0 0 1 .18.08zm-8.67 0h.37c-.1.05-1.61-.01-.35-.01zM62 65.25h.13zm1.24.09c.32.06 0 0 0 0zm-3.09-.18c-.14.09 0 .16-.25.09a17.3 17.3 0 0 0-5-.37h.66c2 0 3.91-.07 5.88-.06 2.7 0 7-.48 9.53 1.23-2.65-1.76-8.75-1.15-10.87-.89zm10.56 1.67c-.41-.31.87.26 0 0zm1.56 2.09zm-.08-1.09a2.29 2.29 0 0 0-.53-1.23 4.21 4.21 0 0 1 1 1.71c-.14.05-.46-.43-.52-.49zm.71 3l-.32-.55c.2-.54.23.34.27.59zm0 1.82a.35.35 0 0 1 .05-.48.36.36 0 0 1-.11.52zm.19-3v-.26a1.14 1.14 0 0 1 .17.63c-.12-.1-.2-.21-.26-.34zm.26 4.53v-.13h.14s-.16.17-.2.16zm0-2.13a14.21 14.21 0 0 1 .1-1.55c-.08.15.06 1.58-.19 1.59zm2.75 10.26c0-.14.12 0 0 0zm.49-1.24c0-.13.12 0 0 0zm5.32-25.62q-.28.64-.09-.39.28-.37.1.4zm2.61-14.76c-.06.12-.08.24-.14.36a3.5 3.5 0 0 1 .15-.86c0 .13.01.38 0 .5zm.65-6.4l-.5 4.05c.2-1.65.27-3.29.47-4.93a1.9 1.9 0 0 1 .04.88zm.15 2.89a.19.19 0 0 0 .1 0s0 .07-.07.1.03-.1-.02-.11zm.45 1.92a1.07 1.07 0 0 1 0-.37zm-.07-4.62h.14q-.13.25-.13 0zm.21-1a.76.76 0 0 1 .09-.58.76.76 0 0 1-.08.61zm.32-2.58a.51.51 0 0 0-.08.24 1 1 0 0 1 .08-.61c0 .15.02.28.01.4zm2.22-23.11c-.08-.44.1.34.11.59a.58.58 0 0 1-.11-.59zm.39 1.08c1.19.46.34 1.3.34 1.3-.09-.49-.38-.77-.34-1.3zm.53 1.59c.12 0 0 0 0 0zm.21.61c-.47-.31.26-.39 0 0zm3.23 15.39c0-.2.23-.33 0 0zm.27.65a.17.17 0 0 1 0 .22.16.16 0 0 1-.01-.22zm0 .75c.26-.05.07 0 0 0zm3.39 6.82c.07.38-.14 0 0 0zm-.28 0h-.05q.23-.1.04.01zm-.13 8.47h-.05q.23-.15.04.01zm.44-7.78c-.69.13.79-.44 0 0zm.21 1.13c.09.49-.15.22 0 0zm.14 1.09zm.52 2.14c-.34-.23-.25-.45 0 0zm-.06.66h-.05.13s-.04 0-.08.01zm.69 2.67s-.23-.42 0 0zm-.35 6.31c0-.08.09 0 0 0zm.07-6c.2.09.25.34 0 0zm.2.34c.24 0 .18.74.21.85.03-.09-.23-.9-.13-.88zM95.83 71a.17.17 0 0 1 .08.22.18.18 0 0 1-.08-.22zm-.17.61a23.27 23.27 0 0 0-2.39-3.9 9.78 9.78 0 0 1 2.39 3.93zm-.16.68a3.8 3.8 0 0 1 .5 1.78 16.33 16.33 0 0 0-.5-1.75zm.67-.3c.21-.43.08.23 0 0zm.07 8.69c0-.69.09-.19 0 0zm0-5.65a.51.51 0 0 1 0-.33.22.22 0 0 1-.03.36zm.11-2.54h-.06.13s-.06.02-.11.03zm.19 1.06h-.05q.2-.08.01.03zm6.4-5l-.08-.45c0 .09 0 .14.08.17s-.05.25-.04.32zm-.79-4a.51.51 0 0 1 0 .32.22.22 0 0 1-.04-.24zm-1 1.45c.13-.2 0 0 0 0zm.48 3.55c.26 0 0 0 0 0zm.09-.53h.05zm.6 4.92c.24-.18.54.37 0 0zm-.15-1.56c-.05-.27.44.3 0 0zm.23 1c0-.05-.06-.3 0 0zm.23 1.45c-.07-.38.13 0 0 0zm-1.09-6.51a20.1 20.1 0 0 0-.51-3.92s1.69 7.94 1.83 8.7c-.86-.51-.77-3.86-1.35-4.71zm1.25 7.6c0-.08.09 0 0 0zm0-2.47q-.14-.06.08-.06s-.06.11-.11.12zm.16.11a.17.17 0 0 1 0 .23.16.16 0 0 1-.03-.17zm0 1a2.56 2.56 0 0 1 .12-.58c.04.13.03.59-.07.61zm.28.74h-.05.14s-.03.03-.07.04zm1.49 4.42c.1 0 .09.1 0 0zm-.04-2.19s.08 0 0 0z"/><path class="cls-1" d="M95.86 43.38c-.09.13.05.28 0 0zm5.84 25.72zm-8.97-.67c0 .39.87.74.39.17-.12-.18-.21-.31-.39-.17zm1.13 1.17q-.23-.59-.38-.27c.04.06.7.81.38.27zm1.23 3.31a.93.93 0 0 0-.07-.58.6.6 0 0 0 .07.58z"/><path class="cls-1" d="M93.89 69.83c0 .74.23.05 0 0zm1.62-30.07l-.08-.41c.02.13-.05.27.08.41zm7.63 27.11c-.26-.19-.27.05 0 0zm-7.08 3.06a.43.43 0 0 0 .09.34.25.25 0 0 0-.09-.34zm-1.88.34s-.08-.06-.1-.1.03.3.1.1zm-2.26-2.73c-.27.34.38-.07 0 0zM99 61.48s.06.08.07.13.09-.31-.07-.13zm.13-12.42c0-.11-.09-.06 0 0zm.24 1.07c0-.14-.09-.06 0 0zm-4.71 21.59c0 .1.09 0 0 0zm4.42-9.82c.14 0 .06-.09 0 0zm.19-12.07c0-.11-.09-.06 0 0zm-.17-.67c0 .12.09.06 0 0zm2.4 17.94zM57.62 19.87s-.07-.12 0 0zm2.28-2.01c.06 0-.06-.23 0 0zm6.57-.37zm6.22 2.43c.09 0 .13 0 0 0z"/><path class="cls-1" d="M73 19.51c0-.15 1.74-.19 1.72-.1a.43.43 0 0 0 0-.26s-2.42-.09-2.75-.09c0 0 1.28-.17 1.28-.32s-1.82-.14-2.06-.14c-.07 0 .15-.27.15-.32h-1v-.06a.27.27 0 0 0 0 .06H70s.25-.18.22-.18c-2.08 0-3.42-.66-5.63-.6-1 0-3 .5-3.92.5a13.22 13.22 0 0 1-2.33 0 1.49 1.49 0 0 1 .17-.5s-5.51-.33-6.25-.5a7.06 7.06 0 0 0-2.9-.14A3.32 3.32 0 0 0 47.55 18c-.55.83.14 2.92.31 2.56.09 0 .24.38 1 0 .25-.12 1.23-.5.44-.5.5 0 1.31-.16 1.57-.15.09 0 1.11-.66 1.29 0 0-.11 4.22-.42 4.24-.46.13-.25 1.09 0 .87 0 0 0 .15.14.17.14s-.07.56.19 0c.38.4 2.4.46 4.67.42 3.33-.06 7.2-.34 7.2 0 0-.11.25-.23.35.14.1-.42.84-.11 1.1-.09 0 .07.42-.14.41-.14a.14.14 0 0 0-.06.19c.29-.38 1.7-.2 2.16-.28a.1.1 0 0 0 0-.14 4.5 4.5 0 0 0-.51-.11.06.06 0 0 0 .05-.07zm-24.78 1.1a.1.1 0 0 1 0-.09.22.22 0 0 1 0 .09zm.37-.14a.23.23 0 0 0 0-.09c.06 0 .14.09 0 .09zm.52-.37s0-.05 0 0 .01 0 0 0zm.12 0c-.1 0 .12-.47 0 0zm-.25.09h-.27c1.22-.97.14 0 .29.05zm4.23-.51c0-.34.08-.15 0 0zm.23-.14s0-.06.06 0-.05.06-.06.06zm.42.09c-.18 0-.22-.34 0 0zm1.61-2c0-.28 0 0 0 0zm.16.14c-.18-.23-.07-.31 0 0zm.32 0c-.08-.29.11 0 0 0zm.74.09c-.21 0 .32-.64 0 0zm.8-.18c-.12.25-.44 0 0 0zm0 1.92a.52.52 0 0 1 0-.14.19.19 0 0 1 .04.19zm.14-1.7c.05-.29.11-.21 0 0zm.28-.14a.27.27 0 0 0-.11-.05h.2s0 .1-.06.1zm.16 0a.26.26 0 0 1 0-.14.2.2 0 0 1 .03.15zm2.79.64c0-.07 0-.16 0 0zm3.21-.87h.07-.12s.07.06.08.01zm-.9.09s-.08.01.03.01zM61.55 20s0-.06.06 0-.05 0-.06 0zm1.89-1.19q0-.11 0 0s.01.01 0 .01zm.8 0zm0-.28c0 .12-.15.17-.23.32 0-.12-.29-.21-.32-.09 0-.11-.53-.14-.67-.14-.06-.5 1.27-.28 1.89-.15-.24.1-.6.22-.63.12zm.08.46a.18.18 0 0 1 0-.14.27.27 0 0 1 .05.15zm.73 0c-.08 0 .1-.39 0 0zm.22-.09a.08.08 0 0 1 0 .09q0 .08.04.01zm.1-.46q0-.09.06 0t-.01.06zm.07.69c0-.22.11-.43 0 0zm.2-.09c0-.27 0 0 0 0zm.36-1.45c-.07 0 0 0 0 0s.06 0 0 0zm.9 1.51c0-.07 0-.16 0 0zm0-1.24c0-.07 0-.15 0 0zM71.15 19v-.09a.06.06 0 0 1 .08 0s-.07.09-.08.09zm.34.5a.19.19 0 0 1 0-.14c-.01.06.01.06-.01.1zm.59 0s0-.06.06 0-.05-.04-.07-.04zm-7.84-.63s0-.05 0 0zm8.54-.69c0-.19-.43 0 0 0zm-.98.05c.29 0-.24-.33 0 0z"/><path class="cls-1" d="M72.59 18.18c-.22-.47 0 .15 0 0zm-16.03 1.33s0 .11.1 0zM63.75 17c0 .1-.08.15 0 .18s0-.06 0-.18zm8.5 3q0 .16.08 0h-.08zm.11-2c-.11 0 .09.34 0 0zm1.07.13c0-.28 0 .09 0 0zm-1.12-.04c0 .2 0 0 0 0zm-8.59.59s.05 0 0-.09.01.09 0 .09zM55 31.19s-.07-.12 0 0zm9.09-2.38zm6.37 2.43c.1 0 .13 0 0 0zm.32-.42c0-.15 1.79-.19 1.76-.1a.42.42 0 0 0 0-.26s-2.49-.09-2.82-.09c.05 0 1.32-.17 1.32-.32s-1.87-.14-2.11-.14c-.08 0 .15-.27.15-.32h-1v-.09a.27.27 0 0 0 0 .06h-.4s.26-.18.23-.18c-2.12 0-3.52-.63-5.76-.6-1.09 0-3.11.5-4 .5a13.75 13.75 0 0 1-2.38 0 1.51 1.51 0 0 1 .18-.5s-5.6-.23-6.41-.36a7.38 7.38 0 0 0-3-.14 3.39 3.39 0 0 0-1.85 1.15c-.56.84.13 2.94.32 2.56.26 0-.19.36.06.36.42 0 2.36-.87 1.43-.87.51 0 1.34-.16 1.61-.15.09 0 1.14-.66 1.32 0 0-.12 4.32-.41 4.34-.46.13-.25 1.11 0 .9 0 0 0 .16.14.18.14s-.07.56.19 0c.85 1 5.06.23 5.52.2 1.37-.08 5.43-.48 6.75.34.12 0 0-.15-.09-.2a.84.84 0 0 0 0-.11c.32 0 .27.05.33.28.11-.43.87-.1 1.13-.09 0-.09.32 0 .39 0 .35-.36 1.71-.16 2.19-.25a.1.1 0 0 0 0-.14 4.78 4.78 0 0 0-.52-.11.06.06 0 0 0 .04-.11zm-25.38 1.1a.1.1 0 0 1 0-.09.21.21 0 0 1 0 .09zm.38-.14a.23.23 0 0 0 0-.09c.06 0 .13.1 0 .1zm.53-.37s0-.05 0 0 .01.01 0 .01zm.12 0c-.11 0 .12-.47 0 0zm-.25.09h-.28c1.25-.97.1.01.27.06zm4.33-.51c0-.34.08-.15 0 0zm.24-.14s0-.06.06 0-.06.07-.07.07zm.43.09c-.19 0-.22-.34 0 0zm1.65-2c0-.28 0 0 0 0zm.17.14c-.18-.23-.08-.31 0 0zm.33 0c-.08-.29.11 0 0 0zm.76.09c-.21 0 .33-.64 0 0zm.82-.18c-.13.26-.45 0 0 0zm0 1.92a.51.51 0 0 1 0-.14.19.19 0 0 1 .02.23zm.14-1.7c.05-.29.11-.21 0 0zm.28-.14a.29.29 0 0 0-.11-.05h.14s.01.11-.01.11zm.17 0a.26.26 0 0 1 0-.14.19.19 0 0 1 .02.16zm2.86.64c0-.07 0-.15 0 0zm.68 1.6s0-.06.06 0-.04.02-.05.02zm2.61-2.47h.07-.12s.05.06.06.01zm-.93.09s-.09.02.02.02zm.28 1.21q0-.11 0 0zm.82 0zm0-.28c0 .12-.15.17-.24.32 0-.11-.3-.21-.33-.09 0-.11-.55-.14-.69-.14-.06-.5 1.3-.28 1.93-.15-.24.09-.61.2-.64.11zm.08.46a.18.18 0 0 1 0-.14.26.26 0 0 1 .03.19zm.75 0c-.08 0 .1-.39 0 0zm.23-.09a.08.08 0 0 1 0 .09q-.02.06.03-.04zm.11-.46q0-.09.06 0t-.05.05zm.07.69c0-.22.11-.43 0 0zm.2-.09c0-.27 0 0 0 0zm.37-1.51c-.07 0 0 0 0 0s.03.04.02.04zm.93 1.51c0-.07 0-.15 0 0zm0-1.24c0-.07 0-.15 0 0zm4.26 1.1v-.09a.06.06 0 0 1 .08 0s-.01.14-.02.14zm.34.5a.18.18 0 0 1 0-.14c.06.14.08.14.06.19zm.6 0s0-.06.06 0 .02.05.01.05z"/><path class="cls-1" d="M69.09 31.4c.02.02.02.01 0 0zm-11.73-2.22c.06 0-.06-.23 0 0zm4.44 1s0-.04 0 0zm8.95-.87c0 .26 0 .22 0 0zm-.2.19c0-.19-.44 0 0 0zm-1.01.04c.3 0-.25-.33 0 0z"/><path class="cls-1" d="M70.36 29.5c-.22-.46 0 .15 0 0zm-16.42 1.32h.09c.02 0-.03-.03-.09 0zm7.38-2.28c0-.38 0-.06 0 0zm8.75 2.79h-.06c-.06 0 0 .12.08 0s-.02 0-.02 0zm.06-2.02c-.12 0 .09.33 0 0zm1.09.14c0-.28 0 .09 0 0zm-11.48 1.92s-.03-.12 0 0zm10.33-1.97c0 .2 0 0 0 0zm-10.21 1.97c0-.06 0-.08 0 0-.01 0-.01 0 0 0zm-3.24-2.28c0-.16 0-.07 0 0zm4.65.91s.05 0 0-.09.01.09 0 .09zm-5.88 10.07c.06 0-.06-.23 0 0zM60 41.08s0-.08 0 0zm-7 1.01s-.07-.12 0 0z"/><path class="cls-1" d="M69.42 41.72a4.79 4.79 0 0 1 1.84-.1.4.4 0 0 0 0-.26s-2.61-.09-2.95-.09c.06 0 1.38-.17 1.38-.32s-2-.14-2.21-.14c-.08 0 .16-.27.16-.32h-1v-.09a.25.25 0 0 0 0 .06h-.42s.26-.18.24-.18a36.71 36.71 0 0 1-4.46-.53 14.2 14.2 0 0 0-1.58-.09c-1.16 0-3.23.5-4.2.5a14.85 14.85 0 0 1-2.49 0 1.56 1.56 0 0 1 .19-.5c0-.07-5.85-.21-6.73-.34a7.35 7.35 0 0 0-3.19-.16 3.17 3.17 0 0 0-1.92 1.19c-.49.78.15 2.92.39 2.47.27 0-.2.36.06.36a5.75 5.75 0 0 0 1.81-.6c.28 0-.24-.27-.31-.27.53 0 1.39-.16 1.68-.15.1 0 1.19-.66 1.38 0 0-.14 4.51-.39 4.54-.46.13-.25 1.17 0 .94 0 0 0 .16.14.19.14s-.07.56.2 0c.92 1 5.23.24 5.77.2 1.48-.09 5.64-.51 7.06.34.12 0 0-.15-.09-.2a.82.82 0 0 0 0-.12c.33 0 .29 0 .35.28.1-.37 1.45-.14 1.58-.07.37-.33 2.28.06 2.28-.39a5.34 5.34 0 0 0-.54-.12.06.06 0 0 0 .05-.04zm-26.54 1.1a.09.09 0 0 1 0-.09.2.2 0 0 1 .01.09zm.4-.14a.22.22 0 0 0 0-.09c.07 0 .15.1 0 .1zm.56-.37s0-.05 0 0 .01.01 0 .01zm.12 0c-.11 0 .13-.47 0 0zm-.27.09h-.29c1.34-.99.16.01.3.06zm4.54-.4c0-.34.08-.15 0 0zm.25-.14s0-.06.06 0-.05-.04-.06-.04zm.17.09c0-.3 0-.06 0 0zm.27 0c-.21 0-.23-.33 0 0zm.3 0c-.06-.22 0-.11 0 0zm1.43-2c0-.28 0 0 0 0zm.17.14c-.19-.22-.08-.32 0 0zm.35 0c-.08-.29.12 0 0 0zm.79.09c-.22 0 .34-.64 0 0zm.85-.18c-.11.21-.49 0 0 0zm0 1.92a.49.49 0 0 1 0-.14.18.18 0 0 1 .04.08zm.15-1.7c.05-.29.11-.21 0 0zm.3-.14l-.1-.05h.14s.01-.03 0-.03zm.15 2.06c-.06-.22 0-.11 0 0zm0-2.11v-.14a.19.19 0 0 1 .06.11zm3 .64c0-.07 0-.15 0 0zm.71 1.6s0-.06.06 0 0-.04-.02-.04zm2.73-2.47h.07-.12s.08 0 .09-.05zm-1 .09s-.04-.04.07-.04zm-.15 1.05c-.06-.46 1.16-.3 1.87-.18a2.69 2.69 0 0 0-.81.41 2.79 2.79 0 0 0-.98-.27zm1.26.18zm.14.18a.17.17 0 0 1 0-.14.25.25 0 0 1 .08.11zm.78 0c-.09 0 .11-.39 0 0zm.27 0s-.07-.15 0 0zm.07-.55q0-.09.06 0t.02-.03zm.07.69c0-.23.11-.43 0 0zm.21-.09c0-.27 0 0 0 0zm.32 0c-.06-.21 0-.11 0 0zm1 0c0-.07 0-.15 0 0zm0-1.24c0-.07 0-.14 0 0zm4.45 1.1v-.09a.06.06 0 0 1 .09 0s.09.06.08.06zm.36.5a.18.18 0 0 1 0-.14c.17.06.18.06.17.11zm.63 0s0-.06.06 0 .12-.03.11-.03zm-6.25-1.96zm5.65 2.55c.02.02.02.01 0 0zm-5.23-2.59s0-.08 0 0zm6.62.78c.47-.42-.29 0 0 0zm-.92-.05c.31 0-.26-.33 0 0z"/><path class="cls-1" d="M69 40.4c-.23-.46 0 .15 0 0zm-17.18 1.32s.18 0 0 0zm7.71-2.28c0-.38 0-.07 0 0zm9.17 2.83s0-.06-.09 0 .04.08.09 0zm.04-2.06c-.12 0 .1.33 0 0zm1.14.14c0-.29 0 .09 0 0zm-11.96 1.88q0-.09-.06 0t.06 0zm10.76-1.93c0 .2 0 0 0 0zM58 42.32c0-.09 0-.15 0 0zm1.48-1.42s.05 0 0-.09.01.09 0 .09zm-9.09 41.16s-.04.04 0 0zm-1.67-1.31q.09-.05 0-.09t0 .09zm-.14-.59zm9.89 2.68h-.14v.11a.13.13 0 0 0 .14-.11zm-.07.45s-.22-.3 0 0zm-7.34 0h.06-.06zm-1.18-10.47c.03-.25.05-.39 0 0z"/><path class="cls-1" d="M54.77 72.27c0 .11-.23.12-.23 0-.44.09.85 2.69.79 1.55 0 .49.23 1.35.24 1.6 0 .09.73 1.09.07 1.31.11 0 .47 3.57 1 4a.61.61 0 0 1-.23-.06c.29.22.12 1 .09.65 0-.09-.13.09-.14 0s-.42-.3-.25-.16a1.67 1.67 0 0 1 .15.18 2.1 2.1 0 0 0-.39-.14 10.88 10.88 0 0 0-3.41-.25h-.07v-.09a.25.25 0 0 0 0 .09c-.27 0-.46.12-.49.23 0-.13-.21.08-.16-.14-.11.19-.21-.35-.46-.16s0-.52-.33-.46c.59-.27-.29-3.16 0-3.75 0-.12-.14.06-.19.11h-.12c0-.31 0-.28.23-.36-.44-.05-.21-.84-.23-1.09.07 0-.19-.4-.19-.39a.14.14 0 0 0 .19 0c-.43-.25-.4-1.67-.55-2.14a.1.1 0 0 0-.12 0 3.61 3.61 0 0 0 0 .56c-.14-.37-.62-1.79-.44-1.76a.42.42 0 0 0-.26 0s.22 2.45.27 2.78c0 0-.33-1.27-.48-1.25s.1 1.85.13 2.09c0 .07-.29-.12-.33-.11 0 .35.07.67.09 1-.12 0 0 0 0 0v.38s-.21-.23-.21-.2a68.69 68.69 0 0 1 .26 7.22c.61 0 1.37-.15 2.13-.25a.17.17 0 0 1 .1 0A27.17 27.17 0 0 1 54 83a15.32 15.32 0 0 1 2.86.2c0 .18.24.23.23.35.69.46 1 .17 1.22-.53-.07 0-.11-.06 0-.11.46-2.15-.58-7.63.4-8.06 1.29-.79-4-5.76-3.94-2.58zm.06.37q-.12.03-.01 0zm.06.37c0-.29 0-.23 0 0zm0 0L55 73c0 .1-.07.18-.08 0zm.49.69c-.43-.12.29-.09 0 0zm-.1-.16s.05 0 0 0 .03.04.03.03zm-.15-.13a1.25 1.25 0 0 0-.05-.28c1.16 1.27.14.17.09.31zm1 4.54q-.1 0 0-.06t.01.11zm-.2-.26c.33-.05.17.08 0 0zm.16.94a.28.28 0 0 1 .14 0zm.07-.29c-.53 0 .35 0 0 0zm-7.45-1.62c.26 0 0 0 0 0zm2.45 5.3c0 .06-.07.15 0 0zm-.81-.02h-.05a.61.61 0 0 1 .12-.14zm0 .09zm-.22-1.19c.48-.12 0 .11 0 0zm0 .15l.13-.07zm.09 0c.1 0 0 0 0 .06s.01-.11.01-.11zm-.1.33c.15-.15.25-.11 0 0zm.1-.69c0 .08-.15.06 0 0zm0-.27a.31.31 0 0 1-.13 0zm-.12-.93c-.07 0-.16 0 0 0zm-.33 1.78l.08-.06zm.11-6.39a.19.19 0 0 1-.14 0c.12-.01.12-.02.16-.01zm-.12-.62q.09 0 0 .06t.02-.08zm-.1 6.47h-.13zm-.59-6.1c.24.12.17.28.19.45.01-.08-.15-.32-.17-.47zm.27.7a.06.06 0 0 1 0-.09q.18.04.02.07zm.18 8.07h-.08.19s-.03-.06-.08-.01zm.25-2.4l-.08.05c-.24.12.31-.36.08-.05zm0 .16v.05c0 .05-.09-.01-.03-.05zm1.64 1.3a6.78 6.78 0 0 0-1.58.07 1.42 1.42 0 0 1 0-1c0 .32.29.83.32.77a.71.71 0 0 1 .13-.12c0 .05.29-.09.37-.2-.23.33.23.14.27.09s.84.4.46.4zm.76-1.33v-.09c0-.09 0 0 0 0a.29.29 0 0 1-.03.1zm1-.14s0-.06.06 0-.13.01-.14.01zm.67 1.6c0-.15 0-.07 0 0zm1.68-.82q0 .23-.08.01zm.9-.48l-.05-.05.15.14zm1.17 1.89a.38.38 0 0 1 .11.14zM58.2 81c-.11 0-.42-.16 0 0zm-.07-.26c0-.23.15 0 0 0zm.23 1.26c-.39-.42-.18-.26 0 0zm-.15-2c0 .16-.16 0 0 0zm0 .13c0 .13-.46.26 0 0zm-.33 3.14a.2.2 0 0 1-.2 0s.59-.07.21-.07zm-7.67-9.68c0-.1 0-.13 0 0zM55.77 81zm-7.33-7.45c-.29.19.1 0 0 0zm.03.17c-.19 0 .06.44 0 0z"/><path class="cls-1" d="M48.55 74c0-.19-.48.19 0 0zm7.83 6.71s-.1 0 0 .07zm-6.47 2.99c-.21.36 0 0 0 0zm.44-9.7q.16 0 0-.09s-.02.09 0 .09zm-1.93.14zm7.51 9.11c.08 0 0 0 0 0zm-7.5-9.04q.16-.05 0 0zm7.43 9.04s0-.24 0 0zm-5.11-.92s.05-.09.07-.09-.08.02-.07.09zm.53 15.99c0 .21 0 0 0 0zm-2.33.06c.46 0 .53-.29 0 0zm18.49.09a.31.31 0 0 0 .27 0 .31.31 0 0 0-.27 0zm23.22-1.68h-.11a.06.06 0 0 0 .11 0zM62.72 97c0 .21 0 0 0 0zm-14.04 1.26h-.06s.06-.02.06 0zm73.02.1h-1a3.37 3.37 0 0 0 1 0zm-73.86-1.51h.46a.88.88 0 0 0-.46 0z"/><path class="cls-1" d="M129.39 98c-4-.59-8.44-.18-12.54-.16 1.4 0 5.6-.11 5.6-.21-.17-.59-9.76.26-9.76-.15a7.09 7.09 0 0 0 .87-.12c0-.3-1.41.12-1 .12-.94 0-1.84 0-2.75-.1-.85 0-1.71-.09-2.61-.09.32 0 .72-.12 1-.12-8.15 0-16.14-.45-24.32-.4-3.84 0-7.63.07-11.48.07-2.69 0-7.35.27-8.95.27-1.06 0-10.58.7-10.9 0 0-.27 1 .14 1-.21a1.41 1.41 0 0 1-.4 0 .91.91 0 0 0 .23-.12c-.22 0-.5 0-.57.12-.86 0-2.43 0-4.52-.06l.26.09a4.91 4.91 0 0 1-1.41.12 4.69 4.69 0 0 0 .69-.22c-12.95-.24-43.68-.95-47 .89h-.89c.06 0 .32.71.4.79.68.65 2.35.37 3.2.37.35.19-.43.12-.38.12 1.07.9 7.29-.12 8.79-.4-.6 0-1.2-.09-1.79-.09 3.73 0 7.44-.35 11.12-.3 4.08 0 8.24.48 12.37.06a.29.29 0 0 1-.22-.12c1.72-.94 6.43 0 8.52-.09s3.93 0 5.89 0l-.31.06c.26 0 .55.09.81.09h.25v-.06c0-.06.05 0 0 .06 7.49 0 15.32.07 23.28.14 0 .12 0 0 0 0 11.12.1 22.49.23 33.56.23a.72.72 0 0 0-.24-.08h6.4c-.19 0 0 .1 0 0h1.51a.17.17 0 0 0 .06.1c.16 0 .61 0 .49-.11l6.9-.08a.45.45 0 0 1-.24-.12c2.96-.48 6.41.46 9.08-.29zM5 98.87h.05q.04.07-.05 0zm.71 0a1.85 1.85 0 0 1 .92 0 4.68 4.68 0 0 1-.91-.03zm1.52-.09c.09-.05 1.68-.34 1.68-.18s-1.48.14-1.68.14zm2.39-.24c.42-.23.42.24 0 0zm19.8-.31a.31.31 0 0 1 .27 0 .3.3 0 0 1-.27-.04zm1.14 0a.92.92 0 0 1 1 0c-.02.23-1.01-.02-1-.04zm8.3-1.07s-.05-.06 0-.09.07.04 0 .06zm.11-.21c.46 0 0 .09 0 0zm.38 0c.08 0 .49 0 .49.12q-.23.12-.49-.16zm1.79.06c.53 0 .28.16 0 0zm1.14 0c.48.14-.47.27 0 0zm2.28 0c.17 0 .33-.08.49-.06a.31.31 0 0 1-.5.05zm1.19.09V97q.11.07 0 .1zm3-.15c.6 0 .15.09 0 0zm.43.15c.24-.27.63 0 0 0zm.54-.06c0-.17.92 0 1 0a9.09 9.09 0 0 0-.96-.04zm25.66-.09a.39.39 0 0 1-.38 0 1 1 0 0 1 .42-.01zm1 .75h.07zm2.89 0a25.2 25.2 0 0 1-2.54 0l1-.08h.03c.81-.08 1.54-.15 1.88-.15 1.75 0 3.82-.33 5.53 0 0 .1-4.44.21-5 .21.15.07-.3-.1-.85 0zm4.94.09c-.22.13-.14 0 0 0zm1.41-.28a.31.31 0 0 1 .27 0 .3.3 0 0 1-.22-.02zm.49-.06h.27a.23.23 0 0 1-.22-.02zm.32 0c.73.16 0 0 0 0zm.38.37c.44-.25 0 .29 0 0zm.81-.3v-.09q.17.07.06.09zm.81-.67a.33.33 0 0 1 .27 0 .29.29 0 0 1-.21 0zM93 97h.11q-.05.11-.11 0zm12.86.18c.6 0 .16.09 0 0zm6.51.52a1 1 0 0 1 .38 0 .39.39 0 0 1-.39.04zm1.74.4q-.11-.06 0-.09c-.02.09.04.09-.02.12zm1.19 0q-.11-.06 0-.09zm-1.74-.46c.73 0 1.44-.09 2.17-.09a11.82 11.82 0 0 1-2.18.16zm2.28.4c.45.25-.33 0 0 0zm.92 0a.3.3 0 0 1 .27 0 .32.32 0 0 1-.28.06z"/><path class="cls-1" d="M121.7 98.36h1.88a4.34 4.34 0 0 0-1.88 0zm-.7-1.08a.54.54 0 0 0 .65-.09c-.17-.08-1.34-.11-.65.09zm-.83 0c0-.23-1.36.06-.6.06zm-.55 1.19s.76.17.76-.06c-.07.01-.76-.05-.76.06zm-1.57-.03c.23.09.38 0 .6 0zm-2.11-1.16c0-.14-.69-.05-.76 0s.62.03.76 0z"/><path class="cls-1" d="M119 97.31c1 0-.5-.28 0 0zm-41.2-.67c-.3 0 .15.09 0 0zm39.87 1.86a.39.39 0 0 0 .38 0 .24.24 0 0 1-.11 0 .81.81 0 0 0-.27 0zm.49-1.22c.1 0 .1-.22 0 0zm.65 0c-.09 0-.39-.09-.16 0 .05.03.11 0 .16 0zm4.19-.03c.15.09.13-.05 0 0zm-10 1.22c-.38.2.38 0 0 0zm-42.14.03h-.11c-.42-.03.07 0 .11 0zM56.16 97c.26 0 0-.12 0 0zm1.41-.09c-.14 0-.12.07 0 0zm51.43.43c0-.12-.26 0 0 0zm9-.06c0-.12-.25 0 0 0zm-1.36-.03c.42 0-.14-.08 0 0zm-93.02 1.22c0-.1-.07 0 0 0zm47.57.09c0-.11-.07 0 0 0zm39.81-.03h.05zm1.19-.03c0 .23.26-.14 0 0zM57.08 97c.26 0 0-.12 0 0zm23.27.55c0 .14.05 0 0 0z"/></g></g></svg>