<svg xmlns="http://www.w3.org/2000/svg" viewBox="0 0 129.39 119.75"><defs><style>.cls-1{fill:#975352}</style></defs><title>category__icon-wine</title><g id="Layer_2" data-name="Layer 2"><g id="Layer_1-2" data-name="Layer 1"><path class="cls-1" d="M22.67 22.34c0 .07 0-.66 0 0zm6.99 14.82c-.08-.17-.18-.34-.25-.52a2.63 2.63 0 0 0 .25.52zM17.48 54.58v.09s.03-.06 0-.09zm31.17 19.25c-.19.22-.75.33-1 .44.4-.02 1.63-.66 1-.44zm-1.84.73a10.43 10.43 0 0 1-1.14.35 2.81 2.81 0 0 0 1.14-.35zm-6.09 1.09a6 6 0 0 0-1 .12c.19.35 1.11-.15 1-.12zM45 75q.28.32.65 0a.57.57 0 0 0-.65 0zM20.85 53.31c.12.13.62-.26 0 0zM44.1 75.14c-.59.09.48.17 0 0zm.5.07c.47.15.37-.37 0 0zM50.69 73c.33 0 .41-.19 0 0zM27.61 32zm.65 1.76c.08.2.14.1 0 0zm15.49 41.57zm-1.91.28c.62 0-.23-.1 0 0zm-8.57 1.7c.06 0 .25 0 0 0zm0 0s.07.06 0 0zm-5.15-43.67l-.01-.01.01.02v-.01zm0 0v.06zm-.03-.05zm.04-.3c-.09-.07-.12 0 0 0zm-.48-1.02c.07.16.16.13 0 0zm46.98-7.38s0-.05 0 0zm10.12 5.65c.67.36-.18-.32 0 0z"/><path class="cls-1" d="M84.79 30.42c.23-.49-.16 0 0 0zm-19.21-1.01c.27-.16 0 0 0 0zm8.42-6.2c0-.33 0-.09 0 0zM83 31s-.18 0 0 0zm1.67-.79c-.15.18.23 0 0 0zm-17.14-4.78s0-.17 0 0zm-.24.25c0-.14 0-.07 0 0zm6.62-1.09v.09s.09-.02 0-.09zm21.64 2.76s0-.16 0 0zM91 30.18s-.16.05 0 0zm10.56.09s.03-.04 0 0zm-7.21-2.89c0-.08-.09-.16 0 0zm12.6 15.84l-.06.16zm-.06.16zm.44-1.54c.07-.38-.06-.18 0 0zm-.26 1.16c-.41.07 0 .17 0 0zm-5.45-14.61s0-.29 0 0zm3.66 13.71s-.11-.14 0 0zm1.9.66c.06-.2-.36.06 0 0zm-.18.07c-.25 0 .2.16 0 0zm-.62 1.71c.31.14-.12-.14 0 0zm-8.24-14.61s-.08-.1-.07 0 .05 0 .07 0zm-5.26-2.52c.08 0 0-.23 0 0zm.52-.12s0-.17 0 0zm-.15.07c.08 0 0-.23 0 0zm7.69 2.22s0 .08-.06.07.07.02.06-.07zm-43.53 13.1v-.05s-.02.01 0 .05zm-5.56 3.72s-.13-.08 0 0zm16.37-4.04c0 .05.08-.16 0 0zm3.12 2.12c.82.28-.3-.32 0 0zm-1.15-1.07c.27-.12 0-.14 0 0z"/><path class="cls-1" d="M71.33 44.33c0-.56-.18.07 0 0zm-19.75 8.98s0 .28 0 0zm4.28-11.66c-.14-.25-.13-.07 0 0zm13.85 3.68c0-.05-.17 0 0 0zM71.1 44zm.01.2s.15-.09 0 0zm-15.79 1.33q.09 0 .07-.06t-.07.06zm-4.63 2.69s-.13-.12 0 0zM68 42.1c.1-.2-.07 0 0 0zM81.8 101s.15-.06 0 0zm-4.62 2.92s0 .16 0 0zM71.06 101s-.06 0 0 0zm7.34 2.89c0 .08.09.16 0 0zm-13.23-14.5c.14-.11 0-.27 0 0zm.25-1.39c.4-.09.05-.17 0 0zm18.03 12.48c-.23.14 0 0 0 0zM71 102.85c-.14.25 0 .15 0 0zM67.22 89s.2-.08 0-.09 0 .03 0 .09zm-1.91-.71c0 .2.36-.08 0 0zm.21-.09c.24 0-.2-.16 0 0zm.55-1.76c-.31-.13.13.14 0 0zm8.46 14.9s.08.1.07 0-.05.01-.07 0zm-9.11-12.93zm14.35 15.49s.06-.23 0 0zm-8.01-2.28s-.07 0-.06.07.04-.08.06-.07zM58.06 79s-.14.08 0 0zm.66 1.13c-.1 0-.1.19 0 0zm4.35 1.6s0 .18 0 0zm-5.47-9.79s-.04 0 0 0zm10.54-11.48c-.09 0-.2.47 0 0zm-.69.17c-.21 0 0 .18 0 0zm-1.78.37c.15.08.29-.07 0 0zm1.39-.35c.26.32.19 0 0 0zM64.4 82.9s-.19-.09 0 0zm-8.68-10.08c.17.1.3 0 0 0zm11.36-10.16s-.08.16 0 0zm-.34-1.94s.12.25 0 0zm.21.09c.15.21.06-.25 0 0zm1.93-.25c0-.35-.08.18 0 0zm-9.95 14.81c0 .13 0 0 0 0s-.01-.02 0 0zM66.16 61c.16 0-.16-.18 0 0zM59 75.18c0 .1 0 0 0 0zm5.77-11.69c.08 0 0 0 0 0zm-5.24 17.84c-.12 0-.07.06 0 0zm-2.16-8.43zm55.86-21.27s.13-.07 0 0zM59.2 76.47c.15 0 .06-.06 0 0zm-2.04-8.31h-.06c-.06 0 .05.02.06 0zm-37.9-13.74a6.72 6.72 0 0 0-.5.58c.13-.17.36-.43.5-.58zm6.65-34.82c-.07 0 1.21-.25.29-.27q-.59.15-.29.27zM67.7 99.8q0-.1-.08-.08t.08.08zM55.54 45.07c.03.05.08.09 0 0zm14.73 4.26c0 .07.06.08.08.08l.05-.08c.02-.1 0-.21-.13 0zM58.65 75c.06 0 .23 0 0 0zm-4.03-28.81h-.06c.06.11 0 .07.06 0zm15.85 55.94s0 .09.09.11h.05l-.1-.06zm-.36-52.54h.09a.09.09 0 0 0-.09 0zm44.2 12.6h.06c.06 0-.05-.03-.06 0zm-43.57 40.15v-.05zm-4.96-12.96c0 .12-.08.28-.1.45l.1-.44zm32.78-59.52c-.04.06-.05.14 0 0zm13.5 24.34v-.05c-.06-.01-.06-.03 0 .05zm.52 1.41s-.06.01 0 0zm-95 3.12h.19c.37-.01-.23-.08-.19 0zm74.98-5.88a6 6 0 0 0 .24.76c.06-.06-.05-.35-.24-.76zM93.61 85h.06c.06 0 0-.05.05-.07s-.09.07-.11.07zM97 29.63q0 .09.09 0H97zm-26.08 24.5s.2.03 0 0zm34.26-11.25c.1.12-.13-.48 0 0zm-16.62 2.9l-.3-.05c.17.06.28.09.3.05zm-13.35-1.37s0-.09 0 0zm4.91 27.4c-.09-.13.12.58 0 0zm11.64 13.71s0 .16 0 0zM67.23 28.27zm6.88 73.14c.03-.05.04-.12 0 0zm1.48.27c.07-.11.07 0 0 0s-.01-.04 0 0zm2.53-26.98a2 2 0 0 1 .13.26c-.04-.17-.08-.26-.13-.26zM31.07 20.42l-.23-.09h.07zm39.85 35.99c.15.08.07 0 0 0zm34.9-11.09c0 .15.19.05 0 0zm-50.74-2.68zm-17.79 33.3c-.23 0-.49 0-.74.08.45-.02.74-.02.74-.08zM90 49.3c.2.31.07.1 0 0zM24.73 21.42c0 .13.06.27.09.41.08-.11.05-.25-.09-.41z"/><path class="cls-1" d="M110.57 48.34c.3-.33.17.44.54.06-.05.05.05-.19.06-.2-.06-1.55-5.32-2.25-5.8-3.09-.38-.66.76-2.43 1-3.28A7.36 7.36 0 0 0 106 44a24.42 24.42 0 0 0 1-3.43c0-.12.22.3.28.31a12.6 12.6 0 0 0 .1-1.77c.15 0 0-.05 0 0v-.71c0 .06.28.49.26.35-.4-3.77-1.47-6.94-4.73-9.25a13.1 13.1 0 0 0-7.1-2 41.47 41.47 0 0 0-4.31.46c-.13-.43.45.11.32-.41 0 .07-.14-.15-.13-.16-.84-.5-7.05 3.55-7.09 4.65-.39-.16-.76-1.5-1-1.86.18.26 1 1.37 1.2 1.34A15.68 15.68 0 0 0 83.3 29c-.06-.08.34 0 .39 0a16.64 16.64 0 0 0-1.32-1.5 1.93 1.93 0 0 0 .36.1c-2.06-2.06-3.72-3.35-6.57-3.93-.73-.15-6.14-.32-6.83.85a21.57 21.57 0 0 1-.51-4c.06.24.15.47.21.72.48-.95-1-4.07-1.32-5A34.19 34.19 0 0 0 64.08 9a21.79 21.79 0 0 0-2.87 2.17c.88-.65 1.93-1 2.77-1.75a2.27 2.27 0 0 1 .45.75c-1.06-1.76-9.58 7.82-10.53 9.4a48.56 48.56 0 0 0-3.31 5.93c-.1.24-.7 3.06-1.22 3.39A33.15 33.15 0 0 0 42 23.63a.44.44 0 0 1 .18.33c-1.85-.15-4.52-2.63-6.31-3.5a24.88 24.88 0 0 0-5.42-2 26.91 26.91 0 0 0-3.32-.6c.09 0 .07-.05-.07-.13a2.67 2.67 0 0 0-.69 0l.36.07a10.47 10.47 0 0 0-1.23 0c-2.64.15-3 .56-2.72 2.59-.1-.3-.22-.62-.23-.69.09.49 0 1 .15 1.53a1.36 1.36 0 0 0-.23-.49c-.33 0 .43 1.9.44 2-.49-.95.14 1.51.23 1.92.31 1.35.6 2.7.94 4a61.71 61.71 0 0 0 2.6 7.22c.43 1.09 4.27 9.37 5.72 8.62-.5.32-1.46.2-2.05.37s-1.18.39-1.75.62c0 0-.33.1 0 0l-.66.28c-1 .44-2 .94-2.95 1.49a34.71 34.71 0 0 0-6 4c-1.11 1-5.49 5-5 6.72.35 1.18 6.64 2.81 7.71 3.2 1.69.63 3.42 1.58 5.18 2.19s7.12 2.84 8.6 1.82a16.12 16.12 0 0 0-5.15 5.16 2.72 2.72 0 0 0 .77-.87c.13.1-1.59 2.57-1.79 3.1a7.69 7.69 0 0 0-.51 2.82c.32 1.23 2 1.32 3.48 1.61a48.39 48.39 0 0 0 5.05.47l-.53.07c0 .31 1.06.15.85 0 4.93.7 10.71-1.11 14.64-3.47-.82 0-3.76 2.13-4.48 1.74 2.77-1.7 5.77-2.95 8.44-5-.47 2.86.34 5.35 1.64 8 .06.12.14-.12.12-.17s2.69 3.82 2.78 3.69c-.3.33-.18-.45-.55-.06.05-.05 0 .2-.06.2.08 1.44 5.49 2.62 6.09 3.27 1.08 1.17.57-.24.45 1.45a14.59 14.59 0 0 1-.54 1.91 7.83 7.83 0 0 0 .27-2.11 15.09 15.09 0 0 0-.67 2.42c.17.29.05.55 0 .83a.44.44 0 0 1-.08-.36c-.07.33-.12.58-.13.66s-.23-.3-.29-.3a15.41 15.41 0 0 0 0 2.51s-.28-.5-.27-.35c.47 4.49 2.35 7.85 5.54 9.79.09 0 .15 0 .1.06l.15.09A14 14 0 0 0 77 104c.12 0 0-.18-.08-.18a42.33 42.33 0 0 0 4.37-.51c.14.44-.46-.1-.32.42 0-.07.14.15.14.16.94.55 5.62-3.23 6.1-3.69a13.65 13.65 0 0 0 2.09-2.79c1.65-2.69 3-6.34 1.08-9.36 1.9.83 5-1.5 5.9-1.95.34-.16 1.58-.82 1.43-.72a2.24 2.24 0 0 0 .23-.22c.05 0 .19.07 0 0 .69-.74 2.4-2.85 2.65-2.72s-.48.3-.07.63c-.07-.06.21 0 .21 0 2-.53 3-7.86 2.88-9.34s-.8-2.88-1-4.44a8.22 8.22 0 0 0 3-.62 22.14 22.14 0 0 0-2.16.84c.12.48 3.3-.77 3.62-.93.11-.05-.15.36-.12.41.45-.21 1.08-.52 1.61-.83.07.1.06 0 0 0a6.36 6.36 0 0 0 .6-.38 4.38 4.38 0 0 0-.24.39A12 12 0 0 0 115.19 58c.07-2.52-1.15-4.51-1.91-6.09.01.09-2.63-3.68-2.71-3.57zm-3.13-10.48c0 .23-.09.07 0 0zm-.68 3.8c-.22-.23.08-.26-.07-.63q0-.15.07-.19c-.03.24.05.54 0 .82zM22.82 21.71s0-.08-.06-.07q.24-.09.06.07zm.65 3.91c0-.2.06 0 0 0zm41.7 67.61c0-.23.09-.06 0 0zm.65-2.56c.13-.1.13 0 0 0zm.66-1q-.13-.07.09 0zm.07-.17c0-.14.17 0 0 0zm0-.37q-.08-.08 0-.1c.09.07.09.1.02.12zm44.22-39c-.17.15-.06 0 0 0zm-.39-2.38c-.12.14-.11.08 0 0zm-.56-.32zm-.11-.08c-.45.19-.08-.06 0 0zm-.23-.23c.15.19 0 .11 0 0zm-.42-.4c.18.11.33 0 .35.34-.79.1-.3-.2-.34-.28zM109 49.4c-.15.18-.05 0 0 0zm-.6-.75c-.09.13-.12.11 0 0zm-2.69-3.17c-.07.23 0 0 0 0zm.35-4.15q.12.07-.09 0zm-.08.16c0 .14-.17 0 0 0zm0 .36q.08.08 0 .09t.02-.08zm-1.07-10.45q.11 0 .08.08t-.1-.07zm-.86.35a.11.11 0 0 1-.1.09zm-.42-.31zm.15.9c-.17.16-.05 0 0 0zm-.36-.39c.25-.09-.24.24 0 0zm-.16-.59c.2-.21 0 0 0 0zm-1.2-2.36s.07.1.09.11-.24.02-.09-.11zm-.17-.1zm-1.4-.64zm2.85 2.8a9.35 9.35 0 0 0-2.08-.94c0-.06-1.23-1.17-1.21-1.16.61.32 3.14 1.34 3.29 2.12zm-.59.08c-.07.2-.22.11 0 0zm-1.1-.62c.09-.13.11-.11 0 0zm0-.3s-.06.01-.04.02zM90.43 28.1c.1 0 .29-.06.37-.08-.11.04-.51.14-.37.08zm.32 1.9a.32.32 0 0 1-.06-.13.13.13 0 0 1 .06.13zm-.67-1.91c0 .17-.1.16 0 0zm-.5.09l.15.1c-.06 0-.14.13-.19.37-.19-.17.06-.24.04-.43zm-1 .8c0-.13 0 0 0 0zm-.7.61zm-.46.12zm-.77.5c.11.25 0 0 0 0zM86 33.67c.19-.26-.23.94 0 0zm-.26.56q.05.1 0 .08t.04-.09zm-.07.39c-.05.08-.37-.09 0 0zm-1.94-4.86c-.29 0-.36-.27-.5-.45.17.17.4.24.54.45zm-.39.73h-.06c-.01 0 0 0 0-.05s.14-.01.1.05zm-.19-.28c-.18.24 0-.05 0 0zm-.15-.08l.07-.07c.07-.07.09-.01-.07.07zm0-1.06a.09.09 0 0 1 0 .12q-.1 0 0-.12zm-.86-2c.07.15 0 .11 0 0zm-3.34-2.4c-.08.21-.06 0 0 0zm-1.8.7c-.05.2-.05.07 0 0zm0-.62a.14.14 0 0 1 0 .13zm-.33.58c-.14 0 0-.14 0 0zm-.06-.62c0 .43-.07 0 0 0zm-.31 0zm0 .42zm-1.78-1.62s.1.05.11.05-.22.15-.15-.01zm-.16 0zm1.89 1.06c0 .06-1.61.09-1.84.32l-1.31-.43c.46.01 2.75-.31 3.11.14zm-1.41.47c0-.13 0-.19 0 0zm-.15-.24s-.06.04-.04.04zm-1.57-1.17zm-1.92 2.68s-.01.12 0 0zm-1.81-1.42s.02-.01 0 0zm0 2.16a12.36 12.36 0 0 1 2.81-.82c3.07-.57 7.26-.49 8.5 2.4.1.09.06-.15.05-.23l.08-.08A16.22 16.22 0 0 1 82.42 30a14.56 14.56 0 0 1 1.5 2.27c.22-.2-.11-.7-.22-.81 1.49.87-.87 3-1.42 4.28-1.28 3-.74 4.42.06 7.38-3.38.35-5.55 0-8.47 2.07-1.06.74-1.23 1.21-2.1 1-.63-.19-1.32-1.5-1.84-1.9.31.24 1.58 1.34 1.81 1.27a24.53 24.53 0 0 0-2.63-2.43c-.1-.07.37-.07.4-.12-.6-.39-1.85-.37-2.13-1.15-.11-.05.43-.06.42-.06a20.55 20.55 0 0 0-3.21-1.25c.33-.45 0-.62 0-.64s.18-.2.23 0c.18-.1-.9-1.93-1.07-2.06 0 .15-.09.36-.07.49-.1-.71-1.22-3.43-.11-3.59-.68-.13 1.87-5.2 1.89-5.13-.09-.32 1-1.08.75-.88 0 0 .23 0 .26-.06s.31.45.21-.13a2.74 2.74 0 0 0 .55-.21c-.14-.09-.07-.08 0 0A7.34 7.34 0 0 0 69.37 27zm5.57 19.48c-.08 0-.11-.15 0 0zm-.69-.31zm0 .6c.06.25-.07.05 0 0zm-.58-.17c-.13-.15.55.12 0 0zm.16.47zm-.25.36zm-.24-.48q0-.13.12-.11c0 .11-.04.11-.12.11zm0 .22c-.2-.21 0-.05 0 0zm-.75.59c-.3-.19.39-.66.44-.68.18.14-.32.54-.4.67zm-.82 1.61c.09 0 .15.1 0 0zm-.21.27v-.05zm-1.47 2.81c-.43 0 .61-1.86 1.42-3.26a2.06 2.06 0 0 0-.17.89 5.6 5.6 0 0 0-1.21 2.35zm.23 9.05c-.19.13-.13 0 0 0zm-2.55.11a5.13 5.13 0 0 0-1.51.22c.19 0 2.28-.67 2.28-.69-.07-.55-3.84.7-3.87.64s.28-.19.23-.33a15.79 15.79 0 0 0-2.37 1.13c.08 0 .24-.36.27-.38-1.08.65-2 1.38-2.77.61-.14 0-.08-.26.11-.21a9.47 9.47 0 0 0-2.8-.51c.17.11.29.31.45.4-.74-.4-4.15-1.54-3.53-2.7-.79.63-2.86-6.2-2.77-6.12-.31-.24 0-1.82 0-1.44 0-.06.14-.21.15-.27s.5.15.09-.29c.78-.77 1.06-3.1 1.84-4.2.34-.48.65-.91.95-1.31a8.9 8.9 0 0 1 1-1.12 5.35 5.35 0 0 1 .7-.56 10.64 10.64 0 0 1 9.9-1.15c0-.2 0-.14-.18-.21 0-.1.12.17.1-.11a13.39 13.39 0 0 1 2.57 1.33 18.12 18.12 0 0 1 2.54 2.21c.2-.35-.59-.9-.59-.89 1.71.63.77 2.16-.18 3.64 0 0 0 .07-.05.08l-.14.22a8.33 8.33 0 0 0-.83 1.52c-.35 1-1.93 7.4-.11 8.11a.34.34 0 0 0 .08-.23c.12.46 0 1.63.54 2.07-.11-.32 0-.18.07 0a3.4 3.4 0 0 0 .19.34c-.68-.07-1.7.35-2.32.18zm-1.2.52q0 .1-.1 0t.13-.02zm-.35.18c-.14 0-.12-.14 0 0zm-.24-.07zm-.6-.34q-.12.11-.22 0c.26-.1.46-.33.77-.41-.12.32-.29.12-.56.46zm.2.56c-.08-.23 0-.05 0 0zm-.68-.34zm-2.71.58c-.19.14-.13-.07 0 0zm-2.84 0c-.55.37.14-.41 0 0zm-.33 0zm-.34 0h-.45c-.18-.01.24.01.44.01zm-.7-.05c-.25.23 0-.46 0 0zm-4.77-4.09c-.32.18-.14 0 0 0zm-.37-.29q.11 0 0 .08t-.02-.09zm-.09-.19c.21-.1.07 0 0 0zm-.36-.79c.22-.09.07 0 0 0zm-.79-5.44c.16 0 .16.05 0 0zm.2-2.74c.21.08.05 0 0 0zM52 51c.22 0 .06 0 0 0zm7-9.5a11 11 0 0 0-1.86 1.32 3.46 3.46 0 0 0-1.59.74c-.43-.37.22-.23.19-.37.05-.36 2.85-1.79 3.26-1.65zm-2.61.15zm.12 0l.2-.1zm2.32.59c-.13 0 0-.42 0 0zm-1.21.35c.12.11.06.13 0 0zm-.22.05v-.05zm1.83-.59s-.11 0 0 0zm0-.51q0-.1.1 0t-.11.04zm0 .2c-.08-.28 0-.06 0 0zm.37.19c-.07.48-.16 0 0 0zm0-.42c-.1-.32.23.14 0 0zm.25.41c0-.27.08.33 0 0zm.16-.65a.11.11 0 0 1 0 .13zm.13-.93q0-.1.11 0t-.18.03zm.23 1.45c0 .23 0 .06 0 0zm1.64-.12c0-.09 0-.12 0 0zm1.7-3c0-.12.43 0 .46.18.03.42-.57-.22-.53-.19zm.07-.13c-.12 0 0 0 0 0zm-.11-.08c-.33 0 .41-.21 0 0zm.61.69c.2.42 0 0 0 0zM67 41.46c.18.14 0 .11 0 0zm1.89 1.79c0 .16 0 .14 0 0zm1 1.44q-.1 0-.07-.06t.05.05zm-.64-1.23l.31.22zm.31 1c-.08.3-.07-.05 0 0zm-.12-.15l-.08.11a.12.12 0 0 1 .05-.16zm3.15 3.67c-.08.13-.43.44-.64.69.25-.42.44-.74.49-.84a.2.2 0 0 1 .12.1zM63.62 29zm0 4.06h-.05c-.05 0 .1-.15.06-.06zm0 .27c0 .07-.39 0 0 0zm-.44-3.82c.07-.11.56 0 0 0zm.19.31zm-.17-.24c-.08.14-.13-.08 0 0zm.63-.8c.14 0 .29.24 0 0zm.08 3.41c.19.09.07.07 0 0zm0 .39c-.1.27-.35.13 0 0zm-.24.26c.19.07.08.06 0 0zm.66-4.84c.12.34.05.27 0 0zm.7-.36c-.22-.12-.07-.28-.14-.43l.18.07s-.07.11-.07.35zm.21-.5c.17-.06.1 0 0 0zm.32.08c-.14-.27 0-.24 0 0zm0-.29c.06-.05.22-.14.25-.17s-.38.24-.27.16zm.41-.29c-.16-.09-.09-.11 0 0zm2.05.28c-.16-.13-.07-.11 0 0zm-.2-9.41a4.87 4.87 0 0 1-.39-1.37 6.84 6.84 0 0 1 .37 1.37zm-.52-1.33c-.08-.27-.14-.58-.18-.74.47.77.01.26.16.74zm-1.46-3.39c.3-.17 1.17 2.42 1.19 2.5a9.39 9.39 0 0 1-1.22-2.5zm-.87-1.86q.29.83-.2.12t.18-.12zM48.3 28.14c-.17.4-.18 0 0 0zm-1.17-.74c.06 0 0 .09.1.14a.48.48 0 0 1-.33-.25c.1.05.16.06.22.11zm-.87-.77c-.12.16-.1.06 0 0zm-1.47-1.07l1.11.86c-.78 1.05-1.26-.99-1.11-.85zm-10.4-4.13zm-.31.11c-.14 0-.35-.15 0 0zm-.47-.1a1.38 1.38 0 0 1-.49-.46zm-3.82-1.66zm-5.3 1a3.4 3.4 0 0 1-.24-.91s.61 1.88.23.89zm.15 1.33c.06 0 .46.48.21.53a.52.52 0 0 1-.22-.55zm.26.77c.24-.05.35 1.32.39 1.48a14.17 14.17 0 0 0-.4-1.5zm.66 2.41c0-.19.07 0 0 0zm.74 7.41c0-.2.06 0 0 0zm-2.48 17.82a1.4 1.4 0 0 1-.49.25.55.55 0 0 1 .49-.25zm-6.34 4.06v.09zm.79-1c.52-.37 1.12-.86 1.77-1.39h.06c.53-.44 1.09-.9 1.67-1.35a41 41 0 0 0-4.84 5c0-.09.08-.17.13-.26a10.32 10.32 0 0 0 1.21-2.04zm-1.37 1.59c-.16.12-.05 0 0 0zm.76 3.61c-.05 0-.07 0-.08-.05a1.54 1.54 0 0 1-1.08-1.16c1 .41 2.14 1 2.73 1.3a4 4 0 0 1-1.46-.1zm1.65.72zm.3-.27c.08-.19.08-.08 0 0zm.56.78q-.28-.35.26-.19t-.27.18zm.92-.31a3.63 3.63 0 0 0-.4-.31c.09 0 .88.43.81.58s-.32-.03-.42-.26zm.4.75c.12 0 .38.15 0 0zm1.29-.15zm1.6-.34c-.4-.15.19 0 .24 0s-.17.04-.25.04zm5.52 3.44c0-.12.1 0 0 0zm.64-1.1c0-.12.1 0 0 0zm1.22 9.57l-.16.27.12-.2zm-.18.31zm4.12 4.32q-.51-.21.09-.08t-.08.08zm4.2.64s-.09 0-.09-.09.14-.05.1.09zm2.4-.24a.26.26 0 0 0-.17 0s.87-.11.19-.01zm-.7-.35c.23 0 3.53-.71 6-1.42a20.78 20.78 0 0 1-5.99 1.42zM56 70.88c-2 1.07-3.81 2.14-5.7 3.07A71.17 71.17 0 0 1 38 76.44c.9 0 1.91-.17 2.49-.12a7.5 7.5 0 0 1-2.88.15c-1 0-1.6-.07-1.57-.4a3.3 3.3 0 0 0 .55 0c-1.29-.08-3.84-.52-4.09-.57l-.66-.1c-1.21-.15-1.37-.07-.81-2a5.37 5.37 0 0 0 0 1c.24-1.83 1.79-3.62 3-4.88.83-.87 1.78-1.59 2.66-2.43.13-.12 2.16-2.9 2.33-2.93-1.65-.22-2.4-1-4.07-1.24a36.88 36.88 0 0 1-7.46-2c-1.87-.68-9.44-2.62-9.55-4.29 0-.61.8-1.56 1.69-2.4.71-.68 1.46-1.29 1.81-1.61a20.4 20.4 0 0 1 4.8-3.17c4.06-2 8-2.39 12.31-3.49-1.26-.88-2.75-1.44-4-2.35-.5-.36-1.82-2.2-2.5-2.49a1 1 0 0 0 .17.45 6.16 6.16 0 0 1-.56-.84s.14-.11 0 0a29.56 29.56 0 0 0-1.91-3.5c.46 1-.89-1.37-1.12-1.83-.6-1.22-3.5-7.85-2.76-8.45.46-.12.17 1.55.72 1.39.33-.1-1.12-3.95-1.69-6.43v.06a.39.39 0 0 1-.05-.48c-.15-.78-.19-1.37 0-1.57 1.05-1.11 3.65-.48 6.11.48-.2-.13-.15-.16.18-.06s.25.2 0 .15a47.78 47.78 0 0 1 4.81 2.32 67.06 67.06 0 0 1 15 11c1.66-4.4 2.31-8.53 5.24-12.39.8-1 5.27-7.45 6.77-7.29 1.35.14 2.9 8 3.47 9.07s1.62 1.79 1.4 2.64c0 0-1.4.75-1.42.73-.19-.24.07-.17.14-.22 0-.29-.23-.22-.23-.34-1.39-.38-4.35 5.33-4.84 6.51-1 2.45-1.91 5.27-.19 7.69a10.44 10.44 0 0 0-6.12 2.48c.17-.12.15.09 0 0a14.35 14.35 0 0 0-3 3.58 39 39 0 0 0-1.77 4c-.44-.11.31-.34-.2-.49 0 0-.19.06-.2 0-.86.48-.17 6.08-.06 6.64a12.36 12.36 0 0 0 1.27 3.45c1.49 2.94 3.77 5.88 7.46 5.91-1.53 1.41-1.46 3.74-2.67 5.1zM32.9 43c.32.14.21.15 0 0zm17.17 12.64c.25 0 0 0 0 0zm-.3-3.92c0 .13.15.44.14.59-.52-.19-.13-.31-.13-.58zm0-.2c.14.11.08.16 0 0zm.17-.49c.1-.62-.11.72 0 0zm-.28 2.15c.29.2.23.21 0 0zm.22 1.4c0 .25-.15.09 0 0zm0 .89c0-.17.42-.42 0 0zm.11.11c-.27 0 0-.05 0 0zm0-1.31c0 .2 0-.26 0 0zm0-2.8c-.32-.12 0-.25 0 0zm8.21 15.1c.18.11 0 .08 0 0zm-.49 3.11zm-.1 2.27zm-1.34.12a.07.07 0 0 1 .05-.09c-.01.13.04.33-.05.08zm.08.27zm0 1.72c0-.26.17-.1 0 0zm1.06.09c-.5.17-.22-2.37-.18-2.68a4.16 4.16 0 0 1 .13-.6 2.13 2.13 0 0 0 .26 1.43 3.25 3.25 0 0 0-.2 1.84zm.4-5.24zm.19 1.53c-.27-.06 0 0 0 0zm.29-1c-.2-.19.33.11 0 0zm2.27 11.15c.18-.15.06 0 0 0zM61 83c.12-.15.1-.07 0 0zm.58.33zm.11.08c.46-.19.08.06 0 0zm.24.23c-.16-.2 0-.11 0 0zm.44.4c-.18-.11-.34 0-.37-.34.8-.07.32.24.35.3zm0-2.64c.15-.18 0 0 0 0zm.63.76c.09-.14.11-.1 0 0zm1.53 2.69zm1.21.65c-.2-.05 0-.15 0 0zm.1-.17a.1.1 0 0 1 0-.13s.02.07-.01.1zm1-1.48c-.49.2-2.08-.79-2.19-.74-.37.16-1.72-.9-1.36-.69-.05 0-.13-.23-.18-.27s.35-.37-.23-.23c-.37-1.11-2.36-2.53-3-3.84A10.47 10.47 0 0 1 58.51 74a10.94 10.94 0 0 1 4.66-9.43c-.17-.1-.12-.09-.28 0 0-.06.18-.05 0-.14A12.33 12.33 0 0 1 65.58 63c.35-.07 1.29-.38 2.2-.6-.07.07-.13.14.05 0a6.23 6.23 0 0 1 1.23-.19c-.17-.39-1.13 0-1.13-.06a3.84 3.84 0 0 1 2.58-.32c.3.15 2 3.08 2.07 3-.31.31-.28-.6-.67-.25q.07.16 0 .17c1.55 1.31 6.26 5.28 8.62 4.13A9.66 9.66 0 0 0 79 72.7c.13-.86.36-2.25.36-2.25-.65-.2-1.11 4.68-1.1 4.68a.62.62 0 0 0-.06-.18c.15.72.11 2.73.17 3 0-.12-.29-.4-.31-.47.07.27.12.81.18 1.14-.5-.3-1.1.55-1 .53-.09.12-.27 0-.15-.18a12.34 12.34 0 0 0-1.7 2.47c.17-.13.43-.15.58-.27-.68.55-3.36 3.26-4.19 2.18.09.29-4.78.42-4.93.47zm5.2-21.42c.22-.15 0 0 0 0zm.86 3.1c.16-.18.05 0 0 0zm.37.14s.61.31.53.36-.45-.33-.52-.39zm.92.71zm.18.19a1.66 1.66 0 0 1 .79.32c-.53.24-.55-.19-.78-.35zm.94-1.57q0-.1.08-.11s-.01.06-.08.11zm1 2.62c.3-.17.37 0 0 0zm1.63.57c-.08-.1.15-.39 0 0zm.47.07c.36.09.08.2 0 0zm1 .18c.56.62 0 .11 0 0zm.38.2c.29 0 0 .14 0 0zm-.5 5.27zm0 .55c-.26 0 0 0 0 0zm.12-.86c0 .18-.18.07 0 0zm-.08-.44v.08c0 .01-.03-.05-.02-.08zm-.33-.09zm-.32 2.21a.18.18 0 0 1 0-.19q.15.13-.01.19zm-.21-1.09c0-.14.07-.37.09-.56a2.24 2.24 0 0 1 .07 1.07c-.01-.1-.18-.33-.17-.51zm-.09 4.3c.23.09 0 .14 0 0zm-1.43 1.1zm-.68 1.15c.11-.1.2-.37.31-.48.26.61-.42.65-.32.48zm.42-.46c-.11-.07 0-.37 0 0zm-.47.81c.1.33-.41-.21 0 0zM70.14 84c0 .34 0-.46 0 0zm-.7.08c0-.24 0-.06 0 0zm-.91-.17c.05.15 0 .15 0 0zm0 15.59a.11.11 0 0 1 .1-.09zm.27-.58c.18-.16.05 0 0 0zm.26 1q.11 0 .08.07t-.04-.1zm.11-.6c-.25.09.24-.24 0 0zm.16.6c-.2.21 0 0 0 0zm-.11.27a9.55 9.55 0 0 0 2.1 1c0 .06 1.25 1.18 1.23 1.17-.55-.36-3.13-1.36-3.29-2.21zm.6-.08c.06-.2.22-.1 0 0zm1.12.64c-.09.13-.11.11 0 0zm0 .3L71 101zm11.36 2.09c-.1 0-.3.06-.37.09.18-.08.58-.18.45-.13zm-.29-1.83c-.06-.14 0-.16 0 0zm.63 1.78c0-.17.1-.17 0 0zm.51-.09l-.16-.1c.07 0 .14-.13.19-.37.28.17.03.24.05.47zm1-.83c0 .13 0 0 0 0zm.7-.63zm1.07-1l.08.09zm.16.34c-.11-.24 0 0 0 0zm.55-3.46c-.2.27.19-1 0 0zm.24-.58q-.05-.1 0-.08t.13.06zm.08-.4c.05-.08.38.08 0 0zm1.31-4c0 .13-.35 2.25-.86 2.28 1 .35-3.82 5.73-3.81 5.65-.05.38-1.59.93-1.24.76h-.32c-.06 0-.14-.49-.29.09-1.08-.28-3.26.68-4.62.59a14.66 14.66 0 0 1-3.11-.42 5.61 5.61 0 0 1-.86-.32 10.62 10.62 0 0 1-6-8.1c-.15.09-.15.07-.1.26-.1 0 .1-.19-.14 0a13 13 0 0 1-.08-2.92c0-.28.19-1.29.39-2.19 0 .1.12.31 0 0a6.42 6.42 0 0 1 .42-1.12c-.41 0-.5 1-.51 1-.24-2.7 2.87-1.64 4.87-1.83 3.78-.36 5.15-1.91 7.4-4.68a11.71 11.71 0 0 0 4 4.6c1.09.75 3.44 1.06 3.59 2.17.05.15-.17.21-.23 0a11.71 11.71 0 0 0 1.07 2.59c0-.19.12-.43.11-.61.06.76.58 1.44.44 2.22zm-6.64-8.11c.14-.15.08.08 0 0zm.91-.84c.05-.06.13 0 0 0zm.79 2.43zm1-1.13c.13-.22 0 0 0 0zm.56.84c-.13.29-.11-.23 0 0zm0-.48c.2-.17.07 0 0 0zm.27.64h.09c.02 0-.05.02-.06.01zm.3-.06c-.12.26 0 .05 0 0zm2.35.88c-.47.25-1.25-.07-1.73-.37.62.17 1.66.13 1.76.38zm-.07-.49c0 .19-.05.1 0 0zM88 90c.34.1-.4.21 0 0zm-.11-.12c.12 0 0 0 0 0zm.07-.16c0 .16-.44-.13-.46-.28-.05-.44.5.35.5.34zm0-3.35s.04.06.04.05zm-.11.19a.15.15 0 0 1 .07-.09.57.57 0 0 1-.08.14zm-.42 2.53c-.2-.46 0 0 0 0zm-1.76-3.67zm2.54 1.12c.12 0 .23-.08.22-.19.14.11 2.14.63 2.06.63a7 7 0 0 1-2.29-.39zm1.54 0c.07.13 0 .07 0 0zm5.88-.6c0-.07 0-.15 0 0zm5.47-3.93zm-.19-3.38a11.88 11.88 0 0 1-.45 1.17s.12-.78-.24 0c0 0-.35-.24-.22.33-1.28.79-2.72 3.1-4.4 4a10.38 10.38 0 0 1-5 1.51 10.81 10.81 0 0 1-10.1-7.59l-.07.08a25.65 25.65 0 0 1-.68-3.5q0 .21.19.13c-.55-.84.3-3.64.67-4.44-.5 0-.56 1.25-.63 1.24 0-3.23 2.5-2.35 4.91-2.91A15.55 15.55 0 0 0 89.24 67c1-.59 2.09-2.08 3-1.94.06.2 0 .18-.18.16a23.37 23.37 0 0 0 3.62.69c-.22-.12-.41-.37-.61-.49.9.48 5.2 2.29 4.38 3.77.33-.21 1.49 3.48 1.6 3.81a6.47 6.47 0 0 1 .5 2.4c0 .37-.39 2.32-.4 2.3.12.41-.15.62-.25.99zm-17.5-12s0 .15 0 0zm.71-.2c.3-.2.46-.19.49 0zm.58-.09zm.36 0q0-.12.14 0t-.15-.01zm.5-.33c.11 0 .31.24 0 0zm6.1-8.52a.7.7 0 0 1 .2.85c0 .16-.47-.19-.23-.36-.21-.14 0-.38.02-.5zm-.09-.31v-.45a.31.31 0 0 1-.01.44zm.05.25c-.08-.13.15-.37 0 0zm-.08-1zm.21 2.16s0-.11 0 0zm0 .17c.26.29-.45.12 0 0zm1.08 6.4c0 .06 0 .13 0 0zm.26.06a.25.25 0 0 1 .37.11c-.11-.06-.4-.04-.37-.13zm.61 0c0 .12-.4.19 0 0zm0 .11a.61.61 0 0 1 .76-.1c.26.03-.61.07-.72.03zm1.09 0c.3-.23 0 .46 0 0zm5.73 5.78c.36-.13.11.06 0 0zm.44 1.29q-.26-.41 0-.44c.04.25.45.4.04.41zm.26.55c-.26 0 0 0 0 0zm-.22-1.14c-.25.07 0 0 0 0zm-.09-.26q-.11 0 0-.12a.07.07 0 0 0 .07.06s-.08.04-.07.06zm.49 10zm.21-.35c-.2-.46.07-.11 0 0zm.21-.18c-.06-.13 0-.26 0 0zm.23-1c.21.17.05.36.17.49-.35.05-.64.49-.17-.51zm.26-.66zm1-3.48c0 .25-.15 0 0 0zm0 .2c0 .22-.5.4 0 0zm-.17-.27a.09.09 0 0 1-.14 0s.09-.04.14-.01zm-.06 1.19c-.05.32-.18.07 0 0zm-.32.52zm-.08 1.48c-.14-.28-.13-.36 0 0zm2.71-10.59c-.11 0 0-.06 0-.06s.02.08 0 .09zm.36-.18c-.21-.23.08 0 0 0zm1 .3c-.1.3-.53.3-.73.38.18-.29.48-.3.73-.43 0 .04 0 .04.02.08zm-.44-.56c.09.22 0 0 0 0zm.75.3zm2.6-.63c0-.25.09-.06 0 0zm1.86-5.09a10.48 10.48 0 0 1-3 3.31c.16.09.13.1.28 0 .07.09-.22 0 0 .14a15 15 0 0 1-2.57 1.52c-.3.12-1.24.47-2.14.73.08-.07.21-.24 0 0a9.4 9.4 0 0 1-1.2.29c.21.35 1.14-.07 1.14-.06-1.91 1.7-2.75-1.91-3.88-3.17a9 9 0 0 0-6.35-3.19c-.14-.36.68-1.82.78-2.25a8.06 8.06 0 0 0-.06-4.25c-.84-1.93-3.18-2.63-3.05.08-.2.12-.18 0-.19-.18-.07 0-.21 4-.17 4.29.1-.28.34-.54.44-.8-.41 1.11-2 6.27-3.87 5.53.37.46-6.06 2.46-6.34 2.46a10.65 10.65 0 0 1-3.55-.72c-.45-.15-1.88-.88-2-.94s-.18-.26-.27-.31c.45.27-.41-.41-.37-.38-1.12 0-3.37-4.58-3.79-6a11.33 11.33 0 0 1-.4-4.51 6.77 6.77 0 0 1 .38-1.57c2-5.1 7.18-8.31 12.54-6.89a.34.34 0 0 0-.07-.14 21.72 21.72 0 0 1 3.91 1.58q-.21-.13-.23.07c1.26.16 3.22 2.7 3.71 3.72.3-.49-.79-1.38-.74-1.46a16.82 16.82 0 0 1 2.13 3.41c-.2-.69-.45-1.62-.52-1.77a12 12 0 0 0-2.64-3.69c.21.19 2.44 2.42 2.38 2.45.68-.51-3.71-4.25-3.75-4.19a.91.91 0 0 0 .23.07c-.77-.32-2.79-1.62-3.09-1.7h.65a.52.52 0 0 0-.47-.25c.55-.2.17-1.16.16-1.11 0-.14.18-.2.23 0a9.88 9.88 0 0 0-1-2.63c0 .19-.12.42-.11.59 0-.81-.75-4.35.55-4.39-.94-.36 3.89-5.58 3.88-5.48.05-.39 1.57-.9 1.23-.73h.31c.05 0 .11.48.29-.08 1.07.31 3.22-.63 4.56-.53.58 0 1.11.09 1.61.15a9.06 9.06 0 0 1 1.46.27 5.43 5.43 0 0 1 .84.32 10.52 10.52 0 0 1 6 7.95c.17-.1.14-.06.09-.25.1 0-.08.19.15 0a9.75 9.75 0 0 1-.81 6.09c.4 0 .53-.94.54-.94.17 2-1.06 1.58-2.54 1.43a17 17 0 0 0-4.52.15 8.29 8.29 0 0 0-4.94 2.71c-.85 1-1.52 2.11-1 3.33.29.66 1.5 1.72 2.09.6.1-.11.27 0 .14.19a10.28 10.28 0 0 0 1.74-2.36c-.17.11-.43.13-.58.24.68-.52 3.34-3.1 4.11-2-.21-1 7 .35 6.92.4.26-.12 1.3.52 1.57.73 0 0-.59-.16-.08.22 0 0-.35.37.22.22.3 1.16 2.43 2.67 3.06 4.06.06.14.27.61.5 1.19.18.45.36 1 .5 1.41.21.71.32 1.3.11 1.4.82.45-.79 5.07-1.11 5.65zm-28-17.11zm1.08-4.33c0-.14.44.14.46.29.08.54-.5-.31-.46-.27zm.08-.15c-.13 0 0 0 0 0zm-.1-.12c-.32-.11.42-.2 0 0zM87.71 46c0-.34.24.15 0 0zm.44.9c.16-.22 0 0 0 0zm.13-.7c.39.29.81.27 1 .67-.42-.05-.71-.46-1-.68zm1 1.59zm-.37-.21c-.15-.14 0-.2 0 0zm-3.75-5.78c.16.54 0 0 0 0zm17 4.89c0 .24 0 .05 0 0zm-.21 0q-.06.1-.1 0t.15 0zm-.38.16c-.1 0-.13-.36 0 0zm-5.9 2.62c-.17.13-.09-.53 0 0zm-.17.08c-.08-.1 0 0 0 0zm-.37.56c.37-1 .17-.44.32-.22s-.45.28-.32.2zm-.23.54c-.1-.67.32.32 0 0zm18.1 1.84c.08 0 .12 0 0 0zm.14 8.58c-.22-.14 0-.06 0 0zm-.12-.44c.25 0 .37.3 0 0zm.23 3.07c.08 0 .07.1 0 0zm.25-2.23q.25.03.04.01zm.19-.68q-.08-.08 0-.1t.04.11zm0-2.28zm1.29-.05c0-.13 0-.32.05-.09a.07.07 0 0 1-.03.09zm0-.32q-.13-.06.09 0H115zm-.13-1.62c.25-.16 0 .2 0 0zm-1-.14c.34-.12.4 1.56.4 1.6-.56.37.16 2.09-.37 2.54a12 12 0 0 0-.19-2.34 3.38 3.38 0 0 0 .18-1.8zm-.12 4.62c-.44 0 0-.09 0 0zm-.36-1c0-.13.35.25 0 0z"/><path class="cls-1" d="M37.27 76.44h.68c-.23.01-.47.01-.68 0zm32.95-30.75c.12.16.08.08 0 0zm42.37 4.88c.1 0 .1-.18 0 0zm1.15 7.95s.04 0 0 0zM108.32 49s0-.18 0 0zm-3.85 20.9c0 .18.79-.2 0 0zm1.78-.56c0 .29.14 0 0 0z"/><path class="cls-1" d="M104.81 69.81c.46.32 0-.17 0 0zM107 47.87c.25.12.07 0 0 0zm8.46 9.67c0 .17.19.17 0 0zm-10.65 10.34c.08 0 .2.12.06-.06-.02 0-.04.06-.06.06zm-1.51 2.28c.05.34.05-.18 0 0zm9.03-14.9q.08-.06 0-.09t0 .09zm-7.01 14.43c.06.23.08 0 0 0zm1.74-2.69c-.07 0 0 0 0 0zm4.74-17.59c.12 0 .07-.06 0 0zm2.15 8.17q.19.02 0 0zM96.63 86c.06.11 0 0 0 0zm-8.63.38s0 .05 0 0zM99.84 80s.12-.19 0 0zm-21.35-8.95c.23-.15.34-.3.11-.47-.2.06-.07.42-.11.47zm.02.62c-.11-1.06-.14.51 0 0zm-.42 2c-.27-.23-.1.15 0 0z"/><path class="cls-1" d="M78.38 71.95c.11-.47-.53.17 0 0zm1.62.87c-.06 0 .09.14 0 0zm-1.75-.47s-.37-.13 0 0zm.07-.35h-.06c-.04.26.05 0 .06 0zm.68-2.13c-.34-.15.15.2 0 0zm20 14.64s0 .17 0 0zM78.26 77c-.21 0 0 .11 0 0zm-.08-4.55zm-.12.66c0-.21-.22.09 0 0zm14.03 12.18c.11 0 0 0 0 0zM69.35 59.46c-.12 0 0 0 0 0zm2.26-9.78v-.05s-.04.02 0 .05zm14.98-4.91c.06-.12 0 0 0 0zM70 61.14zm-.05 0zm.05.09v.11zm5.31 3.35s.21.17 0 0zm16.46-15.95c0 .42.22.33.35.44.06-.18-.23-.4-.35-.44zm-2.31-2.42c-.3.62 1.06.11 0 0zm1.66 1.51c-.08.43.2.22 0 0zM77.43 66.09c-.4-.14-.07 0 0 0zm-7.94-15.96c-.17 0 0 0 0 0zm19.81-1.48c0-.11-.16 0 0 0zm1.5-1.27c-.11.2 0 .07 0 0zm.08.28c-.07.29.3 0 0 0zM71 54.74zm-.48 7.81s-.17 0 0 0zm20.14-15.13c.16-.15-.09-.1 0 0zm-.54-.62c.18.17 0-.23 0 0zm-19.01 7.75c-.07.1 0 0 0 0zm15.35-8.02c.11.05 0 0 0 0zm-15.67 4.29q.08-.1-.07-.07s.08.04.07.07zM91.13 3.1c.05 0-.14-.11 0 0zm-.59.84c-.1 0-.15 0 0 0zm3.14-.45c-.01.1-.06.05 0 0z"/><path class="cls-1" d="M86.8 22.11c.77.52 2.17.58 2.23-.52 0-.14.24-.12.23.06.32-.05-.21-2.5-.36-2.72 0 .18-.18.37-.19.53.08-.85-.6-3.89.38-4.1-.37-.06 1-5.89.89-6s.23-1.13.34-1.42c.06 0 .72.32.37-.2.84-.41 1.42-2.52 2.1-3.33a9.28 9.28 0 0 1 .86-.9 3.56 3.56 0 0 1 .87-.6 1.68 1.68 0 0 1 .48-.18c1.57-.18 6.21 2.88 5.18 5 0 .13.14-.05.19-.11h.12a4.41 4.41 0 0 1-.56 1.84c.15.32-.36 1-.85 1.41 0-.07 0-.28 0 0a3.21 3.21 0 0 1-.67.52.28.28 0 0 0 .34 0 8.33 8.33 0 0 1-1.64.67.36.36 0 0 0 0 .27c-.08.31 2.92-1.22 3.3-1.65a8.43 8.43 0 0 0-1.13 1.47c0 .19.93-.76 1.54-1.48-.06-.19.15-.17.14-.48q0-.13.12-.13c-.08.17-.09.32-.16.49a5.08 5.08 0 0 0 .47-.61c0-.1.14.33.19.36a9.64 9.64 0 0 0 .62-2.14c0 .06.19.49.2.35A7.53 7.53 0 0 0 97.68.85c-3-1.21-4.77.38-6.34 2.13 0 0-2 3.09-1.89 3.12-.42-.18.34-.21-.15-.44a.41.41 0 0 1-.2 0c-.86.21-4.28 12.65-3.51 13.65.62.83.07 2.03 1.21 2.8zm2.26-1.48zm0 .09zM100 10.64q0-.09.05-.06t-.05.06zm.11-.27c.06-.1.16.05 0 0zm2.21-2.61c-.06.2-.1 0 0 0zm-1.14 2c-.12 0-.15 0 0 0zm-.63.26zm-.76-7.72q-.11 0-.07-.06t.06.07zM96.63 2zm.11.24c0-.13.1-.16 0 0zm.93.45c-.1-.06.31-.26 0 0zm.4.41c.1-.22.38-.27 0 0zm.88-.31zm-.22.6c-.14.17-.07 0 0 0zm-.18-.9c.27.17-.11.44 0 0zm-.12 0zm-.05.63c.2-.13-.2.27 0 0zM96.79.62s.1.07.11.08c-.15-.03-.23.07-.11-.08zm-.19 0zm1.69 1.69c-.06.09-1.56-.57-1.93-.33A14.51 14.51 0 0 0 95 1.35c.58-.06 3.06.18 3.28.92zM91.93 3c-.06-.06-.06-.12 0 0zm-1.36 4.85q-.2-.05 0 0zm-2.26 1.32zM89 20.54c-.29-.14 0-.1 0 0zm-.18-.65c0 .14.11.36.09.51-.61-.27-.15-.69-.11-.51zm.18-6.62c.22 0 .07 0 0 0zm0 .24c0 .13 0-.17 0 0zm.21-.57c-.07.33-.31.2 0 0zM89 6.71q0-.13.1-.13c-.1.16-.24.49-.1.13zm-.09.23c.34.35 0 .07 0 0zm.16 6.87c0 .09-.38 0 0 0zm-.22-6.74c-.06.17-.16 0 0 0zm-.16.15c0-.16.28.68.12.48s-.4-.25-.11-.48zm-.1 12.3c.38.23-.3.08 0 0zm-.22-11.21c.26.21.06.14 0 0zm-.18.83zm-.07.29c-.06.2-.17 0 0 0zm-.2.53c.43.12-.5-.07 0 0zm-.09.17c0 .15-.15 0 0 0z"/><path class="cls-1" d="M100.8 10.79a1 1 0 0 0 .09-.17l-.1.12s0 .03.01.05zM96.63 2s.01-.09 0 0zm-5.82 5.87c.1 0 0-.1 0 0zm9.39 4.41c.1-.08.24-.42 0 0zm1.01-1.28c.14.24.13 0 0 0zm-.63 1c-.38-.16-.12.1 0 0zM90 9.13c.19-.28 0 0 0 0zM96.22.16c0-.28-.06-.15 0 0zm3.19 10.24zm1.1 1.44s.09.15 0 0zm-1.26 1.01c.15.29 0-.16 0 0zm-4.99-9.69c.13.14 0-.19 0 0zm-4.45 1.78c0-.06-.21-.11 0 0zm.19-.41s-.12-.13 0 0zm0 .13c0-.06-.21-.11 0 0zm-.11.22c-.09-.1-.07 0 0 0zm6.06-3.37c0 .2 0 .05 0 0zM62.72 117.35c0 .21 0 0 0 0zm58.98 1.35h1.88a4.32 4.32 0 0 0-1.88 0zm-72.75.02c.46 0 .53-.29 0 0zm2.33-.06c0 .21 0 0 0 0zm39.38-1.53h-.11a.06.06 0 0 0 .11 0z"/><path class="cls-1" d="M129.39 118.35c-4-.59-8.44-.18-12.54-.16 1.4 0 5.6-.11 5.6-.21-.17-.58-9.76.26-9.76-.15a7.1 7.1 0 0 0 .87-.12c0-.3-1.41.12-1 .12-.94 0-1.84 0-2.75-.1-.85 0-1.71-.09-2.61-.09.32 0 .72-.12 1-.12-8.15 0-16.14-.45-24.32-.4-3.84 0-7.63.07-11.48.07-2.69 0-7.35.27-8.95.27-1.06 0-10.58.7-10.9 0 0-.27 1 .14 1-.21a1.4 1.4 0 0 1-.4 0 .91.91 0 0 0 .23-.12c-.22 0-.5 0-.57.12-.86 0-2.43 0-4.52-.06l.26.09a4.91 4.91 0 0 1-1.41.12 4.56 4.56 0 0 0 .68-.22c-13-.24-43.68-1-47 .89h-.89c.06 0 .32.71.4.79.68.65 2.35.37 3.2.37.35.19-.43.12-.38.12 1.07.9 7.29-.12 8.79-.4-.6 0-1.2-.09-1.79-.09 3.73 0 7.44-.35 11.12-.3 4.08 0 8.24.48 12.37.06a.29.29 0 0 1-.22-.12c1.72-.94 6.43 0 8.52-.09s3.93 0 5.89 0l-.31.06c.26 0 .55.09.81.09h.25v-.06c0-.06.05 0 0 .06 7.49 0 15.32.07 23.28.14 0 .12 0 0 0 0 11.12.1 22.49.23 33.56.23a.72.72 0 0 0-.24-.08h6.4c-.19 0 0 .1 0 0h1.51a.17.17 0 0 0 .06.1c.16 0 .61 0 .49-.11l6.9-.08a.45.45 0 0 1-.23-.12c2.96-.49 6.41.45 9.08-.29zM5 119.21h.05q.04.07-.05 0zm.7 0a1.85 1.85 0 0 1 .92 0 4.67 4.67 0 0 1-.9-.03zm1.52-.09c.09-.05 1.68-.34 1.68-.18s-1.47.14-1.67.14zm2.39-.24c.42-.23.42.24 0 0zm19.8-.31a.31.31 0 0 1 .27 0 .3.3 0 0 1-.26-.04zm1.14 0a.92.92 0 0 1 1 0c-.01.23-1-.02-.99-.04zm8.3-1.07s-.05-.06 0-.09.08.04.01.06zm.11-.21c.46 0 0 .09 0 0zm.38 0c.08 0 .49 0 .49.12q-.22.12-.48-.16zm1.79.06c.53 0 .28.16 0 0zm1.14 0c.48.14-.47.27 0 0zm2.28 0c.17 0 .33-.08.49-.06a.31.31 0 0 1-.49.06zm1.19.09v-.09q.12.06.01.09zm3-.15c.6 0 .15.09 0 0zm.43.15c.24-.27.63 0 0 0zm.54-.06c0-.17.92 0 1 0a9.09 9.09 0 0 0-.95-.01zm27.99.62h-.22.26s-.01-.05-.04 0zm-2.29-.67a.39.39 0 0 1-.38 0 1 1 0 0 1 .39-.05zm1 .75h.07zm2.84.07a8.92 8.92 0 0 0-1.45-.15c.81-.08 1.54-.15 1.88-.15 1.75 0 3.82-.33 5.53 0 0 .1-4.44.21-5 .21.1-.11-.6.01-.94.05zm5 0c-.22.13-.14 0 0 0zm1.41-.28a.31.31 0 0 1 .27 0 .3.3 0 0 1-.26-.04zm.49-.06h.27a.23.23 0 0 1-.26-.04zm.32 0c.73.16 0 0 0 0zm.38.37c.44-.25 0 .29 0 0zm.81-.3v-.09q.13.05.02.07zm.81-.67a.33.33 0 0 1 .27 0 .29.29 0 0 1-.25-.02zm4.5.19h.11q-.02.05-.08-.03zm12.86.18c.6 0 .16.09 0 0zm6.51.52a1 1 0 0 1 .38 0 .4.4 0 0 1-.36-.02zm1.74.4q-.11-.06 0-.09c.01.03.07.03.01.06zm1.19 0q-.11-.06 0-.09zm-1.74-.46c.73 0 1.44-.09 2.17-.09a11.81 11.81 0 0 1-2.15.05zm2.28.4c.45.26-.33 0 0 0zm.92 0a.3.3 0 0 1 .27 0 .31.31 0 0 1-.25 0z"/><path class="cls-1" d="M67.44 118.81a.31.31 0 0 0 .27 0 .31.31 0 0 0-.27 0zm-19.6-1.62h.47a.88.88 0 0 0-.47 0zm73.86 1.51h-1a3.35 3.35 0 0 0 1 0zm-73.02-.1h-.06s.06-.02.06 0zm72.32-.98a.54.54 0 0 0 .65-.09c-.17-.08-1.34-.11-.65.09zm-.83 0c0-.23-1.36.06-.6.06zm-.55 1.19s.76.17.76-.06c-.07.01-.76-.05-.76.06zm-1.57-.03c.23.09.38 0 .6 0zm-2.11-1.16c0-.14-.69-.05-.76 0s.62.03.76 0z"/><path class="cls-1" d="M119 117.65c1 0-.5-.28 0 0zM77.8 117c-.3 0 .16.09 0 0zm39.87 1.84a.39.39 0 0 0 .38 0 .24.24 0 0 1-.11 0 .81.81 0 0 0-.27 0zm.49-1.22c.1 0 .1-.22 0 0zm.65 0c-.09 0-.39-.09-.16 0 .05.03.11 0 .16 0zm4.19-.03c.15.09.13-.05 0 0zm-10 1.22c-.38.2.38 0 0 0zm-42.14.03h-.11c-.42-.03.07 0 .11 0zm-14.7-1.53c.26 0 0-.12 0 0zm1.41-.06c-.14 0-.12.07 0 0zm51.43.43c0-.12-.26 0 0 0zm9-.06c0-.12-.25 0 0 0zm-1.36-.03c.42 0-.14-.08 0 0zm-93.02 1.22c0-.1-.07 0 0 0zm47.57.09c0-.11-.07 0 0 0zm39.81-.03h.05zm1.19-.03c0 .23.26-.14 0 0zm-55.11-1.53c.26 0 0-.12 0 0zm23.27.58c0 .14.05 0 0 0z"/></g></g></svg>