<svg xmlns="http://www.w3.org/2000/svg" viewBox="0 0 131.56 115.91"><defs><style>.cls-1{fill:#98c6c0}</style></defs><title>category__spas</title><g id="Layer_2" data-name="Layer 2"><g id="Layer_1-2" data-name="Layer 1"><path class="cls-1" d="M82.42 114.31h-.06zm-31.08.69s-.42-.1 0 0zm18.33.07h.27-.11zm48.98-.61c.34 0 6-.1 6-.21-.17-.61-9.76.28-9.76-.15h.11c-.75 0-1.93 0-3-.06l-2.61-.11c.32 0 .72-.12 1-.12-7.66 0-15.18-.48-22.83-.41H75.73c-2 0-3.9 0-5.86.09-1.11 0-3.73-.34-4.56.12a.73.73 0 0 0 .33.09h-.7s0-.1 0 0a9.78 9.78 0 0 0-2.75-.07h-.08c.11-.06-.58-.25-.12 0h-.2c-.36 0-.76.11-1.18.13-.72 0-5.68.33-5.87-.1 0-.31 1 .16 1-.21 0 .16-23.54-.28-27.06-.34-4.47-.08-9-.21-13.46-.15-2.24 0-4.46.14-6.7.26a16.32 16.32 0 0 0-4.09.39 15.41 15.41 0 0 0-2.32.76c-.72.58 3.62 1.13 3.78 1.22H5.4c.74.62 3.39-.08 4.34-.12a32.82 32.82 0 0 0 4.45-.28c-.6 0-1.2-.09-1.79-.09 4 0 7.74-.28 11.57-.2a97.19 97.19 0 0 0 11.92 0 .29.29 0 0 1-.22-.12c1-.56 3.18 0 4.39 0 1.38 0 2.76 0 4.12-.06 1.92-.06 3.89 0 5.9 0l-.31.06c.26 0 .55.09.81.09-.75 0 .83.06 1 .06-.48.13 1.71.14 2.11.15 1.57.06 3.16.11 4.72.08h5.61c1.87 0 3.86 0 5.73-.05l4.4-.07a.37.37 0 0 0 0 .06v-.06h2.27c10.44-.1 20.85.25 31.3.25l-.14-.05c1.78 0 7.26-.17 8.18-.1-.85.16.27 0 .37 0 1.31 0 2.61-.06 3.9 0a10.81 10.81 0 0 0 2.43 0h.38a.43.43 0 0 1-.21-.11 23.81 23.81 0 0 1 4.88-.18l.9-.06c-.78-.08-1.5-.16-1.88-.16-2.53-.11-5.23-.17-7.88-.17zm-110.71 1a2.47 2.47 0 0 1 .81 0 5.12 5.12 0 0 1-.81-.02zm1.08 0a.36.36 0 0 0-.16-.06 1.15 1.15 0 0 0 .43-.06q.2.17-.29.07zm.43-.06a2.57 2.57 0 0 1 1.63-.09c-.53-.05-1.08.04-1.62.04zm2-.18c0-.09 0 0 0 0zm.54 0q-.35-.12.06-.15t-.05.13zm18.66-.28c0-.25.25-.07 0 0zm1.09-.09h-.11a.31.31 0 0 1 .27 0c-.04-.05-.09-.02-.15-.02zm.76.06c0-.14 0-.07 0 0zm1.19 0h-.92c.01-.91 1.08 0 .94-.02zm7.54-1.31c.07 0 .26 0 0 0zm.32-.06a1 1 0 0 1 .43.15zm2 .12q-.35-.09.05-.09t-.08.07zm3.47.06c-.67 0 .27-.2.22-.18q.19.07-.24.16zm1 0v-.09q.06.04-.02.07zm1.41 0c.48-.32 1.07-.09 1.35-.09a5 5 0 0 1-1.4.04zm2.17.06s-.18-.15.22-.15q.18.1-.27.1zm1.3-.09a1.45 1.45 0 0 1-.87 0c0-.17.92 0 1 0-.03-.08-.12-.05-.18-.05zm28.86-.19h.32-.54a.4.4 0 0 0 .17-.05zm-.49 0s.06 0 .06.06-.13-.01-.11-.11zm-3.74.06h.16c.05 0-.76-.04-.21-.04zm4.88.82h.06zm4 .12c-.28 0 .41-.23 0 0zm-4.88-.09a5.2 5.2 0 0 0-1.3-.18c.95-.08 1.82-.16 2.17-.14 1.63.05 3.58 0 5 0-1.57.85-4.47-.4-5.91.28zm6.07.09c-.29 0-.14 0 0 0zm.11-.24v-.09q.07.02-.03.05zm.27.21s-.06 0-.06-.06.08-.07.03.02zm-.06-.34a.31.31 0 0 1 .27 0 .3.3 0 0 1-.3-.03zm.33.46q-.26-.14.11-.18t-.14.15zm.16-.52a1.83 1.83 0 0 1 .59.18 3.46 3.46 0 0 1-.62-.25zm.76.46c.07 0 .27 0 0 0zm.76-.37V114q.07.1-.03.13zm.92-.64h.16c.04 0-.13-.03-.19-.03zm23.92.92c-.33-.19.08 0 .22 0zm1.57.33q-.11-.06 0-.09c-.02.03.03.03-.02.06zm1.19 0q-.11-.06 0-.09zm-1.74-.46c.73 0 1.44-.09 2.17-.09a.61.61 0 0 1-.38.09zm3.31.43a.16.16 0 0 0-.11 0 .3.3 0 0 1 .27 0z"/><path class="cls-1" d="M115 114.08c.45 0 .75 0 .75-.11-.21.03-.48.09-.75.11zm9.23.85h1.58a3.29 3.29 0 0 0-1.58 0zm7.33-.41a13.8 13.8 0 0 0-3.06.1c1.24.12 2.63.23 3.06-.1zm-7.33.41h-1.3a4.11 4.11 0 0 0 1.3 0zm-.91-1.17a.52.52 0 0 0-.38.06 1.81 1.81 0 0 0 .92 0c-.23-.15-.31.12-.54-.06zm-.93.12q-.12-.19-.38-.06a1.74 1.74 0 0 0-.48 0c-.12-.06-.66-.12-.34.06.32 0 .39 0 .35-.06a1 1 0 0 0 .85.06zm-4.28-.06a3.11 3.11 0 0 0-.7 0c.13.27.79-.01.7 0zm-71.66.98a1.73 1.73 0 0 0 .43 0h-.48c.05-.03.05 0 .05 0zM80 113.24c-.3 0 .15.09 0 0zm40.28 1.89a.68.68 0 0 0-.38 0 .39.39 0 0 0 .38 0zm.05-1.34c.09.1.24.06 0 0zm.54.12h.16c.05 0-.38-.12-.16 0zm4.34-.12c.2.1.31 0 0 0zm-52.4 1.31a.3.3 0 0 0 .27 0 .31.31 0 0 0-.27 0zm-14.37-1.54zm1.25-.01c.15 0 .1-.06 0 0zm60.51.3zm-46.84 1.25s.19.08 0 0zm39.87.03s.17 0 0 0zm-53.92-1.55c.26 0 0-.12 0 0zm-.6-.03c-.1 0-.15.08 0 0zM54.2 46.6a1.39 1.39 0 0 0 0-.26.91.91 0 0 0 0 .26zm-.02.09c0 .08.13-.11 0 0zm61.08-1.23c0-.24.37-2 0-2a9.39 9.39 0 0 0 0 2zm.05 3.09a8.7 8.7 0 0 0 0-1.79c-.05.6 0 1.24 0 1.79zm.04 7.37c-.2 0-.09 1.44 0 1.67a1.92 1.92 0 0 0 .1-.84 3.88 3.88 0 0 0-.1-.83zm-.13-6.41c.11-.32.3-.56.14-1-.18.88-.14.43-.14 1zm.13 1.54q0-.42-.18-.12t.18.12zm0-1.43a.89.89 0 0 0 0 .59.93.93 0 0 0 0-.59zm-.04-9.27V40c-.31 0 .12.69 0 .35zM56.38 65c0 .41.06.15 0 0zm58.97 6.25c.12 0 .05-.13 0 0zm-.04-19.69zm0 0zm0 2.82c0-.8-.1.27 0 0zm1.92 12.12v.17zm0 .23s0-.12 0 0zM70.54 93.84s0 .09-.12.09q.4.07.12-.09zm2.24-1.25c-.09.09.26-.15 0 0zm-2.01-6.45s.14-.18 0 0zM82 76c-.12.08 0 .4 0 .47.26-.25.3-.47 0-.47zm.08.74v.42c.29-.29 0-.34 0-.42zm.14 2.33c-.28-.1-.08.15 0 0zm-.04-1.92c-.4.45.16.09 0 0zm-11.05 6.46c-.06.39 0 .18 0 0zm7.32 8.81c.2 0 .19-.17 0 0zm5.6-14.63v.05L84 78s.13-.12.05-.21zm-1.87-.05s-.39-.05 0 0zm0-.2q.1-.06 0-.14t0 .14zm-.05-2.39c-.37 0 .22.13 0 0zM73 90.42s.16.07 0 0zm9.22-7.93s0-.11 0 0zm-.09-4.65zm0 .68c0-.21-.2.12 0 0zM23.09 90.71v.12zm.02-.08v.08zM23 92.42c-.06.06.23-.09 0 0zm-2-8.92s0-.35 0 0zm22.33-6.22c-.13.11 0 .51 0 .63.21-.27.28-.5 0-.63zm.09 1.6c.2-.32 0-.48 0-.56a3.09 3.09 0 0 1 0 .56zm-.05 2.33c0 .35 0 .62.14.22-.12-.07.15-.32-.14-.22zm-.04-2.04q.31 0 .14-.3-.27.13-.14.3zm-21.96.94c-.05.5 0 .27 0 0zm9.53 12.31c.26 0 .23-.15 0 0zm14.45-12.69v.26a.16.16 0 0 0 0-.26zm-1.88-.07c0-.05-.39-.07 0 0zm0-.26a.11.11 0 0 0 0-.19q-.1.08 0 .19zm-.05-3.19c-.42 0 .27.21 0 0zM23.2 89.19c0 .06.15.1 0 0zM43.52 86s0-.14 0 0zm-.09-6.22zm-.01.91c0-.28-.18.15 0 0zM26.49 95.35c0-.14-.07-.08 0 0zM12 92v-.54a1.23 1.23 0 0 0 0 .54zM9.94 75.72s.09-.06 0 0zm.37-6.72v-.7a1.93 1.93 0 0 0 0 .7zm25.18 23.42a1.09 1.09 0 0 0 .41 0q-.07-.33-.41 0zm-23.35-4.14c0 .23.09.15 0 0zm13.64 7.07c0-.16-.1-.06 0 0zm30.63-31.69s0-.08 0 0zM12.09 87.71c0 .39.18 0 0 0zm.05-.89c0-.15-.12-.22 0 0zM75 56.55a.21.21 0 0 0 0-.14.26.26 0 0 0 0 .14zm1.81-1.76v.07c0 .07.02-.09 0-.07zm0 1.76c0 .13 0 0 0 0zm-2.06-.08a.14.14 0 0 0 0 .1zm-.32-2.1s-.01-.01 0 0zM77 56.54h.06v-.06a.11.11 0 0 0-.06.06zm-4.77.1zm-.14.31zm.17-.29zm5.01-.29s.01 0 0 0z"/><path class="cls-1" d="M71.94 57.15c.05 0 0 .36 0 .36s.43-.79.31-.86l-.08.12s0 .18-.07.18 0 .05 0 .05v-.06c0-.06.05-.22.13-.3s0-.31 0 0a4.72 4.72 0 0 0 .24-.43q0 .14 0 0v.31s0-.16.11-.15a1 1 0 0 0 0-.21q0 .09 0 0c0 .25.09.09.1.32 0-.1.06 0 0-.14.17.37.78-.53.78-.32 0-.09.07-.14.08-.23a2.13 2.13 0 0 1 0 .23.41.41 0 0 1 0-.18.22.22 0 0 1 .06.14.64.64 0 0 0 .06-.16s.1.16 0 .16 0 .14 0 .14 0 .59 0 0v.28s.13 0 .19.14c-.07-.17.24 0 .2-.18a.23.23 0 0 0 0 .18s.06-.24 0 0q0-.1 0 0c.07-.19.14-.06.19-.18q0 .19 0 0v.06a.31.31 0 0 0 0 .08c0 .06 0 .07 0 0a.19.19 0 0 0 .06.15s.08-.35.1-.35a.89.89 0 0 0 0 .22c-.06-.12.08-.2.08-.26q0 .14 0 0a.77.77 0 0 1 .23.37c0-.16.18-.08.14-.32a1.25 1.25 0 0 1 .12.18.5.5 0 0 0 .07-.28v.06c0 .18.07-.05.1.26 0 0 .12-.14.11-.18.06.16.37.08.35.28 0-.16.07 0 .07 0 0-.17.1-.11.15 0s0-.13 0-.19v-.13c0-.07.08.24.08.28a.78.78 0 0 1 0-.23c.09.11.13.12.16.11s0 0 .05.08v-.09s.05.09.18-.23c0 0 .06.17.05.23l.14-.07c.09 0-.14-.35-.13-.18a.34.34 0 0 1 0-.17s.08.08.06.08c0-.27.32-.24.31-.15v-.22c0-.16-.14-.05-.16-.2 0 .21-.4.06-.4.06a.58.58 0 0 0 .26-.37c0 .1-.14-.11-.2-.18 0 .35 0-.18-.07.14 0-.08-.19-.09-.12 0a1.75 1.75 0 0 1 0-.32c0 .07-.06.17-.06.18s-.07-.11-.06-.14 0 .14 0 .23-.14-.36-.11-.36.08-.18 0-.18-.09-.24-.15 0c0-.19-.38-.24-.37-.22a.64.64 0 0 0 0-.23v.11s-.16-.29-.11 0c0-.08-.12-.16-.09-.24a.15.15 0 0 1-.06.14s-.07-.13-.07-.18-.29.14-.3 0c0 .15-.08.29-.1 0 0 .28-.35.14-.33 0a.25.25 0 0 0-.07.18.18.18 0 0 1 0-.14 2.49 2.49 0 0 1-.24.45v-.06c0-.07 0-.11 0 0 0-.06-.11-.1-.12-.06s0 .09 0 .06a1 1 0 0 0 0 .26c0-.14 0 0 0 0s-.06-.21-.16-.2 0 .13-.06.11c-.15-.29.07-.22 0-.22s0-.29 0-.41c0 .24-.9.2-.85-.14 0 .1-.15 0-.15.14 0-.09 0-.05-.05 0 0-.13-.57-.69-.59-.69-.8 0-.7 3-.59 4.07a.86.86 0 0 1 .6-.19zM77 56s0-.1 0 0zm-.13 0a.86.86 0 0 1 0-.14l-.01.14zm-.06-.55c-.04-.2-.03 0-.01 0zm-.87-1.05s0-.19 0 0zm0 1.24s0-.2 0 0zm-.1-1.6c0-.08 0 0 0 0zm-.08 0l-.03.04zm0 1.6c0-.29 0-.07 0 0zm-.06 0c0-.28 0 0 0 0zm-.3-.23zm0 .18s0-.31 0 0zm.15 0s0-.39 0 0zm.12-.36c0-.26 0-.38 0 0zm0 .5c0-.2 0-.45 0 0zm0-.69c0 .06 0 .06 0 0s-.07-.04-.06-.04zm0 .55s0-.16 0 0zm-.26-1.51s-.09.05-.09 0zm-.19.09h-.09zm0 .83c.09 0 .28-.13.29 0 0-.26.1-.09.15.09 0-.06-.21 0-.19.13a1 1 0 0 1 0-.13.64.64 0 0 1 0 .18.59.59 0 0 0 0 .1s-.05 0 0 0q0-.18 0 0s-.07-.21-.07 0c-.23-.07-.52-.37-.28-.37zM75 56.46c0-.3 0-.07 0 0zm-.19 0q-.02-.04-.01.05zm-.14-1.56s0-.2 0 0zm-.36.78c0-.3 0-.07 0 0zm-.22-1.42c0-.3 0-.07 0 0zm0 2.11c0-.29 0-.07 0 0zm0-2.11l-.09.05zm-.06.18c0-.26 0-.25 0 0zm0-.23c0 .1-.09 0 0 0zm-.17.18s.07-.67 0 0zm-.15-.09c0-.28 0 0 0 0zm-.07 0c-.05-.33 0-.26 0 0zm0-.14c0-.28 0 0 0 0zm-.28 2c0-.3 0-.07 0 0zm-.06 0s0-.47 0 0zm-.05 0c0-.3 0-.07 0 0zm0-.14c-.15-.02-.14-.02-.14.07zm-.06.18c0-.25 0-.27 0 0zm-.85.37c0-.12 0 0 0 0zm-.19.5z"/><path class="cls-1" d="M75.31 55.36a.37.37 0 0 0 0-.08 1.15 1.15 0 0 1 0 .08zm1.35-.5c0 .3 0 .06 0 0zm-1.31.5zM74 56.42s0-.11 0 0zm3.13-1.7c0-.18-.1 0 0 0zm-.21.05c.06 0 0-.32 0 0z"/><path class="cls-1" d="M77.09 54.72c-.06-.57 0 .23 0 0zm-3.33 1.37zm1.49-2.33c0-.4 0-.09 0 0zM77 56.6s0-.05 0 0 0 .07 0 0zm0-2.06s0 .34 0 0zm.07.18s-.01 0 0 0zm.19-.05c0-.24 0 0 0 0zm-2.33 1.88c0 .06 0 .06 0 0s0-.06 0 0zm-.64-2.29zm2.34.46s0 .2 0 0zm.37 0c0-.27 0 0 0 0zm0-.14c0 .19 0 0 0 0zm-2 1.97c0 .21 0 0 0 0zm-.67-2.29s0-.26 0 0zM74 39.83s0-.11 0 0zm1.35-1.06zm1.31-.5c0 .3 0 .06 0 0zM77 40h.06v-.06A.11.11 0 0 0 77 40zm-.19 0c0 .13 0 0 0 0zm.46-.22s.01 0 0 0zm-.46-1.58v.07c0 .07.02-.09 0-.07zM75 40a.21.21 0 0 0 0-.14.25.25 0 0 0 0 .14zm-2.77.05z"/><path class="cls-1" d="M71.94 40.56c.05 0 0 .36 0 .36s.43-.79.31-.86l-.08.12s0 .18-.07.18 0 .05 0 .05v-.06c0-.06.05-.22.13-.3s0-.31 0 0a4.74 4.74 0 0 0 .24-.43q0 .14 0 0v.31s0-.16.11-.15a1 1 0 0 0 0-.21q0 .09 0 0c0 .25.09.09.1.32 0-.1.06 0 0-.14.17.37.78-.53.78-.32 0-.09.07-.14.08-.23a2.13 2.13 0 0 1 0 .23.41.41 0 0 1 0-.18.22.22 0 0 1 .06.14.64.64 0 0 0 .06-.16s.1.16 0 .16 0 .14 0 .14 0 .59 0 0v.28s.13 0 .19.14c-.07-.17.24 0 .2-.18a.23.23 0 0 0 0 .18s.06-.24 0 0q0-.1 0 0c.07-.19.14-.06.19-.18q0 .19 0 0v.06a.31.31 0 0 0 0 .08c0 .06 0 .07 0 0a.19.19 0 0 0 .06.15s.08-.35.1-.35a.89.89 0 0 0 .6.29c-.06-.12.08-.2.08-.26q0 .14 0 0a.77.77 0 0 1 .23.37c0-.16.18-.08.14-.32a1.25 1.25 0 0 1 .12.18.5.5 0 0 0 .07-.28v.06c0 .18.07-.05.1.26 0 0 .12-.14.11-.18.06.16.37.08.35.28 0-.16.07 0 .07 0 0-.17.1-.11.15 0s0-.13 0-.19v-.13c0-.07.08.24.08.28a.78.78 0 0 1 0-.23c.09.11.13.12.16.11s0 0 .05.08v-.09s.05.09.18-.23c0 0 .06.17.05.23l.14-.07c.09 0-.14-.35-.13-.18a.34.34 0 0 1 0-.17s.08.08.06.08c0-.27.32-.24.31-.15v-.22c0-.16-.14-.05-.16-.2 0 .21-.4.06-.4.06a.58.58 0 0 0 .26-.37c0 .1-.14-.11-.2-.18 0 .35 0-.18-.07.14 0-.08-.19-.09-.12 0a1.75 1.75 0 0 1 0-.32c0 .07-.06.17-.06.18s-.07-.11-.06-.14 0 .14 0 .23-.14-.36-.11-.36.08-.18 0-.18-.09-.24-.15 0c0-.19-.38-.24-.37-.22a.64.64 0 0 0 0-.23v.11s-.16-.29-.11 0c0-.08-.12-.16-.09-.24a.15.15 0 0 1-.06.14s-.07-.13-.07-.18-.29.14-.3 0c0 .15-.08.29-.1 0 0 .28-.35.14-.33 0a.25.25 0 0 0-.07.18.18.18 0 0 1 0-.14 2.49 2.49 0 0 1-.24.45v-.13.07c0-.06-.11-.1-.12-.06s0 .09 0 .06a1 1 0 0 0 0 .26c0-.14 0 0 0 0s-.06-.21-.16-.2 0 .13-.06.11c-.15-.29.07-.22 0-.22s0-.29 0-.41c0 .24-.9.2-.85-.14 0 .1-.15 0-.15.14 0-.09 0-.05-.05 0 0-.13-.57-.69-.59-.69-.8 0-.7 3-.59 4.07a.86.86 0 0 1 0-.26zm5-1.19s.06-.06.06 0zm-.13 0a.86.86 0 0 1 0-.14c.05.14.05.14.05.18zm-.06-.55c.02-.16.03.04.05.04zm-.87-1.05s0-.19 0 0zm0 1.24s0-.2 0 0zm-.1-1.6c0-.08 0 0 0 0zm-.08 0l.03.08zm0 1.6c0-.29 0-.07 0 0zm-.06 0c0-.28 0 0 0 0zm-.3-.23zm0 .18s0-.31 0 0zm.15 0s0-.39 0 0zm.12-.36c0-.26 0-.38 0 0zm0 .5c0-.2 0-.45 0 0zm0-.69c0 .06 0 .06 0 0s-.01-.02 0 .04zm0 .55s0-.16 0 0zm-.26-1.51s-.03.09-.03.04zm-.19.09s-.05.04-.03.04zm0 .83c.09 0 .28-.13.29 0 0-.26.1-.09.15.09 0-.06-.21 0-.19.13a1 1 0 0 1 0-.13.64.64 0 0 1 0 .18.59.59 0 0 0 0 .1s-.05 0 0 0q0-.18 0 0s-.07-.21-.07 0c-.17-.03-.46-.33-.22-.33zm-.16 1.5c0-.3 0-.07 0 0zm-.19 0q-.02-.04-.01.05zm-.14-1.56s0-.2 0 0zm-.36.78c0-.3 0-.07 0 0zm-.22-1.42c0-.3 0-.07 0 0zm0 2.11c0-.29 0-.07 0 0zm0-2.11l-.09.05zm-.09.23c0-.26 0-.25 0 0zm0-.23c0 .1-.09 0 0 0zm-.17.18s.07-.67 0 0zm-.15-.09c0-.28 0 0 0 0zm-.07 0c-.05-.33 0-.26 0 0zm0-.14c0-.28 0 0 0 0zm-.28 2c0-.3 0-.07 0 0zm-.06 0s0-.47 0 0zm-.05 0c0-.3 0-.07 0 0zm0-.14c-.12-.04-.11-.04-.11.02zm-.06.18c0-.25 0-.27 0 0zm-.85.37c0-.12 0 0 0 0zm-.19.5z"/><path class="cls-1" d="M74.75 39.88a.14.14 0 0 0 0 .1zm-.32-2.1s-.01-.01 0 0zm.88.99a.37.37 0 0 0 0-.08 1.15 1.15 0 0 1 0 .08zm-3.22 1.59zm.17-.29zm4.87-1.94c0-.18-.1 0 0 0zm-.21.05c.06 0 0-.32 0 0z"/><path class="cls-1" d="M77.09 38.13c-.06-.57 0 .23 0 0zm-3.32 1.37s0-.05 0 0-.02 0 0 0zm1.48-2.33c0-.4 0-.09 0 0zM77 40s0 .12 0 0zm.26-1.92c0-.24 0 0 0 0zM74.94 40s-.01 0 0 0zm-.65-2.33zm2.34.46s0 .2 0 0zM77 38c0 .21 0 0 0 0zm0 0c0 .07 0 0 0 0zm-2.67-.42c0 .2 0 0 0 0zm-.03.05s0 .26 0 0zm24.3 17.23c0 .31 0 .05 0 0zm-2.13-.46s0-.21 0 0zM96 56.42s0-.1 0 0zm3 .12s-.05-.01 0 0zm0 0zm-.26.01c0 .13 0 0 0 0zm.44-.18s.02-.01 0 0zm-.18.17s0-.12 0 0zm-.26-1.75v.07s.02-.09 0-.07zM97 56.59v-.08a.13.13 0 0 0 0 .08zm.3-1.23a.39.39 0 0 0 0-.08 1.31 1.31 0 0 1 0 .08zm-.54 1.11a.15.15 0 0 0 0 .1z"/><path class="cls-1" d="M94.06 57.15v.36s.41-.79.29-.86l-.07.12s0 .18-.06.18 0 .05 0 .05v-.06c0-.06 0-.22.13-.3s0-.3 0 0a4.66 4.66 0 0 0 .23-.43q0 .14 0 0v.31s0-.16.11-.15a1 1 0 0 0 0-.21q0 .09 0 0c0 .25.09.09.1.32 0-.1.06 0 0-.14.17.38.75-.54.75-.32 0-.09.07-.14.08-.23a2.2 2.2 0 0 1 0 .23.43.43 0 0 1 0-.18.23.23 0 0 1 .06.14.68.68 0 0 0 .06-.16s.1.16 0 .16 0 .14 0 .14 0 .59 0 0v.28s.12 0 .19.14c-.07-.17.23 0 .19-.18a.24.24 0 0 0 0 .18s.06-.24 0 0q0-.1 0 0c.07-.19.13-.06.18-.18q0 .19 0 0v.06a.31.31 0 0 0 0 .08c0 .07 0 .07 0 0a.19.19 0 0 0 .06.15s.08-.35.09-.35a.93.93 0 0 0 0 .13c0-.08.09-.13.09-.18s0 .09 0 0a.77.77 0 0 1 .22.37c0-.16.17-.08.13-.32a1.41 1.41 0 0 1 .11.18.51.51 0 0 0 .06-.28v.06c0 .18.07-.05.09.26 0 0 .12-.14.1-.18s.17.21.19 0c0 .28.18 0 .15.23 0-.16.07 0 .06 0 0-.17.1-.12.14 0s0-.12 0-.19v-.13c0-.07.08.24.08.28a.81.81 0 0 1 0-.23c.08.11.13.12.16.11s0 0 .05.08v-.09s0 .09.17-.23v.19l.06-.05.14-.07c-.06 0-.11-.28-.11-.35s.08.08.05.08c0-.27.31-.24.3-.15v-.22c0-.17-.14-.05-.15-.2 0 .21-.38.06-.38.06.19 0 .26-.29.06-.55 0 .35 0-.18-.07.14 0-.08-.18-.09-.12 0a1.79 1.79 0 0 1 0-.32c0 .07-.06.17-.06.18s-.07-.11-.06-.14 0 .14 0 .23-.14-.36-.1-.36.07-.18 0-.18-.08-.24-.14 0c0-.19-.37-.25-.36-.22a.66.66 0 0 0 0-.23v.11s-.15-.29-.11 0c0-.08-.11-.16-.09-.24a.15.15 0 0 1-.06.14s-.07-.13-.07-.18-.28.14-.29 0c0 .15-.07.29-.1 0 0 .28-.33.14-.32 0a.26.26 0 0 0-.06.18.18.18 0 0 1 0-.14c0 .13-.3.5-.24.5s0-.06 0-.11 0-.11 0 0c0-.07-.12-.13-.12 0v.23c0-.14 0 0 0 0s-.06-.21-.16-.2 0 .13-.05.11c-.14-.29.06-.22 0-.22s0-.29 0-.41c0 .24-.87.2-.82-.14 0 .1-.15 0-.14.14 0-.09 0-.05-.05 0 0-.13-.55-.69-.57-.69-.77 0-.67 3.06-.57 4.07a.9.9 0 0 1 .57-.01zM98.91 56s0-.1 0 0zm-.13 0a.89.89 0 0 1 0-.14l.01.14zm-.06-.55c-.01-.2-.01 0 .01 0zm-.84-1.05s0-.2 0 0zm0 1.24s0-.2 0 0zm-.1-1.6c0-.08 0 0 0 0zm-.08 0s.01.04 0 .04zm0 1.6c0-.29 0-.07 0 0zm-.06 0c0-.28 0 0 0 0zm-.29-.23zm0 .18s0-.31 0 0zm.15 0s0-.39 0 0zm.11-.36c0-.26 0-.38 0 0zm0 .5c0-.2 0-.45 0 0zm0-.69q0 .09 0 0t-.03-.04zm0 .55s0-.16 0 0zm-.25-1.51s-.05.05-.05 0zm-.18.09h-.05zm0 .83c.09 0 .27-.13.28 0 0-.25.09-.1.15.09 0-.06-.21 0-.19.13a1.15 1.15 0 0 1 0-.13.68.68 0 0 1 0 .18.61.61 0 0 0 0 .09q0-.18 0 0c0-.11-.07 0-.05-.14a.08.08 0 0 0 0 .09s-.49-.31-.25-.31zM97 56.46c0-.3 0-.07 0 0zm-.18 0q-.02-.04-.01.05zm-.14-1.56s0-.2 0 0zm-.35.78c0-.3 0-.07 0 0zm-.21-1.42c0-.3 0-.07 0 0zm0 2.11c0-.29 0-.07 0 0zm0-2.11s-.12.05-.04.05zm-.06.18c0-.26 0-.25 0 0zm0-.23c0 .1-.09 0 0 0zm-.16.18s.07-.67 0 0zm-.15-.09c0-.28 0 0 0 0zm-.06 0c-.05-.33 0-.26 0 0zm0-.14c0-.28 0 0 0 0zm-.27 2c0-.3 0-.07 0 0zm-.06 0s0-.47 0 0zm-.05 0c0-.3 0-.07 0 0zm0-.14q-.13-.02-.13.07zm-.05.18c0-.25 0-.27 0 0zm-.82.37c0-.12 0 0 0 0zm-.18.5zm.1-.41zm-.16.29z"/><path class="cls-1" d="M97 56.55a.21.21 0 0 0 0-.14.24.24 0 0 0 0 .14zm-2.67.09zm3.01-1.28zm1.66-.64c0-.18-.09 0 0 0zm-.15.05c.06 0 0-.32 0 0z"/><path class="cls-1" d="M99 54.72c-.05-.58 0 .23 0 0zm-3.18 1.37s0-.05 0 0-.02 0 0 0zm1.42-2.33c0-.39 0-.09 0 0zM99 56.55s0 .12 0 0zm0-2.01s0 .34 0 0zm0 .18zm.18-.05c0-.24 0 0 0 0zm-2.24 1.88zm-.63-2.38s0 .21 0 0zm2.26.55s0 .2 0 0zm.43 0c0-.27 0 0 0 0zm-.1-.14c0 .19 0 0 0 0zm-2.55-.32s0-.26 0 0zM97 73.14a.21.21 0 0 0 0-.14.24.24 0 0 0 0 .14zm-2.67.09z"/><path class="cls-1" d="M97 73.18v-.08a.13.13 0 0 0 0 .08zm2-.05s-.05-.01 0 0zm-.26.01c0 .13 0 0 0 0zm.26-.01zm-4.8.41zM97.3 72a.39.39 0 0 0 0-.08 1.31 1.31 0 0 1 0 .08zm-.54 1.06a.15.15 0 0 0 0 .1zm2.24.07s0-.13 0 0z"/><path class="cls-1" d="M94.06 73.74v.36s.41-.79.29-.86l-.07.12s0 .18-.06.18 0 .05 0 .05v-.06c0-.06 0-.22.13-.3s0-.3 0 0a4.67 4.67 0 0 0 .23-.43q0 .14 0 0v.31s0-.16.11-.15a1 1 0 0 0 0-.21q0 .09 0 0c0 .25.09.09.1.32 0-.1.06 0 0-.14.17.38.75-.53.75-.32 0-.09.07-.14.08-.23a2.2 2.2 0 0 1 0 .23.43.43 0 0 1 0-.18.23.23 0 0 1 .06.14.68.68 0 0 0 .06-.16s.1.16 0 .16 0 .14 0 .14 0 .59 0 0v.28s.12 0 .19.14c-.07-.17.23 0 .19-.18a.24.24 0 0 0 0 .18s.06-.24 0 0q0-.1 0 0c.07-.19.13-.06.18-.18q0 .19 0 0v.06a.31.31 0 0 0 0 .08c0 .07 0 .07 0 0a.19.19 0 0 0 .06.15s.08-.35.09-.35a.93.93 0 0 0 0 .13c0-.08.09-.13.09-.18s0 .09 0 0a.77.77 0 0 1 .22.37c0-.16.17-.08.13-.32a1.42 1.42 0 0 1 .11.18.51.51 0 0 0 .06-.28v.06c0 .18.07-.05.09.26 0 0 .12-.14.1-.18s.17.21.19 0c0 .28.18 0 .15.23 0-.16.07 0 .06 0 0-.17.1-.12.14 0s0-.13 0-.19v-.13c0-.07.08.24.08.28a.81.81 0 0 1 0-.23c.08.11.13.12.16.11s0 0 0 .08v-.09s0 .09.17-.23v.19l.8.05.14-.07c-.06 0-.11-.28-.11-.35s.08.08.05.08c0-.27.31-.24.3-.15v-.22c0-.17-.14-.05-.15-.2 0 .21-.38.06-.38.06.19 0 .26-.29.06-.55 0 .35 0-.18-.07.14 0-.08-.18-.09-.12 0a1.79 1.79 0 0 1 0-.32c0 .07-.06.17-.06.18s-.07-.11-.06-.14 0 .14 0 .23-.14-.36-.1-.36.07-.18 0-.18-.08-.24-.14 0c0-.19-.37-.25-.36-.22a.66.66 0 0 0 0-.23v.11s-.15-.29-.11 0c0-.08-.11-.16-.09-.24a.15.15 0 0 1-.06.14s-.07-.13-.07-.18-.28.14-.29 0c0 .15-.07.29-.1 0 0 .28-.33.14-.32 0a.26.26 0 0 0-.06.18.18.18 0 0 1 0-.14c0 .13-.3.5-.24.5s0-.06 0-.11 0-.11 0 0c0-.07-.12-.13-.12 0v.23c0-.14 0 0 0 0s-.06-.21-.16-.2 0 .13-.05.11c-.14-.29.06-.22 0-.22s0-.29 0-.41c0 .24-.87.2-.82-.14 0 .1-.15 0-.14.14 0-.09 0-.05-.05 0 0-.13-.55-.69-.57-.69-.77 0-.67 3.06-.57 4.07a.9.9 0 0 1-.12-.11zm4.85-1.19s0-.06 0 0zm-.13 0a.89.89 0 0 1 0-.14c.01.14.01.14.01.18zm-.05-.55c-.02-.16-.02 0 0 0zm-.84-1s0-.2 0 0zm0 1.24s0-.2 0 0zm-.1-1.6c0-.08 0 0 0 0zm-.08 0s0 .03-.01.03zm0 1.6c0-.29 0-.07 0 0zm-.06 0c0-.28 0 0 0 0zm-.31-.24zm0 .18s0-.31 0 0zm.15 0s0-.39 0 0zm.11-.36c0-.26 0-.38 0 0zm0 .5c0-.2 0-.45 0 0zm0-.69q0 .09 0 0t-.02 0zm0 .55s0-.16 0 0zm-.25-1.51s-.04.05-.04 0zm-.18.09h-.04zm0 .83c.09 0 .27-.13.28 0 0-.25.09-.1.15.09 0-.06-.21 0-.19.13a1.15 1.15 0 0 1 0-.13.68.68 0 0 1 0 .18.62.62 0 0 0 0 .09q0-.18 0 0c0-.11-.07 0-.05-.14a.08.08 0 0 0 0 .09s-.48-.31-.24-.31zM97 73.05c0-.3 0-.07 0 0zm-.18 0q-.02-.05-.01.05zm-.14-1.56s0-.2 0 0zm-.35.78c0-.3 0-.07 0 0zm-.21-1.42c0-.3 0-.07 0 0zm0 2.11c0-.29 0-.07 0 0zm0-2.11s-.12.05-.04.05zm-.06.18c0-.26 0-.25 0 0zm0-.23c0 .1-.09 0 0 0zm-.16.18s.07-.67 0 0zm-.15-.09c0-.28 0 0 0 0zm-.06 0c-.05-.33 0-.26 0 0zm0-.14c0-.28 0 0 0 0zm-.27 2c0-.3 0-.07 0 0zm-.06 0s0-.47 0 0zm-.05 0c0-.3 0-.07 0 0zm0-.14q-.13-.02-.13.07zm-.05.18c0-.25 0-.27 0 0zm-.82.37c0-.12 0 0 0 0zm-.18.5zm.1-.41zm4.82-.25s.02 0 0 0z"/><path class="cls-1" d="M98.74 71.38v.07s.02-.08 0-.07zm-1.4.62zm1.26-.55c0 .31 0 .05 0 0zM96 73s0-.1 0 0zm.47-2s0-.21 0 0zm2.53.31c0-.18-.09 0 0 0zm-.15.05c.06 0 0-.32 0 0z"/><path class="cls-1" d="M99 71.31c-.05-.58 0 .23 0 0zm-3.2 1.37zm1.44-2.33c0-.39 0-.09 0 0zM99 73.19s0-.05 0 0-.06.07 0 0zm0-2.06s0 .34 0 0zm0 .18zm.18-.05c0-.24 0 0 0 0zm-2.25 1.88q0 .09 0 0zm-.62-2.38s0 .21 0 0zm2.26.55s0 .2 0 0zm.43 0c0-.27 0 0 0 0zm-.1-.14c0 .19 0 0 0 0zM97 73.14c0 .21 0 0 0 0zm-.65-2.29s0-.26 0 0zm.99-32.08zm-.87-.96s0-.21 0 0zM97 40v-.08a.13.13 0 0 0 0 .08z"/><path class="cls-1" d="M97 40a.21.21 0 0 0 0-.14.24.24 0 0 0 0 .14zm2 0s-.05-.06 0 0zm-.26 0c0 .13 0 0 0 0zm-4.41.05zm4.85-.27s.02-.01 0 0zM99 40zm-.26-1.8v.07s.02-.09 0-.07zm-4.54 2.16zM99 40s0-.17 0 0zm-4.64.07z"/><path class="cls-1" d="M94.06 40.56v.36s.41-.79.29-.86l-.07.12s0 .18-.06.18 0 .05 0 .05v-.06c0-.06 0-.22.13-.3s0-.3 0 0a4.68 4.68 0 0 0 .23-.43q0 .14 0 0v.31s0-.16.11-.15a1 1 0 0 0 0-.21q0 .09 0 0c0 .25.09.09.1.32 0-.1.06 0 0-.14.17.38.75-.53.75-.32 0-.09.07-.14.08-.23a2.23 2.23 0 0 1 0 .23.43.43 0 0 1 0-.18.23.23 0 0 1 .06.14.68.68 0 0 0 .06-.16s.1.16 0 .16 0 .14 0 .14 0 .59 0 0v.28s.12 0 .19.14c-.07-.17.23 0 .19-.18a.24.24 0 0 0 0 .18s.06-.24 0 0q0-.1 0 0c.07-.19.13-.06.18-.18q0 .19 0 0v.06a.31.31 0 0 0 0 .08c0 .07 0 .07 0 0a.19.19 0 0 0 .06.15s.08-.35.09-.35a.93.93 0 0 0 0 .13c0-.08.09-.13.09-.18s0 .09 0 0a.77.77 0 0 1 .22.37c0-.16.17-.08.13-.32a1.42 1.42 0 0 1 .11.18.51.51 0 0 0 .06-.28v.06c0 .18.07-.05.09.26 0 0 .12-.14.1-.18s.17.21.19 0c0 .28.18 0 .15.23 0-.16.07 0 .06 0 0-.17.1-.12.14 0s0-.12 0-.19v-.13c0-.07.08.24.08.28a.81.81 0 0 1 0-.23c.08.11.13.12.16.11s0 0 .05.08v-.09s0 .09.17-.23v.19l.06-.05.14-.07c-.06 0-.11-.28-.11-.35s.08.08.05.08c0-.27.31-.24.3-.15v-.22c0-.17-.14-.05-.15-.2 0 .21-.38.06-.38.06.19 0 .26-.29.06-.55 0 .35 0-.18-.07.14 0-.08-.18-.09-.12 0a1.8 1.8 0 0 1 0-.32c0 .07-.06.17-.06.18s-.07-.11-.06-.14 0 .14 0 .23-.14-.36-.1-.36.07-.18 0-.18-.08-.24-.14 0c0-.19-.37-.25-.36-.22a.66.66 0 0 0 0-.23v.11s-.15-.29-.11 0c0-.08-.11-.16-.09-.24a.15.15 0 0 1-.06.14s-.07-.13-.07-.18-.28.14-.29 0c0 .15-.07.29-.1 0 0 .28-.33.14-.32 0a.26.26 0 0 0-.06.18.18.18 0 0 1 0-.14c0 .13-.3.5-.24.5s0-.06 0-.11v-.07.07c0-.07-.12-.13-.12 0v.23c0-.14 0 0 0 0s-.06-.21-.16-.2 0 .13-.05.11c-.14-.29.06-.22 0-.22s0-.29 0-.41c0 .24-.87.2-.82-.14 0 .1-.15 0-.14.14 0-.09 0-.05-.05 0 0-.13-.55-.69-.57-.69-.77 0-.67 3.06-.57 4.07a.9.9 0 0 1 .57-.01zm4.85-1.19zm-.13 0a.89.89 0 0 1 0-.14c.01.14.01.14.01.18zm-.06-.55c-.01-.16-.01.04.01.04zm-.84-1.05s0-.2 0 0zm0 1.24s0-.2 0 0zm-.1-1.6c0-.08 0 0 0 0zm-.08 0s.01.08 0 .08zm0 1.6c0-.29 0-.07 0 0zm-.06 0c0-.28 0 0 0 0zm-.29-.23zm0 .18s0-.31 0 0zm.15 0s0-.39 0 0zm.11-.36c0-.26 0-.38 0 0zm0 .5c0-.2 0-.45 0 0zm0-.69q0 .09 0 0t-.03.04zm0 .55s0-.16 0 0zm-.25-1.51s-.05.09-.05.04zm-.18.09s-.07.04-.05.04zm0 .83c.09 0 .27-.13.28 0 0-.25.09-.1.15.09 0-.06-.21 0-.19.13a1.15 1.15 0 0 1 0-.13.69.69 0 0 1 0 .18.61.61 0 0 0 0 .09q0-.18 0 0c0-.11-.07 0-.05-.14a.08.08 0 0 0 0 .09s-.49-.27-.25-.27zm-.18 1.5c0-.3 0-.07 0 0zm-.18 0q-.02-.04-.01.05zm-.14-1.56s0-.2 0 0zm-.35.78c0-.3 0-.07 0 0zm-.21-1.42c0-.3 0-.07 0 0zm0 2.11c0-.29 0-.07 0 0zm0-2.11s-.12.05-.04.05zm-.12.23c0-.26 0-.25 0 0zm0-.23c0 .1-.09 0 0 0zm-.16.18s.07-.67 0 0zm-.15-.09c0-.28 0 0 0 0zm-.06 0c-.05-.33 0-.26 0 0zm0-.14c0-.28 0 0 0 0zm-.27 2c0-.3 0-.07 0 0zm-.06 0s0-.47 0 0zm-.05 0c0-.3 0-.07 0 0zm0-.14q-.07-.07-.07.02zm-.05.18c0-.25 0-.27 0 0zm-.82.37c0-.12 0 0 0 0zm-.18.5z"/><path class="cls-1" d="M97.3 38.77a.4.4 0 0 0 0-.08 1.31 1.31 0 0 1 0 .08zm-.54 1.11a.15.15 0 0 0 0 .1zm-.76-.05s0-.1 0 0zm2.6-1.56c0 .31 0 .05 0 0zm.4-.14c0-.18-.09 0 0 0zm-.15.05c.06 0 0-.32 0 0z"/><path class="cls-1" d="M99 38.13c-.05-.58 0 .23 0 0zm-3.18 1.37s0-.05 0 0-.02 0 0 0zm1.42-2.33c0-.39 0-.09 0 0zM99 40s0 .12 0 0zm.18-1.92c0-.24 0 0 0 0zM96.94 40zm-.63-2.42s0 .21 0 0zm2.26.55s0 .2 0 0zm.33-.13c0 .07 0 0 0 0zm-2.55-.42c0 .21 0 0 0 0zm-.02.05s0 .26 0 0zM83.66 13.34c.21.08-.13-.39 0 0zm1.86.66c0-.1 0 0 0 0zm36.32 13.95c.2.07.29.15.37-.06a1.05 1.05 0 0 0-.54-.2.29.29 0 0 0 .17.26zm-.59-.28c.08-.22-.41-.21-.53-.25q.12.36.53.25zm-2.64-1.08c-.32-.12-.56-.23-.25.06.16.06.26.14.25-.06zm2.1.88q0-.29-.22-.23-.1.3.22.23zm-1.59 1.46h.15a.24.24 0 0 0-.22-.13s.06.08.07.13zm1.28-1.57c-.08 0-.18-.17-.12 0 .04.02.09-.01.12 0zm2.66.94c0 .05.2-.11 0 0zM82.35 12.61c-.11 0-.07 0 0 0zm37.55 14.46c-.07.17 0 0 0 0zm-5.03.23c.13.05 0 0 0 0zM81.66 12.41s-.2.12 0 0zM7 49s.15-.16.24-.22c-.18.1-.24.22-.24.22zm110.09 12c0 .08 0 .4.06.73.01-.24-.02-.48-.06-.73zM20.15 95.21h.41-.41zm3.77.05zM126.64 30.7a9.88 9.88 0 0 0-1.56-.53c.73.34 1.44.63 1.56.53zm-9.7 13.69v.63c.06-.2.06-.41 0-.63zm-90.81-2.05s0 .06-.06.06.19-.1.06-.06zM3.94 48.16c-.37.07-.14 0 0 0zm29.15-7.48c0 .16.09.1 0 0zm-8.83 2.23V43s.04 0 0-.09zM117 39.16a11.14 11.14 0 0 0-.16 3.38c0 .31.1 1.1.15 1.84-.08-1.73.01-3.5.01-5.22zm.07-12.89h-.17c.1.02.16.02.17 0z"/><path class="cls-1" d="M5.57 48.64a14 14 0 0 0-2.48 1c.11.33 4.15-1.09 4.21-.85l-.08.05a6.46 6.46 0 0 1 1.33-.27s0 .1 0 0l1.17-.13c-.1 0-.35.28-.39.29a.47.47 0 0 0 .57-.06 26.07 26.07 0 0 0 .18 3.91.43.43 0 0 1 .18-.33c.85 1.54.11 5.76.13 7.64s-.14 3.76 0 5.64c.26 2.79 0 5.91 0 8.89a2.44 2.44 0 0 1-.09-1c0 .39-.14.83-.14 1.22a.69.69 0 0 0-.14-.41c-.34 0 0 1.81 0 1.88-.27-1-.18 1.11-.18 1.47 0 1.09-.07 2.17-.1 3.26-.07 2.31-.08 4.65 0 6.94.1 2.51-.21 5-.08 7.5 3.37-.15 7-.13 10.42-.09a.47.47 0 0 1 .35 0h3.35a.13.13 0 0 0-.08 0 .24.24 0 0 1 .28 0 .44.44 0 0 0-.12 0h2.3c2.29 0 6.5-.23 9.5-.09 6.31.29 12.58.09 18.66.09-.07 0-.34 0-.34-.08 4.38.33 9.87-.19 14.91 0a96.07 96.07 0 0 0 12.12 0c5.92-.56 12.15.35 18.3.09 5.91-.25 11.87 0 17.81 0 0-5.34.08-10.66.09-16 .2-2.23-.2-5-.18-7.21 0-3.24-.13-6.69 0-9.61.1.27.06-.25 0-.75-.52-.21-.1-5.57.1-9.92a1.17 1.17 0 0 0 0-.21c.12-2.79.15-5.11-.25-5.27 0-.43 0-.87-.06-1.3a1.83 1.83 0 0 1-.14.92 9.2 9.2 0 0 1-.16-3.1c0-1.81-.09-3.64-.14-5.45-.09-3.13-.14-6.35 0-9.48.1 0 .17 0 .16-.05a15.68 15.68 0 0 0 3.16 1.2l.59.19c-.07 0-.09 0 0 0 .71.21 1.46.38 2.36.71-.08-.26-1.88-.73-1.88-.85a40.51 40.51 0 0 1 4.13 1.05c-.73-.33-1.48-.71-1.71-.79-1.62-.57-3.19-1.19-4.76-1.77a29.14 29.14 0 0 0 3.87 1.1c.1-.41-6.12-2.21-6-2.48a1.46 1.46 0 0 0 .43 0 5 5 0 0 1-1.33-.59c.71.06-.35-.41-.36-.53a.26.26 0 0 0 .26-.23 24.44 24.44 0 0 0-4.69-2.38 5.15 5.15 0 0 1-1.86-.79c.32.12.69.21 1 .33-.89-1.07-3.7-1.4-5-1.85s-2.31-.77-3.49-1.13c-2.11-.66-4.19-1.45-6.3-2.15.05-.17-.11-.21 0 0-1.16-.38-2.32-.74-3.5-1-1.36-.5-3.92-1.13-5.87-1.86-.19-.07 0 .2.07.22-.53-.2-1.36-1-2.1-1 .34.17-.7 0-1-.09-1.13-.33-2.1-1.11-3.17-1.44.75-.23-1.22-.71-1.31-.74-1.15-.38-2.28-.9-3.42-1.31C72.84 9 70.72 8 68.64 7.17c-2.36-1-4.82-1.9-7.2-2.92A66.77 66.77 0 0 0 52 .68C50.1.19 48.16-.53 46.52.6c-.66.45-.55-.62-.71.5a2.94 2.94 0 0 1 0 .54c.3.89 1.69 1 1.83 1.41a.31.31 0 0 1-.35-.05c.08.62 5.11 1.5 5.69 1.48-.38-.14-.7-.41-1.07-.54.32.12 1.92.68 2.22.5a69.59 69.59 0 0 0 .19 8.51.74.74 0 0 1 .18-.48c.71 1.88.13 5.12.09 7.13v7c0 2.7.64 6.09.18 8.55-.3-.82-1.07-.61-1.55-.49-.15-.16 0-.18.12-.22-.27-.4-3.38 1.31-4.1 1.11.22-.06.47-.17.7-.23-1.22-.58-4.68 1.26-6.05 1.73a68.19 68.19 0 0 0-6.59 2.15c.88-.23 1.77-.32 2.64-.54-1.93.5-4.24 1.56-5.94 1.92 0 .07-4.15.76-4.89 1-1.75.51-3.39.93-4.59 1.38l-.17.05c-1.41.49-3.24.72-4.77 1.22s-3.23.71-4.69 1.13-3.33.62-4.93 1c.14.15.12.11.33.06a34.39 34.39 0 0 1-3.49.81c0 .12.1.25-.21.25q.2-.09.08-.21C6 48 3.22 48.5 2.35 48.72c.15.17 1.34-.22 1.35-.21-.32.25-3.62 1.05-3.66 1.2a.23.23 0 0 0 0 .27c0-.27 2.09-.25 2.42-.53.49-.59 2.42-.63 3.11-.81zM10 79.07c.06-.19.07 0 0 0zm.23-3.91v-.08q.19-.08-.01.07zM117.1 47.58a8.2 8.2 0 0 0-.06-1 4.18 4.18 0 0 1 .06 1zm-.37 8.42l-.09.35c0-.05.09-.94.09-.35zm0 1.3q-.1.24-.14 0zm-.09-3.8a1 1 0 0 1 0 .59.93.93 0 0 1-.05-.54zm0 6.42q-.1.24-.14 0c.09.08.09-.08.14.08zM118.8 28s0 .06.05.07a.11.11 0 0 1-.17-.06s.09-.01.12-.01zm-1.06-.25zm.4.2zm-1.19-1.27c.47-.09 1 .26 1.35.41a3.52 3.52 0 0 1-1.4-.38s.03.04.04 0zM48.52 3.2zm.44.06c.29-.06.55.25.49.23s-.52-.15-.45-.22zm.91.24c-.47.1-.08-.08-.29-.16q.42-.12.29.17zm.08 0c.1-.06 1.23-.09 1.15.13s-.91-.05-1.1-.14zm1.35.21c0-.12 0 0 0 0zm.32.17q-.16-.23.11-.2t-.11.19zM54.41 11c.06-.29.05 0 0 0zm.09-2.85c-.34 0-.08-2.58 0-2.42s.07 2.46 0 2.46zm1.65 46c.31 0 .09 1.5.09 1.52a7.61 7.61 0 0 1-.09-1.49zm.18-25a1.21 1.21 0 0 1 0 .83 1.24 1.24 0 0 1 0-.76zm.09-3.92c0 .26.16.74-.09 1-.27.02-.33.55.09-.93zm-.14 14q-.1.24-.14 0zm-.14-2.14l.14-.48c0 .36.1.73.09 1.07zm.09 12.37V48a12.6 12.6 0 0 1 .12 1.5zm.09.05v-.3c.08.31.07.41.01.4zm.06 2s.03.16.01.14zm-.06-5a.79.79 0 0 1 0-.71 1.18 1.18 0 0 1 .01.89zm0 1a1.23 1.23 0 0 1-.18-.71.91.91 0 0 1 .19.85zM70.42 94a31 31 0 0 0-6.22-.06c.75-.07 2-.27 2.3-.27 1.4 0 2.81.05 4.21.05-.1.37 0 .37-.29.28zm-5.82-1.1a3.22 3.22 0 0 1 .83 0 1.2 1.2 0 0 1-.83-.02zm6.21-5.6zm.19-1.39h.14a.09.09 0 0 1-.14 0zm.46 3.89c.1-.06.18 0 0 0zm1.82 3.12v-.14q.24.11 0 .15zm.92-.11c.08 0 .39-.11.31 0a.22.22 0 0 1-.32.01zm7.3-.53s-.01.09-.01.01zm.28-1.71c.21 0 0 .11 0 0zm-4.88 3.35c-.11-.36 1.43-.24 1.77-.2-.77.11-1.45.21-1.78.21zm5.15-10c.19.15 0 .15 0 0zm.22 10c-.14-.17 0 0 0 0zm0-.12q0-.1.12 0t-.13-.05zm.12-.09zm.3 0c-.2 0-.22 0 0 0zm.14-13.59c0-.1-.18-.36-.18-.53v-.58a2 2 0 0 1 .17 1.09zm0 .5v-.08c0-.02.03.32.03.06zM83 93.84c0-.11.19 0 0 0zm0-3.15c.07 0 .13.07 0 0zm.32-10.87h.14a.09.09 0 0 1-.14 0zm0-.61h.14a.09.09 0 0 1-.09 0zm0-.89q.09.08 0 .14t.09-.14zm.09.53c0 .2-.17.1 0 0zm1.16 15.45c-.54 0 .85-.33 0 0zm-.79-.49c0-.55 3-.06 2.93-.06a10.73 10.73 0 0 1-2.93.06zm3 .4q.38-.13.35.09c-.13-.01-.31.07-.31-.09zm.6-.28v-.13q.27.1.04.13zm.59.32s-.12 0-.12-.09.21-.06.15.09zm-.12-.5a1 1 0 0 1 .59 0 .93.93 0 0 1-.55 0zm.71.69c-.54-.41.32-.23.59-.23zm.36-.78a3.29 3.29 0 0 1 1.3.28 8.67 8.67 0 0 1-1.22-.28zm1.66.69c-.29.17.36-.43.36 0zm1.67-.55v-.14q.28.1.04.14zm2-1h.36c-.06-.01-.18.03-.3.03zm9.27 1.51c0-.14.12 0 0 0zm.47-1.24c0-.13.12 0 0 0zM115.26 78a1.82 1.82 0 0 1 0-.72.78.78 0 0 1 0 .72zm.69-17a25.41 25.41 0 0 1-.09-4.64 19.73 19.73 0 0 1 .14 4.76c0-.12 0-.12-.05-.12zm.09 2.73a3.24 3.24 0 0 1 0-.84 1.21 1.21 0 0 1-.04.88zm.29-37.58zm-10.26-5.31zm-3-1.08a17.13 17.13 0 0 1 1.65.66 8.33 8.33 0 0 1-1.72-.62zm-.59-.12a1 1 0 0 0 .3.21 3.43 3.43 0 0 1-1-.42zm-.92-.24a15.35 15.35 0 0 1-2.56-.88c.63-.12 2 .7 2.54.91zm-5.34-1.7c.12.06-.64 0 0 0zm-3-1c.35.13.07.22 0 0zm-.18-.2c-.1 0-.18 0-.28-.1zm-14.55-5.32c-.09.23 0 0 0 0zm-.42 0s-.73-.12-.66-.2.59.16.66.19zm-1-.53c-.1 0-.34 0 0 0zm-1-.42c.28.1.48.08.68.35-.61.05-1.09.13-.75-.37zM74.92 10v.13zm-2.15-.85c.21.29-.4.25 0 0zm-1.71-.78a.2.2 0 0 1 .11.33q-.41-.32-.12-.34zm-.32-.07c.29.11-.05.14 0 0zm-.13.25c0-.05.06-.15 0 0zm-9.42-.63c2.49.92 5 1.82 7.41 2.82 5 2 10 4.2 15.09 5.92 9.21 3.11 18.72 6.13 27.77 9.48a.33.33 0 0 0-.12-.18c1 .39 4.63 1.7 5 1.76 0 .09-.07 1.12-.07 1.11-.52 1.42-.12 4.27-.09 5.82v6.6c-.1 4.4 0 8.85 0 13.24 0-2.33-.17-12.83-.32-12.83-.47.2-.22 8.91-.23 10 0 .84.26 11.39 0 11.39v-.28c0 1.63 0 4.25-.09 6.66 0 0-.06 0 0 0-.08 2.78-.17 5.29-.17 5.71 0-.74-.18-1.54-.18-2.26 0 3.9-.15 7.76-.17 11.65v3.54c0 .9.36 3.66-.1 4.44-.62 1.07-3.72.2-5.15.24-8.61.26-17.24-.17-25.87-.09.19-2.74.26-5.68.26-8.52-.18.11-.14.13-.14.36-.07 0 .09-3.84.09-4.17-.12-.09-.28.13-.19-.31 0 0 .19.33.19.15s0-.31-.16-.26a10.4 10.4 0 0 0 0-2.42c0-.91-.18-1.39-.18-2.58-.21.13-.09 1.57-.14 1.58a24.58 24.58 0 0 1-.38-3.41c0 1.74-.21 4.95-.21 5.5a18.82 18.82 0 0 0-.32-3.09c-.37 0 0 5-.23 5a.36.36 0 0 0 0-.11A8.73 8.73 0 0 1 82.4 82s-.1 0 0 0c-.08.67-.17 1.29-.17 1.36 0-.13-.18-.45-.18-.53a71 71 0 0 1-.65 9.8c-.14-.43-7.94 0-8.73 0 0-.23.46-.55.21-1l.06-.16-.06.16a4 4 0 0 1-.23-1 13.71 13.71 0 0 1 .16-2.78 4.12 4.12 0 0 0 .5.42c.41-.49-.17-3.92-.18-4.64 0-1.87.31-3.73.29-5.48a26.6 26.6 0 0 1 0-2.82 12.42 12.42 0 0 1 .25-1.54c0 .57 4.16.07 4.86 0 1.54-.21 3.14-.35 3.86-1.83.15-.31.65-.4.25-1.1s-1.09-.69-1.64-.69c-.13-.21 0-.18.19-.18-.17-.43-4.11.39-4.5.6.31 0 .62.14.92.14-1.21 0-2.44.4-3.63.37a13.67 13.67 0 0 1-3 0c-.38.25.18 1.22-.24 1.41.27.13.08 5.15.18 5.69a19.78 19.78 0 0 1 .34 2.7c0 .39-.12 2.29-.07 2.35.33.4.14 1.84.14 2.43-.06 0-.09-.27-.09-.33 0 .11-.14.3-.14.42 0-.1-.43 0 0 .44-1 .45.5 6-.69 6.2.43 0 .26 0 .29.26-4.64-.07-9.39-.1-14 0-.2-6.91-.09-13.95-.09-20.9v-2c0-1.66-.15-4-.14-5.51 0-1.29-.13-2.34 0-3.61.13.23.09-.18 0-.55s-.1-3.92-.09-4.25a.72.72 0 0 0 .2.46c-.08 0 0-5.16 0-12.2-.08.4-.07.9-.11 1.26a12.42 12.42 0 0 1-.18-3.09 11.6 11.6 0 0 1 .3 1.37c.14-13.9.4-34.68.15-37.89 1.41.51 2.95 1.6 4.44 2.15zm11.69 76.5a.09.09 0 0 1-.14 0zM73 84c-.24-.22-.24-.29 0 0zm-.14-1.78c0-.31.17-.1 0 0zm0 4.11c-.41-.3 0-.13 0 0zm-.09.11c.23 0 0 .45 0 .53s-.05-.54.06-.5zm.18.83c-.21 0-.09 0 0 0zm0-1.45a2 2 0 0 1-.18-.72c.24.06.22.3.36.36a1.1 1.1 0 0 0-.13.4zm0-4.89c.25.1 0 .08 0 0zm.09.17c0 .08 0 .25-.18.25s-.1-.11.14-.22zm-.28-.22q.18-.02-.02.03zM77.7 70.8c.25-.42.2.32 0 0zm.36 0s.1-.06 0 0zm.19 0c0-.35.61-.27.86-.27-.11.02-.87.47-.87.2zm.92-.32c.29-.24.09 0 .25 0q-.28.21-.26-.07zm.25-.09c.11 0 .36 0 .44-.09-.2.18-.19.04-.45.02zm.81-.09zM71 77.1v-.47c.7 0-.09.56 0 .47zm.14.67c-.27 0 0 0 0 0zm0-1.67v-.06c0-.06.06.1 0 .14s-.14-.05-.14-.08zm0 .39c-.27 0 0 0 0 0zm-.14-.86c0-.12.33-.19 0 0zM56.42 24.47a.34.34 0 0 1 0 .47.34.34 0 0 1 0-.47zm-.28-.12v-.12s.24.12.01.12zm0 7l.14.36-.14.36c-.19.01.05-.67.06-.71zM15.67 93.66c0-.12.1-.06 0 0zM21 85c.05 0 .2 0 0 0zm.23-1.78h.14c.14 0-.1.02-.14-.04zm.51 5.23s.11 0 0 0zM27 95.13c0-.07.08 0 0 0zm3.88-1.2a10.24 10.24 0 0 1 2-.23c.7.29 2.34 0 3.11 0 .01.3-4.36.23-5.07.23zm.94-1.05c-.1.07 0 0 0 0zm.44-.09c-.19.11-.09 0 0 0zm4.08 1a.22.22 0 0 1 .13 0h.06a.11.11 0 0 1-.15-.04zm.38-.08c.11 0 .4.07.4.22-.02-.06-.35-.26-.35-.26zm1.62-.83h-.07.19s-.04-.05-.07-.05zm-.06-.06c0-.06.4 0 0 0zm5-4.89c.14.16 0 .24 0 0zm.78-5.08c0-.17-.18-.49-.18-.7v-.78a3.71 3.71 0 0 1 .23 1.44zm0 .67v-.11c0-.04.1.42.1.06zm.46-1h.14c.05 0-.01-.03-.05-.08zm0-.82h.14q.06 0 0-.08zm0-1.18a.12.12 0 0 1 0 .19.11.11 0 0 1 .19-.28zm.09.7c0 .26-.18.14 0 0zm.51 13.13c-.06-.21.21-.19 0 0zm1.43-.52c-.31.17-1.4.09-1.4-.14.17-.07 1.92.06 1.59.06zm.32.55zm.17-.36v-.22q.35.09.19.13zm.41.32s-.08 0-.08-.09.31-.14.27 0zm-.08-.5a.47.47 0 0 1 .41 0 .45.45 0 0 1-.22-.09zm.49.69c-.34-.38.15-.23.41-.23zm.25-.78a2.13 2.13 0 0 1 .89.28 5.22 5.22 0 0 1-.71-.37zm1.14.69q-.22-.17.16-.14.41.08.02.04zm1.14-.55v-.14q.35 0 .18.05zm3.83-48.05s0-.12.14 0 .04-.1.05-.1zM52.3 35s-.02-.06 0 0zm-6 1.59a3.57 3.57 0 0 1-1.2.26 7.71 7.71 0 0 1 1.25-.26zm-1.52.41c.33-.28-.05.35-.37.27s.18-.18.37-.27zm-.61.25a3.46 3.46 0 0 1-2.33.75c.79-.17 1.5-.49 2.33-.71zm-3.65 1.18c.44-.11.08.31-.28.22zm-28.33 22q.15.22 0 .32-.19-.17 0-.28zM12 78.25V76.7c.25 0 0 1.38 0 1.55zm.11.88s.06.01.05 0zm-.06-3.4a.4.4 0 0 1 0-.49q.3.33.04.48zm-.09.73a.53.53 0 0 1-.09-.57c.13.05.39.57.13.57zm-.09-7.26l.14-.33c0 .25.1.5.09.74zm.13 1.47q-.09.16-.14 0zm0-9c-.25 0-.28.34.09-.65.1.21.24.54 0 .68zm0 2.61a.61.61 0 0 1 0-.57.59.59 0 0 1 0 .6zm-.09.9c0 .06.38.49 0 .49s.09-.44.09-.47zm0 15.66c.45 0-.22 1.55.32 1.55 0 0 0-3.82.05-8.45a5.87 5.87 0 0 0-.14.95 10.49 10.49 0 0 1-.14-2.1c.23.31.16.71.33 1 0-6.6.08-14.75.13-15.91.13-2.73-.27-5.63.09-8.32.07-.49-.18-.64.11-1 .56-.7 3.11-.55 4.07-.77 5.65-1.3 11.44-2.48 17-4.14a101.45 101.45 0 0 1 12.63-3.36 26.06 26.06 0 0 0 4.37-1.09 14.15 14.15 0 0 0 1.62-.7 18.25 18.25 0 0 0 2.38-1.69 50.23 50.23 0 0 1 0 8 4.45 4.45 0 0 1-.09-1.43c0 .59-.14 1.19-.14 1.78a1.32 1.32 0 0 0-.14-.59c-.34 0 0 2.61 0 2.73-.25-1.35-.14 1.27-.14 1.53 0 .92-.08 1.84-.09 2.76 0 2.22-.14 4.43-.14 6.65 0 4.22.05 8.43 0 12.64s.07 8.3 0 12.46a68.62 68.62 0 0 1-.1 8.66c-.57 1.46-4.45.62-5.87.63-.55 0-2.39.39-2.71 0-.18-.19.16-.8.13-1a24.33 24.33 0 0 1 0-3.37c-.18.15-.14.23-.14.48-.09 0 .09-5.1.09-5.56-.15-.21-.34.51-.19-.41 0 .06.19.38.19.19s0-.42-.16-.34a16.72 16.72 0 0 0 0-3.23c0-1.2-.18-1.93-.18-3.44-.22.18 0 2.07-.14 2.11a40 40 0 0 1-.46-4.28c-.06.8-.14 1.61-.14 1.85v5.21a30.6 30.6 0 0 0-.31-4.11c-.42.06.07 6.67-.23 6.67a.6.6 0 0 0 0-.15 15.6 15.6 0 0 1-.08 2.16c-.08.87-.17 1.66-.17 1.76 0-.19-.18-.56-.18-.7 0 .92-.17 1.86-.18 2.74 0 .44.31 3-.16 3.44s-3.83 0-4.57 0h-1.67c-2.65 0-5.06.06-7.68.09h-6.15c0-.4.46-1.17.17-1.81 0 .26-.25-.88-.28-1.38a18.67 18.67 0 0 1 .18-3.73c.45 0-.21.7.32.7-.09 0-.1-.58-.08-1.48-.13 0-.06 0 0 0 0-.62 0-1.39.09-2.24 0 .12-.07.25-.09.32a2.07 2.07 0 0 1-.18-1c.2.08.21.28.29.4.18-3.77.52-8.89.22-9 .68.41 3.28.21 4.32.26a66.45 66.45 0 0 0 7 .23c2.15-.13 5.93.16 7.75-1 .87-.56 1.54-1 1.26-1.83-.39-1.17-1.9-.6-2.3-1.1a.32.32 0 0 1 .33 0c-.3-.55-5.53.41-6 .6.41 0 .82.14 1.22.14-1.69 0-4 .42-5.33.38-.77 0-3.3.38-3.83-.24 0 .09-6.68 0-7 .08 0 .5.07 1 .15 1.52a18.63 18.63 0 0 1 .27 2.15v2.24a26.21 26.21 0 0 0 0 2.78c.38.62.14 2.41.14 3.24-.08-.06-.09-.35-.09-.44 0 .16-.14.39-.14.56 0-.21-.36.1 0 .59-.52 0-.34 6.17-.37 7.36a4.15 4.15 0 0 1 0 1c-.33 1.06.42.57-1 .88-1.74.39-4.84-.6-6.27.2a1.12 1.12 0 0 0 .49.14 8.2 8.2 0 0 1-2.17-.19A3.13 3.13 0 0 0 12 92c-.07.82 0-.4-.06-.58a12.81 12.81 0 0 1-.22-2.4c.07-1.08-.47-7.87.19-8.16zm10-9.72q.77-.36.94.14c-.43-.06-.65-.06-.9-.12zm1.3 5.66c0 .18 0 .33-.23.3zm-.09-.22c.22.13 0 .11 0 0zm0 7.19c-.37-.37 0-.19 0 0zm0 .85s-.13-.74 0-.7-.01.64-.01.73zM23 80.51c0-.5.31.2.28.15q-.17.15-.28-.15zm.14.67q-.08.08-.14 0zm0-2.89c0-.41.18-.14 0 0zm-.05-7.1c.06 0 .06.16 0 0zm0 5.28q-.08.08-.14 0s.05-.03.11 0zm.62-5.19a.18.18 0 0 1 .25 0 .19.19 0 0 1-.28 0zm.86-.14c.16 0 .24.31 0 0zm12.71-.32c.32-.41.27.32 0 0zm.48 0s.15-.06 0 0zm.26 0c0-.37.9-.27 1.15-.27-.1 0-1.17.45-1.17.18zm1.56-.27q-.32.26-.33 0c.39-.4.07-.09.3-.09zm0-.14c.11 0 .63-.1.63 0-.21.05-.45-.06-.66-.09zm1.08-.09zm-19.3 1.51c-.18-.15-.07-.14 0 0zM10.68 86.57c.06-.19.07 0 0 0zm-.51-35.31c.06-.19.07 0 0 0zm.08-2.92zm.06.24a.65.65 0 0 1 0 .73c-.38-.01-.31-.7-.01-.74zm-3-.27c.16.18 0 0-.08.07s.01-.07.03-.08zm-.4.25h-.14zm-.91-.4v-.08.08zm-.31-.06zm-.39.2h.06c.06 0-.07.08-.12 0s.02 0 .05-.01z"/><path class="cls-1" d="M23.31 82.54v.25a.4.4 0 0 1 .09-.16.21.21 0 0 1-.09-.09zm-.1 2.46zm75.5 7.74c.21 0 .08 0 0 0zm16.78-31.59a8.18 8.18 0 0 1 .17 1.62c-.01-.99-.07-1.62-.17-1.62zM82.31 80.1c0 .06.11.22.16.34-.02-.21-.07-.34-.16-.34zm-38.7 2.71c0 .1.11.29.16.44-.03-.25-.07-.44-.16-.44zm39.65-9.68c0-.63 0-1.08-.12-1.12a6.93 6.93 0 0 1 .12 1.12zM56.49 43.78v.46a1.76 1.76 0 0 1 .07-.28 1.07 1.07 0 0 1-.07-.18zM52.2 92.79h-.25c.05.04.17 0 .25 0zM44.43 72a10.23 10.23 0 0 0 .05 1.77 4.16 4.16 0 0 0-.05-1.77zm-32.15 1.77V74a.81.81 0 0 1 0-.11.53.53 0 0 1 0-.12zM34 40.44s.18.09 0 0zM3.77 50c-.15 0-.23.07-.16.23 0 0 .36-.05.32 0 .07-.16.07-.32-.16-.23zm.43-.1c.06.22.28 0 .38 0q-.19-.29-.38 0zm1.95-.55c-.53.14.55.19 0 0zm-1.36.54c-.29-.3-.2.05 0 0zm.01-2.04q-.09-.14-.17 0a.12.12 0 0 0 .17 0zm.2 1.91v.09-.07zm0 0zm-.11-.04q-.07-.08-.12 0t.12 0zm-1.97.56c.09.34 0-.21 0 0zm21.92-7.61q-.07-.08-.12 0t.12 0zm-.27.03z"/></g></g></svg>