<svg xmlns="http://www.w3.org/2000/svg" viewBox="0 0 129.37 126.84"><defs><style>.cls-1{fill:#9ea864}</style></defs><title>category__outdoors</title><g id="Layer_2" data-name="Layer 2"><g id="Layer_1-2" data-name="Layer 1"><path class="cls-1" d="M50.13 92.73s.16 0 0 0zm-1.26 6.96s.05-.01 0 0zM50 86.68c-.12 0-.07.14 0 0zm.39 4.89c.09 0 .17 0 0 0zm8.39 9.15c-.18-.05-.23.73 0 0zm-.67 1.5c-.16.32 0 .19 0 0z"/><path class="cls-1" d="M58.68 101c-.5.22.13.11 0 0zm-7.37-16c-.09.12-.2.32.05 0h-.05zm-.92 13.57s.28-.16 0 0zm9.9 3.58a.14.14 0 0 0-.11.15q.17 0 .11-.15zm-1.7-.83q.1 0 0-.1t0 .1zm.41-1.77c-.33-.06.15.1 0 0zm-11.39-3.81c0-.17 0 0 0 0s0 .03 0 0zm9.04 8.55c.06.07.11.06 0 0zm1.82-2.78zm-.26.42c.08.1.08 0 0 0zm-10.7-5.98c.06-.1 0 0 0 0zm3.29-5.39c0 .08.22.06 0 0zm8.9-83.14s-.04 0 0 0zm-6.63 68.93v-.07a.09.09 0 0 0 0 .07zm.15 2.92c0 .41 0 .15 0 0z"/><path class="cls-1" d="M47.88 15.23c-.05-.24 0-.56 0-.79.2 1.17 2.42 4.71 1.78 5.53.08 0 .77 1.45 1 1.79a4.23 4.23 0 0 0 1 1.06l-.16-.32q.2-.22.41.18c-.07-.08 0 .17 0 .29.14.09.28.17.41.25a5.27 5.27 0 0 0 .74.34 1.75 1.75 0 0 0-.57 1.44c-.2.11-.18 0-.18-.18-.41.15.37 3.72.6 4.1 0-.27.14-.58.14-.84 0 1.16 1.2 5.64.14 6.26.39 0 0 8.8.46 9.28s-.16 1.43.18 2c0 .54-.14 0-.14-.08 0 .09-.14.28-.14.38 0-.07-.45 0 0 .41-1.34 2.32-.38 7.56-.19 10.64a11.83 11.83 0 0 1 0 1.21C53.11 63 53 67.84 53 72.66c.11-.06.14-.09.14-.16v3.65c.35 0 0 .28-.06.2.48.93.29 3.76.29 4.71.4-.22.07-1.43.14-1.44a10.8 10.8 0 0 1 .33 1.45c.07-1.28.27-2.76.27-3.35a15.2 15.2 0 0 0 .32 2.81c.37 0 0-4.56.23-4.56a7.59 7.59 0 0 1 .09-1.35s.15 0 0 0c.08-.6.18-1.14.18-1.24a4.75 4.75 0 0 0 .18.48c0-3.17.38-6 .53-9.09a.44.44 0 0 1 0-.11c0-.91.07-1.84.06-2.8 0-2.74-.5-6.68-.5-8.91a41.73 41.73 0 0 1 0-5.09c.45 0-.23.48.32.48-.05 0 .17-.12.18-.1.59-.63 0-7.23.09-8.36 0-1.34.09-2.6.18-4 .13-1.92 1.47-11.11-1.34-12 .51 0 2.4-1.23 2.37-1.58-.05-.52.94-1 .85-1.67.22-.44.13.06.09.13s.24-.17.28-.25.4.25.21-.32c1.72-1 2.19-4.64 2.34-7.48 0-.71.05-1.36.06-1.92V9.72C61 5.23 58-1.7 52.22.38l.13.07a22.1 22.1 0 0 0-3 2.36c0 .17.37 0 0 .35q.1-.21-.08-.22c0 1.41-1.09 3.08-1.31 4.51.38-.13.37-1.31.4-1.31 0 .29-.42 3.67-.22 3.79a.23.23 0 0 0 .26 0c-.49-.19.89-4.85 1.11-5.29-.1.21-.69 2.43-.44 2.48 0 0 1.32-3.24 1.58-3.55.07-.1.05.37.11.4a3 3 0 0 1 .83-1.15 5.17 5.17 0 0 1 .85-.45c-.09 0-.18.34-.2.35C58-1.06 59 11.48 58.59 14.13c0 0-.84 4.27-1.19 4.18s.36-.31-.17-.49h-.2c-1.28.52-.71 4.77-3.12 3.84-.85-.33-1.35-2-1.6-2.8-.55-1.82-.86-3.56-1.49-5.35-.42-1.19-.67-2.46-1.87-3.05-1-.49-2.13-.36-2 1.17-.19.12-.18 0-.19-.16-.3.13 0 .58 0 .73.24.9.48 2.38 1.12 3.03zm5.25 57.1a.46.46 0 0 1 0 .06v-.06zm0-17.35q-.09-.07 0-.13t.05.15zm.55 23q-.09-.07 0-.13t.04.15zm0-1.37a.1.1 0 0 1 .14 0c-.1.03-.1.05-.14.03zm1.88-16v-.05a.21.21 0 0 1 0-.2zm0-2.23a.18.18 0 0 1 0 .18q-.21-.1-.05-.16zM55.33 47l.06-.19a2.1 2.1 0 0 0 0 .26l-.06-.07zm0 .35c.11-.06.17 0 0 0zm.28-1.65c-.27.15-.36.66-.36-.33.27.06.25.29.4.34zm-.14-1.34c-.26-.21-.24-.26 0 0zm-.14-1.62c0-.29.16-.09 0 0zm.14-1.19c0 .22-.15 0 0 0zm0 .18c0 .2-.47.39 0 0zm-.18-.23a.1.1 0 0 1-.14 0s.13-.02.18.01zm-.14 4.89c.27.1.18.2 0 0zm-.14 26.39c-.07.27-.1.06 0 0zm-6-68q-.06-.1 0-.11t.05.09zm.11-.45c.08-.16.19 0 0 0zm.44-.72a.1.1 0 0 1 .12.07c-.03-.07-.05-.05-.07-.1zm.51.65c-.06.11-.06.28-.2.29-.11-.34.22-.59.35-.8a.24.24 0 0 1 0 .19c.08.06-.01.3-.1.29zm.34-.86h-.08c-.02 0 .26-.19.14-.03zm2.37-1c0-.26.08 0 0 0zm4.62 2.38q-.1 0 0-.08t.05.09zm1.5 14.68c.23.1 0 0 0 0zm.1-2.23c.23.07 0 0 0 0zm.89-10.09c-.17 0-.13 0 0 0zm-.14.28zm.1.35a7.83 7.83 0 0 0-.08 1.74 38.32 38.32 0 0 1-1-4c.19-.07.82 1.58.72 1.79-.07.06.18.38.32.47zm-.52-2.48s0 .13 0 0zm.17.5c-.25.08 0 0 0 0zM59.35 5c-.21.15-.48 0 0 0zM59 4.59c.09.18-.13.06 0 0zm-.2.81l.08-.05c.08-.05.12.02-.04.05zm-.08-.06h-.07c-.01 0 0 0 0-.06s.16.01.11.06zm-.15-.27c0-.18.19-.4 0 0zm-.18-.48h.05l-.12.06s.07-.04.11-.06zm0 3.16v.2a.13.13 0 0 1-.07-.11.06.06 0 0 1 .14-.09zm0 .31zm.16-3c.08 0 .08.05 0 .12a.22.22 0 0 1 .06-.1zm.05 4.47a.13.13 0 0 1 0-.15q.23.13.07.17zm-.34 10.86s-.05 0-.12-.06.14.06.18.08zM57 18.61q.11.1-.09 0s.09.01.15.02zm-.17.41q0-.14.12-.16c-.02.22-.23.6-.06.14zm-.12.27c.29.39 0 .08 0 0zm-.17.13c.11.15 0 .17 0 0zm-.09.19c0 .12.1.34 0 .56-.24-.17-.21-.36.07-.55zm-.29 1l-.11-.07s.14.06.18.08zm-.3.14c.18.27 0 .18 0 0zm-.79 1c.21-.14-.19.13 0 0zm-.32.31c.22.37-.3-.4 0 0zm-.1.24a.55.55 0 0 1-.05-.13s.11.05.12.09zM54.18 64c-.25-.09 0-.07 0 0zm0-.61h.09c.09 0 .02.02-.13 0zm.32 14a1.68 1.68 0 0 1-.14-1c0 .08.18.33.18.48s-.08.35-.08.53zm-.18-16.61zm.23 2.51c-.1-.06 0 0 .09 0h-.14zm.14.08q.09.07 0 .13t-.05-.14zm0 .35c-.43.19 0-.11 0 0zm-.09.58h.05-.05zm0-42.35c.09.26 0 0 0 0zm-.35 37.14c.12-.07.08 0 0 0zm.18-.89c.49-.14.08.4.18.46a13.93 13.93 0 0 1 .09 4.48 23.21 23.21 0 0 0-.5-2.76 7.41 7.41 0 0 0 .26-2.18zm-.36 2.86c.19 0 .11 0 0 0zm0 2.08c.09.1 0 .09 0 0zm-.14.38c.25-.07.44.24 0 0zm-.55-26.87c.38 0 .09.1 0 0zm.18.86c-.26 0 0 0 0 0zm0 .58q-.36 0-.09-.46c.18 0 .3.46.12.46zm0-.86v-.13c0-.05.09.09.03.13zm-.87-10.71v-.05c.08.33.08.23.03.04zm.44 1.48c-.43-.23.32-.18 0 0zm0-.33s-.06-.09 0 0zm-.18-.2c0-.24-.14-.51-.14-.76.57.37.13.97.09.79zm-1.41-5.15c-.21.16 0 0 0 0zm-.28-.32q.11 0 .07.1t-.07-.1zm-3.35-7.86c.35.11-.38.28 0 0zm-.06-.35c0 .15-.44-.39-.46-.62a.66.66 0 0 1 .46.66zm-.5-.88a.21.21 0 0 0 .11.18c-.3.16-.09-.09-.1-.14zm-.12-.23c0 .25 0 0 0 0zm13.18 88.66c.13-.31 0-.13 0 0zm-4.76-36.58v-.06.06zm-1.78 17.96a4.93 4.93 0 0 0 0-1.65 7.5 7.5 0 0 0 0 1.65zm3.22 1.87q-.12-.53-.38-.28v.07l.23.21a.18.18 0 0 0 .15 0zm-5.55.17c.05.52-.94 1-.85 1.67-.22.44-.13-.06-.09-.13s-.24.17-.28.25-.4-.25-.21.32c-1.72 1-2.19 4.64-2.34 7.48 0 .71-.05 1.36-.06 1.92v1.07c-.15 4.49 2.89 11.4 8.67 9.34a.43.43 0 0 0-.13-.07 22.17 22.17 0 0 0 3-2.36c0-.17-.37 0 0-.35q-.1.21.09.22c0-1.4 1.09-3.1 1.31-4.51-.38.13-.37 1.31-.4 1.31 0-.29.42-3.67.22-3.79a.23.23 0 0 0-.26 0c.49.19-.89 4.85-1.11 5.29.1-.21.69-2.43.44-2.48 0 0-1.32 3.24-1.58 3.55-.07.1-.05-.37-.11-.4a3 3 0 0 1-.84 1.14 5.43 5.43 0 0 1-.85.45c.09 0 .19-.34.2-.35-5.77 3.83-6.81-8.7-6.36-11.33 0 0 .84-4.27 1.19-4.18s-.36.31.17.49h.2c1.28-.51.7-4.77 3.12-3.84.85.33 1.35 2 1.6 2.8.55 1.82.86 3.56 1.49 5.35.42 1.19.67 2.45 1.87 3.05 1 .49 2.12.36 2-1.17.19-.12.18 0 .19.16.48-.21-.85-3.46-1.13-3.75.05.24 0 .56 0 .79-.19-1.17-2.43-4.7-1.78-5.53.11 0-.45-.9-1.27-1.8 0 .09-.15.25 0 0-.22-.24-.46-.48-.71-.72-.12 0-.22-.12-.23-.21-.9-.84-1.89-1.44-2.71-1.28a1 1 0 0 1-.17-.44 1.16 1.16 0 0 1-.07.25c-.18.43-2.28 1.26-2.22 1.79zm8 17.58q.06.1 0 .11t-.02-.1zm-.11.45c-.08.16-.19 0 0 0zm-.14.28a.1.1 0 0 1-.12-.06zm-.31.44a.1.1 0 0 1-.12-.07c.07.06.09.04.14.08zm-.35-1c.06.36-.16.57-.32.84a.24.24 0 0 1 0-.19c.1-.22.19-.38.31-.62zm-.51 1.2h.08c.02 0-.2.19-.09.03zm-2.37 1c0 .26-.08 0 0 0zm-4.62-2.38q.1 0 0 .08t-.01-.1zm-1.45-14.68c-.23-.1 0 0 0 0zm-.06 2.23c-.23-.07 0 0 0 0zM48.73 100c.17 0 .13 0 0 0zm.14-.28zm-.1-.35a8 8 0 0 0 .08-1.74 38.49 38.49 0 0 1 1 4c-.19.07-.82-1.58-.72-1.79.03-.1-.22-.42-.36-.5zm.52 2.48s0-.13 0 0zm-.17-.5c.25-.08 0 0 0 0zm.1.82c.21-.15.48 0 0 0zm.31.37c-.09-.18.13-.06 0 0zm.2-.81l-.08.05c-.08.05-.06-.04.09-.08zm.08.06h.07c.01 0 0 0 0 .06s-.11-.04-.07-.09zm.19.21c0 .18-.19.4 0 0zm.18.48h-.05l.12-.06s-.06.07-.1.09zm0-3.16v-.2a.13.13 0 0 1 .07.11.06.06 0 0 1-.13.12zm-.09-.3zM50 102c-.08 0-.08-.05 0-.12a.22.22 0 0 1 0 .12zm-.05-4.47a.13.13 0 0 1 0 .15q-.2-.08-.04-.13zm.34-10.86s.05 0 .12.06-.11-.02-.15-.04zm1.26 1.78q-.11-.1.09 0s-.08.04-.12.02zm.17-.41q0 .14-.12.16c.05-.2.26-.56.09-.14zm.12-.27c-.29-.39 0-.08 0 0zm.17-.13c-.11-.15 0-.17 0 0zm.09-.19c0-.12-.1-.34 0-.56.27.25.24.4-.04.59zm.29-1l.11.07s-.11-.02-.15-.04zm.3-.14c-.18-.27 0-.18 0 0zm.42-.82zm.37-.13c-.21.14.19-.13 0 0zm7.92 8.75c0 .11.15.39 0 .4-.17-.12-.04-.18-.04-.37zm-.05-.06a.19.19 0 0 0-.08.08c-.07-.13 0-.33.04-.06zm-.12-.18c-.1 0-.61-.65-.38-.68s.32.53.34.71zm-.4-.82c-.12 0 0 0 0 0zm-.15-.31c.46.14-.29.22 0 0zM57.25 85q.12 0 .07.1t-.07-.1zm-3.49.12c-.22-.37.3.4 0 0zm.19.07c-.09-.26 0 0 0 0zm-.05-.23v-.08c0-.08 0 0 0 0a.55.55 0 0 1 0 .04z"/><path class="cls-1" d="M47.75 94.31q-.1 0 0 .12a.09.09 0 0 0 0-.12zm9.9-9.02zm-2.83-8.91a1.28 1.28 0 0 1-.18-.4c.02.24.07.4.18.4zm6.01-63.59q.1 0 0-.12a.09.09 0 0 0 0 .12zM48.17 5.76c-.12.3 0 .14 0 0zM51.86 23l-.2-.15c.14.25.19.23.2.15zm.41.23s-.08.09 0 0zm5.92-7.7c-.09 0-.17 0 0 0zm.26-1.16s-.16 0 0 0zm.12 6.06c.12 0 .07-.14 0 0zM49.66 6.75c-.14.63.12-.51 0 0zm.14-.36c.18.05.22-.73 0 0zm.67-1.5c.16-.32 0-.19 0 0z"/><path class="cls-1" d="M49.9 6.06c.5-.22-.13-.11 0 0zm7.37 16.04c.09-.12.2-.32-.05 0 .01-.02.05 0 .05 0zm.92-13.56s-.28.16 0 0zm-9.84-3.61c.06 0 0-.09 0-.12s-.15 0-.11.15.11-.03.11-.03zm1.65.85q-.1 0 0 .1t0-.1zm-.4 1.78c.33.06-.15-.1 0 0zM61 11.32s0 .02 0 0zm-9.07-8.51c-.06-.07-.11-.06 0 0zm-1.82 2.78zm.26-.41c-.08-.1-.08 0 0 0zm10.7 5.98c-.06.1 0 0 0 0zm-3.29 5.38c0-.08-.22-.06 0 0zm1.87-8.13zM101.18 42s.1-.31 0 0zm2.82 7.88c.24-.24 0 0 0 0zm-1.79 15.54zM91.9 95.33c.31.09 0-.27.32-.3.78-.03-1.14-.19-.32.3zm.62-.99a5.29 5.29 0 0 1 .27-.57c-.33.23-.23.5-.27.57zm1.6-3.12c0 .05-.26.75.17 0q.18-.43-.17 0zM93 93.52c-.45.12-.2.36 0 0zm7.94-54.91l-.07-.36c.02.1-.05.23.07.36zm3.16 25.27c.09-.06 0-.06 0 0zM91.66 91.95c.08 0 .08-.14.1-.18a.18.18 0 0 0-.18.23.13.13 0 0 1 .08-.05zm1.27 1.47a.13.13 0 0 0 .1-.18.14.14 0 0 0-.1.18zm-1.66 2.95c.38.23-.11-.37 0 0zm10.56-38.06v-.08c.07-.3 0 .05 0 .08zm2.32-10.16c0-.13-.08-.06 0 0zM93.28 92.88v-.06zm8.48-34.28c.05-.13 0-.06 0 0zm2.32-10.74c0-.11-.08-.06 0 0zm-.08-.54s-.19-.14 0 0zm-29.92 4.91c.1 0 0-.05 0 0zM73 41.66s.18-.27 0 0zm.29-.29zm2.85-11.92h.08a.14.14 0 0 0-.08 0zm-3.22 13.89c-.29 0 0 0 0 0zm29-9.05v.17zm.08.17z"/><path class="cls-1" d="M72.55 61.7c.41 3.37 1 6.46 1.66 9.74a66.39 66.39 0 0 0 4 13.1.5.5 0 0 0 0-.11c.54 1.3 2.61 5.06 2.81 5.65q-.15-.33-.27-.11c1.08 1 1.67 2.85 2.49 4.22.4.45 1.13 1.69 1.66 2.53.07-.26-1.21-2-1.11-2.11 1.12 1.27 2.49 4.81 3.94 5.6a17.13 17.13 0 0 0-2.53-4.88c.06.08.11.12.12.11.35-.29-3.78-6.43-3.37-6.63a19.32 19.32 0 0 1-.88-2.07c-.34-.9-.62-1.72-.67-1.85.08.2.4.49.47.65-2.49-5.88-3.77-11.82-5.12-18A86.73 86.73 0 0 1 74 52.72c0-.69.56-1.79.28-2.6 0 .34-.26-.83-.26-1.3s.39-4.28.61-4.3c.45.06-.33.74.21.81-.12 0-.06-.63.13-1.63-.11 0-.06 0 0 0a165.12 165.12 0 0 1 4.35-16.18c2.46-6 6.35-11.33 8.46-17.5.16.25.48.48.4.75a.36.36 0 0 1-.24-.27c-.25.52 3.39 4.85 3.89 5.3-.21-.4-.32-.86-.54-1.24a100.36 100.36 0 0 1 6.78 14.25c0-.13 0-.27-.08-.46q.38-.18.39.56c0-.1-.06.32-.13.4l.24.64a72.32 72.32 0 0 1 3 11l-.12-.18c0 .18-.06.45 0 .63-.11-.62 0 .7 0 .74.27.36.29 4.85.39 6 .14 1.48.23 2.93.25 4.44v3.28c0 1.82-.05 3.56-.21 5.41-.68 7.77-3.18 15.17-6.19 22.27l.12-.06c-.58 1.22-2.11 5.13-2.47 5.65q.17-.31-.07-.28c-.15 1.47-1.4 2.92-2.12 4.28a14.65 14.65 0 0 1-1.39 2.62c.35-.06 1.16-2 1.32-1.94-.51 1.84-3.13 4.14-3.27 5.92 2.2-1.73 3.83-5.61 5.27-8.2a38.7 38.7 0 0 0-1.93 4c.47.2 3.62-6.53 3.79-6.44a.92.92 0 0 0-.06.2 20.82 20.82 0 0 1 1.13-2.18h.09-.09c.48-.85.94-1.6 1-1.75-.09.21-.07.64-.14.81 2.45-5.79 5.07-11 6.25-17.21.58-3 .88-5.83 1.17-8.9.22-2.3-.19-6-.18-7.39a4.26 4.26 0 0 1 .05-.55c.12 0 0 0 0 0a4.23 4.23 0 0 0 0-2.12c0 .35-.3-.81-.37-1.29a31.06 31.06 0 0 1-.25-4.44c.45-.06-.11.81.42.75s-.78-5.58-2.11-11c0 0-.1-.1 0-.14-1.06-4.26-2.18-8.39-2.57-9.63C98 20.58 92.68 6.22 87.69 7.88c1.4-1.94-2.5.35-2.85.71a.41.41 0 0 1 .16-.3c-.83 0-2.92 5.42-3 6.19.22-.4.58-.76.8-1.15a66.4 66.4 0 0 0-5.57 12.9q-.3.93-.57 1.87l.11-.26c.36.12.1.7-.23.66-.09.32-.18.65-.27 1-1 3.68-1.83 7.46-2.55 11.34 0-.12-.05-.23-.05-.24 0 .18-.21.41-.25.59.06-.31 0-.08-.08.2-.06.22-.12.47-.13.53.26.73-.91 5.54-1 7.29-.21 1.1-.21 2.15-.21 3.32 0 .76-.43 3.84-.08 4.34.64 1.07.45 3.37.63 4.83zm9.68 29.82c-.14-.25.08-.23 0 0zm.37.46a.14.14 0 0 1 .1.18.14.14 0 0 1-.1-.16zm.49.08l.52.83c-.19-.27-.36-.55-.53-.82zM82.85 91a4 4 0 0 1-.85-1.46c.21.46.6.96.85 1.46zM82 91h.06l-.12.06L82 91zm-.3-.83zm-.18-1.4a.42.42 0 0 1 .09.28.19.19 0 0 1-.07-.31zm-1.37-4.82c.12.45-.06.13 0 0zm-3.62-12.59a.14.14 0 0 1 0 .2.13.13 0 0 1 0-.2zm-.62 3.53c.08 0 0 .1 0 0zM92.6 91.58h-.08a.14.14 0 0 1 .1-.18s0 .14-.02.18zm.36-.74c-.43.1.1-.18 0 0zm.12-.4q.11 0 .12.06zm.57-.73c-.08 0-.1 0-.12-.06s.12-.01.13.06zm.64.14a12.78 12.78 0 0 1-.64 1.26 5 5 0 0 1 .63-1.54.36.36 0 0 1 .02.29zm.28-1s-.08.05-.1.09.28-.42.11-.06zm7-20.51c.18 0 .11.15 0 0zm.23 1.11zm-.43-.26zm0 .34q.11.11-.1 0s.08.03.12.03zm-4 15.17c0-.19.11-.27 0 0zm2.53-9.87s-.11-.18 0 0zm1.06.44c.11 0 0 .08 0 0zm.1-4.75c-.17-.17 0-.13 0 0zm.19-.62v-.12.12zm.13 1.25v-.05h.13s-.03.1-.07.09zm.27-1c-.56.23.05-.22 0 0zm0-.38a.14.14 0 0 1 0-.2v.13c0 .04.11.11.1.15zm2.19-8.17a.43.43 0 0 1-.08.29.19.19 0 0 1 .18-.2zm-.32-8.24c.06.06 0 .11 0 0zm.06 11.3zm-.15.32s.06-.08.07-.12l-.07.41a.32.32 0 0 1 .09-.2zm.11-21.69c-.26 0 0 0 0 0zm-1.38 28.74s-.05 0-.06.07.23-.29.16.02zm.85-30.28c.22.1.22.31 0 0zm.33 1.1c0-.05-.24-.81-.15-.78s.18.63.19.69.05.14.06.18zm-.13-1.3c-.06-.41.12-.15 0 0zm0-.42a2.14 2.14 0 0 1-.38-1c.29.45.72.41.45 1.09zm-.61 21.42s-.17 0 0 0zm0-23.53h.13q0 .17-.07.09zm0-.94c.14.75 0 0 0 0zm-.15 26.15s.16-1.15.29-2c0 .38-.06.84-.09 1.35v.07c-.13 2.14-.3 5-.71 5.63a43.74 43.74 0 0 0 .31-4.54c.35-.02-.06-.3.23-.41zm-.27 1.09zm0-28.82h-.08zm-.09-1c.1.45-.14.2 0 0zm-.69 6.07h-.05q.25-.02.06.08zm.17-7.75q-.06.11-.13 0s.08.05.14.08zm-3.79-6.39a.14.14 0 0 1 .07.19.13.13 0 0 1-.06-.11zm-.3-.72zm-6.34-12.58c.44.1-.17.49 0 0zM90 12.8q1 .31.76.92c-.38.28-.76-1.05-.76-.92zm-.47-.33c-.06-.09-.45-.53-.37-.58a.73.73 0 0 1 .41.57zm-5.5-2.15a.4.4 0 0 0 0-.2.36.36 0 0 1 .04.19zm-.29.54a.24.24 0 0 0 .15-.06c-.08.2-.38.5-.1.05zM83.23 12c-.08-.16.38-.72.46-.86a1.22 1.22 0 0 1-.31 1.24c-.19.36-.38-.54-.15-.38zm-.1.62c.11.06 0 0 0 0zm-.07.3c.14.44-.5.11 0 0zM77.1 27a.14.14 0 0 1-.07.2.14.14 0 0 1 .07-.2zm-.29 7.64c-.17-.18 0-.12 0 0zm-.17-.25q-.1.06-.13 0s.1-.02.13.03zm.08.4c-.08.31-.61.48 0 0zm-.8 2zm-.22 1.79c-.14.74 0 0 0 0zm-.16.89q-.09.07-.13 0zm-.29 2.1c-.1-.27 0-.82 0-1 0 .31.54.27 0 1.03zm0 .16c-.13.45-.11.07 0 0zm-.27.29c.33.21-.06.46 0 0zm0 .49a3.36 3.36 0 0 1 0 .7 1.33 1.33 0 0 1-.05-.67zM73.87 65.9c.24 0 0 0 0 0zm.1-.48h.05zm.34 3.06c0-.26.43.26 0 0zm.25.75c-.17.24 0 0 0 0zm-.08.66c.23-.17.54.3 0 0zm.32.78c-.08-.34.13 0 0 0zm.08-1.29h.13q-.01.07-.12 0zm.1 2.27c0-.07.1 0 0 0zm.55-.68q-.06.11-.13 0zm-.26-.91c-.4.44-.05-.22 0 0zm-.2-.46v-.09a.14.14 0 0 1 0 .2s.02-.08.01-.12zm.13-4.6l-.07-.4c0 .08 0 .12.08.15s-.02.18-.01.25zm-.49-3.55a.4.4 0 0 1 0 .29.18.18 0 0 1-.01-.3zm-.83 0c.25 2.14 1.53 5.53 1.23 7.64-.09 0-1-3.89-1.29-4.34a6.23 6.23 0 0 0 0-1.19c-.09-.46-.02-2.72.06-2.08zm-.27 1.2c.14-.17 0 0 0 0zM72 55.8a.14.14 0 0 1 0 .2.14.14 0 0 1 0-.2z"/><path class="cls-1" d="M72.27 59.37c.11 0 0-.06 0 0zm10.16 29.94a3 3 0 0 1-.45-.5c.19.35.35.56.45.5zm-5.99-60.82h.05l.12-.4zM75 43.71zm15.94 49.8a1 1 0 0 1 .12-.34.53.53 0 0 0-.12.34zm10.51-49.87c.1 0 0-.06 0 0zm.41 15.53c.21 0 0 0 0 0zm-.08-25.24v.14s.02-.07 0-.14zM94.73 89.8c0-.11 0-.31.07-.48-.1.27-.14.44-.07.48zM102 55.75a.14.14 0 0 0 0 .2.14.14 0 0 0 0-.09.17.17 0 0 0 0-.11zm-3.74-26.43l-.19-.51c.09.46.14.56.19.51zM74 65.43zM74.18 50c.25-.21 0 0 0 0zM85 93.57a5.21 5.21 0 0 1-.34-.51c.01.37.34.45.34.51zm-1.8-2.94c.52.17 0-.32 0 0zm1.39 2.1c-.13.45.2.35 0 0zM74.06 38c-.16.53-.07.31 0 0zm1.29 25.45c.08-.09 0-.06 0 0zm7.18 29.72a.3.3 0 0 0-.1-.28.19.19 0 0 0 .1.28zm3.58 2.34c0 .06.22.05 0 0zM72.06 58.24a.14.14 0 0 0 0 .21.14.14 0 0 0 0-.21zm2.45-10.97c0 .17.2 0 0 0zm0 1.01zM81 86.12c-.1.05 0 .09 0 0zm3.17 6.06v-.05zM72 58.75c0-.14 0-.06 0 0zm8 29.61zM74.53 48c-.07-.08-.11 0 0 0zm-.09-.53c.07.07.12 0 0 0zM74 63.59h-.1c-.01 0 .01.08.1 0zm8.7-4.4c.07-.08-.05-.11 0 0zm-2.64-3.6c-.09 0-.15.07 0 0zm0-1.15s-.17 0 0 0zm2.48-3.07s.03.01 0 0z"/><path class="cls-1" d="M89.91 65a7.35 7.35 0 0 0 4.67-2.22 5.87 5.87 0 0 0 1.69-4c-.12-1.81-2.86-3.45-3-1.41 0 .13-.24.08-.22-.09a15.75 15.75 0 0 0-.5 2.56c.12-.16.34-.23.43-.38-.37.63-2.35 3.8-3.26 2.64.1.35-2.71.24-3 .21s-3-1.47-3.2-1.47c-.43 0-1.1-1.43-.91-1.11v-.31c0-.05.48-.16-.09-.29.43-1.89-.31-4.33-.21-6.38s0-.07 0-.09a5 5 0 0 1 .25-1.41h-.08.08a3.33 3.33 0 0 1 .36-.75 5.85 5.85 0 0 1 8.71-1.48c.06-.19.06-.13-.1-.25.06-.08.06.19.12-.08a6.74 6.74 0 0 1 2.59 5.36c.17-.08.2-.32.19-.56.09.94.17 2.72.19 2.73a.25.25 0 0 0 .26 0 43.28 43.28 0 0 0-.27-4.86c.06.17.69 2.21.68 2.21.64 0-.73-3.79-.79-3.76s.24.25.36.18a9.91 9.91 0 0 0-1.06-1.54c.14-.13 0-.07 0 0a5.85 5.85 0 0 0-.51-.57c.05 0 .43.15.44.17-2.73-3-6.89-3.91-10.4-1.49-2.82 2-3.19 4.79-3.19 7.46 0 0 .24 4.44.27 4.43-.42.12.08-.48-.42-.36.08 0-.15.14-.16.14-.64 1.16 3.09 4.68 3.74 5.16.47.35 2.71 1 2.88 1.27.29.65 2.95.34 3.46.34zm3.35-6.59q.14.25-.09.12c-.17-.23.07-.07.1-.14zm-.15.45c-.05 0 .23 0 0 0zm-.07.51c.11-.17.28.44 0 0zm-4.82 3.23c0 .36-.09.11 0 0zm-.37.13s-.07.06-.09 0 .08 0 .09 0zm-.25-.11c0 .3 0 .06 0 0zm-.4 0c.4.05.23.27 0 0zm7.13-9.51a1.33 1.33 0 0 1 .06.29c-.03-.2-.06-.33-.06-.33zm.52-1.92c-.29-.17-.34-.46-.47-.72.12.21.37.38.47.68zm-.56.6q.11 0 0 .09t0-.13zm-.11-.31c-.23.21 0-.08 0 0zm-.06-1.39a.13.13 0 0 1 0 .15q-.12-.07 0-.18zm0 1.19l-.12.02s.07-.04.11-.05zm-.14-.4h.05q-.23.12-.03-.04zm-1-3.26c.15.2 0 .11 0 0zm-5.05-2c0 .21-.09 0 0 0zm-4.53 2.79zm.23 0q-.05-.13.07.05l-.07-.07zm1.57-1.05q0-.14.06.07s-.04-.05-.06-.09zm.22.2c-.15-.2 0-.47 0 0zm.47-2h.06c.06 0-.23.07-.05.02zm-.09 1.07v.05-.13s-.01.07 0 .11zm-.11.53c0 .27-.05 0 0 0zm-.4-.39zm-.22.1h.06c.06 0 0 .09-.1 0s.02.03.04.02zm0 .22q0 .14-.06-.07s-.01.06-.01.1zm-2.72.55s.12 0 .14-.06l-.18.17s.02-.03 0-.08zm-.08.2q.06.14-.08 0s.01 0 .04.03zm2.58-.9s-1.57 1.31-1.61 1.75A3.09 3.09 0 0 0 81.92 50c-.33-.1 2.08-3.17 2.89-3zm-3.68 2.26h.08c.02 0-.25.19-.08 0zm-.85 10c.18-.06.12 0 0 0zm.34.6a3.54 3.54 0 0 1-.12-.4c.02.07.18.54.11.38zm.13.07c.56 0-.33.15 0 0zm-.06.3c.17 0 .17.11 0 0zm.14.18a.84.84 0 0 1 .48.44c-.28-.18-.59.13-.49-.46zm.41-3.4c.23 0 .06 0 0 0zm1.26 2.43a.33.33 0 0 1-.12.06l.11-.08zm1.22 4.1c-.18-.11.08-.13 0 0zm.14-.13a.1.1 0 0 1 .07-.12s-.04.07-.08.1zm-1.61-10.57z"/><path class="cls-1" d="M94.1 53a.22.22 0 0 1-.08-.14c-.02.05-.02.14.08.14zm1.76-.25c0-.18-.23-.5 0 0zm-.57-2.01c-.54.33.75.33 0 0zm.43 1.68c.35-.45-.17 0 0 0zM83.36 60.7s0-.13-.11-.13zM81.46 48c.12-.14 0-.25 0 0zm12.33 4.34s.05-.08 0-.13-.09.09 0 .13zm1.98-.34zm-.04 0zm.15 2c.33 0-.16-.07 0 0zm-13.36-2.15q.1 0 0-.08t0 .08zm13.09.04c.23-.06 0-.08 0 0zm-15.68 4.78c0-.09-.22 0 0 0zm-.03.27s.22.09 0 0zM82.62 49zm7.54-12.81zM80 40.66c-.2-.12 0 0 0 .06.45-.08.89-.77 1.4-1.25 0 0-.48.71-.36.83s.9-.71 1-.82c-.12.1.45.56.13.08.13.12.2-.31.21-.36s.6 0 .47.1 0 .25 0 .23c.29-.22 1.48-.55 1.58-.38s3.57-1.25 3.83-1.24c0 0 .38.19.48.17s.91-.22.86-.09c-.12.35 0 .18-.16.58 0-.19.35-.08.65 0a.27.27 0 0 1 0-.17c.3-.3.16-.13 0 .17.18.05.34.09.36 0s3.1 1.89 2.7 2.42c.25-.21 4.64.55 3.74-1.55-.12-.16.37-.11.26-.26-.24-.32-1.83-.7-1.36-.22a11.34 11.34 0 0 0-.95-.67s-1 0-.74-.58a5.12 5.12 0 0 0-1.35-.47c-.07.14-.08.16 0 0-.76-.22-1.57-.43-1.55-.45-.16.21-.72-.16-.6-.13l-.09-.16s.19-.55-.12-.07a1 1 0 0 0-.26-.22c0 .08 0 .08 0 0a5.12 5.12 0 0 0-3-.34q0-.09 0 0c-.31.06-.51.15-.51.26-.17-.6-4.61 1.26-4.47 1.47s0 .28-.29 0c.25.55-.88.55-.72.74-.1-.1-.72 1-1 1.31.12.07.28 0 .37-.15-.08.39-.41 1.22-.51 1.16zm16.7-1.38a.13.13 0 0 1-.07.06.28.28 0 0 1 .1-.06zm-.27-.1c.27.17 0 0 0 0zm0 0a.28.28 0 0 0-.05.08c-.04-.07-.01-.18.06-.1zm-.43-.11c.35.36 0 0 0 0zm-.17.09s.09-.05.05 0zm-.12-.06c.37-.22-.15.26 0 0zm-2.44-1.51s-.15.36 0 0zm-.21 0s.06 0 0 0 .03.09.05.03zm0-.17c-.15.26 0 .06 0 0zm-.23 0c.24-.39-.14.27 0 0zm-1.61 1.07a.91.91 0 0 1-.05.13zm-.08.16c-.12.25 0 0 0 0zm-.27-.15c.08 0 0 .16 0 0zm-.11 0zm-.33 0c.17-.38 0 0 0 0zm0-2a.73.73 0 0 1 0 .13zm-.05 1.79v.13zm-.39 0zm0-.19c-.09.27-.12.21 0 0zm-.19.1c0 .05.17.08 0 0 .01.07.03.02.03.03zm-.12.07a.46.46 0 0 1 0 .14zm-.42-1.5a.42.42 0 0 1 0 .14zm-4.21 2.16s.03.07.04.02zm.22-.08s.07 0 .03.01zm1-.35s-.07 0 0 0h.06s.01-.03.01.02zm0-.1v.14zm1.76-1c0 .05 0 .18 0 0zm-.48-1.59s0 .06 0 0 .1.05.1.05zM87 36c.07.25 0 .09 0 0zm-.15 2.24c.08.22 0 0 0 .05s-.04-.05-.03-.05zm-.33-1.06q0 .11 0 0h-.03zm-.52.11s0-.01 0 0zm-.1-.12a.4.4 0 0 1 0-.13zm.13.35c0-.12.05-.17.07-.35.06.17.23.11.23 0s.67.26.43.3c-.66.1-1.1.35-1.25.19.21.1.42-.32.49-.15zm-.69.24s0 .07 0 0-.04-.01-.04-.01zm-.05.12s.07 0 0 0zm0-.62v.08s-.1-.06-.06-.09zm0 .15v-.13zm-.07-.12c.06.18 0 .16-.06-.13-.05.07-.04.07-.02.12zm-.15 0c.06.27 0 0 0 0zm-2.77 2.24zm-.3-.3h-.07c-.07 0-.01-.08.07 0zm-.1.14a.3.3 0 0 0-.06.2v-.18c0-.08.02-.05.05-.02zm-.43-.37q-.14-.14 0 0zm-.16.08l-.09-.1zm-.08 0s-.13-.1 0 0zm-.08.14q0 .09 0 0t0 .02zm8.94-.61s-.01-.01 0 0zm2.67-1.33zM86 37.24s0 .04 0 0z"/><path class="cls-1" d="M82.6 39.43a.42.42 0 0 0-.08-.11zm7.88-3.17s0 .12 0 0zm-8.66 4.2s-.25-.1 0 0zm.37-.37c-.25-.14 0 0 0 0zm-.28.34c-.31-.26-.06.06 0 0zm9.2-3.63s-.11-.02 0 0zm-4.52 1.99v.18c.03-.09.06-.15 0-.18zm-5.96.12q-.12-.11-.07 0s.07.01.07 0zM82 40.4c0-.05-.28-.2 0 0zm-.16-.1s-.06 0 0 0 .03.06 0 0zm7.3-2.08zm-2.06-2.41a.13.13 0 0 0 0 .09s.04-.03 0-.09zM89 38.28c0-.18 0 0 0 0zm.12-.08q-.04.11 0 0zm-2.79-.86zM54.28 60.78s.04 0 0 0zm1-9.5c0 .14.27-.16 0 0zm-2.01-4.99s.13-.17 0 0zM55 79.47c.19 0 0-.93 0 0zm-.08-2.15c0 .6.34-.55 0 0z"/><path class="cls-1" d="M55.14 78.94c-.31 0-.17.2 0 0zm.78-19.25s.23-.13 0 0zm-2.79 18.74v-.13c0-.03-.12.1 0 .18s0-.05 0-.05zm2.01.13c0-.24-.32.19 0 0zm-.22.2v.08c0 .03.08-.15 0-.08zm.08 2.13c.36 0-.2-.11 0 0zm-1.87-24.44v-.05c.05-.19 0 .02 0 .05zm1.79 17.75s0 .1 0 0zm.08 3.63c0 .19.21-.12 0 0zm-1.91-21.2c.05-.1 0 0 0 0zm1.37 3.06q.19 0 0-.05zm-28.03 40s.05-.01 0 0zm1.13-13.01c-.12 0-.07.14 0 0zm.13 6.05s.16 0 0 0zm.25-1.16c.09 0 .17 0 0 0zm8.39 9.15c-.18-.05-.22.73 0 0zm-.66 1.5c-.16.32 0 .19 0 0z"/><path class="cls-1" d="M36.23 101c-.5.22.13.11 0 0zm-7.37-16c-.09.12-.2.32.05 0h-.05zm-.92 13.57s.28-.16 0 0zm9.9 3.58a.14.14 0 0 0-.11.15q.17 0 .11-.15zm-1.69-.83q.1 0 0-.1t0 .1zm.39-1.77c-.33-.06.15.1 0 0zm-11.37-3.81c0-.17 0 0 0 0s0 .03 0 0zm9.04 8.55c.06.07.11.06 0 0zm1.79-2.75c0-.09 0 0 0 0zm-.23.39c.08.1.08 0 0 0zm-10.71-5.98c.06-.1 0 0 0 0zm3.29-5.39c0 .08.22.06 0 0zm7.77-70.13c.12 0 .07-.14 0 0zM38 101.34c.13-.31 0-.13 0 0zm-7.23-22.07c0 .41 0 .15 0 0zm3.87 5.32q-.12-.53-.38-.28v.07l.23.21a.18.18 0 0 0 .15 0zM29.41 23l-.2-.15c.15.25.19.23.2.15zm.42.23s-.08.09 0 0zm1.59 59.49a4.93 4.93 0 0 0 0-1.65 7.5 7.5 0 0 0 0 1.65zm-.8-6.37v-.07a.09.09 0 0 0 0 .07zm-4.9-70.59c-.12.31 0 .13 0 0z"/><path class="cls-1" d="M25.44 15.23c-.05-.24 0-.56 0-.79.2 1.17 2.42 4.71 1.78 5.53.08 0 .77 1.45 1 1.79a4.23 4.23 0 0 0 1 1.06l-.22-.31q.2-.22.41.18c-.07-.08 0 .17 0 .29.14.09.28.17.41.25a5.27 5.27 0 0 0 .74.34A1.75 1.75 0 0 0 30 25c-.2.11-.18 0-.18-.18-.41.15.37 3.72.6 4.1 0-.27.14-.58.14-.84 0 1.16 1.2 5.64.14 6.26.39 0 0 8.8.46 9.28s-.16 1.43.18 2c0 .54-.14 0-.14-.08 0 .09-.14.28-.14.38 0-.07-.45 0 0 .41-1.34 2.32-.38 7.56-.19 10.64a11.76 11.76 0 0 1 0 1.21c-.21 4.82-.33 9.63-.33 14.44.11-.06.14-.09.14-.16v3.65c.35 0 0 .28-.06.2.48.93.29 3.76.29 4.71.4-.22.07-1.43.14-1.44a10.8 10.8 0 0 1 .33 1.45c.07-1.28.27-2.76.27-3.35a15.21 15.21 0 0 0 .35 2.86c.37 0 0-4.56.23-4.56a7.59 7.59 0 0 1 .09-1.35s.15 0 0 0c.08-.6.18-1.14.18-1.24a4.75 4.75 0 0 0 .18.48c0-3.17.38-6 .53-9.09a.44.44 0 0 1 0-.11c0-.91.07-1.84.06-2.8 0-2.74-.5-6.68-.5-8.91a41.7 41.7 0 0 1 0-5.09c.46 0-.23.48.32.48-.05 0 .17-.12.18-.1.59-.63 0-7.23.09-8.36 0-1.34.09-2.6.18-4C33.7 34 35 24.8 32.23 23.92c.51 0 2.4-1.23 2.37-1.58-.05-.52.94-1 .85-1.67.22-.44.13.06.09.13s.24-.17.28-.25.4.25.21-.32c1.72-1 2.19-4.64 2.34-7.48 0-.71.05-1.36.06-1.92V9.76c.16-4.53-2.87-11.46-8.65-9.38l.13.07a22.09 22.09 0 0 0-3 2.36c0 .17.37 0 0 .35q.1-.21-.09-.22c0 1.41-1.09 3.08-1.31 4.51.38-.13.37-1.31.4-1.31 0 .29-.42 3.67-.22 3.79a.23.23 0 0 0 .26 0c-.49-.19.89-4.85 1.11-5.29-.1.21-.69 2.43-.44 2.48 0 0 1.32-3.24 1.58-3.55.07-.1.05.37.11.4a3.05 3.05 0 0 1 .83-1.15 5.16 5.16 0 0 1 .86-.41c-.09 0-.18.34-.2.35 5.77-3.82 6.79 8.72 6.36 11.37 0 0-.84 4.27-1.19 4.18s.36-.31-.17-.49h-.2c-1.28.51-.71 4.77-3.12 3.84-.85-.33-1.35-2-1.6-2.8-.55-1.82-.86-3.56-1.49-5.35-.42-1.19-.67-2.46-1.87-3.05-1-.49-2.12-.36-2 1.17-.19.12-.18 0-.19-.16-.3.13 0 .58 0 .73.24.9.47 2.38 1.11 3.03zm5.25 57.1a.5.5 0 0 1 0 .06v-.06zm0-17.35q-.09-.07 0-.13t.04.15zm.55 23q-.09-.07 0-.13t.04.15zm0-1.37a.1.1 0 0 1 .14 0c-.1.03-.1.05-.14.03zm1.88-16v-.05a.21.21 0 0 1 0-.2zm0-2.23a.18.18 0 0 1 0 .18q-.21-.1-.05-.16zM32.88 47l.06-.19a2.1 2.1 0 0 0 0 .26l-.06-.07zm0 .35c.11-.06.17 0 0 0zm.28-1.65c-.27.15-.36.66-.36-.33.27.06.26.29.4.34zm-.14-1.34c-.26-.21-.24-.26 0 0zm-.14-1.62c0-.29.16-.09 0 0zm.14-1.19c0 .22-.15 0 0 0zm0 .18c0 .2-.47.39 0 0zm-.18-.23a.1.1 0 0 1-.14 0s.14-.02.18.01zm-.14 4.89c.27.1.18.2 0 0zm-.14 26.39c-.07.27-.1.06 0 0zm-6-68q-.06-.1 0-.11t.05.09zm.11-.45c.08-.16.19 0 0 0zm.44-.72a.1.1 0 0 1 .12.07c-.03-.07-.04-.05-.07-.1zm.51.65c-.06.11-.06.28-.2.29-.11-.34.22-.59.35-.8a.24.24 0 0 1 0 .19c.09.06-.01.3-.09.29zm.38-.89h-.08c-.02 0 .22-.16.08 0zm2.37-1c0-.26.08 0 0 0zM35 4.79q-.1 0 0-.08t0 .08zm1.45 14.67c.23.1 0 0 0 0zm.06-2.23c.23.07 0 0 0 0zm.89-10.09c-.17 0-.13 0 0 0zm-.14.28zm.1.35a7.84 7.84 0 0 0-.08 1.74 38.39 38.39 0 0 1-1-4c.19-.07.82 1.58.72 1.79 0 .06.23.38.36.47zm-.52-2.48s0 .13 0 0zm.17.5c-.25.08 0 0 0 0zm-.1-.79c-.21.15-.48 0 0 0zm-.31-.37c.09.18-.13.06 0 0zm-.2.81l.08-.05c.08-.05.06-.02-.09.01zm-.07-.06h-.07c-.01 0 0 0 0-.06s.11-.03.06.02zm-.15-.27c0-.18.19-.4 0 0zM36 4.59h.05l-.12.06s.02-.04.07-.06zm0 3.16V8a.13.13 0 0 1 0-.16.06.06 0 0 1 0-.09zm.15-2.68c.08 0 .08.05 0 .12a.22.22 0 0 1 .02-.11zm.05 4.47a.13.13 0 0 1 0-.15q.18.12.02.16zm-.34 10.86s-.05 0-.12-.06.1.05.14.07zm-1.26-1.78q.11.1-.09 0s.06 0 .11.01zm-.17.41q0-.14.12-.16c-.07.21-.27.59-.1.13zm-.12.27c.29.39 0 .08 0 0zm-.17.13c.11.15 0 .17 0 0zm-.09.19c0 .12.1.34 0 .56-.28-.18-.25-.37.02-.56zm-.29 1l-.11-.07s.09.05.13.07zm-.3.14c.18.27 0 .18 0 0zm-.79 1c.21-.14-.19.13 0 0zm-.32.31c.22.37-.3-.4 0 0zm-.1.24a.55.55 0 0 1-.05-.13s.06.04.08.08zM31.74 64c-.25-.09 0-.07 0 0zm0-.61h.09c.09 0 .01.02-.14 0zm.32 14a1.68 1.68 0 0 1-.14-1c0 .08.18.33.18.48s-.1.35-.1.53zm-.18-16.61zm.23 2.51c-.1-.06 0 0 .09 0h-.14zm.14.08q.09.07 0 .13t-.05-.14zm0 .35c-.43.19 0-.11 0 0zm-.09.58h.05-.06zm0-42.35c.09.26 0 0 0 0zm-.35 37.14c.12-.07.08 0 0 0zm.19-.89c.49-.14.08.4.18.46a13.93 13.93 0 0 1 .09 4.48 23.2 23.2 0 0 0-.5-2.76A7.41 7.41 0 0 0 32 58.2zm-.36 2.86c.19 0 .11 0 0 0zm0 2.08c.09.1 0 .09 0 0zm-.14.38c.25-.07.44.24 0 0zM31 36.64c.38 0 .09.1 0 0zm.18.86c-.26 0 0 0 0 0zm0 .58q-.36 0-.09-.46c.11.01.23.47.05.47zm0-.86v-.13c0-.05.03.1-.04.14zm-.87-10.71v-.05c.01.34.02.24-.04.05zm.38 1.49c-.43-.23.32-.18 0 0zm0-.33s-.06-.09 0 0zm-.18-.2c0-.24-.14-.51-.14-.76.57.37.12.97.09.79zM29 22.35c-.21.16 0 0 0 0zm-.19-.35q.11 0 .07.1t-.07-.1zm-3.35-7.86c.35.11-.38.28 0 0zm-.06-.35c0 .15-.44-.39-.46-.62a.66.66 0 0 1 .47.66zm-.5-.88a.21.21 0 0 0 .11.18c-.29.16-.09-.09-.1-.14zm-.12-.23c0 .25 0 0 0 0z"/><path class="cls-1" d="M32.38 76.38a1.28 1.28 0 0 1-.18-.4c.01.24.07.4.18.4zm.82-11.62v-.06.06zm5.18-51.97q.1 0 0-.12a.09.09 0 0 0 0 .12zM25.31 94.31q-.1 0 0 .12a.09.09 0 0 0 0-.12zm9.9-9.02z"/><path class="cls-1" d="M29.09 84.76c.05.52-.94 1-.85 1.67-.22.44-.13-.06-.09-.13s-.24.17-.28.25-.4-.25-.21.32c-1.72 1-2.19 4.64-2.34 7.48 0 .71-.05 1.36-.06 1.92v1.07c-.15 4.49 2.89 11.41 8.67 9.34a.42.42 0 0 0-.13-.07 22.15 22.15 0 0 0 3-2.36c0-.17-.37 0 0-.35q-.1.21.09.22c0-1.4 1.09-3.1 1.31-4.51-.38.13-.37 1.31-.4 1.31 0-.29.42-3.67.22-3.79a.23.23 0 0 0-.26 0c.49.19-.89 4.85-1.11 5.29.1-.21.69-2.43.44-2.48 0 0-1.32 3.24-1.58 3.55-.07.1-.05-.37-.11-.4a3 3 0 0 1-.84 1.14 5.41 5.41 0 0 1-.85.45c.09 0 .19-.34.2-.35-5.76 3.81-6.81-8.72-6.36-11.37 0 0 .84-4.27 1.19-4.18s-.36.31.17.49h.2c1.28-.51.7-4.77 3.12-3.84.85.33 1.35 2 1.6 2.8.55 1.82.86 3.56 1.49 5.35.42 1.19.67 2.45 1.87 3.05 1 .49 2.13.36 2-1.17.19-.12.18 0 .19.16.48-.21-.85-3.46-1.13-3.75.05.24 0 .56 0 .79-.19-1.17-2.43-4.7-1.78-5.53.11 0-.45-.9-1.27-1.8 0 .09-.15.25 0 0-.22-.24-.46-.49-.71-.72-.11 0-.22-.12-.23-.21-.89-.78-1.88-1.39-2.66-1.22a1 1 0 0 1-.17-.44 1.16 1.16 0 0 1-.07.25c-.22.41-2.36 1.24-2.27 1.77zm8 17.58q.06.1 0 .11t-.01-.1zm-.11.45c-.08.16-.19 0 0 0zm-.14.28a.1.1 0 0 1-.12-.06zm-.31.44a.1.1 0 0 1-.12-.07c.08.06.09.04.12.08zm-.35-1c.06.36-.16.57-.32.84a.24.24 0 0 1 0-.19c.14-.22.2-.38.32-.62zm-.51 1.2h.08c.02 0-.2.19-.08.03zm-2.37 1c0 .26-.08 0 0 0zm-4.62-2.38q.1 0 0 .08t0-.1zm-1.45-14.68c-.23-.1 0 0 0 0zm-.06 2.23c-.23-.07 0 0 0 0zM26.29 100c.17 0 .13 0 0 0zm.14-.28zm-.1-.35a8 8 0 0 0 .08-1.74 38.51 38.51 0 0 1 1 4c-.19.07-.82-1.58-.72-1.79.02-.1-.23-.42-.36-.5zm.52 2.48s0-.13 0 0zm-.17-.5c.25-.08 0 0 0 0zm.1.82c.21-.15.48 0 0 0zm.31.37c-.09-.18.13-.06 0 0zm.2-.81l-.08.05c-.08.05-.06-.04.08-.08zm.08.06h.07c.01 0 0 0 0 .06s-.12-.04-.07-.09zm.15.27c0 .18-.19.4 0 0zm.18.48h-.05l.12-.06s-.03.01-.07.03zm0-3.16v-.2a.13.13 0 0 1 .07.11.06.06 0 0 1-.1.06zm-.09-.3zm-.06 3c-.08 0-.08-.05 0-.12a.22.22 0 0 1-.03.04zm-.05-4.47a.13.13 0 0 1 0 .15q-.19-.16-.03-.21zm.34-10.86s.05 0 .12.06-.11-.1-.15-.12zm1.26 1.78q-.11-.1.09 0l-.12-.06zm.17-.41q0 .14-.12.16c.06-.28.26-.64.09-.22zm.12-.27c-.29-.39 0-.08 0 0zm.17-.13c-.11-.15 0-.17 0 0zm.09-.19c0-.12-.1-.34 0-.56.27.17.24.32-.03.51zm.29-1l.11.07s-.11-.1-.14-.12zm.3-.14c-.18-.27 0-.18 0 0zm.42-.82zm.37-.13c-.21.14.19-.13 0 0zm7.92 8.75c0 .11.15.39 0 .4-.17-.2-.03-.26-.04-.45zm-.05-.06a.19.19 0 0 0-.08.08c-.06-.21.01-.41.04-.14zm-.12-.18c-.1 0-.61-.65-.38-.68s.32.45.34.63zm-.4-.82c-.12 0 0 0 0 0zm-.15-.31c.46.14-.29.22 0 0zM34.8 85q.12 0 .07.1t-.07-.1zm-3.49.12c-.22-.37.3.4 0 0zm.19.07c-.09-.26 0 0 0 0zm-.05-.23v-.08c0-.08 0 0 0 0a.55.55 0 0 1 0 .04zM36 14.37s-.16 0 0 0zm1.26-6.95s-.05 0 0 0zm-1.52 8.11c-.09 0-.17 0 0 0zm-8.52-8.78c-.14.63.12-.51 0 0zm.14-.36c.18.05.22-.73 0 0zm.64-1.5c.16-.32 0-.19 0 0z"/><path class="cls-1" d="M27.45 6.06c.5-.22-.13-.11 0 0zm7.38 16.04c.09-.12.2-.32-.05 0 .01-.02.05 0 .05 0zm.92-13.56s-.28.16 0 0zm-9.84-3.61c.06 0 0-.09 0-.12s-.15 0-.11.15.11-.03.11-.03zm1.63.85q-.1 0 0 .1t0-.1zm-.39 1.78c.33.06-.15-.1 0 0zm11.42 3.76s0 .02 0 0zm-9.09-8.51c-.06-.07-.11-.06 0 0zm-1.81 2.78zm.25-.41c-.08-.1-.08 0 0 0zm10.71 5.98c-.06.1 0 0 0 0zm-3.29 5.38c0-.08-.22-.06 0 0zm1.87-8.13zm-4.37 42.87c0 .14.27-.16 0 0zm-2.02-4.99s.13-.17 0 0zm1.01 14.49s.05 0 0 0zm.69 18.69c.19 0 0-.93 0 0zm-.05-2.15c0 .6.34-.55 0 0z"/><path class="cls-1" d="M32.7 78.94c-.31 0-.17.2 0 0zm.78-19.25s.23-.13 0 0zm-2.79 18.74v-.13c0-.03-.12.1 0 .18s0-.05 0-.05zm2.01.13c0-.24-.32.19 0 0zm-.23.2v.08c0 .03.13-.15 0-.08zm.1 2.13c.36 0-.2-.11 0 0zm-1.88-24.44v-.05c.04-.19 0 .02 0 .05zm1.78 17.75s0 .1 0 0zm.1 3.63c0 .19.21-.12 0 0zm-1.93-21.2c.05-.1 0 0 0 0zM32 59.69q.19 0 0-.05zm17.15 66.17s-.42-.1 0 0zm10.68-1.35a.33.33 0 0 0 .18-.05c-.46-.02-.5-.12-.18.05z"/><path class="cls-1" d="M123.77 125.31h-7.31c.34 0 6-.1 6-.21-.17-.58-9.76.25-9.76-.15-.74 0-1.86 0-2.92-.06 0 0-.1 0 0 0l-2.65-.12c.32 0 .72-.12 1-.12-8.15 0-16.15-.43-24.32-.4-3.65 0-7.25.05-10.91.05-2 0-4 0-6 .09-.68 0-3.56.17-3.58.19a16.59 16.59 0 0 0-3.4-.11c.59 0-1.11.19-1.7.21-.78 0-5.56.31-5.75-.12 0-.31 1 .15 1-.21q-.27 0-.16-.09c-1 .08-2 .13-3 .18h.38-.16a1.45 1.45 0 0 1-.87 0l-1.75.05h-3.29q-2.52 0-5-.06h.08-.18c-13.29-.36-26.7-1.82-39.6.75-.24 0 .82.89.89.92.86.42 2.15-.07 2.82.32h-.49c1 .87 7.35-.13 8.79-.4-.6 0-1.2-.09-1.79-.09 4.38 0 9-.85 13.36-.15a80.51 80.51 0 0 0 10.13-.09.29.29 0 0 1-.22-.12c1.71-.94 6.46 0 8.52-.09s3.93 0 5.89 0l-.31.06c.26 0 .55.09.81.09-.7 0 .81.06 1 .06 1-.28 5.53.15 7.49.15h5.91c4.4-.06 8.35-.1 12.64-.08 10.05 0 20.09.21 30.16.21l-.15-.06c1.76 0 7.25-.17 8.19-.1a23.85 23.85 0 0 0 2.75 0h3.29c.31 0 .7-.06 1.13-.07a.54.54 0 0 1-.3-.11c.69-.02 1.95-.18 3.34-.32zm-118 1a2.47 2.47 0 0 1 .81 0 5.1 5.1 0 0 1-.83-.03zm1.08 0a.36.36 0 0 0-.16-.06c.18-.06.89 0 .15 0zm.43-.06a2.68 2.68 0 0 1 1.63-.09c-.55-.06-1.1.03-1.64.03zm2-.18c0-.09 0 0 0 0zm.54 0c-.55 0 .66-.37 0 0zm18.66-.28c0-.25.25-.07 0 0zm1.09-.09h-.11a.31.31 0 0 1 .27 0c-.06-.06-.11-.03-.17-.03zm.76.06c0-.14 0-.07 0 0zm1.19 0h-.92c0-.92 1.06-.01.92-.02zm48-1.44h.32-.54a.41.41 0 0 0 .22-.02zm-.49 0s.06 0 .06.06-.09.02-.09-.08zm-3.74.06h.16c.05 0-.71-.02-.16-.02zm8.9.95c-.28 0 .41-.23 0 0zm-2.59-.16c1.67-.1 3.1-.2 3.56-.2-.86.45-2.24.29-3.56.18zm3.78.16c-.29 0-.14 0 0 0zm.11-.24V125q.1 0 0 .06zm.27.21s-.06 0-.06-.06.09-.06.06.04zm-.06-.34a.31.31 0 0 1 .27 0 .3.3 0 0 1-.26-.02zm.33.46c-.18-.2.59-.34 0 0zm.16-.52a2.44 2.44 0 0 1 .59.18 3.47 3.47 0 0 1-.59-.2zm.76.46c.07 0 .27 0 0 0zm.76-.37v-.09q.11.04 0 .1zm.92-.64h.16c.04 0-.1-.02-.16-.02zm23.92.92c-.06 0-.11 0-.16-.06a1 1 0 0 1 .38 0zm1.57.33q-.11-.06 0-.09c.01.04.06.04.01.07zm1.19 0q-.11-.06 0-.09zm1.57 0a.16.16 0 0 0-.11 0 .3.3 0 0 1 .27 0zm-77.82-1.18c.26 0 .07 0 0 0zM72 125.89s0-.16 0 0z"/><path class="cls-1" d="M112.76 124.94c.5 0 .83 0 .83-.12-.26.03-.59.11-.83.12zm-67.97-.4c.98-.27-.72 0 0 0zm.99-.09v.09c.07-.02.07-.05 0-.09zm4.05 0h.63a1.39 1.39 0 0 0-.63 0zm-8.49.03c.66 0-.51-.27 0 0zm9.98 1.38s0-.16 0 0zm78.05-.49c-.68-.42-3.32-.28-5.6-.06 1.06.01 4.84.63 5.6.06zm-61.89.55h.27a.31.31 0 0 0-.27 0zm-18.93-1.5a2.27 2.27 0 0 0-1.35.09h.88a2.4 2.4 0 0 0 .47-.09zM122 125.8h-1.22a6 6 0 0 0 1.22 0zm-82.37-1.32h.11c-.19-.07-.46-.08-.11 0zm83.99 1.32a4.33 4.33 0 0 0-1.57 0zm-60.81-1.29s-.13 0 0 0zm58.86.13a1.81 1.81 0 0 0-.87 0 .71.71 0 0 0 .38.12c.26 0 .41.07.49-.12zm-1.47.09c0-.17-.75 0-.87 0a1 1 0 0 0 .87 0zm-4.61.03c1.25 0-1.24-.24 0 0zm3.74-.03c-.72-.22-.27.16 0 0zm-75.07.91h-.05c.05-.03.05 0 .05 0zm33.58-1.55c-.3 0 .15.09 0 0zm40.25 1.91a.68.68 0 0 0-.38 0 .39.39 0 0 0 .38 0zm4.99-1.3c.15.09.13-.05 0 0zm-52.45 1.25a.3.3 0 0 0 .27 0 .31.31 0 0 0-.27 0zm-14.38-1.54zm1.25-.02c.15 0 .1-.06 0 0zm60.5.27c0 .13 0 0 0 0zm-46.83 1.29s.19.08 0 0zM111 126s.17 0 0 0zm-53.88-1.58c.26 0 0-.12 0 0zm-.6-.03c-.1 0-.15.08 0 0z"/></g></g></svg>