<svg xmlns="http://www.w3.org/2000/svg" viewBox="0 0 129.37 115.62"><defs><style>.cls-1{fill:#c29d4c}.cls-2{fill:none}</style></defs><title>category__restaurants</title><g id="Layer_2" data-name="Layer 2"><g id="Layer_1-2" data-name="Layer 1"><path class="cls-1" d="M72.39 72.24h.08s-.08 0-.08-.09-.09.04 0 .09zM45.56 39.61c.22-.21.49-.45.64-.6a2.35 2.35 0 0 0-.64.6zm33.22 32.87h1.8a9.68 9.68 0 0 0-1.8 0zM77 72.26c.69 0 1.15-.07 1.15-.16-.31.03-.72.13-1.15.16zm-25.58-35.4l-.36.11c.11.03.24.03.36-.11zm-5.99 3.02a.85.85 0 0 1 .13-.28c-.32.31-.56.53-.13.28zm3.24-2.03a7.62 7.62 0 0 0 1.26-.52l-1.07.38c-.06.04-.12.11-.19.14zm42.49 35.69h2.38a5 5 0 0 0-2.38 0z"/><path class="cls-1" d="M104.09 67.38c1.39-2.32-2.94-11.39-4.24-13.27.39.85.68 1.78 1 2.65-2.4-6.93-7.63-11.67-12.55-16.57 0 0 0-.09-.09-.12v.07c-3.3-3.28-9.71-5.93-14.27-6.52.94.23-1.18 0-1.39 0-1.26-.14-2.5-.46-3.76-.6a34.36 34.36 0 0 0-6.61-.18 44.16 44.16 0 0 0-10.06 2l.47-.27c-.39.13-.85.15-1.24.29 1.1-.38-1.25.34-1.47.41.13-.09.19-.19.3-.28-8.38 2.78-14.49 8.68-19.06 16a34 34 0 0 0-1.66 3 .52.52 0 0 1-.18.39.32.32 0 0 0 0-.05 36.45 36.45 0 0 0-2.45 6.71c-.49 1.9-2.18 12.9-1.64 13 13.57-.72 27.16 0 40.76 0a2.1 2.1 0 0 0-1.08-.14h10.38c.09 0 1 .06.94 0a9.2 9.2 0 0 0 1-.05l-.15.08c.49 0 .43-.2 1.18-.14l-.52.09c0 .24.81 0 .91 0a.11.11 0 0 1-.07 0 77.63 77.63 0 0 0 8.92 0c.15 0 .9.08 1-.08h.57a.66.66 0 0 1-.3-.16c4.26-1 9.43.76 13.6-.37a54.13 54.13 0 0 0-11-.49c.23 0 .36 0 .36-.06-.18-.63-6.85-.21-11.21-.08h.93a14.33 14.33 0 0 1-3.32.14h.08a4.23 4.23 0 0 1 .51-.08c-1.16 0-1.91 0-1.91-.19h.18c-2.47.07-8.16-.25-8.64-.25.5 0 1.1-.18 1.58-.18-1.76 0-15.53-.35-26.85-.57h.05-.06c-8.26-.16-15.21-.25-15.21-.09a42.7 42.7 0 0 1 2.12-12c.55-1.67 1.11-3.34 1.83-5 .62-1.4 2.67-3.64 2.82-4.92a1.12 1.12 0 0 0-.4.31c1-1.3 2.52-2.44 3.37-3.88l-.44.43c.27-.3.63-.72.86-.93C39 44 45.13 38 46.3 38.87c0 0 0 .07-.1.14a12.81 12.81 0 0 1 2.67-1.29 2.12 2.12 0 0 1 1.13-.55c0 .05 0 .11-.11.17l1.17-.34h-.07a.4.4 0 0 1 .47-.11c1.84-.56 3.52-1 4.08-1.09a36.17 36.17 0 0 1 11.71-.95 37.08 37.08 0 0 1 15.02 4.65 37.47 37.47 0 0 1 13.89 14.68 50.29 50.29 0 0 1 3.4 8.25c.7 2.16.83 4.52 1.64 6.63a22.67 22.67 0 0 0 1.33 3.56c.45.54 1.48-2.4 1.45-2.29.26-1.17-.39-2.76 0-3.71.02.24.08.51.11.76zm-21 5.82h.42a.49.49 0 0 1-.42 0zm4.58.51h.15a3.64 3.64 0 0 0 .56-.06 2.06 2.06 0 0 1-.72.06zm-4.2-.88h2.22zm-1.79.38c.08 0 .17 0 .25.09a.36.36 0 0 1-.41 0c.07-.05.07-.1.16-.1zm-.83 0v.14q-.17-.15 0-.2zm-1.83 0c0 .09.08.09 0 .14s-.11-.22-.02-.24zm-2.32-.46h.25a.61.61 0 0 1-.58 0 .78.78 0 0 0 .33-.1zm-9.87-.82l.08.09a.41.41 0 0 1-.5 0 1.85 1.85 0 0 1 .42-.19zm-19.91-.27q-.06.15-.17 0c.09-.06.09-.11.17-.11zm-.33 1.23s-.37.2 0 0zm-19.46-.15c-.37 0-.56-.9-.56-.74v-.08c.38-1.88.51-4.6.81-6.85-.12 1-.79 6.72-.35 7.15a1.46 1.46 0 0 0 .68.33h-.33a.37.37 0 0 1-.25.08zm.73-1.57s.1.3 0 .31 0-.33 0-.42zm.08 1.77c.08-.23 0 0 0 0zm5.3 0c-.12 0-.06-.18.17-.14-.1-.06-.1-.01-.18.03zm6.88-1.55h.17c.09 0-.81-.11-.17-.11zm-1.49.92q.17.1 0 .14zm-1 .55c-.09.06-.41 0 0 0zm-.91-.5c.08 0 .58 0 .58.18-.25.06-.37-.11-.58-.18a.36.36 0 0 1-.41 0c.16-.17.32-.12.41-.12zm-.5.46h.25c-.79.36-.52-.12-.25-.12zm-.41-.46h.17a.47.47 0 0 1-.41 0c.07-.08.15-.12.23-.12zm-.17.41v.14q-.17-.22 0-.26zm-.72.15h.14zm-.11-.61c0 .19-1.59.2-3.31.2a15.58 15.58 0 0 1 3.31-.32zm-7-1.26l.14-.06q-.09.01-.18-.06zm.42-4.75a.58.58 0 0 1 .12-.55 1.49 1.49 0 0 1-.15.43zm4.93-15.61c0 .21-.08.15 0 0zm17.22-13.55q-.34-.12.22-.32a.41.41 0 0 0 .17 0 .48.48 0 0 1-.39.32zM51 35q-.19 0 0-.13V35zm.83 1.6a5.68 5.68 0 0 1 1.87-.77c-.54.69-1.49.68-1.87.81zm3.9-1.31v.13q-.15-.01 0-.09zm1.15 0q-.34-.07.26-.33a1.05 1.05 0 0 1 .35.09 4.06 4.06 0 0 0-.61.29zm5.1-.76a3.21 3.21 0 0 1 .32-.06c.08 0 .16 0 .25.08a.58.58 0 0 1-.55.03zm2.58-.2a3.48 3.48 0 0 1 .64.26c-.31.03-.68.04-.64-.21zm1.13.19c-.11.07-.38 0 0 0zm.25-.14zm0 0zm12.67.8c-.89.15-1.52-.18-1.31-.6q1.64-.1 1.31.64zm.45 0c-.07.18-.09.09 0 0zm.81.47c.08 0 .17 0 .25.06s.06.08.13.11a.51.51 0 0 1-.38-.11zm1.6.58a.71.71 0 0 0 .25.07c-.11.28.04.39-.25-.01zm19.59 21.4a.54.54 0 0 1-.19-.56.38.38 0 0 1 .19.62zm.27.63q-.13-.26 0-.1s-.03.08 0 .16zm.18.39c.46-.15.94 2.24 1 2.48-.27-.24-.94-2.44-1-2.42zm1.21 3.4c-.09-.39-.27-.48-.13-.76.41.86.02.33.13.82zm.47 1.4a4.92 4.92 0 0 1-.34-1.43 9.09 9.09 0 0 1 .35 1.48zm.23 1.09q-.13-.11 0-.09z"/><path class="cls-1" d="M27.1 72.63h.08c-.04-.03-.06-.02-.08 0zm2.38-18.73c0 .08-.08.06-.11.14a1.24 1.24 0 0 0-.05.2l.16-.33zm18.45-15.55c0-.12 0-.12-.06-.13s-.07.12.06.13zm43.23 35.19c-.69 0-1.37 0-2 .06a6.23 6.23 0 0 0 2-.06zM50.23 34.92h.09zm.26-.04a.55.55 0 0 0-.2 0 .66.66 0 0 0 .2 0zM35.06 48.85c0-.09 0-.12-.11-.08s0 .09 0 .09.05-.04.11-.01zM27.2 72.6a.17.17 0 0 0-.12 0zm62.53-.82c-.17-.14-.33 0-.5 0h-.08c.17 0 .25 0 .42.1a.46.46 0 0 0 .25 0h.58c.08 0 .17 0 .17-.1v-.09a.5.5 0 0 0-.25 0 .46.46 0 0 1-.59.09zm-1.5.09h-1.24c.17 0 .25.14.41.14a7.77 7.77 0 0 1 .91-.09s0-.05-.08-.05zm-7.13 0a1.92 1.92 0 0 0-.41 0c.08.14.33 0 .58.1h.58l-.08-.1zm5.39.13h.5c-.17 0-.25-.14-.41-.18a1.36 1.36 0 0 1-.25 0c.08.05.08.18.16.18zM57.68 33.26h-.17l-.42.06-.09.08.75-.11c-.06.02-.07-.03-.07-.03zm-29.4 36.65s.1-.08.19-.07a1.49 1.49 0 0 1-.12-.33c0 .08-.05.16-.06.23a.18.18 0 0 0-.01.17zm56.22 3.88a.56.56 0 0 1 .25.09h.33a.38.38 0 0 1-.16 0 1.26 1.26 0 0 0-.42-.09zm.66-1.96c.08.09.08.14.08.14s.17 0 .17-.1 0 0-.08-.09a.39.39 0 0 0-.17.05zm.67.17a.37.37 0 0 0 .17 0h.25-.17a.45.45 0 0 0-.25 0zm6.8-.17c.08 0 .08.09.08.09a.23.23 0 0 0 .25 0l-.08-.09zM27.61 58.48a.4.4 0 0 0-.1.15v.26c0-.08.07-.06.1-.15a.52.52 0 0 0 0-.26zM71.06 72h.17c.09 0 0 0-.08-.09zM85 72s-.08 0-.08-.1h-.08a.39.39 0 0 0 .16.1zm-2.08-.08a.22.22 0 0 0 .17 0h-.08c-.09-.05-.17-.05-.09 0zM27.23 59.43l.07-.07v-.08l-.12.06c-.12.06.08.01.05.09zM74.3 73.84s.08 0 0 0zm.16 0h-.16a.18.18 0 0 0 .16 0zm-47.54-4.26s-.09 0-.09-.09v.16s.04 0 .09-.07zm37.73-44.91v.09a.62.62 0 0 0 0-.09zm-3.87 2.23h.09-.13zm1.88-2.79s.02.04 0 0zm2.25.63zm1.81-1.54zm-5.85 4.95h-.1.18s-.18 0 0 0-.04.01-.08 0zm-.13-.09h.09V28h-.14s.05 0 .05.06zm.16-.51h-.1.09s.05.02.01 0zm-.15.45h.18-.18s-.05 0 0 0zm6.43-4.17h.06-.06zm-3.66 1.69l.07.17v-.13zM59 27.49h-.1zm1.86.38h.09-.14zm-.15.02h.05zm.05.51h.09-.09s-.05-.01 0 0zm2.76-5.77zM65.19 25v-.09s.01.02 0 .09zm-.11 0zM61 26.87h.09zm-.13.97zm.03-.12h-.09zm2.57-5.08a.35.35 0 0 0 0-.09zm-4.24 3.89zm5.89-1.68l-.02.05v.04l.01-.04.01-.05z"/><path class="cls-1" d="M65.11 24.95v-.09s.02.05 0 .09zm.09-.07v.09zm-2.2-.72zM37.78 45.45c.62-.2-.26 0 0 0zm4.1-3.45c-.31.23.11.14 0 0zm-1.56 1.36c.15-.15.06-.19 0 0zm.48-.56c-.28.25.12.14 0 0zm.82-.64c-.14.11-.08.18 0 0zm4.1 10.33c-.11-.13-.12-.09 0 0zm7.11-9.17v-.06zm-.17.16c-.07-.09-.07 0 0 0zM38.75 61.29c0 .06 0 .12 0 0zm0 .78c-.12.17-.18.27 0 0zm4.62-10.17zm9.16-8.26c.01-.09-.01-.06 0 0zm-.09 0a.24.24 0 0 0-.11.17l.16-.14s-.02-.05-.05-.03z"/><path class="cls-1" d="M53.11 43.12a4 4 0 0 1-.56.5.49.49 0 0 1 0 .11.26.26 0 0 1 0-.09c.05.17-.19.91-.13.47 0 0-.07-.17 0-.33-.37.32-.65.59-.26.38-.33.18-1.11.79-1.23.87s-.53 1.11-1 .65c0 0-2.87 2.79-2.84 2.87.08.24-.7.75-.56.6h-.21c-.01 0-.36-.44-.15.09-.95 0-2 1.46-2.65 2.6q.05.08 0 0c-.35.6-.6 1.1-.67 1.25-.53 1.07-2.08 4.62-3.19 5.36a.13.13 0 0 0 .16.08v-.09l.12.06c-.08.19-.74 1.65-.66 1.58A.15.15 0 0 0 39 60c.26.37-.34 1.55-.39 2a.11.11 0 0 0 .12 0 3 3 0 0 0 .23-.45c0 .37-.11 1.74-.28 1.63a.46.46 0 0 0 .25.09s.75-2.08.86-2.38c0 0-.24 1.16-.07 1.21s.67-1.51.74-1.72c0-.06.21.22.25.24a8.2 8.2 0 0 1 .34-.79l.14-.32s.08.29.09.25c.67-1.65 1.76-2.57 2.7-4.2.41-.71 1.08-2.56 1.5-3.13 0 0 1.22-1.64 1.35-1.54s0 .11 0 .16.24.16.3.29c-.43-.15 6.71-4.88 6.72-4.83-.08-.51 1.34-4.02-.74-3.39zm-13.4 15.35c.07.03.04.01 0 0zm-.31 2.47v-.05c0 .01.07.11.01.05zm0-.22c0-.07.16 0 0 0zm.17-.34c.15.06.13.09 0 0zm.67-.12s0 .06-.07.05-.04-.08.06-.04zm0 .24s.13.17.1.25c-.15.32-.26.1-.14-.25zM43 52.76c-.13-.09-.11-.12 0 0zm0 1.88s0-.01 0 0zm-.28 1zm-.31-.46s.31.24 0 0zm.3.67c-.39-.12 0 0 0 0zm-1.33 3.56c0-.1.15 0 0 0zm.18-2.75c.06 0 .13.1 0 0zm.65-.95c-.22-.16 0 0 0 0zm.07-.13c-.37-.33 0-.08 0 0zm.27.47q.17.1-.02.02zm.1 1.19c.05 0 .12.1 0 0zm.06-1.5q-.07-.08 0 0s.04.04-.02.02zm.15-.08a.3.3 0 0 1-.13-.13c.45.16.28-1.13.28-1.11s.57-.55.73-.39a6.65 6.65 0 0 1-.9 1.65zm1.23-.46s0-.15.06 0-.05.04-.08.02zm0-.15q-.11-.09.08 0zm.32-.6s.11-.08.06 0zm.59-2.09s.11.13 0 0zm1.11-3.11q.19.13.03 0zm1.14 1.52q0 .08-.1 0c.1-.03.29-.17.13 0zm.1-.1c-.25-.41 0 0 0 0zm.13 0c-.11-.17 0-.12 0 0zm.07-.07c.09-.63.16 0 0 0zm1.14-1.41l-.06-.06zm-.72.92c-.2-.33 0 0 0 0zm.23-.46zm.19-.05c.09-.08.13.09 0 0zm.27-.19c-.27-.31.32.31 0 0zm.11 0c.07-.06.1.12 0 0zm0-2.33c-.18.14.17-.64 0 0zm.32-.52s.28.27 0 0zm3-2.27c-.08-.44.21.23 0 0zM40.47 61.94s-.11-.31 0 0z"/><path class="cls-1" d="M40.77 61.1c-.28 0 0 .08 0 0zm-.18.63c-.39-.08 0 .11 0 0zm6.22-13.08c-.1.09 0 .07 0 0zm-2.24 6.44s.41.14 0 0zm-5.76 5.78s-.19 0 0 .05-.01-.04 0-.05zm1.83.72c.12 0-.36-.1 0 0zm-.16.03q-.09 0 0 0zm-.23.87c.26.08-.07 0 0 0zM43 52.39q-.09 0 0 0zm3.54-.8l.06.05zm-6.03 9.94c.24.08 0 0 0 0zm.22-.19c-.13-.09-.06 0 0 0zm5.7-9.63s.19.16 0 0zm17.04-43.8h-.08s.02.01.08 0zm2.02 1.21zm-2.1-1.55zM64 2.23zm.48 3.37zM63.7 1h.1-.18s.18 0 0 0zm.1 0h-.1v.07h.14s-.04 0-.04-.07zm-.05.62h.1-.15s0-.02.05 0zm.05-.47h-.18.18s.04 0 0 0zm1.32 8.53zm-2.29-3.82h-.18.14zm2.8-4.53h.09-.09zm-2.02-.06zm.23-.05zM63.75.7h-.09.09s.05.01 0 0zm1.83 5.96zm-2.24 1.66zm-.09-.16zm.64-5.84zm-.09-1.03zm-.05.16zm1.92 5.16zm-.04-4.53zm-2.29 6.1zm-.05.02zm.1.09zm.91-2.43zM91.31 20zM91 17.34l.1.09zm-.22.33v-.07s-.05.03 0 .07zm4.78-4.21l-.07-.06.1.09-.03-.03zm.71-1.22h.09l-.06-.08-.06-.06s.11.15 0 0 0 0 0 .06zm.04.23v-.12l-.07-.06v.05c0 .05.06.14.07.13zm-.38.34l-.07-.06v.06c0 .06.02-.02.07 0zm.29-.31v-.06l-.16-.1zm-5.61 7.75zm1.29-4.67l-.14-.12.08.11zm5.53-1.76h.08v-.05zm-1.31-1.28l-.06-.08-.06-.05zm.03-.04s-.03-.03 0 0zm.38-.5h-.07l.07.06s.03.02 0-.06zm-3.24 6.17s-.03-.04 0 0zm-2.95-.3l.06.07s-.03-.03-.06-.07zm.11-.11zm4.93-4.32l-.07-.06zm.73-.89l-.11-.06zm-.11.09s-.09-.02 0 0zm-2.66 5.47l.07.06zm3.51-3.62s.01 0 0 0zm-6.38 3.32zm-.05-.02l.06.07s-.03-.04-.06-.07zm.01.13l-.06-.07zm2.52-1.32l-.07-.06s.12.06.07.06zm-58.04.59zm2.39-.41h.08s-.04-.05-.08 0zm3.98 4.97l.06-.07a.44.44 0 0 0-.1.09zm-3.72-4.69l.06-.07-.1.09zm4.87 5.64l.08-.06.06-.06s-.15.11 0 0 0 0-.06 0v.09zm-.12-.27s-.09.11-.08.12.1 0 .12 0l.06-.07zm-.4-.28l.06-.07h-.06c-.06 0 .02.03 0 .07zm.36.31l.11-.15-.12.14s-.03.04.01.01zm-7.55-5.93zm4.76 1.34l-.12.07zm1.27 5.79h.05s-.02-.04-.05 0zm1.5-1.36l.06-.07-.1.1zm-.04.1s.04-.03 0 0zm.5.32l-.06.07zm-6.02-3.46s.04-.03 0 0zm.44-2.93l-.07.06zm.14.09zm4.06 5.12l.06-.07zm.85.76l.06-.07zm-.06-.13l-.07.06zm-5.38-2.86l-.06.07zM40.2 23zm-3.05-6.5s0-.01 0 0zm.06-.08l-.07.06zm-.11-.05l.07-.06zm32.99 11.26c0-.09-.42-1-.41-1s-.81-.46-.31-.82c.13-.06-.39-.53-1-1-.57-.47-1.17-.92-1.17-.92s-.5-.13-.64-.2a.89.89 0 0 0 .18-.48s-.28.26-.18.16a1.09 1.09 0 0 0-.21-.27c0-.07 0 0 0 0a3.07 3.07 0 0 0-2.35-.49 4.68 4.68 0 0 1-.74 0c-1.64-.37-2.62 2.52-3.89 3 0 .08.14 0 .21 0l.1.05c-.08.16-.27.15-.37.13.41 0-.09.78-.23.76.17.16 0 0 0 .11s.24.07.16.14a.19.19 0 0 0-.17-.09c.15.14.22.67 0 .68-.06.31.09.3 0 .79.13 0 .2-.19.21-.31.1.28.35 1.11.11 1.07a.69.69 0 0 0 .26 0 15.24 15.24 0 0 0 .35-1.46l.12.08c0 .18-.27.58.14.68a3.8 3.8 0 0 0 .26-.9c-.05 0-.46-.21-.16-.13a.65.65 0 0 1 .16.12v-.16s.25.15.29.16-.14-.4-.19-.53c0 0 .52-.25.45-.1-.19.39 1.06-.71.92-.68a8.42 8.42 0 0 0 1.29-.8s0 .06 0 0l.28-.18v-.05.05a2.43 2.43 0 0 1 1-.47c.08.38.22.16.33.23a2 2 0 0 0 .23-.31c.06.1.35.39.42.27a2.4 2.4 0 0 0-.24.55c.1-.66 1.36 1.57 1.41 1.71.11.37-.16.76.18 1.12.78.83 3.51 1.38 3.75.42 0-.18.37.1.36-.06 0-.36-1-1.5-.91-.87zm-3.44-4.15q-.08.19 0 0zm-7.06 3.82c0 .05-.16 0 0 0zm.63-.23q-.1-.08.06 0s-.03.02-.06 0zm2.46-2.92h-.01zm-.63.15v-.05zm-.06 0l-.07-.1zm-.24.18c-.08-.08-.11-.19 0 0zm.14-.12c.09.17-.2-.23 0 0zm.12 0zm.13 1.34zm.06-1c.23.32-.25-.21 0 0zm.09-.07zm0 .1zm.09-.15c.33 0 .41-.4.36-.6.08.05.65.25.63.25-.58.23-.8.54-1 .4zm1-1.74c0-.12 0-.22 0 0zm1.1 1.26s0 .18 0 0zm1.38.79c-.13.24-.15.19 0 0zm-.24.08c-.08.28 0 .07 0 0zm.13.22c.1-.16.08-.09 0 0zm2.85-.11c-.46.32.07-.4 0 0zm0 .18q-.09 0 0 0t.02.04zm0-.18c-.25.17-.05 0 0 0zm.14.19s-.3.24 0 0zM70 27.68c.13.16-.08 0 0 0zm.05.09c.09 0 0 0 0 0zm.19 0c0 .42 0 0 0 0zm.26.27c-.32 0 0 0 0 0zm0 0c0 .17 0 .18 0 0zM63.58 25s.02.09 0 0zm-3.09 2.33s0 .01 0 0zM64 22.58s.06 0 0 0zm-5 5.17c0 .14 0 0 0 0zm4.29-21.62s-.05 0 0 0h.08zm2.43-4.27zm-.18-.76c0-.15 0 .07 0 0z"/><path class="cls-1" d="M66.22 14.31c0-.14.36.09.36 0 0-.29-.87-1.21-.87-.75a7.42 7.42 0 0 0-.15-.84c0 .06-.3-.37-.36-.4.26 0 .15-.26.37-.29-.1 0-.23-2-.67-2.22 0-.07.17-.62.17-.5s.14-.1.14-.09.59 0 0-.1a1.36 1.36 0 0 0 .13-.23c.08 0 0 0 0 0 .3-.66 0-1.37.39-1.9.05-.07-.35-.19-.13-.48 0 0 0-1.63-.31-1.68.44 0 .18-1.83.46-2.06 0-.08-.14 0-.2 0h-.12c0-.19.14-.15.28-.17-.37 0-.21-.63 0-.65 0 0-.17 0-.13-.08a.13.13 0 0 0 .09 0c-.06 0-.19 0-.15-.07a.22.22 0 0 0 .19 0c-.27-.11-.22-.86-.28-1.15s-.37.35-.18.34a.17.17 0 0 1-.17 0S64.83 0 65 0a.78.78 0 0 0-.26 0 6.55 6.55 0 0 0-.09 1.47c0-.07-.16-.64-.37-.67s-.09 1-.09 1.08-.28-.08-.32-.08.23.36.31.45-.36.43-.36.27c0 0-.18-.17-.18-.12a8.45 8.45 0 0 1-.27 1.33 2.69 2.69 0 0 0-.07 2.41 5.1 5.1 0 0 1 .24 1.33s-.17.34-.15.44c.55.41.19.73-.4.7-.08 0 .17 4.1-.64 4.26a2.82 2.82 0 0 0 .44 1c1.15 1.19 2.94.31 3.43.44zm-.14-.39h-.09c.01-.03.1-.07.1.01zm-.41-.28c.1 0 0 0 0 0zm.18 0c0 .37 0-.06 0 0zm-.23-.13c.46.06-.32 0 0 0zm-.46-2.3c.1 0 .25 0 0 0zm0 .07q-.08.05.01.05zm.18.14c-.29 0-.22-.06 0 0zM65.58 7q.09 0 0 0zm-.92-2s-.16 0 0 0zm-.14 0h.09zm.14 3.34c.09 0 .26 0 0 0zM65 1.41q.09 0 0 0zm0 .33zm-.2 3.19c-.21 0-.44-.06 0 0zm-.23-.12c.27 0 0 0 0 0zm.14-.66zm-.18-2.26c-.19.06 0 .04 0 0zm0 3.7zm0-3.8s-.18-.05-.18-.12.09-.12.09.13zM64.25 5h-.09zm-.14 0q-.09 0 0 0t.01 0zm0-.09c.4 0 0 0 0 0zm0-.15zM64 5c.15 0 .24.54.5.67h-.18c.38.08-.28.43-.28.47A5.85 5.85 0 0 1 64 5zm0 2.35zm-.91-2.75s.02.07.02.03zm.09 1zm.32 4c0 .11-.66-.17 0 0zm-.09.39c-.28 0 0-.06 0 0zm-.09.17c.4 0-.44 0 0 0zm0 .07c0 .05-.16 0 0 0zm.14-1.3s0 .17 0 0zm.14.15c-.27 0-.24-.06 0 0zm-.23 0c0 .06-.16 0 0 0zm-.23.14c.34 0 .6.05 0 0zm29.14 6.41v.05s.01-.06 0-.05z"/><path class="cls-1" d="M97.79 12.18a8.51 8.51 0 0 0-1.19 1.12c.06-.06.38-.63.24-.8s-.82.73-.9.81-.14-.26-.17-.28a1.36 1.36 0 0 0-.12.58s-.58.09-.47 0 0-.26 0-.22a8.41 8.41 0 0 1-1.22.89 2.75 2.75 0 0 0-1.61 1.4s0 .07 0 0c0 .06 0 0 0 0a9.38 9.38 0 0 1-1.11 1.67s-.39.16-.45.25-.34.9-.44.75-.13-.12-.39-.46c.33.17-5.55 3.67-4.14 5 .28.27 2.31 2.17 2.09 1.79.1-.11.19.32.29.23s.31-1.58-.05-1.2a8.88 8.88 0 0 0 .54-.78s.07-.51 0-.56c.2.17.31-.11.49 0-.09-.09 1.45-1.82 1.22-2.28a.78.78 0 0 1 .19.14c-.13-.23.4-.48.33-.41h.17s.39.44.11 0a1.35 1.35 0 0 0 .28-.07c-.06 0 0 0 0 0A4 4 0 0 0 93 18.44q0-.08 0 0c.18-.22.34-.39.46-.42.77-.18 1.7-2.94 3-2.92.06-.06-.12-.08-.18-.1l-.08-.08c.14-.15.21 0 .33.05-.23-.3.33-.65.46-.55 0-.21 0 0 .07-.07s-.17-.18-.08-.19a.2.2 0 0 0 .11.16c-.07-.17.52-1 .66-1.16-.11-.08-.27 0-.34.1.09-.27.42-1.07.57-.88a.7.7 0 0 0-.19-.2zM88 23.73c.29.37-.27-.19 0 0zm-.06.46c.14.12.11.2 0 0zm1-4.77c.29.28-.33-.29 0 0zm-.09 0s-.11-.11 0 0zm.27-.15c-.06.06-.13-.09 0 0zm.24-.39c.25.33 0 0 0 0zm0 2.7q.05.08 0 0zm.05-.05c.08.07.15.19 0 0zm.09 0c-.4-.38.38 0 0 0zm.11-3c0 .57-.15 0 0 0zm.12 0s-.13-.09 0 0zm0 0c.29.38 0 0 0 0zm.07-.07h.08c.08 0-.14.12-.02-.01zm1.22 1.44q-.1-.14.06-.01zm.51-2.26s-.11-.14 0 0zM93.85 16zm-.16-1.36s-.11-.14 0 0zm0 .93q-.16-.15 0-.02zm-.15.09c.33.24 0 0 0 0zm-.46-.85s-.07 0 0 0zm-.18 2zm.34 1.1c.08.07.15.19 0 0zm0-1.42l.02-.03zm0 .15c-.07 0-.49.22-.62.05-.19-.34.89-.63.67-1 0-.08.3.18.21.17-.32-.24-.25.77-.25.75zm.28-.9q.05.08 0 0t.01-.02zm.24.54s-.24-.31 0 0zm.09-.09c-.12-.17 0 0 0 0zm0-.08zM94 16s-.11-.1 0 0zm.54-.5s-.11-.14 0 0zm.4-1.95c.17.21 0 0 0 0zm1.16 0s-.02.02.03-.02zm.05-.12s-.09-.17 0-.22.22 0 .03.19zm.51.39c-.08-.08-.14-.18 0 0zm.2-.14s-.13-.09 0 0zm0-.13q-.05-.08 0 0t.03-.03zM92 16.11s0 .01 0 0zm-.5 3.74h-.06zm.73-4.16zm.77 2.75zm-50.83 4.64c.11-.08-.69-.85-.77-.93s.26-.13.29-.15a1.42 1.42 0 0 0-.57-.15s-.06-.58.05-.47.26 0 .22 0a8.26 8.26 0 0 1-.83-1.26 2.76 2.76 0 0 0-1.31-1.67s-.08 0 0 0c-.05.05-.11.1 0 0l-.4-.27a6.64 6.64 0 0 1-1.2-.9s-.14-.4-.23-.46-.88-.38-.73-.48.13-.13.48-.37c-.18.31-2.21-2.73-2.35-2.93-.43-.59-.4-1.13-1.16-1.35-2.04-.69-2.66 1.5-3.28 1.81 0 0-.36.37-.19.33.18.19 1.5.33 1.15-.05a9.25 9.25 0 0 0 .75.57s.51.1.56.07c-.18.19.09.31 0 .49.09-.08 1.75 1.54 2.21 1.33a.78.78 0 0 1-.14.18c.24-.12.47.43.39.35s0 .17 0 .17-.46.37 0 .11a1.36 1.36 0 0 0 .07.3c.3 1 1.6 1.72 1.67 2.09.14.77 2.85 1.84 2.77 3.13.06.06.09-.11.11-.17l.09-.08c.14.15 0 .21-.07.33.31-.22.63.36.53.49.22 0 0 0 .07.07s.19-.16.19-.07a.2.2 0 0 0-.16.1c.17-.06 1 .57 1.13.72.08-.1 0-.28-.09-.35.26.11 1.05.48.86.61a.7.7 0 0 0 .2-.17 8.57 8.57 0 0 0-1.06-1.25c.03.06.58.41.75.28zm-11.45-9.43s-.08.1 0 0zm.57-.07c0 .05-1 .37 0 0zm0 .1c.09-.09 0 0 0 0zm.18-.07c-.15.2-.21.15 0 0zm2 1.54q.08 0 0 0t-.05.01zm.08.08c-.08.07-.2.14 0 0zm.17 0c.13.14-.54 0 0 0zm.05.19c-.08.07-.2.14 0 0zm2.06-.5c.06.06-.1.12 0 0zm-.12-.26s-.12.11 0 0zM35.08 17q.14-.18 0 0zm.61-2.22s-.28.42 0 0zm.07.47zm0 0zm.94.67zm-.59-.42l-.06.07zm.06.19c.73-.16.07.07 0 0zm.12.26c.22-.17.22-.11 0 0zm.15-.18s.1-.13 0 0zm.1.11v.08c0 .08-.08-.26.03-.14zm.46 3.35c-.08.07-.2.14 0 0zm1-.23s.13-.12 0 0zm0-.3c.44-.48.79.9 1.15.68.07 0-.18.29-.18.2.27-.32-.74-.3-.73-.3s.02-.28-.24-.57zm.74 1.3zm-.47-.43zm.3.31s.32-.22 0 0zm.15 0c0 .06-.12.11 0 0zm-.09.23c.14-.16.36-.26 0 0zm.2 0s.11-.1 0 0zm.25-.47s.06 0 0 0zm.17.17q.18-.18 0 0zm.12.79c-.13.13 0 0 0 0zm.7-1.39q-.09.05 0 0t0 .01zm1 3.86s.1-.13 0 0zM41 23a.31.31 0 0 1 .1-.09zm.21-.71v.07c0 .07-.12.02-.04-.06zm0 .81q-.08 0 0 0s-.04 0-.03.01zm.18-.68l-.05-.05zm-2.13-4.05zm-.46-.28v-.07.06zm.41.23z"/><path class="cls-1" d="M38.34 18.94l-.07.06s.05 0 .07-.06z"/><path class="cls-2" d="M60.56 87.29a.32.32 0 0 0-.34 0 .17.17 0 0 1 .14 0 .35.35 0 0 1 .2 0zm1.22.04c-.1-.28-.3-.2 0 0zm24.01-.55c.33-.07 0 0 0 0zm-26.66.51s-1.22-.38-1.22 0a1 1 0 0 0 1.22 0zm25.98-.37q.51 0 .07-.23-.51.13-.07.23zm-40.67 2.2c.07-.45-.19-.06 0 0zm3.67.09q-.33-.41-.61-.18a.47.47 0 0 0 .48.23c.02 0 .02-.05.13-.05zm.27.05c.29 0 .13-.11 0 0zm.34-.37q-.14 0 0 .14c.07-.03 0-.09 0-.14zM35.09 80h.07zm39.42-2.31h-.23a.16.16 0 0 1-.12 0zm-12.9-.05zm-35.53 2.98c0 .16 0 0 0 0zm62.16 5.94c.29 0-2-.32-2 .18.03.17 2.04-.19 2-.18zm.88-.1c-.13 0-.84-.3-.54.09a1.23 1.23 0 0 1 .54-.09zm.68-.09a.31.31 0 0 0 .47 0c0-.09-1 0-1.16 0 .26.1.38 0 .69 0z"/><path class="cls-2" d="M100 81.36c.14-.27.79-1.45.32-1.33-1.22 0-3.08-.27-4.1.18q-.12-.19.19-.19c-.48-.08-.73.13-1.23.12h-.48c-.88 0-2.47.09-2.05-.1a79 79 0 0 0-10.63.06 3.18 3.18 0 0 1 .63.15c-4.32 0-8.67-.33-13-.16h-1.11a.1.1 0 0 1-.07 0c-4.38.1-8.86-.18-13.49-.09-4.79.09-12.25-.45-17 0a9.22 9.22 0 0 0-3 .06.16.16 0 0 0 .11 0 .34.34 0 0 1-.34 0A.33.33 0 0 0 35 80a9 9 0 0 1-1.15.07c-1.5-.07-3 .09-4.49.09.37 0 .78.14 1.16.14-.44.19-1.27 0-1.62.27s2.41 5.07 2.73 5.4c1.19 1.24 2.23.93 4.15 1h-.08a3 3 0 0 1-.31.16c.18 0 2.17.09 1.23.09.33 0 .7.14 1 .14l-.38.1c2.38 0 4.78.07 7 0 1.44-.06 2.83 0 4.28 0s5.71.6 6.8-.11a.35.35 0 0 0-.27-.18c3.53-.48 9.13-.8 12.63-.15 0-.15 0 0 .06 0 5.47 1 11.13-.23 16.76-.23-.74 0-1.5-.14-2.24-.14 1.49-.33 9.95-1.66 11-.6h-.61c.38.26.46.1.81 0 1.62.55 2.71.43 3.58 1.42a10.69 10.69 0 0 0 1.62-2.27 23.51 23.51 0 0 1 2.13-4.58 6.26 6.26 0 0 0 .19-.68c-.47-.01-.4 1.21-.98 1.42zm-61-1.2a.27.27 0 0 1-.14 0 .34.34 0 0 1 .2 0H39zm.61 0c-.07 0-.07 0-.07-.09h.14c-.1.09-.1.09-.1.14zm1.87 7.13h.59zm27.48-7.13v-.09s-.04.09-.04.14zm21.83-.09h.07zm7.32.09a.41.41 0 0 0-.2-.09.85.85 0 0 1 .34 0 .27.27 0 0 0 .13 0c-.1.09-.24.14-.31.14zm1.08 0s-.07-.09-.1-.09h.25c.07 0-.15.14-.19.14zm1.99-.46c.16-.25-.56 0 0 0z"/><path class="cls-2" d="M66.6 80h-.11a.11.11 0 0 0 .18 0s-.03.07-.07 0zm34.08 0a.72.72 0 0 1-.29.06q.23.06.29-.06zm-29.02-2.22h-.11c-.32-.05.05 0 .11 0zm19.9.37c-.22 0-.16.15 0 0zM102 79.73c.11-.23-.59 0 0 0zm-3.69-.62h-.07c.64 0 3.77.42 4.09-.19-.62.08-3.44-.18-4.02.19zM38 89.26c.74-.8-.85-.28-1.43-.09a3.31 3.31 0 0 0 1.43.09zm11.94-11.6h.05zm-9.86 11.28q-.14 0 0 .14zm-5.03.06h-1.29c.14.07 1.29.27 1.29 0zm1.36-1.8q-.14 0 0 .14c.07-.1 0-.1 0-.14zm4.97 1.92q.45 0-.07-.18c-.98.33.03.19.07.18zm-12.17-9.06c-.55.19.27.18 0 0zm-.39.1c-.14.06 0 0 0 0z"/><path class="cls-1" d="M93.95 78.51v-.09a.1.1 0 0 0 0 .14v-.05zm-19.65-.87h.08zm-12.82-.04h.08c-.01.03-.02 0-.08 0zm18.76 0zm2.88.27c-.07 0-.07 0-.06.06a.1.1 0 0 0 .06-.06zM64 77.55s-.19.13 0 0zm17.54 0s-.09.11 0 0zm19.4 3.07a23.51 23.51 0 0 0-2.13 4.58 27.25 27.25 0 0 0 2.13-4.58zM31 89l-.31-.13c.12.13.22.23.31.13zm-1.19-1.29c-.61.37.17.86.89 1.2-.33-.38-.7-1.3-.89-1.2z"/><path class="cls-1" d="M102.59 78.81c-.58 0-6.77-.18-6.77-.2a1.31 1.31 0 0 0 .38-.11 19.33 19.33 0 0 1-3.63 0c.35-.1-.23-.15-.33-.15.18 0 .54-.18.67-.18-3.28 0-6.53-.1-9.79-.21-2.89-.1-5.78-.21-8.69-.28h.13-.35a.16.16 0 0 0 .12 0c-2.32-.06-4.66-.09-7-.06h-5.67c-7.9 0-15.8-.08-23.57-.49-1.47-.08-16.47-.46-15 2.37-.85.82 2.23 1.35 2.25 1.37a.29.29 0 0 1-.32 0c.13.26 1.82.28 2.16.55a6.44 6.44 0 0 1 1 1.8c.55 1.08 3 4.5 3.06 5.65A.24.24 0 0 1 31 89c.37.15.66.25.63.24 1.53.44 4 .06 5.53.06 4.23 0 8.42-.24 12.65 0 4.41.2 8.77.1 13.2.32 5.72.29 11.56.6 17.28.41 2.33-.08 4.71-.19 7-.33a36.34 36.34 0 0 0 7.41-.7 21 21 0 0 0 2.84-1.1 10.75 10.75 0 0 0 1.27-2.68 10.69 10.69 0 0 1-1.62 2.27c-.87-1-2-.87-3.58-1.42-.35.1-.44.26-.81 0h.61c-1.07-1.07-9.52.27-11 .6.75 0 1.5.14 2.24.14C79 86.74 73.35 88 67.88 87c0 0-.1-.16-.06 0-3.5-.66-9.11-.33-12.63.15a.35.35 0 0 1 .27.18c-1.09.72-5.25.1-6.8.11s-2.84 0-4.28 0c-2.2.09-4.6 0-7 0l.38-.1c-.32 0-.69-.14-1-.14.94 0-1-.09-1.23-.09a3 3 0 0 0 .31-.16c-1.92 0-3 .27-4.15-1-.32-.33-3.11-5.14-2.73-5.4s1.18-.09 1.62-.27c-.38 0-.79-.14-1.16-.14 1.46 0 3-.16 4.49-.09A9 9 0 0 0 35 80a9.22 9.22 0 0 1 3-.06c4.73-.41 12.19.13 17 0 4.63-.09 9.11.19 13.49.09a.1.1 0 0 0 .07 0h1.11c4.31-.17 8.67.16 13 .16a3.18 3.18 0 0 0-.63-.15A79 79 0 0 1 92.7 80c-.42.2 1.17.13 2.05.1h.48c.5 0 .75-.2 1.23-.12q-.31 0-.19.19c1-.45 2.88-.14 4.1-.18.47-.12-.18 1.06-.32 1.33.57-.21.5-1.42 1.11-1.41a6.26 6.26 0 0 1-.19.68 1.49 1.49 0 0 1 .93-.71s-.28.39-.08.34c.4-.17.39-.37 1.09-.37q-.24-.38-.81-.15c.5-.95 3.8.14 4.57-.35-.67-.14-4.31-.18-4.08-.54zm-76.51 1.81s0 .16 0 0zm64.2 5.71a.31.31 0 0 1-.47 0c-.31 0-.43.09-.68 0 .12 0 1.15-.09 1.15 0zm-1.16.14a1.23 1.23 0 0 0-.54.09c-.3-.4.42-.1.54-.1zm-.88.09s-2 .35-2 .18c.03-.5 2.29-.18 2-.18zm-2.45.23s.33-.07 0 0zm-.61-.09q.44.18-.07.23t.07-.24zm-23.4.64c-.3-.2-.1-.28 0 0zm-1.23 0a.35.35 0 0 0-.2 0 .17.17 0 0 0-.14 0 .32.32 0 0 1 .35-.05zm-1.43 0a1 1 0 0 1-1.22 0c0-.43 1.26-.09 1.23-.05zm-10.41 1.6s.07.09 0 .14-.08-.16.01-.19zm-.34.36c.13-.11.29 0 0 0zm-.27 0h-.14a.47.47 0 0 1-.46-.3q.28-.19.61.21zm-3.67-.09c-.19-.06.07-.45 0 0zm-3.13-.18q.52.15.07.18s-1.04.06-.06-.27zm-1.22 0v.14q-.13-.17 0-.23zm-2.08.23a3.31 3.31 0 0 1-1.43-.09c.56-.17 2.15-.72 1.43.09zm-1.59-2.06s.07 0 0 .14q-.14-.1 0-.14zM35.05 89c0 .25-1.15 0-1.29 0zm-6.23-8.87s-.14.06 0 0zm.4-.1c.27.18-.55.19 0 0zm20.72-2.4h.05c.18.01.72.02-.05.03zm16.56 2.44h.18a.11.11 0 0 1-.18 0zm5.06-2.34zm20 .41c-.16.15-.22 0 0 0zm8.83 1.86a.72.72 0 0 0 .29-.06q-.06.18-.29.06zm.79-.32c-.56 0 .16-.25 0 0zm.78 0c-.59 0 .11-.23 0 0zm-3.72-.58h.07c.59-.37 3.4-.14 4-.14-.31.62-3.43.2-4.07.2z"/><path class="cls-1" d="M96.19 78.5c.11 0 .19 0 .19-.08zm-5.44 1.62h.07s-.07-.02-.07 0zm-55.52-.05a.16.16 0 0 1-.11 0H35a.33.33 0 0 1-.16 0 .34.34 0 0 0 .39 0zm62.45-1.74h.21a.18.18 0 0 0 0-.1h-.29a.37.37 0 0 0-.18 0c.04.15.15.05.26.1zm-24.4-1.01a1.44 1.44 0 0 1 0-.18.61.61 0 0 1-.14.14h.1l.04.04zm25.94 2.79h-.18c-.04 0 .07 0 .1.09s.1 0 .14 0-.06-.09-.06-.09zm.39-1.83a.1.1 0 0 0 .07 0h.5a.14.14 0 0 0 .1.06l.18-.05a.33.33 0 0 0 .19.05l.58-.06h.47c.05 0 .1-.1 0-.1h-.09a.11.11 0 0 0-.11 0 .37.37 0 0 1-.09.09h-.09a.27.27 0 0 1-.07-.09c-.07-.14-.14 0-.21 0h-.87l-.18-.09a2.07 2.07 0 0 1-.3 0 .15.15 0 0 1 .07.1zm3.02-.04a.16.16 0 0 0 0-.09h-.11a.15.15 0 0 1 0 .09s.08.04.11 0zm-9.24.04h.07c.07 0-.04.05-.07 0zm5.05-.08a.42.42 0 0 1 0 .09c.07 0 .14 0 .14-.1s0 0-.07-.09a.28.28 0 0 0-.14 0s-.07 0 0 .09.05.04.07.01zm-29.55 1.91v.09c0 .09 0 0 0 0zM35.87 87h.08zm67.36-8.67h.15l-.22.41c0 .07 0 .12.07.08l.14-.07a1.14 1.14 0 0 0 .2-.29c0-.06-.08-.11 0-.26a.09.09 0 0 1-.09-.1c0-.14-.39 0-.63 0h-.15c.12 0 .21 0 .32.1s.12.13.21.13zm-8.01 0h.48l-.07-.1h-.54a1.31 1.31 0 0 0-.34 0c.06.15.25.05.47.1zM42 87.29h-.55.61c-.06.04-.06 0-.06 0zm6-9.97s-.07-.1-.07-.18a1.16 1.16 0 0 1-.27.14h.2a.13.13 0 0 0 .14.04zm49.87 2.79a.41.41 0 0 1 .2.09h.27a.27.27 0 0 1-.13 0 .85.85 0 0 0-.34-.09zm1.31-1.78h.28a.12.12 0 0 1-.07 0 .1.1 0 0 0 0-.08v-.09c0-.09-.07 0-.07 0a.51.51 0 0 1 0 .11.11.11 0 0 0-.07 0h-.05a.42.42 0 0 0-.18 0 .39.39 0 0 0 .16.06zm2.82 2.82c.05 0 .14-.08.14-.08l.13-.25c-.09.09-.15.09-.15.09s-.12.16-.12.24zm-63.17-1.04a.27.27 0 0 0 .14 0h.06a.34.34 0 0 0-.2 0zm-10.59 4.45v.08h.11c.04 0-.04-.04-.11-.08zm-.8-1.42v.08h.07c0-.04 0-.04-.07-.08zm70.77-4.95h-.07a.28.28 0 0 0 .14 0s-.07.05-.07 0zm-1.5 0h-.07c-.07 0-.14 0-.07.09a.16.16 0 0 0 .14-.09zm-57.2 1.92l.07.09c.07.09 0 0 .07 0h-.07zm-11.82 3.21c0-.06-.07 0-.07 0v.08h.07s.03-.02 0-.08zm.01.22v.08h.11c.04 0-.04-.04-.11-.08zm.41.78c0 .06 0 .06.11.1v-.08a.13.13 0 0 0-.11-.02zm31.72 28.97l.17-.05h-.4a.41.41 0 0 1 .23.05zm7.65 1.4h.27a.31.31 0 0 0-.27 0zm4.52-.03s0-.16 0 0zm-20.68-.03s0-.16 0 0z"/><path class="cls-1" d="M123.73 114.08h-7.27c.34 0 6-.1 6-.21-.17-.58-9.76.25-9.76-.15-1.64 0-5.2-.18-5.57-.18.33 0 .72-.12 1-.12-8.15 0-16.15-.43-24.32-.4-3.65 0-7.25.05-10.91.05-2 0-4 0-6 .09-.68 0-3.56.17-3.58.19a16.54 16.54 0 0 0-3.4-.11c.59 0-1.11.19-1.7.21-.78 0-5.56.31-5.75-.12 0-.31 1 .15 1-.21 0 .09-23.3-.2-27-.3-8.92-.24-17.88-.52-26.52 1.2-.24 0 .82.89.89.92.86.42 2.15-.07 2.82.32h-.49c1 .87 7.35-.13 8.79-.4-.6 0-1.2-.09-1.79-.09 4.24 0 8.38-.29 12.6-.19a91.73 91.73 0 0 0 10.89-.06.29.29 0 0 1-.22-.12c1.71-.94 6.46 0 8.52-.09s3.93 0 5.89 0l-.31.06c.26 0 .55.09.81.09-.7 0 .81.06 1 .06 1-.28 5.53.15 7.49.15h5.91c4.4-.06 8.35-.1 12.64-.08 10.05 0 20.09.21 30.16.21l-.15-.06c1.76 0 7.25-.17 8.19-.1-1 .2 1.54 0 1.45 0h3.25c1.86 0 3.17-.15 5.26-.15-.46-.26-2.75.29-3.09-.09.6-.09 1.85-.26 3.24-.4zm-118 1a2.47 2.47 0 0 1 .81 0 5.11 5.11 0 0 1-.79-.02zm1.08 0a.36.36 0 0 0-.16-.06c.22-.02.93-.02.19-.02zm.43-.06a2.67 2.67 0 0 1 1.63-.09c-.51-.05-1.06.07-1.6.07zm2-.18c0-.09 0 0 0 0zm.54 0c-.55 0 .66-.37 0 0zm18.66-.28c0-.25.25-.07 0 0zm1.09-.09h-.11a.31.31 0 0 1 .27 0c-.02-.05-.07-.02-.13-.02zm.76.06c0-.14 0-.07 0 0zm1.19 0h-.92c.04-.92 1.1 0 .96-.02zm7.54-1.31c.07 0 .26 0 0 0zm.76.09c-.71-.13-.19-.1 0 0zm1.52 0c-.51-.27.66 0 0 0zm3.47.06c-.77 0 1-.28 0 0zm1 0v-.09q.12.01.01.04zm1.41 0a2.27 2.27 0 0 1 1.35-.09 5 5 0 0 1-1.34.01zm3.47 0a1.45 1.45 0 0 1-.87 0c0-.17.92 0 1 0zm28.86-.19h.32-.53a.4.4 0 0 0 .22-.11zm-4.23.06h.16c.05 0-.7-.1-.15-.1zm8.9.95c-.28 0 .41-.23 0 0zm-2.72-.15c1.73-.1 3.23-.21 3.7-.21-.88.37-2.36.17-3.7.1zm3.92.15c-.29 0-.14 0 0 0zm.11-.24v-.09q.1-.05 0-.02zm.22-.12a.31.31 0 0 1 .27 0 .3.3 0 0 1-.27-.11zm.33.46c-.18-.2.59-.34 0 0zm.16-.52a2.44 2.44 0 0 1 .59.18 3.45 3.45 0 0 1-.6-.29zm.76.46c.07 0 .27 0 0 0zm.76-.37v-.09q.1-.05-.01-.02zm.92-.64h.16c.04 0-.11-.11-.17-.11zm23.92.92c-.33-.19.08 0 .22 0zm1.57.33q-.11-.06 0-.09c0-.05.05-.05 0-.02zm1.19 0q-.11-.06 0-.09zm1.57 0a.16.16 0 0 0-.11 0 .3.3 0 0 1 .27 0zm12.48-.33c-.68-.42-3.32-.28-5.6-.06 1.06.02 4.84.64 5.6.06z"/><path class="cls-1" d="M112.76 113.71c.5 0 .83 0 .83-.12-.26.04-.59.12-.83.12zm-63.61.92zm-.04-.01h-.13a.33.33 0 0 0 .13 0zm60.73-.96s-.05 0-.05-.06-.06.06 0 .09.05-.03.05-.03zm-47.08-.34h.05s-.05 0-.05-.06-.05.03 0 .06zm17.47.61h-.06zm40.95-.4h.38c.05 0 .11 0 .11-.06v-.06a.32.32 0 0 0-.16 0 .3.3 0 0 1-.38 0c-.11-.09-.22 0-.33 0h-.06l.27.06a.3.3 0 0 0 .17.06zm-.98-.03s0-.06-.05-.06h-.82c.11 0 .16.09.27.09a5 5 0 0 1 .6-.03zm-4.61.03h.38l-.06-.06h-.43a1.24 1.24 0 0 0-.27 0c.06.09.22.03.38.06zm3.74-.03c-.11 0-.16-.09-.27-.12a.87.87 0 0 1-.16 0c.05 0 .05.09.11.12.22.03.27.03.32 0zm-75.07.92h.43-.49c.06-.03.06 0 .06 0zm33.58-1.56a.12.12 0 0 0 .11 0s-.06-.06-.06-.12a1 1 0 0 1-.22.09c.06 0 .12.03.17.03zm39.87 1.86a.36.36 0 0 1 .16.06h.22a.24.24 0 0 1-.11 0 .81.81 0 0 0-.27-.06zm.6-1.28l-.06-.06a.25.25 0 0 0-.11 0c.05.06.05.09.05.09s.12 0 .12-.03zm.54.06h-.11a.29.29 0 0 0-.16 0 .24.24 0 0 0 .11 0c.05.03.1 0 .16 0zm4.23-.03a.15.15 0 0 0 .16 0l-.06-.06H123c.08.03.08.06.08.06zm-52.45 1.25a.24.24 0 0 0 .11 0h.05a.32.32 0 0 0-.16 0zM56.2 113.2a.15.15 0 0 0 .11 0h-.05s-.06-.03-.06 0zm1.3-.03a.15.15 0 0 0 .11 0h-.11zm51.5.33h-.05.11c.06 0-.06.03-.06 0zm9-.06h-.06a.25.25 0 0 0 .11 0s-.05.03-.05 0zm-1.21 0h-.05c-.06 0-.11 0-.06.06a.14.14 0 0 0 .11-.06zm-45.62 1.28l.06.06c.06.06 0 0 .06 0h-.06zm39.83.03a.12.12 0 0 0 .11 0H111zm-53.61-1.52h.05-.11.06zm-.27-.03a.15.15 0 0 0 .11 0h-.05c-.06-.03-.06-.03-.06 0zm-.65.03c.05 0 .05-.06.05-.06a.15.15 0 0 0-.11 0zm21.32.55s0 .06-.06.06h.11s0-.03-.05-.06z"/></g></g></svg>