<svg xmlns="http://www.w3.org/2000/svg" viewBox="0 0 310.61 66.29"><title>events__title</title><g data-name="Layer 1" fill="#fff"><path d="M18 58.1h.14l-.05-.1a.06.06 0 0 0-.07.07.42.42 0 0 0-.28.28c0 .09 0 .12.18.07s.22 0 .18.07a1.46 1.46 0 0 1-.74.57.59.59 0 0 0-.39.78h-.28a.29.29 0 0 1-.21.07.76.76 0 0 1-.07.39 1.34 1.34 0 0 0-.14.32c-.19 0-.24 0-.14-.11s.09-.18 0-.18a.75.75 0 0 0-.39.46c-.07.21-.27.29-.6.25-.09.09-.11.16 0 .21s0 .09-.11.14v-.07h-.07.07c-.1.24-.21.36-.35.39l-.56.11a.44.44 0 0 1-.39.5 1.58 1.58 0 0 0-.6.21c-.14 0-.21-.12-.21-.35a.33.33 0 0 1-.18.18l-.25.11c0 .19.12.24.21.14a.18.18 0 0 1 .28 0 .91.91 0 0 1-.25.28.21.21 0 0 1-.32 0c0 .19 0 .28.14.28q-.78.35-1.27.64a7.73 7.73 0 0 1-1.34.56l-.35.32a.42.42 0 0 1-.49 0 8 8 0 0 1-2.82 1.09 21.63 21.63 0 0 1-3.11.39 3.56 3.56 0 0 1-1.66-.81A3.58 3.58 0 0 1 .48 64a6.32 6.32 0 0 1-.35-1.94 10 10 0 0 1 .17-2.19 7.17 7.17 0 0 1 1.27-2.54 11.45 11.45 0 0 1 1.94-1.91 18.28 18.28 0 0 1 2.3-1.52q1.2-.67 2.4-1.45l2.29-.88a9.47 9.47 0 0 1 2.37-.6c0 .28.09.4.42.35l-.42.42a1.65 1.65 0 0 0-.35.56 5.09 5.09 0 0 0-1.8.6 8.36 8.36 0 0 0-1.45 1c.09.19.19.21.28.07s.23-.14.42 0a.28.28 0 0 0 .28-.21.2.2 0 0 0-.14-.28 1.13 1.13 0 0 0 .35-.39.28.28 0 0 1 .42-.11.47.47 0 0 1-.25.35c-.12 0-.18.16-.18.35s.09.11.14 0 .12-.08.21 0a2.5 2.5 0 0 0-.39.32 1.6 1.6 0 0 1-.53.32q.14.21.28 0t.28-.11c0 .23-.17.36-.35.39a2.57 2.57 0 0 0-.64.18 2 2 0 0 1-1.2 1 2 2 0 0 0-1.2 1 .71.71 0 0 0-.53.18 1 1 0 0 1-.46.25c0 .14 0 .22-.11.25s-.18.11-.18.25a11.33 11.33 0 0 0-4.17 4.38.74.74 0 0 1 .07.42 1.88 1.88 0 0 0 1.33.68 8.71 8.71 0 0 0 1.73 0 13.86 13.86 0 0 0 1.77-.32l1.41-.35c-.1.14-.08.15 0 0s.11-.13 0 0c0-.09 0-.14.07-.14s.07 0 .07-.14.18.09.11.14-.06.12 0 .21a5.11 5.11 0 0 1 1.09-.67 6.69 6.69 0 0 1 1.24-.46 7.5 7.5 0 0 1 1-.67 4.27 4.27 0 0 1 1-.46 26.45 26.45 0 0 0 2.68-2.15q1.27-1.17 2.47-2.37.35-.64.64-1.2a2.24 2.24 0 0 1 .85-.92 11 11 0 0 0 .85-2 8.47 8.47 0 0 0 .28-2.36 5.26 5.26 0 0 0-1.17-2.93 20 20 0 0 1-1.73-2.29c0-.09-.1-.11-.14 0s-.1.06-.14 0a14.19 14.19 0 0 0-2.33-2.12Q13.5 41 12.16 40a.45.45 0 0 1-.21-.21.47.47 0 0 0-.21-.21.29.29 0 0 0-.28-.14.48.48 0 0 1-.35-.14s0-.07-.14-.21a2.88 2.88 0 0 0-.71-.42l-.78-.28q-1.06-.78-2.22-1.52t-2.37-1.36a13.65 13.65 0 0 0-1.84-1.41 3.9 3.9 0 0 1-1.48-1.76 3.08 3.08 0 0 1-.81-.85 3.71 3.71 0 0 1-.46-1 6.78 6.78 0 0 1-.25-2.79 7.68 7.68 0 0 1 .74-2.44 9.47 9.47 0 0 1 1.38-2 21 21 0 0 1 1.59-1.66 1.08 1.08 0 0 1 .14-.42.69.69 0 0 0 .49-.32.59.59 0 0 1 .61-.24 1.78 1.78 0 0 1 .6-.71 3.93 3.93 0 0 1 1-.57q.21 0 .07-.07a.14.14 0 0 1-.07-.21 6.16 6.16 0 0 0 1.4-.85 3.64 3.64 0 0 1 1.45-.71 1.1 1.1 0 0 1 .56-.56.92.92 0 0 1 .64-.14 18.39 18.39 0 0 1 3.78-2.29q2.08-1 4.13-2c.09 0 .13 0 .11-.07s0-.07 0-.07l4.24-1.69q2.09-.87 4.36-1.57v-.28A3.56 3.56 0 0 0 29 8.54a5.16 5.16 0 0 1 1.59-.42q.71-.28 1.77-.6a13.34 13.34 0 0 1 2.22-.46A15.64 15.64 0 0 1 36.91 7a4.8 4.8 0 0 1 2 .46l.25.25a.43.43 0 0 1 .11.32.9.9 0 0 1 .71.63 1.91 1.91 0 0 0 .49.85 4.09 4.09 0 0 1 .78 1.41 2 2 0 0 1-.07 1.55 1.09 1.09 0 0 0-.21.28.45.45 0 0 1-.21.21 3.17 3.17 0 0 0-1 .42 10 10 0 0 0-.85.64s-.17-.07-.49-.07l.58-1.49a6.54 6.54 0 0 0 .32-1.8 12.84 12.84 0 0 0-3.21-.28 20.48 20.48 0 0 0-3 .35q-1.45.28-2.86.67t-2.82.67a1.69 1.69 0 0 1-.88.46 2 2 0 0 0-.88.39c-.09 0-.15 0-.18-.07s-.08-.07-.18-.07v.28a8.4 8.4 0 0 0-1.73.49l-1.58.64c0 .09-.07.12-.21.07a.46.46 0 0 0-.35 0 1.56 1.56 0 0 1-.71.6 5.56 5.56 0 0 1-.88.28 5.5 5.5 0 0 0-.88.28 1.75 1.75 0 0 0-.71.53s-.07-.07-.07-.21-.14.06-.14.18a.25.25 0 0 1-.14.25q-.57-.14-.71.14a.63.63 0 0 1-.42.35.57.57 0 0 1-.42.11.39.39 0 0 0-.35.11 1.88 1.88 0 0 0-.74.46 1.1 1.1 0 0 1-.81.32q-.07.35-.67.56a3.3 3.3 0 0 0-1 .57 3.1 3.1 0 0 1-1.62.78c-.09 0-.11.09 0 .14s.08.12 0 .21a8.08 8.08 0 0 0-2.89 1.55 16 16 0 0 1-2.69 1.83c0 .14 0 .19.07.14 0 .24-.1.26-.28.07a11.86 11.86 0 0 0-1.24 1.13q-.53.57-1.17 1.13v.18c0 .03.07.08.07.18a4.84 4.84 0 0 0-1.31 1.45 2.85 2.85 0 0 0-.25 2.15 2.1 2.1 0 0 0 .35.6 2.18 2.18 0 0 1 .35.6 7.2 7.2 0 0 1 2 1.41 5.31 5.31 0 0 0 2.12 1.27 4.2 4.2 0 0 0 .39.46 1 1 0 0 0 .53.25v.21c.23 0 .36 0 .39.07s.15.09.39.14a1.09 1.09 0 0 1 .14.42 2.91 2.91 0 0 1 1.69.74 5.48 5.48 0 0 0 1.77 1 9.89 9.89 0 0 0 2.22 1.76 7.8 7.8 0 0 1 2.22 2 14.54 14.54 0 0 1 5.15 7.91.53.53 0 0 1-.18-.53.53.53 0 0 0-.18-.53 14.72 14.72 0 0 1 .32 2.82v3a5.27 5.27 0 0 1-.71 1.59 3.4 3.4 0 0 0-.44 1.35.48.48 0 0 0-.35.14 1.24 1.24 0 0 1-.56.81.87.87 0 0 0-.42.81.74.74 0 0 0-.35.25q-.16.18-.32-.18zm-16.87.07c0 .19.07.21.07.07s-.01-.16-.05-.06zm.71-31.56c-.1 0-.14 0-.14-.07s0-.07-.14-.07-.07.17.07.21.22.03.22-.06zm-.21-.71c.09.09.14.08.14 0s-.04-.13-.13.01zm.07-.28c.09.1.16.08.21 0s0-.2-.07-.25zM3.05 57S3 57 3 56.94s0 0-.07 0a.66.66 0 0 1-.53.42.66.66 0 0 0-.53.42 3.62 3.62 0 0 1 .32-.28.83.83 0 0 1 .53-.14.28.28 0 0 1 .12-.36c.09.09.16.14.21.14V57h.21c0-.09 0-.14-.14-.14s-.12.02-.07.14zm-.71 2.54c-.09 0-.14 0-.14.07s.15-.05.15-.09zm1.91 4.31q-.64.07-1 .14a.85.85 0 0 0-.6.42.29.29 0 0 0 .21-.07.29.29 0 0 1 .21-.07c0 .09.07.12.07.07a.06.06 0 0 0-.07-.07c0-.09.16-.15.35-.18s.31 0 .35.18-.14 0-.14 0 0-.07-.14-.07q.07.35.46.25a1.24 1.24 0 0 0 .53-.25.16.16 0 0 0-.18 0c-.07 0-.11 0-.11-.11s.07-.07.07-.21.12 0 .07 0-.08-.1-.08-.06zM3.12 58.1a.29.29 0 0 0 .36-.1c-.09 0-.15 0-.18.07s-.08.03-.18.03zm.14-35.79c0 .14.07.15.07 0s-.02-.09-.07 0zm.14 2c.09.09.14.08.14 0s-.04-.16-.13-.02zm.07 32.55c0-.09 0-.13.07-.11s.09 0 .14-.11-.14 0-.14-.07 0-.07-.14-.07c.01.22.03.33.08.33zm.35-34.31c-.09 0-.14 0-.14.07h.07a.06.06 0 0 0 .08-.1zm0 1.48c-.09 0-.14 0-.14.07h.07a.06.06 0 0 0 .08-.1zm-.06 32.45a6.32 6.32 0 0 0 1.16-.78 5.36 5.36 0 0 1 1.24-.78v-.28q-.57.42-1.27.85a3.85 3.85 0 0 0-1.13.99zm.14-34.1c-.09.14-.09.15 0 0s.1-.09 0 0zm.35 1.34v-.14s-.13 0-.18-.14c-.07.19.04.28.18.28zm.64 32.83q-.14-.21-.18 0c0 .14 0 .14.18 0a.64.64 0 0 1-.42.42.45.45 0 0 0-.35.35l.6-.32a1 1 0 0 0 .46-.53c-.09-.09-.14-.12-.14-.07s-.04.1-.15.15zm-.43-33.68a.06.06 0 0 1-.07-.07s0-.07-.14-.07-.08.17 0 .21.21.06.21-.07zm0 41.8q-.28-.14-.25 0c.03.15.11.14.25 0zm0-43.35h.14v-.14c0-.07-.07 0-.07 0h-.14zm0 42.43a3 3 0 0 1 .11.42q0 .21.25.07c-.09 0-.14-.07-.14-.21h.64a.45.45 0 0 0 .42-.28c-.19 0-.28 0-.28-.07a.33.33 0 0 1 .32-.11.34.34 0 0 0 .32-.11 1 1 0 0 0-.88.14.75.75 0 0 1-.76.15zm.54.85c-.24 0-.35 0-.35.07.19.14.35.12.35-.07zm.28-44c.09.19 0 .28-.18.28s-.27 0-.18.14a1.27 1.27 0 0 0 .64-.21q.35-.21.21.28c.14 0 .26-.09.35-.28a.22.22 0 0 1-.25-.18.33.33 0 0 0-.18-.25c0 .24 0 .32-.11.25a.29.29 0 0 0-.34-.01zm.14 35.79c.19 0 .28-.07.28-.21h-.25a.15.15 0 0 1 0 .11.14.14 0 0 0-.07.12zm.28-35.3h-.11l-.14.07c.14.02.21 0 .21-.05zm-.25 43.44a2.49 2.49 0 0 1 .92-.14.65.65 0 0 0 .71-.39 8.67 8.67 0 0 1-.92.21 1.25 1.25 0 0 0-.71.32zm3-10.17a2.85 2.85 0 0 0-1.69 1.13 2.51 2.51 0 0 1-.71.35q-.42.14-.28.42a3.61 3.61 0 0 1 .85-.49 2 2 0 0 0 .85-.71q0 .21.21.07a1.38 1.38 0 0 1 .88-.46q.6-.11.67-.88H9q-.14.35-.28.35c-.11.01-.21.08-.3.22zm-2.5-34.17h.14v-.14h-.14zm1 .07h-.44c0 .19 0 .27-.14.25s-.21.06-.21.25a1.08 1.08 0 0 0 .78-.5zm-.79 15.32h.21v-.14h-.21zm.28 28c.09-.09.07-.15-.07-.18s-.21 0-.21.11l.14.07zm-.28.21h.14v-.14h-.14zM6.3 20c.09.14.13.15.11 0s-.06-.11-.11 0zm0 1.41h.28c.09 0 .09 0 0-.14s-.28.03-.28.12zm.56 41.72S6.72 63 6.44 63q-.14.21.14.21c.19.05.29 0 .29-.09zm.28-9.39a2.57 2.57 0 0 0-.14.35c0 .14-.12.12-.21-.07a2.07 2.07 0 0 1-.25.35c-.12.14-.13.26 0 .35 0-.09.06-.15.18-.18s.18 0 .18.11q.14-.5.42-.56a5.31 5.31 0 0 0 .64-.21c-.1 0-.13 0-.11-.07s0-.07-.11-.07-.13.12-.25.07a.87.87 0 0 0-.34-.08zm-.42-34a.46.46 0 0 1 .35 0 .11.11 0 0 1 0-.14s0-.07-.11-.07 0 .12-.14.07-.19-.04-.1.1zm.21 1.62c-.09-.09-.14-.08-.14 0s.05.1.15-.04zm.57-2.16c-.09-.09-.17-.14-.21-.14q0 .28-.14.11t-.21.11a.56.56 0 0 0 .6.07.9.9 0 0 0 .46-.43h-.36c0 .19-.05.28-.14.28zm-.56 1a4.37 4.37 0 0 1 .67-.2.64.64 0 0 0 .46-.42 2.91 2.91 0 0 0-.6.32 4 4 0 0 1-.53.29zm0 1h.21v-.07h-.21zm.35.14h.21v-.14h-.21zm0 41.58q.14.28.14 0c0-.14-.05-.16-.14-.01zm.14.71a1.06 1.06 0 0 0-.14.42 1.34 1.34 0 0 1 .35-.25 1.36 1.36 0 0 0 .36-.26 1.08 1.08 0 0 0-.32 0 .78.78 0 0 1-.25 0s-.08-.06-.11 0 .01.07.11.07zm.42-43.14c-.14.14-.21.19-.21.14s.08-.06.11 0 .06-.06.1-.16zm.49-2a1.4 1.4 0 0 1-.28.11c-.1 0-.14.11-.14.25.09 0 .14 0 .14.07h.35a.14.14 0 0 0-.07-.21q-.14-.07 0-.21c.09 0 .12-.07.07-.07a.06.06 0 0 0-.06.07zm1 34.51q.21.07.11-.07c-.07-.09-.11-.07-.11.07-.09-.09-.17-.12-.21-.07a.41.41 0 0 1-.28.07s-.06 0 0 .14 0 .14-.11.14-.24-.08-.28 0-.17.11-.35 0v.21s-.11 0-.11.14a.28.28 0 0 1 .18 0 .47.47 0 0 0 .25 0q.07-.14.46-.25a.75.75 0 0 0 .45-.38zM9 18.92a2.53 2.53 0 0 0-.92.57.47.47 0 0 0 .46-.14q.23-.22.46-.43zm-.78 1.69c-.09 0-.14 0-.14.07a.2.2 0 0 0 .13-.06zm.14 42.71a.25.25 0 0 0-.28.28c.14 0 .2 0 .18-.07a.17.17 0 0 1 .11-.21.33.33 0 0 0 .35-.21c-.26.01-.37.08-.37.22zm-.08-42.63a.17.17 0 0 0 .21.11.17.17 0 0 0 .14-.18c-.14 0-.22 0-.25-.07s-.06-.01-.1.14zm.28-2.19a.82.82 0 0 1 .49-.11.56.56 0 0 0 .35 0 .47.47 0 0 0-.11-.28q-.11-.14-.25 0v.14h-.2a.78.78 0 0 0-.25 0c-.07.02-.08.11-.03.25zm.28 1.5H8.7a.12.12 0 0 1 .11.07s.03.01.03-.07zM9 63a.12.12 0 0 1-.14 0h-.07A.29.29 0 0 0 9 63zm3.11-1.69a3.75 3.75 0 0 0-1.52.67 9.18 9.18 0 0 1-1.52.88.3.3 0 0 1 .39 0q.18.14.25-.07a.19.19 0 0 1-.21-.21c.38.09.61 0 .71-.18s.21-.27.35-.18q.35-.57.78-.49a.8.8 0 0 0 .78-.42.2.2 0 0 1 .25-.11c.12 0 .15-.06.11-.25q-.53-.09-.39.4zM9.34 18.85a.45.45 0 0 1 .18-.11c.07 0 .08-.08 0-.18q-.25.15-.18.29zm.14.64a.06.06 0 0 0-.07.07.06.06 0 0 0 .07-.07zm-.07 17.79h.07v-.21h-.07zm.07 26.41a.14.14 0 0 1 .11 0 .14.14 0 0 0 .11 0 .61.61 0 0 1-.07-.18h-.14zm.07-46a.33.33 0 0 0 .21.35.79.79 0 0 1 .11-.18v-.18a1.1 1.1 0 0 0 .49-.11l.35-.18v-.25a.32.32 0 0 0 .18-.18 2.15 2.15 0 0 0-.6.35 2 2 0 0 1-.74.41zm0 35.09q.14.28.14.07c0-.11-.05-.13-.14-.04zm.35 10.9a.37.37 0 0 1 .14-.18s0-.06-.14-.11v.18c0 .03-.09.06 0 .11zm0-10.87q.56-.14.64-.28a.11.11 0 0 1-.11-.07h-.18c.09.14 0 .21-.14.21s-.26.05-.21.14zm.1-15.39c0 .14 0 .2.11.18a.2.2 0 0 1 .25.11c-.04-.2-.15-.29-.36-.29zm.28 25.91h.14V63h-.21a.41.41 0 0 0 .04.33zM11 17.72a1.13 1.13 0 0 0-.64.49 1.12 1.12 0 0 0 .64-.49c.19 0 .23 0 .14-.11s-.14-.03-.14.11zm-.64 1.34c.09.14.14.15.14 0s-.08-.06-.18 0zm.14 44.69h.07v-.14h-.07zm.25-44.87q0-.18-.11-.11l-.07.14c.06.09.12.09.14-.02zm-.18 18h.14v-.07h-.14zm0 26.05c.09.19.14.2.14 0s-.08-.1-.17.07zm0 1q.14.21.07 0t-.1.07zm.14-11.58h.21v-.21h-.21zM11 37.07c0-.09 0-.14-.21-.14-.07.23 0 .28.21.14zm-.21 26a1.64 1.64 0 0 1 .25-.21 1.77 1.77 0 0 0 .25-.21h-.28c-.04 0-.12.08-.21 0zm.07-44.27q-.14.14 0 0c.14-.11.14-.11.03-.02zm.42-2.12c0 .09 0 .13.14.11a.17.17 0 0 1 .21.11.33.33 0 0 1-.39 0c-.17-.07-.27 0-.32.18a.54.54 0 0 0 .68-.08q.21-.25-.14-.46l-.07.14zm-.18 21.87l-.14.14s.08-.06.11 0 .03-.05.03-.14zM11.52 52a.79.79 0 0 1-.35.07c-.14 0-.21.09-.21.28a.62.62 0 0 1 .32-.18.33.33 0 0 0 .25-.18h.14v-.28c-.1-.03-.15.07-.15.29zm-.25.92L11 53a.27.27 0 0 1 .18-.28.38.38 0 0 1 .32 0zm0-35.23h.14c0-.19 0-.28-.14-.28zm.49 1.06c.09 0 .07-.12-.07-.21l-.07.07v-.14a.48.48 0 0 1-.14.35.62.62 0 0 0 .33-.11zm-.14-1.27a.11.11 0 0 1 .07-.11s0-.06-.07-.11zm.07 21.25c.09-.14.12-.23.07-.28h-.14a.4.4 0 0 0 .12.24zm-.07 24.64c.09.09.14.08.14 0s0-.18-.09-.04zm.28-46.67c0-.09-.07-.14-.21-.14q-.1.31.26.1zm-.14 1.27A.29.29 0 0 1 12 18h.18c.1 0 0-.15-.11-.18a.2.2 0 0 0-.26.11zM12 39.11c0-.09 0-.14.11-.14s.15-.07.11-.21a.14.14 0 0 1-.11 0 .15.15 0 0 0-.11 0 .18.18 0 0 1-.07.25c-.08-.01-.05.06.07.1zm-.07-22.59c.09 0 .15 0 .18-.11s0-.18-.11-.18 0 .12-.07.07zm.49.42a.58.58 0 0 0-.42.14c.09.09.16.11.21 0a.53.53 0 0 1 .21-.18.32.32 0 0 0 .28-.11.52.52 0 0 1 .21-.18c-.09-.09-.18-.08-.25 0a.61.61 0 0 1-.22.33zM12 63c.09.09.14.06.14-.11s0-.22-.14-.18zm.07-11.44c.28 0 .42 0 .42-.14a.58.58 0 0 0-.4.12zm.07-35.23a.38.38 0 0 0 .35.11.34.34 0 0 0 .28-.25q-.14-.21-.32-.11a1.66 1.66 0 0 0-.29.23zm.07 1.91q.56 0 .64-.21a.79.79 0 0 1-.35.07.28.28 0 0 0-.27.11zm.14 21.39c0 .14.07.14.07 0s0-.16-.05-.02zm.42 22.1a.18.18 0 0 0-.25.07c-.07.09-.06.16 0 .21s.11-.13.18-.11.08 0 0-.18.14-.07.14-.21-.04.05-.04.2zm-.28-23.58h.14v-.07h-.14zm.14 22.73q.07.14.11 0t-.09-.02zm.07-21.6q.07.28.21.18t-.18-.21zm.14-21.75v.14a.2.2 0 0 0 .03-.16zm.07 43.07c-.09 0-.11 0 0 .14s.08 0 0-.14.14 0 .14 0 0 .07.14.07a.25.25 0 0 0-.28-.28zm0 1.55a.32.32 0 0 0 .35.07.46.46 0 0 0 .28-.21.72.72 0 0 1-.32.07.7.7 0 0 0-.28.05zm.42-46.38c0-.09-.07-.14-.21-.14v.14zm0 2.26c-.09 0-.14 0-.14.07s.17-.05.17-.1zm.21 42.29c-.09 0-.14 0-.14-.07s0 0-.14 0 .07.24.35.14v-.21c0-.09 0-.14-.07-.14zm-.28-42.57a.55.55 0 0 0 .35-.07c-.2-.12-.32-.1-.32.04zm.21 43.63c.09-.09.18-.12.25-.07s.13 0 .18-.07a.35.35 0 0 0-.28-.18q-.19-.06-.12.29zm0-45.75a.83.83 0 0 0 .53 0 .85.85 0 0 0 .46-.32l-.56.11a.81.81 0 0 0-.4.18zm0 2.19c0 .14.08.15.11 0s.02-.12-.08-.03zm.07-.49h.14v-.21h-.14zm.28 21.6h-.14a.06.06 0 0 0-.07.07c-.09.19-.06.25.11.18s.23-.18.13-.28zm-.21 21c.09.14.14.14.14 0s-.01-.2-.11-.06zm.21 1.06c-.09.14-.09.15 0 0s.13-.16.03-.06zm-.07-44.62s.12 0 .21-.14q-.18-.06-.18.08zm.14 23.79V40h-.14v.14zm-.14 21.67a.64.64 0 0 0 .42-.42q-.25-.06-.39.37zm.42-44.13q-.14-.42-.28-.28t.32.23zM14 59.94c-.09.14-.09.15 0 0s.09-.09 0 0zm0-20.69h.07v-.14H14zm.49 1.34a.71.71 0 0 0-.21-.25 2.43 2.43 0 0 1-.28-.24.55.55 0 0 0 .49.5zm-.28 19.13c-.14 0-.21 0-.21.07a.29.29 0 0 0 .21-.06zm0 1h-.14l-.07.14c.14 0 .21-.05.21-.14zm.49-45q-.57 0-.64.35a1.12 1.12 0 0 0 .64-.35h.11c-.07 0-.11-.07-.11.02zm-.42 45.61a.55.55 0 0 0 .39 0c.12 0 .11-.12 0-.21a.2.2 0 0 1-.25.11q-.21-.02-.14.12zm0-.71a2.06 2.06 0 0 0 .78-.71.81.81 0 0 0-.49.25 2.52 2.52 0 0 0-.29.49zm.42-19.91h.14v-.14h-.28s.05.12.14.17zm.07 18.5c-.09.09-.14.12-.14.07h.07a.06.06 0 0 0 .07-.05zm.23 1.65l-.14.07a.21.21 0 0 0 .14-.07zm.28-44.76h-.21c-.09 0-.14 0-.14.11s.11.13.18.11a.32.32 0 0 0 .16-.22zM16 41.73a3.64 3.64 0 0 0 .85 1q.49.39 1 .81a3.43 3.43 0 0 0-.74-.92 7.38 7.38 0 0 0-1.11-.89 2.06 2.06 0 0 1-.49-.56c-.19-.28-.38-.33-.56-.14a1.08 1.08 0 0 1 .53.42.58.58 0 0 0 .52.28zm-1-24.86c.19 0 .26-.07.21-.21h-.14v.14s-.07.03-.07.07zm.21 43a.52.52 0 0 1 .18-.21c.07 0 0-.09-.11-.14s0 .09-.14.14-.09.12.06.21zm0-45.33c0 .19 0 .27.18.25a3.27 3.27 0 0 1 .46 0c-.1-.09-.12-.18-.07-.25s0-.13-.14-.18q-.02.18-.44.18zm.14 46.67l-.07.14c-.01-.09.01-.14.06-.14zm.42-2c-.14 0-.26.09-.35.28.23-.09.35-.19.35-.28s.18 0 .25-.11.06-.2 0-.25a.17.17 0 0 1-.14.18c-.14.05-.17.11-.12.2zm0-43.91c0-.09 0-.13.11-.11s.11 0 .11-.11-.13 0-.25 0-.12.19.02.24zm.14 43c0-.14 0-.21-.14-.21s.04.23.13.23zm0 1.77v.21c.09 0 .14 0 .14-.11S16 60 16 60s-.05.13-.1.08zm.6-45.79c.07-.12 0-.18-.25-.18.09.26.17.32.24.2zm0 .64c0-.17 0-.25-.07-.25a.27.27 0 0 1 0 .18.28.28 0 0 0 0 .18c-.02.1.03.07.03-.1zm-.14 1.31h.28a1.67 1.67 0 0 0 .35-.13.8.8 0 0 1-.39 0q-.14 0-.28.14zm.18 42.22c.12-.09.11-.09 0 0s-.17.1-.05.01zm.11-.32c-.09 0-.12.08-.07.18s.22 0 .25 0a1.75 1.75 0 0 1 .11-.25H17c.14-.14.14-.24 0-.28a.23.23 0 0 0-.07.28 1.49 1.49 0 0 1-.32.08zM16.75 14c-.09.09-.14.12-.14.07s.14.03.14-.07zM17 57a.26.26 0 0 1-.21 0s-.07 0-.07.11c.15.08.28.03.28-.11zm0 .28a.12.12 0 0 1-.14 0h-.07s.21.09.21.05zm.85-43.91a.39.39 0 0 1-.35.32.56.56 0 0 0-.5.31.06.06 0 0 1 .07.07s0 .07.14.07a.6.6 0 0 1 .28-.25 3.39 3.39 0 0 1 .42-.18.79.79 0 0 0 .32-.18c.07-.07.06-.15 0-.25 0 .09 0 .17-.11.21a.27.27 0 0 1-.31-.08zm-.42 43.91h-.07a.42.42 0 0 0-.28.28c.09.09.16.11.21 0a.59.59 0 0 0 .07-.32h.07c.09 0 .12-.07.07-.07a.06.06 0 0 0-.12.16zm-.28-.49c.14.24.26.19.35-.14a.78.78 0 0 1-.25 0c-.11-.02-.15.04-.15.18zm.56-.21c-.09-.24-.17-.35-.21-.35-.19.27-.12.39.17.39zm0 .35a.13.13 0 0 0 .14-.14c-.18.04-.23.09-.18.21zm.78-12.92a.64.64 0 0 0-.42-.42.63.63 0 0 0 .37.47zm.07-28.59q.21.07.21 0a.38.38 0 0 1 .14-.25c-.28.1-.4.2-.4.29zm.35-2.4q.49 0 .42-.21-.39.04-.46.25zm.42 32.41c.09.14.14.14.14 0s-.09-.1-.18.04zm.07-32.62h.21v-.14h-.21zm.71-.35a.21.21 0 0 0-.14-.07c-.09.09-.08.15 0 .18s.14.02.1-.07zm.64-.14a.47.47 0 0 1 .35-.11c.09 0 .16 0 .21-.18h-.35c-.19.04-.26.14-.26.33zm.56 36.36c.09 0 .14.07.14.21h-.14zm0 .28c.14 0 .2.07.18.21s0 .24 0 .28c-.15.04-.22-.12-.22-.45zm.14 2.75a.29.29 0 0 1 .07.21.2.2 0 0 1-.07.14c-.09 0-.12 0-.07-.14a.55.55 0 0 0 .03-.17zm0-1.55a.85.85 0 0 1 .28.6q.07.46-.28.53zm.07-.42c.14-.09.15-.08 0 0s-.14.18-.04.03zm.28-38c-.09 0-.12.08-.07.11s.07 0 .07-.11a.14.14 0 0 1 .21.07c0 .09.07.07.07-.07h-.28zm1.2-.42a.11.11 0 0 1-.14 0h-.07s.21.09.21.05zm1-.24s0-.07-.11-.07-.11 0-.11.07a.11.11 0 0 1 .11.07s.11.03.11-.07zm29.6 30.29v.07a.06.06 0 0 0 .07.07q-1.41.57-3.07 1.31t-3 1.45c0 .19.12.27.21.25a.81.81 0 0 0 .28-.14l.28-.21a.47.47 0 0 1 .28-.11 6.45 6.45 0 0 1-2.26 1.55q-1.34.57-2.54 1.13c0 .19 0 .32.07.39a.37.37 0 0 1 .14.32c-.19 0-.28 0-.28-.11s-.07-.2-.21-.25a.86.86 0 0 1-.78.57 1.07 1.07 0 0 0-.85.42s.09.12.28.21a1.48 1.48 0 0 1-.46.32l-.53.25c0 .19.09.26.28.21a2.8 2.8 0 0 1-.64.35.76.76 0 0 1-.71-.07c-.28.38-.47.63-.56.78q-2.12.71-4.1 1.48a14.85 14.85 0 0 1-4.66.92 5.09 5.09 0 0 1-3.42-1.06 5.16 5.16 0 0 1-1.66-2.58 7.48 7.48 0 0 1-.14-3.25 8.81 8.81 0 0 1 1.13-3.14q.92-1 1.84-1.94a13.23 13.23 0 0 1 2-1.73 11.4 11.4 0 0 1 2.44-1.27 8.25 8.25 0 0 1 2.97-.49 3.06 3.06 0 0 1 1.48 2.44 5.5 5.5 0 0 1-.56 3 27.37 27.37 0 0 0-2.75 2.4 8 8 0 0 1-3.11 1.91 3.54 3.54 0 0 1-1.94-.21 2 2 0 0 1-1-1.41 3.85 3.85 0 0 0-1.34 3 3.65 3.65 0 0 0 1.48 1.06 26.44 26.44 0 0 0 7-.88 53.83 53.83 0 0 0 6.21-2.12q3-1.23 6-2.58a45.73 45.73 0 0 1 6.13-2.31zM35.88 38.2a8 8 0 0 0-3.35 1.69A15.36 15.36 0 0 0 30 42.71c.19 0 .28 0 .28.07a1.28 1.28 0 0 1-.71.46.76.76 0 0 0-.56.46 19.7 19.7 0 0 0 4.38-1.94 7.23 7.23 0 0 0 2.89-3.64c-.14 0-.21 0-.21-.11s0-.11-.14-.11a.28.28 0 0 1 0 .18.14.14 0 0 0-.05.12zm-5.29 11.86a3.85 3.85 0 0 0 .64.25q.35.11.49-.11a1.41 1.41 0 0 0-.64-.25q-.49-.11-.49.11zm2.4-.92a4 4 0 0 0 2.4 0l2.33-.81a27.91 27.91 0 0 0 5.28-1.7 40.82 40.82 0 0 0 4.41-2.15Q45.7 45 44 45.71l-3.49 1.38q-1.77.71-3.64 1.27a21 21 0 0 1-3.87.78zm6.28.85c.14.1.21.07.21-.07q-.28-.15-.21.08zm1.13-.63h.21v-.14h-.21zm.35-.14a1.61 1.61 0 0 0 .42-.21.23.23 0 0 0-.28-.07.28.28 0 0 0-.14.27zm.35-.63a1.11 1.11 0 0 1 .42-.18c.14 0 .23-.13.28-.32a1.06 1.06 0 0 1-.46.18.28.28 0 0 0-.23.3zm1.27-.5c.19-.09.28 0 .28.14h-.28zm1-.63h.21v.21h-.21zm.78-.49c.14 0 .22 0 .25.14a.17.17 0 0 1-.11.21c-.1-.06-.15-.18-.15-.32zm4.8-2.89h.14c0 .09 0 .14-.21.14v-.07s.06-.05.06-.09zm.05-.38h.21v.21H49zm1.13-.28a.65.65 0 0 1-.85.35q.16-.21.86-.35zm0 0c-.1-.14-.07-.18.07-.11s.19.06.14 0c.14 0 .16.11.07.18a.19.19 0 0 1-.27-.07zm3.46-2a.33.33 0 0 1 .35-.21c0 .14 0 .2-.07.18a.41.41 0 0 0-.27-.02z"/><path d="M52.4 45.54v.07l-.14.21c-.14.21 0 0 .07 0a.29.29 0 0 0 .07-.21v-.07q-.78 1.13-1.52 2.47a17.48 17.48 0 0 0-1.31 3.11s.12 0 .21-.14v.28a28.47 28.47 0 0 0 5.58-5q2.4-2.82 4.87-5.51a1 1 0 0 1 1 .25 2.57 2.57 0 0 1 .46.81l.14-.14s.07 0 .07-.11 0-.15-.14-.11a1.44 1.44 0 0 1 1.09.85 3.21 3.21 0 0 1 .18 1.45q-.07.81-.25 1.77a10.22 10.22 0 0 0-.18 1.87c-.14 0-.17-.09-.07-.28a.93.93 0 0 0-.18.57 1 1 0 0 0 .11.63v.07Q62.29 49.7 62 51a4 4 0 0 0 .07 2.26h-.21a1.06 1.06 0 0 1-.07.39c0 .12 0 .22.14.32s0 .13-.11.11-.11 0-.11.11q.35.14.32.71a1.13 1.13 0 0 0 .32.92.45.45 0 0 1-.39 0q-.18-.11-.11.25a.9.9 0 0 0-.71 0 1.28 1.28 0 0 1-.39-.42.86.86 0 0 0-.53-.35 5.64 5.64 0 0 1-.71-2.15 13.05 13.05 0 0 1-.07-2.37q.07-1.2.21-2.51t.21-2.58a21.06 21.06 0 0 0-2.26 2.33q-1.06 1.27-2.19 2.44A17.87 17.87 0 0 1 53 52.49a7.26 7.26 0 0 1-3.11 1.24l-.78-.28a2.49 2.49 0 0 1-.78-.42c0-.19 0-.33-.28-.42a2.92 2.92 0 0 0-.71-1.83 15.89 15.89 0 0 1 2.75-7.2 29.54 29.54 0 0 1 4.87-5.51 6.42 6.42 0 0 0 .78 0 1.66 1.66 0 0 0 .64-.25 9.53 9.53 0 0 0 .88.46 7.45 7.45 0 0 1 1 .53 1.83 1.83 0 0 1 .64.71 1.37 1.37 0 0 1 0 1.06c-.1-.09-.14-.11-.14 0s0 .11-.14.11a.26.26 0 0 1-.32-.07.37.37 0 0 0-.32-.14A4.67 4.67 0 0 0 56 41.76a5.87 5.87 0 0 1-1.59 1.38l-.21.21s0 .14.07.28a1.58 1.58 0 0 0-1 .78 6.08 6.08 0 0 1-.87 1.13zm-4 3h.14v-.21h-.14zM49.79 51a.06.06 0 0 1 .07-.07s.02 0-.07.07zm.49-1.55q.14.21-.11.6a1.39 1.39 0 0 0-.25.74.69.69 0 0 1 .07-.67 1.84 1.84 0 0 0 .29-.7zm.28-.71c.24.09.28.19.14.28a.42.42 0 0 0-.21.35.21.21 0 0 1 0-.32.29.29 0 0 0 .08-.34zm.21-.35c.1-.09.08-.06 0 .11s-.13.1.01-.14zm.42-.42c0 .09-.09.14-.14.14s-.07 0-.07.14-.11-.12 0-.21a.18.18 0 0 1 .22-.1zm.21-.78c.09 0 .12.14.07.28s-.12.21-.21.21 0-.24.07-.28a.14.14 0 0 0 .08-.24zm2.19 3.18c0 .19.07.21.07.07s-.01-.19-.06-.1zm.14-.21c.14 0 .18 0 .11-.07s-.1-.09-.1.04zm.27-1.8a.9.9 0 0 1 .32.07c.12 0 .15 0 .11-.14a.73.73 0 0 0-.28 0 .32.32 0 0 1-.15.07zm.42 1.76q.07-.42-.42-.42c0 .09.06.15.18.18a.33.33 0 0 1 .2.25zm0-1.91a.06.06 0 0 1 .07.07 1.3 1.3 0 0 1 .25-.42.28.28 0 0 0 0-.42.69.69 0 0 0-.14.49c0 .24 0 .26-.14.07-.13.15-.13.22-.08.22zm.07 1.34v-.14h-.07v.14zm1.48-2.4q0 .42-.21.49a.89.89 0 0 0-.35.21h.25a.71.71 0 0 1 .32.07 4.23 4.23 0 0 0-1.48 1.55.48.48 0 0 0 .32 0c.12 0 .13 0 0 .18a.31.31 0 0 0 .35-.35h-.37c0-.19.08-.27.25-.25s.25 0 .25-.18.14.07.14.21 0 .17.14.07.15-.23 0-.28-.13-.07 0-.07a1.62 1.62 0 0 0 .67-.46q.39-.39.11-.53a.14.14 0 0 1 .21-.07.77.77 0 0 0 .35.07 3.57 3.57 0 0 1 .78-1.17l.92-.81h.14a2.79 2.79 0 0 1 .42-.6 4.53 4.53 0 0 0 .49-.67 3 3 0 0 0 .32-.74 1.34 1.34 0 0 0-.11-.88c0 .09-.21.09-.49 0 0 .09 0 .14.07.14s.07 0 .07.14-.26.11-.35.32a.65.65 0 0 1-.49.39.44.44 0 0 1-.14.56 1 1 0 0 1-.64.21.81.81 0 0 0-.14.46.59.59 0 0 1-.28.46l-.14-.14c0-.09.07-.15.21-.18s.14-.11 0-.25a6.42 6.42 0 0 0-1.45 1.13q-.6.63-1.17 1.27a.23.23 0 0 1 .21.14c0 .1.12.07.21-.07s0-.14-.07-.14-.12 0-.07-.14.25 0 .32.14.15.19.25 0c-.09 0-.12 0-.07-.14a.14.14 0 0 1 .21-.08zm-1.48 3h.21v-.28h-.21zm.35-2c.09 0 .11 0 0 0s-.08-.05-.04 0zm.14-.28q-.14.14 0 0c.12-.1.1-.1-.04 0zm.14.28c.24 0 .35-.07.35-.21-.27 0-.39.06-.39.21zm.85-1c0-.24-.08-.28-.25-.14s-.25.17-.25.07a.63.63 0 0 1 .35-.18h.35a.8.8 0 0 0 0-.25.32.32 0 0 1 0-.25.4.4 0 0 1 .18.14.52.52 0 0 0 .11.14c-.1.14-.1.26 0 .35q-.21-.07-.25.11c-.05.1-.14.12-.28.02zm0 1.2s-.06 0 0 .07-.04.04-.04-.06zm.49-1.27c.09.19.08.28 0 .28a.44.44 0 0 0-.32.14.93.93 0 0 1 .18-.25zm-.35 1.06c.09-.14.14-.15.14 0s-.08.11-.18.01zm.28 1.55h.07v.14h-.07zm.07-2.61a.38.38 0 0 0 .14-.08s.08-.07.18-.07a.24.24 0 0 0-.07.18c0 .02-.1.03-.28-.02zm.21-1c.14-.09.15-.08 0 0s-.13.16-.03.02zm.28 1c0-.09.07-.08.07 0s-.02.15-.1.01zm.71-1.2q0 .35-.21.21a.19.19 0 0 1 .18-.2zm-.07.71c0 .19 0 .24-.14.14v-.13zm0 0c0-.14 0-.18.14-.11s.01.12-.17.12zm.07-.71q0-.21.11-.11t-.14.12zm.28-.28a.12.12 0 0 1 .14-.14.12.12 0 0 1-.17.15zm1.06-.77a.91.91 0 0 0-.25.18 2.16 2.16 0 0 1-.32.25c.02-.26.21-.43.57-.43zm-.35 1.06a.14.14 0 0 1-.11 0h.11zm.07-1.41h.14v.21h-.14zm.42 0a.17.17 0 0 0-.14-.18c-.09 0-.09-.08 0-.18s.18 0 .25.14 0 .22-.14.22zm0 0c0 .14 0 .18-.07.11s-.07-.11.04-.11zm.42-.21h.28v.21h-.28zm.35-.11c0 .17 0 .13-.07-.11s.05-.05.05.11zm1.48 11.61s0 .06-.07 0-.05.01.05.01zm.42-14.19c-.1 0-.13 0-.11-.07s.04-.02.09.07zm0 0a.06.06 0 0 1 .07.07.06.06 0 0 1-.09-.07zM62.5 49a.63.63 0 0 1-.07.18zm0-.63q.14-.14.11.14v.35c0 .04-.13-.06-.11-.18a1.63 1.63 0 0 0 0-.32zm0-.07q0-.21.11-.07t-.11.06zm.07-.78s.07.09.07.28c0 0-.07 0-.07.07zM75.13 39a9 9 0 0 0-4.34 2.79 7.27 7.27 0 0 0-1.73 4.91 1.05 1.05 0 0 1 .28.78.44.44 0 0 0 .49.49 1.17 1.17 0 0 0 .56.92 4.36 4.36 0 0 0 .92.56 8.64 8.64 0 0 0 .78 1.06q.42.5.81 1a6 6 0 0 1 .67 1.2 4.09 4.09 0 0 1 .28 1.59 7.17 7.17 0 0 1-2.65 3.74 16.74 16.74 0 0 1-4 2.12c-.33-.14-.56-.15-.71 0a.85.85 0 0 1-.56.18 2.22 2.22 0 0 1-1.87-.6A4.24 4.24 0 0 1 62.92 58a4.38 4.38 0 0 1-.21-2 1.6 1.6 0 0 1 1.13-1.38.59.59 0 0 1-.25.39c-.12.07-.18.22-.18.46 0 0 .12.07.35.07a.52.52 0 0 0-.18.74 1 1 0 0 1 .18.74 3 3 0 0 0 2.33-.25q1.2-.6 2.26-1a4.13 4.13 0 0 1 1.41-1.52 3.17 3.17 0 0 0 1.24-2l-2.12-2.12a9.06 9.06 0 0 1-1.76-2.54 6.1 6.1 0 0 0-.07-.85.73.73 0 0 0-.42-.64 10.49 10.49 0 0 1 .39-3.92q.53-1.59 1.16-3.42a1.86 1.86 0 0 0 .81-.6 7.73 7.73 0 0 1 .88-.88 7.48 7.48 0 0 1 1-.74 1.83 1.83 0 0 1 1.31-.18 1.9 1.9 0 0 0 .85.57 8.25 8.25 0 0 1 1 .46 2.87 2.87 0 0 1 .78.6 1.34 1.34 0 0 1 .32 1.01zm3.53 4a.3.3 0 0 1-.21-.32.53.53 0 0 0-.14-.39 15.2 15.2 0 0 1 2-2A6.21 6.21 0 0 1 83 39a1.57 1.57 0 0 1 .78.57 4.85 4.85 0 0 1 2.19.85 17.41 17.41 0 0 0 1.84 1.2 5.91 5.91 0 0 1 .39 3.14 10.42 10.42 0 0 1-.92 2.9 15.18 15.18 0 0 1-1.62 2.61q-1 1.23-1.66 2.29-1.41.42-2.68.92a3.55 3.55 0 0 1-2.68-.07 5.73 5.73 0 0 1-1.41-2.47 8.17 8.17 0 0 1-.23-2.75 11 11 0 0 1 .56-2.72 14.94 14.94 0 0 1 1.1-2.47zm5.44-.71a6.54 6.54 0 0 0-3.67 3.21 11.69 11.69 0 0 0-1.34 5.33 1.58 1.58 0 0 0 .67 0 3.15 3.15 0 0 1 .67-.07 13.4 13.4 0 0 0 3.35-3.46 11 11 0 0 0 1.73-4.87 3 3 0 0 1-.21-.53 1.64 1.64 0 0 0-.21-.46c-.38-.09-.6 0-.67.21a2 2 0 0 1-.32.64zm1.27 2.26a.53.53 0 0 1 .14-.32c.09-.12 0-.18-.14-.18a.23.23 0 0 1-.07.28c-.09.1-.07.17.07.22zm.42-2.12c0 .19.07.19.07 0s-.02-.19-.06 0zm20.48 7.06a6.2 6.2 0 0 0 3.46-1 21.87 21.87 0 0 1 2.89-1.73c-.14-.09-.19-.19-.14-.28a14.08 14.08 0 0 0 3.71-2 34.61 34.61 0 0 0 3.35-2.79 4.47 4.47 0 0 0-1.31 1 2.91 2.91 0 0 1-1.73.81 9.92 9.92 0 0 1 1.66-1.34l1.8-1.13a2.4 2.4 0 0 1-.67 1.48A9.2 9.2 0 0 1 118 43.6l-1.52 1.09a4.36 4.36 0 0 0-1.2 1.27q-.5-.28-.88.28a1.65 1.65 0 0 1-.88.71 1.3 1.3 0 0 0 .92-.25 1.76 1.76 0 0 0 .64-.6h.39a1 1 0 0 1 .25.14c.09-.09.11-.18 0-.25a.29.29 0 0 1 0-.32 1.62 1.62 0 0 1 .49-.14c.09 0 .19-.09.28-.28a.44.44 0 0 0 .53.07 2.48 2.48 0 0 0 .64-.42q.32-.28.67-.56a2.11 2.11 0 0 1 .56-.35l-.89 1.48a2.44 2.44 0 0 1-1.17 1.06 2.64 2.64 0 0 1-.28.46 1.23 1.23 0 0 0-.21.39q-.85.57-1.84 1.38t-2 1.55a12.74 12.74 0 0 1-2.29 1.27 5.68 5.68 0 0 1-2.58.46 2.35 2.35 0 0 1-1.41-.46 5.52 5.52 0 0 1-1.13-1.09c0-.14-.1-.18-.14-.11s-.12.06-.21 0a5.24 5.24 0 0 1-.85-2 12.56 12.56 0 0 1-.21-2.33q0-1.2.11-2.44t.11-2.29a17.57 17.57 0 0 0-2.9 2.14 31.53 31.53 0 0 0-2.4 2.61q-1.13 1.38-2.19 2.86t-2.19 2.89a1.41 1.41 0 0 1-.74.11.71.71 0 0 0-.67.25 3.52 3.52 0 0 1-1.45-2.58 12.09 12.09 0 0 1 .25-3.25q.35-1.73.85-3.49a9.47 9.47 0 0 0 .35-3.39 2.42 2.42 0 0 1 1.52.18 3.08 3.08 0 0 1 1 .88 9.45 9.45 0 0 1-.25 2.58 24.77 24.77 0 0 0-.39 2.89 20.9 20.9 0 0 0 2-2.22 8.06 8.06 0 0 1 2.19-1.94 8.07 8.07 0 0 1-1.48 1.62 6.16 6.16 0 0 0-1.4 1.65 5.25 5.25 0 0 0 1.62-1.41 7.38 7.38 0 0 1 1.48-1.48c-.1-.09-.1-.16-.1-.22a3.2 3.2 0 0 0 1.41-.88q.78-.74 1.48-1.38a2.5 2.5 0 0 0-1.41.85 2.49 2.49 0 0 1-1.34.85 4.88 4.88 0 0 1 1.27-1.24 2.45 2.45 0 0 1 1.62-.6 1 1 0 0 1 .74-.42 1.62 1.62 0 0 1 .78.21 8.2 8.2 0 0 1 .74.46 1.85 1.85 0 0 0 .71.32 2.2 2.2 0 0 1 1.13 1.62 10.49 10.49 0 0 1 .14 2.47q-.07 1.34-.21 2.75a5.9 5.9 0 0 0 .21 2.48zm-5.58-7.91c0 .14.07.13.07 0s-.02-.18-.07 0zm.14-.14a.51.51 0 0 0 .49-.28.71.71 0 0 1-.32.07c-.11 0-.17.07-.17.21zm1.13-.71c0-.09 0-.14.07-.14s.07 0 .07-.14a.16.16 0 1 0-.14.28zm11.23 6.5c0-.14 0-.19-.14-.14s0 .21.07.21a.06.06 0 0 1 .07-.07zm0-1.2c.14-.09.15-.08 0 0s-.1.14 0-.03zm.35-.21c.14-.09.15-.08 0 0s-.09.18 0 0zm.49-.56h.21v.21H114zm1.06-.57a.41.41 0 0 1-.28.14.41.41 0 0 1 .29-.14zm1.84.28v.14a.06.06 0 0 0-.07.07h-.14V45l.07-.07zm.49-.78h.21v.14h-.21z"/><path d="M119.54 45.54v.07l-.14.21c-.14.21 0 0 .07 0a.29.29 0 0 0 .07-.21v-.07q-.77 1.13-1.54 2.46a17.48 17.48 0 0 0-1.31 3.11s.12 0 .21-.14v.28a28.47 28.47 0 0 0 5.58-5q2.4-2.82 4.87-5.51a1 1 0 0 1 1 .25 2.57 2.57 0 0 1 .46.81l.14-.14s.07 0 .07-.11 0-.15-.14-.11a1.44 1.44 0 0 1 1.09.85 3.21 3.21 0 0 1 .18 1.45q-.07.81-.25 1.77a10.22 10.22 0 0 0-.18 1.87c-.14 0-.17-.09-.07-.28a.93.93 0 0 0-.18.57 1 1 0 0 0 .11.63v.07q-.21 1.34-.49 2.61a4 4 0 0 0 .07 2.26H129a1.06 1.06 0 0 1-.07.39c0 .12 0 .22.14.32s0 .13-.11.11-.11 0-.11.11q.35.14.32.71a1.13 1.13 0 0 0 .32.92.45.45 0 0 1-.39 0q-.18-.11-.11.25a.9.9 0 0 0-.71 0 1.28 1.28 0 0 1-.39-.42.86.86 0 0 0-.53-.35 5.64 5.64 0 0 1-.71-2.15 13.05 13.05 0 0 1-.07-2.37q.07-1.2.21-2.51t.21-2.58a21.06 21.06 0 0 0-2.26 2.33q-1.06 1.27-2.19 2.44a17.87 17.87 0 0 1-2.47 2.12 7.26 7.26 0 0 1-3.08 1.17l-.78-.28a2.49 2.49 0 0 1-.78-.42c0-.19 0-.33-.28-.42a2.92 2.92 0 0 0-.71-1.83 15.89 15.89 0 0 1 2.75-7.2 29.54 29.54 0 0 1 4.87-5.51 6.42 6.42 0 0 0 .78 0 1.66 1.66 0 0 0 .64-.25 9.53 9.53 0 0 0 .88.46 7.45 7.45 0 0 1 1 .53 1.83 1.83 0 0 1 .64.71 1.37 1.37 0 0 1 0 1.06c-.1-.09-.14-.11-.14 0s0 .11-.14.11a.26.26 0 0 1-.32-.07.37.37 0 0 0-.32-.14 4.67 4.67 0 0 0-1.94 1.38 5.87 5.87 0 0 1-1.59 1.38l-.21.21s0 .14.07.28a1.58 1.58 0 0 0-1 .78 6.08 6.08 0 0 1-.88 1.03zm-4 3h.14v-.21h-.14zm1.34 2.4a.06.06 0 0 1 .07-.07s.05.06-.02.13zm.49-1.55q.14.21-.11.6a1.39 1.39 0 0 0-.25.74.69.69 0 0 1 .07-.67 1.84 1.84 0 0 0 .34-.64zm.28-.71c.24.09.28.19.14.28a.42.42 0 0 0-.21.35.21.21 0 0 1 0-.32.29.29 0 0 0 .13-.28zm.21-.35c.1-.09.08-.06 0 .11s-.08.16.06-.08zm.42-.42c0 .09-.09.14-.14.14s-.07 0-.07.14-.11-.12 0-.21a.18.18 0 0 1 .27-.04zm.21-.78c.09 0 .12.14.07.28s-.12.21-.21.21 0-.24.07-.28a.14.14 0 0 0 .13-.18zm2.19 3.18c0 .19.07.21.07.07s.04-.13-.01-.04zm.14-.21c.14 0 .18 0 .11-.07s-.05-.03-.05.1zm.21-1.76a.9.9 0 0 1 .32.07c.12 0 .15 0 .11-.14a.73.73 0 0 0-.28 0 .32.32 0 0 1-.08.09zm.42 1.76q.07-.42-.42-.42c0 .09.06.15.18.18a.33.33 0 0 1 .31.27zm0-1.91a.06.06 0 0 1 .07.07 1.3 1.3 0 0 1 .25-.42.28.28 0 0 0 0-.42.69.69 0 0 0-.14.49c0 .24 0 .26-.14.07-.02.17-.02.24.03.24zm.07 1.34v-.14h-.07v.14zm1.48-2.4q0 .42-.21.49a.89.89 0 0 0-.35.21h.25a.71.71 0 0 1 .32.07 4.23 4.23 0 0 0-1.48 1.55.48.48 0 0 0 .32 0c.12 0 .13 0 0 .18a.31.31 0 0 0 .35-.35h-.35c0-.19.08-.27.25-.25s.25 0 .25-.18.14.07.14.21 0 .17.14.07.15-.23 0-.28-.13-.07 0-.07a1.62 1.62 0 0 0 .67-.46q.39-.39.11-.53a.14.14 0 0 1 .21-.07.77.77 0 0 0 .35.07 3.57 3.57 0 0 1 .78-1.17l.92-.81h.14a2.79 2.79 0 0 1 .42-.6 4.53 4.53 0 0 0 .49-.67 3 3 0 0 0 .32-.74 1.34 1.34 0 0 0-.11-.88c0 .09-.21.09-.49 0 0 .09 0 .14.07.14s.07 0 .07.14-.26.11-.35.32a.65.65 0 0 1-.49.39.44.44 0 0 1-.14.56 1 1 0 0 1-.64.21.81.81 0 0 0-.14.46.59.59 0 0 1-.28.46l-.14-.14c0-.09.07-.15.21-.18s.14-.11 0-.25a6.42 6.42 0 0 0-1.45 1.13q-.6.63-1.17 1.27a.23.23 0 0 1 .21.14c0 .1.12.07.21-.07s0-.14-.07-.14-.12 0-.07-.14.25 0 .32.14.15.19.25 0c-.09 0-.12 0-.07-.14a.14.14 0 0 1 .3-.06zm-1.48 3h.21v-.28h-.21zm.35-2c.09 0 .11 0 0 0s.03-.03.07.02zm.14-.28q-.14.14 0 0c.23-.08.22-.08.07.02zm.14.28c.24 0 .35-.07.35-.21-.16.02-.27.08-.27.23zm.85-1c0-.24-.08-.28-.25-.14s-.25.17-.25.07a.63.63 0 0 1 .35-.18h.35a.8.8 0 0 0 0-.25.32.32 0 0 1 0-.25.4.4 0 0 1 .18.14.52.52 0 0 0 .11.14c-.1.14-.1.26 0 .35q-.21-.07-.25.11c.06.12-.03.14-.17.04zm0 1.2s-.06 0 0 .07.07.06.07-.04zm.49-1.27c.09.19.08.28 0 .28a.44.44 0 0 0-.32.14.93.93 0 0 1 .18-.25zm-.35 1.06c.09-.14.14-.15.14 0s.03.13-.07.03zm.28 1.55h.07v.14h-.07zm.07-2.61a.38.38 0 0 0 .18-.14s.08-.07.18-.07a.24.24 0 0 0-.07.18c.07.1-.03.11-.21.06zm.21-1c.14-.09.15-.08 0 0s-.02.18.08.04zm.28 1c0-.09.07-.08.07 0s.06.17.01.03zm.71-1.2q0 .35-.21.21a.19.19 0 0 1 .29-.18zm-.07.71c0 .19 0 .24-.14.14v-.11zm0 0c0-.14 0-.18.14-.11s.12.14-.06.14zm.07-.71q0-.21.11-.11t-.03.14zm.28-.28a.12.12 0 0 1 .14-.14.12.12 0 0 1-.11.17zm1.06-.78a.91.91 0 0 0-.25.18 2.16 2.16 0 0 1-.32.25c.13-.23.32-.4.65-.4zm-.35 1.06a.14.14 0 0 1-.11 0h.11zm.07-1.41h.25v.21h-.14zm.42 0a.17.17 0 0 0-.14-.18c-.09 0-.09-.08 0-.18s.18 0 .25.14.11.25-.03.25zm0 0c0 .14 0 .18-.07.11s.01-.08.15-.08zm.42-.21h.41v.21h-.28zm.35-.11c0 .17 0 .13-.07-.11s.13-.02.13.14zm1.48 11.61s0 .06-.07 0 .06.04.16.04zm.42-14.19c-.1 0-.13 0-.11-.07s.15.01.2.1zm0 0a.06.06 0 0 1 .07.07.06.06 0 0 1 .02-.04zm.71 7.41a.63.63 0 0 1-.07.18zm0-.63q.14-.14.11.14v.35c0 .04-.13-.06-.11-.18a1.63 1.63 0 0 0 .09-.28zm0-.07q0-.21.11-.07t-.02.1zm.07-.78s.07.09.07.28c0 0-.07 0-.07.07zm21.76-31.81v-.21c-.14.14-.12.21.07.21q-.92 2.4-1.91 5.22a22 22 0 0 1-2.4 4.94.75.75 0 0 1 .07.42q-2 4.66-3.92 9.07a40.62 40.62 0 0 1-4.84 8.23c0 .09 0 .15.07.18s.14.11.14.25-.21 0-.21 0 0-.13-.14-.18a14.09 14.09 0 0 0-.53 2.08q-.18 1-.32 2.15a.41.41 0 0 1-.28-.07.47.47 0 0 0 .11.49.48.48 0 0 1 .11.49c-.14 0-.21 0-.21-.21a.27.27 0 0 0 0 .42.48.48 0 0 1 .07.56c-.28 0-.38.09-.28.28s.08.08.11 0 .08-.11.18 0a1.18 1.18 0 0 1 0 .28 1.44 1.44 0 0 0 0 .35q-.21.07-.21-.07t-.21-.07c0 .33.09.47.28.42a2.69 2.69 0 0 1-.49.71q.07.28.21.18a.2.2 0 0 1 .28 0c0 .14 0 .2-.11.18a.2.2 0 0 0-.25.11.56.56 0 0 0 .07.35.12.12 0 0 0-.14.14 2.33 2.33 0 0 1 .11.25c0 .07.11.08.25 0-.14.14-.21.25-.21.32a2 2 0 0 1-.07.39c-.09.09-.14.16-.14.21s.14-.07.14-.21l.14.14q0 .14-.42.28a1 1 0 0 1 0 .71.42.42 0 0 0 .25.57q.07.35-.11.39a.33.33 0 0 0-.25.25.56.56 0 0 0 .25.32c.12.07.13.22 0 .46h-.28v.56q.07.14.11.07s.08-.07.18-.07c0 .33 0 .53-.14.6a.85.85 0 0 0-.21.53c0 .09.09.08.14 0s.12-.15.21-.11V59c-.14 0-.21 0-.21.07h-.14a2 2 0 0 1 .07.42.41.41 0 0 1-.14.28s0 .11.14.18.07.13-.07.18c0 .09.09.11.14 0s.12-.06.21 0a.49.49 0 0 0 0 .42.2.2 0 0 1 0 .28c-.1.09-.15.11-.18 0a.32.32 0 0 0-.18-.18c0 .19 0 .29.07.32s.12.11.07.25h-.42a1.61 1.61 0 0 0 .32.18c.07 0 .18 0 .32-.11a1.13 1.13 0 0 1 .07.67 1.94 1.94 0 0 0 0 .74h-.28a1.39 1.39 0 0 1 .32.74 1.2 1.2 0 0 0 .39.74.61.61 0 0 0 0 .53l.21.35q.11.18.21.39a1.27 1.27 0 0 1 .11.56.5.5 0 0 0-.42 0 .57.57 0 0 1-.35.11 1.7 1.7 0 0 0-.74-.53 1 1 0 0 1-.6-.74c-.14 0-.22 0-.25.07s-.11.07-.25.07A14.67 14.67 0 0 1 133.8 61a28.34 28.34 0 0 1-.21-4.45 41 41 0 0 1 .35-4.27q.28-2 .49-3.53a.69.69 0 0 1-.14-.74c.09-.31.19-.58.28-.81a9.6 9.6 0 0 1 .14-2.33 8.69 8.69 0 0 0 .14-2.19 1.18 1.18 0 0 0 .35-.14.63.63 0 0 1-.18-.28q0-.14.32-.14a27.72 27.72 0 0 1 .6-3.88q.46-2 .74-3.88s.07-.09.07-.28a.41.41 0 0 0-.07.28c-.19 0-.25-.08-.18-.25s.2-.2.39-.11a1.62 1.62 0 0 1 .11-1 .89.89 0 0 0 0-.85q.14-.42.39-1.48a7.9 7.9 0 0 0 .25-1.41c0-.19 0-.24.07-.14a.22.22 0 0 0 .21.14.31.31 0 0 0 .07-.42.23.23 0 0 1 .07-.35v-.07c0 .05-.08.07-.18.07a2.36 2.36 0 0 0 .46-1.34 2.12 2.12 0 0 1 .53-1.34v-1.14q0-.67.35-.81a1 1 0 0 0 .11-.53q0-.18.25-.32s-.09-.07-.28-.07a2.5 2.5 0 0 0 .21-.67l.14-.78a1.89 1.89 0 0 1 .25-.67.58.58 0 0 1 .53-.28c-.09-.09-.13-.18-.11-.25a1.86 1.86 0 0 1 .11-.25c-.14 0-.2.07-.18.21s0 .21-.11.21a.4.4 0 0 1-.14-.42 1.77 1.77 0 0 1 .25-.46 1.63 1.63 0 0 0 .25-.49.45.45 0 0 0-.14-.46.28.28 0 0 0 .14-.28c0-.14.09-.19.28-.14a2 2 0 0 1 0-1.13 1.69 1.69 0 0 1 .53-.85.37.37 0 0 0 0-.32.43.43 0 0 1-.07-.25q1.13-2.68 2.08-5.4a22.2 22.2 0 0 1 2.58-5.12q.78-1.48 1.66-2.89A5.41 5.41 0 0 1 150 .14v.25c0 .03.07.08.07.18s.11-.12 0-.21a.25.25 0 0 1 0-.28 4.83 4.83 0 0 1 2.44.21 3.16 3.16 0 0 1 1.8 1.41h-.28a.55.55 0 0 1 .53.53 4.71 4.71 0 0 0 .18 1 .48.48 0 0 1-.21 0s-.09 0-.14.18.12.07.35.07a1.1 1.1 0 0 0 0 .49 4.7 4.7 0 0 1 0 .57l-.18.11-.18.11a4 4 0 0 1 .18.71 3.08 3.08 0 0 1-.11.92.16.16 0 0 1-.18 0c-.07 0-.13 0-.18.11a5.1 5.1 0 0 1-.32 2.65q-.53 1.45-1 2.58a1.39 1.39 0 0 1-.14 1.06 4 4 0 0 1-.64.85c.19.28.14.45-.14.49a1.17 1.17 0 0 1-.07.88 4.09 4.09 0 0 1-.4.66zm-17.15 42.72a1.1 1.1 0 0 1 .07-.67.56.56 0 0 0-.07-.6 2 2 0 0 0-.11.6 1.09 1.09 0 0 0 .11.67zm0-2a1.2 1.2 0 0 0 .14-.74q0-.6-.21-.46c.19.14.21.34.07.6s-.14.48 0 .62zm-.07 2.12q-.07.35.11.18t-.11-.16zm.07 1.41v.17-.18s.04-.02 0 .03zm.14-5.65c0 .09-.07.13-.07.11a.26.26 0 0 1 0-.11.44.44 0 0 1 .07-.11s.04.04 0 .13zm.14-.71a.6.6 0 0 1 .07-.5.31.31 0 0 0-.07-.42.68.68 0 0 1-.07.53.26.26 0 0 0 .07.42zm0-1.13c-.09.14-.08.15 0 0s.14-.07 0 .03zm.07 5.29a.33.33 0 0 0 .11-.32.32.32 0 0 0-.18-.25.45.45 0 0 1 0 .35c-.05.18-.02.25.07.25zm.07-1.2a1.16 1.16 0 0 1 0-.28c0-.09 0-.09-.18 0s.09.31.18.31zm-.14 1.48c.1.14.14.13.14 0s-.05-.15-.14 0zm0 1.34c0 .19.07.19.07 0s-.02-.15-.07.04zm0 .35v.14-.14s.05-.01 0 .04zm.07-7.48c.09 0 .14-.21.14-.49s0-.38-.14-.28a.4.4 0 0 1 0 .46.21.21 0 0 0 0 .35zm0 3.18c.14 0 .21 0 .21-.18s-.07-.2-.21-.11zm.07-.56c.09.19.14.2.14 0s-.04-.11-.14.03zm.14-4a.6.6 0 0 0 .11-.32c0-.16 0-.25-.11-.25a.23.23 0 0 1-.07.28q-.14.22.07.36zm.07 2.19c-.09 0-.12.08-.07.11s.07 0 .07-.11.1-.26 0-.35-.09.09 0 .42zm0-3a.47.47 0 0 0 .11-.25c0-.12 0-.15-.18-.11 0 .34.03.47.07.47zm.07-.49a.64.64 0 0 1 .07-.28.14.14 0 0 0-.07-.21.23.23 0 0 1-.07.28c-.09.2-.07.27.07.31zm-.07 2.4q.28.07.14-.07c-.09.01-.14.03-.14.14zm.14-3.18a.43.43 0 0 1 .11-.42c.12-.14.08-.26-.11-.35a.46.46 0 0 1-.07.42.23.23 0 0 0 .07.46zm0 7.94c.12-.17.13-.18 0 0s-.15.31 0 .11zm0 2.89q.07-.32 0 0t-.07.11zm.07-8.22s.08-.06.11-.18A.2.2 0 0 0 135 51a.19.19 0 0 1 0 .25c-.1.11-.09.17 0 .22zm.14 4.52c0-.19 0-.19-.14 0 .03.29.07.29.07.12zm-.07-8.54a.28.28 0 0 0 .21-.28.48.48 0 0 1 .14-.35.23.23 0 0 0-.25.21 2.69 2.69 0 0 1-.17.52zm.21 2.68a.32.32 0 0 0-.18.21.17.17 0 0 0 .11.21s.07-.19.07-.42h.07v-.28c0-.09 0-.12-.14-.07a.32.32 0 0 0 .01.46zm-.07 4.66c0 .14.08.14.11 0s-.08-.03-.18.11zm.21-6.11q.14-.11-.14 0c0 .19 0 .28.07.28a.18.18 0 0 1 .01-.17zm-.14.81v.14-.14s-.02.07-.06.11zm.11-3.35c.12-.12.11-.13 0 0s-.19.23-.07.11zm.67-4.91h-.14c.09.09.09.18 0 .25s-.09.13 0 .18a.58.58 0 0 0 .14-.42 5.56 5.56 0 0 0 .25-.81 1.6 1.6 0 0 0 0-.88 1.47 1.47 0 0 0-.11.71.76.76 0 0 1-.25.63c.09 0 .13.09.11.14a.25.25 0 0 0-.07.31zm.21 15.11q-.14.07-.07.07a.06.06 0 0 0 .07-.07c.09 0 .12-.08.07-.11s-.14.13-.14.22zm-.07 1.2c0 .14.07.13.07 0s-.09-.08-.14.11zm.14 1.55q.21.14.21.21h-.21zm.42-21.82a8.44 8.44 0 0 1-.25 1.2 1.59 1.59 0 0 0 0 1q.07-.42.21-1a3.3 3.3 0 0 0 .07-1.17 11.08 11.08 0 0 0 .39-1.31 2.22 2.22 0 0 0 0-1.17q-.14.57-.25 1.17t-.23 1.4zm-.28 17.51c.14 0 .21.09.21.28-.25.12-.32.05-.27-.16zm0-14c0 .14.08.13.11 0s-.08-.12-.17.07zm.14 13.7c.09 0 .12.09.07.14a.2.2 0 0 0-.07.14q-.14-.07-.07-.11s.01-.01.01-.11zm-.07-14.12q.14.21.14 0t-.2.06zm.07-.35c.09.14.14.14.14 0s-.11-.08-.2.1zm.14-.35c0-.09 0-.14.07-.14a.12.12 0 0 0 .14-.14c-.14 0-.17 0-.07-.14h-.21a.38.38 0 0 1 0 .32c-.11.17-.09.21.01.16zm-.07 12.85q.35-.14.14.07t-.2-.01zm.01-13.4q-.14.21 0 0c.15-.11.14-.12 0 0zm0 13.27q.14-.28.14 0t-.14-.02zm.28-14.33c-.1 0-.15.17-.18.35a.48.48 0 0 0 .11.42v-.39c0-.07.08-.2 0-.39h.07c-.05 0 0-.06 0-.02zM137 61.85h.14V62H137zm.07-24.36v.17-.18s.03-.04-.02.01zm.21-.32c0-.17 0-.15-.14 0q.12.25.12 0zm-.07 16.63c.14-.09.15-.08 0 0s-.11.14-.02 0zm.14-17q0-.25-.14 0 .12.2.12-.05zm-.14 10.06c.09.19.14.2.14 0s-.06-.19-.16-.05zm.28-8.33h.14v.14h.21c0-.09-.07-.14-.21-.14s0-.14-.07-.14-.07 0-.07.14c-.09-.19-.18-.2-.25 0s0 .27.11.32 0-.14.11-.14.06-.14.01-.23zm-.21-4.09a.29.29 0 0 0 .14.35.29.29 0 0 1 0-.32c.07-.07.08-.2 0-.39s.12-.07.07-.07a.06.06 0 0 0-.07.07.88.88 0 0 0-.16.3zm.07 17.3c0-.14 0-.17.14-.07s.03.06-.16.01zm.14-16q.35-.28.07-.32c-.2-.11-.23 0-.09.23zm.07-.42a.76.76 0 0 1 .14-.28s0-.12-.14-.21a.25.25 0 0 1 0 .28c-.12 0-.11.07-.02.12zm-.07 2.47c0 .19.07.19.07 0s-.04-.28-.09-.09zm.07-3.81a3.62 3.62 0 0 1 .21-.85 1.11 1.11 0 0 0 0-.78 2.2 2.2 0 0 1-.18.85 1 1 0 0 0-.05.69zm.07.56c.14 0 .22 0 .25-.11a.2.2 0 0 0-.11-.25c0 .09 0 .15-.07.18s-.08 0-.08.09zm0 2.19c.09.19.14.2.14 0s-.06-.23-.15-.09zm0 11.72c0-.14.11-.17.18-.07s-.01.03-.19-.02zm.21-14.47c-.09 0-.12.07-.07.07a.06.06 0 0 0 .07-.07h.07a.49.49 0 0 0 .11-.25c0-.12 0-.18-.11-.18a.42.42 0 0 0-.08.34zm-.08 2.02q.28.07.14-.07c-.1-.09-.14-.06-.14.07zm0 .21c0 .19.07.2.07 0s-.03-.13-.07.01zm.71-6.78a3.36 3.36 0 0 0-.42 1.27q-.07.64-.21 1.41a3.4 3.4 0 0 0 .42-1.27q.07-.63.21-1.41c.14-.09.16-.18.07-.25s-.13.03-.08.26zm-.64 17.79h.17v.21h-.14zm0 .42c0-.14.07-.13.07 0s-.03.2-.07.02zm.17-12.41a.18.18 0 0 1 0-.23c.09-.07.07-.13-.07-.18a.2.2 0 0 1 0 .25c-.07.05-.06.11.07.16zm.28-3h-.07c0 .09 0 .15-.07.18s-.07.08-.07.18-.09 0 0 .14.09 0 0-.14c.14 0 .21-.12.21-.35a.18.18 0 0 0 0-.28q-.17-.12-.03.3zm-.28.85c.09.19.14.19.14 0s-.08-.16-.14.03zm0 3.25c.09 0 .12 0 .07.07h.21c0-.19 0-.28-.07-.28s0 .13-.11.11-.1.04-.1.13zm.07-2q.14.28.14 0t-.21-.02zm0 11.16h.21v.21H138zm.14-9.53c0 .14.07.13.07 0s-.05-.21-.1-.02zm.07-.21c.09.09.15 0 .18-.14s0-.28-.11-.28 0 .22 0 .25-.15.05-.1.14zm0-4q.21.07.32-.32c.07-.26 0-.41-.18-.46a.64.64 0 0 1 0 .42 2.68 2.68 0 0 0-.17.31zm.14 6.14a3.55 3.55 0 0 1 0-.42c0-.19 0-.21-.11-.07a3.85 3.85 0 0 1 0 .42q-.06.23.08.02zm0-5.51q.14.28.14 0t-.17-.04zm.35 4.09a.46.46 0 0 1-.11-.35c0-.09.06-.21.11-.35q-.35-.07-.32.42t.3.24zm-.07-5.79a.2.2 0 0 1 0-.25c.07-.07.06-.13 0-.18a.48.48 0 0 0-.11.25c-.05.08-.01.14.08.14zm0 2.9q-.21.21 0 .21t-.03-.25zm.07-3.46c0-.14 0-.24-.07-.28a.28.28 0 0 1 0 .18.14.14 0 0 0 0 .11zm-.14 2c0 .14.07.13.07 0s-.05-.18-.1 0zm0 4.73c0 .19.07.19.07 0s-.05-.18-.1 0zm.14-8.33a.67.67 0 0 1 .14-.6.47.47 0 0 0 0-.6.76.76 0 0 1-.14.63.43.43 0 0 0-.02.57zm.14 7.06q.14-.42-.21-.28v.18a.47.47 0 0 1 .19.1zm-.21-1.27h.42a.37.37 0 0 1 .11-.49c.16-.14.13-.26-.11-.35a.48.48 0 0 1-.12.53 1.55 1.55 0 0 0-.33.31zm.14-4.66c-.09 0-.12.07-.07.07a.06.06 0 0 0 .07-.07h.07v-.25a.16.16 0 0 0 .11-.18c-.14 0-.2 0-.18.11a.49.49 0 0 1-.02.32zm0 3.74h-.07.07s.12-.08.07-.11-.09.02-.09.11zm.07 1.34a.46.46 0 0 0 .11-.21c0-.09 0-.14-.11-.14a.55.55 0 0 1-.07.21c-.07.1-.05.15.05.15zm-.07-1.91c.09.19.14.2.14 0s-.07-.13-.16.01zm.07-2.26c0 .24 0 .25 0 0s.02-.18-.02.01zm.21 1.34h-.21q0 .42.21.49v-.49c.19 0 .23 0 .14-.14s-.16-.04-.16.15zm-.21 4.66a.58.58 0 0 0 .35-.21c-.26.01-.37.08-.37.22zm.21-9.74c0-.09.09-.2.14-.32a.28.28 0 0 0-.07-.32.53.53 0 0 1-.14.32c-.12.13-.05.23.05.33zm0 1.66c.14-.12.12-.18-.07-.18-.12.25-.05.31.05.19zM139 27c0 .24-.06.25 0 0s0-.15 0 0zm.07.92q.14.14.18-.11c0-.17 0-.25-.11-.25s0 .15-.07.18-.02.12.03.26zm.07 8.12a.2.2 0 0 1 .07-.14s0-.09-.07-.14 0 .15-.07.18 0 .06.1.14zm-.07-2.89q.21.21.18 0t-.15.03zm.14-.42c.14 0 .22-.11.25-.32s0-.32-.18-.32a.25.25 0 0 1 0 .28.37.37 0 0 0-.04.39zm.07-7.13q-.14.21 0 .35t0-.35h.14a2.12 2.12 0 0 0 .25-.67 1.1 1.1 0 0 0 0-.74 6.25 6.25 0 0 1-.36 1.44zm7.13-16.1c-.09 0-.11.11 0 .18s.08 0 0-.18c.09 0 .14 0 .14-.07s0-.07.14-.07a1 1 0 0 1-.11.85q-.25.5-.53.14a2.68 2.68 0 0 1-.28 1 3.28 3.28 0 0 1-.56.74q.28-.07.32.07a1.31 1.31 0 0 0 .11.28.33.33 0 0 0-.11.32c0 .12-.08.13-.32 0a24.17 24.17 0 0 1-.56 2.44 4.23 4.23 0 0 1-1.34 2.08.38.38 0 0 0 .28-.18c.09-.12.19-.11.28 0q-.78 2.47-1.27 4.34t-1.27 4.13A4.77 4.77 0 0 1 141 28a6.25 6.25 0 0 0-.49 2.4c-.19 0-.27.13-.25.25s.06.27.11.46a.37.37 0 0 0-.39-.07.37.37 0 0 1-.39-.07q.07.28.42.21c.24 0 .35 0 .35.21a.64.64 0 0 0-.35.35 1.44 1.44 0 0 0-.07.46 3.56 3.56 0 0 1 0 .49.81.81 0 0 1-.25.46 3.87 3.87 0 0 1 0 1.06 2.56 2.56 0 0 1-.42 1.27c.09 0 .14 0 .14.11s0 .18.14.18a14.82 14.82 0 0 0 1.27-2.4 10.62 10.62 0 0 1 1.34-2.33 10.33 10.33 0 0 1-.56 1.31c-.19.35-.4.77-.64 1.24l.25.11.25.11a.88.88 0 0 0 .25-.35 1.32 1.32 0 0 0 0-.49c.38 0 .59-.14.64-.42l.14-.85c.23 0 .36 0 .39-.21a.7.7 0 0 1 .18-.42.2.2 0 0 1 .11.25c0 .12.06.13.25 0-.24-.23-.26-.38-.07-.42s.23-.26.14-.64c.19 0 .28-.07.28-.21s.09-.21.28-.21a.46.46 0 0 1 0-.49q.14-.21.56-.07a.35.35 0 0 1 .07-.35.34.34 0 0 0-.25.11c-.07.07-.11 0-.11-.18a2.82 2.82 0 0 1 .46-.25c.16-.07.2-.22.11-.46a1.35 1.35 0 0 0-.11.28c0 .09-.08.09-.18 0a6.53 6.53 0 0 0 1.38-1.87 9.19 9.19 0 0 0 .81-2.08c0 .09-.07.14-.21.14a1.31 1.31 0 0 1 .35-1c.23-.21.47-.43.71-.67a.14.14 0 0 0-.21.07c0 .09-.09.07-.14-.07a1.54 1.54 0 0 1 .21-.56.76.76 0 0 0 .14-.42q.14-.07.18 0s.08.07.18.07a.29.29 0 0 1 .14-.35q.21-.14 0-.28a.23.23 0 0 1-.14.21c-.1 0-.14 0-.14-.07s.18-.34.25-.46.22-.18.46-.18q-.07-.35.11-.46a.6.6 0 0 0 .25-.39.18.18 0 0 0-.25.07c-.07.1-.13.07-.18-.07a2.76 2.76 0 0 1 .78-1.24 1.22 1.22 0 0 0 .28-1.38 2.13 2.13 0 0 0 .32-.25l.25-.25c0-.14 0-.2-.14-.18s-.19 0-.14-.11.22-.29.39-.18.27 0 .32-.39c-.24 0-.35 0-.35-.07s0-.31.14-.35a1.11 1.11 0 0 0 .28-.21c0 .09.11.14.18.14a.57.57 0 0 1 .25.07q.14-.28-.14-.32c-.19 0-.28 0-.28.11a.9.9 0 0 1 .11-.85 4.36 4.36 0 0 0 .46-.63 1 1 0 0 1 .14-.85q.28-.56.56-.42a7 7 0 0 1 .35-2.15l.74-2.33a25.67 25.67 0 0 0 .67-2.65 10.74 10.74 0 0 0 .14-3 8 8 0 0 0-.35 1.31 2.4 2.4 0 0 0 .07 1.31l-.21.21s-.17 0-.35-.07v.39a.43.43 0 0 0-.11.32.23.23 0 0 0 .28.07q.14-.07.21 0c-.09.33-.28.4-.56.21a3.79 3.79 0 0 1-.39 1 1.27 1.27 0 0 0-.11 1c.19 0 .28 0 .28.14s-.06 0 0 .07 0 .07-.11.07-.17-.09-.35-.28a32.67 32.67 0 0 1-1.66 4.66q-1 2.12-1.94 4.24a21.45 21.45 0 0 1-1.55 4.38q-.92 1.84-1.84 3.88c.09.09.18.12.25.07s.15 0 .25.07a.45.45 0 0 0 0 .35c0 .14 0 .24-.07.28a.48.48 0 0 0-.35-.14.19.19 0 0 1-.21-.21h.21s0 .11.14.11 0-.19-.18-.28-.22 0-.18.14h-.07q-.57 1.48-1.2 2.82a10.39 10.39 0 0 1-1.65 2.31 26.77 26.77 0 0 1 2-4.55 18.48 18.48 0 0 0 1.8-4.48 46.37 46.37 0 0 0 3.21-7.24q1.31-3.78 2.65-7.52a4.07 4.07 0 0 1 .07-1.31q.14-.67.28-1.41a8.12 8.12 0 0 0 .16-1.49 3.74 3.74 0 0 0-.35-1.55A8.77 8.77 0 0 0 149 4c.09 0 .14.11.14.18a.56.56 0 0 0 .07.25 1.23 1.23 0 0 1-.39.28.94.94 0 0 0-.32.21q.14.07.07.18t-.21 0a5.09 5.09 0 0 1-.92 2.12 5.91 5.91 0 0 0-1 2.31zM139.24 27a.28.28 0 0 0 .39-.28q0-.35-.11-.42a1.37 1.37 0 0 1-.28.7zm.28 4.8a.28.28 0 0 1 .07-.21.29.29 0 0 0 .07-.21.11.11 0 0 1-.11-.07h-.11c-.05 0 0 .24 0 .28s-.01.16.08.25zm.35-6.5a1.54 1.54 0 0 0-.28.46q-.14.32.07.46-.07-.35.07-.46a.56.56 0 0 0 .14-.46 1.61 1.61 0 0 1 .21-.35c-.23-.05-.3.05-.21.4zm-.21-2.82c-.1 0-.12.07-.07.07a.06.06 0 0 0 .07-.07h.07a.32.32 0 0 1 .07-.35c.09-.09.07-.16-.07-.21a.44.44 0 0 1-.07.25.36.36 0 0 0 0 .35zm.07 7.55c-.14.19-.15.2 0 0s.1-.09 0 .05zm0 .85q.28-.28-.07-.42a.31.31 0 0 1 0 .28c-.04.14-.02.18.07.18zm1.2-9.6h-.07q-.07.21-.14.5t-.35 0a2 2 0 0 1-.18.39.59.59 0 0 0 0 .46h-.07a.86.86 0 0 1-.18.56.64.64 0 0 0 0 .64c-.14 0-.17 0-.07.14s.12 0 .07-.14a1.19 1.19 0 0 0 .18-.53c0-.21.06-.43.11-.67a1.07 1.07 0 0 1 .78-.71v-.64c.14 0 .16 0 .07-.14s-.19-.01-.15.18zM140 32.12q.21.14 0 .18c-.13.02-.13-.04 0-.18zm-.07-11.23c0 .19.07.19.07 0s0-.18-.05.01zm0 3.74h.14v-.13h-.14zm.07 4.8q.28.14.14 0c-.08-.08-.14-.08-.14.01zm.14-5.08a.34.34 0 0 1 .11-.25c.07-.07 0-.13-.11-.18a.2.2 0 0 1 0 .25c-.09.08-.08.14.02.19zm.21-.07c0 .24-.06.25 0 0s.02-.18.02.01zm.07-.92a.53.53 0 0 1 .18-.53c.16-.17.15-.29 0-.39a.75.75 0 0 0-.18.46.86.86 0 0 0 .02.47zm.14 6.57c.09.09 0 .12-.14.07.02-.14.07-.16.16-.06zm-.07-8.19a.89.89 0 0 1 .18-.53.38.38 0 0 0 0-.46.9.9 0 0 1-.18.53.37.37 0 0 0 .02.47zm0-2.68q.14.28.14 0t-.12 0zm.21.49c-.09-.09-.17-.14-.21-.14s0 .21.07.21.07-.06.16-.06zm.14 3.25h-.07.07s.12-.08.07-.11-.05.02-.05.11zm.14-3a.55.55 0 0 0-.21.49c.14 0 .21-.16.21-.49h.14a1.36 1.36 0 0 1 .11-.42q.11-.28 0-.35a1.09 1.09 0 0 0-.23.81zm.14 1.27c.09 0 .12-.14.07-.28s-.12-.14-.21 0c.14 0 .15 0 0 .11s.02.16.17.21zm0 3.88c-.09.14-.08.15 0 0s.17-.05.03.05zm.21-4.73c0-.14 0-.14-.14 0 .12.18.17.18.17.04zm-.07-1.48c0 .19.07.19.07 0s0-.15-.04.04zm.07-.21c.09.14.14.13.14 0s-.02-.15-.11.04zm.07-2.33q.14.28.14 0t-.11.04zm.21 1.77a.58.58 0 0 1 .42-.14c-.24 0-.31-.14-.21-.28a.47.47 0 0 0 0-.49 4 4 0 0 1-.21.49q-.11.31.03.45zm0 .85c-.09.14-.08.15 0 0s.17-.06.03.03zm.07-.14q.28.07.14-.07c-.06-.07-.11-.04-.11.1zm.07-3.32a1.28 1.28 0 0 0 .42-.64.49.49 0 0 0-.39.25q-.14.28 0 .42zm.21 3.46l-.14.14.18-.18zm-.07 2.89a.06.06 0 0 0 .07-.07c-.06.08-.09.11-.04.11zm.07-4.87c0 .14.08.13.11 0s.02-.15-.07.03zm.07-.28c0 .19.07.19.07 0s.01-.16-.04.03zm0 14.9c.19 0 .26.09.21.28h-.21zm.07-10.17h.14v-.14h-.14zm.14-.63q-.21.28 0 0c.12-.1.13-.12.03.03zm.11-6.39q0-.18-.18-.11c0 .24 0 .35.07.35a.49.49 0 0 0 .14-.21zm-.18 2.86c.09.14.14.14.14 0s-.01-.13-.11.03zm.07.78h.18c-.07 0-.1-.07-.15.02zm.14 2.33v.14c.09.09.15.07.18-.07s0-.21-.11-.21.01.16-.03.16zm.14-6.57a.2.2 0 0 1 .07-.14s0-.07-.07-.07a.11.11 0 0 1-.07.11s.01.08.11.13zm-.07 1.55v.14c.09.09.15.07.18-.07s0-.19-.11-.14a.06.06 0 0 1-.03.1zm.07 1.69h.14v-.21h-.14zm.14-4c.09.09.07.14-.07.14v.14h.14a.57.57 0 0 1 .07-.25zm.35 17.3c.09 0 .14 0 .14.07a.53.53 0 0 0 .07.21.14.14 0 0 1-.11 0 .15.15 0 0 0-.11 0zm.07-18.14q.14.28.14 0c.04-.13 0-.14-.1 0zm.28 1.06c-.09 0-.12.07-.07.07a.06.06 0 0 0 .07-.07c.19 0 .23-.11.14-.18s-.1-.01-.1.18zm-.07 16.94h.14v.14h-.14zm.07-.64q.14-.21.14 0t-.1.01zm.14-16.8h.21v-.21h-.21zm.56-.56c0-.09 0-.14-.11-.14a.24.24 0 0 1-.18-.07V12a.58.58 0 0 1 .34.07zm-.21.14q-.07.35.11.18c.16-.12.13-.18-.06-.18zm.21 17.37c-.1.14-.08.15 0 0s.19-.09.05 0zm.14-20.12h-.07c-.14.14-.14.24 0 .28a.14.14 0 0 1 0-.11.28.28 0 0 0 0-.18c.14 0 .16 0 .07-.14s0-.04.05.15zm-.09 5.54q.07.21.11 0t-.11 0zm.07 13.06c.19 0 .26.09.21.28h-.21zm.21-19a.14.14 0 0 1 .07-.21c.09 0 .07-.07-.07-.07a.2.2 0 0 0-.07.14c0 .14.03.19.07.19zm.14 1.91c.19 0 .24 0 .14-.07s-.14-.03-.14.1zm0 1.91c0 .19.07.2.07 0s-.02-.1-.07.04zm.14 14.79c0 .17 0 .22-.14.18v-.28c.1-.06.15-.02.15.14zm.07-15.21h.26v-.14h-.21zM145.1 9a.06.06 0 0 0 .07-.07h.21v-.25a.19.19 0 0 0-.21.21c-.1.05-.12.11-.07.11zm.35 1.69c0 .19.07.19.07 0s-.02-.22-.07-.03zm.07 16.87c-.1.14-.08.15 0 0s.14-.12 0-.03zm.07-2.61h.21v.28h-.21zm.21 1.06c0-.09 0-.11.14 0s.06-.01-.13-.01zm.07-2c.09 0 .14 0 .14.07a.06.06 0 0 0 .07.07.41.41 0 0 1-.14.28q-.14.07-.11-.11a1.64 1.64 0 0 0 .05-.39zm.14-.21c0-.09.13-.12.25-.07s.15.12.11.21-.15 0-.18 0a.16.16 0 0 0-.19-.22zm.22-13.8s.07 0 .07-.11-.12.11-.07.11zm.28 14.65a.21.21 0 0 1-.07.14s-.07 0-.07-.07.05-.08.14-.08zm.64-2.82c0 .19-.17.24-.35.14-.01-.2.11-.25.35-.15zm-.28 2.4a.15.15 0 0 1 .11 0 .14.14 0 0 0 .11 0v-.14a.14.14 0 0 1-.11 0 .15.15 0 0 0-.11 0v.07s-.01.01-.01.06zm1.06-4a.24.24 0 0 1-.11.21c-.07 0-.15 0-.25-.07s.12-.2.35-.11zm.28.14h.28c0 .14 0 .21-.07.21s-.12.07-.07.21c-.14 0-.19-.09-.14-.14s.04-.11 0-.25zm.28-2.26c.19 0 .28 0 .28.21-.19.04-.28-.03-.28-.18zm.35-13.7a.11.11 0 0 1 .07-.11s0-.06-.07-.11a.2.2 0 0 1-.07.14s-.02.12.07.12zm.16 12.68h-.14v-.14l.07-.07c.07-.01.07.06.07.21zm0-.78c.09.1.15.12.18.07s.08-.07.18-.07v.21a.06.06 0 0 0-.07.07.29.29 0 0 0-.21-.07c-.08 0-.15-.07-.08-.21zm.49-.63c.14-.09.15-.08 0 0s-.11.13-.01-.01zm0 .35q.14-.28.14 0c-.01.13-.06.14-.15-.03zm.41-1.03c.14-.09.15-.08 0 0s-.09.11 0 0zm.21-1.06c0-.09 0-.13.11-.11s.11.06.11.11 0 .14-.11.14-.16-.08-.11-.17zm.35-1h.14v.21h-.14zm.42-1c.14 0 .21.09.21.28q-.07-.14-.18-.14c-.06-.01-.07-.08-.02-.15zm.42 1.62q.14.21.11 0t-.1 0zm.07-2.33c0-.14.07-.13.07 0s-.01.18-.06 0zm.14-.85h.28c0 .28-.09.4-.28.35zm.28 2c.09.14.14.14.14 0s-.03-.09-.12.05zm.14-3.11a.19.19 0 0 1 .21.21c-.14.1-.19.03-.19-.16zm.85-1.91a.35.35 0 0 1-.35-.07.25.25 0 0 1 .25-.14c.13.05.16.12.11.26zm.07-2.26q.21.21.18 0t-.16.05zm.21 1.34c.19.09.21.21.07.35a.16.16 0 0 1-.18-.11c0-.01.05-.09.13-.18zm0-2q-.21.28 0 .32t.02-.31zm.21 4.66a.4.4 0 0 0 .28-.14.41.41 0 0 0-.26.15zm1.22-6.1q.14.28.14 0t-.14 0zm22.17 40.77v-.21a.22.22 0 0 0-.25.18 1.32 1.32 0 0 1-.11.32c.14 0 .21 0 .21-.11s0-.18.14-.18c.09.24 0 .37-.14.39a.38.38 0 0 0-.35.25c0 .14 0 .17.14.07s.12 0 .07.14a.35.35 0 0 0-.18.28c0 .14-.13.21-.32.21V45a.06.06 0 0 0-.07.07.06.06 0 0 0 .07.07v.35a.79.79 0 0 0-.14.21q-.07.14.07 0c.09-.09.14-.07.14.07a.67.67 0 0 1-.18.42c-.12.14-.22.26-.32.35a.62.62 0 0 0-.18.32.52.52 0 0 0 .11.39.23.23 0 0 1-.28-.07.24.24 0 0 0 .11.21c.07 0 .08.12 0 .21s-.21 0-.21-.07 0-.09-.14 0 0 .2.11.18a1.63 1.63 0 0 1 .32 0 .72.72 0 0 0-.32.81.51.51 0 0 1-.39.67c0 .14 0 .21.07.21s.14.07.14.21c-.14-.09-.22-.12-.25-.07a.39.39 0 0 0 0 .18.68.68 0 0 1 0 .21c0 .07-.11.11-.25.11s0 .13.14.11.14 0 .14 0a18.73 18.73 0 0 0-.56 2.79q-.21 1.59-.42 3.21a4.3 4.3 0 0 0 .25 1 2.85 2.85 0 0 1 .18 1 1.12 1.12 0 0 0 .28.21 1.06 1.06 0 0 1 .28.21 9.44 9.44 0 0 0 2.65-.21 12 12 0 0 0 2.22-.78q1.06-.49 2.08-1t2.08-1a.19.19 0 0 0 .21-.21 18.19 18.19 0 0 0 3.32-1.66 23.64 23.64 0 0 1 3.22-1.71 1.25 1.25 0 0 1 0 .88 2.4 2.4 0 0 1-.49.71 6.87 6.87 0 0 1-.64.56 2.8 2.8 0 0 0-.53.53c.14-.14.14-.24 0-.28a.82.82 0 0 1-.42.67q-.35.18-.71.39.28.56-.14.71a.85.85 0 0 0-.56.57c-.09-.14-.28-.13-.56 0s-.4.32-.35.46.09.07.14-.07.14-.14.28 0a2.15 2.15 0 0 1-1.06.85 11.38 11.38 0 0 0-1.34.64 17.52 17.52 0 0 1-3.42 1.8q-1.87.74-3.71 1.31a6.45 6.45 0 0 0-1.48-.53 1.71 1.71 0 0 1-1.13-.74q-.14-.07-.18 0c0 .07-.11.08-.25 0a6.5 6.5 0 0 1-.49-.71 1.14 1.14 0 0 0-.71-.49 30 30 0 0 1-1.13-3.26 11.8 11.8 0 0 1-.32-3.81q.21-1.27.46-2.44t.67-2.72c0-.14-.11-.16-.18-.07s-.1.04-.1.04c0-.38.12-.6.21-.67s.26-.18.49-.32a2.19 2.19 0 0 1 .39-1.34 1.37 1.37 0 0 0 .18-1.34 3.5 3.5 0 0 1 .39-.71 1 1 0 0 0 .11-.85 3.05 3.05 0 0 1-1.31-.32 1.59 1.59 0 0 1-.88-1 2.55 2.55 0 0 1-1.2-1.06V38.2a4 4 0 0 1 .49-.21 5.11 5.11 0 0 1 .56-.14l.46.32a1.25 1.25 0 0 1 .39.46 11.53 11.53 0 0 1 1.8 0 3.21 3.21 0 0 0 1.45-.14 2.25 2.25 0 0 0-.14-.63.28.28 0 0 0-.14.28 2.91 2.91 0 0 1 .64-1.24 1.53 1.53 0 0 0 .28-1.52 3.35 3.35 0 0 0 .83-1.28s0-.06-.07 0a.38.38 0 0 0-.14.18c-.09-.09-.08-.24 0-.42a1 1 0 0 1 .32-.35.24.24 0 0 1-.11.21c-.07 0-.08.14 0 .28a4.44 4.44 0 0 0 .56-.92c0-.09 0-.14-.11-.14s-.11 0-.11.14a.88.88 0 0 1 .21-.88 1.47 1.47 0 0 0 .35-1c.09 0 .14 0 .14.07s0 .09.14.14a.3.3 0 0 0 0-.39q-.14-.18.07-.46a.68.68 0 0 0 .49-.07c.09-.19.06-.26-.11-.21s-.22 0-.18-.14.07-.28.21-.28h.42c0-.14 0-.2-.11-.18a1.58 1.58 0 0 1-.32 0l1.35-2.85q.64-1.41 1.2-2.89-1.63.42-2.93.81a8.13 8.13 0 0 1-3 .25 2.34 2.34 0 0 1-1.8-1.31 6.39 6.39 0 0 1-.53-2.29.88.88 0 0 1 .64-.25 1.79 1.79 0 0 1 .56.18 3.86 3.86 0 0 1 .56.35 1.52 1.52 0 0 0 .64.28 2.37 2.37 0 0 0 1.76-.25 3 3 0 0 1 1.77-.39 8.15 8.15 0 0 1 1.55-.53l1.69-.39c-.24-.09-.24-.18 0-.25l.56-.18c0 .09 0 .14.07.14s.13 0 .11-.07-.08-.07-.18-.07q1.2-.35 2.15-.67t2.15-.67a3.2 3.2 0 0 1 1.45-.42 2.34 2.34 0 0 0 1.38-.49q2.4-.56 4.84-1.24t5-1.13q2.54-.46 5.19-.67a25.33 25.33 0 0 1 5.33.14 1.87 1.87 0 0 1 1.27.18 8.46 8.46 0 0 1 1.13.67.36.36 0 0 0 .14.42 2.86 2.86 0 0 0-.88.35.68.68 0 0 1-.67.07c-.09 0-.11 0 0 0s.08.08 0 .18a13.09 13.09 0 0 1-2.68.32q-1.48 0-3.25.25s-.07.07-.07.21-.19 0-.14-.14a3.68 3.68 0 0 1-.85.21 1.32 1.32 0 0 1-.78-.07.86.86 0 0 1-.78.21h-.18a.16.16 0 0 1-.18.11.91.91 0 0 1-.53 0q-.11-.07-.46.14l-5.12 1.16a32.34 32.34 0 0 0-5 1.59l-1.24.25a1.85 1.85 0 0 0-.88.53 6 6 0 0 0-1.66.42 4.26 4.26 0 0 0-1.45.92 1.12 1.12 0 0 1-.64 1.2 18.21 18.21 0 0 1-1.33 3 13.61 13.61 0 0 0-1.27 3c-.09 0-.14 0-.14.11s-.07.08-.21 0a3.87 3.87 0 0 1-.6 1.66q-.46.67-1 1.31c-.09.24 0 .28.21.14a3.37 3.37 0 0 0-.39 1.09 1 1 0 0 1-.6.81c0 .1 0 .13.07.11a.12.12 0 0 1 .14 0c0 .14-.09.21-.28.21a1.82 1.82 0 0 1-.18 1.06 2.28 2.28 0 0 1-.6.78c0 .14 0 .17.14.07s.12-.09.07 0-.06.39-.18.46l-.39.25a.86.86 0 0 0 1-.14 1.56 1.56 0 0 1 1.38-.21 23.75 23.75 0 0 1 4.73-1.06 36.72 36.72 0 0 0 4.87-.92.17.17 0 0 1 .18.14q0 .14.18.07a27.92 27.92 0 0 1 3.85-1 19.87 19.87 0 0 1 4.2-.32v.21c0 .04.08.12 0 .21a10.77 10.77 0 0 1-1.94.88q-1 .32-1.94.6.14.35.35.35a.93.93 0 0 0-.42.42 1.9 1.9 0 0 1-.35.49q-4 1.2-8.61 2.22t-9 1.59a2.1 2.1 0 0 0-.39.71 1.07 1.07 0 0 1-.39.56q.07.14.21 0a.41.41 0 0 1 .28-.14 3.93 3.93 0 0 1-.35.92zm-5.58 8c.14-.09.15-.08 0 0s-.08.12 0-.02zm.85-4.59q.14 0 .07.14a.55.55 0 0 0-.07.21c-.09 0-.13 0-.11-.14a.45.45 0 0 1 .11-.23zm0 4.17h.14c.07 0 0-.07 0-.07v-.07c0-.07-.07 0-.07 0h-.07c-.07 0 0 .07 0 .07v.05zm.92 3c0-.24-.09-.29-.28-.18s-.28.13-.28 0q-.07.42.18.18c.15-.19.28-.2.37-.06zm-.49-6c0 .19.07.19.07 0s-.03-.25-.08-.06zm.14-.85q.14.28.14 0t-.15-.06zm.07 8.26h.21c.09-.09.07-.15-.07-.18s-.21 0-.21.11.11-.03.06.01zm0-8.61c.14 0 .23-.08.28-.25s0-.27-.07-.32a.34.34 0 0 1-.11.25.43.43 0 0 0-.11.26zm0 6h.21V53h-.21zm.21.28c-.14 0-.21 0-.21.07s.2-.08.2-.13zm-.07-.92c0 .14.08.13.11 0s-.02-.24-.12-.05zm.28-.71a.2.2 0 0 0 .11-.25c0-.12-.08-.18-.18-.18a.31.31 0 0 1 0 .28c-.05.05-.03.1.08.1zm.21-1.62a.11.11 0 0 1-.14 0h-.07s.21-.01.21-.05zm0-4c0 .14.07.13.07 0s-.03-.26-.07-.08zm.21-1c.09.19.14.2.14 0s-.05-.18-.14-.07zm0 4.8q.14.21.14 0t-.14-.06zm.28.42h.14c.09-.09.07-.16-.07-.21s-.19 0-.14.07a.21.21 0 0 1 .07.08zm0-6.07c0 .24 0 .31.11.21s.08-.23-.11-.27zm.14-.07h.17v-.14h-.21zm0 .85v.21c.09.09.16.07.21-.07s0-.21-.07-.21-.04-.04-.14-.04zm0 .78c.09.19.14.2.14 0s-.04-.21-.14-.07zm.35 2.26c0 .14 0 .15-.11 0s-.2-.08-.25.11a.38.38 0 0 0 .35.11q.23-.08.02-.29zm-.1-5.15q.11-.11-.11-.11c0 .24 0 .35.07.35a.2.2 0 0 1 .04-.24zm0 .67a.12.12 0 0 0-.07-.11s-.07 0-.07.11a.06.06 0 0 1 .07.07s.06-.01.11-.11zm-.14 1.2c0 .09.12.11.21 0a.7.7 0 0 0 .21-.25q-.36 0-.36.21zm.49-.85s-.07 0-.07.14q-.28-.07-.18.07t.18-.07s.07 0 .07-.14.21-.23.21-.56c-.14 0-.21.06-.21.18zm.07-2a.14.14 0 0 1-.07.21c-.1 0-.07.09.07.14a2.16 2.16 0 0 1 .14-.25.53.53 0 0 0 0-.39.23.23 0 0 1-.28-.07c-.09.14-.11.21 0 .21s.13.04.18.13zm-.14 4.59c0-.09 0-.15.07-.18s0-.06-.07-.11c-.06.14-.06.23.04.28zm.14.35q.35-.35-.07-.35c-.1 0-.13.11-.11.18a.32.32 0 0 0 .22.21zm.28-.85a3 3 0 0 0 .14-.35.32.32 0 0 0-.07-.35q-.14.21-.28.39t.25.3zm0 2.33c-.24.19-.26.29-.07.32s.29-.09.11-.33zm.28-4.8c.09-.19.08-.27 0-.25a.2.2 0 0 1-.25-.11c0 .14 0 .21.07.21a.23.23 0 0 1 .22.14zm0-.71a.53.53 0 0 1 0-.53 1.13 1.13 0 0 1 .35-.39 1.27 1.27 0 0 0-.35-.14.79.79 0 0 1-.18.64c-.12.23-.06.37.22.42zm-.06 2.33c.09 0 .16 0 .21-.11s0-.2-.07-.25a1.23 1.23 0 0 1-.14.36zm.14 1.41h.21v-.14h-.21zm.14-3.11c.19 0 .28 0 .28.07a.69.69 0 0 1-.14.49.69.69 0 0 0-.14.49.61.61 0 0 0 .39-.56 2.66 2.66 0 0 1 .18-.78c-.37.01-.56.1-.61.29zm0 .21c0 .19.07.2.07 0s-.06-.14-.11 0zm.64-.85c-.09.09-.14.12-.14.07s.1.01.1-.06zm0-4.87c.09.14.14.13.14 0s-.06-.18-.18 0zm.07-2v.11c0-.02-.09-.04.01-.08zm0 0a.48.48 0 0 1 .14-.35c.09 0 .11.12 0 .21s-.13.17-.13.17zm.14 6.42c-.09 0-.13 0-.11.07a.25.25 0 0 1 0 .21h.21l.07-.07c-.09-.09-.14-.16-.14-.21s.08 0 .11-.11.08-.08.18 0v-.5s-.12 0-.21-.14q0 .5-.21.56c.09 0 .13 0 .11.07a.11.11 0 0 0-.05.15zm.07-4.31q.14.14.18-.14c0-.19 0-.28-.11-.28a.42.42 0 0 0-.11.46zm.35-1.41c.14 0 .18.12.11.21s0 .19.11.28a.43.43 0 0 0 .11-.39.43.43 0 0 1 .11-.39.45.45 0 0 0-.47.32zm.14 1.06c0 .19.07.2.07 0s-.06-.11-.1.03zm0 5.44c0 .19.07.19.07 0s-.06-.16-.1.03zm.42-6.42c0 .19 0 .31.14.35a.32.32 0 0 1 .18-.18c.07 0 .08-.11 0-.25a.57.57 0 0 0-.35.1zm0 5.72c.09-.14.14-.14.14 0s-.08.16-.17.02zm.21-6.67c0-.16 0-.15-.14 0 .06.2.11.19.11.02zm.14.74h.14v-.12h-.14zm.07-.49c-.09.14-.07.24.07.28s.07-.07.21-.07v-.56a2.27 2.27 0 0 0-.31.37zm.28-1.62a.21.21 0 0 0 .07-.14q0-.14-.21-.14a.16.16 0 0 1 0 .18c-.01.08.02.11.12.11zm0 1.13a.3.3 0 0 0 .25-.18c.07-.12 0-.2-.11-.25a.38.38 0 0 1-.14.18s-.07.12-.02.26zm.14-1.69c0 .19.07.19.07 0s-.02-.18-.09.05zm.07-.28c.09.19.14.2.14 0s-.07-.13-.16.01zm.07 1v.14c.09.09.16.07.21-.07s0-.21-.07-.21a.12.12 0 0 1-.16.14zm.42-1.41q.14.21 0 .35t.18.28a.3.3 0 0 1 0-.39.21.21 0 0 0 0-.32c.01.14-.06.17-.2.07zm.42 4.52q.14.28.14 0t-.15-.01zm5.4 19.17c.12-.12.11-.13 0 0s-.13.11-.01-.01zm.32.39a.12.12 0 0 1-.14 0h-.07s.19.03.19-.01zm0 .71a.16.16 0 0 1 .11-.18.16.16 0 0 0 .11-.18.23.23 0 0 0-.28.07c-.12.09-.1.18.04.24zm0-2a.16.16 0 0 1 .11-.18c.07 0 .08-.11 0-.25s-.17 0-.21.14-.01.24.08.3zm.42 1.55a.32.32 0 0 0 .28-.11 1.62 1.62 0 0 1 .21-.25.8.8 0 0 1-.35.07c-.15.02-.21.11-.15.3zm.85-1.13c0 .23-.06.35-.32.35s-.32 0-.18.14a9.34 9.34 0 0 0 1.09-.49 2.56 2.56 0 0 0 .88-.78 1.76 1.76 0 0 0-.71.42 1.34 1.34 0 0 1-.77.37zm-.21-1.2h.35a1.6 1.6 0 0 1 .21-.25c-.09 0-.14-.08-.14-.11s0-.06-.14-.11c-.11.27-.2.43-.3.48zm.64-.21c0 .19.07.19.07 0s-.04-.18-.09.01zm.21 1.76c.14 0 .2.07.18.21s-.11.19-.25.14a.57.57 0 0 0 .05-.34zm.14-2.12v.14h.14a.06.06 0 0 1 .07-.07v-.14h-.14a.06.06 0 0 1-.09.09zm.28 2.12s.07-.07.21-.07-.08.08-.19.08zm.35-.28q.14-.21.14 0t-.15.01zm.21-2.12h.14v-.14h-.14zm.56-17.08h.14v-.14h-.14zm5.65-1a.42.42 0 0 0 .35-.21.21.21 0 0 0-.21 0c-.1.01-.15.09-.15.23zM196 17.51q.07.21.11 0t-.11 0zm2.54-.42a.11.11 0 0 1-.14 0h-.07s.21.04.21 0zm.71-1.34a1.4 1.4 0 0 0-.64.14.69.69 0 0 0 .64-.15zm.71-.07c-.28-.09-.38-.08-.28 0s.18.13.32-.01zm.42-.07c-.24 0-.35 0-.35.07.23.13.35.11.35-.08zm.35-.21c-.24.09-.26.14-.07.14s.21-.05.07-.15zm.21.07a.59.59 0 0 0 .56-.14 1.26 1.26 0 0 0-.56.13zm.71.85a.07.07 0 0 0-.14 0 .06.06 0 0 1 .07.07s.02.01.07-.08zm0-.92h.14v-.14h-.14zm.64.88s.07 0 .07-.11-.12.08-.07.1zm.28-.18c-.09.14-.08.15 0 0s.14-.1 0 0zm2.89-1.1h-.18a.28.28 0 0 0-.18 0q-.14.14.11.18t.25-.18zm.07.07c.09 0 .19 0 .28-.14-.18-.03-.28.01-.28.07zm.92-.07a1.65 1.65 0 0 1 .32 0q.18 0 .11-.11a.75.75 0 0 1-.25 0c-.07-.05-.13-.02-.18.11zm.28.63c-.09 0-.14 0-.14.07s.14-.05.14-.1zm.07.07c.19 0 .28-.07.28-.21h-.21v.14s-.07 0-.07.04zm2.54-.28a.3.3 0 0 1-.28 0c-.09 0-.14 0-.14.07a.42.42 0 0 1 .28.07s.1-.03.15-.17zm.21.21h.14v-.21h-.14zm.85 0a.51.51 0 0 0-.25-.11q-.18 0-.18.11a.53.53 0 0 0 .21.07.29.29 0 0 0 .22-.1zm-.28 24.61q.07.28.32 0a.58.58 0 0 0 .11-.64 3.71 3.71 0 0 1 1.8-.64 6.16 6.16 0 0 1 1.94.18 9 9 0 0 1 1.94.74q1 .5 1.73 1c.09 0 .14 0 .14-.11s.07-.15.21-.11a14.81 14.81 0 0 0 3.25 1.55 15.38 15.38 0 0 0 4.06-.25 20.36 20.36 0 0 1 4-.39q-.14.35-.25.71a.74.74 0 0 1-.46.49c0 .19.09.26.28.21s.28 0 .28 0c.09.38 0 .58-.18.6a.41.41 0 0 0-.39.32 23.51 23.51 0 0 1-3 .56 15.17 15.17 0 0 1-2.82.14 17.51 17.51 0 0 1-4.1-1.55q-1.84-1-3.74-2.26a4.09 4.09 0 0 0-2.72 1.31 9 9 0 0 0-1.73 2.65.17.17 0 0 1-.21.11.29.29 0 0 0-.28.11 14.57 14.57 0 0 1-.74 2.29q-.46 1.1-1 2.15t-1 2.12a12.08 12.08 0 0 0-.64 2.12 6.16 6.16 0 0 0-.92 1.59q-.35.88-.78 1.73a6.94 6.94 0 0 1-1 1.52 2.92 2.92 0 0 1-1.66.88 6.94 6.94 0 0 1-2.82-4.59q.07-1.63.18-3.64t.28-4.13q.18-2.12.46-4.24t.71-4a1.32 1.32 0 0 1 1.62.56q.49.85.92 1.48-.35 3.18-.64 6.28l-.56 6.21a14.22 14.22 0 0 0 1.59-2.89q.67-1.62 1.41-3.32a32.91 32.91 0 0 1 1.66-3.28 11.29 11.29 0 0 1 2.26-2.79c0-.19 0-.28-.11-.28s-.15-.09-.11-.28a.79.79 0 0 0 .35-.07 1.11 1.11 0 0 0 .36-.15zm-2.75 6.57a.58.58 0 0 1 .21-.35c.14-.14.09-.21-.14-.21 0 .09 0 .19-.11.28s-.1.18.04.28zm.71-1.69c.23.09.4 0 .49-.25s.07-.43-.07-.53a1.71 1.71 0 0 1-.18.46 1.63 1.63 0 0 1-.25.31zm.49-.92a1.61 1.61 0 0 0 .71-.78 5.64 5.64 0 0 1 .49-.92s-.07-.07-.21-.07a8.38 8.38 0 0 1-.46.92q-.25.42-.53.85zm1.43-1.7l.18-.35a.28.28 0 0 0 0-.35c-.34.28-.39.51-.18.7zm.14-2.26c-.1-.19-.1-.25 0-.18s.07.14-.02.18zm.14 1.69v.14c.09.1.15.07.18-.07s0-.21-.11-.21-.04.15-.09.15zm.28-.35a.5.5 0 0 0 .53-.42q.11-.42.53-.21c0-.14.09-.26.28-.35s.19-.26 0-.49a1.69 1.69 0 0 1-.85.74.71.71 0 0 0-.51.73zm0-.71h.14v-.14h-.14z"/><path d="M254 41.37v.07a.06.06 0 0 0 .07.07q-1.41.57-3.07 1.31t-3 1.45c0 .19.12.27.21.25a.81.81 0 0 0 .28-.14l.28-.21a.47.47 0 0 1 .28-.11 6.45 6.45 0 0 1-2.26 1.55q-1.34.57-2.54 1.13c0 .19 0 .32.07.39a.37.37 0 0 1 .14.32c-.19 0-.28 0-.28-.11s-.07-.2-.21-.25a.86.86 0 0 1-.78.57 1.07 1.07 0 0 0-.85.42s.09.12.28.21a1.48 1.48 0 0 1-.46.32l-.53.25c0 .19.09.26.28.21a2.8 2.8 0 0 1-.64.35.76.76 0 0 1-.71-.07c-.28.38-.47.63-.56.78q-2.12.71-4.1 1.48a14.85 14.85 0 0 1-4.66.92 5.09 5.09 0 0 1-3.42-1.06 5.16 5.16 0 0 1-1.66-2.58 7.48 7.48 0 0 1-.14-3.25 8.81 8.81 0 0 1 1.13-3.14q.92-1 1.84-1.94a13.23 13.23 0 0 1 2-1.73 11.4 11.4 0 0 1 2.44-1.27 8.25 8.25 0 0 1 2.93-.49 3.06 3.06 0 0 1 1.48 2.44 5.5 5.5 0 0 1-.56 3 27.37 27.37 0 0 0-2.75 2.4 8 8 0 0 1-3.11 1.91 3.54 3.54 0 0 1-1.94-.21 2 2 0 0 1-1-1.41 3.85 3.85 0 0 0-1.34 3 3.65 3.65 0 0 0 1.48 1.06 26.44 26.44 0 0 0 7-.88 53.83 53.83 0 0 0 6.21-2.12q3-1.23 6-2.58a45.73 45.73 0 0 1 6.17-2.31zm-17.76-3.17a8 8 0 0 0-3.35 1.69 15.36 15.36 0 0 0-2.51 2.82c.19 0 .28 0 .28.07a1.28 1.28 0 0 1-.71.46.76.76 0 0 0-.56.46 19.7 19.7 0 0 0 4.38-1.94 7.23 7.23 0 0 0 2.89-3.64c-.14 0-.21 0-.21-.11s0-.11-.14-.11a.28.28 0 0 1 0 .18.14.14 0 0 0-.07.12zm-5.29 11.86a3.85 3.85 0 0 0 .64.25q.35.11.49-.11a1.41 1.41 0 0 0-.64-.25q-.49-.11-.49.11zm2.4-.92a4 4 0 0 0 2.4 0l2.33-.81a27.91 27.91 0 0 0 5.33-1.66 40.82 40.82 0 0 0 4.41-2.15q-1.77.57-3.49 1.24l-3.49 1.38q-1.77.71-3.64 1.27a21 21 0 0 1-3.85.73zm6.28.85c.14.1.21.07.21-.07q-.28-.15-.21.08zm1.13-.63h.24v-.14h-.21zm.35-.14a1.61 1.61 0 0 0 .42-.21.23.23 0 0 0-.28-.07.28.28 0 0 0-.14.27zm.35-.63a1.11 1.11 0 0 1 .42-.18c.14 0 .23-.13.28-.32a1.06 1.06 0 0 1-.46.18.28.28 0 0 0-.23.3zm1.27-.5c.19-.09.28 0 .28.14h-.28zm1-.63h.21v.21h-.21zm.78-.49c.14 0 .22 0 .25.14a.17.17 0 0 1-.11.21c-.1-.06-.15-.18-.15-.32zm4.8-2.89h.14c0 .09 0 .14-.21.14v-.07s.06-.05.06-.09zm.07-.35h.21v.21h-.21zm1.13-.28a.65.65 0 0 1-.85.35q.14-.24.84-.38zm0 0c-.1-.14-.07-.18.07-.11s.19.06.14 0c.14 0 .16.11.07.18a.19.19 0 0 1-.29-.1zm3.46-2a.33.33 0 0 1 .35-.21c0 .14 0 .2-.07.18a.41.41 0 0 0-.25-.05z"/><path d="M265.75 49.49a6.2 6.2 0 0 0 3.46-1 21.87 21.87 0 0 1 2.89-1.73c-.14-.09-.19-.19-.14-.28a14.08 14.08 0 0 0 3.71-2 34.61 34.61 0 0 0 3.33-2.82 4.47 4.47 0 0 0-1.31 1 2.91 2.91 0 0 1-1.73.81 9.92 9.92 0 0 1 1.66-1.34l1.8-1.13a2.4 2.4 0 0 1-.67 1.48 9.2 9.2 0 0 1-1.34 1.17l-1.52 1.09a4.36 4.36 0 0 0-1.2 1.27q-.5-.28-.88.28a1.65 1.65 0 0 1-.81.71 1.3 1.3 0 0 0 .92-.25 1.76 1.76 0 0 0 .64-.6h.39a1 1 0 0 1 .25.14c.09-.09.11-.18 0-.25a.29.29 0 0 1 0-.32 1.62 1.62 0 0 1 .49-.14c.09 0 .19-.09.28-.28a.44.44 0 0 0 .53.07 2.48 2.48 0 0 0 .64-.42q.32-.28.67-.56a2.11 2.11 0 0 1 .56-.35l-.81 1.48a2.44 2.44 0 0 1-1.17 1.06 2.64 2.64 0 0 1-.28.46 1.23 1.23 0 0 0-.21.39q-.85.57-1.84 1.38t-2 1.55a12.74 12.74 0 0 1-2.29 1.27 5.68 5.68 0 0 1-2.58.46 2.35 2.35 0 0 1-1.41-.46 5.52 5.52 0 0 1-1.13-1.09c0-.14-.1-.18-.14-.11s-.12.06-.21 0a5.24 5.24 0 0 1-.85-2 12.56 12.56 0 0 1-.21-2.33q0-1.2.11-2.44t.11-2.29a17.57 17.57 0 0 0-2.82 2.22 31.53 31.53 0 0 0-2.4 2.61q-1.13 1.38-2.19 2.86t-2.19 2.89a1.41 1.41 0 0 1-.74.11.71.71 0 0 0-.67.25 3.52 3.52 0 0 1-1.45-2.58 12.09 12.09 0 0 1 .25-3.25q.35-1.73.85-3.49a9.47 9.47 0 0 0 .35-3.39 2.42 2.42 0 0 1 1.52.18 3.08 3.08 0 0 1 1 .88 9.45 9.45 0 0 1-.25 2.58 24.77 24.77 0 0 0-.46 2.86 20.9 20.9 0 0 0 2-2.22 8.06 8.06 0 0 1 2.19-1.94 8.07 8.07 0 0 1-1.48 1.62 6.16 6.16 0 0 0-1.41 1.69 5.25 5.25 0 0 0 1.62-1.41 7.38 7.38 0 0 1 1.48-1.48c-.09-.09-.14-.16-.14-.21a3.2 3.2 0 0 0 1.41-.88q.78-.74 1.48-1.38a2.5 2.5 0 0 0-1.41.85 2.49 2.49 0 0 1-1.34.85 4.88 4.88 0 0 1 1.27-1.24 2.45 2.45 0 0 1 1.62-.6 1 1 0 0 1 .74-.42 1.62 1.62 0 0 1 .78.21 8.2 8.2 0 0 1 .74.46 1.85 1.85 0 0 0 .71.32 2.2 2.2 0 0 1 1.13 1.62 10.49 10.49 0 0 1 .14 2.47q-.07 1.34-.21 2.75a5.9 5.9 0 0 0 .17 2.33zm-5.58-7.91c0 .14.07.13.07 0s-.02-.18-.06 0zm.14-.14a.51.51 0 0 0 .49-.28.71.71 0 0 1-.32.07c-.1 0-.16.07-.16.21zm1.13-.71c0-.09 0-.14.07-.14s.07 0 .07-.14a.16.16 0 1 0-.14.28zm11.23 6.5c0-.14 0-.19-.14-.14s0 .21.07.21a.06.06 0 0 1 .07-.07zm0-1.2c.14-.09.15-.08 0 0s-.09.14 0-.03zm.35-.21c.14-.09.15-.08 0 0s-.09.18-.02 0zm.49-.56h.21v.21h-.21zm1.06-.57a.41.41 0 0 1-.28.14.41.41 0 0 1 .29-.14zm1.84.28v.14a.06.06 0 0 0-.07.07h-.14V45l.07-.07zm.49-.78h.21v.14h-.21z"/><path d="M302 22.8a3 3 0 0 0-1.77 0 2 2 0 0 1-1.77-.32l-.39.25a.74.74 0 0 1-.39.11.26.26 0 0 1-.35-.21q-.07-.28-.35 0c0-.09 0-.13-.07-.11a.11.11 0 0 1-.14 0c0 .09 0 .13.07.11a.12.12 0 0 1 .14 0v.21a1.14 1.14 0 0 1-.78-.11.52.52 0 0 0-.64.11.19.19 0 0 0-.21-.21.28.28 0 0 1-.28-.14c0 .19 0 .27.14.25s.16.08.07.32a.42.42 0 0 0-.6-.25.42.42 0 0 1-.6-.18s-.09 0-.14.14-.07 0-.07-.14a.46.46 0 0 1-.6.11q-.32-.18-.46.18a3.4 3.4 0 0 0-1.06-.14 2.23 2.23 0 0 0-1.13.28.29.29 0 0 0 .28.11 1.49 1.49 0 0 1 .35 0c-.14.14-.14.21 0 .21-.09.14-.19.19-.28.14a.22.22 0 0 1-.14-.21c-.19 0-.29.13-.32.25a3.59 3.59 0 0 1-.11.39c.38 0 .81 0 1.31.07a1.1 1.1 0 0 0 1-.28q.35.07.11.11c-.17 0-.22.08-.18.18a2.62 2.62 0 0 0 1-.07c.4-.09.62 0 .67.14s.21 0 .21-.11.07-.18.21-.18.07.19-.07.28a2.36 2.36 0 0 0-.35.28.7.7 0 0 1-.42-.11c-.09-.07-.21 0-.35.11 0 .09.18.14.39.14s.34 0 .39-.14a2.35 2.35 0 0 0 .71 0 6.65 6.65 0 0 0 .92-.18c-.19-.09-.21-.19-.07-.28s.25 0 .18.14a.19.19 0 0 0 0 .28 2.85 2.85 0 0 1 .6.07.87.87 0 0 0 .6-.07c-.1-.14-.19-.21-.28-.21s-.19-.07-.28-.21a1.07 1.07 0 0 1 1-.11q.64.18.85-.25c.14 0 .16.12.07.21a2.18 2.18 0 0 1 .64 0 3.48 3.48 0 0 0 .56 0h.07c-.05 0-.07-.08-.07-.18a4.18 4.18 0 0 0 2.33.32 6.21 6.21 0 0 1 2.75.32q.21.14.21 0c0-.12 0-.18.14-.18s0 .14.14.14.21 0 .21-.14.07 0 .07 0h.07c.07 0 .28 0 .28.21 0-.14.23-.16.56-.07-.24.09-.25.17 0 .21a2.78 2.78 0 0 0 .6.07 1.31 1.31 0 0 0 1.06.11 1 1 0 0 1 1 .18c0-.14 0-.21-.11-.21s-.2-.07-.25-.21.12 0 .07 0h-.07a4.17 4.17 0 0 0-.71-.21 2.17 2.17 0 0 1-.71-.28c0-.14 0-.2.11-.18s.18 0 .18-.18q-.42 0-.42.14c0 .09-.07.17-.21.21s-.24 0-.14-.14a.23.23 0 0 0 .07-.28c-.24 0-.35.14-.35.42-.09-.09-.18-.13-.25-.11a.16.16 0 0 1-.18 0c0-.14.09-.21.28-.21v.11a.14.14 0 0 0 0-.11h.07-.14a1.21 1.21 0 0 0-1.2-.28q-.85.14-1.13-.28c-.1 0-.14.06-.14.18s0 .15-.14.11a1.21 1.21 0 0 1-.14-.35q-.14 0-.49.35c0-.09-.06-.14-.18-.14s-.13-.07 0-.21.14 0 .14 0h.14q.14-.28-.18-.14t-.25-.21q1.55.14 2.86.32t2.79.46a.32.32 0 0 0 .07.35c-.09 0-.15.06-.18.18s0 .13.18 0v-.21c.09 0 .14 0 .14-.07a2.41 2.41 0 0 1 .35.28c.09.1.26.07.49-.07a3 3 0 0 1 .85 1.77A1.65 1.65 0 0 1 310 27q.14-.28-.28-.21a.46.46 0 0 1-.56-.28 1.53 1.53 0 0 1-1.55 0 .66.66 0 0 1 .49-.35 2.5 2.5 0 0 0 .64-.21 8.46 8.46 0 0 0-3.32-.67 10.11 10.11 0 0 1-3.32-.53c0 .14-.18.24-.53.28s-.58 0-.67-.21a.68.68 0 0 1-.42.11 1.31 1.31 0 0 0-.49 0v-.28q-.14 0-.11.14v.14a1.64 1.64 0 0 0-.56-.14.48.48 0 0 1-.35-.14c-.1.24-.42.33-1 .28a9 9 0 0 1-1.41-.21q-1.41.14-3.07.21t-3.42.21a4.41 4.41 0 0 0-.53 1.24 8.7 8.7 0 0 1-.46 1.31l-.21-.21v.39c0 .07.08.2 0 .39s-.15.12-.18.07-.08-.07-.18-.07a1.8 1.8 0 0 1-.35.92.6.6 0 0 0 0 .78h-.28q-1 2.68-1.94 5.08a29.82 29.82 0 0 1-2.29 4.59 8.46 8.46 0 0 1-1.24 2.79 15.6 15.6 0 0 1-1.87 2.29 4.31 4.31 0 0 0 .07.85.78.78 0 0 1-.28.71c0 .14 0 .18.07.11s.09-.06.14 0q-.07.57-.11 1.27v1.27l-.21.21a.81.81 0 0 1-.21.14 9.76 9.76 0 0 1 .28 2.37v2.47a18.14 18.14 0 0 0 .18 2.51 6.74 6.74 0 0 0 .81 2.4.64.64 0 0 0 .28.07.63.63 0 0 1 .28.07 6.66 6.66 0 0 0 2.51-1.13 14.8 14.8 0 0 0 1.91-1.73q.88-1 1.69-1.94a11.56 11.56 0 0 1 1.8-1.76.29.29 0 0 1 0-.32.29.29 0 0 0 0-.32.88.88 0 0 0 .64-.67.9.9 0 0 1 .71-.67 1 1 0 0 1 .35-.71l.64-.49a18 18 0 0 1 1.66-2.42q.88-1.16 1.87-2.29a28.85 28.85 0 0 0 1.84-2.82 7.9 7.9 0 0 1 2.19-2.47 7 7 0 0 0-1.17 1.77 4.52 4.52 0 0 1-1.24 1.62v.25c0 .03.07.08.07.18a4.22 4.22 0 0 0-.92.92q-.35.5-.71 1.06a12.13 12.13 0 0 1-.74 1.06 5.09 5.09 0 0 1-1 .92.11.11 0 0 0 .07.11v.18a.06.06 0 0 1-.07-.07.06.06 0 0 0-.07-.07 27.93 27.93 0 0 1-3.39 4.7q-2 2.22-3.74 4.48a.32.32 0 0 0 .35-.07 2.43 2.43 0 0 0 .28-.35 2.45 2.45 0 0 1 .32-.39.62.62 0 0 1 .46-.18c.09-.1.07-.13-.07-.11s-.17 0-.07-.18a.38.38 0 0 0 .53-.18 1.07 1.07 0 0 1 .46-.46v-.18c0-.03-.08-.11 0-.25l.21.21a47.57 47.57 0 0 0 3.39-3.92q1.55-2 3-4.27a1.13 1.13 0 0 0 .4-.2 4.52 4.52 0 0 1 .64-1.41 3.53 3.53 0 0 1 1.06-1.13c0-.09-.07-.19-.21-.28q.35 0 .28-.25c0-.16.09-.27.42-.32a.4.4 0 0 1 .11-.53 1.24 1.24 0 0 0 .39-.46 7 7 0 0 1-1.31 2.47 6.07 6.07 0 0 0-1.24 2.61c-.38 0-.56.14-.56.56 0 .14.11.17.18.07s.15-.09.25 0-.26.31-.64.21a.57.57 0 0 0-.07.25.39.39 0 0 1-.14.25c.09.1.18.08.25 0s.2-.13.39 0a11.66 11.66 0 0 0-1.09 1.91 10.91 10.91 0 0 1-1.28 2.05c0 .09 0 .11 0 0s.08-.06.18 0q-1.77 2.12-3.57 4.45a25.22 25.22 0 0 1-4.04 4.27 10 10 0 0 1-2.51.71 2.81 2.81 0 0 1-2.37-.63 9 9 0 0 1-2-3.35 16.62 16.62 0 0 1-.81-4 36.36 36.36 0 0 1-.11-4.24q.07-2.15.21-4.13c0-.19-.21-.28-.49-.28q-.35-.64-.71-1.34a3.05 3.05 0 0 1-.28-1.62.33.33 0 0 0 .35-.21.9.9 0 0 1 .21-.35.37.37 0 0 1 .32.32 1.76 1.76 0 0 0 .18.53c.19 0 .28 0 .28.07l.28-.14.28-.14q.56-3.11 1.09-6.35a62.47 62.47 0 0 1 1.31-6.14 3 3 0 0 1 .28-1.76 3.84 3.84 0 0 0 .35-1.91q-3.81.42-6.88.88t-6.74.74a10.09 10.09 0 0 0-1.2-.18c-.33 0-.78-.08-1.34-.18a2.35 2.35 0 0 1-.6-1.45 2.93 2.93 0 0 1 .25-1.66q2 .21 4.27.25a40 40 0 0 0 4.48-.18v.07c-.07 0 0-.13.07-.11s.07 0 .07 0a3.65 3.65 0 0 0 1.55 0 2.64 2.64 0 0 1 1.41 0c.14 0 .15-.09 0-.14s-.15-.12-.11-.21a.87.87 0 0 0 .46.11l.39-.18v.28c.09 0 .13 0 .11-.14s0-.14.11-.14a.82.82 0 0 0 .56.14.43.43 0 0 0 .49-.35.67.67 0 0 0 .25.18.46.46 0 0 1 .18.11c0 .24-.13.37-.39.39a.4.4 0 0 0-.39.46c-.1-.19-.26-.23-.49-.14a.61.61 0 0 1-.64-.07 1.05 1.05 0 0 0 1 .35l1.27-.14c.09 0 .13 0 .11.11s-.06.11-.11.11a1.18 1.18 0 0 1 .28 0c.09 0 .14 0 .14-.11a1.3 1.3 0 0 0 .71.11.71.71 0 0 0 .56-.25c-.09.19-.07.25.07.18a.28.28 0 0 1 .35 0 .54.54 0 0 0 .25-.39c0-.16.06-.36.11-.6a.46.46 0 0 0-.21.21c0 .09-.14.12-.28.07s-.19-.16-.28-.07-.19.07-.28-.07.11-.14.18-.14.13 0 .18-.14-.18-.12-.25-.07-.06 0 0-.28q.21.42.6.11c.26-.21.43-.22.53 0a6.42 6.42 0 0 1 .49-1.76 3.73 3.73 0 0 0 .35-1.55q1.06-2.4 1.94-5t1.87-5a48.19 48.19 0 0 1 2.19-4.73A21 21 0 0 1 292.37 1a3.45 3.45 0 0 1 1.94.49 7.37 7.37 0 0 1 1.38 1.2 4.93 4.93 0 0 1 .11 1.8 5.76 5.76 0 0 1-.46 1.8c0 .14.09.17.28.07q-.57 2.26-1.09 4.24t-1.13 3.88l-1.2 3.81q-.6 1.91-1.31 4a53.73 53.73 0 0 0 5.86 0 41 41 0 0 1 6.07.11l-.28.28a.69.69 0 0 1-.54.12zm-30.6 1.13c.14-.09.15-.08 0 0s-.09.15 0 0zm1.06-.07c.09-.19.14-.2.14 0s-.04.14-.14 0zm.92-.28h.28c.14 0 0 .13-.07.11s-.07 0-.07.11-.13-.09-.11-.14a.11.11 0 0 0-.03-.08zm.64.07c0-.09 0-.11.14 0s.04.05-.16 0zm2.33 0q.14-.21.18 0c.01.14-.05.14-.19 0zm2.26 0c-.28 0-.38 0-.28.07s.18.07.27-.07zm.56 17.72c.14 0 .23-.12.28-.35s0-.38-.14-.42a.5.5 0 0 1 0 .42.57.57 0 0 0-.14.35zm.28-17.3c.09 0 .14.07.14.21 0 0-.07 0-.07.07s-.07-.09-.07-.27zm.07 16a2.19 2.19 0 0 1 .35-.92.94.94 0 0 0 .14-.85c0-.14 0-.17-.14-.07a4.58 4.58 0 0 1-.32.92 1.32 1.32 0 0 0-.03.95zm.56-16.38v.14c.19-.09.19-.14 0-.14v-.14a.14.14 0 0 1-.21.07.22.22 0 0 1-.14-.21.78.78 0 0 1 .6 0 .75.75 0 0 0 .53 0 .18.18 0 0 1-.07.25c-.1.07 0 .08.14 0 0 .24-.18.32-.39.25a.34.34 0 0 0-.46.18c-.14 0-.22 0-.25-.07s-.13-.12-.32-.07a.51.51 0 0 1 .58-.23zm0 16.31q.14.28.14 0t-.13 0zm.21-2.82a.61.61 0 0 0 .11-.32c0-.17-.06-.22-.25-.18a.73.73 0 0 1 0 .28s.01.15.15.25zm.07-12.78c-.09 0-.13 0-.11-.07s.07 0 .12.1zm0 14.33a.54.54 0 0 1 .07-.21c0-.09 0-.14-.07-.14a.45.45 0 0 0-.11.21c-.01.12.02.17.12.17zm0-14.33a.06.06 0 0 1 .07.07.06.06 0 0 1-.06-.04zm.07-.78c.09.14.14.14.14 0s-.04-.11-.13.03zm0 11.86h.14c.09 0 .13-.09.11-.14s-.08-.07-.18-.07a.29.29 0 0 1-.06.24zm0 2.33a.41.41 0 0 0 .28-.14q.14-.14-.14-.21a1.23 1.23 0 0 1-.13.38zm.14-2.82c0 .24 0 .25 0 0s.06-.16.01.01zm0-.85a2.55 2.55 0 0 1 .32-.67 1.61 1.61 0 0 0 .25-.67 1.1 1.1 0 0 0-.21-.18.37.37 0 0 1-.14-.18 7 7 0 0 1-.18 1 1.6 1.6 0 0 0-.03.73zm.14 2.89c0-.09 0-.12.07-.07a.19.19 0 0 0-.21-.21.25.25 0 0 1 0 .21s.06.11.15.11zm0-12.92c0-.14.07-.13.07 0s-.01.22-.06.04zm.71.21c-.09.14-.17.19-.21.14a.56.56 0 0 0-.35-.07.39.39 0 0 1 .57-.03zm.35 4.73c-.09.09-.15.11-.18 0s-.08-.06-.18 0a1.14 1.14 0 0 1-.07 1 1.13 1.13 0 0 0-.07 1h-.28a.49.49 0 0 0 0 .42 1.26 1.26 0 0 1 .18.35c-.14 0-.21 0-.21-.07s0 0-.14.07a.71.71 0 0 1 .07.32c0 .12.09.18.28.18a2.25 2.25 0 0 0 .14-.42.36.36 0 0 0-.14-.42c.14 0 .25-.19.32-.42s0-.35-.18-.35a6.65 6.65 0 0 0 .39-1q.18-.56.32-1.2h-.18a.15.15 0 0 0-.11 0q-.3.22.05.58zm-.49-5.58l-.07-.07h-.07s0 .07.14.07a.2.2 0 0 0 .07.14v.21a.63.63 0 0 0-.32-.18c-.12 0-.15-.15-.11-.39a1.5 1.5 0 0 0 .35 0c.09 0 .14.06.14.25zM281 34.95c.09.14.14.13.14 0s-.04-.19-.14 0zm.64-3.18c.09.09.16.07.21-.07s0-.21-.07-.21 0 .14-.11.14-.08.05-.03.14zm3-6.35a3.43 3.43 0 0 1-.78 1.27 2.07 2.07 0 0 1 .07 1.2 2.57 2.57 0 0 1-.53 1.11 2.1 2.1 0 0 1-.07.92q-.14.49-.32 1c-.12.35-.22.73-.32 1.13a3 3 0 0 0 0 1.31h-.21a1 1 0 0 1 0 .56q-.11.35-.21.74a4.44 4.44 0 0 0-.14.78 1.56 1.56 0 0 0 .11.74.42.42 0 0 0-.32.46.56.56 0 0 1-.25.53 21.85 21.85 0 0 0 2.86-5.68q1.09-3.21 2.15-6.18l-1.06.14a2 2 0 0 1-.95-.03zM282 23.86c-.1.09-.17.14-.21.14v-.14zm0 4.24c.14.09.22 0 .25-.14s0-.26-.18-.21 0 .15-.07.18-.06.07 0 .17zm.14-5.22a.41.41 0 0 1 .07.28H282q-.07-.14 0-.14c.1-.02.13-.02.13-.15zm-.07.71c.19 0 .24 0 .14-.07s-.15-.08-.15.06zm0 3.81a.41.41 0 0 0 .07.28c.19 0 .28-.12.28-.35a.56.56 0 0 0-.36.06zm.56-1a.41.41 0 0 0-.14-.28c0 .19.04.29.14.29zm.21 1.06a.26.26 0 0 1 .07-.39c.14-.12.12-.18-.07-.18a1.85 1.85 0 0 1-.21.32c-.1.12-.03.21.21.25zm-.21-1.62q.14.28.14 0t-.14 0zm.28-1.83c0 .14 0 .21.11.21s.13.07 0 .21a.47.47 0 0 0-.18-.11c-.07 0-.08 0 0 .18a.5.5 0 0 0 .42-.07.3.3 0 0 1 0-.39.22.22 0 0 0 0-.32c-.09.19-.21.28-.35.28zm.07 2.26c.09.19.14.2.14 0s-.05-.15-.12-.01zm.14 1.62c.09.19.14.2.14 0s-.05-.14-.14 0zm.42-4.8a.41.41 0 0 1 .14-.28.83.83 0 0 0-.35.11c-.14.07-.14.15 0 .25s.07-.08.21-.08zm.28-1.34a.23.23 0 0 1 .14-.21c.09 0 .07-.09-.07-.14a1.11 1.11 0 0 1-.18.14c-.06.04-.02.11.12.21zm.07-1.2a.66.66 0 0 0 .42-.18c.14-.12.12-.22-.07-.32a.46.46 0 0 1-.21.21.28.28 0 0 0-.13.28zm.21.57q.28.07.14 0c-.08-.12-.13-.12-.13-.01zm.07-.42q.28.07.14 0c-.08-.12-.13-.11-.13-.01zm.22 38.3c.09.14.14.13.14 0s-.04-.17-.14 0zm.28-39.61a.94.94 0 0 0 .21-.32q.07-.18-.28-.25a1.23 1.23 0 0 0-.11.35c-.02.17.04.25.18.25zm-.07 1.06q.14.21.11 0t-.11.02zm2.19 3.55v.28c0 .04.08.12 0 .21s-.21-.06-.21 0a1 1 0 0 1-.14.25q.64-.07.6-.49a1.06 1.06 0 0 1 .25-.78.3.3 0 0 0-.32 0c-.07.07-.13 0-.18-.18h.42a.15.15 0 0 1 0-.11.14.14 0 0 0 0-.11c.09 0 .12-.08.07-.11s-.07 0-.07.11a1.47 1.47 0 0 0-1 0 2.45 2.45 0 0 1-.88.18c.19 0 .28.07.28.21-.19.09-.29.11-.32 0a.6.6 0 0 0-.25-.25 3 3 0 0 0-.21.53q-.07.25-.21.6a6.43 6.43 0 0 1 1.91-.14c0-.28 0-.42.14-.42l.07.07s.15.15.05.15zm-1.41-6.35a.69.69 0 0 1-.07-.32c0-.12-.07-.18-.21-.18a.71.71 0 0 1 .07.32c0 .12.07.18.21.18zM285.1 23q.28.07.14-.07c-.1-.08-.14-.06-.14.07zM293 2.33q-.85 1.06-1.73 2.37a5.79 5.79 0 0 0-1 2.65.77.77 0 0 0-.53.85c0 .42-.15.66-.53.71-.09.19-.07.27.07.25s.19 0 .14.18a1.06 1.06 0 0 0-.28.46.44.44 0 0 1-.35.32 1.29 1.29 0 0 1-.07 1 1.11 1.11 0 0 1-.56.53c.23 0 .32.11.25.18a.8.8 0 0 0-.18.32.34.34 0 0 0 .39-.32.6.6 0 0 1 .25-.46 1.16 1.16 0 0 1-.35 1.13.78.78 0 0 0-.14 1.06 1.06 1.06 0 0 0-.38.44.76.76 0 0 1-.39.49c.09.09.16.07.21-.07s.12-.09.21.14a1.09 1.09 0 0 0-.39.64c-.07.28-.13.56-.18.85a3.79 3.79 0 0 1-.21.78.63.63 0 0 1-.42.42 3.65 3.65 0 0 1-.11 1.34 11.09 11.09 0 0 1-.46 1.31q-.28.67-.53 1.38a6.05 6.05 0 0 0-.32 1.41.59.59 0 0 0 .46 0 .47.47 0 0 1 .46 0c0 .09-.14.13-.28.11s-.19 0-.14.18a1.73 1.73 0 0 0 .71-.28c.09-.09.42-.12 1-.07q1.48-5.08 3.21-10.31a58.61 58.61 0 0 0 2.44-10.24 4.43 4.43 0 0 0-.78-.42.59.59 0 0 0 .25.39 1.68 1.68 0 0 1 .26.28zM285.45 23q.35.07.21-.07c-.09-.08-.16-.06-.21.07zm.07-6.14c0 .19.07.2.07 0s-.02-.13-.07.01zm.14-.21a.5.5 0 0 0 .11-.25c0-.12 0-.18-.11-.18a.2.2 0 0 1 0 .25c-.1.09-.09.15 0 .19zm.35 7.27q0 .28-.35.14c0-.09 0-.14.07-.14zm-.14-7.84a1.75 1.75 0 0 1 .35-.64.43.43 0 0 0 0-.64q-.14.35-.32.71a.55.55 0 0 0-.03.59zm.21 8.61c.23 0 .32 0 .25-.07s-.15-.05-.24.09zm.28-8.26c-.09-.09-.09-.18 0-.25s.09-.13 0-.18a.49.49 0 0 0-.11.25c-.01.14.02.2.12.2zm.14-2.33s-.07.08-.07.11 0 .06-.07.11.14 0 .14-.21.12-.08.07-.11-.06 0-.06.12zm.28-1.62q-.21.21 0 .21t.01-.19zm.14 11.44c0-.09 0-.13.07-.11s.01.08-.06.12zm.28-8.54c-.14.14-.14.2 0 .18s.16-.07.02-.17zm0 12.78h.14V28h-.14zm.56-14.68q-.07.35 0 0c.07-.17.07-.18.02.01zm.21-.64a.53.53 0 0 1 .18-.21.53.53 0 0 0 .18-.21.25.25 0 0 1-.14-.25q0-.18-.21-.11.14.28 0 .42c-.08.11-.08.23.02.37zm.35 16.38c.09 0 .14 0 .14.18s0 .2-.14.11zm.21-.5q.14-.21.14 0t-.11.01zm.21-5.65v.18c0 .03.08.11 0 .25s.15-.06.18-.18a.61.61 0 0 1 .18-.32h-.21c-.04 0-.03.13-.12.09zm.35-13.63c-.1-.09-.14-.07-.14.07.22.07.27.05.17-.05zm.21 12.28c-.09.09-.14.13-.14.11s0 0 .07-.07l.11-.07zm.35-.78c.09.09.14.06.14-.11s0-.22-.14-.18zm.14-.49a.23.23 0 0 0 .25-.21c0-.14 0-.21-.18-.21a.73.73 0 0 0-.03.44zm.28-.56a.24.24 0 0 0 .07-.18c0-.07 0-.11-.14-.11a.82.82 0 0 1-.11.18s.11.08.22.13zm-.07 33.2c0-.19.07-.2.07 0s.02.14-.07 0zm.14-33.68h.14v-.14h-.14zm.07 5a.9.9 0 0 1 .49 0v-.14l-.14-.14c0 .14-.08.18-.25.11s-.15 0-.06.19zm.28-6.35c.19 0 .24 0 .14-.07s-.1-.06-.1.08zm.49 6.28c-.09 0-.12.07-.07.07a.06.06 0 0 0 .07-.07q.28.07.14-.07c-.05-.08-.12-.05-.12.09zm.02-7.89a1.46 1.46 0 0 1 0 .64q.28 0 .25-.28a1.42 1.42 0 0 0-.11-.42s-.09.06-.14.06zm.14 7.7c.23.09.32.09.25 0s-.2-.1-.29 0zm.28-8.54c.14 0 .21-.07.21-.35-.27-.01-.34.11-.25.34zm.07 8.75a.92.92 0 0 1 .71 0c.23.09.4.07.49-.07a1.23 1.23 0 0 1-.67 0 2.83 2.83 0 0 1-.46-.25c0 .09 0 .15-.07.18s-.09.04-.04.14zm.14-10c.23 0 .38-.08.42-.25a.37.37 0 0 0-.07-.39 1.09 1.09 0 0 0-.21.28 2.66 2.66 0 0 0-.18.4zm.14 8.68c0-.14 0-.16.14-.07s.01.16-.18.12zm.71.49c.14 0 .16.11.07.18s-.17.06-.21 0 0-.06.07 0 .03-.03.03-.13zm0-11.3c.19.09.25.09.18 0s-.17-.04-.22.06zm.14-.28c0 .14.07.13.07 0s-.06-.14-.11.05zm.14 12.36a.64.64 0 0 0 .49 0c.09-.07.21-.06.35 0q-.14-.35-.42-.28a.69.69 0 0 0-.46.33zm.07.49c.23 0 .32 0 .25-.07s-.19-.02-.29.12zm.64-1.2c0-.14.08-.13.11 0s-.06.24-.15.05zm.14-1.06c0 .14.07.13.07 0s-.06-.13-.11.05zm.49 1.06c.09-.14.14-.14.14 0s-.08.19-.18.05zm.42 24.57h.21v-.14h-.21zm.07-1.84q.14.28.14 0t-.17.05zm.21-.49V46h.14c0-.14 0-.24-.07-.28s-.05.17-.1.17zm.07 3c.09.09.14.06.14-.11s0-.22-.14-.18zm.04-25.84c0-.14 0-.17.14-.07s.05.13-.14.07zm.07.85h.35c0 .09 0 .14.07.14s0 0 0 .14q-.4.02-.4-.27zm.21 21.67h.14v-.21h-.14zm.14-22c.09-.14.14-.13.14 0s-.04.25-.13.06zm.35 0c.14 0 .19.12.14.21l-.14.28c-.1 0-.14-.16-.14-.35.1.11.15.06.15-.08zm.56 23.3c0 .14 0 .25-.18.32s-.25 0-.25-.25q.14.14.21 0a.14.14 0 0 1 .23-.01zM296 24.71q.28.07.14-.07c-.05-.09-.14-.07-.14.07zm.07-1.2h.14v.14h-.14zm.14-.42c0-.14.11-.16.18-.07s.05.11-.14.07zm0 1c.09-.14.14-.13.14 0s0 .17-.1-.01zm.64 19.13c0 .14.08.14.11 0s.04-.15-.07-.01zm.56-20.62a.48.48 0 0 0 .42-.21q-.38-.01-.38.2zm1.13 1.48a1.46 1.46 0 0 0-.6.07c-.07 0 0 .09.07.14a.93.93 0 0 0 .46 0 2.6 2.6 0 0 0 .64-.18h-.35a.29.29 0 0 0-.18-.03zm-.03-1.08q.14-.28.14 0c0 .15-.04.16-.14 0zm.28-.42c.19 0 .25 0 .18-.07s-.13-.06-.18.08zm.42 18.29h.21V41h-.21zm.14-16.73q-.14.21 0 0c.16-.08.15-.09.01.01zm.21.64c.23 0 .32 0 .25-.07s-.15-.07-.24.07zm.08 15.22c.23 0 .28.06.14.18s-.19.02-.14-.18zm.14-15.81a1.19 1.19 0 0 0 .74.14 1.6 1.6 0 0 0 .81-.14q-.28.14-.25-.07c0-.14-.06-.19-.25-.14s-.12.21-.21.21a.61.61 0 0 1-.28-.07A1.34 1.34 0 0 0 300 24q-.15-.07-.22.15zm.71-1.34h.21V23h-.21zm.64-.14q.07.21.11 0t-.12-.05zm.35.92a.56.56 0 0 1-.35.07c-.01-.19.11-.21.35-.12zm.14-.49c0 .19 0 .19-.07 0s.07-.24.07-.05zm.49 1.2q-.21.07-.25 0c0-.07-.11-.11-.25-.11s0 .22.18.25.32-.1.32-.19zm-.35-1.69c.19 0 .25 0 .18-.07s-.13-.13-.18.01zm.28.21c0 .19 0 .28-.14.28a.4.4 0 0 1 .1-.34zm.42 1.2c-.28 0-.38 0-.28.07s.19.02.29-.13zm0-1.13c.14-.09.15-.08 0 0s-.09.07.01-.06zm0 1.48c.19.09.31.07.35-.07s-.18-.13-.25-.11a.16.16 0 0 0-.09.13zm.35-1.76q.21-.07.21.14c0 .14-.07.19-.21.14s0-.14-.07-.14-.02-.1.08-.2zm-.07.63c.09-.14.14-.14.14 0s-.04.09-.13-.05zm.56 1.06a1.11 1.11 0 0 1-.28 0c-.09 0-.14 0-.14.11a.31.31 0 0 1 .28 0c.11-.04.15-.07.15-.16zm-.35-.64q.07-.14.14 0c0 .07.12.08.21 0s0 .13-.14.11a.43.43 0 0 1-.16-.16zm.42-.63v.07h-.07s.04-.14.08-.14zm0 .07a.42.42 0 0 1 .28.07c0 .09-.07.13-.21.11s-.15-.14-.06-.23zm1.34.63q-.07.28-.32.14a.67.67 0 0 0-.6 0 .49.49 0 0 1 .42-.18 2.94 2.94 0 0 0 .52-.01zm-.49-.49q.14-.21.14 0t-.13-.05zm.28-.07c0-.19.07-.19.07 0s-.01.14-.06-.05zm.21-.14q.21-.07.21.14l-.07.07c-.09 0-.13 0-.11-.07a.12.12 0 0 0-.01-.21zm.28.92c.09.1 0 .12-.14.07.02-.2.06-.22.15-.13zm0-.78q.14-.21.14 0c.02.15-.03.14-.13-.05zm.35.78v-.11c0 .02.07.01.02.05zm.07-.78c.14 0 .18 0 .11.11s-.06.15 0 .25c-.04-.06-.09-.18-.09-.41zm.28.78c-.09 0-.13 0-.11-.07s.09-.08.13.01zm.14-.71c0-.14.07-.13.07 0s0 .14-.05-.05zm.07.21h.28v.21h-.21zm.21 1.06q.07.21.11 0t-.08-.05zm.21-1.48q.28.07.14-.07c-.06-.15-.11-.13-.11 0zm.11 1.13s0-.07-.11-.07.11.06.14.02zm1 0s-.12 0-.21.14q-.14-.21.21-.21zm0 0h.21c.14 0 0 .21-.21.21zm.42-.63c0 .14 0 .22.25.25s.32 0 .32-.18a.74.74 0 0 0-.52-.13zm.42 1.06c.09.19.13.2.11 0s-.01-.2-.05-.06zm.35.14q-.14.28 0 .14t0-.14c0-.09-.08-.12-.11-.07s.07.01.17.01zm.64-.71c.09.09.12.14.07.14s-.09 0-.14.14c.14 0 .22.11.25.32s.18.25.46.11c-.24 0-.35 0-.35-.14a.41.41 0 0 1 .14-.28c-.14 0-.2 0-.18-.14s-.06-.19-.25-.14c0 0 0-.09-.14-.14a.14.14 0 0 0-.21.07.55.55 0 0 0 .4 0z"/><path d="M303.88 39a9 9 0 0 0-4.34 2.79 7.27 7.27 0 0 0-1.73 4.91 1.05 1.05 0 0 1 .28.78.44.44 0 0 0 .49.49 1.17 1.17 0 0 0 .56.92 4.36 4.36 0 0 0 .92.56 8.64 8.64 0 0 0 .78 1.06q.42.5.81 1a6 6 0 0 1 .67 1.2 4.09 4.09 0 0 1 .28 1.59 7.17 7.17 0 0 1-2.6 3.8 16.74 16.74 0 0 1-4 2.12c-.33-.14-.56-.15-.71 0a.85.85 0 0 1-.56.18 2.22 2.22 0 0 1-1.87-.6 4.24 4.24 0 0 1-1.2-1.8 4.38 4.38 0 0 1-.21-2 1.6 1.6 0 0 1 1.13-1.38.59.59 0 0 1-.25.39c-.12.07-.18.22-.18.46 0 0 .12.07.35.07a.52.52 0 0 0-.18.74 1 1 0 0 1 .18.74 3 3 0 0 0 2.33-.25q1.2-.6 2.26-1a4.13 4.13 0 0 1 1.41-1.52 3.17 3.17 0 0 0 1.27-1.94l-2.12-2.12a9.06 9.06 0 0 1-1.76-2.54 6.1 6.1 0 0 0-.07-.85.73.73 0 0 0-.42-.64 10.49 10.49 0 0 1 .39-3.92q.53-1.59 1.16-3.42a1.86 1.86 0 0 0 .81-.6 7.73 7.73 0 0 1 .88-.88 7.48 7.48 0 0 1 1-.74 1.83 1.83 0 0 1 1.31-.18 1.9 1.9 0 0 0 .85.57 8.25 8.25 0 0 1 1 .46 2.87 2.87 0 0 1 .78.6 1.34 1.34 0 0 1 .3.95z"/></g></svg>