<svg xmlns="http://www.w3.org/2000/svg" viewBox="0 0 97.87 68.94"><defs><style>.cls-1{fill:#fff}</style></defs><title>fact__text</title><g id="Layer_2" data-name="Layer 2"><g id="General_Content" data-name="General Content"><path class="cls-1" d="M23.65 36.57a1.17 1.17 0 0 1-.28.18c-.14.07-.17.15-.07.25a3.35 3.35 0 0 1-.81.25 1.55 1.55 0 0 1-.88 0 .24.24 0 0 0-.07.18c0 .07 0 .13-.14.18q-3 .42-6.07 1.09t-6.22 1.05c-.09 0-.15.06-.18.18s-.08.18-.18.18a.66.66 0 0 1 0 .92 1.28 1.28 0 0 0-.25 1.13 9.24 9.24 0 0 0-.5 1.58 2.77 2.77 0 0 1-.64 1.38 1.88 1.88 0 0 1-.21 1.31 1.47 1.47 0 0 0-.14 1.24h-.23q-.21.92-.35 1.8a5.47 5.47 0 0 1-.5 1.53c0 .14 0 .21.14.21s.12.07.07.21a3.47 3.47 0 0 0-.67 1.91 4.31 4.31 0 0 1-.67 2 .36.36 0 0 0 0 .32.58.58 0 0 1 .07.32c-.19 0-.28 0-.28.14a.28.28 0 0 1-.21.28s.09.07.28.07q-.14.64-.25 1.27t-.25 1.34c-.14.09-.2.07-.18-.07s0-.17-.18-.07-.1.12 0 .21.09.21 0 .35c.09 0 .14 0 .14-.11a.24.24 0 0 1 .06-.07A4 4 0 0 1 3.81 61a6.16 6.16 0 0 0-.28 2 2.89 2.89 0 0 0-.42 1.27Q3 65 3 65.69t-.14 1.52a6.28 6.28 0 0 1-.28 1.41h-.14a.24.24 0 0 0-.07-.18.77.77 0 0 1-.85.53 2.11 2.11 0 0 1-1.13-.39 6.71 6.71 0 0 0-.07-1q-.07-.46-.14-1-.07-.21 0-.11c0 .07.12.08.21 0a.49.49 0 0 0 0-.42c-.07-.09-.06-.21 0-.35s-.09-.11-.14 0-.12.06-.21 0l.32-.32q.18-.18 0-.53c-.09 0-.12.13-.07.25s0 .18-.07.18a.47.47 0 0 1 0-.49.59.59 0 0 0 0-.56q.14.14.11 0a.17.17 0 0 1 .11-.21 13.09 13.09 0 0 1 .28-2.82 22.37 22.37 0 0 0 .42-2.82 1.06 1.06 0 0 0 .18-.74.53.53 0 0 1 .32-.6 9.68 9.68 0 0 1 .28-2.08q.28-1.24.42-2.15a.16.16 0 0 0 .18-.11c0-.07.11-.08.25 0a2.47 2.47 0 0 1-.25.71q-.11.14 0 .71a1.15 1.15 0 0 0-.35.46c-.14.26-.14.46 0 .6a4.63 4.63 0 0 0-.46 1.94 5.46 5.46 0 0 1-.53 2.15.06.06 0 0 0 .07.07.06.06 0 0 1 .07.07 1.06 1.06 0 0 0-.07.71.06.06 0 0 1-.07-.07h-.14a1.42 1.42 0 0 1-.11 1 .61.61 0 0 0 .11.81.6.6 0 0 0-.25.46c0 .21 0 .29.11.25a2.37 2.37 0 0 0-.3 1.57A3.22 3.22 0 0 1 .42 66q.28.14.25.21a.45.45 0 0 0 0 .28l.21-.14.14.28a.22.22 0 0 0 .07-.35.47.47 0 0 1-.07-.42 1.08 1.08 0 0 0 .14-.18c0-.07.14-.08.28 0a2.52 2.52 0 0 1 .07-1.55c.14 0 .15.07 0 .21s-.11.23 0 .28q.07-.78.07-1.27v-1.29c.09 0 .14 0 .14.07a.12.12 0 0 0 .14.14 3.76 3.76 0 0 1-.21-.88 1.6 1.6 0 0 1 .21-1c.09 0 .13 0 .11.14a1.11 1.11 0 0 0 0 .28.61.61 0 0 0 .35-.64.82.82 0 0 1 .28-.71.34.34 0 0 0-.28-.25c-.14 0-.19-.13-.14-.32h.21c.05 0 0 0 0 .18A4.33 4.33 0 0 0 3 57.65a4.23 4.23 0 0 0 .11-1.38 1.1 1.1 0 0 0 .32-1 1.27 1.27 0 0 1 .32-1.09A9.35 9.35 0 0 1 4.17 52a13.07 13.07 0 0 0 .49-2.26c0-.19-.1-.18-.14 0s-.09.25-.14.11a.56.56 0 0 1 .07-.35q.35-.07.11-.35a.41.41 0 0 1 0-.56c.09 0 .11.09 0 .14s-.06.12 0 .21c.14-.14.19-.25.14-.32l-.21-.32c.09 0 .12-.07.07-.21s0-.16.28-.07a1 1 0 0 1-.07-.64c0-.23.11-.48.18-.74a4.53 4.53 0 0 0 .14-.74 1.13 1.13 0 0 0-.18-.71s.07 0 .07.14a14.71 14.71 0 0 0 .53-2.72 9.59 9.59 0 0 1 .74-2.86q-.57.14-.49.6a2.62 2.62 0 0 1-.07 1 1.23 1.23 0 0 0-.49 1.16 4.46 4.46 0 0 1-.35 1.73 1 1 0 0 1-.18-.21.39.39 0 0 0-.18-.14 1.88 1.88 0 0 0 .18-.67.59.59 0 0 1 .39-.53A1.21 1.21 0 0 1 5 42a3.35 3.35 0 0 1 .25-.74q.18-.39.32-.78a1.37 1.37 0 0 0 .07-.74h-1a2 2 0 0 1-.88-.11 9.52 9.52 0 0 0-.46-1.62 2.27 2.27 0 0 1 0-1.62 7.71 7.71 0 0 0 1.69.11 7.52 7.52 0 0 0 1.69-.25q1.2-3.39 2.22-6.88a66.6 66.6 0 0 1 2.37-6.74 1.71 1.71 0 0 0-1.2.18 1.86 1.86 0 0 1-1.32.19 1.15 1.15 0 0 1-1.24.25 2.72 2.72 0 0 0-1.45-.11 1.19 1.19 0 0 1-.53-.74 2.57 2.57 0 0 1 0-1 6.07 6.07 0 0 1 .21-1c.09-.31.16-.58.21-.81q2.4-.35 5-.92a49.69 49.69 0 0 1 5.05-.74 2.46 2.46 0 0 1 2-.35 41.14 41.14 0 0 1 4.52-1Q25 16.24 27 16.1q.14.07.21 0a.82.82 0 0 1 .21-.14q1.55-.07 3.28-.21a14.43 14.43 0 0 1 3.21.07 5.55 5.55 0 0 1 2.47.92A3.14 3.14 0 0 1 37.63 19a.23.23 0 0 0 .21.25c.14 0 .19.15.14.39-.1 0-.15 0-.18-.07s-.08-.07-.18-.07 0 .22.11.25.15.08.11.18a.59.59 0 0 0-.74 0 1.26 1.26 0 0 1-.88.18v-.56c-.09-.14-.27-.19-.53-.14s-.39 0-.39-.28a80.08 80.08 0 0 0-9.64.78 90.19 90.19 0 0 0-9.85 1.91 33.6 33.6 0 0 0-3.18 6.6q-1.27 3.57-2.47 7.38a40.57 40.57 0 0 0 4.09-.53 40.78 40.78 0 0 1 4.17-.53l.21-.21 3.18-.14q1.55-.07 3.18-.07a.61.61 0 0 0 .28.18.65.65 0 0 1 .28.18.88.88 0 0 1-.85.78 1.51 1.51 0 0 0-1.06.49q-.14.14.11.32t-.1.3zM.71 67.78s.09-.07.28-.07a.41.41 0 0 0-.21-.35.34.34 0 0 1-.11.25c-.07.06-.06.12.04.17zm0-.92a.69.69 0 0 1 .07.32q0 .18.21.11c.09 0 .12-.14.07-.28s-.12-.21-.21-.21-.05.06-.14.06zm0 1.2q.28.35.32 0t-.32 0zM1 64.25a.18.18 0 0 1-.25.07l.25-.21c.08 0 .09.04 0 .14zm-.11.6c0 .16 0 .15-.14 0 .12-.18.17-.17.17 0zm.28-.6a.43.43 0 0 1 .11.39 3.28 3.28 0 0 0 0 .46c-.14 0-.19-.17-.14-.35a2.06 2.06 0 0 0 .06-.5zm-.07 1c.09-.14.14-.14.14 0s-.02.13-.11-.01zm.14-1.55c.1.19.1.24 0 .14s-.06-.16.03-.16zm-.04 2.17c.09.19.14.2.14 0s-.05-.14-.14 0zm0 .42c.09.19.14.2.14 0s-.05-.14-.14 0zm.21-7.62c.1 0 .13.09.11.28s-.11.23-.25.14 0-.22.07-.25.07-.08.07-.17zm-.14 4.17a.62.62 0 0 1 .18.35v.28a.41.41 0 0 1-.14-.28zm0 .85c0-.09 0-.13.07-.11s.03.05-.07.1zm.21-5.51c0-.19.07-.2.07 0s-.02.14-.07 0zm.35 9.74c-.14 0-.21 0-.21.07s.22.01.22-.07zm.07-9.18c0-.19 0-.18 0 0s-.04.26.01 0zm.14.71c.19 0 .28.09.28.42a.45.45 0 0 1-.32-.42zm.07 1.91c.14.09.24.07.28-.07s0-.24-.07-.28q.07.21-.11.18c-.1-.04-.14.02-.09.16zm.14-6.14c0-.19.07-.2.07 0s-.01.13-.06-.01zm.14 3.11c.09 0 .13.06.11.18a.5.5 0 0 1-.11.25c-.1 0-.11-.11 0-.18a.2.2 0 0 0 .01-.26zm0-2q.07-.21 0 .11t.01-.1zm0-1.77a.06.06 0 0 1 .07-.07h.07s-.04.08-.13.08zm.14 2.82a.42.42 0 0 1 .07.42 1.88 1.88 0 0 0-.07.42.33.33 0 0 1 0-.39.64.64 0 0 0 .01-.43zm0-5.58q.64 0 .42.56c-.09-.09-.18-.12-.25-.07a.43.43 0 0 1-.25.07 1 1 0 0 1 0-.32.8.8 0 0 0 .09-.22zm-.07 9.74q.21.14.21-.14c0-.19 0-.26-.14-.21a.32.32 0 0 1 0 .14.47.47 0 0 0-.06.23zm.07-4.45c.09-.14.14-.13.14 0s-.03.21-.13.03zM2.89 60a1.92 1.92 0 0 1 .18-.71q.18-.42-.11-.49a1.27 1.27 0 0 1-.21.64.36.36 0 0 0 .14.56zm1.2-12.85V47c-.09.09-.09.14 0 .14v.49h-.18a.15.15 0 0 0-.11 0 .39.39 0 0 1 .07.56l-.35.49c0 .14 0 .15.14 0s.14-.11.14 0 .06.26-.11.21-.27 0-.32.07a1.18 1.18 0 0 1 0 .85 3.26 3.26 0 0 1-.39.71 1 1 0 0 1 0 .67 1 1 0 0 0 0 .6.41.41 0 0 0-.28-.14l.53-2.4q.25-1.13.53-2.47c.14-.09.22-.11.25 0s.11.06.25 0a.2.2 0 0 0-.07.14c0 .09 0 .14.07.14a.12.12 0 0 1-.17.1zm-1.34 9.33q.21-.07.21.28-.21.14-.21 0zm.07 7c-.09.14-.08.15 0 0s.18-.1 0-.01zm.28-7.2c-.1 0-.14 0-.14-.07s0-.07-.14-.07 0-.15 0-.18a.29.29 0 0 0 0-.18A.23.23 0 0 1 3 56a.62.62 0 0 0 .11.27zm0-1c.09 0 .11.07 0 .21s-.15.19-.25.14 0-.21.07-.21a.13.13 0 0 0 .19-.14zM3 53.59a.28.28 0 0 1 .21-.07s-.1.07-.21.07zm0 .21s.08-.06.11 0 .06 0 .11 0H3zm.14 8.61a.49.49 0 0 0 0-.32.51.51 0 0 1 .11-.39.25.25 0 0 0-.25.3.57.57 0 0 0 .11.41zm0-7.84s.07-.07.21-.07a.87.87 0 0 0 0 .49q-.35.07-.21-.11a.21.21 0 0 0-.03-.31zm.07 6.21q.28.14.32-.14c0-.19 0-.28-.18-.28a.16.16 0 0 1-.11.18c-.1.02-.11.11-.06.25zm.14.56s0-.09.14-.14.07-.12-.07-.21a.14.14 0 0 1-.07.21c-.13.06-.13.11-.03.15zm-.07-4q.21.14.21-.14t-.21-.14zm.14-4c.14 0 .2.16.18.35s-.11.28-.25.28a1.44 1.44 0 0 1 0-.35 1.19 1.19 0 0 0 .04-.25zm.14 2.4c.23 0 .33-.09.28-.28h-.21a.28.28 0 0 1 0 .18s-.1.04-.1.13zm0 .35c.09.19.13.2.11 0s-.09-.09-.14.04zM3.74 52c.19 0 .25.14.18.28a2.38 2.38 0 0 0-.18.49c-.14 0-.17-.14-.07-.28a.6.6 0 0 0 .07-.49zm.07 2.68c.09.19.14.2.14 0s-.04-.18-.14-.03zm0 3.67q0 .35.21.35a.2.2 0 0 1 0-.25c.07-.07.06-.13 0-.18s-.02.05-.21.05zM4 51.4c.09 0 .14.07.14.21s-.22 0-.25 0-.03-.16.11-.21zm.14 3a.23.23 0 0 1 0-.35q.18-.14-.11-.28a.62.62 0 0 0-.18.35c-.03.17.06.27.24.31zm0-8.68q.21.21.28 0c.14.1.13.18 0 .25s-.15.13 0 .18a.32.32 0 0 1-.18.18h.18c0 .09-.14.14-.42.14a.63.63 0 0 1 0-.42 2.87 2.87 0 0 0 .09-.3zM4 58h.14v-.14H4zm.21-4.59c.09 0 .18-.09.25-.28s0-.28-.25-.28a.89.89 0 0 1-.07.32c-.14.07-.07.16.03.2zm-.07-4.24c.09-.14.14-.14.14 0s-.09.11-.19-.03zm.25 1.66a.22.22 0 0 1-.25.18.49.49 0 0 1 0-.21.31.31 0 0 0 0-.14c.17-.04.22.02.2.14zm-.3 4.87c0 .19.07.19.07 0s-.02-.18-.07 0zm.28 1.91v-.21c-.19 0-.28 0-.28.07s.14 0 .14.11.05.08.15.03zm.14-13.34q-.07.21.07.25c.09 0 .12.11.07.25-.24.09-.32.25-.25.46s0 .34-.25.39l.14-.71a2.48 2.48 0 0 1 .23-.64zm-.28 5.86c.09 0 .13 0 .11.11a.16.16 0 0 0 0 .18.16.16 0 0 1-.18-.11.16.16 0 0 1 .08-.18zM4.52 57a.4.4 0 0 0-.28.14c.18-.02.28-.07.28-.14zm-.07-7.48h-.11c.02 0 .06-.07.11-.03zm.07 5.15s-.08.06-.11 0 0 0 0 .11.08-.06.11 0 0-.04 0-.13zm-.14 1.53c0 .14.08.13.11 0s-.02-.2-.11 0zm.14-11.93q-.07-.28.07-.14c.09.09.07.14-.07.14zm.07 2.54c.19 0 .27 0 .25.21s-.13.24-.32.14a.56.56 0 0 0 .07-.35zm0 6.57c.09 0 .19 0 .28-.14-.19-.01-.28.04-.28.13zm.07-7.2q.07.14 0 .11s-.05-.07 0-.12zm0 0c0-.19 0-.23.07-.14s.07.13-.07.13zm.14 6.71c0 .23-.06.25 0 0s0-.2 0-.01zm.49-2q-.07.35.11.21t-.11-.27zm.21-.07c.14-.09.12-.23-.07-.42a.8.8 0 0 1 0 .25c-.05.01-.02.07.08.11zm-.06-9.52c.09.14.14.13.14 0s-.05-.19-.14 0zm.07 8.7c.09.19.14.2.14 0s-.05-.16-.14 0zm.14-.56c0 .24.07.35.21.35.14-.25.02-.37-.21-.37zm.07-.07c.09 0 .16-.12.21-.35s0-.33-.14-.28a.64.64 0 0 1-.07.28.45.45 0 0 0 0 .33zm.14-.78l-.07.07c.09 0 .14 0 .14-.07zm.21-4.31c0 .14.08.13.11 0s-.01-.2-.11-.01zm.14 3.39c0 .09 0 .11.14 0s0-.08-.14 0-.07-.12-.07-.07a.06.06 0 0 0 .07.06zm.21.49q0-.28-.14 0 .14.27.14-.01zm.21-4.38c.09-.09.07-.16-.07-.21s-.21 0-.21.07l.14.14zM6.5 47.3c.09 0 .15-.06.18-.18s0-.18-.11-.18a.28.28 0 0 1 0 .18.28.28 0 0 0-.07.18zm.28-4.3c.09-.14.09-.23 0-.28s0 .15-.07.18-.03.05.07.1zm-.07 3.53q.21.14.21-.11c0-.16 0-.25-.14-.25a.28.28 0 0 1 0 .18.28.28 0 0 0-.07.18zm.07-4.38H7v-.21h-.22zm.22 3.6a10 10 0 0 1 .39-1.2 1.64 1.64 0 0 0 0-1.2c-.1.38-.21.78-.35 1.2a2.11 2.11 0 0 0-.04 1.2zm.07-3.11q.21.14.21-.21t-.21-.21zm3-10.1a.72.72 0 0 1-.32.28.27.27 0 0 1-.32-.07.85.85 0 0 1-.21.32s0 .13.07.32a.5.5 0 0 0-.21.71.59.59 0 0 0-.39.6 1.23 1.23 0 0 1-.11.67h-.25a5.82 5.82 0 0 1 .25-1 1.78 1.78 0 0 0 .11-.88c0 .1 0 .13-.07.11a.26.26 0 0 0-.21 0A2.14 2.14 0 0 1 8 34.88a3.12 3.12 0 0 0-.49 1.27c.19 0 .28 0 .28-.11a.25.25 0 0 1 .21-.25c.09 0 .13.11.11.18s0 .13.11.18.04-.15.18-.15a.56.56 0 0 0 .35 0q.14-.49.35-.14c0-.14 0-.21.07-.21a.4.4 0 0 0 .28-.14.56.56 0 0 1-.07-.25c0-.07 0-.13-.14-.18 0 .14 0 .21-.14.21a.28.28 0 0 0 0-.35.28.28 0 0 1 0-.35c.14 0 .21 0 .21.11s0 .18.14.18a3.67 3.67 0 0 1 .28-1.17 3.68 3.68 0 0 0 .28-1.16 8.49 8.49 0 0 0 .42-.78c0-.09-.11-.09-.18 0s-.13 0-.18-.14a.68.68 0 0 1 .14-.35c.09-.14.09-.26 0-.35a2 2 0 0 1-.35.67 2.13 2.13 0 0 0-.35.6.29.29 0 0 1 .18 0 .73.73 0 0 0 .18.11A.71.71 0 0 0 10 32c0-.12 0-.15.14-.11.09.24.08.35 0 .35s-.14.12-.04.31zM7.77 43.1q0-.25-.21-.11v.21q.21.15.21-.1zm.23-.53c0-.28 0-.42-.14-.42s-.12.18-.07.25a.52.52 0 0 0 .21.17zm-.21.21h.14v-.14h-.16zM8 40.24a.2.2 0 0 0 0-.28.71.71 0 0 0-.25-.21.4.4 0 0 0 .25.49zm0 .43a.45.45 0 0 1 0 .53 1 1 0 0 0-.14.53 6.54 6.54 0 0 0 .53-1 1.13 1.13 0 0 0 0-1 1.72 1.72 0 0 0-.18.56.39.39 0 0 1-.21.38zm.42-5.22c.09.24 0 .35-.21.35-.12-.24-.04-.36.19-.36zm.28 6.21c.09-.19.14-.2.14 0s-.06.14-.16-.01zm.78-7.41c0-.14.07-.13.07 0s-.04.18-.09-.01zM9.67 33h.21v.21h-.21zm7.55 2.82q.7 0 .78-.28a.75.75 0 0 1-.42.14.48.48 0 0 0-.35.19zm1.27-.28a.52.52 0 0 1-.21-.07c-.1 0-.14 0-.14.07a.14.14 0 0 1 .21.07c.05.14.1.11.15-.03zm.42.11c.09 0 .12-.11.07-.25s-.31 0-.35.14a.29.29 0 0 0 .29.15zm.35-.25c-.14.24-.12.32.07.25s.18-.11-.06-.21zm.49.07c0 .1.14.1.28 0s.16-.16.07-.21-.08.11-.11 0-.08-.08-.18 0a.29.29 0 0 1-.04.25zm.49-.07q.35.42.78 0a.68.68 0 0 0-.39-.18.37.37 0 0 0-.37.22zm1.34-.07h-.25c-.12 0-.18 0-.18.07a.64.64 0 0 1 .28.07c.13.09.17.04.17-.1zm.21-.21q.07.35.21.28a.79.79 0 0 1 .35-.07q-.07-.42-.21-.21c-.07.18-.14.18-.32.04zm.92.21c-.09 0-.14 0-.14.07s.16.02.16-.03zm.56-.07v.14h.21c0-.14 0-.23-.07-.28a.12.12 0 0 1-.11.18zm.35 1.27c.09 0 .15 0 .18.07s0 .09-.11.14-.04-.03-.04-.17zm3.91 8.02v.07l-.14.21c-.14.21 0 0 .07 0a.29.29 0 0 0 .07-.21v-.07Q26.76 45.68 26 47a17.48 17.48 0 0 0-1.31 3.11s.12 0 .21-.14v.28a28.44 28.44 0 0 0 5.58-5q2.4-2.82 4.87-5.51a1 1 0 0 1 1 .25 2.57 2.57 0 0 1 .46.81l.14-.14s.07 0 .07-.11 0-.15-.14-.11a1.45 1.45 0 0 1 1.12.86 3.21 3.21 0 0 1 .18 1.45q-.07.81-.25 1.77a10.22 10.22 0 0 0-.18 1.87c-.14 0-.17-.09-.07-.28a.93.93 0 0 0-.18.56 1 1 0 0 0 .11.64v.07q-.21 1.34-.49 2.61a4 4 0 0 0 .07 2.26H37a1.06 1.06 0 0 1-.07.39c0 .12 0 .22.14.32s0 .13-.11.11-.11 0-.11.11q.35.14.32.71a1.13 1.13 0 0 0 .32.92.45.45 0 0 1-.39 0c-.12-.07-.15 0-.11.25a.91.91 0 0 0-.71 0 1.27 1.27 0 0 1-.39-.42.87.87 0 0 0-.53-.35 5.65 5.65 0 0 1-.71-2.15 13.05 13.05 0 0 1-.07-2.37q.07-1.2.21-2.51t.21-2.64a21.1 21.1 0 0 0-2.26 2.33q-1.06 1.27-2.19 2.44a17.83 17.83 0 0 1-2.45 2.11 7.27 7.27 0 0 1-3.1 1.24l-.78-.28a2.49 2.49 0 0 1-.78-.42c0-.19 0-.33-.28-.42a2.92 2.92 0 0 0-.71-1.84 15.89 15.89 0 0 1 2.75-7.2 29.56 29.56 0 0 1 4.87-5.51 6.44 6.44 0 0 0 .78 0 1.67 1.67 0 0 0 .64-.25 9.77 9.77 0 0 0 .88.46 7.4 7.4 0 0 1 1 .53 1.83 1.83 0 0 1 .64.71 1.37 1.37 0 0 1 0 1.06c-.1-.09-.14-.11-.14 0s0 .11-.14.11a.26.26 0 0 1-.32-.07.37.37 0 0 0-.41-.22 4.67 4.67 0 0 0-1.94 1.38 5.87 5.87 0 0 1-1.59 1.38l-.21.21s0 .14.07.28a1.58 1.58 0 0 0-1 .78 6.08 6.08 0 0 1-.8 1.12zm-4 3h.14v-.21h-.14zM24.92 50a.06.06 0 0 1 .07-.07s.01.01-.07.07zm.49-1.55c.1.14.06.34-.11.6a1.4 1.4 0 0 0-.25.74.69.69 0 0 1 .07-.67 1.84 1.84 0 0 0 .3-.69zm.28-.71c.24.09.28.19.14.28a.42.42 0 0 0-.21.35.21.21 0 0 1 0-.32.29.29 0 0 0 .08-.32zm.21-.35c.1-.09.08-.06 0 .11s-.13.11.01-.13zm.42-.42c0 .1-.09.14-.14.14s-.07 0-.07.14-.11-.12 0-.21a.18.18 0 0 1 .22-.09zm.21-.78c.09 0 .12.14.07.28s-.12.21-.21.21 0-.23.07-.28a.14.14 0 0 0 .09-.23zm2.19 3.18c0 .19.07.21.07.07s-.01-.18-.06-.09zm.14-.21c.14 0 .18 0 .11-.07s-.09-.09-.09.05zm.21-1.77a.9.9 0 0 1 .32.07c.12 0 .15 0 .11-.14a.73.73 0 0 0-.28 0 .31.31 0 0 1-.13.05zm.42 1.77q.07-.42-.42-.42c0 .09.06.15.18.18a.33.33 0 0 1 .26.22zm0-1.91a.06.06 0 0 1 .07.07 1.3 1.3 0 0 1 .25-.42.28.28 0 0 0 0-.42.69.69 0 0 0-.14.49c0 .24 0 .26-.14.07q-.09.19-.02.19zm.07 1.34v-.14h-.07v.14zm1.48-2.4c0 .28-.07.45-.21.49a.89.89 0 0 0-.35.21h.25a.72.72 0 0 1 .32.07 4.23 4.23 0 0 0-1.48 1.55.48.48 0 0 0 .32 0c.12 0 .13 0 0 .18a.31.31 0 0 0 .35-.35h-.35c0-.19.08-.27.25-.25s.25 0 .25-.18.14.07.14.21 0 .17.14.07.15-.23 0-.28-.13-.07 0-.07a1.61 1.61 0 0 0 .67-.46q.39-.39.11-.53a.14.14 0 0 1 .21-.07.78.78 0 0 0 .35.07 3.58 3.58 0 0 1 .78-1.17l.92-.81h.14a2.8 2.8 0 0 1 .42-.6 4.5 4.5 0 0 0 .49-.67 2.93 2.93 0 0 0 .32-.74 1.34 1.34 0 0 0-.11-.88c0 .1-.21.1-.49 0 0 .1 0 .14.07.14s.07 0 .07.14-.26.11-.35.32a.65.65 0 0 1-.49.39.44.44 0 0 1-.14.56 1 1 0 0 1-.64.21.81.81 0 0 0-.14.46.59.59 0 0 1-.28.46l-.14-.14c0-.09.07-.15.21-.18s.14-.11 0-.25a6.42 6.42 0 0 0-1.45 1.13q-.6.64-1.17 1.27a.23.23 0 0 1 .21.14c0 .1.12.07.21-.07s0-.14-.07-.14-.12 0-.07-.14.25 0 .32.14.15.19.25 0c-.09 0-.12 0-.07-.14a.14.14 0 0 1 .25-.11zm-1.48 3h.21v-.28h-.21zm.35-2c.09 0 .11 0 0 0s-.02-.07.02-.03zm.14-.28q-.14.14 0 0c.18-.12.17-.12.03-.03zm.14.28q.35 0 .35-.21c-.21-.03-.32.02-.32.18zm.85-1c0-.23-.08-.28-.25-.14s-.25.17-.25.07a.64.64 0 0 1 .35-.18h.35a.8.8 0 0 0 0-.25.32.32 0 0 1 0-.25.4.4 0 0 1 .18.14.51.51 0 0 0 .11.14c-.1.14-.1.26 0 .35q-.21-.07-.25.11c.01.08-.07.09-.22-.01zm0 1.2s-.06 0 0 .07.02.01.02-.09zm.49-1.27c.09.19.08.28 0 .28a.44.44 0 0 0-.32.14.93.93 0 0 1 .18-.25zm-.35 1.06c.09-.14.14-.15.14 0s-.02.08-.11-.02zm.28 1.55h.07v.14h-.07zm.07-2.61a.38.38 0 0 0 .18-.14s.08-.07.18-.07a.24.24 0 0 0-.07.18c.02.05-.07.06-.26.01zm.21-1c.14-.09.15-.08 0 0s-.07.14.03-.01zm.28 1c0-.09.07-.08.07 0s.01.12-.04-.02zm.71-1.2q0 .35-.21.21a.19.19 0 0 1 .24-.23zm-.07.71c0 .19 0 .24-.14.14v-.14zm0 0c0-.14 0-.18.14-.11s.08.09-.11.09zm.07-.71q0-.21.11-.11t-.08.09zm.28-.28a.12.12 0 0 1 .14-.14.12.12 0 0 1-.15.12zm1.06-.78a.93.93 0 0 0-.25.18 2.16 2.16 0 0 1-.32.25q.1-.45.6-.45zm-.35 1.06a.14.14 0 0 1-.11 0h.11zm.07-1.41H34v.21h-.14zm.42 0a.17.17 0 0 0-.14-.18c-.09 0-.09-.08 0-.18s.18 0 .25.14.06.2-.08.2zm0 0c0 .14 0 .18-.07.11s-.04-.13.1-.13zm.42-.21h.28v.21h-.28zm.35-.11c0 .17 0 .13-.07-.11s.09-.08.09.09zm1.52 11.6s0 .06-.07 0-.02 0 .07 0zm.42-14.19c-.1 0-.13 0-.11-.07s.07-.03.11.07zm0 0a.06.06 0 0 1 .07.07.06.06 0 0 1-.07-.07zm.71 7.4a.63.63 0 0 1-.07.18zm0-.64q.14-.14.11.14v.35c0 .04-.13-.06-.11-.18a1.63 1.63 0 0 0 0-.3zm0-.07c0-.14 0-.16.11-.07s.03.13-.11.08zm.07-.78s.07.09.07.28c0 0-.07 0-.07.07zm29.44-6.27a3.39 3.39 0 0 1-1.48 1.34A3.29 3.29 0 0 0 64.17 43q-.28-.49-.42 0a9.66 9.66 0 0 0-2.15 1.38 12.47 12.47 0 0 1-2.29 1.52v.11l.11.11a6.28 6.28 0 0 0-1.52 1.06 3.18 3.18 0 0 1-1.87.78q.14.35-.42.64a3.49 3.49 0 0 0-.92.64 4.76 4.76 0 0 0 1.69-.85 9.77 9.77 0 0 1 1.72-1.09 1.06 1.06 0 0 1-.64.64 2 2 0 0 0-.78.49l-.07.07h-.21c0 .1.09.13.14.11a.11.11 0 0 0 .07-.11.06.06 0 0 0 .07-.07 1.85 1.85 0 0 0 1.25-.43 5.38 5.38 0 0 1 1.24-.74 2.5 2.5 0 0 1-1.2 1 2.39 2.39 0 0 0-1.2 1.09c-.09-.14-.25-.15-.46 0a.67.67 0 0 1-.53.11c.09 0 .15.09.18.28s0 .28-.18.28-.24 0-.14-.14 0-.23-.14-.28-.19.11-.14.18a2.56 2.56 0 0 1 .14.25.41.41 0 0 0-.49.07c-.19.14-.33.09-.42-.14q-.28.14 0 .32t.07.32a17.5 17.5 0 0 1-2.19 1.2 8.28 8.28 0 0 1-2.4.78q-.78.35-1.59.64a6.32 6.32 0 0 0-1.45.71c-.09 0-.14 0-.14-.07s.06-.08 0-.11 0 0 0 .11a1.22 1.22 0 0 1-.78.39 6.11 6.11 0 0 1-1.13.11 5.54 5.54 0 0 1-1.09-.11 1.46 1.46 0 0 1-.67-.25.32.32 0 0 1-.21.18.62.62 0 0 0-.28.18 6.56 6.56 0 0 1-2.65-2 4.49 4.49 0 0 1-.88-3.18v-.07a.56.56 0 0 1-.11-.14.56.56 0 0 0-.11-.14 14.88 14.88 0 0 1 1.45-3.92 20.38 20.38 0 0 1 2.15-3.18A25.43 25.43 0 0 1 45.15 39q1.38-1.23 2.79-2.44.7-.14 1.38-.32a4.6 4.6 0 0 1 1.73 0 11.43 11.43 0 0 1 1.06.46 3.29 3.29 0 0 1 .85.6 2.87 2.87 0 0 0 .28.42 8.72 8.72 0 0 1-.74 1.91 1.5 1.5 0 0 1-1.66.71.9.9 0 0 1-.14-.67 1.13 1.13 0 0 0-.07-.67q-1.63 1-3.12 2.13a18.45 18.45 0 0 0-2.75 2.51 14 14 0 0 0-2.15 3.21A14.24 14.24 0 0 0 41.37 51a1.07 1.07 0 0 0 .28.56L42 52a4.61 4.61 0 0 0 2.15-.07 15 15 0 0 0 1.66-.64 42.22 42.22 0 0 0 5.93-2.47q2.75-1.41 5.33-3t5.08-3.32q2.51-1.69 5.19-3.32.28.35-.07.56a.36.36 0 0 0-.13.5zm-28 8.83v.07H39s.09-.07.18-.07zm0-.35c0 .19.07.2.07 0s.02-.15-.03-.01zm.14-.85c-.09.14-.08.17 0 .07s.18-.12.04-.07zm14.33 2.68a5.34 5.34 0 0 0-2 .67 6.44 6.44 0 0 1-2 .74 6.47 6.47 0 0 0 2.19-.49 16.58 16.58 0 0 0 1.84-.92s.06-.08 0-.11.02.02.02.11zm-3.46.21q.28.14.14 0c-.05-.09-.09-.09-.09 0zm.56-.14a3.1 3.1 0 0 1 .53-.21.67.67 0 0 0 .39-.28.89.89 0 0 0-.87.49zm.62 1.38c.23.1.35.07.35-.07a.78.78 0 0 1-.35.07zm2.33-1a1.44 1.44 0 0 0-.85.25 3.49 3.49 0 0 1-.71.39c-.14 0-.21 0-.21.14s.21 0 .21-.14a1.4 1.4 0 0 0 .88-.25 2.77 2.77 0 0 1 .67-.39.3.3 0 0 0 .25-.14q.11-.14 0-.21a.12.12 0 0 1-.14.14c-.13.04-.15.11-.1.21zm-1.55-.49c-.1 0-.12.08-.07.11s.07 0 .07-.11.12 0 .07 0-.08-.01-.08.04zm.92-1.2c.19.1.25.1.18 0s-.14-.05-.21.04zm.21-.56c-.09.09-.09.18 0 .25a.26.26 0 0 1 .07.32 1.61 1.61 0 0 0 .78-.64c-.14.09-.22.13-.25.11l-.18-.18a1.23 1.23 0 0 1-.18.35c-.07.13-.15.04-.25-.17zm.76-.25c.19.1.23.08.14 0s-.14-.14-.14 0zm.14 2.12c-.09 0-.12.07-.07.07a.06.06 0 0 0 .07-.07c.09 0 .19 0 .28-.14-.18-.05-.27 0-.27.14zm-.07-.28c.09.09.15.08.18 0s0-.18-.11-.18a.06.06 0 0 1-.07.07zm.21-.85s0-.07.14-.07a2.3 2.3 0 0 0-.21-.28.56.56 0 0 0 .08.35zm0-.85h.28c0-.14-.09-.19-.28-.14zm.78 1.2c-.1.14-.08.17 0 .07s.15-.11.01-.07zm.07-1.34a.12.12 0 0 1 .11.07.11.11 0 0 0 .11.07v-.21a.11.11 0 0 1-.11-.07.12.12 0 0 0-.11-.07zm.35-.14a.25.25 0 0 0 .28-.28.16.16 0 0 0-.18.11.46.46 0 0 1-.09.17zm.85 1.34c-.09 0-.14 0-.14.07s-.17-.11-.07-.18a.25.25 0 0 1 .28 0c.06.11.03.16-.06.11zm4.59-5.65s-.07 0-.07.07a.41.41 0 0 0-.28.14.65.65 0 0 0-.53.21 1.3 1.3 0 0 1-.53.35.16.16 0 0 1 .11-.18.16.16 0 0 0 .11-.18.18.18 0 0 0-.25.07.2.2 0 0 0 0 .28q-.07.14-.21 0l-.14-.14c.09.33 0 .51-.25.53a.59.59 0 0 0-.53.39.41.41 0 0 0-.28.07c-.09 0-.19.09-.28.28a.71.71 0 0 0-.56.35q-.07-.21-.07-.07a.24.24 0 0 0-.21.11 1.76 1.76 0 0 1-.21.25.32.32 0 0 0 .28-.11 2.34 2.34 0 0 0 .14-.25l.07.07a.71.71 0 0 0 .56-.35c.09 0 .19-.09.28-.28a.23.23 0 0 0 .28-.07 2.82 2.82 0 0 0 1.2-.59q.53-.42 1-.78c.19 0 .28 0 .28-.14l.07-.07c.1-.01.1-.01.1-.06s-.07.05-.07.11zm-3.52 4.66a.06.06 0 0 1 .07-.07c0-.14-.07-.19-.21-.14a.12.12 0 0 1 0 .14s.04.07.14.07zm.14-3c.19.1.24.1.14 0s-.14-.05-.14.04zm.71-.35s.07 0 .07-.07-.12.06-.08.11zm.28 1.69c-.1.19-.19.28-.28.28.09-.14.18-.24.28-.24zm.64 0a.54.54 0 0 0-.39 0c-.07 0-.08 0 0-.21a.62.62 0 0 0 .28.07.12.12 0 0 1 .1.18zm-.28-2.19l-.07.07q-.14.07-.07.11s.07 0 .07-.11.07 0 .07-.07.12 0 .07 0-.08 0-.08.04zM59 46.1a.41.41 0 0 0-.14-.28c-.05.18 0 .28.14.28zm.21 1a.37.37 0 0 0 .14.18v.18c0 .1-.09 0-.14-.14zm.35-.49a.4.4 0 0 1-.28.14q-.05-.15.24-.15zm.21.07q.07.28-.42.28c.14-.2.28-.29.38-.29zm-.35-.56q.07-.28.21-.14c.05.08-.02.12-.26.12zm.56.14a1.7 1.7 0 0 0-.21.25.24.24 0 0 1-.21.11c.05-.26.19-.38.38-.38zm-.21.42a.06.06 0 0 1 .07-.07l-.11.06zm.28.07c0 .09 0 .13-.07.11s-.07-.07.02-.12zm0 0a.06.06 0 0 1 .07-.07.06.06 0 0 1-.12.06zm.07-.07s0-.06.07 0-.02-.01-.11-.01zm.78-1.06c0 .19-.12.24-.21.14s-.07-.15.17-.15zm.14.71a1.38 1.38 0 0 0-.11.28c0 .1-.11.14-.25.14.14-.09.18-.19.11-.28s-.03-.16.21-.16zm-.21-2.54q.28.14.14 0c-.14-.17-.18-.16-.18-.02zm.07 1.84a.06.06 0 0 1 .07-.07c-.04.07-.07.1-.11.05zm.07-.07c0-.14 0-.15.14 0s0 .07-.18-.02zm.14.42v.11c0-.02-.11-.09-.04-.09zm0 0c0-.09.12-.09.21 0s-.02.08-.25.02zm1.27-2.75l-.07.07a.64.64 0 0 0-.56.35s-.12 0-.21.14-.07 0-.07.07-.21 0-.21.14-.12 0-.07 0 .07.06.07 0 .21 0 .21-.14l.07-.07s.12 0 .21-.14a.71.71 0 0 0 .56-.35s.07 0 .07-.07a.58.58 0 0 0 .35-.21h-.21a1.21 1.21 0 0 1-.18.19zm-.71 2a.31.31 0 0 0-.18.21.17.17 0 0 1-.18.14.31.31 0 0 1 .32-.39zm1.33-.68s0-.06-.07 0a.11.11 0 0 1-.14 0s.07.07.21.07c0 .24-.15.29-.32.18s-.27-.06-.32.18c-.14 0-.24 0-.28.07a.28.28 0 0 1-.28.14q.56-.42 1.17-.81a4.87 4.87 0 0 1 1.38-.6q-.35.28-.67.49a3.63 3.63 0 0 1-.68.28zm-.71.56s0 .06-.07 0-.05 0 .05 0zm0 0c0-.09 0-.14.07-.14s-.05.14-.09.14zm.07-.14v-.07h.21c-.11.1-.18.1-.23.1zm.35.14c0 .14 0 .17-.14.07s-.07-.11.12-.07zm-.07-1.41c.09-.14.14-.14.14 0s-.06.14-.16 0zm.07 1.41c0-.09 0-.14.07-.14s-.04.14-.09.14zm.07-.14s0-.06.07 0 .01.03-.09.03zm.22-2.19q.21.21.21 0-.21-.21-.21 0zm.56-.28q-.28-.07-.14.07c.09.09.14.07.14-.07s.12 0 .07 0-.09-.04-.09 0zm.21.49c.19 0 .24 0 .14.11s-.16.04-.16-.1zm.23 1.14c.14.09.16.14.07.14a.12.12 0 0 0-.14.14c-.14-.09-.17-.15-.07-.18s.14-.06.14-.1zm.35-.07c0-.14 0-.16.14-.07s.08.11-.1.07zm1-2.58s.07 0 .07-.11-.09.09-.04.11zm1.77-1.24q-.07-.14 0-.11s.07.07.02.11z"/><path class="cls-1" d="M89.31 21.82a3 3 0 0 0-1.77 0 2 2 0 0 1-1.77-.32l-.39.25a.74.74 0 0 1-.39.11.26.26 0 0 1-.35-.21q-.07-.28-.35 0c0-.09 0-.13-.07-.11a.11.11 0 0 1-.14 0c0 .09 0 .13.07.11a.12.12 0 0 1 .14 0v.21a1.14 1.14 0 0 1-.78-.11.52.52 0 0 0-.64.11.19.19 0 0 0-.21-.21.28.28 0 0 1-.28-.14c0 .19 0 .27.14.25s.16.08.07.32a.42.42 0 0 0-.6-.25.42.42 0 0 1-.6-.18s-.09 0-.14.14-.07 0-.07-.14a.46.46 0 0 1-.6.11q-.32-.18-.46.18a3.4 3.4 0 0 0-1.06-.14 2.24 2.24 0 0 0-1.13.28.29.29 0 0 0 .28.11 1.52 1.52 0 0 1 .35 0q-.21.21 0 .21c-.09.14-.19.19-.28.14a.22.22 0 0 1-.14-.21c-.19 0-.29.13-.32.25a3.59 3.59 0 0 1-.11.39q.56 0 1.31.07a1.1 1.1 0 0 0 1-.28q.35.07.11.11c-.17 0-.22.08-.18.18a2.63 2.63 0 0 0 1-.07q.6-.14.67.14.21.07.21-.11c0-.12.07-.18.21-.18s.07.19-.07.28a2.36 2.36 0 0 0-.35.28.7.7 0 0 1-.42-.11c-.09-.07-.21 0-.35.11 0 .09.18.14.39.14s.34 0 .39-.14a2.33 2.33 0 0 0 .71 0 6.57 6.57 0 0 0 .92-.18c-.19-.09-.21-.19-.07-.28s.25 0 .18.14a.19.19 0 0 0 0 .28 2.82 2.82 0 0 1 .6.07.87.87 0 0 0 .6-.07c-.1-.14-.19-.21-.28-.21s-.19-.07-.28-.21a1.07 1.07 0 0 1 1-.11q.64.18.85-.25c.14 0 .16.12.07.21a2.16 2.16 0 0 1 .64 0 3.48 3.48 0 0 0 .56 0h.07c-.05 0-.07-.08-.07-.18a4.18 4.18 0 0 0 2.33.32 6.21 6.21 0 0 1 2.75.32c.14.09.21.08.21 0s0-.18.14-.18 0 .14.14.14.21 0 .21-.14.07 0 .07 0h.07c.07 0 .28 0 .28.21q.07-.21.56-.07c-.24.09-.25.17 0 .21a2.75 2.75 0 0 0 .6.07 1.31 1.31 0 0 0 1.06.11 1 1 0 0 1 1 .18c0-.14 0-.21-.11-.21s-.2-.07-.25-.21.12 0 .07 0h-.07a4.12 4.12 0 0 0-.71-.21 2.19 2.19 0 0 1-.71-.28c0-.14 0-.2.11-.18s.18 0 .18-.18c-.28 0-.42 0-.42.14s-.07.17-.21.21-.24 0-.14-.14a.23.23 0 0 0 .07-.28c-.24 0-.35.14-.35.42-.09-.09-.18-.13-.25-.11a.16.16 0 0 1-.18 0c0-.14.09-.21.28-.21v.11a.14.14 0 0 0 0-.11h.07-.07.04a1.21 1.21 0 0 0-1.2-.53q-.85.14-1.13-.28c-.1 0-.14.06-.14.18s0 .15-.14.11a1.21 1.21 0 0 1-.14-.35q-.14 0-.49.35c0-.09-.06-.14-.18-.14s-.13-.07 0-.21.14 0 .14 0h.14q.14-.28-.18-.14t-.25-.21q1.55.14 2.86.32t2.79.46a.32.32 0 0 0 .07.35c-.09 0-.15.06-.18.18s0 .13.18 0v-.21c.09 0 .14 0 .14-.07a2.41 2.41 0 0 1 .35.28c.09.1.26.07.49-.07a3 3 0 0 1 .85 1.77 1.65 1.65 0 0 1-.56 1.62q.14-.28-.28-.21a.46.46 0 0 1-.56-.28 1.53 1.53 0 0 1-1.55 0 .66.66 0 0 1 .49-.35A2.46 2.46 0 0 0 96 25a8.46 8.46 0 0 0-3.32-.67 10.11 10.11 0 0 1-3.32-.53c0 .14-.18.24-.53.28s-.58 0-.67-.21a.68.68 0 0 1-.42.11 1.32 1.32 0 0 0-.49 0v-.28c-.1 0-.13 0-.11.14s0 .14 0 .14a1.64 1.64 0 0 0-.56-.14.48.48 0 0 1-.35-.14c-.1.24-.42.33-1 .28a8.84 8.84 0 0 1-1.41-.21q-1.41.14-3.07.21t-3.42.21a4.43 4.43 0 0 0-.53 1.24 8.71 8.71 0 0 1-.46 1.31l-.21-.21v.39c0 .07.08.2 0 .39s-.15.12-.18.07-.08-.07-.18-.07a1.8 1.8 0 0 1-.35.92.6.6 0 0 0 0 .78h-.28q-1 2.68-1.94 5.08a29.84 29.84 0 0 1-2.2 4.6 8.46 8.46 0 0 1-1.24 2.79 15.54 15.54 0 0 1-1.87 2.29 4.32 4.32 0 0 0 .07.85.78.78 0 0 1-.28.71q0 .21.07.11c0-.07.09-.06.14 0q-.07.57-.11 1.27v1.27l-.21.21a.81.81 0 0 1-.21.14 9.76 9.76 0 0 1 .28 2.37v2.5a18.14 18.14 0 0 0 .18 2.51 6.74 6.74 0 0 0 .81 2.4.63.63 0 0 0 .28.07.63.63 0 0 1 .28.07 6.66 6.66 0 0 0 2.51-1.13 14.87 14.87 0 0 0 1.91-1.73q.88-1 1.69-1.94a11.54 11.54 0 0 1 1.7-1.77.29.29 0 0 1 0-.32.29.29 0 0 0 0-.32.88.88 0 0 0 .64-.67.9.9 0 0 1 .71-.67 1 1 0 0 1 .35-.71l.64-.49A18 18 0 0 1 81 46q.88-1.16 1.87-2.29a28.91 28.91 0 0 0 1.84-2.82 7.9 7.9 0 0 1 2.19-2.47 7 7 0 0 0-1.17 1.77 4.52 4.52 0 0 1-1.24 1.62v.25c0 .03.07.08.07.18a4.23 4.23 0 0 0-.92.92q-.35.5-.71 1.06a12.12 12.12 0 0 1-.74 1.06 5.08 5.08 0 0 1-1 .92.11.11 0 0 0 .07.11v.18a.06.06 0 0 1-.07-.07.06.06 0 0 0-.07-.07A28 28 0 0 1 77.8 51q-2 2.22-3.74 4.48a.32.32 0 0 0 .35-.07 2.41 2.41 0 0 0 .28-.35 2.47 2.47 0 0 1 .32-.39.62.62 0 0 1 .46-.18q.14-.14-.07-.11c-.14 0-.17 0-.07-.18a.38.38 0 0 0 .53-.18 1.07 1.07 0 0 1 .46-.46v-.18c0-.03-.08-.11 0-.25l.21.21a47.49 47.49 0 0 0 3.39-3.92q1.55-2 3-4.27a1.12 1.12 0 0 0 .49-.14 4.53 4.53 0 0 1 .64-1.41 3.53 3.53 0 0 1 .95-1.1c0-.09-.07-.19-.21-.28q.35 0 .28-.25t.42-.32a.4.4 0 0 1 .11-.53 1.24 1.24 0 0 0 .39-.46 7 7 0 0 1-1.31 2.47 6.08 6.08 0 0 0-1.24 2.61c-.38 0-.56.14-.56.56 0 .14.11.17.18.07s.15-.09.25 0-.26.31-.64.21a.57.57 0 0 0-.07.25.39.39 0 0 1-.14.25c.09.1.18.08.25 0s.2-.13.39 0a11.64 11.64 0 0 0-1.1 1.85A10.94 10.94 0 0 1 80.7 51c0 .09 0 .11 0 0s.08-.06.18 0q-1.77 2.12-3.57 4.45a25.22 25.22 0 0 1-4.06 4.17 10.05 10.05 0 0 1-2.51.71 2.81 2.81 0 0 1-2.37-.64 9 9 0 0 1-2-3.35 16.61 16.61 0 0 1-.81-4 36.36 36.36 0 0 1-.11-4.24q.07-2.15.21-4.13c0-.19-.21-.28-.49-.28q-.35-.64-.71-1.34a3.05 3.05 0 0 1-.28-1.62.33.33 0 0 0 .35-.21.9.9 0 0 1 .21-.35.37.37 0 0 1 .32.32 1.76 1.76 0 0 0 .18.53c.19 0 .28 0 .28.07l.28-.14.28-.14q.56-3.11 1.09-6.35a62.44 62.44 0 0 1 1.31-6.14 3 3 0 0 1 .28-1.76 3.84 3.84 0 0 0 .35-1.91q-3.81.42-6.88.88t-6.74.74a10 10 0 0 0-1.2-.18q-.49 0-1.34-.18a2.35 2.35 0 0 1-.6-1.45 2.93 2.93 0 0 1 .25-1.66q2 .21 4.27.25a39.92 39.92 0 0 0 4.48-.05v.07c-.07 0 0-.13.07-.11s.07 0 .07 0a3.64 3.64 0 0 0 1.55 0 2.64 2.64 0 0 1 1.41 0c.14 0 .15-.09 0-.14s-.15-.12-.11-.21a.88.88 0 0 0 .46.11l.39-.18v.28c.09 0 .13 0 .11-.14s0-.14.11-.14a.82.82 0 0 0 .56.14.43.43 0 0 0 .49-.35.68.68 0 0 0 .25.18.47.47 0 0 1 .18.11c0 .24-.13.37-.39.39a.4.4 0 0 0-.39.46c-.1-.19-.26-.23-.49-.14a.61.61 0 0 1-.64-.07 1.05 1.05 0 0 0 1 .35l1.27-.14c.09 0 .13 0 .11.11s-.06.11-.11.11a1.18 1.18 0 0 1 .28 0c.09 0 .14 0 .14-.11a1.3 1.3 0 0 0 .71.11.71.71 0 0 0 .56-.25c-.09.19-.07.25.07.18a.28.28 0 0 1 .35 0 .54.54 0 0 0 .25-.39q0-.25.11-.6a.46.46 0 0 0-.21.21c0 .09-.14.12-.28.07s-.19-.16-.28-.07-.19.07-.28-.07.11-.14.18-.14.13 0 .18-.14-.18-.12-.25-.07-.06 0 0-.28q.21.42.6.11c.26-.21.43-.22.53 0a6.42 6.42 0 0 1 .49-1.77 3.73 3.73 0 0 0 .35-1.55q1.06-2.4 1.94-5t1.87-5a48.14 48.14 0 0 1 2.19-4.73A21 21 0 0 1 79.64 0a3.45 3.45 0 0 1 1.94.49A7.37 7.37 0 0 1 83 1.69a4.93 4.93 0 0 1 .11 1.8 5.76 5.76 0 0 1-.46 1.8q0 .21.28.07-.57 2.26-1.09 4.24t-1.13 3.88l-1.2 3.81q-.6 1.91-1.31 4a53.73 53.73 0 0 0 5.86 0 40.89 40.89 0 0 1 6.07.11l-.28.28a.69.69 0 0 1-.54.14zm-30.64 1.13c.14-.09.15-.08 0 0s-.1.14 0 0zm1.06-.07c.09-.19.14-.2.14 0s-.05.12-.14 0zm.92-.28h.28c.14 0 0 .13-.07.11s-.07 0-.07.11-.13-.09-.11-.14a.11.11 0 0 0-.04-.09zm.64.07c0-.09 0-.11.14 0s.04.04-.15-.01zm2.33 0q.14-.21.18 0c.01.13-.05.13-.19-.01zm2.26 0c-.28 0-.38 0-.28.07s.17.06.27-.08zm.56 17.72c.14 0 .23-.12.28-.35s0-.38-.14-.42a.5.5 0 0 1 0 .42.57.57 0 0 0-.15.34zm.28-17.3c.09 0 .14.07.14.21 0 0-.07 0-.07.07s-.07-.09-.07-.28zm.07 16a2.19 2.19 0 0 1 .35-.92.94.94 0 0 0 .14-.85c0-.14 0-.16-.14-.07a4.6 4.6 0 0 1-.32.92 1.32 1.32 0 0 0-.03.94zm.56-16.38v.14c.19-.09.19-.14 0-.14v-.14a.14.14 0 0 1-.21.07.22.22 0 0 1-.14-.21.77.77 0 0 1 .6 0 .75.75 0 0 0 .53 0 .18.18 0 0 1-.07.25c-.1.07 0 .08.14 0 0 .24-.18.32-.39.25a.34.34 0 0 0-.46.18c-.14 0-.22 0-.25-.07S67 23 66.79 23a.51.51 0 0 1 .56-.27zm0 16.31q.14.28.14 0t-.14-.02zm.21-2.82a.61.61 0 0 0 .11-.32c0-.16-.06-.22-.25-.18a.74.74 0 0 1 0 .28s0 .14.14.24zm.07-12.78c-.09 0-.13 0-.11-.07s.07 0 .11.09zm0 14.33a.55.55 0 0 1 .07-.21c0-.09 0-.14-.07-.14a.45.45 0 0 0-.11.21c-.02.12.02.16.11.16zm0-14.33a.06.06 0 0 1 .07.07.06.06 0 0 1-.07-.05zm.07-.78c.09.14.14.14.14 0s-.04-.12-.14.02zm0 11.86h.14c.09 0 .13-.09.11-.14s-.08-.07-.18-.07a.29.29 0 0 1-.07.23zm0 2.33a.41.41 0 0 0 .28-.14q.14-.14-.14-.21a1.24 1.24 0 0 1-.14.37zm.15-2.83c0 .24 0 .25 0 0s.04-.16 0 0zm0-.85a2.54 2.54 0 0 1 .32-.67 1.61 1.61 0 0 0 .25-.67 1.1 1.1 0 0 0-.21-.18.37.37 0 0 1-.14-.18 7 7 0 0 1-.18 1 1.6 1.6 0 0 0-.04.73zm.15 2.93c0-.09 0-.12.07-.07a.19.19 0 0 0-.21-.21.25.25 0 0 1 0 .21s.03.07.14.07zm0-12.92c0-.14.07-.13.07 0s-.07.19-.07 0zm.71.21c-.09.14-.17.19-.21.14a.57.57 0 0 0-.35-.07.39.39 0 0 1 .54-.07zM69 28.1c-.09.1-.15.11-.18 0s-.08-.06-.18 0a1.13 1.13 0 0 1-.07 1 1.13 1.13 0 0 0-.07 1h-.28a.49.49 0 0 0 0 .42 1.26 1.26 0 0 1 .18.35c-.14 0-.21 0-.21-.07s0 0-.14.07a.71.71 0 0 1 .07.32c0 .12.09.18.28.18a2.24 2.24 0 0 0 .14-.42.36.36 0 0 0-.14-.42q.21-.07.32-.42c.07-.24 0-.35-.18-.35a6.65 6.65 0 0 0 .39-1q.18-.56.32-1.2h-.18a.15.15 0 0 0-.11 0q-.27.19.04.54zm-.49-5.58l-.07-.07h-.07s0 .07.14.07a.2.2 0 0 0 .07.14v.21a.63.63 0 0 0-.32-.18q-.18 0-.11-.39a1.47 1.47 0 0 0 .35 0c.09 0 .14.06.14.25zM68.27 34c.09.14.14.13.14 0s-.05-.23-.14 0zm.64-3.18c.09.09.16.07.21-.07s0-.21-.07-.21 0 .14-.11.14-.08.01-.04.1zm3-6.35a3.42 3.42 0 0 1-.78 1.27 2.08 2.08 0 0 1 .07 1.2 2.57 2.57 0 0 1-.53 1.06 2.1 2.1 0 0 1-.07.92q-.14.49-.32 1c-.12.35-.22.73-.32 1.13a3 3 0 0 0 0 1.31h-.21a1 1 0 0 1 0 .56q-.11.35-.21.74a4.44 4.44 0 0 0-.14.78 1.56 1.56 0 0 0 .11.74.42.42 0 0 0-.32.46.56.56 0 0 1-.25.53 21.85 21.85 0 0 0 2.86-5.68q1.09-3.21 2.15-6.18l-1.06.14a2 2 0 0 1-.95-.02zm-2.68-1.55c-.1.09-.17.14-.21.14v-.14zm0 4.24c.14.09.22 0 .25-.14s0-.26-.18-.21 0 .15-.07.18-.02.01.03.12zm.14-5.22a.41.41 0 0 1 .07.28h-.21v-.14s.17-.08.17-.19zm-.07.71c.19 0 .24 0 .14-.07s-.11-.13-.11.01zm0 3.81a.41.41 0 0 0 .07.28c.19 0 .28-.12.28-.35a.56.56 0 0 0-.32.01zm.56-1a.41.41 0 0 0-.14-.28c.03.14.08.24.17.24zm.21 1.06a.26.26 0 0 1 .07-.39c.14-.12.12-.18-.07-.18a1.85 1.85 0 0 1-.21.32c-.06.08.01.16.24.21zm-.21-1.62q.14.28.14 0t-.11-.05zm.32-1.9c0 .14 0 .21.11.21s.13.07 0 .21a.46.46 0 0 0-.18-.11c-.07 0-.08 0 0 .18a.5.5 0 0 0 .42-.07.3.3 0 0 1 0-.39.21.21 0 0 0 0-.32c-.1.21-.21.29-.35.29zm.07 2.26c.09.19.14.2.14 0s-.05-.13-.14.02zm.14 1.62q.14.28.14 0t-.14.02zm.42-4.8a.41.41 0 0 1 .14-.28.83.83 0 0 0-.35.11c-.14.07-.14.15 0 .25s.07-.06.21-.06zm.28-1.34a.23.23 0 0 1 .14-.21c.09 0 .07-.09-.07-.14a1.11 1.11 0 0 1-.18.14q-.1.09.11.23zm.07-1.2a.66.66 0 0 0 .42-.18c.14-.12.12-.22-.07-.32a.46.46 0 0 1-.21.21.28.28 0 0 0-.14.31zm.21.56q.28.07.14 0c-.09-.1-.13-.1-.13.02zm.07-.42h.14c-.09 0-.13-.08-.13.02zM71.66 58c.09.14.14.13.14 0s-.05-.15-.14 0zm.28-39.61a1 1 0 0 0 .21-.32q.07-.18-.28-.25a1.23 1.23 0 0 0-.11.35c-.02.19.04.26.18.26zm-.07 1.06q.14.21.11 0t-.11.04zM74.06 23v.28c0 .04.08.12 0 .21s-.21-.06-.21 0a1 1 0 0 1-.14.25c.42 0 .62-.21.6-.49a1.06 1.06 0 0 1 .25-.78.29.29 0 0 0-.32 0c-.07.07-.13 0-.18-.18h.42a.14.14 0 0 1 0-.11.14.14 0 0 0 0-.11c.09 0 .12-.08.07-.11s-.07 0-.07.11a1.48 1.48 0 0 0-1 0 2.45 2.45 0 0 1-.88.18c.19 0 .28.07.28.21-.19.09-.29.11-.32 0a.61.61 0 0 0-.25-.25 3 3 0 0 0-.21.53q-.07.25-.21.6A6.43 6.43 0 0 1 74 23.3c0-.28 0-.42.14-.42l.07.07s-.06.05-.15.05zm-1.41-6.35a.69.69 0 0 1-.07-.32c0-.12-.07-.18-.21-.18a.72.72 0 0 1 .07.32c-.01.13.07.19.21.19zM72.36 22q.28.07.14-.07c-.09-.07-.14-.04-.14.07zm7.91-20.66q-.85 1.06-1.73 2.37a5.79 5.79 0 0 0-1 2.65.77.77 0 0 0-.54.84q0 .64-.53.71c-.09.19-.07.27.07.25s.19 0 .14.18a1.05 1.05 0 0 0-.28.46.45.45 0 0 1-.35.32 1.29 1.29 0 0 1-.07 1 1.11 1.11 0 0 1-.56.53c.23 0 .32.11.25.18a.8.8 0 0 0-.18.32.34.34 0 0 0 .39-.32.6.6 0 0 1 .25-.46 1.16 1.16 0 0 1-.35 1.13.78.78 0 0 0-.14 1.06 1.07 1.07 0 0 0-.39.56.77.77 0 0 1-.39.49c.09.09.16.07.21-.07s.12-.09.21.14a1.09 1.09 0 0 0-.39.64c-.07.28-.13.56-.18.85a3.78 3.78 0 0 1-.21.78.63.63 0 0 1-.42.42 3.65 3.65 0 0 1-.08 1.28 11.09 11.09 0 0 1-.51 1.35q-.28.67-.53 1.38a6 6 0 0 0-.32 1.41.59.59 0 0 0 .46 0 .47.47 0 0 1 .46 0c0 .09-.14.13-.28.11s-.19 0-.14.18a1.73 1.73 0 0 0 .71-.28q.14-.14 1-.07 1.47-5.14 3.15-10.36a58.61 58.61 0 0 0 2.48-10.24 4.4 4.4 0 0 0-.78-.42.59.59 0 0 0 .25.39 1.7 1.7 0 0 1 .32.24zM72.72 22q.35.07.21-.07c-.1-.07-.17-.04-.21.07zm.07-6.14c0 .19.07.2.07 0s-.03-.12-.07.03zm.14-.21a.49.49 0 0 0 .11-.25c0-.12 0-.18-.11-.18a.2.2 0 0 1 0 .25c-.11.1-.1.16 0 .2zm.35 7.27q0 .28-.35.14c0-.09 0-.14.07-.14zm-.14-7.84a1.75 1.75 0 0 1 .35-.64.43.43 0 0 0 0-.64q-.14.35-.32.71a.55.55 0 0 0-.03.6zm.21 8.61c.23 0 .32 0 .25-.07s-.15-.04-.25.1zm.28-8.26c-.09-.09-.09-.18 0-.25s.09-.13 0-.18a.48.48 0 0 0-.11.25c-.02.15.02.21.11.21zm.14-2.33s-.07.08-.07.11 0 .06-.07.11.14 0 .14-.21.12-.08.07-.11-.06 0-.06.13zm.28-1.62q-.21.21 0 .21t.01-.18zm.14 11.44c0-.09 0-.13.07-.11s.03.09-.06.14zm.28-8.54c-.14.14-.14.2 0 .18s.15-.06.01-.16zm0 12.78h.14V27h-.14zM75 12.5c0 .24 0 .25 0 0s.09-.19 0 0zm.21-.64a.53.53 0 0 1 .18-.21.53.53 0 0 0 .18-.21.25.25 0 0 1-.14-.25q0-.18-.21-.11.14.28 0 .42c-.06.1-.06.22.04.36zm.35 16.38c.09 0 .14 0 .14.18s0 .2-.14.11zm.21-.49q.14-.21.14 0t-.09 0zM76 22.1v.18c0 .03.08.11 0 .25s.15-.06.18-.18a.61.61 0 0 1 .18-.32h-.21c-.04 0-.02.12-.15.07zm.35-13.63c-.1-.09-.14-.07-.14.07.22.05.27.03.18-.07zm.21 12.28c-.09.09-.14.13-.14.11s0 0 .07-.07l.11-.07zM77 20c.09.1.14.06.14-.11s0-.22-.14-.18zm.14-.49a.23.23 0 0 0 .25-.21q0-.21-.18-.21a.73.73 0 0 0-.12.4zm.28-.56a.24.24 0 0 0 .07-.18c0-.07 0-.11-.14-.11a.82.82 0 0 1-.11.18s0 .04.14.08zm-.11 33.15c0-.19.07-.2.07 0s-.03.15-.07 0zm.14-33.68h.14v-.14h-.14zm.07 5a.89.89 0 0 1 .49 0v-.12l-.14-.14c0 .14-.08.18-.25.11s-.2-.02-.1.17zm.28-6.35c.19 0 .24 0 .14-.07s-.14-.06-.14.09zm.49 6.28c-.09 0-.12.07-.07.07a.06.06 0 0 0 .07-.07q.28.07.14-.07c-.09-.08-.14-.05-.14.09zm-.07-7.91a1.46 1.46 0 0 1 0 .64q.28 0 .25-.28a1.43 1.43 0 0 0-.11-.42s-.04.08-.14.08zm.14 7.7c.23.09.32.09.25 0s-.15-.08-.24.02zm.28-8.54c.14 0 .21-.07.21-.35q-.34.01-.2.36zm.07 8.75a.92.92 0 0 1 .71 0c.23.09.4.07.49-.07a1.22 1.22 0 0 1-.67 0 2.8 2.8 0 0 1-.46-.25c0 .09 0 .15-.07.18s-.04.07.01.16zm.14-10c.23 0 .38-.08.42-.25a.37.37 0 0 0-.07-.39 1.09 1.09 0 0 0-.21.28 2.67 2.67 0 0 0-.13.42zM79 22.1c0-.14 0-.16.14-.07s.05.12-.14.07zm.71.49c.14 0 .16.11.07.18s-.17.06-.21 0 0-.06.07 0 .07-.08.07-.18zm0-11.3c.19.09.25.09.18 0s-.14-.09-.18.01zm.14-.28c0 .14.07.13.07 0s-.03-.18-.07-.01zM80 23.37a.64.64 0 0 0 .49 0c.09-.07.21-.06.35 0-.1-.23-.24-.33-.42-.28a.69.69 0 0 0-.42.28zm.07.49c.23 0 .32 0 .25-.07s-.17-.07-.26.07zm.64-1.2c0-.14.08-.13.11 0s-.03.19-.12 0zm.14-1.06c0 .14.07.13.07 0s-.04-.18-.08 0zm.49 1.06c.09-.14.14-.14.14 0s-.06.14-.15 0zm.42 24.57H82v-.14h-.21zm.07-1.84q.14.28.14 0t-.15.01zm.17-.49v.1h.14c0-.14 0-.23-.07-.28s.01.18-.07.18zm.07 3c.09.09.14.06.14-.11s0-.22-.14-.18zm.11-25.9c0-.14 0-.16.14-.07s.05.15-.14.07zm.07.85h.35c0 .09 0 .14.07.14s0 0 0 .14q-.42.03-.42-.25zm.21 21.67h.14v-.21h-.14zm.14-22q.14-.21.14 0t-.14.07zm.35 0c.14 0 .19.12.14.21l-.14.28c-.1 0-.14-.16-.14-.35.1.12.19.07.19-.07zm.56 23.3c0 .14 0 .25-.18.32s-.25 0-.25-.25q.14.14.21 0a.14.14 0 0 1 .23 0zm-.21-22.17q.28.07.14-.07c-.09-.02-.13 0-.13.14zm.07-1.2h.14v.14h-.14zm.14-.42c0-.14.11-.16.18-.07s.02.19-.17.14zm0 1q.14-.21.14 0t-.13.06zm.64 19.13c0 .14.08.14.11 0s-.01-.08-.11.06zm.56-20.62a.48.48 0 0 0 .42-.21q-.41.06-.41.27zm1.13 1.48a1.45 1.45 0 0 0-.6.07c-.07 0 0 .09.07.14a.92.92 0 0 0 .46 0 2.57 2.57 0 0 0 .64-.18h-.35a.29.29 0 0 0-.21.04zM85.78 22q.14-.28.14 0c0 .16-.05.17-.14 0zm.28-.42c.19 0 .25 0 .18-.07s-.13-.05-.18.09zm.42 18.29h.21V40h-.21zm.14-16.73c-.09.14-.08.15 0 0s.15-.08.01.02zm.21.64c.23 0 .32 0 .25-.07s-.15-.06-.24.08zM86.91 39c.23 0 .28.06.14.18s-.19.03-.14-.18zM87 23.16a1.19 1.19 0 0 0 .74.14 1.6 1.6 0 0 0 .81-.14q-.28.14-.25-.07c0-.14-.06-.19-.25-.14s-.12.21-.21.21a.61.61 0 0 1-.28-.07 1.36 1.36 0 0 0-.26-.09q-.18-.05-.3.16zm.71-1.34H88V22h-.21zm.64-.14c0 .14.08.13.11 0s.02-.19-.07-.01zm.35.92a.56.56 0 0 1-.35.07c.04-.15.16-.17.39-.08zm.14-.49c0 .19 0 .19-.07 0s.11-.2.11-.01zm.49 1.2h-.25c-.03 0-.11-.11-.25-.11s0 .22.18.25.37-.06.37-.15zM89 21.6c.19 0 .25 0 .18-.07s-.11-.07-.18.07zm.28.21c0 .19 0 .28-.14.28a.4.4 0 0 1 .17-.27zm.42 1.2c-.28 0-.38 0-.28.07s.22.08.31-.08zm0-1.13c.14-.09.15-.08 0 0s-.06.12.03.01zm0 1.48c.19.09.31.07.35-.07s-.18-.13-.25-.11a.16.16 0 0 0-.07.19zm.35-1.77c.14 0 .21 0 .21.14s-.07.19-.21.14 0-.14-.07-.14.02-.03.1-.13zm-.07.64c.09-.14.14-.14.14 0s-.01.15-.12.01zm.56 1.06a1.11 1.11 0 0 1-.28 0c-.09 0-.14 0-.14.11a.3.3 0 0 1 .28 0c.13.02.18-.01.18-.1zm-.35-.64c0-.09.09-.11.14 0s.12.08.21 0 0 .13-.14.11a.44.44 0 0 1-.17-.1zm.42-.64v.07h-.07s.06-.08.11-.08zm0 .07a.41.41 0 0 1 .28.07q0 .14-.21.11c-.1-.01-.12-.07-.03-.16zm1.34.64q-.07.28-.32.14a.67.67 0 0 0-.6 0 .49.49 0 0 1 .42-.18 2.94 2.94 0 0 0 .55.05zm-.49-.49q.14-.21.14 0t-.1.01zm.28-.07c0-.19.07-.19.07 0s.02.2-.03.01zM92 22c.14 0 .21 0 .21.14l-.07.07c-.09 0-.13 0-.11-.07A.12.12 0 0 0 92 22zm.28.92c.09.1 0 .12-.14.07-.01-.11.04-.14.13-.04zm0-.78q.14-.21.14 0c0 .23-.05.22-.15.03zm.35.78v-.11c0 .02.04.09 0 .14zm.07-.78c.14 0 .18 0 .11.11s-.06.15 0 .25c-.07.02-.11-.1-.11-.33zm.28.78c-.09 0-.13 0-.11-.07s.06 0 .13.1zm.14-.71c0-.14.07-.13.07 0s-.02.22-.07.03zm.07.21h.28v.21h-.21zm.21 1.06q.07.21.11 0t-.11.03zm.22-1.48q.28.07.14-.07c-.1-.07-.14-.04-.14.07zm.11 1.13s0-.07-.11-.07.08.14.1.1zm1 0s-.12 0-.21.14q-.14-.21.21-.21zm0 0h.21c.14 0 0 .21-.21.21zm.42-.64q-.07.21.25.25c.21 0 .32 0 .32-.18a.74.74 0 0 0-.55-.04zm.42 1.06c.09.19.13.2.11 0s-.04-.11-.09.03zm.35.14q-.14.28 0 .14c.09-.09.09-.14 0-.14s-.08-.12-.11-.07.04.1.13.1zm.64-.71c.09.09.12.14.07.14s-.09 0-.14.14c.14 0 .22.11.25.32s.18.25.46.11c-.24 0-.35 0-.35-.14a.41.41 0 0 1 .15-.25c-.14 0-.2 0-.18-.14s-.06-.19-.25-.14c0 0 0-.09-.14-.14a.14.14 0 0 0-.21.07.55.55 0 0 0 .36.05zm-6.19 25.31q.14-.14.21 0c0 .09.09.14.14.14a.76.76 0 0 0 0 .25c0 .07 0 .13-.11.18a2.38 2.38 0 0 1 .5 2.14 2.62 2.62 0 0 1-1.17 1.69h-.56a10.07 10.07 0 0 0-1.06-.92 1.38 1.38 0 0 1-.42-1.41.23.23 0 0 1 .1-.16.22.22 0 0 0 .14-.21 3 3 0 0 0 1.09-.88 2.43 2.43 0 0 1 1.14-.82zm1.34-11.65a2.65 2.65 0 0 0 .14.85c.09.28.2.58.32.88a3.28 3.28 0 0 1 .21.88 1.32 1.32 0 0 1-.25.85q-.64.42-1 .21a2.59 2.59 0 0 1-.74-.64 4.63 4.63 0 0 0-.46-.42c-.07 0-.13-.23-.18-.56a1.69 1.69 0 0 1 .56-1.52 2.15 2.15 0 0 1 1.4-.53z"/></g></g></svg>