<svg xmlns="http://www.w3.org/2000/svg" viewBox="0 0 502.85 338.55"><defs><style>.cls-1{fill:#fff}</style></defs><title>raw2</title><g id="Layer_2" data-name="Layer 2"><g id="Layer_1-2" data-name="Layer 1"><path class="cls-1" d="M59.72 156.93s.64 1 .64-.43c-.36.03-.3.25-.64.43zm35.7-70.12c0-.57-.07-.57-.21 0 .14.57.21.57.21 0zm-1.07 1.71v-.21c-.14 0-.14.07 0 .21zm-35.91 47.35c-.14-.07-.21 0-.21.11.28.02.35-.04.21-.11zm15.39-9.51c0-.47-.28-.14-.43 0v.43zM51 141.64q-.74.23-.21.75a.6.6 0 0 0 .64-.43zm35.76-11.54c.35-.35.32-.39-.11-.1s-.24.46.11.1zm3.32-35.81c-.14 0-.21.21-.21.64.13 0 .21-.21.21-.64z"/><path class="cls-1" d="M93.18 89.27c.72-1.65 7.28-9.66 6.09-11.44-2.7 5.85-7.62 10.14-9.19 16.46 1.32-.91 2.42-3.49 3.1-5.02zm12.5-16.35c0-.55 1.23-1.11.64-1.71-.21.42-1.22 1.13-.64 1.71zm-22.23 38.47a2.27 2.27 0 0 0 0 1.93c0-.88 1.55-1.82 0-1.93zm24.37-43.82c0-.57-.07-.57-.21 0 .13.57.21.57.21 0zM101 75.59c.2-.66 2.14-1.74 2.14-1.39 0-.66-1.39 2.15-1.28 1.92 2.7-.6 2-3.48 3.63-5.13-2.12 0 1.87-4.53 2.43-5.36a32.1 32.1 0 0 0 3.77-7c-.68 1-2.37 2.09-2 2.89-.55-1.12-.05-.12-.43.32.14-.16-.37 1-.48 1.18-.46.73-1.37 1.2-1.85 2-.38.65-.39 1.51-.81 2.12s-1.46 1.08-1.72 1.51-1.4 3.56-1.4 3.57c.18.36 1.2-.38 1.2.27-1.22.82-5.65 2.85-4.28 5.13a4.89 4.89 0 0 0 1.08-2.03z"/><path class="cls-1" d="M102.69 72.27l-.21.64h.43q.27-.5-.22-.64zm6.2-10.36c.14.07.21 0 .21-.32-.29.14-.36.25-.21.32zm-.89 4.92c.14.07.21 0 .21-.32-.21.14-.32.24-.21.32zm-17.5 58.25v-.21c-.14-.01-.14.07 0 .21zm17.75-58.58c.28-.14.35-.21.21-.21a.19.19 0 0 0-.21.21zm1.49-2.77c.28-.14.35-.25.21-.32s-.21.03-.21.32zm-25.01 46.81q.43-.21 0-.43-.27.44-.59.86.61.58.59-.43zm13.9-26.3c-.29-.28-.29-.14 0 .43.28 0 .28-.14 0-.43zm-.86 1.29c-.16.47 1.24.55.85-.86a1.27 1.27 0 0 0-.85.86z"/><path class="cls-1" d="M97.77 137.69c0-.93-.33.26-.62.08-.56-.33 1.1-5.18 1.9-5.85 0 1.35-1.55 2.09-.21 3.42.57-2.89.73-3.59 3.87-3.8 2.87-.2 5.75-.39 8.63-.47a59.78 59.78 0 0 1 6.49.16 31.31 31.31 0 0 0 4.3.47c1.77-.14 1.37.4 1.91-1.58s-.38-4.82-1.9-5.68c-.12-.07-1.38-.61-1.5-.64.88.21-2.44-.19-1.71-.21-.87 0-.49.65-1.18.67s-1-.59-1.6-.67c1 .13-2.84.32-1.82.21-1 .1-1.54-.93-2.46.21a.86.86 0 0 0-.43-1.07l-.84 1.06-.85-.85a13.74 13.74 0 0 1-2.5.76 15.5 15.5 0 0 1-5.41.09c1.21-1.9 2.93-10.69 4.7-10.69-.41-.81-.66-2.53-1.6-2.46s-1.22 3.06-1.82 4c-.38-1.13.76-4.15 1.18-4.86.12-.21 1.07-.55 1.22-.71s1.15-2.09 1-1.91c0 1.39-1.19 2.48-.64 3.85 1.57-1.25.52-4.23 2.56-4.92-.53-1.05-.84-.58-1.71 0-.45-1.59.75-.52 1.32-1.27.73-1 1.17-2.3 2.1-3.22-1.17 0-.34-1.3-.64-1.92.89 1.33 1.47-1.74 1.28-1.93 0 .49-.11.62 0-.72.11-1.08 1.12-1 .62-2.49 1.71 0 2.92-8.5 3.21-10-.68-.34-.31.75-.72.75-1 0 1.77-2.39 1.7-2.28a4.38 4.38 0 0 0 .74-1.14c.3-.88-.86-.9-.86-1.39a2.22 2.22 0 0 0 1.92-3.2c1.38-.55 1.35-1.81 1.66-3q-.9-1 .35-1.66a11.29 11.29 0 0 0 .86-1.6c.72-1.86.42-3.12 1.2-5.05a1.92 1.92 0 0 1 1.07-1.29 4.32 4.32 0 0 1 .19-2.56c.5-1.41 1.29-2.56 1.75-4v-1.45a4.29 4.29 0 0 0 1.28-1.07c.63-1.69.32-3.85 1-5.65 1.19-3.17 3-5.88 3.87-9.18 1.05-3.82 2.52-7.55 3.62-11.39.39-1.35.77-2.69 1.16-4 .65-2.22 1.36-3.3.44-5.34-.53-1.16-2.73-3.86-3.9-4.38-.74-.33-2.35.4-2.35-.85-1.56.79-1.91-.32-3.39 1-1.66 1.5-1.47 3.73-1.85 5.77-.91 4.79-2.73 9.6-4.29 14.21s-3.7 9.22-4.93 13.86l.14 1.47a1.77 1.77 0 0 0-1 .94 22.54 22.54 0 0 0-.61 2.44c-.2.74-2.14 3.18-1.64 3.68q.54-.74.86.21a16.06 16.06 0 0 0-1.23 2 31.61 31.61 0 0 0-1.33 3.36c-.52 1.33-4.12 5.52-3.21 6.41.9-.91.92-2.38 2.14-3-4.66 13.39-9 26.87-13.34 40.37l-3.05 9.54c-.66 2-1.39 6.51-2.42 7.8-1.36 1.71-5.3 1.22-7.37 1.71a21 21 0 0 1-4 .74 11.2 11.2 0 0 1-2.34-.1 2.74 2.74 0 0 1-1.28.64c.65-1.31.25-4.67 1.92-5.34 0 1-.64 1.61-.64 2.57 1.92-1 0-3.24 1.71-4.28 1.05 0-.72 1.66.8-.42.38-.52 1.77-1.59.7-2.14.45.92-1.23 1-.11-.49a8.89 8.89 0 0 1 1.07-.76q1.2-1-.1-1.1c.91-.91 1.65-.54 1.92-1.92-1.38.69.73-3.8 1-4.17 1.18-1.38 3.29-1.55 2.65-3.94 0 .1-.77 1.56-1.13.83a11.34 11.34 0 0 1 1.41-1.91 1.83 1.83 0 0 0 1.07.64c.23-1.18 1-2 1.28-3.21-.76-.75-1.5 1.19-1.5.86 0-.67 1.61-2.84 2.14-1.28.08-.32 1.8-2.54.64-2.78-1.52-.32.51 2.22-1.28 1.5.49-1.23 1.33-2.24 1.92-3.42q-.29.74.43.86a2.11 2.11 0 0 0 1.07-1.93 1.21 1.21 0 0 1-1.07-.24 2 2 0 0 1 1.07-1.07q-.29.74.43.86c0-.25-.21-.51-.21-.64 0 .93 1.25-1 .35-1l-.48.64s1.62-3.83 1.92-4.26c1.31-1.88 2.3-2 3.34-4.61-.69-.33-.31.75-.72.75-1.91 0 2.47-3.2 2.27-3 .64-.52 1.29-.16 1.42-1.15.07-.56-1.07-.15-.4-.83-.89-.3-.58 1.21-.94 1.5s.78-2.7.86-2.82c.39-.62 1.92-1.77 1.15-2.74q0 .87-.86.64c.48-.47.95-.79.21-1.28l-1.71 4.27-.43-.64c0-.67-.26 3.06.21 2.14-.34.67-3.17 1.13-2.62 2.25a5.63 5.63 0 0 1 .59-.21c.36.36-3.42 6.47-4.17 6.09.18 1.86-1 1.59-1.5 2.78-.26.6.92 2.53-1.07 2.14a2 2 0 0 1-.86 2.35c0-.69.86-2-.35-.05-.6.95-1.41 1.7-.51 2.83a3.8 3.8 0 0 0-1.07-.43c.77 1.93-.69 2.12-1.47 3.45-.42.71-.9 3.17-1.95 2.11 2.09-3.66 3.89-7.46 6-11.12-2 1.07-2.31 3-3.32 4.73a67.91 67.91 0 0 0-3.33 6.32c-2.14 4.7-5.14 8.46-7.56 13.17-1.23 2.39-2.19 6.93-4 8.87-1.9 2.1-3.83 1.17-6 1.5-2.34.36-4.8 1.82-7.21 2.32a72.22 72.22 0 0 0-9.25 2.38c-.8-2.38.92-5.39 1.84-7.54a31.24 31.24 0 0 0 1.1-4.12c.65-2.3 1.69-4.53 2.44-6.77.61-1.8 1.74-6 1.24-8.08.75.76.74.2.86-.43.16-.89-.49-.31-.86-1.07 2.65-1 2.17-5.4 2.51-7.16.06-.3 1.18-1.91 1.23-2.24a23.52 23.52 0 0 1 .54-3.21 164.5 164.5 0 0 0 4.92-20.52c.34-1.82.08-3.81.43-5.56.19-.92 1.5-2.83 1.28-3.85-.12-.58-1.34-2-1.58-2.78q1.2-1.23-.4-2a9.85 9.85 0 0 1-1.61-1c-1.12-1-.4-2.68-3-2-1.53.39-2 1.41-2.51 2.84-.68 1.87-.62 3.89-1 5.82-.22 1.14-1 2.13-1.21 3.11a13.46 13.46 0 0 0 .14 2.23c0 1.83-1.26 4.3-1.66 6.13-.88 4-1.7 7.89-2.83 11.83-1.61 5.64-2.87 12.08-4.75 17.86-2.05 6.34-3.83 13-6.25 19.16-1.4 3.55-1.81 7.36-3.14 10.93q-.47 1.27-1 2.49a2.79 2.79 0 0 0-2.23-.42c-1.59.25-3.21 1.86-4.82 2.35a1.47 1.47 0 0 1 .37-.85c.11.22-2.15 1.1-2.6 1.24-1.33.44-2.92.55-4.28.92-3.56 1-7 2.37-10.59 3.09-3.37.67-5.46 0-8.63-.87-2.08-.56-2.31-.9-3 1.12-.49 1.35.21 3.13.77 4.33 1.44 3.09 3.58 5.55 7.06 5.88 3.2.3 5.16-1.07 8.17-1.77 6.08-1.41 11.69-4.14 17.69-5.82-2.38 8.76-4.6 17.56-6.59 26.42q-1.46 6.5-2.46 13.1-.52 3.48-.91 7-.17 1.55-.32 3.11-.08.78-.14 1.56.24 1.08-.92 1.21c-1.15 4.3-.84 9.53-1.32 14a124.35 124.35 0 0 0-.95 13.75c0 3.65-.5 9.17 2.51 12a10.43 10.43 0 0 0 2.15 1.34c.29.17 2.07 1.13 2.35 1.82 1-.75 1.17-.27 2.14.21-.25-.73.34-.64.59-1.18.41-.9-.09-2.11-.23-3.16a31 31 0 0 1-.25-6.25c.14-2.17.46-4.33.79-6.48a14 14 0 0 1 1-2.92c.27-.75-.21-.59-.21-1.39 1.15 0 2.87-11.78 3-13.47 1.28 1.28 3.21-8.81 3.42-9.62a50.22 50.22 0 0 1 1.78-5.07c.45-1.18 2-5 2.92-5.4q-.16.5.43.43c1.77-3.32 4.34-6.27 5.8-9.73a18.67 18.67 0 0 1 2-4.18c.89-1.24 1.64-2 1.64-3.63 1.44.73 1.5-2 1.69-2.34.72-1.32 1.8-1.2 1.3-3.22 1.93 0 1.88-2.31 2.87-4.07.37-.66 2.09-5.33 2.48-5.33v.43a3.89 3.89 0 0 0 1.39-2.16.73.73 0 0 0-.53.13c.32.16-.07-1.19.86-1a1.74 1.74 0 0 1 1.5-2.56c0-1.29.89-1.14 1.18-2.14.24-.83.23-1.67.46-2.12.9-1.86 2.89-2.21 2.21-4.93l.86.43a10.3 10.3 0 0 1 .21-1.92v.64a5.24 5.24 0 0 0 1.07-2.46c-.31-.16-.22.71-.21.75 1.56-.62.8-2.3 1.92-3.2s4.28-.8 5.56-1c3.87-.61 7.72-1.16 11.55-2-3.09 10.56-6.65 21-9 31.8a194.74 194.74 0 0 0-4.22 34.27c-.18 5.09.26 10.18 0 15.27-.23 4 1.26 4.46 3.63 6.72.57.54 2.68 1.75 3.62 1.5 2-.53 1.68-2.9 1.71-4 .06-2.1.22-4.42.39-6.61a25.24 25.24 0 0 0 .46-4.19c-.09-.69-1.24-.4-.86-1.93l.86.43a29 29 0 0 1 .12-7.14 1 1 0 0 1-.45-1 7.48 7.48 0 0 0 .52-1.29c-.19-1.45-.4-1.27-1.68-1.91a1.3 1.3 0 0 1 1.71 0 1.09 1.09 0 0 0 .21-1 3.5 3.5 0 0 1-.86.16 14.75 14.75 0 0 0 .79-2.62 43.52 43.52 0 0 1 .92-5.13 5.68 5.68 0 0 0-2.14.43q-.53-1 .43-1.5c1.32 3.31 2-3.47 2-4 .08-1.06 1.37-4.93.59-5.07 1.49-1 1.28-3.19 1.87-4.66.11-.05-1.12.07-.64.32s1-3.25 1.15-3.69c.21-.78.54-1.16.74-2.14s.14-2.34.38-3.48 3.9-10.46 2-10.46c0 .69-.09 2-.85 2.35a10.21 10.21 0 0 1 .51-2.27c.54-.95.91.07 1.63-.29.12.24 1.23-4-.24-2.78-.52.42.33 1-.61 1.28.38-1.51.47-3.13 1.28-4.49 0 0 .21 1.49-.11 1.34 1.32.87 3.72-8.08 3.49-9.44zm23.41-9.83c-.2.39 1.53-.22 1.18.86.31-.01-1.45-.33-1.18-.87zM121 64.79l.11-.64c1.57 0-1.19 1.35-.11.64zm-.32 1c.95.47-.68-.33-.03-.03zm-1.07 4.81c.14-.43.21-.39.21.1s-.1.44-.24-.13zm.21-17.74q0 .86-.43-.21c.26-.47.4-.4.4.17zm-.64.86c.15.24.65-.13.43.64h-.43zm-22.9 34.37c0 .15-.21.21-.64.21-.01-.13.21-.21.64-.21zM85.8 105.3c0 .5-.14.46-.43-.1.29-.43.43-.39.43.1zm-.85 2.24l.85-.21c.51.52-.63 1.15-.83.91zm-36.13 26.73c0 .57-.07.57-.21 0 .14-.57.21-.57.21 0zm-5.34 12a1.3 1.3 0 0 1 0 1.71 1.3 1.3 0 0 1-.01-1.74zm-.48-1.96c.14-.56.14-.53 0 .11s-.1.58 0-.11zm-.85 3c.6-.6.63 1.18 0 .86zm-.64 1.29c.87-.58.88 1.15 0 .86zm.21 4v-.6c.51-.25.75 1.39-.21 1.07zm-.21 1.18c0 .57-.07.57-.21 0 .18-.63.25-.63.25-.06zm-.43-1.5c0 .57-.07.57-.21 0 .18-.62.25-.62.25-.06zm.43 2.56c0 .29-.21.43-.64.43.04-.34.25-.48.68-.48zm-1.07-6.63c.53-.26.33.73.13.8-.71.26-.09-.91-.09-.85zm.21 6.31c0 .5-.14.53-.43.11.33-.63.48-.63.48-.16zm-.86-7.37c.22.21.58-.2.43.43-.58.09-.16-.27-.38-.49zm.43 11.65c0 .5-.14.46-.43-.11.34-.48.48-.44.48.05zm-.64-10.69l.43.32c0 .46-.7.28-.75.32q-.26-.53.37-.7zm-.11 12.72l.11.85c-.46.46-.79-1.86-.06-.9zm-1 1.28c-.32.95-.67 0-.64-.43q.44.42.43-.21.58.08.3.59zM38 163c-.36.36-.39.32-.11-.11s.49-.23.11.11zm.32-9.62c0 .5-.14.54-.43.11.31-.55.46-.59.46-.09zm-.86 1.18a.39.39 0 0 1 .51-.21.8.8 0 0 1-.16.8c-.59.26-.19-.48-.32-.57zM35.14 157q.37.25.11.53-.59-.12-.11-.53zm-.75 1.71l.32-1a2.26 2.26 0 0 1 0 1.92.83.83 0 0 1-.32-.89zm-1.5 6.31l.32-1.28c1 0-.26 2-.43 2.35a.72.72 0 0 1 .11-1.04zm-.32 2.14c.43-.28.46-.25.11.11s-.39.34-.11-.08zm-.64 1.39l.43-1c0-.09.24 2.61-.43 2.24q.77-.18 0-1.21zm-.64 2c.87.59.53.93 0 .06zm-.11 1.45l.11-.54c.48 0 .39 1.05.13 1.21q-.63-.05-.24-.67zm-.54 2.67a1.7 1.7 0 0 0 .21-1.07 1.59 1.59 0 0 1 0 1.93zm0 1.6c0 .5-.14.53-.43.11.29-.57.44-.61.44-.11zm0 .86c0 .5-.14.46-.43-.11.29-.43.44-.39.44.11zm-.85 1.17c.14.24.65-.13.43.64h-.43zm-2.35 5.77h.64v.43c-.77.22-.4-.28-.64-.42zm-.21 10.47c.56-5 1.47-10 2.35-15 .2 3.33-.67 6.34-1.33 9.55-.3 1.53-.84 5.37-1.02 5.46zm-.75 3.2q.15-1.18.32-2.35a4.27 4.27 0 0 1-.86 4.49 11.75 11.75 0 0 0 .54-2.12zm-.53 2.35c.15.24.65-.13.43.64h-.43zm-1.07 8.12c.14-.57.14-.53 0 .11s-.15.62 0-.09zm2.56 5.34c.28-.57.43-.61.43-.11s-.14.56-.43.13zm.86-3.2c-.16.24 0 1-.35 1a1.73 1.73 0 0 1-.29-1.39q.95-.36.64.41zm.21-3.85c.14-.43.21-.39.21.1s-.07.49-.21-.08zm.86-3.31c-.94-.46.52.28 0 .02zm1.5 2.67c-.64-.21-.64-1.49-.64-1.92 1.08.29.63 1.06.63 1.94zm-.86-9c.53-.86.87-.49-.01.04zm-.32-6.63q-2.46 16-5.24 32.49a334.92 334.92 0 0 1 4.91-34.42q1.72-8.78 3.83-17.49.95-3.91 2-7.8c.2-.75 1.14-5.87 1.66-6.08s.21 1.25-.19 1.44c1.18.83-3 12.47-3.5 14.41q-2.16 8.69-3.47 17.49zm7.59-19.56c0 .5-.07.46-.21-.11.13-.38.21-.34.21.15zm-1.07 3c-.14.64-.14.61 0-.11.14-.56.14-.49 0 .15zm-1.18.21q-.54.54-.11-.11c.43-.24.47-.2.08.15zm.11-2.35q.19-.61.43-.05-.19.76-.43.09zm-.32 8.55l.11-1c.82.55.21.84.21 1.71zm.32-2c0-.14.21-.21.64-.21 0 .13-.21.22-.64.22zm-1.28 6.63c.28-.43.43-.39.43.11s-.15.47-.43-.1zm.21 1.28c-.29.14-.43-.07-.43-.64.29.01.43.22.43.65zm-.43-7.06a.84.84 0 0 1 .86-.64c-.29.44-.57.65-.86.65zm-.43 12.61a1.63 1.63 0 0 1-.64.21zm-1.28-3.21q.44.38 0 .86-.45-.37 0-.84zm.19 7.09l-.19.17c0-.06.07-.11.19-.15zM49 176.17c-1.28.42-1.71 2.46-2.27 3.66a56.26 56.26 0 0 1-4.35 7.46 33 33 0 0 1 4-8.09c.42-.6 1.61-3.67 2.61-3.67zm.43-3.21l.16.7c-.06.19-.49-.3-.4-.56s.92-.46.27-.1zm4.49-6.41c.03.45.32-.15.03 0zm.43-.43a.83.83 0 0 1-.21-.85q.81.49.24.85zm1.92-3.84l-.43.64c-.8-.4.78-1.28.86-1.28zm1.92-7.16l-.21.53c-1.14-.58.74-.78.25-.54zm1.07-.75a1.72 1.72 0 0 1-1.07-.43.86.86 0 0 1 1.07-.43zm1.5 1.28l-.64.21.43-.86zm-.11-4.7a2.84 2.84 0 0 0-1 1.5c-.61-1.52 1.48-1.76 1.07-3a1 1 0 0 1-.04 1.49zm-2.89 2.78a1.23 1.23 0 0 1-.86.86 2.74 2.74 0 0 0 .21 1.5c-1.63-.81-1 2.21-1.21 2.78-.54 1.67-2.27 2.9-3.06 4.49l.45-.32a21.78 21.78 0 0 0-1.42 2.46l-.11-.64c-.49.74-.36 1.34-.7 2.06l.27.51a14.13 14.13 0 0 0-2.14 1.92c0 .84 1.15.15 1.07.11-1.1-.57-16.34 31.19-18 34.52-.91-2.12.54-4.38.8-6.47.37-2.93.9-5.82 1.33-8.77s.73-5.9 1.36-8.79c.2-.9.92-6.17 2.06-5-.26-1 .34-.71.67-1.44s-.67-.85-.67-1.55a.68.68 0 0 1 .64.86c1.63 0-.21-1.8-.21-1.07.87-6.14 2.95-11.7 4.22-17.68.61-2.85 1.55-5.32 2.41-8.06 0 .07.42-2.69.43-2.69.73-.77 2.68-.69 3.63-1.07 0 1.68-.61-.06.86.64l-.43-1.07c5.46-1.91 11.16-3 16.67-4.7-2.47 5.59-5.71 10.88-8.23 16.6zm-4.7-16c.28-.43.64-.28 1.07.43q-1.46.17-1.03-.47zm11.33 9.83c0-.14.14-.21.43-.21.03.1-.11.17-.4.17zm.21-4.7c-.53 2.36-2.14 4.26-3 6-.34-.68 1.37-3.87 1.76-4.47 1.15-1.76 2.14-4.89 3.79-6.21a19.28 19.28 0 0 1-2.51 4.64zm3.21-5.56c.3-.18-2.42.64-.85.64.13-.75.2-.62.85-1.28zm.64-4.06a1.09 1.09 0 0 1-1.07 1.07.77.77 0 0 0 0-1.07c-.34.35-.11 1.5-.21 1.93q-.94-.88-1.5.21-.23-1.51-1.39-.43-.61.37-.32-.43c-.69.34-.17 1.16-1.07.85v-.85a1.83 1.83 0 0 0-1.28.64q.78-.12.43.43-.55.36-.43-.43c.09 0-1.73.89-1.92 1.28-.09-2-.58 0-1.5 0V136c-1.58 0 .33 1.42-1.28-.21-1.13.85-3 .85-4.12 1.14a15.21 15.21 0 0 0-5.28 2.49l.43-.75c0-.88-1.6.37-1.5.43-.6-.29 2.79-1.94 3.1-2 2.08-.64 3.89-1.46 6.07-2 4-1 9.41-3.8 13.49-3.12a1.44 1.44 0 0 0-.61 1.22zm1.92-1.07c0 .57-1.07 1.68-1.07 2.35-.93-.62 1.42-3.21 1.71-3.21a1 1 0 0 1-.6.82zm.64-.21c.28-.57.43-.61.43-.11s-.1.49-.39.07zm25.44 2.78a10.09 10.09 0 0 1 .21-1.5c.72.31.58 1.45-.17 1.45zm.21-5.56a9.61 9.61 0 0 0 .21-2.14c.91.54-.42 1.32-.17 2.1zm.86 3.42c0 .62-.53-.21-.54-.21.41-.05 1.11-.09.58.17zm.68-3.6q-.21 1 0-.11.21-.82 0 .11zm1.07-1.6c-.36 0-.08.57-.64.43.1-1.52.37-.4.64-.4zm.21-.86c-.22-.21-.58.2-.43-.43.63-.11.22.25.43.46zm0-7.91c.28-.57.43-.61.43-.11s-.14.57-.43.14zm.64 6.2c-.29 0-.33-1.29.11-.85a.66.66 0 0 1-.11.88zm.86-10c.4.41-.54.58-.21.75.08.03-.35-1.32.23-.76zm.21 4.27q.34-.85.64-1.71c1.53.77-.28 3.66-1.28 4.06a11.18 11.18 0 0 1 .64-2.36zm1.71-1.92c-1.62 0-.31-1.6 0-1.44v1.43zm-1.28 6v.82c-1.38 0 0-1.48 0-.85zm-.85 1.28q.43-.64.43 0t-.43-.03zm7.69 4.27c.28-.57.43-.64.43-.21s-.15.48-.43.19zm-1.5-2.24c1.39-.06 8.55-.25 8.55.53 1.5 0 3.91-1 4.49 1.07-4.87-.21-10-1-14.86-.08-1.21.22-3.53 1.56-3.95.19-.68-2.29 4.37-1.67 5.81-1.74zm-4.6-5.24a1.32 1.32 0 0 1-1 1.28c.33-1 .9-1.49.64-2.56q.85.34.37 1.26zm2.67-9.83c.64 1-.22 2.64-1.07 3.21a18.62 18.62 0 0 1 1.04-3.24zm-1.5 4q.07-.57.64-.32c-.86.43.56 1.94-1.07 1.29zm.21 2q-.45-.42-.43.21a.83.83 0 0 1-.21-.86zm0 .64c.06-.06-1 1.41-1.07 1.39s.66-1.45 1.09-1.45zm1-19.66l.54-1.29c1.22.31-.39 1.84-.64 2.35a.72.72 0 0 1 .08-1.1zm-.11 10.47q.43-.85.43 0t-.45-.04zm1.92-3.53a1.23 1.23 0 0 1-1.28 1.18c1.19-1.19-.27-2.78 1.71-2.78a2.8 2.8 0 0 0-.44 1.56zm1.5-1.92l-.21 1c-.25-.08-.91-1-.75-1.29-.42.84 1-.86.72-.66q.98-.25.19.91zm-.21-2.24c-.78 0-1.06 1.4-1.28 1.28a5.27 5.27 0 0 1 .59-2c.85-1.02.96.67.67.67zm.64-3c-.09 0 1 0 .43-.32a4.6 4.6 0 0 0 .21 1 .57.57 0 0 1-.66-.72zm1.71 1.07c-.43.29-.57.08-.43-.64q1.05.18.41.6zm1.28-6.84a.76.76 0 0 0-1.07 0c.18.37 1.09.5.75 1s-.53 1.12-1 .25c0 .5-.42 1.36.43 1.07-.29.87-.16 2.09-.85 2.78a1.7 1.7 0 0 1 .43-1.93c-1.62-.31-.32 1.71-1.92 1.71a7.62 7.62 0 0 0 .64-2 2 2 0 0 1 1.28-1.6c.55-1.54-.32-2.92.85-4.49q.55 1-.43 1.28a.75.75 0 0 0 1.07.21 1.33 1.33 0 0 0-.2 1.68zm-1.92-6.63c0 .2-.58 1.75-.85 1.6.09.02.3-1.64.83-1.64zm-.43-.43c0-.09.08-.14.19-.17zm1.39-2.57c.09.13-.11.86-.32.75.43.18-.12-1.34.3-.78zm.32-.85l.64-1.93c.44.44.1 1.9-.66 1.9zm.64 6.2q0 .86-.43 0 .41-.89.41-.04zm.43 1.28c-.21-.22-.58.2-.43-.43.61-.18.19.18.41.4zm.21-12q1.07.21.21.53c-.58.22-.65.06-.23-.53zm0 10.26c.84-.56.37.31.64.86a.68.68 0 0 1-.66-.86zm1.6-1.82q-.54.53-.11-.11c.4-.28.45-.24.1.11zm-.21-2.14c-.16.24-.31 2.29-.54 2.41-1.21.61.16-3.75.22-4q1.08.55.3 1.59zm.53-9.94c-.39 1-.33 2.58-1.28 3.21a11.65 11.65 0 0 1 .75-2.65c.12-.26.98-1.02.5-.56zm.75 9.41h-.53l.21-.43c.08 0 .67.43.31.43zm-.11-10.8c0 .5-.14.53-.43.11.28-.57.42-.6.42-.11zm0-1.17q-.09-.47.32 0a.87.87 0 0 1-.64.43zm.85 10.58q-.19.61-.43.05.19-.72.42-.05zm.21-1.82c.14-.57.21-.6.21-.11s-.07.54-.21.14zm2.56-6.52c.15.08-.49 2.52-1.28 2.67-.01.13.99-2.81 1.28-2.67zm-1.07-9.94c.43-.28.46-.25.11.11s-.39.32-.11-.11zm-.86 9.83a11.87 11.87 0 0 0 1.08-2.34c0 3.21-1.61 6.27-2.78 9.19-.64-1.58.58-2.29 1-3.61.28-1.01.11-2.24.71-3.24zm-.86-3.21c-.14 0-.21-.35-.21-1.07.44.01.51.37.22 1.08zm-.85-12.83h.64v.43c-.76.27-.39-.27-.63-.42zm.21 8.87l.43-1c.67.67 0 1.7-.64 1.92zm-.43-6.3c0 .57-.07.57-.21 0 .15-.56.23-.56.23.01zm.43 7.7c-1 1.22-.86 2.94-1.33 4.37-.64 2-1.61 4.12-2.31 6.16-1.78 5.22-4.06 10.22-5.55 15.55 1 .4 2-3.74 2.3-4.79-.42 2.11-.18 3.87-1.45 5.64-.07.1-.66-.09-.64-.11a6.46 6.46 0 0 0-1.07 2.27c-.55 1.86-1.45 3.82-1.92 5.64a24.8 24.8 0 0 0-.35 3c-.09.6-1.82 1.19-.51 1.84-1.46.59 0 1.77-1.5 2.35a1.38 1.38 0 0 1 .64.64c-1.44-.2-1.36 2.11-1.64 3.23-.19.74-.44 1.42-.56 2.17-.29 1.83.23 1.38-1.22 2.08 1.35 1.37-2.87 3.7-.43 4.92-1.55.78-1.15 3.11-3 2.57.91-3.11 1.81-6.23 2.78-9.32.43-1.37.89-2.74 1.37-4.1.3-.83.47-2.68.65-3.15.51-1.31.95-3.38 1.6-5a.53.53 0 0 0 .54 0q1.05 0 .65-1.58c.71-1.6.93-3.58 1.49-5.26 1.08-3.2 2.5-6.25 3.48-9.49A29.28 29.28 0 0 1 108 83c.54-1 1.54-1.82 2.05-3 1-2.2 1.5-4.83 2.44-6.85.69-1.43.76-4.61 2.38-5.58zm-20.51 66.27a3.45 3.45 0 0 1 .64-1.07 1.21 1.21 0 0 1 .21 1.07zm.75 2.67c-.07.5-.18.53-.32.11.28-.57.39-.62.32-.11zm-2.1 4.28c.12-.12.25-1 .48-.93.44.07.41 1.51.05 1.68q-1.02-.04-.53-.75zm.54 1.5q0 .73-.64.53V142q.58-.47.6.28zm-.9-3.29c-.18-2.42 2.77 0 0 0zm.43-1.71c-.15.06.86-1.08.86 0zm.64-1.28v-.64a.48.48 0 0 1 .64.21c0 .54-.47.22-.64.42zm0-5.56c-2.5-2.5-.22-1.69.64-3.42.82 1.33-.23 2.15-.64 3.39zm.64-4.7c.24-.15-.13-.65.64-.43v.43zm18-60.49c.53-1.33.75-2.74 1.28-4.06.92 1.24-1.34 4.04-1.32 4.02zm-4.7 13.25c1.3-3.94 2.91-7.93 4.06-12-.14 1.88-2.7 13-4.7 13zm-1.07 2.35L107 80c1.06.36-.05 1.73-.64 1.93zm-3.1 8.12c.6-1.69 1.48-4.81 2.89-6a64.57 64.57 0 0 1-3.21 8.76 5.48 5.48 0 0 1 .28-2.79zm-6.95 21.59q1.6-5.21 3.44-10.35c.79-2.21 1.42-6.69 3-8.25 1.23 1.24-.7 2-.86 2.57s.13 1.27-.11 2.33c-.71 3.1-2.15 6.16-3.1 9.21a195 195 0 0 1-6.63 19.46q1.65-6.66 4.22-15zm-5.77 18.92c.26-.91.07-1.58 1.07-1.6 0 .42-1 2.52-.86 2.78a1.11 1.11 0 0 1-.25-1.21zm-15.6-5.24c0-.14.21-.21.64-.21-.05.11-.26.18-.69.18zm1.07-1.71c.28-.56.43-.6.43-.1s-.19.5-.48.07zm1.07-1.92q.35.72-.21.53c-.46-.34.69-1.17 1.07-1.17a2 2 0 0 1-.91.61zm2.35-4.27c0-.14.14-.21.43-.21-.08.1-.19.17-.48.17zm.64-1.5c.28-.57.43-.61.43-.11s-.19.5-.48.08zm.43-.86c0-.14.14-.21.43-.21-.05.11-.15.22-.48.22zm1.5.64c-.24.14.13.65-.64.43v-.43zm-7.05 7.7a16.07 16.07 0 0 1 1.54-3.09c.63-1.11 1.48-2.44 2.09-3.77a44 44 0 0 1 5.35-9 1.32 1.32 0 0 0 .43 1.71c-2.48 0-.74 1.47-1.28 2.14-.33.4-1.23.33-1.47.91.15-.38-.57 1.4-.45 1.23.56-.83-.46 1.84 0 0-1.84.92-1.95 3.47-2.78 5.13a.87.87 0 0 0 .43-.86c.15.08-.86 1.93-.86 2.41 0-2-.78.6-1.07 1-.73 1.06-1.36 3.37-2.56 3.84a8.3 8.3 0 0 0 .57-1.68zm-3 6.41c0-1.39 1.5-3.22 2.14-4.49.73.49-.49 1.55-.35 1.63q1.34-.6.54.77-.51.42-1 .83c-.85.86-.14.62-1.38 1.23zm3-1.07c-.21.21.2.58-.43.43-.21-.66.16-.24.37-.46zm12.08 2.89a11.72 11.72 0 0 1-2.75.64c-.89.25-1.66-.48-2.27.75a1.52 1.52 0 0 1-.64-1.07 1.7 1.7 0 0 0-.21 1.07 2.74 2.74 0 0 0-1.84-.11q-.37.12-.75.21-.66.39-.61-.53a.84.84 0 0 0-.7.69q-.12.8-.86.08a5.52 5.52 0 0 0-1.44.51c.67-1.34-1.41-.08-.43-1.07-2.49 0 .25.87.21.86.23.69-1.69.76-1.28-1.28-1 0 0 1-1.07.64.72-2.51 4.41-1.6 6.25-2 3.63-.7 7.16-1.4 10.85-1.89-.06 2.38-1.08 1.81-2.52 2.47zm-4.6 26.61q2-7 4-14.11c.37-1.35 2.35-11.12 3.92-10.36.47.24-5.94 20.69-6.58 23q-3.53 12.47-5.82 25.23a124.32 124.32 0 0 1 4.42-23.79zm-5 25.33l.11-.75c.69.68.62 1.7-.43 1.5zm-.11 2.24c.57.71.64 1 .21 1s-.57-.45-.29-1.02zm0 22.45q0-1 .59-.43c.1.34-1.06 1.18-.67.4zm.64 2.35c-.94-.54-.61-.9-.07-.03zm.11-5.24a.85.85 0 0 1-.75 1 4.46 4.46 0 0 0 .21-1.92q.67.09.46.9zm-.5-6.3c.57-2.12-.13-3.72-.11-5.77a39.74 39.74 0 0 1 .71-4.35c.42-3.28.25-6.65.74-9.89 1-6.8 3.37-13.52 5-20.19 1.44-5.79 3.13-11.21 4.52-16.66.34-1.34.83-2.61 1.27-3.91.28-.81.69-3.87 1.4-4.43 3.15-2.5 1.23 2.41.83 3.61q-1.51 4.54-2.87 9.12c-.34 1.16-.49 2.71-.89 3.76-.23.59-.67-.06-1 1-.29.86 0 2-.29 2.78-.6 1.64-1.43 2.49-1.71 4.38-.38 2.52-.93 4.8-1.28 7.16-.48 3.25-2.35 6.69-3.11 9.94a66.93 66.93 0 0 0-1.38 8.23c-.72 6.74-1 13.54-1.28 20.31a6.87 6.87 0 0 1-.55-5.09zm12.51-49.81c-1-.33-.16-2.18.85-1.92-1-.67.32-.29.32-.32a24.87 24.87 0 0 1-1.18 2.21zm.43 1c0 .5-.14.53-.43.11.27-.64.42-.67.42-.18zm-1.07-.32q.17-.8.43-.1-.19.94-.44.03zm.21 1.07q-.25.45-.64 0 .49-.74.63-.07zm1.5-5.56h.75c.46 1-1 1.46-1.6 1.07-.34-1 1.14-.29 1.26-.75zm.43-2.78c.28-.43.43-.43.43 0s-.16.4-.44-.06zm-.43 5.56c.22.21.58-.2.43.43-.64.08-.23-.28-.44-.5zm.21-1.07a1.23 1.23 0 0 1 .86-.43 1.23 1.23 0 0 1-.87.34zm.64-3.63c.14-.43.21-.39.21.11s-.08.43-.22-.18zM89 150.84q-.22 1 0-.11.22-.85 0 .11zm-10 64c0-.21-.2-1.33.48-1 .4.25.06 1.16-.48 1.02zm0-3.21a2 2 0 0 1 .43-1.71c.23.02.52 2.39-.43 1.73zm.43-3.42c.14-.57.21-.61.21-.11s-.11.56-.25.13zm0-2.14c.14-.57.21-.57.21 0s-.11.59-.25.02zm.43-3.63c-.21-.21-.58.2-.43-.43.57-.13.17.23.38.45zm1.5 10.26c-.21-.21-.58.2-.43-.43.58-.13.17.23.38.45zm-.21-2.89c0-.17-.32-.34-.21-.75.66.02.16 1.11.16.77zm.21-2q.21.91-.43.64a8.69 8.69 0 0 0 .21-2.14c.69 0 .16 1.62.17 1.49zM81.1 205a1.23 1.23 0 0 1 .43.85c-.29.03-.43-.26-.43-.85zm.43-1.28c-.22-.21-.58.2-.43-.43.63-.13.21.24.43.45zm0-3.42c-.43 0-.5-.21-.21-.64.56.45.68.66.21.66zm.64-3.21a11.5 11.5 0 0 1-.64 2.35c-.61-1.5.3-3 0-4.49a2.32 2.32 0 0 1 .64 2.16zm.32-4.49a7.43 7.43 0 0 0-.32 2.14c-.55-1.36 0-2.67 0-4.06a2 2 0 0 1 .32 1.95zm.21-3.1q.37.88-.54 1a1.82 1.82 0 0 1 .64-2.35 1.3 1.3 0 0 0-.1 1.38zm-.11-3.5c0-3.56 2.36.76 0 0zm.86-9.73l.43-1.39c1.6 1.12-2.21 7.59-.43 1.39zm.43 6.73q-1.28-.11-.43-1.07zm-.64-2.67q0 .75-.64.32a1.72 1.72 0 0 0 .21-1.07.57.57 0 0 1 .43.75zm-.24 1.39q0 .85-.43 0 .43-.85.43 0zm1.5 5.66c0 .5-.14.46-.43-.11.3-.42.45-.38.45.12zm0 1c-.14.71-.36.92-.64.64s-.06-.53.66-.67zm-.11-8.44a5.08 5.08 0 0 0-.32 1.39c-.87-.58 0-1.85 0-2.56a.78.78 0 0 1 .34 1.14zm.32-6.09a1.81 1.81 0 0 1-.64-1.07c.84-.31.66.45.66 1.03zm.43 1.93l-.21-.64c.73-.39.23.59.23.6zm.21 2.56q.43-.64.43 0t-.41-.04zm.53-5.56a7.24 7.24 0 0 0-.53 1.5c-.68-.68.57-1.5 0-2.35q.83.07.56.82zm.11-6.84a52 52 0 0 0-4.36 15.6c-.3 2.53-.55 5.06-.79 7.6q-.19 2-.36 3.94c0 .43-.3 4.12-.8 3.25s.18-3 .3-3.9a64.49 64.49 0 0 0 .65-6.85 35.18 35.18 0 0 1 .57-6.28c.28-1.35 2.15-4.16.08-4.16 3.47-5.77 3.72-12.58 6-18.81 1.22 3.28-1.77 6.1-1.28 9.58zm1.07 1.28a.37.37 0 0 1 .43-.43zm-.43-4.27c.91-.6.86-1.82.86-2.78 1.26.28.37 3.04-.83 2.74zm3.23-5.95c-.43.54-.39 2.62-.55 3.32-.44 2-1.23 3.78-1.59 5.76-.33-3.59 2.14-6.57 2.14-10a.65.65 0 0 1 0 .92zm-1.5 2s.21-.89.21-.64zm.53-2.35c-.05-.07-.31-1.18-.19-1.2.88-.11.38 1.55.2 1.26zm.64-4.38c.35-.83-.5-.38-.75-.11-.52.57.06 2.17.21 2.78-.85-.84-1 .51-1.28 1.07 0-1.8 1.26-3.11 1.28-4.7a1.3 1.3 0 0 1 1.07 1.28q-.78.54-.52-.26zm.53-1.82c.14-.57.21-.6.21-.11s-.05.6-.19.17zm.21 9.41c.28-.57.43-.57.43 0s-.13.63-.41.06zm1-6.52a1.57 1.57 0 0 1-1 1.18c.32-.81.25-1.58.64-2.35a1.32 1.32 0 0 1 .34 1.23zm.11-1.39a.83.83 0 0 1-.21-.86q.76.56.19.91zm.21-1.28c0 .57-.34-1 .21-.53q.39.45-.23.59zm1.28-2.89q-.28.89-.83.29a1.06 1.06 0 0 1 .61-.83q.61.2.21.6zm.21-1.6l-.21-.64q1.13.46.2.7zm.86-2.46l-.43.32q-.22-.84.64-.86zm0-1s-.12-1.31.32-1c.17.28.17 1.36-.34 1.1zm.43 2.57c.28-.43.43-.43.43 0s-.16.52-.45.09zm.43-5.24l-.43-.32c1.15-1.14.79.29.85.64zm.75 3.21l-.32 1a2.32 2.32 0 0 1 .21-1.92zm.53-3.53q0-1.07.86-.43-.07.98-.88.52z"/><path class="cls-1" d="M95 92.37a3.61 3.61 0 0 0-.21-.86h-.43a1.48 1.48 0 0 0 .64.86z"/><path class="cls-1" d="M94.78 91c-.29-.21-.29 0 0 .54.28-.17.28-.35 0-.54zm-3.85 7.78q.25.9.43-.11-.26-.67-.43.11zm2.14 30.36q.43.86.43 0t-.43 0zm.53-35.49l-.54-.21c-.64.64 1.36.81 1.07.21zm16.14-29.92l-.43.86c.29-.01.43-.29.43-.86zm-31.42 58.35c-.2.39.43.19.43-.64q-.52-.1-.43.64zm-1.71 3.42a.19.19 0 0 0 .21-.21c-.28.14-.35.21-.21.21zm5.13-9.5c-.14-.07-.21 0-.21.32.28-.15.35-.26.21-.32zm-4.92 10.89c-.29-.21-.29 0 0 .53.29-.13.29-.31 0-.53zm38.59.43c.59-.58-.14.13 0 0zm-28.97-21.48c0 .08 0 .15.06.23a.57.57 0 0 0-.06-.23zm22.88 21.27c0-.5-.07-.53-.21-.11.13.57.21.61.21.11zm2.56-.11a.19.19 0 0 0-.21-.21c.14.28.21.35.21.21zm-10.05-50.24q-.26.65.11 0t-.11 0zM69.77 139.4c.55.56-.6 1 0 1.28a5.68 5.68 0 0 0 .53-1.31zm-1.93 4.7c.14.43.21.4.21-.11s-.05-.46-.21.11zm32.71-62.42a3.84 3.84 0 0 1 1.07-1.07c-1.02-1.02-1.43.54-1.07 1.07zM90.5 98.89c-.14-.07-.21 0-.21.32.28-.14.35-.21.21-.32zm13.15-22.02a17.58 17.58 0 0 0 1.35-3.31c-1.36 1.91-2.27 4.08-3.63 6a7.09 7.09 0 0 0 2.28-2.69zM93.92 93l.21-.64c-1.25.01-.21 1.35-.21.64zm-31.1 59.33c.35-.35.32-.39-.11-.11s-.25.47.11.11zM98 136.62a1.54 1.54 0 0 0 .64-.21zm31.41 39.22l.64.11c.54-10.25 4.1-20.37 7.6-29.95 1.21-3.31 4.65-9.95.77-12.59-1.29-.88-4.59-1.8-6.13-1.19-2.34.92-2.46 4.8-3.06 7-1.36 5-2.74 10.08-4.09 15.13-1.05 3.92-2.63 6.91-2.93 11.33s.31 9.57 4.08 12.3c.92.66 3.42 2.06 4.28.73.67-1.02-.87-2.42-1.16-2.87zm2.78-14.32c.28.21.14.25-.43.1 0-.28.14-.31.42-.1zm11.32-55.04c4.4-2.2 5.13-7.28 5.13-11.76a8.83 8.83 0 0 0-5 1.82c-.86.55-4.14 2.12-4.6 2.89-1.71 2.88 2.11 6.4 4.47 7.05zm31.43 50.87c.28.43.43.4.43-.11s-.15-.45-.43.11zm1.92-2.56c.27.4-.25.86.64.64q.15-.72-.64-.64zm-3.86 1.92a.83.83 0 0 0-.21 1.28 4.2 4.2 0 0 1 1.28-1.07zm1.08-.64c.57.14.71.11.43-.11s-.43-.17-.43.11zm53.23-5.07l.86-.75c-.61-.17-3.25 0-1.92 1.29zm-43.93 34l.11.54a12.26 12.26 0 0 0 3-2.57c-1.28.03-2.09 1.72-3.11 2.03zm24.37-19.2q-.78.09.11.75.67-1.16-.11-.75zm-20.63-28.97a1.23 1.23 0 0 0-.86.86.76.76 0 0 0 .86-.86zm21.81 23.09c-.29.43-.25.46.11.11s.32-.39-.11-.11zm7.69-.92c0-.5-.07-.53-.21-.11.14.53.21.57.21.11zm-43.82 34.59v.53q.86-.19 0-.53zm26.83-20.95c-.21-.21-.39-.18-.54.11.57.14.75.1.54-.11zm3.53-2.89c-.29-.28-.43-.21-.43.21.57.15.71.04.43-.21z"/><path class="cls-1" d="M197.6 178q-.17-1 .86-.75c.68.68-.85.76-.62 1.23.5 1 1.15-1 1.47-1.23.63-.4 2.71-.86 3-1.69.53-1.31-1.92-1.57.59-2.8a1.52 1.52 0 0 0 .64 1.5 3.23 3.23 0 0 0 1.5-1.71 1 1 0 0 1-1.28-1.07 2.18 2.18 0 0 1 1.07.64c-.19-.57.74-2 1.28-1.28s-1.1.52-.85 1.5c6.79-5 13.34-10.33 20.09-15.39a1.19 1.19 0 0 0-1.18 0c-1.45-.36 2.39-1.72 1.82-1.52.16.34-.6.78-.43 1.28 1.92-1.37 4.15-2.31 5.56-4.27q-.68.4-.64-.43a10.93 10.93 0 0 0 5.87-3.73 87.38 87.38 0 0 1-2.74 10.78c-.92 2.84-.85 5.86-2 8.73-1 2.52-2.76 5.63-2.39 8.5a7.66 7.66 0 0 0 1.39 3.38c.85 1.47-.37 1.85 1.57 1.85-.69 2.09 1.42 1.16 1.55 1.55.36 1.07 2.61.62 3.82.1 1.92-.82 2.66-2.77 3.79-4.73 2.46-4.27 4.69-8.67 6.91-13.06 4.36-8.59 8.61-17.33 14.93-24.69a35.8 35.8 0 0 0-.11 6c.06 1.43-.79 3.75-.4 4.92-1.09 0-.92.89-.77 1.92a2.58 2.58 0 0 0 1-1.15c1.12 4 .71 8.37.49 12.48l.86-.64a2.4 2.4 0 0 0 .21 1.5 1.38 1.38 0 0 0-1.07 0 15.65 15.65 0 0 0 8.83 8.64c1.33.41 4.88.71 5.92-.51 1.41-1.66-1-4.26 1.07-6L278 167a4.38 4.38 0 0 0-1.66.86c-1.29.61-1.27 1.71-3 1.71.25-1-.7-.88-.86-1.71-.27-1.4.28-3.38.28-4.84a79.76 79.76 0 0 1 .15-9.48c-1.18-.57-1.3-.19-.74-2.23.38-1.36 1.14-2.62 1.59-4a1.39 1.39 0 0 1-1.28-1.07l1.71-.21-.07-1.46a32.37 32.37 0 0 0 .25-4.48c.07-.93.65-2.84.24-3.69-.22-.45-1.49-.92-1.49-1.06a5.48 5.48 0 0 1 1.28-.64l-.24-1.36a3.34 3.34 0 0 0-1.75-3c-.6-.27-7.06-.65-5.92-1.79a7.52 7.52 0 0 0-6.31 2.12 28 28 0 0 0-2.24 3c-.58.71-1.65 1.12-2.14 1.71-1.51 1.82-2.2 4.47-3.79 6.39a45.72 45.72 0 0 0-5.82 7.93l.19-1s-1.1.1-1.25-.05a3.88 3.88 0 0 1 1.28-1.71l-.85-.86a2.21 2.21 0 0 0 1.28-.21c-1.16-1.92 1.52-3.65 2.36-5 1.3-2.09 2.23-4.46 3.43-6.61 2.48-4.46 5.3-8.69 7.34-13.39a33.35 33.35 0 0 1 3.13-6.25 41.21 41.21 0 0 0 3.56-5.73c2.26-4.71 3.75-9.7 6.26-14.32-1.34-.33-.15.62-1.07 1.07-1.16-.58-.64-2-.64-3 1.39.36-.13.58.32 1.15 1.24 1.55 2.29-2.55 2.34-2.69a22.71 22.71 0 0 1 1.06-2.1c.7-1.36-.16-.16-.16-1.53q1.72.19.69-.93c.08.27.63-.35.67-.41.48-.85-.51-.2-.51-.79l1.07-1.34a.68.68 0 0 1-.85-.64c1 0 .79-.64 1.1-1.24.42-.79.39 0 1-.69-.6 0-.38-1.45.21-.86-1.36-1.63.79-1.95 1.28-3.42-2 1 1.44-5 1.69-5.66.47-1.18 1.38-2.64-.3-2.89-1.87-.28-.56 1.5-2 1.5a1.25 1.25 0 0 0-.21-1.5c-1 .33.28.58-.43 1.28-.61-.9-.52.21-1.28.21a21.41 21.41 0 0 1 2.61-6.74q-.52.1-.68-.53c1.62 0 .55-.9 1-1.66.3-.56 0-1.62 1.18-2.41-.67 2.67 2.23-.21 2.35-.21-.28 2-.44 3.72-1.7 5.09a.71.71 0 0 1-.69-.05q-.67-.42-.74.57c-.78.56-.08 1.59-1.58 2.08.74.74-.26 1.74 1.07 1.71.57 0 .39-2 1.28-2.35 0 .87-.61 2.62.86 2.57 1.13 0 1-2.26 1.28-2.85a1.81 1.81 0 0 1 .56-1.21q1.35-.31.27-1.34c0-.11 1.5-2 .46-2l-.43.64s1.45-2.87 1.58-3.35c.57-1.94 1.43-3.73 1.84-5.74a6.76 6.76 0 0 1-1.07-.21c1.49-.66 1.92-2.36 1.92-3.85-.71-.34-.83.64-1.28-.21-.21-.39-.63-.86 0-1.07 1 .35-.3.66.16 1 1.09.72 1.26-.66 1.34-1-.19.75-.86-1.14-.86-1.5-.78 0-1 .47-1.71 0-1.25 2.5-.83 5.39-2.56 7.7.69.2 1.39.68 1.07 1.5a1 1 0 0 0 .8-.38c.5.49-1.26 1.81-1.44 1.87q.1-1.18.21-2.35a3.46 3.46 0 0 0-1.5.64 3.48 3.48 0 0 0-.21-2.14l.88-.93a47.8 47.8 0 0 0 1.15-4c.38-1.61.62-4 2.46-4a4 4 0 0 0-.86 1.12c0 1.4 6-3.9 1.28-3.9-.9.91.26 2.57-1.5 2.57.34-2.06 1.25-3.81 1.8-5.78.33-1.19-.23-3.84 1.41-3.84-.43 2.37-1.5 4.39-1.5 6.84.34.11.77-.35.54-.64-.8-1 1.29.38.69.11s.93 1.69.68 1.37c.54.7 1.08-1.33 1.08-1.26a1.12 1.12 0 0 1-1.5-.21c1-.33 2.19-.37 1.92-1.71-1.42-.35-.16.53-.83.8a8.75 8.75 0 0 1-.88-1.66c1.16-.58.71.21 1.92.21-.31-.61 1.21-1.93 0-1.93-.83.84.47 1.07-1.07 1.07 0-1.6 2.69-2.46 2.14-3.85-1 0-.68.95-1.71.43.06-.13 1.1-1.79.43-2.14q-.56.74-.64-.21a3.22 3.22 0 0 0 2.35-.64c.38-.4-1-1.16-.43-1.71.92-.31.11.75.43 1 .82.61 1.16-3.43.21-2.49l.43.86c-1.18 1.18-.56-2.35-.61-2.51-.43-1.2.18-1.12-1.31-1.12.23-1 .8-.9 1.5-.21a2.91 2.91 0 0 1 1.07-1.5 4.38 4.38 0 0 0-1.28-1.07c1.29-1 1.28-2.36 1.71-3.85-.85-.21-1.92.52-1.92-1.07.75 0 1.21-.76 1.71 0 .59-1.17 1.62-2.23 1.07-3.64h1.07c-1.07-3.16-2.15 0-3.21-1.07 1.46-.88 2.39-1.91 1.87-3.31-.18-.5-1.69-1.14-1-1.82.1.1 1.07 1 1.07 0l-.69-.62c1.33-1.33.75-1.51-.75-3a10.62 10.62 0 0 0-2.95-2.22c-1.16-.52-3.64-1.13-4.86-.55-1 .47-2 2.55-2.7 3.49a111.58 111.58 0 0 0-10.85 18.6c-6.43 13.61-10.67 28.12-15.11 42.47 6.35-14.6 10.37-30.09 17.74-44.25 1.39 1.41-2.36 7-3.23 8.93-1.35 3.06-2.58 6.17-3.92 9.24-1 2.3-1.17 4.65-2.31 6.81-.41.79-1.06 1.55-1.28 2.15a4.13 4.13 0 0 0 .49.36 2.08 2.08 0 0 1-.81 1.79c-1.86 5.73-4.09 11.87-5.52 17.24-.64 2.4-1.44 5-2.11 7.64-.25 1-1 1.93-1.22 2.82a1.15 1.15 0 0 0-.66 1.22 2.25 2.25 0 0 1 .88.59q-.63 1.28-1.28.21c1 4.78-2.83 8.65-1.92 13.47-1.54-.31-3.43 10.13-3.79 11.95-.58 2.94-1.09 5.89-1.95 8.77-.16.55-1.56 3.31-1.32 3.87.85 2 1.81-.64 2.35-.64a15.51 15.51 0 0 1-1.71 4.92c0-.55 1.08-2.63.43-3-1.08-.59-1.3 1.34-1.39 1.52a9.69 9.69 0 0 1 .54 1 2.61 2.61 0 0 0-1.28 1.47c-.38 1.69-.25 3.09-1.07 4.73a6.41 6.41 0 0 1 1.28.43 1 1 0 0 0-.21-1.5c2 0-.54 3.75.86 5.13a1.75 1.75 0 0 0-1.28.21 14.84 14.84 0 0 1 .64-3.63h-1.5a2.29 2.29 0 0 0 .21 2.14 2.86 2.86 0 0 0-1.07 1.92q-.22 1.28-.43 2.57a1.75 1.75 0 0 0-1.28.43 8 8 0 0 1 0-2.14c-1.15 3.23-1.06 6.24-3.84 8.34.81 0 .26.58.05.8-.66.73-1.57-.17-.48.91-1.33.3-3.76.13-4.92.64-.77.34-1.6 1.85-2.31 2.41-.93.75-2 1.26-2.95 2-.78.61-1.39 1.65-2.13 2.18s-1.24.35-2.13.89c-1.48.91-2.69 2.34-4.09 3.37-.77.57-2.12 1.53-3.13 2.38a42 42 0 0 1-4.08 3.08c-1.63 1-3.61 1.51-5 2.93-.16.17-2.07 3.46-2.4 2.78a4.9 4.9 0 0 0 1.07-1.5c-2.09.52-4.4 2.78-6.2 4.06a114 114 0 0 1 .16-16.43 76.93 76.93 0 0 0 0-8.9 26.07 26.07 0 0 1-.3-4c.16-1.39.94-2.35 1.37-3.73 1.15-3.68-1.19-7.13-5.33-6.2-4.34 1-5.86 5.21-5.53 8.91a.86.86 0 0 1-.64-.43c-.67.67.88.62.21 1.29 0 0-3.67.79-1.58 1.2-1.56-.31-2.81 3.67-3.66 4.78a1.28 1.28 0 0 1-1.39.43 4 4 0 0 1-.52 1.95 4.75 4.75 0 0 1-3.11 2.54c.14-.14 1.9-1.09 1.28-1.71a3.78 3.78 0 0 1-1.07 1.07q.51-.92-.43-1.07a1.08 1.08 0 0 0 0 1.29q-1 .8-2 1.69a38.53 38.53 0 0 0-2.87 3c-2.13 2.44-4.11 5-6.21 7.47-4 4.66-8.46 9.42-14.6 11 2.11-11.86 8-23.07 18.17-29.93.69 1.73-.23 3.66 1.6 4.38s4.06-1.36 4.62-3.15c1.42-4.55-8.08-9-11.48-8-5.59 1.62-10.23 8.19-13.05 12.88a39.68 39.68 0 0 0-5.95 16.58c-.41 4.45.63 12.45 5.24 15 4.93 2.7 10.54-.35 14.42-3.54a58 58 0 0 0 6.11-5.44c2.25-2.5 3.81-5.82 6-8.42 4.36-5.1 9.17-9.71 13.21-15.1 0 7.37.87 14.44 0 21.59-.15 1.26.08 1.81 0 3.22-.13 2.11-1.55 2.71-3.22 4-3.2 2.51-6.42 5-9.4 7.72 4.7-.59 6.82-8 12.18-6.2-10.84 9.38-22.94 17.45-32.06 28.65a2.09 2.09 0 0 1 .75-.35c0 1.78-1.43-.19-1.82-.08-1.25.35-3.58 4-4.41 4.88a26.75 26.75 0 0 1-4.31 3.81c-.44.32-1.54 1.19-1.75 1.3s.47.91-.21.91c0-1.84-2 1.32-2.2 1.64a39.48 39.48 0 0 1-3.95 4.58c-2.6 2.6-5 5.83-7.63 8.28-4.24 3.89-7.43 10.34-11.88 14.79 15.27-24 37-42.55 57.29-62.21-5 3.21-9.18 7.65-13.8 11.35a146.29 146.29 0 0 0-14.43 13.22c-9.51 10-19.19 20.18-27.61 31.1-1.41 1.83-3.05 3.25-4.3 5.12-.2.29.09.84-.12 1.19s-.73 0-.87.23a35.31 35.31 0 0 1-2.31 3.46 29.19 29.19 0 0 0-3.68 6.16c-1.41 2.81-3.67 5.33-5.19 8.14-6.61 12.18-9.1 24.88-5.56 38.44a36.25 36.25 0 0 0 10.51 18.09 29.06 29.06 0 0 0 8.46 5.38 29.8 29.8 0 0 0 5.2 1.54 14.06 14.06 0 0 0 2.11.35c1 0 .81-.76 1.57-.76 0 5.38 17.87-2 20.14-3.39a52.5 52.5 0 0 0 14.31-13.32c4.43-6 7.73-12.69 10.82-19.41 3.37-7.32 6.74-14.54 8.9-22.3 4.37-15.72 8.77-31.43 11.21-47.59a183.6 183.6 0 0 0 2.25-23.93c.07-3.6.79-7 .89-10.69a18.74 18.74 0 0 1 .62-5.33c.49-1.42 1.49-1.71 1.09-3.42zm68-20.95l.21-.54c.86 0 .64 1.35-.21 1.07zm.43-4.17q.66.92-.43 1.07a1.71 1.71 0 0 1 .4-1.09zm-.21-1.28c.43.29.64.57.64.86q-.67.19-.67-.88zm0 7.7v-.86c1.44-.02-.03 1.56-.03.84zm0-4.49c.86-.28.61.81.85 1.28a1 1 0 0 1-.88-1.3zm.21-4.49v-1.28c.91-.33.85 1.85-.03 1.26zm.43-5.66l.43-.75a1.06 1.06 0 0 1-.43 1.71zm-.21 2.57a.62.62 0 0 1 .64-.75c0 .39 0 2.14-.86 2.14zm-1.07-2.35q.33-1.23.64-2.46c.79 1.19 0 3.18 0 4.49-.82-.36-.87-1.33-.67-2.06zm-11-.54a.51.51 0 0 1-.75.11q.07-1.06.71-.14zm-.43-1.5c.21.29 0 .36-.54.21.11-.44.29-.52.5-.23zm-8.44 6.84c.43-.28.46-.25.11.11s-.42.3-.15-.13zm36.34-84.22c-.67.67-1.43-.49-.85-1.07-.21-.02 1.2.61.81 1.04zm5.34-19q-.64.86-.64.21c-.04-.47.17-.54.6-.26zM285.67 49c1.12-.36 1.71-.06 1.71 1.07-1.03.32-1.79-.15-1.71-1.07zm0 1.39c0 .5-.14.46-.43-.11.28-.45.43-.41.43.09zm-.86 3.31c.13-.68-.14-1.1.86-.86 0 .66-.5.67-.86.84zm7.69-34.42a1.7 1.7 0 0 1 .86.64c-.25.5-1.36.17-.85-.66zm1.5-3.85c-.14 0-.21-.35-.21-1.07.57.55.64.91.21 1.05zm-.21-5.56c.28.29.14.36-.43.21 0-.44.14-.51.43-.23zm-1.07 5.56c0 .57-.07.57-.21 0 .14-.58.21-.58.21-.02zm-44.25 102.16a1.71 1.71 0 0 1-.86-.64.84.84 0 0 1 .86-.21zm.64-6c.28-.43.43-.43.43 0s-.14.41-.43.02zm14-2l-.32.53q-.46-.9.64-1.07zm.32-1.82c.28-.43.43-.43.43 0s-.14.42-.42-.01zm1.28-1.92q-.17.79-.43.11.18-1.03.44-.12zm3.21-4.28c.14-.43.21-.39.21.11s-.06.45-.2-.12zm.86-4.49q-.31.73-.78.22a1.4 1.4 0 0 0 .56-.86q.63.25.22.63zm.21.43c0-.28.14-.32.43-.11s.14.24-.42.1zm2.14-1.18q.48 1.11-.64 1c-.11-.21 0-1.72.21-1.63zm-.21-4.17a.83.83 0 0 1-.21-.86q.78.49.21.86zm1.5.32c0 .51-.43-.54-.43-.75.36 0 .53.21.86.21zm-.21-4.7l.21-.54c1 .52-.64.76-.22.53zm1.28 1.07l-.64-.53c.61-.91.58.43 1.28.43q-.32.63-.65.09zm.11-2.78l-.32.53a.7.7 0 0 1 .85-1.07zm-.32-2.89c.14-.57.21-.57.21 0s-.08.57-.22 0zm1.28 1.39c-.14-.21-.43-.18-.86.11.56-.56-.1-2 1.07-1.71 0 .03.14 2.15-.22 1.6zm0-2.24c0-1 .5-1.42 1.5-1.28a2.54 2.54 0 0 1-1.51 1.27zm1.28-2.57l.21-.85a1.27 1.27 0 0 1 .86.85zM278 75.7h-.64v-.43c.74-.27.37.28.64.43zm1.71-4.38l1.07.32c-.68.68-1.9-.13-2.14-.86zm-.75 1.28l-.32.53a1.19 1.19 0 0 1-.21-1.07zm-.43.86l1-.32c0 .57-.82 1.75-1.5 1.07zM277 71l1-.43c-1.13 1.13.45 3.07-1.92 2.78.54 2.69-1.18 4.69-1.5 7.27l-1.07-.21a1.25 1.25 0 0 0 .86 1.07c-1.25.84-1.14 1.07-1.6 2.35q1 .55.19.94a1.53 1.53 0 0 0-.72 1.2c-.4 1-.84 1.17-1.1 2-.19.58.52.26-.61.83 1 .77.21 2.79-1.07 2.14 0 0 .24 1.14.48.8a4.28 4.28 0 0 0-.69 1.76 2.39 2.39 0 0 1-.85-.86c-.94.94-.25 1.6.85 1.29-.13.5-.83.46-1 .76l-1 .09q-.27.67.28.68c.2-.19.76.21.64.51-.28.74-.58-.12-1.13-.12-1.6 0 .88 1.19.64 1.07a15.43 15.43 0 0 1-1.6 3.63c-.48 1-.54 2.61-1 3.42-.23.43-.89.67-1.2 1.34l-.93.16a4.44 4.44 0 0 1 0 1.93.77.77 0 0 0-1.07 0c.7 1.44.68.83-.43 1.92 1.16.3-.47 1.36-.64 1.71l-.43-.43c.16-.48-.76 2.18-.24 2 .3-.1 0-1.26.67-.94-4.5 5.78-6 10.74-10.69 16.25 0-1.29 1-3.13 1.51-4.24.24-.52 1.13-.77 1.27-1.11 0-.06.29-1.92.36-2.16l.71-.4a6 6 0 0 1 .24-1.77 11.82 11.82 0 0 1 1.23-3c.7-1 1.1-1.72 1.68-2.66s1-1.88 2.19-2.38c-1.08-.72 0-2.25.35-2.91.58-1 2-1.55 1.15-.72 1.43.48.35-1.77.43-1.93a.57.57 0 0 0 .64-.43c0-.27-.89-.25-.36-1.28.3-.57 1.07-.58 1.43-1.28a.38.38 0 0 0-.43.43c-1-.7 2.68-4.78 3.09-5.55a7.68 7.68 0 0 0 .55-1.77c.09-.33-.62-.31-.45-.76.1-.28 1.56-1.8 2-1.54 0-2.66 2.12-4.87 3-7.48a3.54 3.54 0 0 0-.85-.21c.62-1.23.63.08 1.71-.64-.74-1.72 1.74-2.89.64-4.28 1.32 0 .46.38 1-.64a7.65 7.65 0 0 0 .87-1.55 1.15 1.15 0 0 0 .37-.64q.46-.62-.5-.8c.17-.83.85-.86.64-1.93 1.63.41.65-1.24.91-2.08 0 .06.3-2.87 1-1.55a1.48 1.48 0 0 0-.37.85zm-27 36.13a1.37 1.37 0 0 1 1-1.13 1.38 1.38 0 0 1-1 1.12zm2.78-10.9c1.55 0-.15 1.2.21 1.93-.88-.59.01-1.09-.24-1.94zm.43-1.71q1.11.45 0 1.28c-.63-.3.52-.73-.04-1.29zm-.53 20.31c.42 0 .32-.46.32.43-.13-.02-.72-.44-.36-.44zm-1-.86c0-.45.52-.53.86-.43a.66.66 0 0 1-.86.46zm-.21-11.54c.28-.43.43-.39.43.11s-.15.46-.43-.12zm17.74-15.83c.43-.28.46-.25.11.11s-.4.29-.11-.11zm4.06-9V77h.43c.22.75-.29.38-.43.62zm4.92-13.25c.28-.43.43-.43.43 0s-.15.44-.43.02zm5.56-7.06c0 .72-.21 1.07-.64 1.07q-.44-1.48.63-1.05zm-1.28-2.56l.64.21c-.45 1.14-1 4.28-1.92 4.28-.01-.79 1.1-4.64 1.27-4.47zm-.64-11.54c-.43 0-.43-.21 0-.64.42.45.42.65-.01.65zm4.27-14.32c.14-.57.21-.6.21-.11s-.08.55-.22.12zm1.5-4.49c-.21-.21-.58.2-.43-.43.62-.14.21.23.42.44zm.43-2.89l-.43 1c-1.19-.61 1.15-1.9.4-.98zm0-1.07c-.57.21-.64 0-.21-.53.7.11.77.33.18.55zm.43 12.29c.19-.66.63-1.29 1.28-.64a1.88 1.88 0 0 1-1.29.66zm1.05-1.71c.14-.43.21-.39.21.11s-.06.48-.21-.11zm-1.07 7.06c0-.43.14-.5.43-.21s.13.37-.42.22zm1.39-2.35a1.62 1.62 0 0 1-1 1.07c-.21-.84 1-1.25 0-1.5l.86-.86a1.14 1.14 0 0 1 .15 1.3zm.64-6.73l-.75.11c-.27-1.07 1.11-.59 1.5-.21zm1.18-.75H291c.18-.63 0-.46.64-.64zm.35-8.33c-.21 1.21-.32-.54-.32-.64zm-.64-2.14c.17 0 .27-.63 1-.43a2.4 2.4 0 0 1-1.28.86zm-.32 4c1.56-.4-.21 0 .55.52.56.36-2.12-.17-.59-.56zm-.64 4.6c0 .59 1.19-.17 1.39.08s-1.44 1-1.82 1.2c0 .06.08-3 .75-1.71zM290.59 7c0 .5-.14.54-.43.11.28-.6.43-.64.43-.11zm-.75 2a2.06 2.06 0 0 1 .32-1.07l.21 1.71q-.72.14-.53-.64zm-.11.85c.57 0 .67.18.32.54s-.46.18-.32-.54zm-.64 19.67c.37 0 .47-.27.86-.21-.05 1.18-.54 1.05-.86.21zM289 18q.06.71-.54.64c0 .13.15-1.94.51-1.23zm-9.32-7A6.45 6.45 0 0 0 281 8.79c.3 1.85-1.38 3.52-2.56 4.7a6.33 6.33 0 0 1 1.24-2.49zM275 20.12c1.07-2.14 1.8-4.45 3.21-6.42a9.53 9.53 0 0 1-3.21 6.42zm.86 5.34a.92.92 0 0 1-.86.86.76.76 0 0 1 .83-.86zm-4.28 8l.86-.11a1.69 1.69 0 0 1-.64.86q-.65-.28-.24-.73zm.21 12.08a1.23 1.23 0 0 1-.86.43 1.23 1.23 0 0 1 .84-.42zm-1.82-8l.32-.75c.72 0 .06 1.43 0 1.5zm0 13.15c-1.41.41 0-1 .05-1.07q1.21.45 1-.69a.89.89 0 0 0-.45-.59c-.39.68 3.09-4.82 1.68-4.35a6.4 6.4 0 0 1-.32.86c-.37.22.82-3.48.94-3.92.51-1.79.83-3.59 1.17-5.41.56-3 2.14-5.51 2.89-8.34.28-1.05 0-2.19.43-3.42.25-.69.63-1.57.93-2.22q-.56-1.22.74-1.41a2.31 2.31 0 0 0 .92-1.3 3.91 3.91 0 0 0 0-1.92 8.8 8.8 0 0 0 1.28-.86c0-.17-1.1-.41-1-.48 1.78-.87 2.78-4.19 3.85-6.15a19.08 19.08 0 0 1 4.38-5.56 81.54 81.54 0 0 1-2.56 20.42c-1 3.72-2 7.42-3 11.13l-1.28 4.79c-.23.88-1.87 4.58.43 3.42a11.75 11.75 0 0 0-1.28 4.49q-.69-1.3-1 0a.78.78 0 0 0-.21 1 1.67 1.67 0 0 0 .59-.38 5.81 5.81 0 0 0-.05 1.28c-1.4-1.39-1 .81-1.07.83a1.15 1.15 0 0 1 .86-.61c-.89 2.62-1.33 5.15-1.89 7.77s-2.12 5.21-3.22 7.73c-2.36 5.41-4.52 10.9-6.66 16.39-.94 2.43-1.79 4.92-2.81 7.31-1.2 2.82-3 5.33-4.36 8.1-2.55 5.25-4.47 10.77-7.09 16-.68-.68 0-1.67-.64-2.35 1.58-.22 1.29-3.41 1.72-4.63.9-2.6 1.42-6 2.56-8.84a1.11 1.11 0 0 0-.62.23c.3-1.87 1.61-3.42 1.8-5.36 0-.44-.6-1.5-.54-1.71.17-.56 1.26-1.08 1.54-1.73.61-1.39.15-3.48.49-5 .46-2.06 1.76-3.43 2.18-5.4 1.9-9 5.58-17.34 7.33-26.35-1.6 0-.15 1.83-1.71 2.14a4.59 4.59 0 0 1 1.03-2.62c-.27.39 2.74-1.72 1-1.23zm-16.15 42.53c.28-.56.43-.6.43-.1s-.15.53-.43.1zm1.82-7.37q-.54.53-.11-.11c.47-.28.47-.24.1.11zm-.11-4c.24-.15-.13-.65.64-.43v.43zm3.63-8.55c.28-.43.46-.43.54 0s-.11.47-.54.04zm1.17-7.3zm.32 13.36c.36-.16 0-1.06.64.21zm4.92-17.53c.21-.21-.2-.58.43-.43.15.6-.21.19-.43.4zm2.56-20.73a.66.66 0 0 1 .43.86c-.56-.04-.31-.58-.42-.89zm-.75 3.63l.32-.43c.71 0 0 1 .64.64a.94.94 0 0 1-1.28.21zm-1.71 2.89l1 .11c-.61.91-.74-.11-1.5.64zm-1.18 3.85l.86-.32a2.06 2.06 0 0 1-.86 1.28.64.64 0 0 1 .01-1zM263 55.5a.8.8 0 0 1 1.07-.75 7.4 7.4 0 0 0-.64 1.92.86.86 0 0 1-.43-1.17zm-.43 2.67c0-.55.47 1.86-.3 1.1-.44-.46.31-1.76.31-1.1zm-.21 1.71c.28.29.14.36-.43.21.01-.43.15-.5.44-.21zm-1.18 1.92l.53-.86c.48 1 .23 1.92-.85 2.14a2.1 2.1 0 0 0 .33-1.28zm-.64 2.78l.32-.86c.66.33.2 2-.64 1.71zm-1 2.35c.92.53.58.88.05 0zm.21 1.28c.28.29.14.29-.43 0 .06-.28.2-.28.48 0zm-.64 1.07q.63.18.21.64c-.32-.13-1.04-.92-.16-.64zm.21 5.34a1.37 1.37 0 0 1-1.07 1.07 1.38 1.38 0 0 1 1.13-1.06zm-1.71-.21c.62-.61-.17-1.29.21-1.87.54-.8.38 1.36.33 1.47-.06.29-1.29.81-.49.4zm-.86.86h.86c.05 1.39-.67.2-.8 0zm-.43 3l.43-.64c.6.31 0 1.82-.64 1.5zm-1.28 1.93a1.53 1.53 0 0 0 1.07-.64c1.18 0-1.07 1.59-1.07 1.5q-.81-.56.06-.87zm.43 3c0 .57-.07.57-.21 0 .19-.59.27-.59.27-.02zm-.75 1.28a.56.56 0 0 1 .75-.43l-.64 1.28a.55.55 0 0 1-.05-.87zm-.54 1.5c.36.74.34 3.1-.64 3.42a11.06 11.06 0 0 1 .7-3.4zm-.43 4l-.21.75a1.26 1.26 0 0 1-.43-1.07q.78-.39.71.25zm-1.82 4q.49-1.39 1-2.78c.59 1.78-.29 3.57-1.07 5.13a3 3 0 0 1 .14-2.46zm-1.5 6a9.06 9.06 0 0 1 1-3.42c1.12.85-1.19 2.57.21 2.57-1.2 1.2 0 3.81-1.71 4.49a24 24 0 0 0 .57-3.77zm-1.18 5.45q-.64-.9.43-1.17c.66 0 .14 1.92-.64 1.92zm-.32 1.39l.75-.21a1.67 1.67 0 0 0-.64.86zm-.21 1.92a1 1 0 0 1 1.39-.64 3.19 3.19 0 0 0-1.5 2.35 1.23 1.23 0 0 1 .18-1.83zm-1.07 4.27l.11-1.07c1.19 0 0 1.36 0 1.92zm-.54 9.51c0 .5-.14.53-.43.1.32-.68.51-.71.51-.22zm-2.14 6.52c0-.43.14-.5.43-.21s.22.24-.35.09zm1.07-4.7a.38.38 0 0 1 .51-.21.81.81 0 0 1-.16.8c-.53.13-.14-.62-.27-.71zm-1.09-1.34l.32-1c1.13.28.46 1.71-.43 1.71zm.43 1.71l-.32.75a1.19 1.19 0 0 1-.21-1.07q.57-.21.52.36zm-.32 5.45c.28.29.14.36-.43.21-.01-.37.14-.45.42-.16zm-75.89 31.21h-.64V161c.77-.23.4.27.64.42zm.43-.64c.28-.57.43-.61.43-.11s-.15.58-.44.16zm1.28-1.29q-.74.14-1.5.21c0-.94 1.33-1.33 1.5-.16zm13-16.46q-.41.6-.43-.43.55-.1.47.45zm-1.07 2.67q.22-.64.43 0-.18.69-.39.06zm-6 6.09c.13.25.69.2.43 1.07h-.43zm-4.7 8.34c-.13-.1-.53-.23-.46-.53.3-.93 1.35.58.51.58zm1.07 0l-.43.64a1.69 1.69 0 0 1 1.71-1.5 1.37 1.37 0 0 1-1.23.91zm17.1-20.73c-1.15 4.21-4.6 7.36-7.46 10.47-1 1.1-6.5 6.59-6.23 7.27-1.14 0 0-.52-.8.48-.12.15-1.34.37-1.34.59l.85.43q-.85.64-.85-.43l-1.71 1.07c.55-1.38-.36-.67-1.28-1.29a15 15 0 0 1 5.13-5.13 8.7 8.7 0 0 1-2.14 2.57c1.66.67 1.38-2.14 3-2.14a1.73 1.73 0 0 0 .43 1.29c2.06-2.49 4.78-4.57 6.51-7.31a9.93 9.93 0 0 0 .92-1.71q0-1.73 1.44-1.19a4.6 4.6 0 0 0 1.6-3c0 1.42 1.7-1.56 1.57-1.41s.32-1.31.51-1zm-1.71 41s1.07-1.07 1.07-.4c0 .28-1.53.8-1.5.83q-.31-.46.48-.34zM171.09 195q.65 0 .43-.64c1.07.35-.74 1.28-.86 1.28q-.22-.64.43-.64zm-3 2.35c-.29.57-.64.86-1.07.86.29-.6.65-.88 1.08-.88zm-7.27 6.84q.85-.43.21.11c-.41.33-.49.3-.2-.13zm-1.28 1.07l1.07-.64c-.82.81-.54 1.77-1.92 1.5zm-3.54 4.15c.07.5-.11.53-.54.11.31-.58.49-.62.54-.11zm-1.18.53c.43-.29.46-.25.11.11s-.37.32-.09-.11zm-.64.86c.29.28.14.35-.43.21.03-.43.17-.5.45-.21zm-5.13 4.38c.29.21.14.25-.43.11.03-.29.17-.29.45-.11zm-7.69 8c0-.05.89-1 1.07-.85s-.85 1.7-1.5 1.5zm-14.11 17.64c2.24-1.67.12-.32 1.5-.32-.74.75-.62 1.44-1.71 1.71a1.37 1.37 0 0 1 .23-1.38zm-1.6 1.39q-.11.64-.32 0 .44-.63.34.01zM124 245a6.48 6.48 0 0 0 2-2.35c1.15 1.7-3 2.86-2.35 4.7-.94-.78-.5-1.71.35-2.35zm-4.17 4.92a.87.87 0 0 1 1.07-.43 4.61 4.61 0 0 1 0 1.28q-.64-.74-1.07.21a.77.77 0 0 1-.04-1.06zm-6.63 6.84q.64-.43.11.11c-.4.35-.43.31-.15-.11zm-.64 1.5c-.28.57-.64.78-1.07.64a1.74 1.74 0 0 1 1.03-.65zm-3.1 4.27q.8-.26.46-1a3.47 3.47 0 0 1-.35 1.6zm-.54.86c.22.21.58-.2.43.43-.67.18-.25-.22-.47-.44zm-3.92 7.47c.87 0-.1 1.22-.21 1.28a1.28 1.28 0 0 1 .21-1.28zm-2.89 8.76q0 1-1 .64c1 1.33-.67 5.07-2.35 5.56 1.24-2.48 1.75-5.21 3-7.7a1.8 1.8 0 0 1 .39 1.51zM103 275a21.35 21.35 0 0 1 1.7-2.76c.09 1.06-1.29 4-1.8 5a2.77 2.77 0 0 1 .1-2.24zm17.21 49.81l-.86.11a.82.82 0 0 1 1.07-.64q.3.55-.21.56zm.43.32c0-.43.14-.5.43-.21s.14.38-.43.24zm1.28 0c0-.43.14-.5.43-.21s.15.38-.42.24zm1.18-.11c-.07.5-.18.53-.32.11.29-.54.39-.58.32-.08zm1 .32c.14-.57.21-.57.21 0s-.1.6-.25.03zm2.46.21q-.7-.25-.53.43c-1.16-1.17 1.7-.64 1-.38zm-.75-1.71q.22-.85.21 0t-.25.04zm1.71 1.71c.14-.29.32-.32.53-.11s0 .29-.57.15zm1.92-.21c0-.29.14-.32.43-.1s.13.28-.46.13zm.21-1.71c0-.43.14-.5.43-.21s.11.38-.46.25zm.86 1.92c.14-.43.21-.39.21.11s-.1.5-.24-.07zm1.28-1.92c-.9-.5-.57-.84-.03.04zm1.71-.64c0-.29.29-.43.86-.43a1.23 1.23 0 0 1-.89.44zm5.24.43c-1.37.48-2.76.93-4.17 1.28.53-2.13 4.84-.67 5.13-3a.53.53 0 0 1 0 .86c1.38 0 1.57-1.57 3-1.28a12.11 12.11 0 0 1-3.99 2.17zm-3.53-1.07c.14-.43.32-.5.54-.21s0 .38-.57.24zm7.7-1.28V320a1.25 1.25 0 0 1 .86 1.07zm1.82-1.6l-1 .32c.31-.93 2.14-1.39 2.14 0q-.6-.12-1.18-.29zm2.67-1.17c.14-.57.21-.61.21-.11s-.1.56-.25.13zm1.28-1.93q0-.86 1.28-1.28c-.32 1.02-.74 1.45-1.31 1.31zm6.41-4.92c.14-.43.21-.39.21.11s-.1.44-.24-.08zm1.71-1.93c.29-.57.43-.61.43-.1s-.17.58-.46.13zm1.5-1.81l-.21.53c-1.09-.47.62-.73.18-.5zm.86-1.82c.28-.57.43-.61.43-.11s-.19.57-.47.14zm2.46-.86q-.11.64-.32 0 .38-.6.28.04zm-2.14-2c-1.35 2-2.44 5.28-4.17 6.95-.74.72-1.67 1-2.46 1.92a18.4 18.4 0 0 1-2.24 2.78c2.35-3.79 5.15-7.22 7.73-10.85a43.63 43.63 0 0 0 3.07-5c.8-1.52.93-3.16 2.46-3.16-1.39 2.52-2.87 4.97-4.43 7.33zm5.88-10.15c-.27.33-1.72 2.34-1.92 2.14s2.09-3.63 2.35-4.27a2 2 0 0 1-.47 2.13zm1.07-2.35c-.62-.62.26-1.85.86-2.14a17.36 17.36 0 0 1-.9 2.14zm23.09-106.67c-.92-.53-.58-.86-.04 0zm-.11-2.14q-.53.32.11.64c-1.15.28-4.2 1.69-3 3.21a1.07 1.07 0 0 1-1.71-.21c-.4 1.2-1.5.88-1.5 2.14.94 0 .79-.51 1-1s.77 1.13.05.54c.51.42-.85.88-.85 1.07 3 .55 3.38-2.13 6-2.78-1.1 4.1-.49 8.5-1.1 12.68-.75 5.15-.6 10.54-1.22 15.75q-.87 7.42-2.47 14.73c-1 4.65-2.89 9.32-3.57 14-.58 4-1.82 7.89-2.57 11.61a91.79 91.79 0 0 1-4 12.79A186.11 186.11 0 0 1 162.4 294q-3.35 6-7.26 11.66a20.34 20.34 0 0 1-2.2 3.08c-.59.57-1.39.7-1.94 1.25-1.41 1.38-2.29 3.21-3.86 4.53-6.92 5.82-17.38 7.6-26.08 6-8.37-1.5-16-6.71-17.32-15.61s2.4-18.9 5.57-26.93c4.11-10.43 10-19.77 16.13-29.13 3.27-5 7.25-9.31 11.12-13.87q2.38-2.81 4.58-5.77a13.14 13.14 0 0 1 2.39-2.6c1.15-.93 2.11-1 2.77-2.61 0 0-1.54.19-1.18.54-.05-.06 9-7.27 8.44-8.87 2 0-1.35 1.52 2-.67a36.27 36.27 0 0 0 3.46-3.21c2.32-2.07 4.63-4.09 6.75-6.38-.55-.81-1 .38-1.42.56s.22-1.66.13-1.84c.6.91 1.07.43 1.28-.43l.64.86a1.11 1.11 0 0 0 1-1.28c.71-.73-.05-2.07 1.18-.86 5.39-4.12 10-9.09 15.39-13.25-1.12-.29-.85-.69-.64-1.71-1.5.33-4.18 2.06-4.87 3.48 0-.06-.27 1.52 0 1.14-.33.46-.79.49-1.12 1.15-.57-.28.47-.56.21-1.07-.94-.47-3.18 2-2.78 2.32a2.42 2.42 0 0 1 1.07-.19c-1 1.79-2.65.67-4 1.6-2.14 1.42-.44 1.18.19 1.82a1.51 1.51 0 0 1-2.14.43c.47 1.44-3.18.28-1.92 2.78a3.8 3.8 0 0 1 2.78-1.5c-1.37 2.27-4.56 1.85-6.41 3.63-1.09 1-1.7 2.64-2.78 3.63.42-.39-3.59 1-1.5 1.5a8 8 0 0 0-1.71 1.5v-.86c-.52.52-1.11 1-1.64 1.48a.61.61 0 0 0-.27.69q.16.86-1 .55c-.36.5-.54 1.36-.94 1.77-.76.77-1.41-.45-1.92 1.07l.64.21c-1.87.74-4 1.73-4.49 3.85 1 .33 0-1.18 1.28-.86-.34 1-1.07.81-1.07 1.92a2.21 2.21 0 0 0-3 1.28 2.69 2.69 0 0 0 1.5 0c-.39 1.2-2.14.07-2.14 1.71a1.21 1.21 0 0 1-.21-1.07c-1 .6-.52 1.58-1.07 2.14a11.66 11.66 0 0 1-1.92 1.07.73.73 0 0 0 .11.64s-3.76 1.92-1.39 1.92l-1.28 1.28a.68.68 0 0 0-.64-.86c-.31 1.26.64.62.64 1.71q-1.18-.29-1.28.86c-.07 0-.78-.65-.91-.46a4.39 4.39 0 0 1 .05 1.31 1 1 0 0 0-1.32.41c-.68.65-1.94 1.45-1.24 2.15-.77-.26-1.22.86-2.14.86.53 1 .43.43.54.54.3.28-1.31 1.49-1.18 2-1.81 0 .81-.56-1.28 1l-.64 1.17q-.93-.49-1.28.43c-1.75-1.78 2.7-3.08 2.14-3.5-.34-.25-1.14.29-.86-.56 1.13.67 2.78-.63 1.71-1.71 1.16.58 1.3-.57 1.92-1v-.62q-.17-.85 1.06-.41c1.33-1.34 2.93-2.93 4.07-4.31 2.88-3.5 8.09-6.74 9.19-11.43a.68.68 0 0 1 .64.86.81.81 0 0 0 .21-1.07 4.53 4.53 0 0 0 3-1.5c.89-1.12-1-.3-.64-1.28 2.64 1.75 1.07-2 1.07-.64-.67-.68 1-1.28 1.28-1.28a2.2 2.2 0 0 0-.64 1.07 6.28 6.28 0 0 0 2.81-1.77l.83-.8a1.51 1.51 0 0 1-.21-1.5q.62 0 .64.64a38.2 38.2 0 0 0 6.57-6.06q1.49-.22 1-1.1l-.32-1c.44-.46 2.65-1.37 1.5-.21 1.81 0 .64-1.55 1.28-2q.62 0 0 .75a23.43 23.43 0 0 0 3.68-2.67 8.14 8.14 0 0 0 1.21-1.29q1.44-.91.25-1.56c.06-.59 3.82-3.29 4.36-3.37-.32 1.25-3.5 1.69-3 3.21a25.39 25.39 0 0 0 4.28-3.21c0-.69-.86 0-1-.4-.41-1 2.14-.19 2.3-.24-1.28-.76.29-2.48 1.28-1.5 1.72-1.75 2.15-3 4.3-4.72s2.68-1.24 4.89-2.34zm-1.6 4.06h-.64v-.43q.65-.15.59.43zm-.64-1.28c.14-.43.21-.4.21.11s-.12.46-.26-.11zm-47.67 46q.64-.43.11.11t-.16-.15zm3-5.34c.29-.43.46-.43.54 0s-.17.38-.59-.04zm5.13-4.92q.22-.85.21 0t-.26-.04zm.86.21l.64-.21-.43.86zm2.14-2.67c-.57.21-.64 0-.21-.54.65.11.72.29.15.5zm.43.53c.49.24-.08.44-.26.6zm5.34-4.92c.14-.57.21-.61.21-.11s-.13.51-.27.08zm4.06-3.85c-.21.21.2.58-.43.43-.21-.66.16-.24.37-.46zm-.21-1.93c.14-.43.21-.39.21.11s-.13.44-.27-.13zm2.78-1.5c-.21-.21-.58.2-.43-.43.57-.17.15.2.4.41zm.21.21l.21.86h-.64zm-.43 1.07c-.29.43-.57.64-.86.64a.84.84 0 0 1 .8-.66zm18.6-16.89c-1.36-.68-1.23 1.69-2.78 1.07.44-.52 2.09-2.34 2.72-1.08zm-.21-.86a1 1 0 0 1 1.28-.59c.52.85-1 .61-1.34.58zm8.76-13.47q-.33.75-.83.19a1.05 1.05 0 0 1 .61-.83q.57.25.16.64zm9.3-.21l-.11.86c-1.32-.01.23-1.58.05-.82zm1.6-.53l-1.07.11c-.29-.86 1.1-.66 1.5-.86q.16.62-.48.74zm7.59-6a1.5 1.5 0 0 1-1.45.57c0-1.11 1.95-.16 1.28-1.5a1.22 1.22 0 0 1 1.07.21 1.72 1.72 0 0 0-.96.72zm1.6-1.82h-.64v-.43c.71-.18.35.29.59.43zm1.82-1.07a1 1 0 0 0-1 .86c-.81-.54 1.29-1.86 1.42-1.12zm1.6-1.28c-.86.28-.86-1.14 0-.86zm2-1.39a1 1 0 0 1-1.18-.1 1.84 1.84 0 0 1 2.14-.64 1.8 1.8 0 0 1-.98.74zm4-3c-1.56-.19.22-1.3.21-.91-.07.25.87 1.04-.28.92zm1.28-1.6c0-.57.35-.86 1.07-.86-.07.3-.42.59-1.13.87zm2.24-1.07c-.54 0-.9.55-.75-.64.16.01 1.04.65.69.65zm.75-.64c-.29 0-.43-.21-.43-.64.37.01.51.22.37.65zm5.34-4.06c-1 0-.08-.49-.11-.75-.04.14 1.26.76.03.76zm3.21-2.78a1 1 0 0 1 1.07-1.07.95.95 0 0 1-1.13 1.08zm1.6-1.28h-.54l.21-.43c.05-.01.63.44.27.44zm1.07-.75l-1-.11a1.09 1.09 0 0 1 1.07-.43q.46.54-.13.55zm2 13.15h-.64v-.43c.74-.21.37.29.61.43zm.86-4.17a1.18 1.18 0 0 0 0 1.39c-1.49 0-.45-2.78.64-2.78a2.27 2.27 0 0 1-.68 1.4zm.64-1.82c-.91-.53-.57-.85-.04.01zm.75-3l-.32.86a1.47 1.47 0 0 1-.21-1.28q.59-.21.49.43zm-.53-.86a.84.84 0 0 1 .86-.64c-.33.44-.61.65-.9.65zm-1.17-9.62c-.11.09.25 1.67-1 .86zm-9.3 4.7c-.29.43-.57.64-.86.64a.83.83 0 0 1 .82-.62zm-1.39 1.07c.16 0 .18-.31.54-.21.31.75-1.07.23-.58.23zm-5.28 6.86c-.41.09-.64 1.48-.64-.43zm-15.92 8.12c.77 0-.23.48-.32.43zm-.11 4.06c.28.29.14.36-.43.21 0-.39.14-.49.43-.2zm-1.28-1.07a.66.66 0 0 1 .85.43c-.84.26-.6-.24-.85-.42zm-5.23 2.15q.19-1.17.93-.24a2 2 0 0 1-1.47.88zm1 2.14c-.58.87-.92.53-.05 0zm-2.35 4.17l.86-.86a1.41 1.41 0 0 0-.86-.11c0-1.23 1.34-.74 1.07-2.14 1.2.61 3.13-2 4.19-2.48.36-.16 2.38 1 .72-.72.74-1.48 2.52.64 3.21-1.07a.94.94 0 0 0-1.28-.21c1.22-1 2.56-2 3.72-3.09.26-.24 2.48-1.4.77-1.4.71-1.77 3.13.28 3.85-1.5a.86.86 0 0 1-1.07-.86c.45 0 1.22.65 1.5.86 0-.77 0-2.14 1.28-2.14v1.07c1.31-.33-.32-1.24.43-1.93-.31.28 2.28-.39 2.35-.43q-1.08 0-.36-.74a3 3 0 0 1 1.43-.76l-.21 1.07c.89.3.39-.72 1.28-.43a11.08 11.08 0 0 0-.21-1.28c1.36.81 1.92-.56 1.92-1.71 1.95 1.12 1.63-1.28 3.42-1.28 0-1.65-1.14-.16.18-2 .29-.4 2.31-2.13 2.78-1.82a1.38 1.38 0 0 0-.19.8c.76-.19 2.62-.29 1.71-1.5.08 0 3.56-1.55 2.35-1.84-.36-.09-.31.82-1.07.56a5.08 5.08 0 0 1 1.07-1.28 1.54 1.54 0 0 0-.64-.21c.28-.56 2.06-.93 1.28.64 1.44-.48 2-1.8 3.42-2.35-.37 1.6-1.17 2.05-2.26 3.08s-1.85 2-2.89 3a42.83 42.83 0 0 1-4.21 3q-1 .76-1.95 1.61a1.61 1.61 0 0 1-2 .87c-1.56.77-2.08 1.61-3.32 2.75-1.08 1-2.27 1.21-3.56 2.14s-2.16 2.47-3.52 3.42c-.23.16-3.46 1.58-3.46 1.36q.44.49.86 1c-4.44 1.47-8.4 6.41-12.4 9.4z"/><path class="cls-1" d="M200.59 171.68c-.15.24-.65-.13-.43.64h.43zm14.75-11.76c-.87.53-.53.87 0 0zm-36.13-12.08c0-.5-.14-.46-.43.11.29.43.43.39.43-.11zm.43-1.17c-.17-.51.59-.94.43-1.28-.61-.3-1.63 1.28-.43 1.28zm6.63-8.77c-1.13 0-.81.81-1.5 1.5a1.76 1.76 0 0 0 1.5-1.5zm-21.06 63.17c.36-.36.32-.39-.11-.11s-.25.46.11.11zm47.57-43.93a.19.19 0 0 0 .21.21c-.15-.28-.21-.35-.21-.21zm-30.36-14.53c-1.14 0-1 1-1.71 1.71a2.7 2.7 0 0 0 1.71-1.71zm-.53 1.81c.35-.35.32-.39-.11-.11s-.25.47.11.11zm2.45-4.42l-1.92 2.14c.68-.14 2.58-1.14 1.92-2.14z"/><path class="cls-1" d="M179.43 147q-.59.66.43.11-.17-.82-.43-.11zm69.26-48.64a1.11 1.11 0 0 0-.64-1.5 8 8 0 0 0-.43 2.56q1.03.06 1.07-1.06zm-1.07 3.95a.91.91 0 0 0 0-1.17c-.76 0-1.39 1.61-.86 2.14zm-.62 3.1a3.63 3.63 0 0 1-.21-1.5c-1.11 0-1 1.45-.64 2.14q.79.05.85-.64zm2.11-9.19c-.18-.47.17-.84-.64-.64 0 1.42.23.3.64.64zm1.18-4.92c0-.49.83-4.75.8-4.75-1-.32-2.22 7.3-2.4 8.39a4.47 4.47 0 0 0 1.6-3.64zm-7.59 35.27c0-.57-.07-.57-.21 0 .14.57.21.57.21 0zm.64-6.2c-2.25.33-.78 1.59-1.07 3-.06.29-.88.58-1 1a36.87 36.87 0 0 0-.5 3.87c2.23-2.24 1.11-5.24 2.57-7.87zm34.2-94.59q.25-.46-.21-.53l-.43 1.07zM244.3 115c.35-.28.25-.5-.32-.64-.14.74-.03.95.32.64zm-1.17 2.81a.85.85 0 0 1 .21 1.07c1.58-.31.36-2.28 1.28-3.2-.51-.01-3.12 1.32-1.49 2.13zm28.22-70.12q0-.64-.64 0 .63.64.64 0zm-30.57 83.16l.64.64a2.22 2.22 0 0 0-.64-1.93c-.17.34-1.44 1.34-.86 1.93a.84.84 0 0 0 .86-.64zm.85-2.57q.43.86.43 0t-.43 0zm4.28-17.74c-.1-.38-.85-1.73-.85-.43q.11.72.85.43zm6.62-27.79c0-.28-.21-.57-.64-.85q0 .85.64.85zm-6.2 28.86c0-.57-.07-.57-.21 0 .14.57.21.57.21 0zm-.1-3.61a1.3 1.3 0 0 0-.32-1.5c-.71.71-.14 1.85-.85 2.56.8.31 1.12-.4 1.17-1.06zm-.96 5.53c-.55 1.11 1.5-.64.21-.64zm7.05-30.14c-1.09.27-1 1.22-1.28 2.14 1.01-.17 1.28-1.28 1.28-2.14zm-7.27 29.07l.85.21a.87.87 0 0 0-1.07-.86q-.27.53.22.65zM251 92.58q.85.43.43 0c-.25-.28-.43-.28-.43 0zM262.79 161c0-.61.25-.76.21-1.34 0-.28-.89 0-.85-.56s.89-.54.86-1.38c0-1.15-.94-1.92-.21-3.14h-.85c.24 2.03-.95 4.89.84 6.42zM253 81.9c.28.43.43.39.43-.11s-.18-.46-.43.11zm1.46-5.9a4 4 0 0 1 .43-1.82H254c.26 1.07-.27 1.47-.86 2.35q1.12.56 1.32-.53zm9.08 25.24c-.29-1.41.64 0-.32-1a11.1 11.1 0 0 1-.21 1.28q.58.3.53-.28zm-9.83-24.05c-.07-.43-.25-.43-.54 0 .43.43.61.43.54 0zm-.21 2.46c.69-1-1.49-.83-1 .75a1.42 1.42 0 0 0 1-.75zm.32 40.72a1.42 1.42 0 0 0 0 1.5 1 1 0 0 0 0-1.5zm-.97 3.63c.35-.28.25-.5-.32-.64-.14.72-.03.93.32.64zm8.45-14.42c.14.07.21 0 .21-.32-.29.14-.35.25-.21.32zm12.82-30.04c.14.57.21.57.21 0s-.07-.54-.21 0zm17.53-48.09c.87-.54.54-.87 0 0zm-28.21 130.82c-.43-.57-.61-.64-.54-.21s.25.5.54.21zm16.24-99.19l-.17.32c.11-.04.17-.14.17-.32zm8.98-17.53a1.08 1.08 0 0 0-.43 1.28.89.89 0 0 0 .43-1.28zM256.7 69a3.6 3.6 0 0 0 .11-3.74c.37 2.65-2.83 4.86-1.71 7.48a14.71 14.71 0 0 1 1.6-3.74zm24.3-6.34c1.2 0 1.08-1.53 1.28-2.35a1.86 1.86 0 0 0-1.5.86c.84-.01.22 1.08.22 1.49zm13.86-54.73c.43.43.6.43.54 0s-.26-.42-.54 0zm-40.4 111.16q.43.86.43 0t-.43 0zm38.9-94.7q-.45.48 0 .86.45-.48 0-.86zM260 110.11c-.43.43-.29.57.43.43.15-.71.01-.85-.43-.43zm4.72-8.76s-.62 1.32.13 1c.31-.11.3-1-.13-1zm.43-1.07s-.12 1.32.32 1c.18-.15.18-1.28-.32-1zm-1.71 4.27c.28.43.43.43.43 0s-.15-.42-.43 0zm1.28-5.77q.07-.58-.43-.43c0 2.11.2.27.43.43zM254.89 118c.28.29.43.15.43-.43-.58.02-.72.17-.43.43zm16.24-31.4c.87-.54.54-.87 0 0zm-2.46 5.4c.35-.35.32-.39-.11-.11s-.24.52.11.11zm-1.92 2c.35-.35.32-.39-.11-.1s-.25.43.11.1zm2.67-4.41a1.7 1.7 0 0 0 1.07.43v-.64a1.22 1.22 0 0 0-1.07.21zm-8.98 17.96c.28-.14.35-.21.21-.21a.19.19 0 0 0-.21.21zm-2.56 4.91c-.15-.18 1.14 1.28.69-.05-.34-1.04-.52.16-.69.05zm-2.57 4.06c-.76.77 1.26 1.72 0 0zm1.07-1.28c.43 0 .64-.14.64-.43q-.64.01-.64.43zm3.85-7.48a.19.19 0 0 0 .21-.21c-.28.14-.35.21-.21.21zm-4.49 8.34c.43.43.6.4.54-.11s-.28-.46-.54.11zm3.85-7.7c.28.43.43.4.43-.11s-.15-.46-.43.11zm-1.29 3.42c.86.14 1.42-.07 1.71-.64-1.01 0-1.56.21-1.71.64zM354.46 141a1.14 1.14 0 0 0 0-.33c.03.12.01.23 0 .33zm-6.59 2.89c.28.29.43.21.43-.21-.57-.15-.72-.08-.43.21zm-4.27 6.3c.14-.64.14-.68 0-.11s-.15.76 0 .11zm.4-1.81c.24.22-.11.64.64.43q.01-.66-.64-.43zm5.16-7.06v.68c.44.22.7-.6.51-.86a.39.39 0 0 0-.51.18z"/><path class="cls-1" d="M285.88 165.05a29.87 29.87 0 0 0-.88 7.47 9.53 9.53 0 0 0 .65 3.59c.45.93 1 1 1.62 1.87.34.51 0 1.44.32 1.82a12.77 12.77 0 0 0 2.26 1.72c2.17 1.12 4 .65 6.34-.25 8.57-3.35 12.19-13.07 18.33-19.21a18.17 18.17 0 0 0 8.15 13.53c4.39 3 11.21-.28 14.52-3.92 1.94-2.13 3.37-4.87 5.17-7.17 1.95-2.48 3.86-5 5.72-7.54a31.21 31.21 0 0 0 6.38-15.96 11.71 11.71 0 0 0-.77-5.54 30.88 30.88 0 0 0-2.62-3.55c0 .52.3 2.81.67 2.59l.16-.69c.48-.29.49 3.16.24 3.66 0-1-1.8-.36-2.35-.64.57 1.43-.79 2.42-.21 3.85a1.21 1.21 0 0 1 .8-1.07c.52 0-.11 3.24-.37 3.64a.87.87 0 0 0-.43-.86c0 1.29-1.28.93-1.28 1.28a2 2 0 0 1 .43 2.57c-1-.35-.12-1.09-1.28-.21l.43-1.07c-1.88 1.12.29 4.22-2.14 4.92.77 1.54.49-.44 1 0 1 .82-1.06 1.11-1.45 1.6-.82 1-1.42 2-2.16 3.06-.6.87-1.34 2.59-2.49 2.89-.61.16-2.09.29-1.79-.92a7.1 7.1 0 0 1 1.71.43q.08-1 .21-1.93c-.94 0-3.16 1.62-1.71-1.28 1.48 1.49 2.09-1.4 1.71-2.35 1.24.32.38-.4 1.28-.86.2.41.68 1.46 1.28.86-.5-1-.26-1.42.21-2.35a1 1 0 0 1-.86-.64c1.52.51.3-2.21 1.2-2.4s.51 1.76 2.22 1.76c-.2-1 .74-3.09 0-3.85h.9c-.48-1 .54-1.12 0-1.92 1.52.76 1.66-2.36 2.12-3.59.34-.9 1.71-5 1-5.33l.32.64c.85-.57-.5-1.1-.45-.91q-.68.29-.64-.64a3.61 3.61 0 0 0 .21-1.91c-.48-2.55-2.47-5.5-5.34-5.79 2.62 5.23 2.32 11.26.42 16.67a37.92 37.92 0 0 1-3.62 7.42 50.1 50.1 0 0 1-2.57 3.77c-1.18 1.57-.93 2-1.28 3.77-1.28 0-.4-.7-1.82.76-.35.36-2 2-1.76 2.47l.75.16c.26.66-4.32 4.35-5.08 5.05a16.18 16.18 0 0 1-5.76 3.48c-1-4-.74-8.77-3-12.42-1.21-2-2.36-2.18-4.27-3.09l-1.31-.09a.94.94 0 0 0-.32-1 5.85 5.85 0 0 0-2.25-.93c-2.39-.34-2.95.9-4.52 2.77-1.33 1.58-2.55 3.23-3.79 4.87s-7 10.24-9.21 9.5c2-6.58 3.89-13.22 5.73-19.86a29.6 29.6 0 0 1 1.16-4.19 1.85 1.85 0 0 1 1.26-2 3.68 3.68 0 0 0 1.42-1c.68-1.78-2.08-4.53-3.37-5.65a4.55 4.55 0 0 0-3.2-1.45c-1.76.11-1.6.5-2.4 2.07a70 70 0 0 0-3.59 8.47 202.35 202.35 0 0 0-5.96 21.05zm63.49-16.78c0 .5-.07.53-.21.11.14-.57.21-.61.21-.11zm-1.28-1.6q1.07.64.43 1.07c-.58 0-.72-.36-.43-1.07zm-1.09 5.12q.49.11.16-.53c.12-.24.34 1.36.37 1.39s-1.64.28-.53-.86zm-2.14.86q.8 0 .64.86c-1.33-1.34-.11-.11-.62-.86zm-3.42 5.45c.72-.9 3.57-5.73 4.7-3.1-2.16-.54-3.87 2.37-4.7 4.06a.65.65 0 0 1 .02-.96zm-.85 1.82c.43-.28.46-.25.11.11s-.38.32-.09-.11zm-1.5-1.93c.7 0 .67.29 0 .64zm6.41-12.83c0 .57-.07.57-.21 0 .16-.56.23-.56.23.01zm-6.5 7.49h.54l-.21.43c-.1 0-.69-.43-.33-.43zm-.43 2.78l-.11 1.07a1.67 1.67 0 0 1-.46-1.5q.67-.22.57.43zm-1.6 2.24q-.09-.88.7-.88a2.12 2.12 0 0 1 .21.85c-.75-.38 1.09.13.59.13a2.6 2.6 0 0 1-1.5.85zm0 3.42a.76.76 0 0 0 .21-1.17 6.4 6.4 0 0 0 1.07.21c0 1.12-1.37.21-1.07 1.71q-.84-.29-.18-.75zm-.64-1c-.57 0-.86-.35-.86-1.07.53.04.86.4.86 1.11zm-.75 1.18l1-.11a1.44 1.44 0 0 1-1.28.64q-.3-.54.28-.49zm1 1.81h-.85v-.43q.69-.24.81.47zm-.85 1.39l.85.1c0 1.35-1.5.53-1.5-.21zm-23.3-10.16c.15.24.65-.13.43.64h-.43zm-2.56 3.42c.67-.67.41-1.34 1.5-1.07a4.92 4.92 0 0 1-1.92 1.5q-.45-.5.37-.38zm-2.87 3.9c.27 1.4-1.15.55-1.92 1.07a1.69 1.69 0 0 1-.21-1.07 1.93 1.93 0 0 0 2.13 0z"/><path class="cls-1" d="M345.31 147.95c0 .52-.54.3-.43.85h.64zm33.34 8.98c.14.43.21.46.21.11s-.07-.4-.21-.11zm-2.56 3.2c.28.29.43.25.43-.1s-.15-.32-.43.1zm4.06-4.27q.55.36.43-.43c-.58-.14-.25.17-.43.43zm-3.53 1.6a2.81 2.81 0 0 0-.54.75c.64-.64 1.63-.15 1.07-1.28zm.54-.53c1.11.28.51-.07 1.07-.64a2.15 2.15 0 0 0-1.07.64zm7.91-7.59c.28.21.36.11.21-.32-.43-.02-.5.1-.21.32z"/><path class="cls-1" d="M384.85 148.48q.25.83.83.37c.72-1.43-1.75-.59-.83-.37zm-.43.52c-.15.24-.65-.13-.43.64h.43zm-3.63 4.29c.43 0 .53-.1.32-.32s-.32-.11-.32.32zm-.64.65q.64.43.64-.64a.57.57 0 0 0-.64.64zm.43 1.49c.57 0 .71-.11.43-.32s-.43-.11-.43.32zm1.07-2.99a.38.38 0 0 0 .43-.43.38.38 0 0 0-.43.43zM393.08 140c-.07.15 0 .21.32.21-.14-.21-.25-.31-.32-.21zm.32.25a.19.19 0 0 0 .21.21.19.19 0 0 0-.21-.21zm-36.12 28.22a.19.19 0 0 0-.21.21c.28-.14.35-.21.21-.21zm36.12-28.65l.4.12c-.05-.18-.18-.22-.4-.12zm-15.6 14.12c-.29.43-.25.46.11.1s.32-.39-.11-.1zm-.86 11.33c.08-.16.34 0 .21-.43-.42-.02-.08.16-.21.43zm-1.39-4.27c.07.15.11.07.11-.21-.14-.01-.18.06-.11.21zm7.91-7.81c.41.43.02.01 0 0zm-7.05 3.81q.17-.57.75-.32c-.69-.69.41-1.28-.85-1.93a2.66 2.66 0 0 0 0 1.5 3.13 3.13 0 0 0-2.14.64c0 .4 1.17-.51 1.31-.43-.15-.04.71 1.66.93.54zm19.34 5.27c0-.35.3-1.31.08-1.6s-.83 1.6-.08 1.6zm.11-1.92c-.21-.28-.32-.21-.32.21.46.14.54.07.32-.21zM357.49 168c0-1.19 1.78-3 1.07-4.06-.27 1.43-1.66 2.61-1.07 4.06zm25.65-16.63q.83-.68 1.71-1.28a1.57 1.57 0 0 0-1.71 1.28zm-23.08 9.41c-.43.71-.46.82-.11.32s.39-.61.11-.32zm35.69-1.5s.5-1.07 0-1.07zm-.21 3.42v-.11a1.94 1.94 0 0 1-.21.53zm-33.78-4.92l-.21.85a.91.91 0 0 0 .43-1.5zm3-4.7l.21-.64c.03-.16-.66 1.08-.21.64zm-5.56 10.69c0-.93 1.66-1.34.21-1.93.38.75-.88 1.26-.21 1.93z"/><path class="cls-1" d="M387.63 152.44c-.37 6.55-1.64 13.14-1.31 19.71.13 2.61.3 5.88 1.74 8.14a7 7 0 0 0 2.24 2.29 3.87 3.87 0 0 0 1.18 1.29 2.76 2.76 0 0 1 2.14 0c-.28-1.41.61-.35 1.5-.64-1.27-1.27-.26-4.25-1.92-4.92l.64-.64a.77.77 0 0 1-.43-1c.28-1.25-.06-1.21.86-1.17-1.28-3.57-.09-7.19.59-10.74a33.18 33.18 0 0 0 .7-4.22c.06-1.13-.87-2.55.21-3.63q-.5.69.21.86c0-4.68 4.42-15.8-2.16-17.84.14.49-.46.6-.62 1-.55-1.65-1.84-3.66-3.84-3.26-1.64.33-3.23 2.87-4.38 4.14q-4.8 5.32-9.46 10.76a96.26 96.26 0 0 1-18.45 17c-.32-1.17.6-.43-.64-.43a61.06 61.06 0 0 1 13.29-22.35c1.68-1.86 4.53-4.61 6.9-6.89 1.1-1.05 3.39-3.18 5-3.25.33 0 2.75.4 2.78.43 1.31-3.91-3.28-7.13-6.71-7.9-4.46-1-7.85 2.81-10.83 6-7.2 7.64-13.5 16.45-16.13 26.74-.65 2.55-1.28 4.79-.47 7.09.6 1.7 1.27 4.35 2.24 5.56 3.18 4 8.81 2 12.59-.23 9.23-5.39 14.71-15 22.54-21.9zm-34.2 9c-.15-.24-.65.13-.43-.64h.43zm19.24-2.14q.64-.43.11 0t-.11-.02zm-.32.75c.21.07.18.1-.11.1s-.11-.15.11-.15zm-1.39-.32c.5 1 .46-1.32.86-1.71.86.87-.38 1.77-.64 2.57a.63.63 0 0 1-.18-.88zm-.86 1q1-.56.88.32a3.16 3.16 0 0 1-1.31-.21.94.94 0 0 0 .43-.17zm-1.5 6.09c.14-.28.21-.21.21.21s-.06.3-.2-.27zm.43-.64c0-.43.11-.5.32-.21s.11.29-.35.15zm1.18-.75l-.54-.53c.81 0 1.43.4 1.28 1.28zm1.6.75c-1.13-.41-.29-1.64 0-.06zM384 153.19c0 .41-3.17 2.69-3.62 3.23s-.71 1.3-1.18 1.76q-.07 1.47-1.08 1a1.18 1.18 0 0 0-1.18.11c1.78.89-2.49 3.15-2.54 3s.86 1.68-.13 1.17a1.87 1.87 0 0 0-.53-1c0 1.08-1.5 0-1.5 1.29h1.07a.94.94 0 0 1-1.07 1.07c.58-.88-1-.55-1.28-.43V164q.32-.11.21.21a13.09 13.09 0 0 1 4.49-4.7 4 4 0 0 0-1.71-.21c1-1 1.71-.52 1.71-2.14-1.16-.56 0 1.07-.83 1.07-.66 0-.31-1.52-1.31-.86-.07.13.82 1.09.24 1 0 0-1.33-.4-1.1-.4a51 51 0 0 1 5-5.22c.45-.38 2.43-2.16 2.9-2 1 .24-.64 1.27-.64 1.28l.43.43c1.05-.79.3-1.35 1-2.11s1.16-.55 2.24-1.31l.53-.75q-.6-1.26.8-1.36c.42-.54.88-1.74 1.66-1.74l-.43-.86a1.28 1.28 0 0 0 1.5 0 4.41 4.41 0 0 1 0 3.61q0-.54-.21-.19a.52.52 0 0 1 0 .66c-.93.06-1.21.26-.32.62-.56.97-3.12 3.18-3.12 4.16zm-10.9 6.94c0-.43.36-.64 1.07-.64-.01.43-.36.64-1.08.64z"/><path class="cls-1" d="M360.59 159.71l.11.64a1.72 1.72 0 0 1 .64-.86zm78.56-11.33c-.31.91-1.05 1.2-1.28 2.14.43-.44 1.87-1.26 1.28-2.14zm32.28 30.67c1.79-.54 1.11-1.1 1.28-2-.07.38-1.44.7-1.71.43a6.94 6.94 0 0 0 1.5-1.28c-2.23-.36-3 2.81-5.34 2.14.53 1.62 2.67-.83 3.85-.43.33 1.68-1.71.27-1.71 1.71-.8-.8-3.1.64-1.82 1.39 1.52.83 2.89-1.64 3.95-1.96zm-30.25-32.6c-.21-.28-.39-.21-.53.21.56.15.74.08.53-.21zM456 186.64c.28.43.43.39.43-.11s-.11-.46-.43.11zm1.32.64q2.14-.43 2.35-1.28-1.93.43-2.35 1.28zm18.91-11.97a6 6 0 0 0-1.39.21c1.43-1.44-.36-1.87-1.07-.43a.66.66 0 0 0 .86.43 1.3 1.3 0 0 1-1.28 1.07c1 2.1 4.1-1 4.49-2.14 0-1.05-1.58.86-1.61.86zm-3.42.21c-.45-.18-.44.69.54.64zm-18.7-46.17c-.87.53-.53.88 0 0zm-4.11 7.27c.44-.25.82 0 .64-.86-.73-.05-.44.32-.64.86zm7.74 48.95q-.9-.38-1.07.43a.87.87 0 0 0 1.07-.43zm-53.86 46.07c0-.5-.14-.46-.43.11.29.42.43.39.43-.11zM433.59 157q.44-.42 0-.75l-.85 1.29zm.85-1.14q0-.85-.43 0 .43.85.43 0zm28.01 26.29c1.91.27 1.81-1.61 3.42-1.92q-.45.39 0 .64a2.91 2.91 0 0 0 1.07-1.5 12.88 12.88 0 0 0-4.49 2.78zm-24.59-31.64c-.43 0-.54.15-.32.43s.32.14.32-.43z"/><path class="cls-1" d="M502.85 168c-.65-3.52-7.15-3.09-9.73-2.75A47.75 47.75 0 0 0 479 169.7c-4.71 2.22-9.15 5-13.68 7.54a36 36 0 0 0-4.11 2.27c-1.06.82-.93 1-1.7 1.92-.36.41-.7.19-1.15.51-.65.46.34.69 0 .86-1.66-1.71-1.18.37-1.71.64-1.16-1.15-1.58 1.2-2.35.43 2.1-13.27 4.11-26.59 7-39.72.86-3.9 3.52-14.49-.9-16.84-2.81-1.49-4.1-.2-5.43 1.78-.86 1.27-5.09 4.05-4.3 5.61a3.77 3.77 0 0 1 1.5-1.5c-.28 1.13.39.36.85.59.05 0-4.08 5.35-4.2 5.53-.85 1.27-1.45 1.83-2.36 3.13a11.72 11.72 0 0 1-2.09 2.64c-.72.58-1 .19-1.3.35q-.36.56.34.43c-1.15.77-.12.59-.68 1.52a1.59 1.59 0 0 1-1.05.56 11.65 11.65 0 0 1-1.55 2.78.71.71 0 0 1-1.07.32q-1.17-.51-.89 1.18c-.93 1.36-1.21 2.66-2.49 3.88-.59.57-3.45 3.6-4.05 3.6 0-1.33 2-.74.43-2.35a1.37 1.37 0 0 1-.85 1.28c1.4-.46-.73 1.42-.7 1.38-1.54 1.82-3.1 3.58-4.49 5.52-2.47 3.43-4.83 6.34-8.7 8.28a116.18 116.18 0 0 1 1.94-19.23c.76-4.5 3.92-13.17.56-16.71-1.89-2-4.69-3.38-6.37-.46-1.32 2.3-1.2 6.44-1.66 9.17a128.28 128.28 0 0 0-2.27 20c-.07 5.95.68 12.91 6.5 16.17s9.86-2.58 12.85-6.34c8.34-10.48 14.7-22.51 23.94-32.28q-2.29 13-4.17 26.15-.89 6.12-1.76 12.24c-.31 2.16-.12 5.23-1 7.18-.52 1.14-3.6 2.19-3.32 3.59q.21-.42.43 0c-.31 0-1.22 1.13-1.36 1-.71-.42-1.22-.23-2.27 1.1q.54-.5.86 0c-1.55.62-1.93 2.29-3.64 2.78.36-1.1 1.8-.41 1.5-1.93-1 .81-3.54 2-3.21 3.63-1.48-.88-1 .2-.78.59s-1.64.76-1.15 1v-.75c-1.45.58-2.36 1.92-3.42 3q.32-.42.64 0c-.34 1.34-5.26 3.81-4.49 5.34-1.58 0-.58.48-1.07.75 0 0-1.64 1.93-1.07-.32-1 .51-1.43 1.52-2.35 2.14 1.26.31-.59 1.09.64 1.71-1-.27-1.31.86-2.14 1.28-.54-1.09.82-1.17 1.07-2.14a12.89 12.89 0 0 0-3.21 3c.71 0 2.14-2 2.14 0-1.15.56-1.52.44-2.35 1.28 1.82 0-.92 1.49-1.17 1.73-1.22 1.23-1.11 2.52-3.11 3a3 3 0 0 0 .43-1.5c-2.37 2.67-5.11 5.21-6.69 8.46a1.37 1.37 0 0 1 1.34-.13c0-.07-2 1.62-1.5.43q-1 .21-.48 1a1.51 1.51 0 0 1 0 1.42c-.8 1.26-2.47 2-3.56 3a.87.87 0 0 0 .64.43 10.41 10.41 0 0 1-1.71 1.93c-.25-1.54 1.5-2 1.5-3.63a69.82 69.82 0 0 0-8.11 11.47l-3.43 5.84c-.91 1.55-1.16 3.3-2.36 4.5 0-1.22 2.26-3.58 1.5-4.7-5.71 10.47-10.69 21.82-9.62 34a28.42 28.42 0 0 0 1.07 4.06c1.58 3.11 4.69 6.36 7.26 8.68 4.63 4.16 10.83 6.68 17 4.79 5.86-1.79 11-7.73 14.35-12.21a2.88 2.88 0 0 1 .05-1c.2-.33 1-.3 1.07-.43a36.8 36.8 0 0 0 2.72-4q3-5.38 5.61-11c2.87-6.14 5.88-13.38 7.33-19.25.75-3 2.55-6.16 3.68-9.15q2-5.31 3.58-10.76c2.21-7.63 3.79-15.44 5.3-23.23q1.06-5.48 2-11c.3-1.79.28-3.78 1.38-5.1s3.27-2.34 4.71-3.42c6-4.51 12.4-7.89 18.61-11.88a76.25 76.25 0 0 1 10.53-5.69c1.77-.78 5-1.35 6.49-2.49s0-.6.74-1.74c-.88.59-1.29-1.2-.43-1.5.87 1.75-.1.63 1.36 1.5.79.47 1.25 1.05 2.27.64a.88.88 0 0 0-.64-.86c.52 0 2.07.07 2.57-.43-1.22-.72-4.7.72-4.7-.64 2.49-.9 5.6-1.16 7.94.1zm-68.62-6.41c.28-.43.43-.39.43.11s-.15.5-.43-.07zm9.41-12.4c.14-.57.21-.61.21-.11s-.07.58-.21.15zm1.28 0c-1-.32-.52-1.31.21-1.07a1.7 1.7 0 0 0-.21 1.11zm2-4.38l-.32.75a.8.8 0 0 1 .21-1.29zm-.75 55c.43.71.46 1.07.11 1.07s-.37-.27-.08-.99zm-.64 3.21a.54.54 0 0 0 0-.86c1.14 0 0 1 0 1.5q-.41-.21.03-.56zm0 4.49a14.48 14.48 0 0 1-1.07 2.14 1.27 1.27 0 0 1 .54 1.07c-.09.51 0 2.37-1.18 1.71-.87-.49 1-5.37 1.28-6.63.9.25.71 1.2.46 1.79zm-1.92-14.86c0 .5-.14.53-.43.11.31-.49.46-.53.46-.03zM431.77 202c0-.15.75-.54.75-.54s-.43.9-.43 1q-.5.15-.32-.46zm-9.3 8.87l.21-.53c1.32.44-.68.79-.21.56zm-11.76 13.36c0-.67 1.58-2.68 2.14-2.57a11.78 11.78 0 0 1-1.28 2.25c-.16.18-1.47.66-.86.35zm-3 3.42c.88-1.16 1.39-2.51 3-2.78-.57 1.76-1.07.32-1.07 1.93-.82-.18-.5 1.27-1.92.88zm-1.07 7.06c1.36-4.21 4.36-7.62 7.36-10.81 3.3-3.56 6.24-7.44 9.75-10.75 6.9-6.5 13.46-13.26 21.18-18.81.65 1.63-.23 3.74-1.07 5.13-1-1.4-2.14 2.18-2.14.64-.65.32-.41 1.73-1.28.86.72.72-.43.51-.43 1.07l-.85-.86c-.9.6 0 .76 0 1.5-1 .95-1.38-.84-1.71.86-.53-.79-1.24-.35-1.92 0 1.46.47 2 1 1.07 2.14.35-.47-2.75.44-2.78.43.71 1.28-.8 0 .64.69a1 1 0 0 1-.64.64c-.45-.23.24-.91-.86-.91.4.82.75.8.29 1.29-.14.15-1 .84-.77.84a1.22 1.22 0 0 0-.59-.27l.21.7c-.62-1.24-.78.72-1.71-.21.52 1.59-3.84 4.92-5.56 4.92 0 1.4.28 1.41-1.07 2.78-.75 0-.24-.62-1.07.21 1.22 0 .07.14.43.86a.66.66 0 0 1-.43-.86c-1.12 1.87-2.19 3.76-4.49 4.27 1.57.31.36 2.16-.85 1.93l.21-.64c-2 0 0 .91-.64 1.71-.27.35-.87.67-1.2 1s-2.65 2.28-2.65 1.09c-1.11.56-.86 1.74-1.07 2.78a1.71 1.71 0 0 1-.86-.64.75.75 0 0 1 0 1.07c-.9-.91-1.14 1.14-.21.21.31 1.55-1.37.38-1.07 1.92-.9-.61-.68.38-.91.7s-1 1.13-1.47 1.78c-1 1.43-1.49 2.88-3.4 3.3a7.44 7.44 0 0 1 2.57-2.53zm6.2-6.95c0 .5-.14.54-.43.11.3-.55.44-.58.44-.08zm-12.61 9.94c.36 0 .08-.57.64-.43-.14 1.14-.22.89-.63.46zm.21 3.21c1.06 1-1 3.85-2.14 3.85a8 8 0 0 1 1-1.82l-.19-.75a1.49 1.49 0 0 0 1.35-1.25zm-1.82-1c.79-.8 1-1.65 1 .32-.92-.62-.56.74-1.5.43zm-.75 5.67c1 0-.51.92-.43 1a2 2 0 0 0 .45-.94zm-.43-3.21q0 1.71-1.28 1.28a1.13 1.13 0 0 1 1.3-1.22zm-.86 6.2c0-.29.14-.32.43-.11s.17.31-.4.17zm-1.71-1.71c0-1.14.06-2.35 1.5-2.35-.45.45-1.32 2.67-1.84 2.67a.46.46 0 0 1-.11-.64zm-1.6 1.5a1 1 0 0 0 .53-1.07c.75.74-.09 2.35-1.07 2.35a1.23 1.23 0 0 1 .56-1.22zm-1.82 3.63a8.54 8.54 0 0 0 1.28-2.14c.64 1.59-1.17 3.14-1.71 4.49a2.37 2.37 0 0 1 .46-2.29zm-1.28 2.35c.42 0 .67 1.07.11 1.07a1.21 1.21 0 0 1-.09-1.01zm-.86 2.24a.43.43 0 0 0 0-.75c1.16-.29.63 1.28 0 1.28q-.4-.17.03-.46zm-2.14 1.82c.43.28.43.46 0 .54s-.4-.05.03-.48zm-.43 1.28q.64-.43.11.11c-.32.42-.36.39-.08-.04zm-3.21 15.39c.14-.57.21-.57.21 0s-.03.64-.17.07zm1.28-4.27a.86.86 0 0 0-.21 1.07c-1.26-.32 0-1.79.13-2.46.01.2.66 1.19.12 1.45zm.21-3q.64-.64.64 0t-.6.07zm.43-1.6c-.43.5-.43.46 0-.11s.47-.32.04.18zm1-1.5l-.32.53c-.73-.49-.11-1.07.64-1.07zm.11-1.17v-1.07c1.14-.22.82 1.14 0 1.14zm.85-2q-.2.39-.64.11a.89.89 0 0 1 .86-.64zm1-4.7l-.54.75c-.61-.31.57-.72 0-1.29q.96-.11.51.57zm-.32-.75c0-.29.29-.43.85-.43-.03.35-.31.47-.88.47zm.85 1.5q.22-.64.21.1t-.24-.07zm9 37.73c-3.57.34-10.87-1.25-8.71-6.65a1.5 1.5 0 0 1 .8.35c0-17.75 6.11-33 16.51-47.3 10.63-14.6 23-28.41 37.14-39.7-1.46 18-8.37 35.2-14.25 52-3.13 8.94-7.65 17.35-12.39 25.53-4.33 7.4-9.9 14.94-19.15 15.8zm7.27.75c.29-.43.43-.43.43 0s-.2.46-.48.03zm3.42.86c.29-.43.46-.43.54 0s-.17.45-.59.02zm-.21-2.78a5.29 5.29 0 0 0-1.92 1.5c-.3-1.55 2.09-2.28 2.78-3.42a1.51 1.51 0 0 1-.92 1.94zm1.07 2.14q0-1.72 1.28-1.28c-.2.54-.59 1.49-1.34 1.3zm6-4.49c-.94-.51-.6-.85-.07.02zm.86-1.5c.28-.57.43-.61.43-.11s-.22.57-.51.14zm4.27-6.84c-1.2 1.18-1.26 4.55-3.42 4.92a16.68 16.68 0 0 0 3.26-5.59s1.39.7.09.7zm-2.14 1.71c.28-.43.43-.43.43 0s-.21.45-.5.03zm4.27-5.13l-.64.64c-1.21-.61-.13 0-1.07 0 .44 0 1-1.5 2.14-1.5zm2.14-4.49c-.25.53-1.19 3.25-2.56 2.56.76-1.13 1.38-1.38 1.9-2.62.29-.7.82-.3 0-.69.41.22 2.92-5.21 3.21-5.67-.05 2.4-1.89 4.27-2.62 6.45zm2.89-3.21q-.54.43-.32-.64c.54.17.6.38.25.67zm1.5-5.88a12.54 12.54 0 0 0-1.39 2.46c-.6-1.51 1.48-3.35 1.71-4.92a2.3 2.3 0 0 1-.39 2.49zm5.45-13.79q-.26 1.08-.8.35a1.15 1.15 0 0 1 1-1zm3.42-10.15c-.33 1.14-.5 2.43-.86 3.53h-1.07c-1 0 1.44-2.38 1.28-1.92.37-1.11-.45-3.08 1.28-3.42a17.6 17.6 0 0 0-.7 1.84zm-.21-2.89a1 1 0 0 0 .21-1.5c-1.18 3.76-2.86 7.4-3.42 11.33 0 0 1.66-1.84 1.71-1.82.22.11-1.75 2.51-1.9 2.74-.53.86-1.84 1.27-.88 2.71-1.87-.94-.91 2.86 0 1.5.82 1.24-.91 2.81-1.28 3.63-.55 1.23-1.41 3.57-1.92 5.13-.45-1.56.51-2.1.95-3.39a7.86 7.86 0 0 0 1-1.74 2.7 2.7 0 0 1-.64-1.29c1.37.55 1.8-1.51.85-2.14-.81 1.79-1.54 3.61-2.27 5.43-.46 1.15-2.07 4.12-1.25 4.33 0 0-.53.72-.53.08a5.06 5.06 0 0 0-.86 1.29q.7.58.75-.11c.34.33-2.28 2.78-2.46 3.1-1.59 2.84-2.47 6.21-4 9.13s-3.85 5.68-5.19 8.66c-.83 1.85-.42 3.36-3.41 4.23a.75.75 0 0 1 .85.86c-1-1-.26.76-1.28.43-.16-.33.59-.78.43-1.28-.85.56-1.83 1.24-1.28 2.35-1.48 0-.65.95-1.91 1.42 3-7.2 9-12.34 11.74-19.69s6.72-14 9.05-21.66c1.08-3.55 3-6.93 4.22-10.45 1.36-3.81 2.43-7.71 3.54-11.59 1-3.54 2.25-7.27 3.17-10.7.63-2.36.16-6.34 2.67-7.91-1.13 3.79-1.36 7.75-2.41 11.18-1.46 4.73-2.37 9.58-4 14.26.82 0 .83-.86 1.71-.86-.42.79-1.06 2.18-2.04 2.38zm1.28-2.78c0-.43.14-.5.43-.21s.06.37-.5.24zm.85-1.07c0 .82-.13-.32-.08-.54-.08.08.65.58.01.58zm1.07-2.46q-.34.58-.64 1.17c-1.34-.8.46-1.13.21-2.35a.76.76 0 0 1 .36 1.22zm1-3.42a11.8 11.8 0 0 1-1.07 2c-.34-.43.68-2.9 1-3.18a1 1 0 0 1-.07 1.22zm.64-2.89q-.76.94-1 0c.78-.79-.19-.45.64-1.28.09.04 1.16 1.28.25 1.28zm1-3.63a4.12 4.12 0 0 0-.64 2.14c-1.09-.74.53-3.47.86-4.27a2.3 2.3 0 0 1-.36 2.17zm1.28-6.84q-.67.44 0 1.07c-1.53 0-.84-2.35.43-2.35a1 1 0 0 1-.57 1.32zm.43-3.1c-.14.64-.14.61 0-.1s0-.5-.14.14zm.21-2c0-1.14.35-1.71 1.07-1.71q-.57 1.5-1.21 1.72zm1.07-6.41c.14-.43.21-.39.21.1s-.21.47-.35-.12zm.43 6q.43-.86.43 0t-.57-.02zm1-9.3a8.61 8.61 0 0 1-.75 1.5c-.24-.18.23-2.07.43-2.46a.83.83 0 0 1 .12.95zm12.8-21.49a.9.9 0 0 0 1.07-.54c-.28-.15-.42 2-1.5 1zm-8.34-47.46a4.56 4.56 0 0 1 2.14-2.35c-.53.4-.38 3.59-1.34 1.71.06.2-.6.76-.85.64zm-2.56 10c-1.82-.61-1 1.5-2.57 1.5a9.46 9.46 0 0 1 3-4.49c-.53 1.22-1.24 1.77-.53 3.04zm1.82-2.78q.1.64-1 .86c1.09-.54.75-1.47-.21-1.28a11.26 11.26 0 0 1 1-1.82c.07-.11.08 1.85.16 2.25zm.75-1.07c.14-.57.21-.61.21-.11s-.13.59-.27.19zm.43-1.82c0-.21-.29-.18-.86.11.91-.6.77-1.77 2.14-1.5a3.29 3.29 0 0 0-.43 1.92.91.91 0 0 1-.95-.48zm34.63 33.45c-1-.38-1.73.92-1.87.64a9.3 9.3 0 0 0 .59-.86c-.65-.22-3 2.8-4.06 3.42a2.32 2.32 0 0 1 .43-1.5c.77 0-.31 1.16.85 0-.64-.48-2.41 0-2.93.43-1.08.92-1.26.31.15 1.71-1.3.24-1.33.72-2.33 1.24-.31.16-.88.52-1.32.79-1.53.95-3.16 2.34-4.74 3.18-.93.49-1.76.74-2.79 1.31q-.84-.5-1 .28a2.24 2.24 0 0 1-.72 1c-.95.61-2 1-2.94 1.62.47-1.2 1.07-1.43 2.14-2.14-1.58-.53-4.59 3.15-5.13 1.5-.54 1.07-1.63.59-2.56 1.07.8 2.8 3.76-.77 5.13-.43-.53.53-1.55 2.32-2.14.86-.53.52.29 1.05-.27 1.44-.35.25-.79.22-.59-.38.66 0-2.61 1.81-2 1.47a20.69 20.69 0 0 0-2.25 1.4c-.58.43-1.34 2.05-2.58 2.05 0-1.52-.53-.27.08-1.5.28-.56 1.44-.89 1.85-1.49-1.44-1.08-1.3 2-2.78 1.28.21-1.07 1.55-1.55 1.79-2.19.15-.38-1.1.1-1.36-.16 8-5.9 16.25-11.39 25.44-15.18-.65 1.62-1.36.47-2.33 1.31l-.88.18a1.29 1.29 0 0 1-.21 1.29 4.3 4.3 0 0 1 2.35-.64q-.87.71 0 1.28c1.48-1.48.34-1.71 2.73-2.83a48.77 48.77 0 0 1 6.68-2.73 6.43 6.43 0 0 1-.49 1.34zm1.5 0l-1.07-.21q.67-1 1.71-.21-.18.64-.7.48zm-.21-1.5a1.37 1.37 0 0 1 1.5-.21q-.69 1.16-1.52.27zm1.71 1.07c-.29 0-.43-.28-.43-.86.36.35.5.64.36.92zm1.07.86c.28-.57.43-.61.43-.11s-.23.59-.5.13zm.21-2.46l-.86.32c.29-1.49 1-.08 1.71-1.07a.85.85 0 0 1 .21.86zm-3.42-.11a66.31 66.31 0 0 1-8.55 2.78c2.56-2.31 5.91-2.21 8.88-3.59 1.34-.62 2.43-1.81 3.66-2s3.67.32 5 .48a37.94 37.94 0 0 0-9.05 2.39z"/><path class="cls-1" d="M444.49 143.67a1.11 1.11 0 0 0-.64 1.71 10.93 10.93 0 0 0 .64-1.71zm1.92-2.99c.15.36 0 .58.43.86q.23-.8-.43-.86zm5.67-6.41c-.07-.43-.25-.43-.53 0q.64.64.53 0zm24.05 39.87q-.48-.35-.11.43.61-.31.11-.43zm-50.88 33.45a2.7 2.7 0 0 0-1.71 1.93 11.62 11.62 0 0 0 1.71-1.93zm1.75-1.07c.5 0-.64-1-.64.43.58.17.57-.43.64-.43zm-1.59 1.04a.74.74 0 0 1-.16 0 .37.37 0 0 0 .16 0zm.27-.19a.33.33 0 0 0-.27.19c.16-.03.27-.08.27-.19zM438.72 196a.19.19 0 0 0 .21-.21c-.29.21-.35.21-.21.21zm2.99-2.41c-.14-.07-.21 0-.21.11.28 0 .35-.04.21-.11zm-11.12-34.53c-.43.43-.29.57.43.43.14-.71-.02-.85-.43-.43zM450 137.69l-.43-.43a.38.38 0 0 0 .43.43z"/><path class="cls-1" d="M426.11 206.95q-.5-.16-.43.43c.59.14.25-.17.43-.43zm12.82-11.12a.19.19 0 0 0 .21-.21.19.19 0 0 0-.21.21zm.22-.21a.19.19 0 0 0 .21-.21c-.14-.15-.21-.08-.21.21zm-22.45 20.74c-.29-.29-.43-.15-.43.43.57-.01.73-.15.43-.43zm-11.86 13.57c-.13.68-.79 1.3-.32 2.24 0-1.31 1.4.1 0-1.28a1.6 1.6 0 0 0 1.07-1.5zm.96-1.07l-.21.53c.54 0 .25-.55.21-.53zm-2.57 3.63c-.14-.07-.21 0-.21.32.29-.14.36-.25.21-.32zm3.42-3.74c0-.1.1-.2.15-.3a1.11 1.11 0 0 0-.15.3zm-10.15 10.8a.87.87 0 0 0-.11 1.39 14.05 14.05 0 0 1 1.5-2.78 6.28 6.28 0 0 0-1.39 1.39zm21.06-23.73c.14.07.14 0 0-.32-.15.14-.15.25 0 .32zM421 212c.14.07.21 0 .21-.32-.31.11-.38.22-.21.32zm-6.76 7.56q.4-.07.54.43a1.58 1.58 0 0 0 0-1.28 3.27 3.27 0 0 0-1.28 1.28zm2.03-2.78c-.37.62-1.7.9-1.5 1.92a2.69 2.69 0 0 0 1.5-1.92zm26.3-72.25a.19.19 0 0 0 .21-.21c-.29.14-.36.21-.21.21zm-13.47 59.85q.65 0 .43-.64c-.25.08-2 .78-1.28 1.5-.01-.03.75-.86.85-.86zm-2.1 7.06c-.29.14-.36.25-.21.32s.21-.04.21-.32zm-.89 1.28q.43-.32 0-.64-.43.32 0 .64zm1.28-1.92l-.43.64c.43 0 1.21-.44.43-.64zm2.61-2.14a.92.92 0 0 0-1.07.86 1.26 1.26 0 0 0 1.07-.86zm5.08-4.38c0-.5-.07-.46-.21.1.13.43.21.39.21-.1zm-21.59 21.05c-.22.21-.58-.2-.43.43.63.15.22-.21.43-.43zm.65 64.56q.21.64.32 0t-.32 0zm7.86-73.11c0-.08.5-1-.21-.64zm20.35 4.28l-.43-.43a.38.38 0 0 0 .43.43zm-23.94-.86c0-.57-.07-.57-.21 0 .14.57.21.57.21 0zm18.81-18.38h-.64v.43c.77.21.42-.25.64-.43zm6.63-59.43a2.86 2.86 0 0 0-1.07 1.92c.77-1.29 2-2.22 2.56-3.63a13.46 13.46 0 0 1-1.49 1.71zm51.94 22.45c-.29-.28-.43-.21-.43.21.57.14.72.07.43-.21zm-37.19 16.67h.06-.06zm.21-.32c-.14-.07-.21 0-.21.32.28-.15.4-.25.21-.32zM440 199.47c0-.57-.07-.57-.21 0 .14.53.21.53.21 0zm11.33-64.14l-.64-.64c-.21.85.19.43.64.64zm-1.82.86a1.82 1.82 0 0 0 .54-1.07c-2.15 1.34-3.39 3.46-4.7 5.56 1.18-.59 2.91-4.77 4.28-3.42-.3-.57-.33-.92-.12-1.07zm-6.3 61.35c-.2-.1-1 .64-1.5.64v.64c.78.01 2.65-.12 1.5-1.28zm-29.07 27.69q1.29.91.21-.75zm.86 64.23l.43-.86H415zm18.59-89.35c-.29 0-.5.21-.64.64.14 0 .35-.21.64-.64zm-90.71 26.98A95.29 95.29 0 0 0 283.41 192c-3.35-.57-6.06.1-9.47.82a95.15 95.15 0 0 0-69.89 61.81c-5.55 16.07-7.32 33.74-6.94 50.69.15 6.65.86 14.29 5.17 19.69 5.58 7 16.25 7.74 24.43 9 38.84 6.13 80.45 6.48 119-1.9 10-2.18 16.32-7.72 17.8-18.09 1.31-9.17.93-19.08.2-28.28-1.63-20.91-7.64-41.98-20.83-58.65zm14.38 74c-.14 6.26 1 15.92-4.22 20.61-5.59 5.05-16.37 5.11-23.35 6.12a342.91 342.91 0 0 1-52 3.48c-20.06-.17-40.82-1.57-60.44-6-6.82-1.53-11-4.63-12.39-11.71-1.48-7.33-.74-15-.36-22.41.91-17.52 4.43-35.26 13.38-50.57a88 88 0 0 1 36-33.55c7.52-3.81 17.13-7.74 25.82-8.36 7.33-.53 16.84 3.31 23.33 6.12a88 88 0 0 1 41.49 37c9.96 17.82 13.16 39.18 12.73 59.31z"/><path class="cls-1" d="M230.78 252.84a17 17 0 0 1-8.38 2.32c-1.84.1-2.16-.42-2.66.89-.4 1.06-.37 6.85.29 7.35s3 0 3.81 0h6c2.21 0 1.78-.41 2.25 1.14.58 1.93 0 5 0 7v31.31c0 .63-.45 3.74 0 4.2.76.78 6.42 0 7.51 0s4.48.49 5.06-.24c.46-.57 0-3.4 0-4.11v-51.14c0-1.29.62-4.55 0-5.71s-3.34-.61-5-.61c-.78 0-3.58-.5-4.22 0s-.93 3.22-1.36 4a9.74 9.74 0 0 1-3.3 3.6zm40.38 40.29c6.69-10.22 19.5-14.46 20.82-28.17.68-7.05-1.22-14.66-8.15-17.85-6.24-2.88-15.64-2.82-21.74.49-5.39 2.93-8.73 10.28-7.71 16.37.33 2 0 1.53 2.2 1.53h7.31c3.38 0 2.36-.18 2.7-3.88s1.58-7.51 5.71-8.1c7.88-1.13 8.25 8.8 6.51 14.14-1.68 5.13-7 8.75-10.8 12.34-7.89 7.44-13.62 15.86-13.62 27.07h30.13c1.41 0 6.39.85 7.56 0s.38-5.64.38-7.24c0-3.19-.22-2.54-3.34-2.54h-20a14 14 0 0 1 2.04-4.16zm57.28-18.82c3.35-1.92 6.47-3.2 8-7.35a18.47 18.47 0 0 0 0-11.46c-2.3-7.64-9.95-10.27-17.29-10.27-7.08 0-14.66 2.44-17.13 9.73a19 19 0 0 0-.24 12c1.6 4.39 4.83 5.18 8.11 7.35-9.4 1.88-11.51 12.27-10 20.43 1.8 9.54 10.3 13.28 19.22 13.28 8.52 0 17-3.4 19.08-12.49 1.97-8.28-.1-19.28-9.75-21.22zm-9.26-20.87c8.59 0 8.4 17.11 0 17.11s-8.59-17.1.01-17.1zm6.82 40.13c-.76 4.86-5.57 8.44-10.35 5.67-4.33-2.51-4.13-9.78-3.36-14 .87-4.79 5.53-8.42 10.35-5.63 4.44 2.54 4.06 9.71 3.36 13.96z"/></g></g></svg>