<svg xmlns="http://www.w3.org/2000/svg" viewBox="0 0 129.34 112.64"><defs><style>.cls-1{fill:#304827}</style></defs><title>category__historic</title><g id="Layer_2" data-name="Layer 2"><g id="Layer_1-2" data-name="Layer 1"><path class="cls-1" d="M49.12 111.62s-.42-.1 0 0zm13.61-1.31s0-.16 0 0zm-2.93-.03a.33.33 0 0 0 .18-.05c-.46-.03-.5-.12-.18.05zm50.01.37s-.12 0 0 0zm12.38.92h1.4a2.28 2.28 0 0 0-1.4 0zM84.11 111h.16c.08-.06-.1 0-.16 0zm38.08.57h-1.51a2.49 2.49 0 0 0 1.51 0zm-80.88-1.32c.66 0-.51-.27 0 0zm-1.73-.01h.12c-.18-.06-.44-.07-.12 0zm-.58-.05c.26 0 .07 0 0 0zm12.29 1.43s0-.16 0 0z"/><path class="cls-1" d="M117 111.07c1.56 0 5.42-.08 5.42-.21-.09-.32-1.4-.35-2.68-.3a1.13 1.13 0 0 0 .4-.07c0-.17-.75 0-.87 0a1 1 0 0 0 .41.11c-1.15 0-2.27.16-2.48.16-1.07 0-2.17.13-3.24.09-.35 0-1.61 0-1.21-.11-1.6 0-5.15-.19-5.62-.19.32 0 .72-.12 1-.12-8.65 0-17.3-.44-26-.4-2.29 0-4.63.06-7 .12h.16a3.26 3.26 0 0 1-.38 0c-3.94.1-7.88.21-11.61.21-2.2 0-3.63 0-5.77.12-.69 0-4.82.57-5.14-.15 0-.35 1 .2 1-.21a71.55 71.55 0 0 0-8.49.1s-.07 0-.3.11c-.39 0-.14-.07.08-.11-1.35.06-2.7.1-4 .07h-1.13.08-.2c-4.16-.11-8.31-.33-12.47-.5-9-.37-18.19-.52-27.11 1.25-.08 0 .75.86.89.92.89.42 2-.16 2.82.32-1.06 0 .3.29.65.34a12.36 12.36 0 0 0 2.79-.06 48.53 48.53 0 0 0 4.86-.65l-1.79-.09c4.13 0 8.22-.63 12.36-.29a63.34 63.34 0 0 0 11.13 0c-.37 0 1.6-.53 2.06-.55a30.08 30.08 0 0 1 3.74.19c2.87.23 5.75.12 8.62.11l-.54.06c.26 0 .55.09.81.09 6.75 0 15.42.17 22.81.15H72a.38.38 0 0 0 0 .06v-.06c5.6 0 11.21.06 16.81.11l8.94.08h4.47c.35 0 3.87-.07 3-.08 1.9 0 10.74-.09 15.43-.13a.63.63 0 0 1-.18-.12c.61-.09 1.4-.26 2.27-.42-1.88-.02-3.8.04-5.74.05zM5.72 112a2.47 2.47 0 0 1 .81 0 5.11 5.11 0 0 1-.81 0zm1.08 0a.36.36 0 0 0-.16-.06c.2.06.91.06.17.06zm.43-.06a2.67 2.67 0 0 1 1.63-.09c-.53.02-1.08.15-1.62.15zm2-.18c0-.09 0 0 0 0zm.54 0c-.55 0 .66-.37 0 0zm18.66-.28c0-.25.25-.07 0 0zm1.85 0c0-.14 0-.07 0 0zm1.19 0h-.92c.02-.88 1.08.04.94.02zm14.27-1.19v-.09q.12.08.01.11zm1.41 0a2.27 2.27 0 0 1 1.35-.09 5 5 0 0 1-1.34.08zm3.47 0h-.87c0-.17 1 0 1 0zm28.86-.19h.32-.54a.4.4 0 0 0 .23-.04zm-.49 0s.05 0 .05.06-.04 0-.04-.1zm5.15 1c-.08 0-.08 0 0 0a12.29 12.29 0 0 1-3.15-.09c1.39-.1 2.78-.23 4.17-.23a3.08 3.08 0 0 1-.86.29zm1.19 0c-.29 0-.14 0 0 0zm.11-.24v-.09q.12.03.02.06zm.27.21s-.06 0-.06-.06.11-.06.08-.01zm-.06-.34a.31.31 0 0 1 .27 0 .3.3 0 0 1-.25-.02zm.33.46c-.18-.2.59-.34 0 0zm.16-.52a2.44 2.44 0 0 1 .59.18 3.46 3.46 0 0 1-.57-.2zm.76.46c.07 0 .27 0 0 0zm.76-.37v-.09q.13.04.02.07zm.92-.64h.16c.04 0-.08-.02-.14-.02zm23.92.92c-.45-.25.62 0 0 0zm1.57.33q-.11-.06 0-.09c.03.04.08.04.03.07zm1.19 0q-.11-.06 0-.09zm1.57 0c-.3-.16.46 0 0 0zm5.93-.32c.58 0 1.15 0 1.73.07 1.22.08 3.78.81 4.85 0-1.46-.89-4.29-.49-6.58-.07zm-47.5-.92z"/><path class="cls-1" d="M44.85 110.2h.22s-.07-.01-.22 0zm67.93.51c.47 0 .78-.05.78-.13a6.54 6.54 0 0 0-.78.13zm8.86-.31a1.81 1.81 0 0 0-.87 0 .71.71 0 0 0 .38.12.39.39 0 0 0 .49-.12zm-6.08.12c1.25 0-1.24-.24 0 0zm3.74-.03c-.72-.22-.27.16 0 0zm-75.07.92h-.05c.05-.03.05 0 .05 0zm33.42-1.59c.33 0 .33-.1 0 0zm40.41 1.92a.68.68 0 0 0-.38 0 .39.39 0 0 0 .38 0zm4.94-1.28c.15.09.13-.05 0 0zm-52.4 1.25a.3.3 0 0 0 .27 0 .31.31 0 0 0-.27 0zm47.35-1.28c0 .13 0 0 0 0zm-46.81 1.28s.19.08 0 0zm39.86.03s.17 0 0 0zm-53.91-1.55c.26 0 0-.12 0 0zM31.56 45.81c-.16-.18-.06 0 0 0zm39.97 28.8s.01.04 0 0zm21.2-55.76l-.1-.21a.42.42 0 0 0 .1.21zm-1.02 35.98c.63-.76-.12.09 0 0zM71.18 68.59l.1-.06c-.28-.02-.28.01-.1.06zM85 61.73l.21-.18c-.01 0-.08.06-.21.18zM78.64 69z"/><path class="cls-1" d="M38 60.83a37.93 37.93 0 0 0 9.39 7.55c2.46 1.4 6.12 3.72 9.1 3.19-.54.92.82 3.51 1.11 4.42.8 2.56 1.46 5.18 2.16 7.77 1.64 6.13 3.52 12.21 4.95 18.4 1.47-4.77 2.48-9.66 3.7-14.5 1-3.79 2.26-7.53 2.89-11.4.09-.58.18-1.12.28-1.61 0 0-.08-.16 0-.08.48-2.36 1.21-3.76 4.08-4.63 1.06-.32 2-.64 3-1a25.06 25.06 0 0 0 6.47-3.33c6.66-4.8 13.27-13 14.65-21.35a40 40 0 0 0 .22-4.74c0-.74.47-2.33 0-3-1.61-2.18-2.34 3-2.45 3.86-.89 6.94-4.65 15.68-10.37 19.26a.67.67 0 0 0 .54-.26c-.78.73-1.6 1.42-2.44 2.09.05 0 .09 0 .12.14a35.57 35.57 0 0 1-11.83 6 12.22 12.22 0 0 0-2.26.79s-.12 0-.1.07a3.26 3.26 0 0 0-1 .82 6.68 6.68 0 0 0-.71 1.65c-.08.18-.47 1.44-.21.45-.81.59-1.55 6.53-1.8 7.59q-.72 3-1.43 6c-.14.6-.91 3.39-.95 3.32a3.89 3.89 0 0 1-.16 1.26v-.26 1c0 .36-.22.6-.23.63a12 12 0 0 0-.24-1.62c-.41 1.94-.68-2.24-.48-1.46-.59-2.26-1.38-4.64-2.16-7 0-.07 0-.16-.07-.3l-.12-.47c.14-.27-.12-1-.19-1.28s-.15.27 0 .83c-.62-1.92-1.22-3.84-1.69-5.68.07.27.38.42.5.64.14 0-.4-1.16-.43-1.29.24.89-.42-1.05-.46-1.21.8 1.14-.11-.79-.23-1.25.49 1.86 0 0-.34-.58A2.79 2.79 0 0 0 57.24 69c-1.88-.85-4.09-.86-6-1.66l-.33-.14a28.61 28.61 0 0 1-8.8-5.62l-.36-.34c-.7-.65-1.53-1.45-2.38-2.33a.77.77 0 0 0-.32-.35 30 30 0 0 1-4-5c-.17-.28-.31-.55-.47-.83-.28.5-.12 0 0 0-.22-.38-.44-.76-.64-1.14a.92.92 0 0 1-.08-.16l.06.11c-.3-.57-.57-1.14-.84-1.72a.29.29 0 0 1 0 .07.27.27 0 0 1-.12-.28 38.66 38.66 0 0 1-1.62-4.2 24 24 0 0 1-1-5h.1c.1 0-.09-.05-.1 0-.11-1.1-.17-2.16-.22-3.16-.53.41-.17-1.53-.14-2.05.06-1.12.1-2.26.21-3.38a25.67 25.67 0 0 1 .67-3.82c-.17-.1-.19-.26 0-.46l.24-.54c0 .11 0 .21-.07.31.26-.94.57-1.86.92-2.77a.17.17 0 0 0 0-.07 39.71 39.71 0 0 1 1.87-4.12A40.91 40.91 0 0 1 37.24 15a22.06 22.06 0 0 1 2.84-3.2A55.69 55.69 0 0 1 44.76 8c1-.74 2.1-1.45 3.19-2.09q.79-.47 1.59-.89 1.16-.87.62-.06c.32-.15 1.85-1.07 1.44-.76 1 0 1.92-.7 2.86-1A19.65 19.65 0 0 1 58 2.36l1.28-.18h.16A35.21 35.21 0 0 1 65 1.85c4.35.13 9.42.88 13 3.55 0-.71.92.19 1.47.52.77.46 1.53 1 2.33 1.35a14.46 14.46 0 0 1 3.9 2.57 67.79 67.79 0 0 1 5.22 6.23.88.88 0 0 1 .37.52v-.2a12.11 12.11 0 0 1 1.3 2.25.49.49 0 0 1 0-.1c.19.31.16.37.11.32.73 1.67 1.23 3.44 2 5.12.85 1.94 2.79 3.51 3 5.67.09.91-.78 6.77 1.1 6.23s.17-6.53-.06-7.62a39.5 39.5 0 0 0-3.37-9.93C85.91-.18 61.72-5 44.66 5.79a35.37 35.37 0 0 0-12.12 12.79c-3.3 6-3.84 12.41-4.43 19.1-.42 4.07 1.38 8.29 2.82 12A35.88 35.88 0 0 0 38 60.83zm50.62 1.51c.29-.27-.05.11-.08.14s-.03-.09.03-.14zM82 64zm-5.2 3.71c.17 0 0 0 0 0zm-.85-.71h-.09c-.09 0 .14-.05.09 0zm-3.15 3.88s.02-.04-.01.01zm-1 2.06zm-.8 2.22a.28.28 0 0 1-.08.29.27.27 0 0 1 .08-.29zm-1.1 6s0-.16.02-.04zm-1.2-6.69c0 .13-.13.13 0 0zm-.61 6.64c0-.19 0 0 0 0zm0-.63c.23.06-.08.06-.11.05s.02-.07.08-.06zm-.19.89c.06 0 .06.18 0 0zm-1.8 12.81a.14.14 0 0 1-.05.2c0-.2 0-.2.05-.2zm-1.2-3.53v.18q-.08-.41 0-.17zm-.5-.65c0 .07 0 .14.06.05-.08.54-.06.11-.06-.05zm-.18 2.38a1 1 0 0 1 0-.67 1.45 1.45 0 0 1 0 .72zm0-1.6zm-.49-3.3zm-.21 1.35zm0 .08zm-.62-4.2l.06.22c-.07-.06-.19-.08-.09-.18zm-.42.58a1 1 0 0 1 .15.58.55.55 0 0 1-.18-.54zm-.58-2.19l.06.06q-.17.12-.09-.02zm-3.77-13.23l-.07.08c-.06-.06.03-.04.07-.08zm-7.18-2.45zm-2.21 1.13c0 .16 0 0 0 0zm-1.47-.75h-.07zM33.66 51.58c-.09-.11 0-.17 0 0zm-2-5.1s0 .09-.09 0zm62.15-30.22c.07.11-.11.08 0 0zM93 19.14c-.07.11-.08.05 0 0zm-.42-4.23l-.09-.12zm-1.74-2.6s-.59-.19 0 0zm-1.44-.09c.27.3 0 .16 0 0zm-5-4.45v-.12q.21.16.02.11zm0-.16v.08c0 .08-.05-.1.04-.09zm-1-.67q.11.12 0 .08c.09-.02.02-.02.05-.09zm-.4-.2zm-.66-.66v.08c0 .08-.04-.08.05-.08zM81.85 6c.24.14.42.27.23.35 0-.03-.61-.62-.23-.35zM77.2 4.57h-.09c-.09 0 .07.04.09 0zM48.55 5a.34.34 0 0 0 .16 0c-.1.07-.22.23-.16 0zm-.94.78h.15c.06 0-.48.22-.15.04zm-3.84 2.76q-.06.09-.09 0s.03.05.09 0zm-6.37 3.79c-.14.16 0 0 0 0zM35 17.8c.06-.1.11.07 0 0zm-2.53 4.79c0 .1-.06.47-.09.12.07-.07.12-.05.14-.12zm-.21.56zm-2 6.94c0 .18-.05.33 0 0z"/><path class="cls-1" d="M64.91 89.43v-.29a.91.91 0 0 0 0 .29zM91.3 16.58c0 .28 0 .21 0 0zM60.73 77.19c.06.06 0 0 0-.08v.08zm-9.85-10s.01 0 0 0zM33 49.62l.09.18a.27.27 0 0 0-.09-.18zm-2.12-6.49c0-.06-.12 0 0 0zm.01-15.08c.06-.24.1-.47.15-.71l-.18.69zM59.27 2.19h.2-.16zM31.23 44.9c.08.46.16.6 0 0zm45.69 24.78c.08-.02 0 0 0 0zM34.56 52.71zm-.67-1.19zm63.62-22.24c.13 0 .09 0 0 0zM66 94.39c0-.1 0-.21 0 0zM48.28 65.8c.05-.09-.36-.32-.41-.32-.4-.22.23.64.41.32zm.8.38a.36.36 0 0 0-.45-.25s.23.26.45.25zM32.79 48.77a.49.49 0 0 0-.07-.29q-.23.16.07.29zM74.45 3.82c0-.09-.64-.25 0 0zm-4.4 64.82a.32.32 0 0 0-.22.44s.17-.44.22-.44zm5.63-1.73c.33-.11-.08 0-.15 0s.09.02.15 0zm-16.81 3.23v.23c.13.5.01-.17 0-.23zM69.1 88c.08-.13 0-.14 0-.14s-.01.02 0 .14zm-1.34 5.27c0 .07.07-.08 0 0zm1.32-6.43q-.08.16 0 0zM30.17 34.37v-.08c-.09.08-.09.15 0 .08zm.14-2.84v-.08c-.05.08-.05.08 0 .08zm66.92-2.64zM72.92 3.34h.07s.01-.03-.07 0zm1.91.66l.1-.06c-.07.06-.08.06-.1.06zm8.59 4.43s.08 0 .05-.08-.03.05-.05.08zM65.29 87.57s-.01.03 0 0zm-.55 2.61v-.17c0-.17-.01-.01 0 .17zm-.05.19a.33.33 0 0 1 0-.18zm0 0zM61 77.67s0 .08 0 0zM35.37 53.88c0-.09 0-.06-.08-.12zm-.2-.4s0 .09 0 0zM32.88 49c0-.09-.1-.25 0 0zm48.29-15.27c0 .13 0 .06 0 0zm-1.63-3.78h.17q-.17-.09-.17 0zm-29.87 1.13s0 .05 0 0z"/><path class="cls-1" d="M79.63 37.4c1.72-1.4 3.75-2.51 5.37-4.1 2.8-2.8 1.85-4.85-1.82-5.4-3.18-.48-6.52.26-9.66-.41-3.93-.85-3.93-6.22-5.28-9.37-.55-1.27-1.28-3.32-2.64-4-2-.94-3.4 1.34-4.15 2.87a34.42 34.42 0 0 0-1.89 5.81c-.5 1.8-.65 4.21-2.57 5C53.11 29.36 48 26 44.5 28.87s3.15 6 4.88 7.57c1.14 1.05 3.48 3.24 5.22 3.31s.93-1.33.2-2.25a26.11 26.11 0 0 0-4-3.8c-.57-.47-2.76-1.9-2.78-2.05a.44.44 0 0 0-.29-.15.26.26 0 0 1 .12 0h-.06c1.66.36-.1 0 .19-.13l.52.2a.71.71 0 0 0-.38-.19c1.67-.48 3.8-.17 5.6-.28h.39c.87-.09 3.77-.9 4.55-.17-1 0 .57.07.95-.06s.48-.93.92-.41c.11-.31.32-1.09.59-2.1.05-.16.09-.26 0 0 .88-3.33 2.36-9.18 2.6-9.19a.64.64 0 0 1 .22.34c-.06-.26.28-1.89.73-1.73s.5.77.64 1.08a.34.34 0 0 1-.15-.08c.9 1.93 1.63 5.61 3.07 7.07a2.58 2.58 0 0 0-.38-.27c-.12 0 .33.67.34.71-.22-.64.4 1 .22.51l.23.71v-.4a9.61 9.61 0 0 0 .62 1.55 2.68 2.68 0 0 0 2.17 1.14 9.27 9.27 0 0 0 1.83.11 35 35 0 0 1 4.74-.16 15.59 15.59 0 0 0 2.45.23.1.1 0 0 0 0 .08.33.33 0 0 0 0-.08h.18c.52 0 2.46-.17 2.26.14 1.51-.56 1 .82.49 1.68h.15-.15a3.22 3.22 0 0 1-.38.54 13.12 13.12 0 0 1-1.6 1.33s.06 0 .05.07l-.05-.07c-.37.28-.74.55-1.09.86-1.66 1.45-3.44 2.5-5.18 3.86-2.2 1.71-1.53 3.22-.53 5.57.92 2.18 1 5.37 2.36 7.24-.68-.35 0 1.74.09 2s-4.87-1.77-4.49-1.85a.45.45 0 0 1 .29 0c-2.13-1.75-4.74-4.35-7.48-5.59s-4.73 2.3-7.07 3c.78.67-3.82 2.32-3.81 2.24q-.13.5-.53.34c-.13-.16.41-.79.23-.79 1.83-.94 1-4.75 1.32-6.34v-.15c0-.05.08 0 0 0 .29-1 1.78-3.8.65-3.81-1.72 0-3.16 6.2-3.74 7.61S50 53.29 52 54.53c2.41 1.49 6.87-2.88 8.63-4.22.82-.63 2.53-2.51 3.61-2.56s1.56.89 2.36 1.57c1.56 1.31 10.81 8.82 12.22 4.94C79.25 52.94 76.79 40 76 40c1.19.16 2.82-1.93 3.63-2.6zm-31.51-5.6c.12 0 0 0 0 0zm-2.94-2.85c-.32.08 0 0 .05-.06s0 .04-.05.06zm7.48-.71c0-.12.07-.08 0 0zm3.58-.1s-.04.04 0 0zm1.61-.14zm.37-.23c.05.05.09.16 0 0zm.35.1q-.06-.1 0-.11t.01.12zm.61-3.05zm0 .22zm1.31 4.75c0-.18.1-.05 0 0zm.44-4.66c0 .11 0 0 0 0zm.16.38h-.1c-.23-.05.07 0 .09.01zm.67-7.11c0-.14.08 0 0 0zm.53-2.24c-.1.2 0-.13 0-.17a.49.49 0 0 0-.01.18zm1.52 2.67v-.07c0-.07.07.1-.01.08zm.53-2c-.07 0-.2-.55 0 0zm.21.33c0-.37 0-.08 0 0zm.88 1.6s0-.08.06-.11-.05.11-.08.16zm.12-1.1q-.09.12 0-.09zm.39 2.16v-.09s.06.07-.02.14zm.42-.45c-.16-.43.09-.22 0 0zm.26 2.21zm.1-1.08q.13-.08.06 0zm.06 1.55h.06s-.06.08-.07.04zm.73 2V24l-.02.06zm2 3.94s0-.07.08 0-.02.01-.06.01zm3.73 1.7zm.9-1.91c0-.1 0 0 0 0zm9.79 3.44c.81-.2.13 0 0 0zm-9.85 9.94c.07.22-.21-.37-.26-.52.06.02.53.36.26.52zm-19.63 8.95zm0 0c0 .05-.18 0 0 0zm-.17.31c.06 0 0 0-.17.08zm-2.37.68q.08.1 0 .18-.13-.07-.01-.15zm-.14 3.07c.24-.17.28 0 0 0zm1.18-6c-.14-.25.06-.19 0 0zm.21 4.83s.24-.7 0 0zm2.63-1.18q0-.14.09 0a.1.1 0 0 0-.09.01zm.05 0h.05c-.02 0-.02 0-.05.03zm.53-.36v-.06q.13.14 0 .09zm.75-.29h.06l-.05.03zm.21-.31l-.19.13zm1.89-2.26v-.06.09zm6.93-.11v-.07zm3-.05c-.14-.14.05 0 .1 0a.15.15 0 0 0-.13.03zm5.07 4.19a.25.25 0 0 0-.06-.1c.03.07.13.03.04.13zm.55.07s0-.08-.07-.1.16.19.05.13zm1.46.73v.07zm.58-.21s.07 0 .09.06-.08-.06-.11-.04zm1.39-3.4v.07c0 .01-.13-.07-.02-.06zM75.82 47a.1.1 0 0 1-.05-.17.1.1 0 0 1 .05.17zM64.34 18.22c0-.33 0-.3 0 0zM53.79 31.06s-.03 0 0 0z"/><path class="cls-1" d="M73.34 29.88v-.06s-.03.03 0 .06zm-4.65-2.46c.06.34.21.66 0 0zm14.26 4.89a.26.26 0 0 1-.11 0c-.11.13.11 0 .11 0zm-35.08-.84c.49.3.25 0 0 0zm8.55-.68q.16.12 0 0zm27.1.91zm-1.99 1.86h.01-.01zm-27.82-5.39zm26.17 6.53s.08.1 0 0zm-6.02 4.79l.07-.08zM80.85 34c-.27.21 0 0 0 0zm-5.46-3.92c-.32 0-.23.12 0 0zm-.52-.08c-.34 0-.31.16 0 0zm-.35 0c-.16-.16-.37-.07 0 0zm7.83 2.69v-.11c-.21.03-.13.03 0 .11zm-3.73 2.95c0 .11.11.14 0 0zM56.81 31a.1.1 0 0 0 .19 0 .11.11 0 0 0-.19 0zm-2.97.29a.16.16 0 0 1 .13 0c-.17-.05-.13-.2-.13 0zm15-3.46v-.12c-.07-.22-.01.1 0 .12zm-9.35-7.01c-.06 0 0 0 0 0s.03.05 0 0zm16.24 16.95v.06c.06.01.09-.01 0-.06zm-1.33 1.11v.06s.03-.03 0-.06zm-18.59 5.37zm4.41 3.29v.1c0 .1.03-.06 0-.1zM60 30.87h.15zm1.31-3.05c.02-.04.02-.04 0 0zm2.18-6.96h.06s-.04-.04-.06 0zm.59-1.96v.06s.04-.01 0-.06zm.08-.06v-.05zm5.11 10.24c0 .08.19-.17 0 0zm.22.47v.11s.05-.1 0-.11zm.13.39v-.11c-.05.1-.02.05 0 .11zm1.2.13v-.09c-.05.02.01.02 0 .09zm10.4-.07zm-3.08 6.1s.01-.1 0 0zm4.28-3.59c-.12 0 0 0 0 0z"/></g></g></svg>