<svg xmlns="http://www.w3.org/2000/svg" viewBox="0 0 307.41 88.47"><title>iconic__title</title><g data-name="Overlay Text" fill="#fff"><path d="M63.05 18.09c-.12.12-.14.23 0 .31s.07.2 0 .31a.62.62 0 0 0-.45-.18q-.27 0-.27-.36a.67.67 0 0 1-.5.18.38.38 0 0 0-.4.27q-1.89-.36-3.78-.67a7.62 7.62 0 0 0-3.42.13c0 .12.15.18.45.18s.39-.09.27-.27a.9.9 0 0 0 .94.4 2 2 0 0 1 1.22.14c.06 0 .09-.12.09-.36a.44.44 0 0 1 .4.22q.14.23.41 0a1.75 1.75 0 0 0 1.48.22 2.3 2.3 0 0 1 1.75.31.29.29 0 0 1-.36.09.45.45 0 0 0-.45.09c.12-.18 0-.28-.4-.31s-.62 0-.67.23a1.09 1.09 0 0 1-.5-.18q-.32-.18-.41.18a3.5 3.5 0 0 0-.36-.31.25.25 0 0 0-.36 0 .16.16 0 0 1-.18-.18c-.12 0-.18.08-.18.23s-.09.2-.27.13q.18-.18-.5-.31a1.27 1.27 0 0 0-1 .14q-.36 0-.09-.27a2.32 2.32 0 0 1-1.53-.14.81.81 0 0 0-1.08.23 3.84 3.84 0 0 0-.94-.18 4.84 4.84 0 0 1-1-.18c-.12.3-.21.36-.27.18s-.12-.12-.18.18a1.1 1.1 0 0 0-.58-.27.91.91 0 0 1-.5-.18.36.36 0 0 0 .09.27 2.42 2.42 0 0 1-1.21 0 2.68 2.68 0 0 0-1.4.13.52.52 0 0 0-.18-.36 1 1 0 0 1-.36-.54 4 4 0 0 1-1.62 0c-.66-.09-1.08 0-1.26.23a13.47 13.47 0 0 0 1.67.09 5.85 5.85 0 0 1 1.57.18.67.67 0 0 1-.76.5 1.26 1.26 0 0 1-.77-.23 18.9 18.9 0 0 1-4.41.4 25 25 0 0 0-4.86.41 1.73 1.73 0 0 1 .31.45 1.16 1.16 0 0 0 .41.45 3.41 3.41 0 0 1-.5 2.29 10.34 10.34 0 0 0-1 1.67 4 4 0 0 1-.45 1.8q-.45.9-.9 1.62a2.6 2.6 0 0 1-.4 1.44 3 3 0 0 0-.41 1.62q-.18.18-.27 0a2.6 2.6 0 0 1-.9 2.16q.09.18.14.09c0-.06.1 0 .23.09-.18.06-.21.27-.09.63a.72.72 0 0 0-.45.09.62.62 0 0 1 0 .4.25.25 0 0 0 .13.31c0 .18-.15.27-.45.27v-.09.09a1.22 1.22 0 0 0-.18.32 2.12 2.12 0 0 0 .18.4 11.18 11.18 0 0 1-.45 1.13 1.9 1.9 0 0 0-.18 1.13.61.61 0 0 0-.45.18 6.26 6.26 0 0 1-.45 2.25 4 4 0 0 0-.27 2.16l-.18.18-.27-.09q-.18.36 0 .54c.12.12.12.27 0 .45 0-.06-.06-.15-.18-.27-.12.18-.06.27.18.27a6.15 6.15 0 0 0-.27.81.57.57 0 0 1-.36.45v1a.73.73 0 0 1-.4.63.86.86 0 0 1-.31-.27c-.09-.12-.26-.12-.5 0q-.09-.18-.14-.09c0 .06 0 .09.14.09-.18.12-.12.24.18.36-.18.18-.06.33.36.45a.26.26 0 0 0 .13-.31q0-.22.41-.13c-.18.12-.26.21-.23.27a1.34 1.34 0 0 1 0 .45c-.36.06-.48.26-.36.58a.46.46 0 0 1-.27.68c0 .12 0 .18.09.18s.12.06.18.18a3.06 3.06 0 0 0-.5 1.44 3.07 3.07 0 0 1-.5 1.44q.36.18.14.41a1.64 1.64 0 0 1-.41.31c0 .12.09.17.27.13s.21 0 .09.23a1.11 1.11 0 0 0-.9.72c.18.06.3 0 .36 0a.4.4 0 0 1 .36-.14 2.12 2.12 0 0 0-.27.9 1.61 1.61 0 0 1-.27.81.16.16 0 0 1-.18-.18 2.87 2.87 0 0 0-.58 1.4 12.27 12.27 0 0 1-.27 1.44q.45-.18.31-.58a1 1 0 0 1 .14-.85 1.64 1.64 0 0 1 .13 1.17q-.13.72-.31 1.48t-.41 1.49a1.5 1.5 0 0 0 0 1.08.41.41 0 0 1-.23.22.41.41 0 0 0-.22.23h-.36a1 1 0 0 0 .27.18c.12.06.15 0 .09-.18a.27.27 0 0 1 .18.09.54.54 0 0 1-.09.5.88.88 0 0 0-.09.68h-.36a.94.94 0 0 1-.13.49.76.76 0 0 0 0 .58c.12-.06.16-.18.13-.36s0-.3.14-.36a7.67 7.67 0 0 1-.09 2.56 16.71 16.71 0 0 1-.72 2.92c-.12 0-.2 0-.23-.09s-.11-.06-.23 0-.09.16.09.14.21 0 .09.22c.06.18.12.19.18 0s.15-.17.27 0a1 1 0 0 0-.13.85c.09.27-.08.46-.5.58a1 1 0 0 0 .36.45 2.06 2.06 0 0 0-.35 1.3 1.72 1.72 0 0 1-.22 1.13 2.92 2.92 0 0 1-.14 1.64 4.12 4.12 0 0 0-.09 2c.18 0 .27 0 .27.09a52.6 52.6 0 0 1 6.08-.81 28.81 28.81 0 0 1 6.07.09 19.4 19.4 0 0 1 5.49.58 6.58 6.58 0 0 1 4 2.66.23.23 0 0 1-.09.31c-.12.09-.09.19.09.31a2.41 2.41 0 0 1-.9-.18c-.3-.12-.63-.24-1-.36-.12 0-.11.07 0 .23s.07.19-.23.13c-.12-.18-.12-.33 0-.45a1.37 1.37 0 0 0-1-.45c.12-.18.24-.24.36-.18q-.45-.36-.58-.14c-.09.15-.29.23-.58.23a.36.36 0 0 1 .09-.27 1.1 1.1 0 0 0 .18-.27c-.18-.12-.27-.11-.27 0s-.09.19-.27.14c-.12-.36-.29-.53-.5-.5a1.15 1.15 0 0 1-.67-.14 4.25 4.25 0 0 0-.54.63.64.64 0 0 0-.72-.36.65.65 0 0 1-.72-.36c-.12.06-.12.12 0 .18s.12.18 0 .36a.49.49 0 0 1-.18-.31c0-.09-.06-.17-.18-.23a.16.16 0 0 0-.18.18.18.18 0 0 0-.14 0 .19.19 0 0 1-.13 0c-.24.06-.36 0-.36-.27q-.18 0-.14.09a.15.15 0 0 1 0 .18c-.12 0-.17 0-.13-.09s0-.09-.14-.09a.16.16 0 0 0-.18-.18q-.18 0-.09.13c.06.09.15.1.27 0-.06.3-.15.37-.27.23a1.13 1.13 0 0 0-.36-.31q-.36.18-.27.45c-.06-.18-.24-.3-.54-.36a4.18 4.18 0 0 0-.81-.09q-1.26 0-2.75.14t-2.74.31c-.24 0-.3.09-.18.27a.56.56 0 0 0-.85-.23 4.21 4.21 0 0 0-.68.5c-.3 0-.45-.09-.45-.27a.62.62 0 0 1-.85.22q-.59-.23-.68.32-1-.36-1.26.27c-.06.12 0 .15.18.09s.21 0 .09.18q.45-.54.9-.4a2.26 2.26 0 0 0 1.17 0 .24.24 0 0 1-.27.27c0 .06.09.09.27.09s.09-.15.09-.45c.12 0 .16 0 .13.13s0 .16.14.23.13-.11 0-.14-.11-.11 0-.22a2.25 2.25 0 0 0 1-.18 1.86 1.86 0 0 1 1.17 0 .08.08 0 0 1-.09.09c-.06 0-.06.06 0 .18a11.76 11.76 0 0 1 1.94-.18 13.7 13.7 0 0 0 2-.18v-.36c.12 0 .16.06.13.18a.27.27 0 0 0 0 .27 2.94 2.94 0 0 1 1.35 0 4.06 4.06 0 0 0 1.35 0c.06-.12 0-.2 0-.23a.41.41 0 0 0-.27 0 .42.42 0 0 1-.27 0c-.09 0-.11-.11 0-.23a.58.58 0 0 0 .58 0 1.28 1.28 0 0 1 .77 0 .46.46 0 0 1-.54.18 5.33 5.33 0 0 0 3.06 0 4.77 4.77 0 0 0 1.53.13 2 2 0 0 1 1.44.41 1.29 1.29 0 0 1-.76 0 1 1 0 0 0-.68 0 2.83 2.83 0 0 0 1 .36 4.64 4.64 0 0 1 1 .27c-.24.24-.54.23-.9 0a1 1 0 0 0-1.08-.14.47.47 0 0 0 .5.23q.31 0 .23.5a17.08 17.08 0 0 1-2.79 0 10.83 10.83 0 0 0-2.61 0c-.06-.12-.14-.18-.23-.18a.31.31 0 0 1-.23-.09 4.18 4.18 0 0 1-1.62.18 3.46 3.46 0 0 0-1.71.36.24.24 0 0 1-.27-.27 10.86 10.86 0 0 1-2.34.45q-1.17.09-2.29.23t-2.21.36a7.47 7.47 0 0 0-2.07.77c0 .12 0 .12.09 0s.15-.12.27 0q0 .45-.54.27l.27.27a1.1 1.1 0 0 0 .27.18 1.46 1.46 0 0 0 0 1.17.84.84 0 0 1-.23 1 .94.94 0 0 1 .09 1.17 1.52 1.52 0 0 0-.09 1.35c-.12.12-.21.15-.27.09s-.15 0-.27.09a.89.89 0 0 0 0 .45v.27a1.09 1.09 0 0 1-.27-.18.36.36 0 0 0-.27-.09c0-.12 0-.17.09-.14s.09 0 .09-.13a2.79 2.79 0 0 0-.68-.18q-.49-.09-.4-.63c-.12-.06-.19-.06-.23 0s-.1.09-.23.09a2.51 2.51 0 0 1-.73-1.27 3.88 3.88 0 0 1 0-1.17 8.32 8.32 0 0 1 .27-1.17 3.07 3.07 0 0 0 .09-1.3q-2 .45-3.82.9t-4.1.81c-.12.06-.18.12-.18.18s-.06.15-.18.27a3.72 3.72 0 0 0-1.26.23l-1.21.45a8.2 8.2 0 0 1-1.2.34 2.57 2.57 0 0 1-1.26 0c-.06.18 0 .28.09.31a1.69 1.69 0 0 1 .36.14 2.35 2.35 0 0 1-1.35.58 4.84 4.84 0 0 1-1.44 0c0-.12 0-.18.09-.18s.09-.06.09-.18a3.43 3.43 0 0 1-3-.81.69.69 0 0 1-.31-.5.84.84 0 0 0-.23-.5 3.59 3.59 0 0 1 1.36-3.49 1.53 1.53 0 0 0 1 0 3.07 3.07 0 0 1 1.4-.09.3.3 0 0 1 .23-.09c.09 0 .11-.06 0-.18a6.28 6.28 0 0 0 2.79-.49 4.93 4.93 0 0 1 2.61-.41c.12 0 .18 0 .18-.13a.31.31 0 0 1 .09-.23 24.75 24.75 0 0 0 4.36-.81 24.78 24.78 0 0 1 4.94-.81 17.1 17.1 0 0 0 .5-3.78 17.65 17.65 0 0 1 .5-4.05q.27-2.34.63-5a34.1 34.1 0 0 1 1.08-5.08 5.12 5.12 0 0 1-.09-1A1 1 0 0 1 22 58a32.88 32.88 0 0 1 1-5.81q.72-2.65 1.35-5.53a4.08 4.08 0 0 1 .31-1.12 11 11 0 0 0 .41-1q.18-.81.31-1.75t.31-1.85q.45-1.53.9-3.24a30.75 30.75 0 0 1 1.08-3.33 26.48 26.48 0 0 1 1.22-4.68q.76-2.07 1.48-4.59.18 0 .13-.14t.14-.13a9.18 9.18 0 0 1 .85-2.66 19.13 19.13 0 0 0 1-2.38q-1 .18-2.88.45a25 25 0 0 1-3.51.27.32.32 0 0 0-.36.36q-.54-.36-.81.09-3.15.45-6 1a30 30 0 0 0-5.76 1.71c-.18.06-.28 0-.31-.09a.21.21 0 0 0-.23-.18 3 3 0 0 1-1.53.31 3 3 0 0 0-1.53.31A1.38 1.38 0 0 1 8.78 23a4.17 4.17 0 0 1-.23-1.62A3.33 3.33 0 0 1 9 19.89a.86.86 0 0 1 .9-.54 3 3 0 0 1 1.4-.9 2.29 2.29 0 0 0 1.3-1q.36-.09.41.09c0 .12.13.12.31 0a.67.67 0 0 1 .18.5 1.13 1.13 0 0 0 .09.5q11.34-2.25 22.36-3.33a102.42 102.42 0 0 1 22.64.36.37.37 0 0 1 .27.09 1 1 0 0 0 .27.18 13.73 13.73 0 0 1 3.38.72q1.48.54 3 1.17c-.06.18 0 .29 0 .31a.42.42 0 0 1 .23.23.35.35 0 0 1 0 .23.35.35 0 0 0 0 .22.57.57 0 0 1-.45 0c-.18-.06-.24 0-.18.27a2.07 2.07 0 0 0-1.11-.27c0-.12 0-.18.09-.18a.08.08 0 0 0 .09-.09.37.37 0 0 0-.41 0 .37.37 0 0 1-.4 0c0-.24 0-.31.09-.23s.12.08.18 0a.74.74 0 0 0-.59-.13zM12 80.55a.24.24 0 0 0 .27-.27q-.34 0-.27.27zm.63-.27c-.24-.06-.3 0-.18.09s.18.09.18-.09h.23a.36.36 0 0 0 .22 0q.18-.18-.13-.23c-.19.06-.3.11-.3.23zm.63.36c-.12.18-.1.19 0 0s.2-.12.02 0zm0 .54h.63a.74.74 0 0 0 .45-.27.48.48 0 0 0-.54 0 1.51 1.51 0 0 0-.52.27zm.36-.45a1.88 1.88 0 0 1 .85-.18.9.9 0 0 0 .77-.36 2.26 2.26 0 0 1-.94.14.68.68 0 0 0-.66.4zm1.08.09c-.18 0-.27 0-.27.09.2 0 .29-.03.29-.09zm2.25-1c-.06.24.06.3.36.18s.48-.12.54 0a2.09 2.09 0 0 1-1.48.36 2.17 2.17 0 0 0-1.58.45q.72-.09 1.89-.18a3.56 3.56 0 0 0 1.8-.54 7.1 7.1 0 0 0-.72-.31 1.09 1.09 0 0 0-.76.05zm-1.44.36a.49.49 0 0 0 .45.14c.18 0 .27-.11.27-.23-.18.06-.3 0-.36 0s-.18-.11-.36 0zm2.52.54a.47.47 0 0 1 .4 0c.15.06.2 0 .14-.18a.46.46 0 0 0-.52.19zm.63-.54A.52.52 0 0 0 19 80q-.14-.08-.32.19zm1.17-3.6c.12.24.18.25.18 0s-.01-.17-.16.01zm.38-1.58q-.18 0-.14-.13v-.13a.39.39 0 0 0 0 .36c.02.08.08.05.14-.1zm0 .9a.14.14 0 0 0-.09-.14c-.06 0-.09 0-.09.14a.08.08 0 0 1 .09.09c0 .01.03.01.09-.12zm0-2q.36.09.27-.27a.54.54 0 0 1 .09-.54c-.3 0-.41.1-.31.31a.42.42 0 0 1-.05.49zm.18 5.76c-.12 0-.18 0-.18.09s.18-.04.18-.1zM20.3 77c.12.18.18.16.18 0s-.06-.29-.18 0zm.36-5.4c0 .06-.09.09-.27.09 0 .3.09.45.27.45a1.05 1.05 0 0 1 .09-.31c.06-.15 0-.23-.09-.23a.21.21 0 0 1 .14-.22c.09 0 .11-.11 0-.23s-.21 0-.27.18.01.22.13.22zm-.27 1c.12.18.18.16.18 0s-.06-.3-.18-.06zm.45 2.07c-.24 0-.33.06-.27.18s.27-.12.27-.24zm-.09-4.77c-.12.06-.18.23-.18.5a.81.81 0 0 0 .18.58c.06-.18.12-.38.18-.58a.41.41 0 0 0-.18-.5.29.29 0 0 1 .36-.09q-.36-.36 0-.9t-.27-.72q.18.45 0 .54t0 .54l-.18-.27a.82.82 0 0 0 .09.36.58.58 0 0 1 0 .48zm-.18 12.6c.06.24.09.24.09 0s-.03-.3-.09-.06zm.18-7.11a.73.73 0 0 0 .54-.18 2.15 2.15 0 0 1-.4 0c-.15-.14-.2-.06-.14.12zm.18 12c.06-.12.14-.18.23-.18s.11-.09 0-.27-.23 0-.31.13-.04.17.08.23zm.27-.72v-1.31a3.11 3.11 0 0 0-.13-1.21 8.18 8.18 0 0 1-.07 1.17 1.55 1.55 0 0 0 .2 1.26zm0-3a1 1 0 0 0 .09-.77 2.56 2.56 0 0 1 0-.94.63.63 0 0 0-.31.77c.09.27.16.58.22.88zm0-15.67a.87.87 0 0 0 .14-.45q0-.36-.14-.45a2 2 0 0 1-.09.41.47.47 0 0 0 .09.49zm.45 1.89c-.24 0-.36.06-.36.18s-.15.1-.09.13.09 0 .09-.13a.52.52 0 0 0 .36-.18.24.24 0 0 0 .27-.27c.12.06.18.06.18 0s.06-.09.18-.09v-.23h-.36v.27a.24.24 0 0 0-.27.27zm-.45-3.06a.8.8 0 0 0 .36-.81 1.24 1.24 0 0 1 .18-.9.64.64 0 0 0-.4.72 2.12 2.12 0 0 1-.14.94zm.09 6.93a.08.08 0 0 1 .09-.09c0-.18-.06-.27-.18-.27 0 .19.03.31.09.31zm.18 6.39c-.18 0-.27 0-.27.09.18-.05.27-.08.27-.14zm-.18-7q.09.27.09 0t-.09-.07zm0 6.21h.18v-.18h-.18zm.09.54c0-.12 0-.18.13-.18s.17-.06.23-.18h-.45c0 .17.03.29.09.29zm.36-2.9c-.24 0-.36 0-.36.09.24.04.36.01.36-.09zm-.27-12.15q.45-.18.36-.5a1.2 1.2 0 0 1 .09-.77c-.36.12-.48.29-.36.5a.73.73 0 0 1-.09.81zm.36 9.72a4.79 4.79 0 0 0-.27 1.08 3 3 0 0 0 .09 1.35 2.14 2.14 0 0 1 .13-1.12 1.86 1.86 0 0 0 0-1.22h.09a1 1 0 0 1 .09-.5c.06-.09 0-.2-.18-.31q-.4.4.05.76zm0-6.84a.14.14 0 0 0-.09-.14c-.06 0-.09 0-.09.14a.08.08 0 0 1 .09.09c0 .1.03.07.09-.05zm0 11.21c.15-.15.13-.17 0 0s-.1.18.05.06zm0-15.62a.72.72 0 0 1 .09-.27q.09-.18-.09-.18c.06.12 0 .21 0 .27s-.03.16.09.22zm0 5.58c.06.12.11.15.13.09s0-.09-.13-.09-.09-.15-.09-.09a.08.08 0 0 0 .18.13zm-.09 2c.06.18.09.16.09 0s.06-.22 0 .02zm.18-8.1a.61.61 0 0 0 .14-.31c0-.15 0-.23-.14-.23a.25.25 0 0 1 0 .31c-.04.12-.03.19.08.25zm0 10.2c.12.18.18.16.18 0s-.1-.25-.18 0zm0 .54h.27v-.27h-.27zm.08-1.27c.12.24.18.25.18 0s-.05-.18-.18 0zm0 2.52c.12.18.18.16.18 0s-.05-.24-.18 0zm0 .45c.12.18.18.16.18 0s-.05-.24-.18 0zm.36-14c.06-.18 0-.27-.09-.27a.43.43 0 0 0-.13.4.42.42 0 0 0 .22.31.57.57 0 0 1 .01-.48zm.19 7.76c.18-.3.06-.39-.36-.27q-.09.27.36.27zm-.18 1.62a.27.27 0 0 0 0-.27c0-.12-.11-.15-.22-.09.04.27.1.39.22.39zm.54 8.38a.52.52 0 0 1-.36-.18c-.12-.12-.24-.09-.36.09a1 1 0 0 0 .31.18.35.35 0 0 0 .41-.09zm-.63-15.39c.06.24.09.26.09 0s-.03-.16-.09.02zm.18-2.88a.57.57 0 0 1 .13-.58q.22-.22-.13-.41a1.09 1.09 0 0 1-.14.63q-.13.2.14.38zm.09 8.64c-.12 0-.18 0-.18.09s.18-.01.18-.07zm-.18 10.17h.18a.51.51 0 0 1 .18-.36h-.36zM22.46 66h.36c0-.24 0-.36-.09-.36s-.14.18-.23.18-.1.03-.04.18zm.27 4c-.12 0-.18 0-.18.09s.06.12.18.18a.16.16 0 0 1 .18-.18c.12 0 .15-.06.09-.18s-.14-.06-.23-.18-.2-.09-.31.09c.06.02.15.08.27.18zm0-10.35a.38.38 0 0 1 0-.5q.18-.22-.18-.13a.37.37 0 0 1 0 .4c-.13.12-.06.19.18.25zm0 3.06c0-.12 0-.18.09-.18 0-.18-.09-.24-.27-.18a.15.15 0 0 1 0 .18c.02.08.06.14.18.2zm0 1.08h.18c.12-.12.09-.21-.09-.27s-.27 0-.27.09a.16.16 0 0 1 .18.2zm-.18 4.41c.12.18.18.16.18 0s-.06-.2-.18.02zm.27-9.54a1.1 1.1 0 0 1 .18-.5q.18-.31-.18-.23a.3.3 0 0 1-.09.36c-.12.15-.09.27.09.39zm0 6.48a.26.26 0 0 1 .09-.18c.06-.06 0-.09-.09-.09a.14.14 0 0 1-.09.13c-.06.06-.03.1.09.16zm0-.81H23c.12-.12.09-.21-.09-.27s-.24 0-.18.09a.27.27 0 0 1 .09.2zm11.34-46.8s0-.18.14-.18.19-.09.13-.27a3.19 3.19 0 0 1-1.35.23 1.5 1.5 0 0 0-1.08.31.37.37 0 0 0-.45-.18 11.3 11.3 0 0 1-1.53.27 5 5 0 0 1-1.35 0l-2 .4q-.72.14-2.25.32a1.41 1.41 0 0 1-1 .18.58.58 0 0 0-.72.36q3.51-.63 6.12-.9zM22.82 61.29c.06.24.09.24.09 0s-.03-.24-.09 0zm0 1.53q.36 0 .27-.27h-.18v.18s-.09.03-.09.09zm0 4.32a.29.29 0 0 1 .31.27.43.43 0 0 0 .31.36c.12-.12.12-.27 0-.45a3 3 0 0 0-.36-.45c0 .12 0 .16-.14.13s-.12 0-.12.14zm.18-1a.63.63 0 0 0 .13-.31c0-.15 0-.23-.13-.23a.37.37 0 0 1-.09.27c-.06.07-.03.13.09.28zm0 2.07a.16.16 0 0 1 .18-.18.16.16 0 0 0 .18-.18.79.79 0 0 0-.36.15c-.12 0-.12.1 0 .22zM23.09 57c-.12 0-.18 0-.18.09s.18-.09.18-.09zm-.09.6a.63.63 0 0 0 .13-.31q0-.22-.23-.14c.01.3.04.45.1.45zm0-.72q.36.09.4-.31a.7.7 0 0 0-.13-.58 1.82 1.82 0 0 1-.18.4 1 1 0 0 0-.09.49zm0 6.66q.09.45.49.09c.27-.24.28-.42 0-.54q-.09.18-.22.41c-.04.15-.15.16-.27.04zm0 1.08c.12.3.18.33.18.09s-.06-.27-.18-.09zm.36-5.31q-.45.09-.27.27t.27-.27zm-.27 3.06h.27c.06-.18 0-.3-.09-.36l-.18.18zm.27 4.32c-.18 0-.27 0-.27.09.18 0 .27-.03.27-.09zm.27-5.4c0 .12-.09.18-.27.18s-.18.12 0 .36a.42.42 0 0 1 .31-.23.28.28 0 0 0 .23-.31h-.27c.3-.18.3-.25 0-.23s-.3.11 0 .23zm-.36 16.29a1.46 1.46 0 0 0 .63-.18.55.55 0 0 0-.63.18zm.18-21.87c0-.12 0-.18.09-.18 0-.18-.06-.24-.18-.18a.52.52 0 0 0 .09.36zm.09 3.06c0-.24-.06-.36-.18-.36v.36c0 .12.06.12.18 0zm-.18 7.38q.18.36.13 0c-.02-.15-.07-.15-.13 0zm.09-.63h.36c0-.18-.12-.27-.36-.27zm.9-3.06a.8.8 0 0 0-.4-.23.77.77 0 0 1-.41-.23.38.38 0 0 0 .27.5.48.48 0 0 0 .54-.04zm-.72-1.8c-.12.06-.12.12 0 .18a.26.26 0 0 1 .18-.09c.06 0 .09-.06.09-.18h.1c0-.24-.06-.36-.18-.36s-.06.18 0 .18.09.06.09.18a.7.7 0 0 0-.28.09zm-.09 2.16c.12.18.18.17.18 0s-.06-.24-.18 0zm.09-8.55c-.06.12-.08.17 0 .13a.54.54 0 0 0 .09-.13.35.35 0 0 0 0-.14s-.03.02-.09.14zm.18 2.25q-.18.09-.09.13c.06 0 .09 0 .09-.13a1 1 0 0 0 .18-.36c.06-.18 0-.3-.09-.36a.53.53 0 0 1-.09.36c-.06.06-.06.18 0 .36zm.18.9c.12-.12.14-.21 0-.27a.66.66 0 0 1-.23-.27c-.12.12-.13.21 0 .27a.69.69 0 0 1 .24.27zm-.18-4.14q.18.36.14 0t-.14 0zm.36 5.72zM24 55.53a.81.81 0 0 1 .36-.09.16.16 0 0 0 .18-.18q-.54 0-.54.27zm0 3.69a.61.61 0 0 0 .18.45.42.42 0 0 1 .27-.31.4.4 0 0 0 .27-.23.25.25 0 0 0-.31 0 .37.37 0 0 1-.41.09zm0 18.18a1 1 0 0 0 .81 0 1.16 1.16 0 0 1 .9 0c-.12-.3-.36-.39-.72-.27a8.53 8.53 0 0 1-.99.27zm.09-25.2q.27.18.27-.14t-.27-.13zm.54 2c-.06 0-.12-.06-.18-.18s-.15-.09-.27.09a.18.18 0 0 1 .27.09q.08.16.17-.02zm0 3.24a.49.49 0 0 1-.22.36q-.23.18.13.36c-.06-.12 0-.24.13-.36s.14-.24 0-.36a.36.36 0 0 0 0-.23v-.23c-.24-.06-.35 0-.31.23s.02.27.26.21zm-.27 3.51q-.18.18-.09.22a.38.38 0 0 0 .18 0 .14.14 0 0 0 .13-.09c.03-.03-.05-.08-.23-.15zm.09 18.81q.54-.18.13-.22c-.27-.06-.32.02-.14.2zm-.09-26.19h.18v-.27h-.18zm0 5c.06.12.12.12.18 0s0-.18-.09-.18 0 .09 0 .09-.1.05-.1.11zm.64-2.32a.36.36 0 0 1-.18-.36c0-.18-.09-.21-.27-.09s-.18.26 0 .41.31.16.45.04zm-.36 3.87c.12-.06.16-.18.14-.36s-.11-.18-.23 0c.18 0 .19.06 0 .18s-.11.18.07.18zm.27-7.38l-.18.09h-.09a.55.55 0 0 0-.13.23c0 .09 0 .13.13.13a.52.52 0 0 0 .09-.36c0 .06.06 0 .18-.09s.3-.06.18-.18-.2-.06-.2.18zm-.18 3.87a.08.08 0 0 0-.09-.09.08.08 0 0 0-.09.09.15.15 0 0 1 .13.09c.02.06.03.03.03-.09zm.27-1.35q0-.18-.27-.36-.29.45.27.36zm0-3.06h-.27v.27a.24.24 0 0 0 .27-.27c.18 0 .27-.06.27-.18-.2-.02-.27.06-.27.18zm.09 2.07a.14.14 0 0 1-.09.13c-.06 0-.09.11-.09.23s.21 0 .27-.13 0-.23-.09-.23a.5.5 0 0 0 .18-.31.49.49 0 0 1 .18-.31H25c.12.18.1.3 0 .36s-.17.14.07.26zm-.09 4c.3-.24.33-.36.09-.36s-.29.09-.09.32zm.18-5.13c-.06.3-.06.31 0 0s.04-.28-.02-.04zm0 1.89h.27v-.18h-.27zm.45-3.6c-.12 0-.18 0-.18.09s0-.07.09 0 .07-.07.07-.13zm-.18.36c.06.24.09.26.09 0s-.05-.22-.11-.04zm0 .36c.06.18.1.17.14 0s-.04-.28-.16-.04zm.27 3.15h.36c.06.18 0 .29-.09.32a1.83 1.83 0 0 0-.36.13 1 1 0 0 0 .07-.49zm0-2.79c.18.06.27 0 .27-.22s-.09-.25-.27-.14zm.09-2.34q.27.27.27 0t-.29-.04zm.54.72c.12.12.21.18.27.18a.37.37 0 0 1 .09-.27.37.37 0 0 0 .09-.27 1.39 1.39 0 0 0-1 0 .46.46 0 0 1 .23.36 1.12 1.12 0 0 1 0 .54c.18 0 .24.18.18.54a.35.35 0 0 0 .27-.36.61.61 0 0 1 .18-.45.18.18 0 0 0-.27.09c-.06.12-.12.09-.18-.09.12-.22.18-.31.12-.31zM26 49.5c.18-.12.27-.1.27 0s.09.23.27.23a.48.48 0 0 0 0-.41.58.58 0 0 0-.27-.31.21.21 0 0 1-.13.23.21.21 0 0 0-.14.26zm.54-.63a.37.37 0 0 0 .09-.27c0-.12.06-.15.18-.09a.41.41 0 0 0 .27.45c.06-.12.07-.19 0-.23s0-.16 0-.4a.35.35 0 0 1-.23 0 .19.19 0 0 0-.13 0c0 .18-.12.24-.36.18s-.33.06-.27.36a.53.53 0 0 1 .42 0zm-.18 2c0-.24.06-.24.18 0zm1 26c-.18-.12-.29-.11-.31 0s-.14.19-.31.14c0-.12 0-.18-.09-.18-.18.24-.12.33.18.27s.43-.1.49-.24zm-.76-30.25c0 .18.06.27.18.27 0-.18-.06-.27-.18-.27zm.09-1.71c.06.18.09.17.09 0s-.03-.24-.09 0zm.18 5.22c0-.18-.06-.27-.18-.27 0 .24.06.33.18.27zm.36-2a.3.3 0 0 1 .13-.27c.09-.06.1-.15 0-.27h-.63c-.06.18 0 .29.09.31a.82.82 0 0 1 .41.25zm-.18 31.32c-.06-.12 0-.18.27-.18s.24-.06 0-.18c0 .12-.11.18-.31.18s-.2.08.04.2zm-.18-35.82c.12.24.18.26.18 0s-.05-.16-.18.02zm.18 34.83c.24 0 .27.07.09.23s-.21.09-.09-.21zm0-33.57h.54c-.06-.18 0-.3.09-.36s.15-.21.09-.45a.72.72 0 0 0-.45.09.23.23 0 0 1 0 .36 1.39 1.39 0 0 0-.27.38zm.09 2.43c.06.24.09.24.09 0s-.03-.22-.09.02zm.27-3.87c-.12 0-.18 0-.18.09s.18-.01.18-.07zm-.18 2a.27.27 0 0 1 .18.09c0-.24-.06-.36-.18-.36zm0 .9c0-.12 0-.18.13-.18s.1.12 0 .36zm0 2.61c.06.24.09.24.09 0s-.03-.24-.09.04zm.63-5a1 1 0 0 1 0-.58.47.47 0 0 0-.09-.49.68.68 0 0 0-.14.58c.04.32.11.53.23.53zm0 1.22a.41.41 0 0 1 .23-.23h-.23a.19.19 0 0 0-.13 0v.36c0 .12.15 0 .18-.08zM28 77a.47.47 0 0 1 .41 0c.15.06.19 0 .13-.09a.22.22 0 0 0-.27-.13.39.39 0 0 0-.27.22zm.18-34.65q.18.18.18-.27h.09-.09c-.29.01-.36.1-.23.22zm.27-25.65a1.52 1.52 0 0 1 .36 0c.12 0 .18 0 .18-.13a.26.26 0 0 0-.31-.14c-.2.03-.28.1-.28.22zm.36 62.28c-.12.18-.2.18-.23 0s0-.23.18-.05zm.09-39.6h.09-.09c-.18-.18-.26-.16-.22 0s.05.19.17-.05zm-.09 37.44c.06.18.1.16.14 0s-.07-.29-.19-.05zm0 2.16c0-.18.06-.21.18-.09s.01.11-.23.04zm.63-62.28c.12-.12.09-.19-.09-.23s-.27 0-.27.14zM29 78.93c.06-.12.12-.17.18-.14a.15.15 0 0 0 .18 0c0 .12 0 .16-.09.13a.32.32 0 0 0-.27.01zm.36-39.24a.27.27 0 0 0 0-.27.59.59 0 0 0-.13-.27 1.5 1.5 0 0 1 0 .36c0 .12.04.18.16.18zm.18-1c.06-.12 0-.18-.09-.18.06.12 0 .21 0 .27s-.08.12 0 .18a.69.69 0 0 1 .12-.26zm0 38.16a1 1 0 0 0 .72-.09.5.5 0 0 0-.69.1zm.54-60.48c-.12 0-.18 0-.18.09s.21-.02.21-.08zm.45.09a.52.52 0 0 0 .36-.18c-.09-.05-.21.01-.33.19zm0 60.39a1.49 1.49 0 0 1 .95 0q.31.13.77-.23h-.86c-.39-.03-.71.06-.83.24zm.9-60.39q.09-.27.4-.13c.21.09.34 0 .41-.31a2 2 0 0 1-.63.13c-.27.04-.33.14-.15.32zm1-.18a.74.74 0 0 1 .45 0c.18 0 .24 0 .18-.23a.86.86 0 0 1-.45 0c-.04-.05-.1.06-.16.24zm.09 60.3c.06.24.09.25.09 0s-.01-.17-.07.01zm0 2.07c0-.06.06-.09.18-.09s-.04.1-.16.1zm.27-.27c.12-.24.18-.26.18 0s-.04.19-.16.01zm.18.27a.09.09 0 1 1 .18 0c-.06.12-.09.15-.09.09a.08.08 0 0 0-.06-.08zm.36 0q.27-.27.27 0c-.06.12-.09.15-.09.09s-.04-.08-.16-.08zm.2-62.65c.06.18.1.17.13 0s-.01-.22-.13 0zm2.7 60.75c-.42-.06-.81-.11-1.17-.14a3.87 3.87 0 0 0-1.26.14 7.34 7.34 0 0 1 1.13.09 3.34 3.34 0 0 0 1.3-.07zM34.43 16a1 1 0 0 0-.54-.09c-.12.18 0 .27.23.27s.37-.06.31-.18a.7.7 0 0 1 .5 0c.21.06.28 0 .23-.18a.5.5 0 0 1-.36 0 .38.38 0 0 0-.37.18zm.36 1.17c-.06.06-.11.08-.13 0s0 0 0 .14a.08.08 0 0 1 .09-.09.08.08 0 0 0 .04-.03zm5-.27a5.9 5.9 0 0 0-1.8.09 5.4 5.4 0 0 1-2 0c-.12.18-.24.24-.36.18a1.56 1.56 0 0 0-.63-.07c-.12.12-.13.2 0 .23s.1.13 0 .31a4.62 4.62 0 0 1 2.48-.27 3.7 3.7 0 0 0 2.35-.37c.12.12.37.15.77.09a.94.94 0 0 0 .77-.45 3.39 3.39 0 0 1-.72.14 1.12 1.12 0 0 1-.81-.23.52.52 0 0 1-.1.37zm-4.41-1c.12.18.18.17.18 0s-.11-.21-.23.03zm.09 62.73c.12-.18.18-.17.18 0s-.11.27-.23.03zm.36-.27c0 .06 0 .07-.09 0s-.08.03.04.03zm-.09-62.46c.24 0 .33-.06.27-.18h-.18v.09s-.14.06-.14.12zm.09 62.46v-.18a.11.11 0 0 1-.05.21zm.45-62.55c.06.18.09.17.09 0s-.08-.21-.14.03zm0 .27c.06.24.09.26.09 0s-.08-.15-.14.03zM36.32 77a.68.68 0 0 0 .68 0 .59.59 0 0 1 .63.13.18.18 0 0 1 0-.13.19.19 0 0 0 0-.14 1.23 1.23 0 0 1-.58-.09c-.09-.06-.26 0-.5.09q.09-.18-.09-.09c-.08.06-.14.12-.14.23zm0 1.62h.18v.18h-.18zm.54-61.74c-.18 0-.27 0-.27.09a.15.15 0 0 1 .18 0c.06-.06.09-.08.09-.14zm-.27 61.29c.24-.06.31 0 .23.09s-.17.04-.23-.14zm.27.54c-.12 0-.17 0-.14-.09s.08-.08.14.04zm0-62.91c.3.12.42.09.36-.09s-.22-.2-.36.04zm.31 63c-.09.12-.2.09-.31-.09.3-.11.41-.08.32.04zm.4-62.91a1.55 1.55 0 0 0 .9-.45 1 1 0 0 0-.89.4zm0 63.72c.3.12.43.1.41 0s-.16-.23-.4-.05zM37.85 18h.41l.63.09a1.56 1.56 0 0 0 .54 0q.22 0 .13-.22a2.31 2.31 0 0 0-.85-.18 1.67 1.67 0 0 0-.86.31zm.09 59a.55.55 0 0 1 .4.13c.09.09.19 0 .31-.13a.37.37 0 0 1-.4-.09c-.14-.08-.25-.05-.31.09zm1-61.47a.14.14 0 0 1-.18 0c-.06 0-.09 0-.09.14.17-.1.26-.16.26-.1zm.36 61.83c.06-.12 0-.23-.13-.31s-.23-.08-.23 0a.16.16 0 0 1 .18.18c-.01.2.05.23.17.17zm-.18-61.83q.18.27.18 0t-.19.04zm.63 62.91c-.06.12-.24.18-.54.18a.19.19 0 0 0 0-.14.18.18 0 0 1 0-.13c.12-.12.23-.15.31-.09zm1.08-63c.12-.06.15-.09.09-.09a.08.08 0 0 0-.09.09 3.78 3.78 0 0 1-.63 0 .74.74 0 0 0-.54.13 1.44 1.44 0 0 0 1.16-.09zM40 18.09q0-.18.09-.13h.09s-.18-.1-.18-.14-.06 0-.18 0a.33.33 0 0 1 0 .27c.03-.03.07 0 .18 0zm.36-.45q.18.36.18 0t-.17 0zm0 62.55c.12-.18.18-.17.18 0s-.05.24-.17 0zm1.53-.63a5.92 5.92 0 0 1-.72 0 .91.91 0 0 1-.54-.23 1.35 1.35 0 0 1 1.27.23zm-.81-64h.5q.22 0 .4-.36a.55.55 0 0 1-.5.13.33.33 0 0 0-.39.24zm15.84 1.35a26.18 26.18 0 0 0-3.1-.4q-1.75-.14-3.6-.18t-3.69 0h-3.28a2.93 2.93 0 0 1-.9.18 3 3 0 0 0-.9.18.8.8 0 0 0 .45.54 19.21 19.21 0 0 1 4.46-.23 28.06 28.06 0 0 0 4.27 0 9.58 9.58 0 0 1 1.67.23 2.47 2.47 0 0 0 1.84-.23 2.82 2.82 0 0 0-.85 0 .57.57 0 0 1-.58-.23 3.48 3.48 0 0 0 1.26.18 5.29 5.29 0 0 1 1.43.05q0 .27-.45.14c-.3-.09-.39 0-.27.23a.55.55 0 0 0 .63 0 3.1 3.1 0 0 1 .63-.32.45.45 0 0 0 0 .54c.24.06.36 0 .36-.13a.56.56 0 0 1 .18-.41c.12.12.22.17.31.14s.07.08 0 .31c.3.06.43 0 .4-.18s.07-.21.31-.09a.29.29 0 0 1-.18.27c-.12.06-.06.09.18.09s.21.09.27-.09.15-.27.27-.27a5.25 5.25 0 0 1 .9.27.53.53 0 0 0 .72-.27 1.93 1.93 0 0 1-1.44-.13 1.56 1.56 0 0 0-1.29-.18zm-15.12 1q-.09.45.14.22c.16-.13.11-.22-.13-.22zm.36 61.2S42.07 79 42 79s.05.11.17.11zm.27-63.72c-.18 0-.27 0-.27.09.19 0 .28-.03.28-.09zm0 2.88a.08.08 0 0 1 .09-.09c0-.18-.06-.24-.18-.18s.04.27.1.27zm.36-2.79a1 1 0 0 1 .45-.09c.18 0 .27-.06.27-.18a.47.47 0 0 1-.5.09c-.19-.06-.27 0-.21.18zm0 64.62c0-.12 0-.17.09-.14a.15.15 0 0 1 .09.14zm.09-63.45c0-.06.12-.09.36-.09a.52.52 0 0 1-.35.09zm1.44-.09c-.12.18-.24.21-.36.09s.04-.15.37-.09zM44 15.21v.27a.81.81 0 0 0 .41-.14c.15-.09.13-.19 0-.31a.25.25 0 0 1-.41.18zm1.26 1.44a.23.23 0 0 0-.36 0c-.12.12-.27.12-.45 0 0-.12.15-.19.45-.23s.39.05.33.23zM45 15.39h.27c0-.18-.06-.27-.18-.27s0 .09 0 .09-.09.12-.09.18zm.63-.09c-.12 0-.18 0-.18.09h.09a.08.08 0 0 0 .05-.09zm.18 2.07c-.18-.18-.26-.18-.23 0s.07.18.19 0zm-.09-2a1 1 0 0 1 .54.09c.06-.24 0-.34-.18-.31a.45.45 0 0 0-.4.24zm.09 1.17c0-.06.09-.09.27-.09-.08.08-.08.11-.31.11zm.36 1c-.12 0-.18 0-.18.09H46a.08.08 0 0 0 .13-.08zm.09-1c0 .12 0 .17-.09.13s-.07-.05.05-.11zm0 0q0-.18.27-.14c.18 0 .21.11.09.23h-.27a.08.08 0 0 0-.13-.07zm.27 1.35c.06.12.23.18.5.18a.8.8 0 0 0 .58-.18 1 1 0 0 0-.5-.14.69.69 0 0 0-.62.16zm.18-2.43h.49c.15 0 .23-.09.23-.27q-.27.18-.4.13c-.13 0-.24.04-.36.16zm.29 1.1c0 .12 0 .17-.09.13s0-.07.09-.13zm0 0a.18.18 0 0 1 .27-.09.79.79 0 0 0 .36.09c-.06.18-.15.23-.27.13a.6.6 0 0 0-.36-.13zm1.17-1.17q-.09.36.36.13t.18-.31c-.06.12-.17.15-.31.09s-.23 0-.23.09v-.09c-.18-.18-.33-.15-.45.09a.58.58 0 0 0 .48 0zm0 2c-.18 0-.27 0-.27.09a.15.15 0 0 1 .18 0c.09-.03.12-.05.12-.11zm-.09.54q-.09.36.31.22c.27-.09.43-.07.5 0q0-.45.27-.18t.36-.09c-.12-.06-.12-.1 0-.14a.21.21 0 0 0 .18-.23c-.24.12-.41.09-.5-.09s-.2-.18-.31 0c.18.18.13.3-.14.36a3.19 3.19 0 0 1-.64.13zm.54-1.35a.71.71 0 0 1-.45.09c.03-.2.18-.23.48-.11zm.18.09c0-.06.06-.09.18-.09s.02.07-.15.07zm.09-1.26c.24.18.42.12.54-.18a.46.46 0 0 0-.51.16zm.63.09h.36c0-.18-.12-.24-.36-.18zm.48 1.06c-.18.18-.3.2-.36 0s.06-.12.36 0zm0-1.26c.12.18.18.18.18 0s-.06-.18-.18 0zm.27 2.34a1.23 1.23 0 0 1 .58.09 1.17 1.17 0 0 0 .67 0q0-.45-.54-.31a4.22 4.22 0 0 0-.71.22zm1.17-2.16h-.36c-.12 0-.15-.06-.09-.18-.18.06-.29.08-.31 0a.61.61 0 0 0-.31 0c.06.12.24.23.54.31s.47.05.53-.13zm-1 1.17c0-.06.12-.09.36-.09a.52.52 0 0 1-.35.09zm0 1.44a.52.52 0 0 0 .36-.18c-.23-.06-.35 0-.35.18zm.45-1.26v-.14c0 .02.07 0 .13 0zm.72-1.26a.46.46 0 0 0 .54-.18.73.73 0 0 0-.53.18zm0 1.26c0-.12 0-.16.09-.14a.14.14 0 0 0 .18 0c.01-.1-.08-.04-.26.14zm.27 1.08c-.3.12-.33.18-.09.18s.28-.09.1-.18zm.18-1.35a.52.52 0 0 1 .18.36c-.18.06-.29 0-.32 0s.08-.24.15-.36zm.09 1.53c.12.18.18.17.18 0s-.05-.24-.17 0zm.27-2.25a1.91 1.91 0 0 1 .58-.13q.41 0 .14-.31c-.12.12-.23.15-.31.09a.56.56 0 0 0-.31-.09.62.62 0 0 1 0 .27.39.39 0 0 0-.09.17zm1.89-.27a.25.25 0 0 1-.31 0c-.09-.09-.17-.07-.23 0a.61.61 0 0 0 .31.14c.17.03.24-.02.24-.14zM54.23 17a.32.32 0 0 0 .36.36.32.32 0 0 0-.36-.36zm.9-1.26c-.18 0-.27 0-.27.09a.15.15 0 0 1 .18 0c.06 0 .09-.02.09-.08zm.09 2.34c.06-.24.09-.24.09 0s-.03.25-.09.01zm.54-2.25c-.12 0-.18 0-.18-.09s-.06-.06-.18 0-.09.2.09.23.27.03.27-.13zm.72 2.34c.06-.12.16-.14.31 0s.19.2.13.32a1 1 0 0 1-.23-.14 1.12 1.12 0 0 0-.21-.17zm1.17.63c.12 0 .16 0 .13.09s-.07.04-.13-.08zm.27-.36c-.06-.12 0-.18.23-.18s.28.09.22.27q-.18 0-.22-.09c-.03-.05-.15-.05-.23.01zm.54-.9h-.23a.36.36 0 0 0-.23 0c-.12.12-.08.2.14.23s.32-.1.32-.22zm2.16.18c.12.12.19.15.23.09a1.29 1.29 0 0 1 .23-.27c-.36 0-.51.06-.45.18a.42.42 0 0 1-.4.13c-.15 0-.23-.1-.23-.22h.36c.12 0 .12-.06 0-.18-.18.12-.27.13-.27 0s-.09-.19-.27-.31c-.12.12-.13.23 0 .31s.07.17 0 .23a2.21 2.21 0 0 1-.67-.14c-.27-.09-.44 0-.5.14a2.3 2.3 0 0 1 1.21.36q.49.41.76-.31zm-2 .72c.18-.12.19-.1 0 0s-.1.19.02.01zm1.58.81c0 .18 0 .18-.23 0q.2-.25.25.01zm1.21-1q.18-.18-.13-.23t-.23.14a.29.29 0 0 0 .38.11zm.36-.27h-.09.09q.36-.18.54.09c.12.18.18.12.18-.18-.24.06-.4 0-.5 0a1 1 0 0 0-.4-.22c-.06.12 0 .18 0 .18s.2.03.2.15zm.9.09h.18c0-.24-.06-.33-.18-.27zm1.17.9a.43.43 0 0 1-.31-.13.25.25 0 0 0-.31 0c0-.18.1-.24.31-.18s.33.15.33.34z"/><path d="M68.9 51.3A4.32 4.32 0 0 1 67 53a4.2 4.2 0 0 0-1.89 1.8q-.36-.63-.54 0a12.3 12.3 0 0 0-2.75 1.75 15.92 15.92 0 0 1-2.93 1.94v.13l.14.14a8 8 0 0 0-1.94 1.35 4.05 4.05 0 0 1-2.39 1q.18.45-.54.81a4.47 4.47 0 0 0-1.17.81 6.09 6.09 0 0 0 2.16-1.08 12.44 12.44 0 0 1 2.25-1.35 1.35 1.35 0 0 1-.81.81 2.54 2.54 0 0 0-1 .63l-.09.09h-.27c.06.12.12.17.18.13a.14.14 0 0 0 .09-.13.08.08 0 0 0 .09-.09 2.36 2.36 0 0 0 1.57-.49 6.85 6.85 0 0 1 1.58-.95 3.19 3.19 0 0 1-1.54 1.3 3.05 3.05 0 0 0-1.53 1.4c-.12-.18-.31-.19-.58 0a.86.86 0 0 1-.68.13c.12 0 .19.12.23.36s0 .36-.23.36-.3 0-.18-.18.06-.3-.18-.36-.24.13-.18.23a3.24 3.24 0 0 1 .18.31.52.52 0 0 0-.63.09c-.24.18-.42.12-.54-.18q-.36.18 0 .41c.24.15.27.29.09.4a22.35 22.35 0 0 1-2.79 1.53 10.54 10.54 0 0 1-3.06 1q-1 .45-2 .81a8.08 8.08 0 0 0-1.84.9c-.12 0-.18 0-.18-.09s.07-.11 0-.13 0 0 0 .13a1.55 1.55 0 0 1-1 .5 7.82 7.82 0 0 1-1.44.13 7.1 7.1 0 0 1-1.4-.13 1.87 1.87 0 0 1-.85-.31.4.4 0 0 1-.27.23.79.79 0 0 0-.36.22 8.36 8.36 0 0 1-3.37-2.61 5.72 5.72 0 0 1-1.12-4v-.09a.72.72 0 0 1-.13-.18.71.71 0 0 0-.14-.18 19 19 0 0 1 1.85-5 26 26 0 0 1 2.75-4 32.41 32.41 0 0 1 3.28-3.42q1.75-1.57 3.56-3.1.9-.18 1.75-.41a5.87 5.87 0 0 1 2.21 0 14.33 14.33 0 0 1 1.35.58 4.18 4.18 0 0 1 1.08.77 3.65 3.65 0 0 0 .36.54 11.15 11.15 0 0 1-.94 2.43 1.91 1.91 0 0 1-2.12.9 1.15 1.15 0 0 1-.18-.85 1.44 1.44 0 0 0-.09-.85q-2.07 1.35-4 2.74a23.54 23.54 0 0 0-3.51 3.2 17.84 17.84 0 0 0-2.74 4.09 18.16 18.16 0 0 0-1.58 5.35 1.37 1.37 0 0 0 .36.72l.45.45a5.87 5.87 0 0 0 2.75-.09 19 19 0 0 0 2.11-.81 53.72 53.72 0 0 0 7.56-3.15q3.51-1.8 6.79-3.87t6.48-4.23q3.19-2.16 6.62-4.23c.24.3.21.54-.09.72a.46.46 0 0 0-.18.52zM33.26 62.55v.09q-.18.09-.18 0c0-.06.06-.09.18-.09zm0-.45c.06.24.09.26.09 0s-.03-.18-.09 0zm.18-1.1c-.12.18-.1.21 0 .09s.18-.09 0-.09zm18.27 3.42a6.8 6.8 0 0 0-2.52.85 8.21 8.21 0 0 1-2.61.94 8.25 8.25 0 0 0 2.79-.63 21.21 21.21 0 0 0 2.34-1.17c.06-.06.07-.1 0-.13s0 .04 0 .16zm-4.41.27q.36.18.18 0c-.12-.1-.18-.1-.18.02zm.72-.18a4 4 0 0 1 .67-.27.86.86 0 0 0 .5-.36 1.13 1.13 0 0 0-1.19.65zm.72 1.71c.3.12.45.09.45-.09a1 1 0 0 1-.45.11zm3-1.17a1.84 1.84 0 0 0-1.08.31 4.44 4.44 0 0 1-.9.5c-.18 0-.27.06-.27.18.18 0 .27-.06.27-.18a1.79 1.79 0 0 0 1.13-.31 3.55 3.55 0 0 1 .85-.5.39.39 0 0 0 .31-.18q.13-.18 0-.27a.16.16 0 0 1-.18.18c-.19.02-.22.11-.16.29zm-2-.63c-.12.06-.15.11-.09.14s.09 0 .09-.14.15 0 .09 0-.1-.04-.1.02zm1.17-1.53c.24.12.31.12.23 0s-.14-.1-.24.02zm.27-.72c-.12.12-.12.23 0 .31a.33.33 0 0 1 .09.41 2.06 2.06 0 0 0 1-.81c-.18.12-.29.17-.31.13l-.25-.21a1.59 1.59 0 0 1-.23.45q-.13.19-.31-.26zm1-.36q.36.18.18 0c-.14-.17-.2-.16-.2.02zm.18 2.7c-.12.06-.15.09-.09.09a.08.08 0 0 0 .09-.09c.12.06.24 0 .36-.18-.26-.04-.38.02-.38.2zm-.09-.36c.12.12.19.11.23 0s0-.23-.14-.23a.08.08 0 0 1-.09.09zm.27-1.08c0-.06.06-.09.18-.09a2.81 2.81 0 0 0-.27-.36.7.7 0 0 0 .07.47zm0-1.08h.36c0-.18-.12-.24-.36-.18zm1 1.53c-.12.18-.11.21 0 .09s.15-.13-.03-.07zm.09-1.71a.15.15 0 0 1 .13.09.14.14 0 0 0 .13.09v-.27a.14.14 0 0 1-.13-.09.15.15 0 0 0-.13-.09zm.45-.18a.32.32 0 0 0 .36-.36.21.21 0 0 0-.22.13.58.58 0 0 1-.17.25zm1.08 1.71c-.12-.06-.18 0-.18.09-.18-.06-.21-.14-.09-.23a.32.32 0 0 1 .36 0c.03.16 0 .22-.12.16zM61 56.16c-.06-.06-.09 0-.09.09a.52.52 0 0 0-.36.18.83.83 0 0 0-.67.27 1.67 1.67 0 0 1-.68.45.21.21 0 0 1 .14-.23.21.21 0 0 0 .13-.22.23.23 0 0 0-.31.09.25.25 0 0 0 0 .36q-.09.18-.27 0l-.16-.15q.18.63-.31.68a.75.75 0 0 0-.68.5.52.52 0 0 0-.36.09c-.12 0-.24.12-.36.36a.91.91 0 0 0-.72.45c-.06-.18-.09-.21-.09-.09a.3.3 0 0 0-.27.13 2.23 2.23 0 0 1-.27.31.41.41 0 0 0 .36-.13 3.18 3.18 0 0 0 .18-.31l.09.09a.9.9 0 0 0 .72-.45q.18 0 .36-.36a.29.29 0 0 0 .36-.09 3.6 3.6 0 0 0 1.49-.72q.67-.54 1.3-1c.24.06.36 0 .36-.18l.09-.09c.12-.06.15-.1.09-.14S61 56 61 56.16zm-4.5 5.94a.08.08 0 0 1 .09-.09c0-.18-.09-.24-.27-.18a.15.15 0 0 1 0 .18c-.01.06.04.09.16.09zm.18-3.78q.36.18.18 0c-.14-.12-.2-.12-.2 0zm.9-.45c.06.06.09 0 .09-.09s-.17.03-.11.09zm.34 2.13c-.12.24-.24.36-.36.36.12-.21.24-.36.36-.36zm.81 0a.68.68 0 0 0-.5 0c-.09.06-.11 0 0-.27a.79.79 0 0 0 .36.09.16.16 0 0 1 .14.18zm-.36-2.79l-.09.09c-.12.06-.15.11-.09.13s.09 0 .09-.13c.06.06.09 0 .09-.09s.15 0 .09 0-.09-.03-.09.03zm.09 1.53a.52.52 0 0 0-.18-.36c0 .27.06.39.18.39zm.27 1.26a.47.47 0 0 0 .18.23c.06 0 .06.11 0 .23s-.12-.06-.18-.18zm.45-.63a.52.52 0 0 1-.36.18c0-.09.12-.15.36-.15zm.27.09q.09.36-.54.36c.24-.21.42-.33.54-.33zm-.45-.69c.06-.24.15-.3.27-.18s.03.18-.27.18zm.72.18a2.1 2.1 0 0 0-.27.31.3.3 0 0 1-.27.13q.18-.39.54-.39zm-.27.54a.08.08 0 0 1 .09-.09c.06 0 .03.03-.09.09zm.36.09c0 .12 0 .17-.09.13s-.03-.07.09-.13zm0 0a.08.08 0 0 1 .09-.09.08.08 0 0 1-.09.09zm.09-.09c0-.06 0-.07.09 0s.01 0-.09 0zm1-1.35c-.06.24-.15.3-.27.18s-.04-.18.26-.18zm.18.9a1.72 1.72 0 0 0-.13.36c0 .12-.14.18-.32.18.18-.12.23-.24.14-.36s0-.22.3-.22zm-.28-3.24c.24.12.3.11.18 0s-.18-.18-.18 0zm.09 2.34A.08.08 0 0 1 61 58c0 .17-.05.2-.11.14zM61 58c0-.18.06-.19.18 0s.04.17-.18 0zm.18.54v.14c0-.03-.08-.03-.02-.09zm0 0q.09-.18.27 0t-.29.05zm1.62-3.51l-.09.09a.81.81 0 0 0-.72.45c-.06 0-.15.06-.27.18-.06-.06-.09 0-.09.09q-.27 0-.27.18c-.12-.06-.15 0-.09 0s.09.08.09 0c.18 0 .27-.06.27-.18l.09-.09c.06 0 .15-.06.27-.18a.9.9 0 0 0 .72-.45c.06.06.09 0 .09-.09a.74.74 0 0 0 .45-.27c-.12-.06-.21 0-.27 0a1.53 1.53 0 0 1-.2.32zm-.9 2.52a.4.4 0 0 0-.23.27.21.21 0 0 1-.23.18.4.4 0 0 1 .44-.4zm1.71-.81c0-.06 0-.07-.09 0a.15.15 0 0 1-.18 0q0 .09.27.09-.09.45-.4.23t-.41.22c-.18-.06-.3 0-.36.09a.36.36 0 0 1-.36.18q.72-.54 1.48-1a6.23 6.23 0 0 1 1.75-.77q-.45.36-.85.63a4.64 4.64 0 0 1-.87.38zm-.9.72c0 .06 0 .08-.09 0s-.05.05.07.05zm0 0c0-.12 0-.18.09-.18s-.05.23-.11.23zm.09-.18v-.09h.27c-.14.17-.23.2-.29.14zm.45.18c0 .18-.06.21-.18.09s-.07-.1.16-.04zm-.09-1.8c.12-.18.18-.18.18 0s-.08.23-.2.05zm.09 1.8c0-.12 0-.18.09-.18s-.05.23-.11.23zm.09-.18c0-.06 0-.07.09 0s.01.05-.11.05zm.27-2.79q.27.27.27 0-.29-.22-.29.05zm.72-.36c-.24-.06-.3 0-.18.09s.18.09.18-.09h.09c-.06 0-.11-.01-.11.05zm.27.63c.24 0 .3 0 .18.13s-.2.11-.2-.08zm.36 1.44c.18.12.21.18.09.18a.16.16 0 0 0-.18.18c-.18-.12-.21-.19-.09-.23s.16-.02.16-.08zm.45-.09c0-.18.06-.21.18-.09s.04.2-.2.14zm1.26-3.29c.06 0 .09 0 .09-.14q-.2.15-.11.2zm2.23-1.52c-.06-.12-.06-.16 0-.13s.1.07 0 .13z"/><path d="M66 53.55a.38.38 0 0 1-.27-.4.67.67 0 0 0-.18-.5A19.3 19.3 0 0 1 68.14 50a7.91 7.91 0 0 1 3.46-1.62 2 2 0 0 1 1 .72 6.19 6.19 0 0 1 2.79 1.08 22.35 22.35 0 0 0 2.34 1.53 7.54 7.54 0 0 1 .5 4A13.26 13.26 0 0 1 77 59.44a19.23 19.23 0 0 1-2 3.33q-1.22 1.58-2.11 2.93-1.8.54-3.42 1.17a4.52 4.52 0 0 1-3.47-.09 7.3 7.3 0 0 1-1.8-3.15 10.38 10.38 0 0 1-.31-3.46 14 14 0 0 1 .72-3.46A19 19 0 0 1 66 53.55zm6.93-.9a8.34 8.34 0 0 0-4.68 4.1 14.9 14.9 0 0 0-1.71 6.79 2 2 0 0 0 .85 0 4 4 0 0 1 .85-.09A17.08 17.08 0 0 0 72.55 59a14.09 14.09 0 0 0 2.21-6.21 3.78 3.78 0 0 1-.27-.68 2.11 2.11 0 0 0-.27-.58c-.48-.12-.76 0-.85.27a2.54 2.54 0 0 1-.37.85zm1.62 2.88a.68.68 0 0 1 .18-.4c.12-.15.06-.23-.18-.23a.3.3 0 0 1-.09.36c-.1.12-.07.21.11.27zm.54-2.7c.06.24.09.24.09 0s-.01-.24-.07 0zm26.12 9a7.91 7.91 0 0 0 4.41-1.31 27.94 27.94 0 0 1 3.69-2.21c-.18-.12-.24-.24-.18-.36a17.94 17.94 0 0 0 4.72-2.56 44 44 0 0 0 4.28-3.56 5.71 5.71 0 0 0-1.67 1.22 3.71 3.71 0 0 1-2.21 1 12.61 12.61 0 0 1 2.11-1.71l2.3-1.44a3.06 3.06 0 0 1-.85 1.89 11.72 11.72 0 0 1-1.71 1.48l-1.93 1.4a5.56 5.56 0 0 0-1.53 1.62q-.63-.36-1.12.36a2.1 2.1 0 0 1-1.12.9 1.66 1.66 0 0 0 1.17-.31 2.23 2.23 0 0 0 .81-.77h.5a1.29 1.29 0 0 1 .31.18c.12-.12.14-.23 0-.31a.37.37 0 0 1 0-.41 2.08 2.08 0 0 1 .63-.18c.12 0 .24-.12.36-.36a.56.56 0 0 0 .67.09 3.16 3.16 0 0 0 .81-.54q.41-.36.85-.72a2.67 2.67 0 0 1 .72-.45l-1 1.89a3.11 3.11 0 0 1-1.52 1.34 3.31 3.31 0 0 1-.36.58 1.58 1.58 0 0 0-.27.5q-1.08.72-2.34 1.75t-2.61 2a16.23 16.23 0 0 1-2.93 1.62 7.26 7.26 0 0 1-3.28.58 3 3 0 0 1-1.8-.58 7 7 0 0 1-1.44-1.4c-.06-.18-.12-.23-.18-.13s-.15.08-.27 0a6.7 6.7 0 0 1-1.08-2.61 16.05 16.05 0 0 1-.27-3q0-1.53.13-3.1t.14-2.93a22.49 22.49 0 0 0-3.6 2.83 40.19 40.19 0 0 0-3.06 3.33Q90 59.22 88.7 61.11t-2.79 3.69a1.79 1.79 0 0 1-.94.14.91.91 0 0 0-.85.31A4.48 4.48 0 0 1 82.27 62a15.4 15.4 0 0 1 .31-4.14q.45-2.2 1.08-4.46a12.08 12.08 0 0 0 .45-4.4 3.09 3.09 0 0 1 1.94.23 3.91 3.91 0 0 1 1.3 1.13 12 12 0 0 1-.35 3.33 31.65 31.65 0 0 0-.58 3.65 26.63 26.63 0 0 0 2.61-2.83A10.25 10.25 0 0 1 91.85 52 10.31 10.31 0 0 1 90 54.09a7.87 7.87 0 0 0-1.8 2.16 6.7 6.7 0 0 0 2.07-1.8 9.41 9.41 0 0 1 1.89-1.89c-.12-.12-.18-.21-.18-.27a4.08 4.08 0 0 0 1.8-1.12q1-.94 1.89-1.75a3.19 3.19 0 0 0-1.8 1.08 3.18 3.18 0 0 1-1.71 1.08A6.25 6.25 0 0 1 93.74 50a3.12 3.12 0 0 1 2.07-.77 1.26 1.26 0 0 1 .95-.54 2.05 2.05 0 0 1 1 .27 10.42 10.42 0 0 1 .95.58 2.35 2.35 0 0 0 .9.41A2.8 2.8 0 0 1 101 52a13.38 13.38 0 0 1 .18 3.15q-.09 1.71-.27 3.51a7.53 7.53 0 0 0 .3 3.17zM94.1 51.75c.06.18.09.17.09 0s-.03-.24-.09 0zm.18-.18a.65.65 0 0 0 .63-.36.89.89 0 0 1-.4.09c-.16 0-.23.09-.23.27zm1.44-.9c0-.12 0-.18.09-.18s.09-.06.09-.18a.2.2 0 0 0-.18.36zM110 59c0-.18-.06-.24-.18-.18s0 .27.09.27A.08.08 0 0 1 110 59zm0-1.53c.18-.12.19-.1 0 0s-.09.13 0-.05zm.45-.27c.18-.12.19-.1 0 0s-.09.13.03-.05zm.63-.72h.27v.27h-.27zm1.35-.72a.52.52 0 0 1-.36.18.52.52 0 0 1 .39-.23zm2.34.36v.18a.08.08 0 0 0-.09.09h-.18v-.18l.09-.09zm.63-1h.27v.18h-.27z"/><path d="M117.5 66.78c-.12.06-.21 0-.27 0s-.09-.07-.09 0a1.55 1.55 0 0 0 .45.45c.24.18.3.36.18.54s-.08.25-.22.23-.25 0-.32.22a3.25 3.25 0 0 1-2-1.21 5 5 0 0 1-.94-2.16 9.66 9.66 0 0 1-.09-2.65 11.1 11.1 0 0 1 .58-2.7c-.12-.18-.1-.27 0-.27s.23-.06.23-.18q.72-2.7 1.4-5.18t1.4-5.17a1.67 1.67 0 0 1 1.71-.31q1 .32 1.71.58a2.78 2.78 0 0 1 .45 1.48 5.91 5.91 0 0 1-.18 1.55 12 12 0 0 1-.58 1.62 9.28 9.28 0 0 0-.54 1.53q-.9 2.88-1.8 5.54a22.66 22.66 0 0 0-1.08 6.09zm.72-6c.24.06.3 0 .18 0s-.18-.15-.18-.03zm7.11-28.17a11.52 11.52 0 0 1-.36 2.79 3.22 3.22 0 0 1-1.8 2.16 2.65 2.65 0 0 1-1.53-1 2.56 2.56 0 0 1-.36-1.94 9 9 0 0 0 1.94-1.22 3.28 3.28 0 0 1 2.11-.82zm33.39 18.69a4.32 4.32 0 0 1-1.89 1.7 4.2 4.2 0 0 0-1.89 1.8q-.36-.63-.54 0a12.3 12.3 0 0 0-2.75 1.75 15.92 15.92 0 0 1-2.93 1.94v.13l.14.14a8 8 0 0 0-1.94 1.35 4.05 4.05 0 0 1-2.39 1q.18.45-.54.81a4.47 4.47 0 0 0-1.17.81 6.09 6.09 0 0 0 2.16-1.08 12.44 12.44 0 0 1 2.25-1.35 1.35 1.35 0 0 1-.81.81 2.54 2.54 0 0 0-1 .63l-.09.09H145c.06.12.12.17.18.13a.14.14 0 0 0 .09-.13.08.08 0 0 0 .09-.09 2.36 2.36 0 0 0 1.57-.49 6.85 6.85 0 0 1 1.58-.95 3.19 3.19 0 0 1-1.51 1.3 3.05 3.05 0 0 0-1.53 1.4c-.12-.18-.31-.19-.58 0a.86.86 0 0 1-.68.13c.12 0 .19.12.23.36s0 .36-.23.36-.3 0-.18-.18.06-.3-.18-.36-.24.13-.18.23a3.24 3.24 0 0 1 .18.31.52.52 0 0 0-.63.09c-.24.18-.42.12-.54-.18q-.36.18 0 .41c.24.15.27.29.09.4a22.35 22.35 0 0 1-2.77 1.49 10.54 10.54 0 0 1-3.06 1q-1 .45-2 .81a8.08 8.08 0 0 0-1.84.9c-.12 0-.18 0-.18-.09s.07-.11 0-.13 0 0 0 .13a1.55 1.55 0 0 1-1 .5 7.82 7.82 0 0 1-1.44.13 7.1 7.1 0 0 1-1.4-.13 1.87 1.87 0 0 1-.85-.31.4.4 0 0 1-.27.23.79.79 0 0 0-.36.22 8.36 8.36 0 0 1-3.37-2.61 5.72 5.72 0 0 1-1.12-4v-.09a.72.72 0 0 1-.13-.18.71.71 0 0 0-.14-.18 19 19 0 0 1 1.85-5 26 26 0 0 1 2.75-4 32.41 32.41 0 0 1 3.28-3.42q1.75-1.57 3.56-3.1.9-.18 1.75-.41a5.87 5.87 0 0 1 2.21 0 14.33 14.33 0 0 1 1.35.58 4.18 4.18 0 0 1 1.08.77 3.65 3.65 0 0 0 .36.54 11.15 11.15 0 0 1-.94 2.43 1.91 1.91 0 0 1-2.12.9 1.15 1.15 0 0 1-.18-.85 1.44 1.44 0 0 0-.09-.85q-2.07 1.35-4 2.74a23.54 23.54 0 0 0-3.51 3.2 17.84 17.84 0 0 0-2.74 4.09 18.16 18.16 0 0 0-1.58 5.35 1.37 1.37 0 0 0 .36.72l.45.45a5.87 5.87 0 0 0 2.75-.09 19 19 0 0 0 2.11-.81 53.72 53.72 0 0 0 7.56-3.15q3.51-1.8 6.79-3.87t6.48-4.23q3.19-2.16 6.62-4.23c.24.3.21.54-.09.72a.46.46 0 0 0-.18.56zm-35.64 11.25v.09q-.18.09-.18 0c0-.06.1-.09.18-.09zm0-.45c.06.24.09.26.09 0s-.03-.18-.09 0zm.18-1.08c-.12.18-.1.21 0 .09s.18-.11 0-.11zm18.27 3.42a6.8 6.8 0 0 0-2.52.85 8.21 8.21 0 0 1-2.61.94 8.25 8.25 0 0 0 2.79-.63 21.21 21.21 0 0 0 2.34-1.17c.06-.06.07-.1 0-.13s0 .02 0 .14zm-4.41.27q.36.18.18 0c-.12-.12-.18-.12-.18 0zm.72-.18a4 4 0 0 1 .67-.27.86.86 0 0 0 .5-.36 1.13 1.13 0 0 0-1.17.63zm.72 1.71c.3.12.45.09.45-.09a1 1 0 0 1-.45.09zm3-1.17a1.84 1.84 0 0 0-1.08.31 4.44 4.44 0 0 1-.9.5c-.18 0-.27.06-.27.18.18 0 .27-.06.27-.18a1.79 1.79 0 0 0 1.13-.31 3.55 3.55 0 0 1 .85-.5.39.39 0 0 0 .31-.18q.13-.18 0-.27a.16.16 0 0 1-.18.18c-.19 0-.22.09-.16.27zm-2-.63c-.12.06-.15.11-.09.14s.09 0 .09-.14.15 0 .09 0-.1-.06-.1 0zm1.17-1.53c.24.12.31.12.23 0s-.18-.12-.24 0zm.27-.72c-.12.12-.12.23 0 .31a.33.33 0 0 1 .09.41 2.06 2.06 0 0 0 1-.81c-.18.12-.29.17-.31.13l-.23-.23a1.59 1.59 0 0 1-.23.45q-.15.19-.32-.26zm1-.36q.36.18.18 0c-.18-.19-.18-.18-.18 0zm.18 2.7c-.12.06-.15.09-.09.09a.08.08 0 0 0 .09-.09c.12.06.24 0 .36-.18-.26-.06-.38 0-.38.18zm-.09-.36c.12.12.19.11.23 0s0-.23-.14-.23a.08.08 0 0 1-.09.09zm.27-1.08c0-.06.06-.09.18-.09a2.81 2.81 0 0 0-.27-.36.7.7 0 0 0 .07.45zm0-1.08h.36c0-.18-.12-.24-.36-.18zm1 1.53c-.12.18-.11.21 0 .09s.15-.15-.03-.09zm.09-1.71a.15.15 0 0 1 .13.09.14.14 0 0 0 .13.09v-.27a.14.14 0 0 1-.13-.09.15.15 0 0 0-.13-.09zm.45-.18a.32.32 0 0 0 .36-.36.21.21 0 0 0-.22.13.58.58 0 0 1-.17.23zm1.08 1.71c-.12-.06-.18 0-.18.09-.18-.06-.21-.14-.09-.23a.32.32 0 0 1 .36 0c.03.14 0 .2-.12.14zm5.85-7.2c-.06-.06-.09 0-.09.09a.52.52 0 0 0-.36.18.83.83 0 0 0-.67.27 1.67 1.67 0 0 1-.68.45.21.21 0 0 1 .14-.23.21.21 0 0 0 .13-.22.23.23 0 0 0-.31.09.25.25 0 0 0 0 .36q-.09.18-.27 0l-.18-.18q.18.63-.31.68a.75.75 0 0 0-.68.5.52.52 0 0 0-.36.09c-.12 0-.24.12-.36.36a.91.91 0 0 0-.72.45c-.06-.18-.09-.21-.09-.09a.3.3 0 0 0-.27.13 2.23 2.23 0 0 1-.27.31.41.41 0 0 0 .36-.13A3.18 3.18 0 0 0 146 59l.09.09a.9.9 0 0 0 .72-.45q.18 0 .36-.36a.29.29 0 0 0 .36-.09 3.6 3.6 0 0 0 1.49-.72q.67-.54 1.3-1c.24.06.36 0 .36-.18l.09-.09c.12-.06.15-.1.09-.14s-.06-.06-.06.1zm-4.5 5.94a.08.08 0 0 1 .09-.09c0-.18-.09-.24-.27-.18a.15.15 0 0 1 0 .18c-.02.06.03.09.15.09zm.18-3.78q.36.18.18 0c-.15-.12-.21-.12-.21 0zm.9-.45c.06.06.09 0 .09-.09s-.18.03-.12.09zm.36 2.16c-.12.24-.24.36-.36.36.09-.24.21-.39.33-.39zm.81 0a.68.68 0 0 0-.5 0c-.09.06-.11 0 0-.27a.79.79 0 0 0 .36.09.16.16 0 0 1 .11.15zm-.36-2.79l-.09.09c-.12.06-.15.11-.09.13s.09 0 .09-.13c.06.06.09 0 .09-.09s.15 0 .09 0-.12-.06-.12 0zm.09 1.53a.52.52 0 0 0-.18-.36c-.03.24.03.36.15.36zm.27 1.26a.47.47 0 0 0 .18.23c.06 0 .06.11 0 .23s-.12-.06-.18-.18zm.45-.63a.52.52 0 0 1-.36.18c-.03-.12.09-.18.33-.18zm.27.09q.09.36-.54.36c.24-.24.39-.36.51-.36zm-.45-.72c.06-.24.15-.3.27-.18s0 .18-.3.18zm.72.18a2.1 2.1 0 0 0-.27.31.3.3 0 0 1-.27.13q.15-.39.51-.39zm-.27.54a.08.08 0 0 1 .09-.09c.03 0 0 .03-.12.09zm.36.09c0 .12 0 .17-.09.13s-.06-.07.06-.13zm0 0a.08.08 0 0 1 .09-.09.08.08 0 0 1-.12.09zm.09-.09c0-.06 0-.07.09 0s0 0-.12 0zm1-1.35c-.06.24-.15.3-.27.18s-.07-.18.23-.18zm.18.9a1.72 1.72 0 0 0-.13.36c0 .12-.14.18-.32.18.18-.12.23-.24.14-.36s-.03-.22.27-.22zm-.27-3.24c.24.12.3.11.18 0s-.22-.18-.22 0zm.09 2.34a.08.08 0 0 1 .09-.09c-.04.12-.07.15-.13.09zm.09-.09c0-.18.06-.19.18 0s-.02.12-.22-.05zm.18.54v.14c0-.03-.1-.08-.02-.14zm0 0q.09-.18.27 0t-.29 0zm1.62-3.51l-.09.09a.81.81 0 0 0-.72.45c-.06 0-.15.06-.27.18-.06-.06-.09 0-.09.09q-.27 0-.27.18c-.12-.06-.15 0-.09 0s.09.08.09 0c.18 0 .27-.06.27-.18l.09-.09c.06 0 .15-.06.27-.18a.9.9 0 0 0 .72-.45c.06.06.09 0 .09-.09a.74.74 0 0 0 .45-.27c-.12-.06-.21 0-.27 0a1.53 1.53 0 0 1-.22.27zm-.9 2.52a.4.4 0 0 0-.23.27.21.21 0 0 1-.23.18.4.4 0 0 1 .42-.45zm1.71-.81c0-.06 0-.07-.09 0a.15.15 0 0 1-.18 0q0 .09.27.09-.09.45-.4.23t-.41.22c-.18-.06-.3 0-.36.09a.36.36 0 0 1-.36.18q.72-.54 1.48-1a6.23 6.23 0 0 1 1.75-.77q-.45.36-.85.63a4.64 4.64 0 0 1-.89.33zm-.9.72c0 .06 0 .08-.09 0s-.07 0 .05 0zm0 0c0-.12 0-.18.09-.18s-.07.18-.13.18zm.09-.18v-.09h.27c-.16.12-.25.15-.31.09zm.45.18c0 .18-.06.21-.18.09s-.1-.15.09-.09zm-.09-1.8c.12-.18.18-.18.18 0s-.1.18-.18 0zm.09 1.8c0-.12 0-.18.09-.18s-.07.18-.18.18zm.09-.18c0-.06 0-.07.09 0s-.01 0-.13 0zm.27-2.79q.27.27.27 0-.31-.27-.31 0zm.72-.36c-.24-.06-.3 0-.18.09s.18.09.18-.09h.09c-.06 0-.13-.06-.13 0zm.27.63c.24 0 .3 0 .18.13s-.22.06-.22-.13zm.36 1.44c.18.12.21.18.09.18a.16.16 0 0 0-.18.18c-.18-.12-.21-.19-.09-.23s.14-.07.14-.13zm.45-.09c0-.18.06-.21.18-.09s.02.15-.22.09zm1.26-3.29c.06 0 .09 0 .09-.14q-.22.1-.13.15zm2.25-1.58c-.06-.12-.06-.16 0-.13s.02.08-.04.14zm48.74.82a2.79 2.79 0 0 0 1 .72c0 .12-.06.17-.18.13a.51.51 0 0 0-.36 0c0 .18.15.33.45.45 0-.18.12-.3.36-.36l1.35.85 1.35.85c.18-.24.22-.36.13-.36s-.13-.09-.13-.27a2.44 2.44 0 0 1 .63.45 3.6 3.6 0 0 0 .54.45c.06.12.06.2 0 .23s-.09.11-.09.22.22.09.31-.09.19-.21.31-.09.12.38 0 .4-.12.17 0 .41c.18 0 .27-.15.27-.45a1.63 1.63 0 0 0 .85.67 1.06 1.06 0 0 1 .68.95 3.58 3.58 0 0 1 .81.45 3.47 3.47 0 0 0 .81.45c0 .12 0 .18-.09.18s-.09.06-.09.18.06.17.18.14a1.49 1.49 0 0 1 .36 0q2 2.34 3.78 4.72a17.88 17.88 0 0 1 2.79 5.72.08.08 0 0 1-.09-.09c0-.06-.06-.09-.18-.09q.36 1.8.63 3.78a13.32 13.32 0 0 1 0 3.78 4.06 4.06 0 0 1-.86 2.07 17.25 17.25 0 0 0-1.3 1.8 1.36 1.36 0 0 0-.72.36 2.39 2.39 0 0 0-.45.63q-.27.27-.45 0a.54.54 0 0 1-.09.54 2.19 2.19 0 0 1-.41.31 4.64 4.64 0 0 0-.4.27.23.23 0 0 0-.09.31 2.19 2.19 0 0 0-1 .5 1.76 1.76 0 0 1-1 .41c-.12 0-.17.07-.14.22a.43.43 0 0 1-.13.41 1.38 1.38 0 0 0-1.21.4 1.07 1.07 0 0 1-.95.41 4.85 4.85 0 0 1-2.29.94 7.38 7.38 0 0 0-2.38.77 1.55 1.55 0 0 1-.63-.09 1.46 1.46 0 0 1-.63.18 1.24 1.24 0 0 0-.9.27 14.29 14.29 0 0 1-2 0 5.4 5.4 0 0 0-1.76.14q-2.07-.36-4.09-.9a5.45 5.45 0 0 1-3.19-2.25 6.71 6.71 0 0 1-.23-3q.22-1.44.58-3a5.2 5.2 0 0 0 .81-1.08 8.14 8.14 0 0 1 .72-1.08 28.22 28.22 0 0 1 4-2.21 22 22 0 0 1 4.68-1.48 3.71 3.71 0 0 1-.58.31l-.67.31c.06.18.13.21.22.09a.23.23 0 0 1 .32-.09.77.77 0 0 1-.81.54q-.18.18-.09.22c.06 0 0 .1-.09.23a19.79 19.79 0 0 0-3.1 2.21q-1.4 1.22-3 2.48a.44.44 0 0 1 0 .5c-.09.15 0 .22.22.22l-.72 1.08a9.87 9.87 0 0 0-.63 1.08q1.26.54 2.29 1a6.69 6.69 0 0 0 2.84.5c.18 0 .27.06.27.18a42 42 0 0 0 5.45-.36 15.56 15.56 0 0 0 5.17-1.62 2.43 2.43 0 0 0 .54 0 1.84 1.84 0 0 1 .45 0 1.26 1.26 0 0 1 .81-.58q.54-.14.63-.41h.18-.07q1.71-1.44 3.6-3.1a5.63 5.63 0 0 0 2-4.19 2.68 2.68 0 0 0 0-1.12 2.29 2.29 0 0 1 0-1 2.55 2.55 0 0 0-.41-.81A1.53 1.53 0 0 1 222 69a.37.37 0 0 0-.27-.09 20.59 20.59 0 0 0-3-4.86 36 36 0 0 0-3.82-3.87c0-.24-.08-.39-.23-.45a.35.35 0 0 1-.22-.36c-.12 0-.17 0-.14.14s0 .13-.13.13a9.27 9.27 0 0 0-2.29-1.84 8.24 8.24 0 0 1-2.12-1.67.81.81 0 0 1-.22.09l-.31-.09a2.06 2.06 0 0 1-.72-.72q-.27-.45-.72-.09a.37.37 0 0 1 .09-.27 1.45 1.45 0 0 1-.58-.23.93.93 0 0 1-.5-.58.21.21 0 0 0-.22.18c0 .12-.08.09-.14-.09a10.46 10.46 0 0 1-1.3-.77 4 4 0 0 0-1.39-.58c0-.18-.08-.27-.22-.27s-.2-.06-.14-.18a6.07 6.07 0 0 1-1.93-.95 5 5 0 0 0-1.94-.85l-.95-.58a4.14 4.14 0 0 0-1.21-.49 2.09 2.09 0 0 0-1.35-.81 1.68 1.68 0 0 1-1.26-.9c-.18.12-.33.14-.45 0a.47.47 0 0 0-.45 0q-1.53-1.17-3.2-2.2a19.34 19.34 0 0 1-3-2.3c.12-.3.1-.48 0-.54a.35.35 0 0 1-.23-.36h-.27a.18.18 0 0 1 0-.13.19.19 0 0 0 0-.14.3.3 0 0 1-.27-.13 1.31 1.31 0 0 0-.54-.31 9.08 9.08 0 0 1-1-4.27 14.51 14.51 0 0 1 .67-4.73 14.82 14.82 0 0 0 1.44-2.7 1 1 0 0 0 .72-1.08q1.17-1.17 2.43-2.21a18.53 18.53 0 0 0 2.34-2.29 12.5 12.5 0 0 0 3-2A10.38 10.38 0 0 1 199 20.7a10.55 10.55 0 0 1 2.61-1.62 7.12 7.12 0 0 0 2.43-1.71 18.93 18.93 0 0 0 4.1-1.94 17.88 17.88 0 0 1 4.28-1.94q.72-.45 1.53-.85t1.53-.85a4.54 4.54 0 0 0 2.07-.58 4.58 4.58 0 0 1 2.07-.58 11.18 11.18 0 0 1 4.23-1.76 27.19 27.19 0 0 0 4.5-1.3l3.33-.72q1.71-.36 3-.54c.12.12.18.21.18.27a12.57 12.57 0 0 1 4.28-.4 13.66 13.66 0 0 1 4.45.94.54.54 0 0 0 .32.36c.15.06.23.24.23.54.12.12.21.14.27 0s.15-.07.27 0q.54.9 1.26 2a14.6 14.6 0 0 1 1.21 2.34 8.09 8.09 0 0 1 .58 2.48 4.8 4.8 0 0 1-.63 2.61l-.5.5a.68.68 0 0 0 0 .85 15.38 15.38 0 0 0-3.42 3.42 7.83 7.83 0 0 1-1.67 1.26l-1.84 1.08a3.6 3.6 0 0 0-1.35.45 8.18 8.18 0 0 0-1.17.81 7.67 7.67 0 0 0-1.75.23c-.63.15-1.25.29-1.84.4a8.86 8.86 0 0 1-1.75.18 3.38 3.38 0 0 1-1.67-.45 8.75 8.75 0 0 1 3.87-3 30 30 0 0 0 4.54-2.18 10.24 10.24 0 0 1 2-1.39 4.55 4.55 0 0 0 1.69-1.61.53.53 0 0 0 .54-.09 6.29 6.29 0 0 0 .95-1.22 6.82 6.82 0 0 1 1-1.3 3.52 3.52 0 0 1 .57-1.39 1.73 1.73 0 0 0 .18-1.53 12.66 12.66 0 0 0-6.17-1.84 34.65 34.65 0 0 0-6.88.22 15.7 15.7 0 0 0-3.33.77 12.33 12.33 0 0 1-3.33.67c-.06 0-.09.09-.09.27q-.72.09-1.58.27a13.32 13.32 0 0 0-1.39.36 4.16 4.16 0 0 0-.54.22 5.15 5.15 0 0 0-.54.32 12.53 12.53 0 0 1-2 .72q-1 .27-2 .63a6.85 6.85 0 0 0-1.39.72q-.68.45-.86 0-.18.45-.4.27t-.59.09c-.06.18 0 .21.09.09s.21-.06.27.18-.08.17-.23.14a2.12 2.12 0 0 0-.41 0 5.12 5.12 0 0 1-2 1 3.78 3.78 0 0 0-1.8 1c-.18.06-.29 0-.32-.09s-.11-.15-.23-.09-.13.21 0 .27.08.15 0 .27a32.94 32.94 0 0 0-4 1.8q-1.85 1-3.74 2.16c-.06 0-.15-.06-.27-.18-.18.06-.21.12-.09.18a.18.18 0 0 1 .09.27 46 46 0 0 0-4.81 3q-2.3 1.62-4.63 3.24a1 1 0 0 1-.72.67.69.69 0 0 0-.54.77A16.12 16.12 0 0 0 188 34a6.33 6.33 0 0 0-1 4.59 7.82 7.82 0 0 0 2.75 3q1.75 1.13 3.38 2.38a6.16 6.16 0 0 1 2.52 1.17 7.07 7.07 0 0 0 2.52 1.26v.27a1.06 1.06 0 0 1 .95.23 2.13 2.13 0 0 0 .94.5c0 .24-.06.36-.18.36a.16.16 0 0 0-.18.18.87.87 0 0 0 .68.45 1.41 1.41 0 0 1 .76.36.25.25 0 0 0 0-.31.55.55 0 0 1-.13-.4q.63.27 1.49.67a9.83 9.83 0 0 1 1.48.85c0 .3 0 .41-.13.31a.7.7 0 0 0-.5-.13c0-.12 0-.18.09-.18s0-.06-.09-.18-.2 0-.23.09-.13.06-.31 0a1 1 0 0 0-.63-.58 2.87 2.87 0 0 0-.81-.14 14.27 14.27 0 0 0 3.87 2.16v.36c.18-.12.48-.09.9.09s.57.42.45.72q-.36.09-.18-.13c.12-.15.12-.23 0-.23s-.17 0-.13.09a.15.15 0 0 1 0 .18 2.31 2.31 0 0 0 .77.77 1.26 1.26 0 0 0 .94.22.55.55 0 0 0-.54-.4.54.54 0 0 1-.54-.4c.06-.12.14-.14.23 0s.12.05.36-.07zm-19.08-20h.18v-.27h-.18zm.81-3a.44.44 0 0 1 .22-.41c.15-.09.13-.19 0-.31 0 .12-.11.24-.31.36s-.21.25.09.41zM189 31.5h.18v-.27H189zm.4-2.48c0 .15.1.17.41 0-.19-.13-.33-.14-.36-.02zm.23-.5a.4.4 0 0 1 .27-.22c.12 0 .18-.14.18-.32a.62.62 0 0 0-.41.23c-.1.16-.11.26.01.32zm.18 2.16c.06.24.09.24.09 0s.02-.23-.04.01zm.54-2.88a.67.67 0 0 1 .22-.27.67.67 0 0 0 .23-.27.37.37 0 0 0-.45.18c-.07.19-.07.31.05.37zm-.09 1.62a.08.08 0 0 0 .09.09c0-.12 0-.18.09-.18a.08.08 0 0 0 .09-.09h-.27zm.54.36c-.12.3-.11.39 0 .27s.2-.2.05-.26zm.09-2.61c0 .12 0 .17.09.13a.29.29 0 0 0 .14-.18.76.76 0 0 0 0-.18s-.09 0-.27.13zm1-.72a1.73 1.73 0 0 1-.36.13c-.12 0-.15.14-.09.32q.45-.18.45-.45c.24 0 .3-.06.18-.18s-.14-.05-.14.19zm-.45 2.07h.18v-.18h-.18zm1.08-2.61a1.43 1.43 0 0 1-.36 0q-.18 0-.09.23c.3 0 .45-.06.45-.18q.36 0 .36-.27a.35.35 0 0 0-.32.23zm-.18 2.34v.18h.18c.12-.12.09-.21-.09-.27a.08.08 0 0 1-.05.1zm.54 17.64c.06.12.09.08.09-.13s.03-.16-.05.14zm.12-20.33a.68.68 0 0 0 .41-.18c.15-.12.13-.24 0-.36a.26.26 0 0 1-.32.13c-.19-.02-.2.11-.09.41zm.63 1.08c-.18 0-.27 0-.27.09q.28 0 .28-.09zm-.18-1.71a.46.46 0 0 0 .67 0l.5-.49a2.17 2.17 0 0 0-.59.22zm0 1c.24 0 .36-.09.36-.27-.23-.01-.35.08-.35.26zm.27 1.08a.39.39 0 0 0 .54-.09c-.18.06-.3 0-.36-.09s-.11-.07-.17.17zm.18-.45c.06.18.09.17.09 0s.01-.25-.08-.01zm.19 18.44c-.12.12 0 .18.23.18s.41 0 .41-.09l-.32-.18c-.1-.06-.2-.03-.32.09zm.63-18.09c0-.12 0-.18-.09-.18s-.09.06-.09.18q.09-.09.13 0c.03.09.05.09.05 0zm0-.72q.09.27.13 0t-.13 0zm.72 19.26c-.24.12-.38.11-.41 0s-.13-.19-.31-.13a.68.68 0 0 0 .36.4c.18.05.3-.03.36-.27zM195 24l.41-.22c.15-.09.17-.19 0-.32a.57.57 0 0 1-.36.27c-.15.09-.18.18-.05.27zm.27 2.43c.18-.06.21-.13.09-.23s-.16.02-.1.26zm.45 19.26c-.12-.12-.18-.06-.18.18s-.08.15.14.09.21-.12.03-.24zm-.09-22a5.17 5.17 0 0 1 1.66-1.08 3 3 0 0 0 1.4-1.17q-.81.45-1.62.85a3.72 3.72 0 0 0-1.45 1.38zm.09 1.53c.12.18.19.17.22 0s-.05-.22-.23-.02zm1 21a.72.72 0 0 0-.45-.09c-.06.12 0 .2.14.23a.26.26 0 0 0 .29-.19zm-.45-22.32a.15.15 0 0 1 .18 0h.09c-.2-.14-.29-.11-.29-.05zm.09 1.62c-.06.3 0 .38.14.23s.08-.28-.16-.28zm.14-.49q.13.23.13-.14c.24-.06.3-.13.18-.23s-.18 0-.18.23q-.29-.14-.16.11zm.32 23h.27c0-.24-.09-.36-.27-.36zM197 25.2a.23.23 0 0 0 .31-.09c.09-.12.07-.21 0-.27.06.12 0 .15-.18.09s-.28.07-.13.27zm0-1.71c.24 0 .36-.09.36-.27-.27 0-.36.09-.36.27zm.15 24.51c-.18.24-.15.32.09.23s.21-.23-.09-.23zm.81.45a.55.55 0 0 1 .13-.27c.09-.12 0-.18-.13-.18s-.21.12-.27 0a.41.41 0 0 0 .31.42zm0-25.65c-.12.24-.09.27.09.09s.15-.24-.05-.12zm.18 1.71c.06.06 0 .06 0 0s-.14-.09 0-.03zm.36 24.39q.27-.18 0-.36c-.18-.12-.3-.12-.36 0a.16.16 0 0 1 .18.18.16.16 0 0 0 .18.15zm0-1.53a.25.25 0 0 0 0-.31c-.09-.09-.17-.07-.22 0 .12 0 .18 0 .18.09a.25.25 0 0 0 .04.19zm-.18 30.06v-.09a.08.08 0 0 1 .09-.09c0-.18-.06-.24-.18-.18 0 .21.03.33.09.33zm.09-53.19c.12.06.24 0 .36-.27-.12 0-.2 0-.23.09a.7.7 0 0 1-.13.15zm.18-.63h.18c.09 0 0-.09 0-.09v-.09c0-.09-.09 0-.09 0h-.09c-.09 0 0 .09 0 .09v.06zm.63 54.09c.06-.3 0-.45-.13-.45h-.5q0 .42.63.42zm-.54-55.35q.09.18.27 0c.12-.12.09-.21-.09-.27 0 .12 0 .17-.09.14s-.09-.02-.09.1zm.09 26.55c-.06.3-.06.33 0 .09s.06-.3 0-.12zm0-.36c.18 0 .27 0 .27-.09s.06 0 .18.09c.06-.24 0-.36-.22-.36s-.29.09-.23.33zm.54-27c.06-.24-.12-.36-.54-.36 0 .21.18.33.54.33zm-.45 26.19q.45-.18.45 0c0 .15.09.26.27.31q.09-.45-.22-.5a1.37 1.37 0 0 1-.58-.23.35.35 0 0 0 0 .23.19.19 0 0 1 .08.16zm.54 34.92c0-.24-.21-.36-.63-.36q0 .15.63.33zm2.16-63a4.06 4.06 0 0 0-1 .85.25.25 0 0 1-.18-.09 1.76 1.76 0 0 1-.63.41.68.68 0 0 0-.45.4.08.08 0 0 1 .09.09c0 .06.06.09.18.09s.17-.23.13-.31 0-.14.14-.14a.25.25 0 0 0 .36 0 .25.25 0 0 1 .36 0v-.54c.06-.06.16-.06.32 0s.22 0 .22-.09a.77.77 0 0 1 .32-.31 1.89 1.89 0 0 0 .4-.23l.09.18a5.16 5.16 0 0 1 .9-.58 5.06 5.06 0 0 0 .9-.58 4.49 4.49 0 0 0 .9-.5l.72-.5a.25.25 0 0 0 .32 0q.14-.13-.13-.23a4.49 4.49 0 0 0-1.4.63 12.61 12.61 0 0 1-1.39.81v.09a3.18 3.18 0 0 0-1.17.48zm-2.16 28.86c.06.18.1.17.13 0s-.01-.24-.13 0zm.27.9c.06-.18 0-.28 0-.32a.54.54 0 0 1-.22-.13.42.42 0 0 0 .22.45zm-.09-.72a.18.18 0 0 1 .27.09q.09.18.27 0a.38.38 0 0 1-.32-.22q-.13-.23-.22.13zm.27-25.92h-.09c-.06 0-.09.06-.09.18a.16.16 0 0 0 .18-.18zm.27 26.46h-.27v.27c.15 0 .27-.09.27-.27zm.27 26.55q-.36 0-.36.27a.26.26 0 0 0-.18.09c.12 0 .18 0 .18-.09.24 0 .36-.09.36-.27a.86.86 0 0 0 .81-.27.27.27 0 0 0-.41 0 2.43 2.43 0 0 1-.4.27zm-.27-28.17a4 4 0 0 0 .49.14.28.28 0 0 1 .22.31.78.78 0 0 1-.83-.06v-.18s.12-.09.12-.21zm0-24.12c-.12.12-.11.12 0 0s.18-.12 0 0zm.27 26.1c-.18 0-.27 0-.27.09.18 0 .27-.03.27-.09zm-.18-28.08c.12.06.15.06.09 0s-.09-.06-.09 0zm0 27.45h.18v-.18h-.18zm.45-26.64c-.18 0-.27 0-.27.09.18 0 .27-.03.27-.09zm.63 28.26a.54.54 0 0 1 .67.09c.15.18.29.18.41 0a1.53 1.53 0 0 0-.54-.31 1 1 0 0 1-.54-.58c-.12.18-.26.17-.41 0s-.32-.25-.5-.14q.18.54.5.5c.21-.08.35.08.41.44zm-.63 33.66c-.18 0-.27 0-.27.09.18 0 .27-.03.27-.09zm0-35h.18c.12-.12.09-.19-.09-.23s-.24 0-.18.14a.08.08 0 0 1 .09.08zm0-26.28q.09.36.09 0t-.09.04zm.09-1.8h.18V21h-.18zm.36-.81c-.12 0-.18 0-.18-.09s.06-.12.18-.18zm-.18 2.7a.23.23 0 0 0 .32-.09c.09-.12.07-.21 0-.27 0 .12 0 .18-.14.18s-.18.05-.18.13zm0 26.19c.12.24.18.26.18 0s-.11-.24-.18-.01zm.27-27.09v-.27a.26.26 0 0 1-.09.18c-.11.05-.03.08.09.08zm0-1.17a.61.61 0 0 0 .45-.18.23.23 0 0 0 0-.36c-.06.18-.13.29-.22.31a.41.41 0 0 0-.23.25zm.18 54.54c-.06-.12 0-.22.18-.31s.18-.2 0-.31a.91.91 0 0 1-.27.31c-.12.08-.09.18.09.3zm-.09-25.92c.12.18.18.17.18 0s-.06-.25-.18-.01zm.09-27.18h.27v-.27h-.27zM202.73 50l-.54-.27a1.27 1.27 0 0 0-.54-.09 1.23 1.23 0 0 0 .41.41.53.53 0 0 0 .67-.05zm-.81 1h-.09l-.09.09c.12-.09.18-.09.18-.15zm.18 23.85h.41c.15 0 .16-.06 0-.18-.26-.06-.41 0-.41.12zm.27-54.72q-.09.09 0 .14t0-.14c.48-.12.72-.21.72-.27a.81.81 0 0 0-.36.09zm0 1.71c0 .06 0 .09.13.09s0-.18.13-.18.13 0 .13-.09-.2 0-.22 0h-.22a.15.15 0 0 1 .09.12zm3.46 62.73v-.27a2.62 2.62 0 0 1-1.67 0 2 2 0 0 0-1.84.45l3.1.14a6.89 6.89 0 0 0 2.83-.59c0 .18.06.27.18.27.12-.36.27-.47.45-.31s.42.14.72 0c-.06 0-.09-.15-.09-.45a5.27 5.27 0 0 0-2 .36 2.63 2.63 0 0 1-1.62.18c.11.07.05.16-.01.16zm-3.06-65.34c0 .06 0 0-.09-.09a.08.08 0 0 1 .14.03zm1.26 32.31a1.43 1.43 0 0 1-.63-.31c-.3-.21-.54-.25-.72-.14 0 .12.19.27.58.45s.74.12.82-.06zm-1.17 23.13c.18 0 .27-.06.27-.18H203v.09s-.09-.03-.09.03zm.27-52.74h.18v-.33h-.18zm.72-1.53c-.12 0-.18 0-.18.09s.23-.09.23-.15zm-.09-.81c.06 0 .15-.06.27-.18-.19-.06-.28 0-.22.12zm.09 31.14a.51.51 0 0 0 .18.36.52.52 0 0 0-.13-.42zm.09-.81a2.31 2.31 0 0 1 1.62.68 4 4 0 0 0 1.71.94q-.09.18-.58.13t-.32-.4q-.63.18-.54-.45a.4.4 0 0 1-.63-.09c-.18-.24-.36-.27-.54-.09.05-.42-.19-.64-.66-.78zm.27-30.78c-.06.06-.11.08-.14 0s0 0 0 .13c.06-.06.1-.07.13 0s.06-.07.06-.19zm0 32c-.12.18-.11.2 0 0s.23-.14.05-.02zm0 .45a.44.44 0 0 0 .09.45.83.83 0 0 1 .81-.23 7.67 7.67 0 0 1 .72.31.48.48 0 0 0-.36-.54 3.36 3.36 0 0 1-.72-.27c.12.24.09.35-.09.31a2.93 2.93 0 0 0-.4-.05zm.09-32.49c.12.18.18.17.18 0s-.01-.26-.13-.02zm0 33.3c.12.18.18.17.18 0s-.01-.26-.13-.02zm.36 21.33c-.18 0-.27 0-.27.09.23-.02.32-.05.32-.11zm-.09-53.19v.09c0-.06-.01-.11.05-.11zm.18 31.68h.25c.12-.12.09-.19-.09-.23s-.24 0-.18.13a.08.08 0 0 1 .07.08zm.76 21.28c.21-.09.19-.2 0-.31 0 .12-.08.19-.23.23a.41.41 0 0 0-.31.23 1.49 1.49 0 0 0 .59-.17zm-.23-20.92q0-.09.09 0c0-.24-.06-.36-.18-.36.06.22.09.34.15.34zm.18-34h.27v-.27h-.27zm.27 1.71c-.18 0-.27 0-.27.09.24-.04.33-.07.33-.13zm-.27 32.13a3.26 3.26 0 0 0 .81.72.87.87 0 0 0 1 .09 4.83 4.83 0 0 0-1.75-.85zm.18-34.92q.18.36.54.09a5.24 5.24 0 0 0 .54-.45 1.75 1.75 0 0 0 .63-.23 1 1 0 0 0 .54-.5l-1.26.63q-.48.24-.93.42zm.18.81c.24 0 .36-.06.36-.18H206v.09s-.12-.01-.12.05zm.63 1.62zm.27 53.19c.24-.12.27-.11.09 0s-.15.14-.03-.04zm3.06-18c0 .12.06.12.18 0s.06-.12-.18 0c-.42-.36-.82-.69-1.21-1a5 5 0 0 0-1.3-.72 2.93 2.93 0 0 0 1.08.94c.47.19.95.44 1.49.74zm-2.34-3v-.36a4.2 4.2 0 0 1 1.17.54 6.52 6.52 0 0 1 1 .81.75.75 0 0 1-.61-.11 6.07 6.07 0 0 1-.54-.4l-.49-.4a.5.5 0 0 0-.47-.09zm.81 2.34c-.3 0-.45 0-.45.09.36.29.51.26.51-.1zm-.09-37.71c.06-.42.27-.63.63-.63a.88.88 0 0 0 .81-.45 1.47 1.47 0 0 0-1 .27q-.6.35-.38.8zm.45 68.13c0-.06 0-.09-.13-.09s-.13 0-.13.09 0 .18.13.18.25-.06.19-.19zm-.09-31.32q.09.36.09 0t-.03-.01zm2.52.54a1.93 1.93 0 0 1-.76-.31 5.33 5.33 0 0 0-.68-.4c.18-.18.44-.15.77.09a2.88 2.88 0 0 1 .73.61zm1.26 29.07a.74.74 0 0 0-.45-.27 1.31 1.31 0 0 1-1.17.4c-.54 0-.87.16-1 .58a1.2 1.2 0 0 0 1.53-.27.31.31 0 0 0-.27 0c-.06 0-.09 0-.09-.13a1.39 1.39 0 0 1 1 0q-.18-.36.13-.27a2.09 2.09 0 0 0 .41.09 4.65 4.65 0 0 0 .45-.27c.18-.12.21-.24.09-.36a1.06 1.06 0 0 0-.57.49zM210.69 15c0-.06 0-.09-.13-.09a.43.43 0 0 1-.36.31c-.18 0-.3.17-.36.41a.88.88 0 0 0 .63-.18.68.68 0 0 1 .63-.09.4.4 0 0 1 .45-.45.4.4 0 0 0 .45-.45 2.3 2.3 0 0 0-1.26.72.14.14 0 0 1-.05-.18zm-.4 3c-.24-.06-.32 0-.23 0s.17.08.23 0c.12.12.18.11.18 0s-.06-.18-.18 0zm.18 37.62c.12-.18.18-.15.18.09s.09.3.27.18.08-.41-.13-.5a4.59 4.59 0 0 0-.67-.23.21.21 0 0 0 .14.23.42.42 0 0 1 .21.23zm.45-37.89c-.12 0-.18 0-.18.09s.18-.03.18-.09zm0 37.35c-.06.3 0 .38.14.23s.1-.23-.14-.23zm.18 1c.24 0 .36-.09.36-.27q-.36-.01-.36.26zm.45-.54c.12-.12.12-.18 0-.18a.29.29 0 0 1-.27-.18c-.06.23.03.35.27.35zm.36.36a.18.18 0 0 1-.13 0 .36.36 0 0 0-.22 0c-.06.12 0 .23.13.31s.1.23-.13.41a.9.9 0 0 1 .54.13.6.6 0 0 0 .36.14c-.06.24 0 .33.18.27a.25.25 0 0 0 .18-.36h-.36q-.09-.36-.36-.41c-.18 0-.24-.19-.18-.49a1.59 1.59 0 0 1 .45.18c0-.24-.08-.36-.22-.36s-.24.05-.24.17zm.45-.36q0-.63-.27-.72-.18.27 0 .4zm-.18 27.09h-.09l-.09.09c.12-.01.18-.04.18-.1zm.27-68.13a.36.36 0 0 0-.36.18c.24 0 .36-.06.36-.18.12.12.25.11.4 0l.41-.4a1.43 1.43 0 0 0-.81.39zm-.09 41.76c.12.06.18 0 .18-.18s-.06-.24-.18-.18zm.27 26.46v-.36c-.18 0-.27 0-.27.09s.17 0 .14.14.01.12.13.12zm0-26.82c.18.06.33 0 .45-.27-.3-.13-.45-.04-.45.26zm1.62 2.1c-.06 0-.06-.1 0-.23-.36.06-.57 0-.63-.22s-.24-.32-.54-.32a2 2 0 0 0 .5.63 1.63 1.63 0 0 0 .76.36c0-.11-.03-.22-.09-.22zm-.72-42.07c.12-.12.1-.21 0-.27s-.26 0-.32.09a.15.15 0 0 1 .14.09c-.02.06.06.09.18.09zm-.18-1.93c.12.18.27.12.45-.18a.61.61 0 0 0-.45.18zm.65 42.52c.06-.12 0-.23-.22-.31s-.35-.07-.41 0a1.1 1.1 0 0 1 .27.18.52.52 0 0 0 .36.13zm-.45-40.05q-.18.27.09 0c.16-.1.13-.12-.11 0zm.45-.36h.18c.06-.18 0-.28-.18-.31s-.24 0-.18.14h.09a.27.27 0 0 1 .09.17zm0-2.11l.58-.31c.27-.15.37-.28.32-.41a.89.89 0 0 1-.54.23c-.26.07-.36.23-.36.49zm.36 69.12v-.27h-.18v.27zm.09-25.29q.36 0 .27-.27c-.12-.06-.18 0-.18 0a.31.31 0 0 1-.11.31zm.72 1.08a4.87 4.87 0 0 0 .9.85 1.7 1.7 0 0 0 1 .4 4.42 4.42 0 0 1-.86-.67 2.35 2.35 0 0 0-1-.58c-.06-.12-.13-.28-.22-.5s-.26-.25-.5-.14a1.35 1.35 0 0 0 .66.73zm-.63-43.56a.2.2 0 0 0 .18-.36c0 .12 0 .18-.14.18s-.12.1-.06.22zm.09 67.41c0-.12 0-.18.14-.18s.13-.06.13-.18a.23.23 0 0 0-.32.09c-.11.16-.09.25.03.31zm.36 1.71h-.36c-.12 0-.09.19.09.23s.28-.07.28-.19zm.63-2.34c-.18 0-.27 0-.27.09.16.04.25.01.25-.05zm-.18-68.85h.18v-.18h-.18zM216 82v-.27zm.54-69.39q0 .45.23.23a.62.62 0 0 1 .41-.23c-.12-.12-.23-.12-.32 0s-.24.11-.36-.01zm.18 68.76c-.12.18-.11.19 0 0s.14-.13-.04-.01zm.72-20.61c-.24 0-.36 0-.36.09a.52.52 0 0 0 .32-.1zm-.27 20.52c.3 0 .45-.12.45-.36-.34-.01-.49.08-.49.35zm.81-19.71v-.37c-.12 0-.2 0-.23-.09a.5.5 0 0 0-.22-.18.64.64 0 0 0 .41.63zm-.27 19.17v.18h.27v-.27h-.18a.08.08 0 0 1-.13.08zM219 62.55a1.65 1.65 0 0 0-1-.81 1.18 1.18 0 0 0 1 .81zm-.45 17.82c0-.06 0-.09-.13-.09a.3.3 0 0 0-.22.09h.18s.07.06.19 0zm.18-68.4c.12.24.18.27.18.09s-.04-.21-.16-.06zm.09 67.86h.18v-.18h-.18zm.63-17c-.18 0-.27 0-.27.09.2-.01.29-.04.29-.1zm.36-51.12h.19v-.36h-.18zm.81 1.17h.18v-.18h-.18zm2.79 63.27c.06.06.06.09 0 .09s-.17.18-.14.18a.36.36 0 0 0 .14 0 .3.3 0 0 0 .13-.13c.05-.12.01-.15-.11-.15zm.27-6c.24.06.36.36.36.9a.38.38 0 0 1-.27-.4 1.14 1.14 0 0 0-.07-.54zm.18 1.44a.3.3 0 0 1 .22-.09c.09 0 .13 0 .13.09s0 .18-.13.18-.2-.1-.2-.22zm.27 3.51h.18v.27h-.27v-.18a.08.08 0 0 0 .11-.13zm0-3c.12-.06.18 0 .18.14a.44.44 0 0 1-.09.31c-.04-.01-.07-.16-.07-.46zm.09 1c.12 0 .18.12.18.36s-.09.36-.27.36a.58.58 0 0 0 0-.36.55.55 0 0 1 .11-.38zm-.09 1.44h.18v.18h-.18zm.09-.45c.06-.18.09-.17.09 0s-.01.22-.07-.02z"/><path d="M233.6 66.78c-.12.06-.21 0-.27 0s-.09-.07-.09 0a1.55 1.55 0 0 0 .45.45c.24.18.3.36.18.54s-.08.25-.22.23-.25 0-.32.22a3.25 3.25 0 0 1-2-1.21 5 5 0 0 1-.95-2.16 9.7 9.7 0 0 1-.09-2.65 11.1 11.1 0 0 1 .58-2.7c-.12-.18-.1-.27 0-.27s.23-.06.23-.18q.72-2.7 1.39-5.18t1.51-5.18a1.67 1.67 0 0 1 1.71-.31q1 .32 1.71.58a2.77 2.77 0 0 1 .45 1.48 5.89 5.89 0 0 1-.27 1.56 12.11 12.11 0 0 1-.58 1.62 9.33 9.33 0 0 0-.54 1.53q-.9 2.88-1.8 5.54a22.62 22.62 0 0 0-1.08 6.09zm.72-6c.24.06.3 0 .18 0s-.18-.15-.18-.03zm7.11-28.17a11.52 11.52 0 0 1-.36 2.79 3.23 3.23 0 0 1-1.8 2.16 2.65 2.65 0 0 1-1.53-1 2.56 2.56 0 0 1-.36-1.94 9 9 0 0 0 1.94-1.22 3.28 3.28 0 0 1 2.11-.82z"/><path d="M274.82 27.81a3.81 3.81 0 0 0-2.25 0 2.58 2.58 0 0 1-2.25-.41l-.5.31a.94.94 0 0 1-.5.14.33.33 0 0 1-.45-.27c-.06-.24-.21-.24-.45 0 0-.12 0-.16-.09-.14a.15.15 0 0 1-.18 0q0 .18.09.14a.15.15 0 0 1 .18 0v.27a1.45 1.45 0 0 1-1-.14.67.67 0 0 0-.81.14.24.24 0 0 0-.27-.27.36.36 0 0 1-.36-.18c-.06.24 0 .35.18.31s.21.11.09.41a.53.53 0 0 0-.77-.31.53.53 0 0 1-.76-.23c-.06 0-.12.06-.18.18s-.09.06-.09-.18a.59.59 0 0 1-.76.13q-.41-.22-.58.23a4.33 4.33 0 0 0-1.35-.18 2.86 2.86 0 0 0-1.44.36.37.37 0 0 0 .36.13 1.92 1.92 0 0 1 .45 0q-.27.27 0 .27c-.12.18-.24.24-.36.18a.28.28 0 0 1-.18-.27c-.24.06-.38.17-.41.31a4.3 4.3 0 0 1-.14.5q.72 0 1.67.09a1.41 1.41 0 0 0 1.3-.36c.3.06.34.11.13.13s-.29.11-.22.23a3.35 3.35 0 0 0 1.3-.09q.76-.18.86.18.27.09.27-.13c0-.15.09-.23.27-.23s.09.24-.09.36a3 3 0 0 0-.45.36.9.9 0 0 1-.54-.14q-.18-.13-.45.14c.06.12.22.18.5.18s.43-.06.5-.18a3 3 0 0 0 .9 0 8.46 8.46 0 0 0 1.17-.23c-.24-.12-.27-.24-.09-.36s.32.06.23.18a.25.25 0 0 0 0 .36 3.6 3.6 0 0 1 .76.09 1.11 1.11 0 0 0 .76-.09c-.12-.18-.24-.27-.36-.27s-.24-.09-.36-.27a1.36 1.36 0 0 1 1.26-.14q.81.23 1.08-.31c.18.06.21.15.09.27a2.72 2.72 0 0 1 .81 0 4.47 4.47 0 0 0 .72 0h.09c-.06 0-.09-.1-.09-.23a5.32 5.32 0 0 0 3 .4 7.91 7.91 0 0 1 3.51.41c.18.12.27.11.27 0s.06-.23.18-.23c-.06.12 0 .18.18.18s.27-.06.27-.18.09 0 .09 0h.09c.24-.06.36 0 .36.27.06-.18.3-.21.72-.09q-.45.18 0 .27a3.49 3.49 0 0 0 .76.09 1.67 1.67 0 0 0 1.35.13 1.32 1.32 0 0 1 1.26.23c.06-.18 0-.27-.14-.27s-.26-.09-.32-.27h.09-.09a5.23 5.23 0 0 0-.9-.27 2.79 2.79 0 0 1-.9-.36q-.09-.27.13-.23c.15 0 .22 0 .22-.23-.36 0-.54.06-.54.18s-.09.21-.27.27-.3-.06-.18-.18a.3.3 0 0 0 .09-.36c-.3 0-.45.18-.45.54-.12-.12-.22-.16-.32-.14a.2.2 0 0 1-.23 0q0-.27.36-.27v.14a.19.19 0 0 0 0-.14h.09-.18a1.55 1.55 0 0 0-1.53-.36c-.72.12-1.2 0-1.44-.36-.12 0-.18.08-.18.23s-.06.2-.18.14a1.54 1.54 0 0 1-.18-.45c-.12 0-.33.15-.63.45 0-.12-.08-.18-.22-.18s-.17-.09 0-.27h.36c.12-.24 0-.3-.22-.18s-.37 0-.32-.27q2 .18 3.65.4t3.55.58a.4.4 0 0 0 .09.45c-.12 0-.2.08-.22.23s0 .17.22 0v-.27c.12 0 .18 0 .18-.09a3 3 0 0 1 .51.28c.12.12.33.09.63-.09a3.8 3.8 0 0 1 1.08 2.25 2.11 2.11 0 0 1-.72 2.07q.18-.36-.36-.27a.58.58 0 0 1-.72-.36 2 2 0 0 1-2 0 .84.84 0 0 1 .63-.45 3.13 3.13 0 0 0 .81-.27 10.78 10.78 0 0 0-4.23-.85 12.87 12.87 0 0 1-4.23-.67c0 .18-.23.3-.67.36s-.74 0-.86-.27a.86.86 0 0 1-.54.14 1.69 1.69 0 0 0-.63 0v-.36c-.12 0-.17.06-.13.18s0 .18 0 .18a2.09 2.09 0 0 0-.72-.18.6.6 0 0 1-.45-.18q-.18.45-1.26.36a11.37 11.37 0 0 1-1.8-.27q-1.8.18-3.91.27t-4.37.27a5.66 5.66 0 0 0-.68 1.57 11.14 11.14 0 0 1-.58 1.67l-.27-.27c-.06.24 0 .41 0 .5s.1.26 0 .5-.2.15-.22.09-.11-.09-.23-.09a2.3 2.3 0 0 1-.45 1.17.77.77 0 0 0 0 1h-.36q-1.26 3.42-2.48 6.48a38 38 0 0 1-2.92 5.85 10.79 10.79 0 0 1-1.58 3.56 19.71 19.71 0 0 1-2.38 2.92 5.54 5.54 0 0 0 .09 1.08 1 1 0 0 1-.36.9c0 .18 0 .23.09.14s.12-.07.18 0q-.09.72-.13 1.62v1.62l-.27.27a1 1 0 0 1-.27.18 12.43 12.43 0 0 1 .36 3v3.15a23.14 23.14 0 0 0 .22 3.19 8.58 8.58 0 0 0 1 3.06.8.8 0 0 0 .36.09.79.79 0 0 1 .36.09 8.47 8.47 0 0 0 3.2-1.44 19 19 0 0 0 2.43-2.21q1.12-1.22 2.16-2.48a14.7 14.7 0 0 1 2.29-2.25.37.37 0 0 1 0-.4.37.37 0 0 0 0-.41 1.12 1.12 0 0 0 .81-.85 1.15 1.15 0 0 1 .9-.85 1.3 1.3 0 0 1 .45-.9l.81-.63a23 23 0 0 1 2-3.2q1.13-1.48 2.38-2.92a36.71 36.71 0 0 0 2.34-3.6 10.08 10.08 0 0 1 2.96-3.06 8.86 8.86 0 0 0-1.49 2.25 5.77 5.77 0 0 1-1.58 2.07c-.06.18-.06.29 0 .31s.09.11.09.23a5.42 5.42 0 0 0-1.16 1.14c-.3.42-.6.87-.9 1.35a15.41 15.41 0 0 1-.94 1.35 6.47 6.47 0 0 1-1.22 1.17.14.14 0 0 0 .09.14q.09 0 0 .22a.08.08 0 0 1-.09-.09.08.08 0 0 0-.09-.09 35.59 35.59 0 0 1-4.32 6q-2.52 2.84-4.77 5.71a.41.41 0 0 0 .45-.09 3.08 3.08 0 0 0 .36-.45 3.11 3.11 0 0 1 .4-.5.79.79 0 0 1 .59-.23c.12-.12.09-.17-.09-.14s-.21 0-.09-.22a.48.48 0 0 0 .67-.23 1.37 1.37 0 0 1 .59-.58c.06-.12 0-.2 0-.23s-.11-.13 0-.31l.27.27a60.68 60.68 0 0 0 4.32-5q2-2.56 3.78-5.44a1.44 1.44 0 0 0 .63-.18 5.75 5.75 0 0 1 .81-1.8 4.49 4.49 0 0 1 1.35-1.44c0-.12-.09-.24-.27-.36.3 0 .42-.1.36-.31s.12-.34.54-.4a.51.51 0 0 1 .13-.68 1.57 1.57 0 0 0 .5-.58 8.91 8.91 0 0 1-1.76 3.14 7.74 7.74 0 0 0-1.57 3.33c-.48-.06-.72.18-.72.72.06.18.13.21.23.09s.19-.12.32 0q-.09.45-.81.27a.72.72 0 0 0-.09.31.49.49 0 0 1-.18.31c.12.12.22.11.31 0s.25-.16.5 0a14.89 14.89 0 0 0-1.4 2.43 13.88 13.88 0 0 1-1.66 2.7c0 .12 0 .14 0 0s.1-.07.22 0q-2.25 2.7-4.54 5.67a32.18 32.18 0 0 1-5.18 5.31 12.84 12.84 0 0 1-3.19.9 3.58 3.58 0 0 1-3-.81 11.51 11.51 0 0 1-2.59-4.23 21.21 21.21 0 0 1-1-5 46.25 46.25 0 0 1-.13-5.4q.09-2.74.27-5.27c-.06-.24-.27-.36-.63-.36q-.45-.81-.9-1.71a3.91 3.91 0 0 1-.36-2.07.42.42 0 0 0 .45-.27 1.13 1.13 0 0 1 .27-.45.47.47 0 0 1 .4.4 2.27 2.27 0 0 0 .22.67c.24 0 .36 0 .36.09l.36-.18.36-.18q.72-4 1.4-8.1a79.6 79.6 0 0 1 1.67-7.83 3.8 3.8 0 0 1 .36-2.25 4.88 4.88 0 0 0 .45-2.43q-4.86.54-8.77 1.13t-8.6.95a12.77 12.77 0 0 0-1.53-.23q-.63 0-1.71-.23a3 3 0 0 1-.76-1.85 3.73 3.73 0 0 1 .32-2.11q2.52.27 5.45.31a50.91 50.91 0 0 0 5.71-.23v.09c-.09 0 0-.16.09-.13s.09 0 .09 0a4.65 4.65 0 0 0 2 0 3.37 3.37 0 0 1 1.8 0c.18-.06.2-.12 0-.18s-.19-.15-.13-.27a1.11 1.11 0 0 0 .59.13 4.27 4.27 0 0 0 .49-.22V29c.12 0 .17-.06.13-.18s0-.18.14-.18a1 1 0 0 0 .72.18.55.55 0 0 0 .63-.45.87.87 0 0 0 .31.23.59.59 0 0 1 .22.13c0 .3-.17.47-.49.5a.51.51 0 0 0-.5.58c-.12-.24-.33-.3-.63-.18a.78.78 0 0 1-.81-.09 1.34 1.34 0 0 0 1.26.45l1.62-.18c.12 0 .17 0 .14.13s-.08.14-.14.14a1.5 1.5 0 0 1 .36 0c.12 0 .18 0 .18-.14a1.66 1.66 0 0 0 .9.14.91.91 0 0 0 .72-.31q-.18.36.09.23a.36.36 0 0 1 .45 0 .69.69 0 0 0 .31-.5c0-.21.07-.46.13-.77a.58.58 0 0 0-.27.27c-.06.12-.18.15-.36.09s-.24-.21-.36-.09-.24.09-.36-.09c.06-.12.13-.18.22-.18s.17-.06.23-.18c-.12-.12-.23-.15-.32-.09s-.08-.06 0-.36q.27.54.77.14c.33-.27.55-.28.67 0a8.23 8.23 0 0 1 .63-2.25 4.75 4.75 0 0 0 .45-2q1.35-3.06 2.48-6.34t2.38-6.44a61.66 61.66 0 0 1 2.79-6A26.85 26.85 0 0 1 262.49 0a4.4 4.4 0 0 1 2.51.63 9.36 9.36 0 0 1 1.75 1.53 6.27 6.27 0 0 1 .14 2.29 7.4 7.4 0 0 1-.58 2.29c0 .18.12.21.36.09q-.72 2.88-1.39 5.4t-1.44 5L262.26 22q-.76 2.43-1.66 5.13a68.47 68.47 0 0 0 7.47 0 52.06 52.06 0 0 1 7.74.14l-.36.36a.87.87 0 0 1-.63.18zm-39.06 1.44c.18-.12.2-.1 0 0s-.12.18 0 0zm1.35-.09c.12-.24.18-.25.18 0s-.06.18-.18 0zm1.17-.36h.36c.12 0 0 .17-.09.13s-.09 0-.09.14c-.12-.06-.16-.12-.13-.18a.15.15 0 0 0-.05-.09zm.81.09c0-.12.06-.14.18 0s.06.11-.18 0zm3 0q.18-.27.23 0c-.01.18-.08.18-.26 0zm2.88 0c-.36-.06-.48 0-.36.09s.21.09.33-.09zm.72 22.59c.18 0 .3-.15.36-.45s0-.48-.18-.54a.64.64 0 0 1 0 .54.73.73 0 0 0-.21.45zm.36-22c.12 0 .18.09.18.27-.06-.06-.09 0-.09.09s-.14-.17-.14-.41zm.09 20.43a2.78 2.78 0 0 1 .45-1.17 1.19 1.19 0 0 0 .18-1.08q0-.27-.18-.09a5.89 5.89 0 0 1-.4 1.17 1.68 1.68 0 0 0-.08 1.12zm.69-20.91v.18q.36-.18 0-.18v-.2a.18.18 0 0 1-.27.09.29.29 0 0 1-.18-.27 1 1 0 0 1 .77 0 1 1 0 0 0 .67 0 .23.23 0 0 1-.09.31c-.12.09-.06.11.18 0-.06.3-.23.4-.5.31a.43.43 0 0 0-.58.23q-.27.09-.32-.09c0-.12-.17-.15-.4-.09a.65.65 0 0 1 .72-.29zm0 20.79q.18.36.18 0t-.18-.02zm.27-3.6a.79.79 0 0 0 .13-.4c0-.21-.08-.28-.31-.23a1 1 0 0 1 0 .36c-.08.08 0 .13.18.25zm.09-16.29c-.12 0-.17 0-.13-.09s.07-.05.13.07zm0 18.27a.69.69 0 0 1 .09-.27c.06-.12 0-.18-.09-.18a.56.56 0 0 0-.13.27c-.06.1.01.16.13.16zm0-18.27a.08.08 0 0 1 .09.09.08.08 0 0 1-.09-.11zm.09-1c.12.18.18.18.18 0s-.06-.19-.18-.01zm0 15.12h.18c.12-.06.17-.12.13-.18s-.11-.09-.22-.09a.37.37 0 0 1-.09.25zm0 3a.52.52 0 0 0 .36-.18c.12-.12.06-.21-.18-.27a1.59 1.59 0 0 1-.18.43zm.18-3.6c-.06.3-.06.31 0 0s.06-.28 0-.04zm0-1.08a3.23 3.23 0 0 1 .41-.85 2.05 2.05 0 0 0 .32-.85 1.38 1.38 0 0 0-.27-.23.47.47 0 0 1-.18-.22 8.94 8.94 0 0 1-.23 1.21 2 2 0 0 0-.05.9zm.18 3.69q0-.18.09-.09a.24.24 0 0 0-.27-.27.32.32 0 0 1 0 .27c.01.06.06.06.18.06zm0-16.47c.06-.18.09-.16.09 0s-.03.2-.09-.04zm.9.27c-.12.18-.21.24-.27.18a.73.73 0 0 0-.45-.09.5.5 0 0 1 .72-.13zm.45 6c-.12.12-.2.14-.23 0s-.11-.07-.22 0a1.45 1.45 0 0 1-.09 1.3 1.45 1.45 0 0 0-.09 1.31H248a.63.63 0 0 0 0 .54 1.61 1.61 0 0 1 .22.45c-.18 0-.27 0-.27-.09s-.06 0-.18.09a.9.9 0 0 1 .09.41c0 .15.12.22.36.22a2.89 2.89 0 0 0 .18-.54.46.46 0 0 0-.18-.54q.27-.09.4-.54t-.22-.45a8.53 8.53 0 0 0 .5-1.26q.22-.72.41-1.53h-.22a.19.19 0 0 0-.14 0q-.41.17.05.62zm-.63-7.11l-.09-.09h-.09c0 .06.06.09.18.09a.25.25 0 0 0 .09.18c.06.06.06.15 0 .27a.8.8 0 0 0-.4-.23c-.15 0-.2-.19-.14-.5a1.86 1.86 0 0 0 .45 0c.12 0 .18.08.18.31zM248 43.29c.12.18.18.17.18 0s-.06-.24-.18 0zm.81-4.05c.12.12.21.09.27-.09s0-.27-.09-.27 0 .18-.13.18-.11.06-.05.18zm3.87-8.1a4.36 4.36 0 0 1-1 1.62 2.65 2.65 0 0 1 .09 1.53 3.26 3.26 0 0 1-.72 1.44 2.66 2.66 0 0 1-.05 1.17q-.18.63-.4 1.31t-.41 1.44a3.89 3.89 0 0 0 0 1.67h-.27a1.23 1.23 0 0 1 0 .72q-.13.45-.27.95a5.7 5.7 0 0 0-.18 1 2 2 0 0 0 .13.95.54.54 0 0 0-.4.58.71.71 0 0 1-.32.67 27.8 27.8 0 0 0 3.65-7.25q1.39-4.09 2.75-7.88l-1.35.18a2.51 2.51 0 0 1-1.25-.1zm-3.42-2c-.12.12-.21.18-.27.18v-.18zm0 5.4c.18.12.28.06.31-.18s0-.33-.22-.27c0 .12 0 .2-.09.23s-.06.12 0 .24zm.18-6.66a.53.53 0 0 1 .09.36h-.27c-.06-.12 0-.18 0-.18s.18-.06.18-.16zm-.09.9c.24.06.3 0 .18-.09s-.18-.07-.18.11zm0 4.86a.52.52 0 0 0 .09.36c.24 0 .36-.15.36-.45a.71.71 0 0 0-.45.11zm.72-1.26a.52.52 0 0 0-.18-.36c0 .26.06.38.18.38zm.27 1.35a.34.34 0 0 1 .09-.5c.18-.15.15-.23-.09-.23a2.31 2.31 0 0 1-.27.41c-.12.18-.07.28.27.34zm-.27-2.07c.12.24.18.26.18 0s-.06-.16-.18.02zm.36-2.34q-.09.27.13.27c.15 0 .16.09 0 .27a.59.59 0 0 0-.22-.13c-.09 0-.11 0 0 .22a.63.63 0 0 0 .54-.09.38.38 0 0 1 0-.5.27.27 0 0 0 0-.4c-.12.26-.27.38-.45.38zm.09 2.88c.12.24.18.26.18 0s-.06-.2-.18.02zm.18 2.07c.12.24.18.26.18 0s-.06-.16-.18.02zm.54-6.12a.52.52 0 0 1 .18-.36 1.07 1.07 0 0 0-.45.13c-.18.09-.18.2 0 .31.03-.03.09-.06.27-.06zm.36-1.71a.29.29 0 0 1 .18-.27c.12-.06.09-.12-.09-.18a1.42 1.42 0 0 1-.22.18q-.14.11.13.29zm.09-1.53a.85.85 0 0 0 .54-.23q.27-.22-.09-.41a.58.58 0 0 1-.27.27.36.36 0 0 0-.18.39zm.27.72c.24.06.3 0 .18 0s-.14-.1-.14.02zm.09-.54c.24.06.3 0 .18 0s-.23-.09-.23.02zm.27 48.91c.12.18.18.16.18 0s-.06-.26-.18 0zm.36-50.49a1.21 1.21 0 0 0 .27-.4c.06-.15-.06-.25-.36-.31a1.6 1.6 0 0 0-.14.45c-.03.15.05.24.23.24zm-.09 1.35q.18.27.13 0t-.13-.02zm2.79 4.5c-.06.18 0 .3 0 .36s.1.15 0 .27c-.18-.06-.27-.07-.27 0a1.25 1.25 0 0 1-.18.31c.54-.06.79-.27.76-.63a1.36 1.36 0 0 1 .32-1 .38.38 0 0 0-.41 0c-.09.09-.17 0-.23-.23h.63a.18.18 0 0 1 0-.13.19.19 0 0 0 0-.14c.12-.06.15-.1.09-.13s-.09 0-.09.13a1.88 1.88 0 0 0-1.21 0 3.13 3.13 0 0 1-1.12.23c.24 0 .36.09.36.27-.24.12-.37.13-.4 0a.78.78 0 0 0-.32-.31 3.87 3.87 0 0 0-.27.67q-.09.32-.27.77a8.2 8.2 0 0 1 2.43-.18c0-.36.06-.54.18-.54l.09.09c.09.14.03.17-.09.17zm-1.8-8.1a.89.89 0 0 1-.09-.4c0-.15-.09-.23-.27-.23a.9.9 0 0 1 .09.41c0 .13.09.2.27.2zm-.36 6.84q.36.09.18-.09c-.12-.14-.18-.11-.18.07zM263.3 1.71q-1.08 1.35-2.21 3a7.39 7.39 0 0 0-1.3 3.38 1 1 0 0 0-.67 1.08c0 .54-.2.84-.67.9-.12.24-.09.35.09.31s.24 0 .18.23a1.34 1.34 0 0 0-.36.58.57.57 0 0 1-.45.4 1.64 1.64 0 0 1-.09 1.22 1.42 1.42 0 0 1-.72.67c.3.06.4.13.31.23a1 1 0 0 0-.22.4.43.43 0 0 0 .49-.4.76.76 0 0 1 .32-.58 1.48 1.48 0 0 1-.45 1.44 1 1 0 0 0-.18 1.35 1.36 1.36 0 0 0-.5.72 1 1 0 0 1-.5.63c.12.12.21.09.27-.09s.15-.12.27.18a1.39 1.39 0 0 0-.5.81c-.09.36-.17.72-.22 1.08a4.86 4.86 0 0 1-.27 1 .81.81 0 0 1-.54.54 4.64 4.64 0 0 1-.13 1.71 14 14 0 0 1-.58 1.67q-.36.86-.67 1.75a7.73 7.73 0 0 0-.41 1.8.75.75 0 0 0 .58 0 .6.6 0 0 1 .59 0q-.09.18-.36.14c-.18 0-.24 0-.18.23a2.2 2.2 0 0 0 .9-.36c.12-.12.54-.15 1.26-.09q1.89-6.48 4.1-13.14a74.79 74.79 0 0 0 3.1-13 5.66 5.66 0 0 0-1-.54.75.75 0 0 0 .32.5 2.18 2.18 0 0 1 .4.25zm-9.63 26.37q.45.09.27-.09c-.12-.12-.21-.09-.27.09zm.09-7.83c.06.24.09.26.09 0s-.03-.18-.09 0zm.18-.27a.64.64 0 0 0 .13-.31c0-.15 0-.23-.13-.23a.25.25 0 0 1 0 .31c-.14.09-.12.17 0 .25zm.45 9.27c0 .24-.15.3-.45.18-.06-.12 0-.18.09-.18zm-.18-10a2.23 2.23 0 0 1 .45-.81.55.55 0 0 0 0-.81q-.18.45-.41.9a.7.7 0 0 0-.04.73zm.27 11c.3.06.41 0 .32-.09s-.2-.1-.32.08zm.36-10.53c-.12-.12-.12-.23 0-.31s.12-.16 0-.23a.62.62 0 0 0-.14.31c-.03.15.02.22.14.22zm.18-3c-.06.06-.09.11-.09.14s0 .08-.09.13c.12.06.18 0 .18-.27.12-.06.15-.1.09-.13s-.11.03-.11.15zm.36-2.07q-.27.27 0 .27t0-.25zm.18 14.58q0-.18.09-.14t-.09.16zm.36-10.89c-.18.18-.18.26 0 .23s.18-.09 0-.21zm0 16.29h.18v-.27h-.18zm.72-18.72c-.06.3-.06.31 0 0s.06-.22 0 .02zm.27-.81a.68.68 0 0 1 .23-.27.67.67 0 0 0 .22-.27.32.32 0 0 1-.18-.31c0-.15-.09-.19-.27-.14q.18.36 0 .54c-.12.14-.12.29 0 .47zm.45 20.9c.12-.06.18 0 .18.23s-.06.26-.18.13zm.27-.63c.12-.18.18-.16.18 0s-.06.24-.18 0zm.27-7.2c-.06.12 0 .2 0 .23s.1.13 0 .31c.12 0 .19-.07.23-.23a.78.78 0 0 1 .22-.4c-.12-.06-.21 0-.27 0s-.08.15-.18.09zm.45-17.37c-.12-.12-.18-.09-.18.09.24.11.3.03.18-.09zm.27 15.66c-.12.12-.18.17-.18.13s0-.06.09-.09l.13-.09zm.45-1q.18.18.18-.13c0-.21-.06-.28-.18-.23zm.18-.63a.29.29 0 0 0 .31-.27c0-.18 0-.27-.22-.27a.94.94 0 0 0-.09.55zm.36-.72a.31.31 0 0 0 .09-.23c0-.09-.06-.14-.18-.14a1 1 0 0 1-.13.23s.04.09.22.15zm-.09 42.3c.06-.24.09-.25.09 0s-.03.19-.09.01zm.18-42.93h.18v-.18h-.18zm.09 6.39a1.14 1.14 0 0 1 .63 0v-.17l-.18-.18q0 .27-.32.13c-.21-.09-.25-.01-.13.23zm.36-8.1c.24.06.3 0 .18-.09s-.18-.08-.18.1zm.63 8c-.12.06-.15.09-.09.09a.08.08 0 0 0 .09-.09q.36.09.18-.09c-.12-.1-.18-.07-.18.11zm-.09-10.08a1.88 1.88 0 0 1 0 .81c.24 0 .34-.12.31-.36a1.84 1.84 0 0 0-.13-.54c0 .08-.06.11-.18.11zm.18 9.81c.3.12.41.12.31 0s-.18-.1-.31.02zm.36-10.89c.18.06.27-.09.27-.45q-.5.02-.27.47zm.09 11.16a1.17 1.17 0 0 1 .9 0c.3.12.51.09.63-.09a1.55 1.55 0 0 1-.86 0 3.52 3.52 0 0 1-.58-.31c0 .12 0 .2-.09.23s-.06.07 0 .19zm.18-12.69c.3 0 .48-.1.54-.31a.48.48 0 0 0-.09-.5 1.37 1.37 0 0 0-.27.36 3.28 3.28 0 0 0-.18.47zm.18 11.07c0-.18.06-.21.18-.09s.06.17-.18.11zm.9.63c.18.06.21.14.09.23s-.21.08-.27 0 0-.07.09 0 .09-.09.09-.21zm0-14.4c.24.12.32.12.23 0s-.17-.1-.23.02zm.18-.36c.06.18.09.17.09 0s-.03-.22-.09-.02zm.18 15.75a.82.82 0 0 0 .63 0c.12-.09.27-.07.45 0-.12-.3-.3-.42-.54-.36a.87.87 0 0 0-.54.38zm.09.63c.3.06.4 0 .31-.09s-.19-.07-.34.11zm.81-1.53c.06-.18.1-.16.13 0s.03.26-.13.02zm.18-1.35c.06.18.09.17.09 0s-.03-.22-.11.02zm.63 1.35q.18-.27.18 0t-.18.02zm.54 31.32h.27V60h-.27zm.09-2.34c.12.24.18.24.18 0s-.06-.22-.18.02zm.27-.63v.18h.18c.06-.18 0-.3-.09-.36 0 .14-.03.2-.09.2zm.09 3.87q.18.18.18-.13c0-.21-.06-.28-.18-.23zm.09-33c0-.18.06-.21.18-.09s.09.14-.18.08zm.09 1.08h.45c0 .12 0 .18.09.18s.06.06 0 .18c-.36-.01-.54-.13-.54-.37zm.27 27.63h.18v-.27h-.18zm.18-28c.12-.18.18-.16.18 0s-.06.2-.18 0zm.45 0c.18.06.24.15.18.27l-.18.36c-.12-.06-.18-.21-.18-.45.12.02.18.02.18-.18zm.72 29.7c.06.18 0 .31-.22.4s-.32 0-.32-.31q.18.18.27 0a.18.18 0 0 1 .27-.09zm-.27-28.26c.24.06.3 0 .18-.09s-.18-.09-.18.09zm.09-1.53h.18v.18h-.18zm.18-.54c.06-.18.13-.21.22-.09s.02.15-.22.09zm0 1.26c.12-.18.18-.16.18 0s-.06.24-.18 0zm.81 24.39q.09.27.13 0t-.13 0zm.75-26.28a.61.61 0 0 0 .54-.27q-.54 0-.54.27zm1.44 1.89a1.85 1.85 0 0 0-.76.09c-.09.06-.06.12.09.18a1.18 1.18 0 0 0 .58 0 3.29 3.29 0 0 0 .81-.23c-.24.06-.39.06-.45 0a.37.37 0 0 0-.3-.04zm-.09-1.35c.12-.24.18-.25.18 0s-.09.18-.21 0zm.36-.54c.24.06.31 0 .22-.09s-.19-.09-.25.09zm.54 23.31h.27V51h-.27zm.18-21.33c-.12.18-.11.2 0 0s.15-.12-.03 0zm.27.81c.3.06.4 0 .31-.09s-.22-.09-.34.09zm.09 19.35c.3 0 .36.08.18.22s-.27.1-.21-.22zm.18-20.16a1.52 1.52 0 0 0 .95.18 2 2 0 0 0 1-.18c-.24.12-.35.09-.32-.09s-.08-.24-.32-.18q-.09.27-.27.27a.8.8 0 0 1-.36-.09 1.69 1.69 0 0 0-.41-.14c-.14-.02-.24.05-.3.23zm.9-1.71h.27v.27h-.27zm.81-.18c.06.18.1.17.13 0s-.04-.24-.16 0zm.45 1.17a.71.71 0 0 1-.45.09c-.03-.18.12-.21.42-.09zm.18-.63c0 .24 0 .24-.09 0s.06-.24.06 0zm.63 1.53c-.18.06-.29 0-.32 0s-.13-.13-.31-.13c-.12.18 0 .29.22.31s.38-.06.38-.18zm-.45-2.16c.24.06.32 0 .22-.09s-.19-.09-.25.09zm.36.27c0 .24-.06.36-.18.36a.52.52 0 0 1 .15-.36zm.54 1.53c-.36-.06-.48 0-.36.09s.21.09.33-.09zm0-1.44c.18-.12.19-.1 0 0s-.15.18-.03 0zm0 1.89c.24.12.39.09.45-.09-.12-.12-.22-.16-.31-.14a.21.21 0 0 0-.17.23zm.45-2.25c.18-.06.27 0 .27.18s-.09.24-.27.18c0-.12 0-.18-.09-.18s-.06-.06.06-.18zm-.09.81q.18-.27.18 0t-.21 0zm.72 1.35a1.42 1.42 0 0 1-.36 0c-.12 0-.18 0-.18.14a.39.39 0 0 1 .36 0c.09.01.15-.02.15-.14zm-.45-.81c.06-.12.12-.14.18 0s.15.11.27 0c0 .12-.06.17-.18.13a.56.56 0 0 1-.29-.13zm.54-.81v.09h-.09s0-.09.06-.09zm0 .09a.53.53 0 0 1 .36.09q0 .18-.27.14c-.21-.03-.24-.11-.12-.23zm1.71.81q-.09.36-.41.18a.85.85 0 0 0-.76 0 .62.62 0 0 1 .54-.23 3.79 3.79 0 0 0 .6.07zm-.63-.63c.12-.18.18-.16.18 0s-.09.24-.21 0zm.36-.09q.09-.36.09 0t-.09 0zm.27-.18c.18-.06.27 0 .27.18l-.09.09c-.12 0-.17 0-.14-.09a.15.15 0 0 0-.07-.18zm.36 1.17c.12.12.06.15-.18.09-.03-.18.03-.21.15-.09zm0-1c.12-.18.18-.16.18 0s-.09.25-.21.01zm.45 1v-.14c0 .02.03.08-.08.14zm.09-1c.18 0 .23 0 .14.14s-.08.2 0 .31c-.11.01-.17-.14-.17-.44zm.36 1c-.12 0-.17 0-.14-.09s.05-.03.11.09zm.18-.9c.06-.18.09-.16.09 0s-.06.24-.12 0zm.09.27h.36v.27h-.27zM280 30c.06.18.1.18.13 0s.03-.21-.13 0zm.27-1.89q.36.09.18-.09c-.08-.15-.14-.12-.14.06zm.14 1.44c0-.06 0-.09-.14-.09.1.09.14.12.17.06zm1.31 0c-.06 0-.15.06-.27.18q-.18-.27.27-.27zm0 0h.27q.09.27-.27.27zm.54-.81c-.06.18 0 .29.32.31s.41 0 .41-.23a1 1 0 0 0-.7-.11zm.54 1.35c.12.24.17.26.14 0s-.05-.21-.11-.03zm.45.18q-.18.36 0 .18c.12-.12.12-.18 0-.18s-.11-.15-.13-.09.04.06.16.06zm.81-.9c.12.12.15.18.09.18s-.12.06-.18.18c.18 0 .28.13.31.4s.22.31.58.13c-.3 0-.45-.06-.45-.18a.52.52 0 0 1 .18-.36c-.18.06-.26 0-.22-.18s-.08-.24-.31-.18c0-.06-.06-.12-.18-.18a.18.18 0 0 0-.27.09.71.71 0 0 0 .48.07z"/><path d="M301.1 51.48v.09a.08.08 0 0 0 .09.09q-1.8.72-3.92 1.67t-3.83 1.84c.06.24.15.35.27.31a1 1 0 0 0 .36-.18l.36-.27a.59.59 0 0 1 .36-.14 8.21 8.21 0 0 1-2.88 2q-1.71.72-3.24 1.44c-.06.24 0 .41.09.5a.48.48 0 0 1 .18.4c-.24.06-.36 0-.36-.13s-.09-.25-.27-.31a1.1 1.1 0 0 1-1 .72 1.36 1.36 0 0 0-1.08.54c0 .06.12.15.36.27a1.87 1.87 0 0 1-.58.41l-.67.31c0 .24.12.33.36.27a3.51 3.51 0 0 1-.81.45 1 1 0 0 1-.9-.09c-.36.48-.6.81-.72 1q-2.7.9-5.22 1.89a18.94 18.94 0 0 1-5.94 1.17 6.5 6.5 0 0 1-4.37-1.35 6.59 6.59 0 0 1-2.12-3.29 9.57 9.57 0 0 1-.18-4.14 11.24 11.24 0 0 1 1.44-4q1.17-1.26 2.34-2.48a16.89 16.89 0 0 1 2.61-2.21 14.54 14.54 0 0 1 3.17-1.64 10.49 10.49 0 0 1 3.73-.63 3.91 3.91 0 0 1 1.89 3.1 7 7 0 0 1-.72 3.83 34.74 34.74 0 0 0-3.55 3.08 10.25 10.25 0 0 1-4 2.43 4.52 4.52 0 0 1-2.47-.27 2.58 2.58 0 0 1-1.3-1.8q-1.44 1-1.71 3.78a4.65 4.65 0 0 0 1.89 1.35 33.69 33.69 0 0 0 9-1.12 68.17 68.17 0 0 0 7.92-2.7q3.82-1.57 7.61-3.29a58.19 58.19 0 0 1 7.81-2.9zm-22.59-4a10.13 10.13 0 0 0-4.28 2.16 19.59 19.59 0 0 0-3.2 3.6c.24 0 .36 0 .36.09a1.63 1.63 0 0 1-.9.58 1 1 0 0 0-.72.59 25.09 25.09 0 0 0 5.59-2.5 9.21 9.21 0 0 0 3.64-4.66q-.27 0-.27-.13c0-.09-.06-.14-.18-.14a.36.36 0 0 1 0 .23.18.18 0 0 0-.04.13zm-6.75 15.12a4.86 4.86 0 0 0 .81.31c.3.09.51 0 .63-.13a1.78 1.78 0 0 0-.81-.31c-.39-.14-.63-.1-.63.08zm3.06-1.17a5 5 0 0 0 3.06 0l3-1a35.64 35.64 0 0 0 6.79-2.11 52.23 52.23 0 0 0 5.63-2.75q-2.25.72-4.46 1.58l-4.46 1.75q-2.25.9-4.63 1.62a26.75 26.75 0 0 1-4.93.86zm8 1.08c.18.12.27.09.27-.09-.23-.17-.32-.14-.26.04zm1.44-.81h.27v-.18h-.27zm.45-.18a2.06 2.06 0 0 0 .54-.27.3.3 0 0 0-.36-.09.36.36 0 0 0-.17.31zm.45-.81a1.4 1.4 0 0 1 .54-.23q.27 0 .36-.41a1.38 1.38 0 0 1-.58.23.35.35 0 0 0-.31.36zm1.62-.63c.24-.12.36-.06.36.18h-.36zm1.26-.81h.27v.27H288zm1-.63c.18 0 .28.06.32.18a.22.22 0 0 1-.14.27q-.22-.09-.22-.5zm6.12-3.69h.18c.06.12 0 .18-.27.18v-.09s.09-.04.09-.14zm.09-.45h.27v.27h-.27zm1.44-.36a.83.83 0 0 1-1.08.45c.12-.23.48-.38 1.08-.5zm0 0c-.12-.18-.09-.23.09-.13s.24.08.18 0q.27.09.09.22a.25.25 0 0 1-.36-.14zm4.41-2.61a.41.41 0 0 1 .45-.27c.06.18 0 .26-.09.23a.51.51 0 0 0-.36-.01z"/><path d="M307.4 48.51a11.44 11.44 0 0 0-5.53 3.56 9.26 9.26 0 0 0-2.21 6.25 1.34 1.34 0 0 1 .36 1 .56.56 0 0 0 .63.63 1.5 1.5 0 0 0 .72 1.17 5.56 5.56 0 0 0 1.17.72 11 11 0 0 0 1 1.35q.54.63 1 1.3a7.6 7.6 0 0 1 .85 1.53 5.21 5.21 0 0 1 .36 2 9.15 9.15 0 0 1-3.37 4.77 21.32 21.32 0 0 1-5.08 2.7q-.63-.27-.9 0a1.09 1.09 0 0 1-.72.23 2.83 2.83 0 0 1-2.38-.77 5.4 5.4 0 0 1-1.49-2.25 5.59 5.59 0 0 1-.27-2.61 2 2 0 0 1 1.46-1.78.76.76 0 0 1-.32.5c-.15.09-.22.28-.22.58 0 .06.15.09.45.09a.66.66 0 0 0-.23.94 1.26 1.26 0 0 1 .23.95 3.87 3.87 0 0 0 3-.31q1.53-.77 2.88-1.31a5.26 5.26 0 0 1 1.8-1.94 4 4 0 0 0 1.62-2.48l-2.7-2.7a11.61 11.61 0 0 1-2.25-3.24 7.73 7.73 0 0 0-.09-1.08.92.92 0 0 0-.54-.81 13.38 13.38 0 0 1 .49-5q.68-2 1.49-4.37a2.37 2.37 0 0 0 1-.77 9.91 9.91 0 0 1 1.13-1.12 9.51 9.51 0 0 1 1.3-.94 2.34 2.34 0 0 1 1.67-.23 2.43 2.43 0 0 0 1.08.72 10.72 10.72 0 0 1 1.3.58 3.64 3.64 0 0 1 1 .77 1.7 1.7 0 0 1 .31 1.37z"/></g></svg>