<svg xmlns="http://www.w3.org/2000/svg" viewBox="0 0 132.96 116.68"><defs><style>.cls-1{fill:#f8f6f2}.cls-2{fill:#477d85}</style></defs><title>logo</title><g id="Layer_2" data-name="Layer 2"><g id="General_Content" data-name="General Content"><path class="cls-1" d="M132.93 87.23a108.69 108.69 0 0 0-6.24-40A68.86 68.86 0 0 0 116 28.22 76.5 76.5 0 0 0 76.87 2.11L76.6 2l-.78-.2-.23-.06-1.16-.3h-.13l-.79-.19L72.6 1l-.47-.06C71.38.8 70.64.63 69.89.49l-1.21-.2h-.19l-.87-.18a6.72 6.72 0 0 0-.73-.11h-.51a6.72 6.72 0 0 0-.73.11l-.87.14h-.19l-1.21.2c-.75.14-1.49.31-2.23.46l-.48.09-.91.19-.76.24h-.13l-1.16.3-.23.06-.78.2-.28.08a76.5 76.5 0 0 0-39.15 26.15 68.87 68.87 0 0 0-10.69 19A97.9 97.9 0 0 0 .42 78.17c-.37 8.21-1.77 21.47 4 28.28a13.54 13.54 0 0 0 5.33 3.71 31 31 0 0 0 7.48 2.08 274.27 274.27 0 0 0 48.87 4.43h1.14a274.27 274.27 0 0 0 48.87-4.43 31 31 0 0 0 7.48-2.08 13.54 13.54 0 0 0 5.33-3.71c4.2-5 3.89-12.79 4-18.92z"/><path class="cls-2" d="M66.64 8.1l.49.08h.35l.94.15 1.06.22 1 .22.38.09.43.09.39.08.58.14h.13l1 .27h.24l.4.1.33.09.3.09a68.07 68.07 0 0 1 35 23.35 60.68 60.68 0 0 1 9.45 16.85 100.19 100.19 0 0 1 5.74 37v2.12c-.07 4.35-.16 9.76-2.12 12.09a5.76 5.76 0 0 1-2.25 1.45l-.16.06-.15.07a24.68 24.68 0 0 1-5.54 1.46 266.78 266.78 0 0 1-47.46 4.3h-1.1a266.72 266.72 0 0 1-47.44-4.3 24.67 24.67 0 0 1-5.54-1.46l-.15-.07-.16-.06a5.76 5.76 0 0 1-2.25-1.45c-3.11-3.7-2.55-14-2.22-20.1.05-.93.1-1.81.14-2.65a89.85 89.85 0 0 1 5.62-28.36v-.12a60.67 60.67 0 0 1 9.45-16.85 68.09 68.09 0 0 1 35-23.36l.28-.08.29-.08.41-.11h.22l1-.26h.17l.58-.14.44-.02.41-.08.4-.09 1-.22 1.05-.21.95-.15h.5l.46-.08M66.77 0h-.39a6.76 6.76 0 0 0-.73.11l-.87.14h-.19l-1.21.2c-.75.14-1.49.31-2.23.46l-.48.09-.91.19-.76.24h-.13l-1.16.3-.23.06-.78.2-.28.08a76.49 76.49 0 0 0-39.15 26.15 68.86 68.86 0 0 0-10.69 19A97.9 97.9 0 0 0 .42 78.17c-.37 8.21-1.77 21.47 4 28.28a13.53 13.53 0 0 0 5.33 3.71 30.94 30.94 0 0 0 7.48 2.08 274.24 274.24 0 0 0 48.87 4.43h1.14a274.24 274.24 0 0 0 48.87-4.43 30.94 30.94 0 0 0 7.48-2.08 13.54 13.54 0 0 0 5.33-3.71c4.2-5 3.89-12.79 4-18.92v-.3a108.69 108.69 0 0 0-6.24-40A68.86 68.86 0 0 0 116 28.22 76.5 76.5 0 0 0 76.87 2.11L76.6 2l-.78-.2-.23-.06-1.16-.3h-.13l-.79-.19L72.6 1l-.47-.06C71.38.8 70.64.63 69.89.49l-1.21-.2h-.19l-.87-.18a6.76 6.76 0 0 0-.73-.11h-.12z"/><path class="cls-1" d="M66.64 5.52h.15l.8.13h.28l1 .17 1.13.29 1 .21h.09l.33.07.41.08.44.09.65.16h.13l1.07.28h.24l.38.1.39.1.25.07a70.64 70.64 0 0 1 36.32 24.36 63.18 63.18 0 0 1 9.84 17.55 102.73 102.73 0 0 1 5.9 37.94v2.11c-.08 5-.17 10.66-2.72 13.69a8.16 8.16 0 0 1-3.23 2.16h-.21a26.6 26.6 0 0 1-6.16 1.66 269.33 269.33 0 0 1-47.91 4.34h-1.14a269.29 269.29 0 0 1-47.89-4.34 26.59 26.59 0 0 1-6.18-1.57h-.22a8.16 8.16 0 0 1-3.23-2.16C4.82 98.44 5.39 88 5.77 81c.05-.92.1-1.8.14-2.62a92.38 92.38 0 0 1 5.79-29.13v-.08a63.18 63.18 0 0 1 9.84-17.55A70.65 70.65 0 0 1 57.87 7.4l.26-.08.36-.09.39-.1h.23l1.07-.28h.15L61 6.6l.44-.09.4-.08.34-.08h.07l1.06-.22 1.12-.23 1-.17h.32l.75-.12h.1M66.77 0h-.39a6.76 6.76 0 0 0-.73.11l-.87.14h-.19l-1.21.2c-.75.14-1.49.31-2.23.46l-.48.09-.91.19-.76.24h-.13l-1.16.3-.23.06-.78.2-.28.08a76.49 76.49 0 0 0-39.15 26.15 68.86 68.86 0 0 0-10.69 19A97.9 97.9 0 0 0 .42 78.17c-.37 8.21-1.77 21.47 4 28.28a13.53 13.53 0 0 0 5.33 3.71 30.94 30.94 0 0 0 7.48 2.08 274.24 274.24 0 0 0 48.87 4.43h1.14a274.24 274.24 0 0 0 48.87-4.43 30.94 30.94 0 0 0 7.48-2.08 13.54 13.54 0 0 0 5.33-3.71c4.2-5 3.89-12.79 4-18.92v-.3a108.69 108.69 0 0 0-6.24-40A68.86 68.86 0 0 0 116 28.22 76.5 76.5 0 0 0 76.87 2.11L76.6 2l-.78-.2-.23-.06-1.16-.3h-.13l-.79-.19L72.6 1l-.47-.06C71.38.8 70.64.63 69.89.49l-1.21-.2h-.19l-.87-.18a6.76 6.76 0 0 0-.73-.11h-.12z"/><path class="cls-2" d="M38.11 46.83a1.28 1.28 0 0 0 .14.18.53.53 0 0 1-.09.14.26.26 0 0 0 0 .18c-.09-.06-.17 0-.25.11a.83.83 0 0 1-.25.3q.09.14.11 0c0-.09.05-.12.11-.09q-.09.5-.25 1.07t-.25 1c0 .06-.06.09-.18.09.06.18.05.31 0 .39a1 1 0 0 0-.2.34c0 .06 0 .08 0 0a.13.13 0 0 0 0-.09c.06.06.05.11 0 .16s-.08.13 0 .25c-.09.09-.17.09-.23 0a.35.35 0 0 1 0 .25c0 .11 0 .16.14.16a1.07 1.07 0 0 0-.3.5c0 .18-.19.26-.43.23v.23l.2-.14s.1 0 .16.14a.47.47 0 0 0-.3.48.74.74 0 0 1-.25.57.38.38 0 0 1 0-.39.73.73 0 0 0 .11-.43 1.43 1.43 0 0 1-.16.21.44.44 0 0 0-.07.29.25.25 0 0 1-.18 0 .11.11 0 0 0-.14.07.48.48 0 0 1-.09.48.55.55 0 0 0-.09.52 1.35 1.35 0 0 0 .16-.39 4.49 4.49 0 0 1 .16-.48.19.19 0 0 1 .14 0 .18.18 0 0 0 .14 0 .32.32 0 0 0 0 .27 1.2 1.2 0 0 1 .11.18.18.18 0 0 0-.11 0 .18.18 0 0 1-.11 0l-.3 1.39a3.58 3.58 0 0 1-.45 1 3.12 3.12 0 0 0 1.68-.18.08.08 0 0 1 .09.09.08.08 0 0 0 .12.09c.06 0 .09-.07.09-.11s0-.08.09-.11.09.08.09.23c.12-.15.3-.17.52 0s.36.11.39 0l.27.14c.12.06.18 0 .18-.14a.26.26 0 0 1 .27.09c.09.09.17.08.23 0 .06.09.11.14.14.14h.27a1.59 1.59 0 0 1 .32.8 1.73 1.73 0 0 1-.09.8 13.64 13.64 0 0 0-2.61-.18q-1.16 0-2.34.14a.42.42 0 0 0-.23.32l-.09.45c-.12-.12-.16-.23-.11-.32a1.46 1.46 0 0 0 .11-.36.57.57 0 0 0-.23.55.61.61 0 0 1-.18.55c0 .12.07.14.11.07s.07-.07.07 0a1.53 1.53 0 0 1-.21.94 4.49 4.49 0 0 0-.45 1h-.09c.06 0 .06-.14 0-.23a1.08 1.08 0 0 0-.16.41 5.27 5.27 0 0 1-.11.54.15.15 0 0 0 .11-.18c0-.09 0-.12.11-.09s0 .17.14.14c0 .15 0 .23-.14.25s-.11.08 0 .21-.11 0-.14 0-.08-.05-.14 0a.43.43 0 0 0-.11.25c0 .11 0 .22-.07.34q.18-.09.18-.5c.09 0 .14 0 .14.11a.44.44 0 0 0 0 .2q-.27.77-.5 1.48a4 4 0 0 0-.18 1.48.37.37 0 0 0-.23.39.77.77 0 0 1-.14.48c-.06 0-.08.05 0 .07s0 0 0-.07h.09a2.35 2.35 0 0 0-.14.54.59.59 0 0 1-.27.46l.14.09a1.84 1.84 0 0 0-.25 1 3.13 3.13 0 0 1-.11 1 .22.22 0 0 1-.32-.14c-.12 0-.15.14-.09.32a.24.24 0 0 1 .23-.07.38.38 0 0 0 .23 0q-.09.36-.16.73a2.33 2.33 0 0 0 0 .73.07.07 0 0 0-.07 0h-.11c0 .15 0 .2.09.14s.12 0 .09.09 0 0 0 .09l-.25-.26a.19.19 0 0 0-.18.07.68.68 0 0 0 .27.09.28.28 0 0 1 0 .43.27.27 0 0 0 .09.43.83.83 0 0 0-.18.66l.09.8h-.18c-.06.24 0 .38.18.41q-.09.64-.11 1.16a7.68 7.68 0 0 1-.11 1v.11l.09.07a2 2 0 0 1-.14.48.56.56 0 0 1-.2.29q-.36 0-.45-.16c-.06-.14-.2-.19-.41-.16 0-.27-.17-.41-.5-.41a.33.33 0 0 1-.09-.25c0-.11 0-.16-.14-.16a15.24 15.24 0 0 0 .04-1.86v-1.82A55.44 55.44 0 0 1 30 66.6a33.46 33.46 0 0 1 1-4.39q.64-2.11 1.27-4.3-1 .23-1.89.34t-1.75.3a.58.58 0 0 0-.16.36.36.36 0 0 1-.25.32v-.13c.06 0 .08 0 0 0s-.08.06-.07.09a.07.07 0 0 0 .07 0c.06.09.06.16 0 .21l-.22.2v-.14.28c0 .03-.05.08 0 .14s-.09 0-.09 0h-.09a.84.84 0 0 1-.11.68 1 1 0 0 1-.43.41q.23.23 0 .41a.55.55 0 0 0-.25.46.09.09 0 0 1-.07 0h-.07l-.18.25a.33.33 0 0 0 0 .34c-.12 0-.17 0-.14.18-.06 0-.08 0 0 0s.09 0 0 .16a.74.74 0 0 1-.23.3v-.09.09a.08.08 0 0 0-.09.09 1.42 1.42 0 0 1-.32.84 2.25 2.25 0 0 0-.41 1c-.06.06-.11.08-.14 0a.19.19 0 0 0-.14 0 .54.54 0 0 1-.36.73.34.34 0 0 1 0 .34c-.06.14-.15.17-.27.11a1 1 0 0 1-.55.91 3.62 3.62 0 0 1-.61 1.45 13.22 13.22 0 0 0-.84 1.36c-.09 0-.12 0-.09-.09a.44.44 0 0 0-.16.14.13.13 0 0 0 0 .18 2.12 2.12 0 0 0-.52 1 4.26 4.26 0 0 1-.34 1 4 4 0 0 1-.18 1c-.09.26-.2.57-.32.93a.2.2 0 0 0-.11.11h-.11a6.87 6.87 0 0 1-.25 1.36 5 5 0 0 0-.2 1.36c0 .09-.06.14-.18.14s0 .14.09.14 0 .14 0 .16a.2.2 0 0 0-.14.11q-.18 1-.25 1.89a6.86 6.86 0 0 0 .03 1.67c0 .06 0 .11-.11.14s-.1.09-.07.18a1.1 1.1 0 0 1-.23-.14s-.11 0-.23.09c-.06-.15-.13-.22-.2-.2a.48.48 0 0 1-.3-.07v-.23h-.22a2.68 2.68 0 0 1-.55-.75 2.55 2.55 0 0 1-.18-1.02 19.58 19.58 0 0 1 .11-3.36q.2-1.77.34-3.5a.26.26 0 0 1 .18-.09 38.8 38.8 0 0 1 .86-5.59q.64-2.77 1.36-5.46a16.93 16.93 0 0 0-2 .7 11.73 11.73 0 0 1-2.32.66.45.45 0 0 1-.16.11.21.21 0 0 0-.11.11 5.31 5.31 0 0 1-.86 0 1.68 1.68 0 0 1-.82-.25 4.14 4.14 0 0 0-.37-.43 2.82 2.82 0 0 1-.34-.52 1.92 1.92 0 0 1-.18-.59 1.16 1.16 0 0 1 .14-.68 5.38 5.38 0 0 1 1 .27 1.92 1.92 0 0 0 1 .09 13.46 13.46 0 0 0 1.93-.52 8.22 8.22 0 0 1 1.84-.43 1.8 1.8 0 0 0 .18-.27c.09 0 .11.06 0 .09a.09.09 0 0 0 0 .14 2.58 2.58 0 0 0 .8-.39.58.58 0 0 1 .7 0 7.32 7.32 0 0 0 .55-1.68 6.83 6.83 0 0 1 .59-1.73 4.39 4.39 0 0 1 .34-1.32A7 7 0 0 0 23 53a11.45 11.45 0 0 0 .68-2.32 8.76 8.76 0 0 1 .68-2.18.09.09 0 0 0 0-.07.09.09 0 0 1 0-.07 13 13 0 0 0 .48-1.89 14.26 14.26 0 0 1 .48-1.93.19.19 0 0 1 0-.23c0-.06 0-.12-.07-.18a1 1 0 0 0 .32-.73 8.79 8.79 0 0 1 .14-1 1.78 1.78 0 0 1 .3-.73c.14-.18.42-.21.84-.09 0 .24.08.39.23.46a1 1 0 0 1 .41.32.39.39 0 0 0-.07.45 1 1 0 0 0 .3.36.68.68 0 0 0-.11.43.46.46 0 0 1-.16.39 4.06 4.06 0 0 1-.09 1.18q-.14.64-.32 1.3t-.34 1.34a8.37 8.37 0 0 0-.2 1.32.14.14 0 0 1-.09.14.15.15 0 0 0-.09.14v.14a.19.19 0 0 1 0 .14c-.09 0-.14 0-.14.09V50a.94.94 0 0 1 0 .23c0 .06-.07.09-.16.09s0 .15 0 .18.05.08 0 .14a.81.81 0 0 1-.23.09 3.27 3.27 0 0 1 0 .84.73.73 0 0 1-.43.66.14.14 0 0 0 .14.09c.06 0 .08 0 0 .14s0 .06 0 .18-.08 0-.14-.09a1 1 0 0 1-.07.7 1.37 1.37 0 0 0-.07.84 1.87 1.87 0 0 0-.39.84 3.81 3.81 0 0 1-.39 1v.14c0 .03.05.08 0 .14s-.08 0-.07.07 0 .05-.07 0a.55.55 0 0 1 0 .36l-.2.48a3.34 3.34 0 0 0-.18.5.88.88 0 0 0 0 .52 11.47 11.47 0 0 1 1.82-.48 6.62 6.62 0 0 0 1.68-.52.82.82 0 0 0 .64 0 1.8 1.8 0 0 0 .64-.34 18.84 18.84 0 0 1 .84-1.8 14.92 14.92 0 0 1 1-1.66v-.09a3.83 3.83 0 0 0 .77-1.3 3.83 3.83 0 0 1 .69-1.3 1 1 0 0 1 .55-.82q-.36.64-.64 1.18t-.64 1.18c.06.06.11.08.14 0a.19.19 0 0 1 .14 0 .27.27 0 0 1 0-.32 2 2 0 0 1 .25-.25.77.77 0 0 0 .2-.25.44.44 0 0 0 0-.37.78.78 0 0 1 .23.09.29.29 0 0 1 0-.41.88.88 0 0 0 .2-.41h.14s-.14.12-.14.18a.18.18 0 0 0 .14-.18.25.25 0 0 0 0-.32c.15 0 .24 0 .27-.16a.31.31 0 0 0 0-.29.5.5 0 0 0 .32-.59c.12.06.2 0 .25-.11s.08-.27.11-.39a.47.47 0 0 0 .3-.32.69.69 0 0 1 .25-.36q0-.18-.09-.09c-.06.06-.08 0 0-.09a4.18 4.18 0 0 1 .55-.36c0-.09 0-.14-.09-.16s-.08-.07 0-.16.09-.11.09-.14.09 0 .09.14l.18-.45.18-.45q.14.09.07.16l-.11.11c.12 0 .18 0 .18-.14q.18.23-.09.34t-.14.34a.33.33 0 0 0-.16.2.73.73 0 0 1-.11.25c.06.09.1.06.11-.09s.07-.21.16-.18c-.06.06-.05.1 0 .11s.08.08 0 .21a2.55 2.55 0 0 0-.5.23.74.74 0 0 0-.39.49c.06.09.1.09.11 0s.05-.12.11-.09l-.2.5q-.11.27-.34.18a1.38 1.38 0 0 1-.23.39.64.64 0 0 0-.14.43c-.09 0-.14 0-.16.11a.85.85 0 0 1-.07.21q0 .14.07 0t.07 0c.09.09.08.15 0 .18s0-.07 0 0V50c-.09 0-.12-.06-.09-.18s-.14 0-.14.09a.15.15 0 0 1-.09.14h.23a.45.45 0 0 1-.23.41c-.09 0-.12-.06-.09-.18a2.66 2.66 0 0 1-.2.34 1.82 1.82 0 0 0-.2.39c.15.06.2 0 .16-.14s0-.21.11-.18.1.26 0 .32a.48.48 0 0 0-.16.27q0-.14-.23-.09a.17.17 0 0 0-.14.23c-.06.06-.09.11-.09.14s0 .07.07 0a.13.13 0 0 0 0-.16.1.1 0 0 0 .11-.07h.11a.8.8 0 0 1-.14.34.78.78 0 0 0-.14.34C32 52 31.88 52 31.88 52a.29.29 0 0 0-.14.18.56.56 0 0 1-.14.23c0 .06.08.05.16 0s.1-.14.07-.21a.58.58 0 0 1 0 .48.37.37 0 0 1-.34.2.82.82 0 0 0-.3.45 1.07 1.07 0 0 1-.3.5.3.3 0 0 1 .07.11s.05.05.11 0c0 .15-.09.24-.18.27a.57.57 0 0 0-.23.14h.14a.49.49 0 0 1-.27.3.28.28 0 0 0-.18.3c.06.06.11.07.14 0a.15.15 0 0 0 0-.16q.18.09 0 .27a.8.8 0 0 0-.23.36v-.09a.38.38 0 0 0-.16.46.37.37 0 0 1-.2.45.45.45 0 0 1 .07-.27.45.45 0 0 0 .07-.27c-.15.06-.21.16-.18.3a.31.31 0 0 1-.18.34.18.18 0 0 1 .07.25l-.11.25a.18.18 0 0 0 .14 0l.14-.09a3 3 0 0 0 1.34-.14 2.89 2.89 0 0 1 1.3-.14c.18-.12.27-.2.27-.23s.06 0 0 0l2-6.18q.93-2.91 2-6a.49.49 0 0 0-.25.3.85.85 0 0 1-.2.34.12.12 0 0 1 0-.18.17.17 0 0 0 0-.18 1.81 1.81 0 0 0 .68-1 3.58 3.58 0 0 1 .55-1.14.11.11 0 0 0-.09-.11c-.06 0-.09 0-.09.07q-.14-.14.09-.27t0-.23a.58.58 0 0 0 .25-.5.55.55 0 0 1 .3-.5 1.19 1.19 0 0 1 .09-.82 4.72 4.72 0 0 0 .32-.68q.23-.64.39-1.11t.34-1q.23-.86.52-1.68a7.38 7.38 0 0 0 .27-1.95 1.4 1.4 0 0 0 .23-.3 1.4 1.4 0 0 1 .23-.29.63.63 0 0 1 .3 0h.25c0 .12.05.17.16.16a.87.87 0 0 1 .34 0 6.13 6.13 0 0 1 1 1.18q-.32 1-.59 2a15.4 15.4 0 0 1-.64 1.84 4.6 4.6 0 0 1-.61 1.71 3.34 3.34 0 0 0-.48 1.75l-.14.14a.51.51 0 0 1-.14.09 1.21 1.21 0 0 1-.23.91.86.86 0 0 0-.18.77.41.41 0 0 0-.23.27.67.67 0 0 1-.18.32.32.32 0 0 0 0 .27.32.32 0 0 1 0 .27 3.29 3.29 0 0 0-.2.39 1.15 1.15 0 0 1-.25.34.41.41 0 0 1 0 .43.56.56 0 0 1-.32.39.2.2 0 0 0 .11.11s.05.07 0 .16-.26.17-.32.41h-.09s.12.09.09.09zm-16.86 16.5q-.91 3.27-1.57 6.7a70 70 0 0 0-1 7q.59-3.5 1.11-6.91a43.57 43.57 0 0 1 1.57-6.68l-.09-.09h.09v-.27c0-.06-.13 0-.11 0a.37.37 0 0 1 0 .25zm-2.5 10.59c0 .15 0 .16 0 0s.02-.12-.01 0zm.25-1.77a.84.84 0 0 0 .23-.48.8.8 0 0 0 0-.48c0 .21-.05.38-.07.5a2.54 2.54 0 0 1-.16.46zm0 .18h.09v-.14H19zm.24-1.33c-.06 0-.08 0 0 0a10.71 10.71 0 0 1 .3-1.68 4.73 4.73 0 0 0 .16-1.5q-.14.77-.27 1.57T19.24 71zm0-2.14h.14v-.09h-.14zm0 6.18c.06.09.09.08.09 0s.02-.11-.04.02zm.18-.54c-.06 0-.06 0 0-.14s0-.12-.14-.09a1.42 1.42 0 0 0 0 .23q.1.15.19.01zm0-1c0 .12 0 .13 0 0s.13-.03.1.06zm.23-.73h-.14a.07.07 0 0 1 .09 0s.15.09.15.06zm0-5.14h.09v-.14h-.09zm0 3.82H20v-.14h-.14zm0-4.36c.06.09.09.08.09 0s.2-.09.14.06zm0 .14c.06.12.09.13.09 0s.2-.04.14.05zm.35 6.19a1.23 1.23 0 0 1 0-.25c0-.08 0-.13-.16-.16.04.24.09.38.16.41zM20 67l.07-.23a.19.19 0 0 0-.07-.18.36.36 0 0 1 0 .23V67zm0-.64c.06.06.1 0 .11-.07s0-.16-.07-.16a.18.18 0 0 1 0 .11.18.18 0 0 0 .02.09zm0-.27h.14v-.14H20zm.14 3.82v-.18c0-.07.04.11.1.14zm0-4.14c-.06 0-.08 0 0 0a.49.49 0 0 0 0-.45l-.09.21a.26.26 0 0 0 .24.21zm0 5.45h-.09s.29-.06.29-.03zm1.32-4.82c0-.12 0-.18-.14-.18a.18.18 0 0 0 .14.18c0 .12 0 .2-.07.23s-.1.11-.07.23c-.06-.06-.11-.08-.14-.07a.64.64 0 0 0-.14.11 1.33 1.33 0 0 1-.14.86q-.18 1-.3 1.86a14.43 14.43 0 0 1-.3 1.59 2.29 2.29 0 0 1-.14 1 1.24 1.24 0 0 0 0 .86q.82-1.68 1.75-3.52t1.8-3.66c.12 0 .2 0 .23-.09s.08-.05 0-.07 0 0 0 .07-.18 0-.18-.09l.2-.21a1.73 1.73 0 0 1 .25-.21.23.23 0 0 1 0-.25 1 1 0 0 1 .14-.3v.14c0 .03.08 0 .11 0s-.07-.09 0-.18l.11-.23q.09.14.11 0t-.11 0a2.25 2.25 0 0 1 .41-.59 1.24 1.24 0 0 0 .32-.59.21.21 0 0 1-.07-.27q.07-.18.25-.09a.29.29 0 0 0 0-.16.15.15 0 0 1 0-.16.14.14 0 0 1 .14-.09c.06 0 .08 0 0-.09q.36-.82.84-1.68t.93-1.86q-1 .32-1.82.5a15.22 15.22 0 0 0-1.73.5v.22a.13.13 0 0 0-.16 0h-.11c-.03 0 .09 0 .09-.14a1.6 1.6 0 0 1-.43.11.77.77 0 0 0-.34.11v.18a.19.19 0 0 1 0 .14 4.44 4.44 0 0 0-.5 1.27l-.32 1.5a5.65 5.65 0 0 0-.48 1.48q-.16.84-.25 1.48h.14s.29.13.17.13zm-1.27-1.18c-.06.09-.05.1 0 0s.28-.09.19-.03zm.14 5.18h-.14a.07.07 0 0 1 .09 0s.24 0 .24-.03zm.1-5.4l.14-.3c.06-.14 0-.2 0-.2a.28.28 0 0 1-.07.27c-.13.06-.13.14-.07.23zm.18 2.73c.06 0 .12 0 .18-.14a.18.18 0 0 0-.18.1zm.09 1.5c0-.09 0-.14-.09-.14s.03.13.09.1zm0-.27c.06.12.09.13.09 0s-.08-.13-.14-.04zm.18-5.32a.37.37 0 0 1 0-.2v-.21a.39.39 0 0 0-.07.21c-.06.06-.04.13.03.16zm0 3c-.06.09-.05.1 0 0s.12-.1 0-.04zm0 1.5a.37.37 0 0 1 0-.2s0-.1-.09-.16a.7.7 0 0 1 0 .2s.08.02.14.12zm0-5a.07.07 0 0 0 0-.07v.07a.07.07 0 0 1 .07 0s.05.02.05-.04zm0 3.09c.06-.06.06-.11 0-.14a.07.07 0 0 1 0 .07s.03 0 .12.03zm.09 1.27h-.14s.23 0 .23-.03zm.09-.91c0 .15 0 .16 0 0s.12-.16.09-.03zm.18-.64c0 .12 0 .13 0 0s.13-.12.1-.03zm.09-3.41v.09c.06.06.1 0 .11 0s0-.12-.07-.09l.06-.03zm.09 1.77q-.09.14 0 0c.2-.08.19-.09.1-.03zm0-2c.06.09.09.08.09 0s.07-.15.01-.03zm0 1.73v.14c.06.06.11 0 .14 0s0-.14 0-.14.02.03-.04-.04zm.36 0a.16.16 0 0 0 0-.18c0-.06-.08 0-.11 0s0 0 0 .07.18.07.21.07zm-.09-2.82v.07c0 .02 0 0 .07 0-.06 0-.09-.05-.09-.07s.18-.09.12-.03zm.14-.18H22v-.09h-.09zm0 2.36q.09.18.09 0t.01-.03zm.17-2.21v.09c.06.06.1 0 .11 0s0-.12-.07-.09H22zm0 1.32c.06.09.09.08.09 0s-.01-.12-.09 0zm.14-.5c0 .12 0 .12 0 0s.04-.12.01-.01zm0 .64c.09 0 .14 0 .14-.09s-.13.03-.13.09zm.09-.32c0 .12 0 .12 0 0s.04-.12.01 0zm0-.91c.09 0 .14 0 .14-.11s0-.13-.14-.07zm0 .77c.09 0 .14 0 .14-.11s0-.14-.09-.11 0 .1 0 .11.01.05.01.11zm.14-1c.06 0 .09 0 .09-.11s0-.13-.09-.07zm1.27 6l-.09.09v.18a5.78 5.78 0 0 0-.66 1 8.64 8.64 0 0 0-.48 1.11q.36-.55.66-1.07a6.87 6.87 0 0 0 .48-1 1.92 1.92 0 0 0 .18-.27h.09V67c-.06 0-.09 0-.09.14zm-1.09-6.77c0 .15 0 .16 0 0s.09-.21.06-.09zm.09.77a.36.36 0 0 0 .07-.18c0-.09 0-.15-.07-.18a.35.35 0 0 0-.07.18c.05-.01.07.06.13.09zm.73-2v.09c0 .09-.08 0 0 0s0 0 0-.09h.23a.25.25 0 0 1-.09.16 5.89 5.89 0 0 1 .66-.41 1 1 0 0 1 .7-.09.25.25 0 0 1 .27-.16.5.5 0 0 0 .36-.11.27.27 0 0 1 0 .18h.14a.08.08 0 0 1 .09-.09v.09c.09 0 .14 0 .16-.11s.07-.1.16-.07v.18c.06-.12.18-.16.36-.14-.06-.09 0-.14 0-.14s0 .15.09.09 0-.09-.09-.09c0-.06.07-.09.11-.09a.37.37 0 0 0 .16 0v.18h.14a.15.15 0 0 1 .09-.14c0 .12 0 .15.07.09a.34.34 0 0 1 .2-.09.18.18 0 0 0 .09.18c.06-.15.17-.17.32 0a.34.34 0 0 0 0-.25v-.16a.16.16 0 0 1 0 .23c.15 0 .23-.11.23-.23a.31.31 0 0 1 .14-.27.66.66 0 0 0-.43 0 .34.34 0 0 1-.34 0q-.64.23-1.39.43c-.5.14-.95.25-1.34.34a.81.81 0 0 1-.66.27.55.55 0 0 0-.37.13zm.34-1.8c0-.14 0-.14 0 0s.04.05.06-.08zm0 .89q0 .18 0 0t.08-.09zm.29 8.14c-.12 0-.14.08 0 .14s.11 0 0-.14.08 0 0 0zm.41-6.59q-.14.14-.14.09v-.09c0-.09.09-.08.09-.07s-.04.04.02.07zM25 59q-.14-.23-.23-.09T25 59zm0 6c-.06 0-.08.05 0 .07s0 0 0-.07.08 0 0 0l-.07.06zm0 0c0-.06 0-.08 0 0s0-.14-.09-.14.09.14.09.14zm.32-.68a.5.5 0 0 1 .09-.14.55.55 0 0 0 .09-.14.25.25 0 0 0-.18.11q-.08.09.02.13zm.45-1.55v-.18a.13.13 0 0 1 0 .09s-.04.03.02.06zm.09-4.2s-.01-.05.02-.04zm0 3.84l.11.07h.11v-.18q-.24-.02-.24.07zm.52-.64a.21.21 0 0 0 0-.32c0 .09 0 .18-.14.27a.28.28 0 0 0-.09.36.6.6 0 0 1 .21-.34zm-.07 1.18c0 .12 0 .18-.14.18V63l.09-.09zm0-.14a.09.09 0 0 0 .14 0 .09.09 0 0 0 0-.14v.09s-.2-.04-.2.02zm1-2.77l-.18.25a.54.54 0 0 0-.09.34c-.09 0-.14 0-.14.11a.46.46 0 0 1 0 .2.21.21 0 0 0-.16.16.3.3 0 0 0 0 .2.29.29 0 0 1 .14-.14c.06 0 .06-.11 0-.23h.09v-.18a.15.15 0 0 0 .07-.14 1 1 0 0 0 .16-.61 4.1 4.1 0 0 0 .55-1 1 1 0 0 0-.32.45 4.22 4.22 0 0 1-.23.55zm-.41 2c.09-.06.1-.05 0 0s-.17.06-.11-.04zm.45-1h-.09l-.01-.04zm.55-2.14h-.2v.1c.06 0 .09 0 .09-.14h.09v-.14c-.06.03-.09.08-.09.11zm.09 1.45c0-.12 0-.13 0 0s-.08.02-.11-.07zm.55-2.55a.08.08 0 0 0-.09.09.84.84 0 0 1-.16.21c-.08.08-.07.14 0 .2a.18.18 0 0 1 .09-.18c.06 0 .08-.11 0-.23a.08.08 0 0 0 .09-.09c.06 0 .09 0 .09-.07a.15.15 0 0 1 0-.11.28.28 0 0 0-.16 0s-.03.06.03.12zm-.14 1.55c.12 0 .15 0 .09.07a.34.34 0 0 0-.09.2c-.06 0-.06-.07 0-.11s-.05-.17-.11-.23zm.27-1.59c.06.09.09.08.09 0s-.14-.19-.2-.07zm.5-1.18a.51.51 0 0 0-.27.5.21.21 0 0 1 .16 0s.07 0 .07-.07 0-.17.11-.23a.32.32 0 0 0 .2-.32c-.18.06-.22 0-.11-.07s.11-.19 0-.25a3.43 3.43 0 0 0-.27.37zm1 .82a2.41 2.41 0 0 0-.66 0 .53.53 0 0 0-.52.36h.14a.08.08 0 0 1 .09-.09.61.61 0 0 0 0 .41c.18 0 .26 0 .23-.14a.16.16 0 0 0-.14 0s-.06 0-.09-.07a.26.26 0 0 1 .18-.09c-.09.09-.08.12 0 .09s.13 0 .07.14l.23-.11s.11 0 .23.07.08-.11.07-.16 0-.07.11-.07 0 0 0 .14l.32-.09a.42.42 0 0 1 .32 0 .36.36 0 0 1 0-.23.32.32 0 0 0 .14.23.31.31 0 0 1 .3-.18.6.6 0 0 1 .34.09l.47-.3c.17-.08.28-.08.34 0a.92.92 0 0 0 .18-.5l-1.27.1a4.82 4.82 0 0 0-1.19.33zm-1-.82a.09.09 0 0 1 0-.07v.07a.08.08 0 0 1-.09.09zm.82-1.59c-.15 0-.23.18-.23.45a.41.41 0 0 0-.23.27 1.78 1.78 0 0 1-.14.36.35.35 0 0 0 .25-.27 1.12 1.12 0 0 1 .11-.36.5.5 0 0 1 .18-.18c.06 0 .08-.12 0-.27a.11.11 0 0 0 .11-.07s.05-.05.11 0-.06.2 0 .14.06-.11 0-.14-.08-.15 0-.18c.06 0 .11 0 .14-.07s0-.13 0-.16a.1.1 0 0 0 0 .11s0 .07-.07.07a3.28 3.28 0 0 0 .23-.61.7.7 0 0 1 .36-.48v-.18a.54.54 0 0 0 .2-.14.63.63 0 0 1 .25-.14.19.19 0 0 0 0-.14.26.26 0 0 1 0-.18.21.21 0 0 0 .18-.07.2.2 0 0 1 .18-.07.62.62 0 0 0-.11-.16v-.2a7.86 7.86 0 0 0-.82 1.25q-.49.58-.81 1.35zm-.55 2h.09v-.09h-.09zm.09-.82h.14s-.24-.17-.24-.11zm.23-.36c.06.09.09.08.09 0s-.14-.24-.2-.12zm.14.59s-.17-.09-.11-.12zm0 .45c-.06-.12-.06-.16 0-.11s-.05-.03-.11 0zm.09-1.45c-.09 0-.11.07 0 .11s.08 0 0-.11.09 0 .18-.14c-.23-.11-.29-.07-.29.02zm0 13.32c.15 0 .21 0 .18-.11a.53.53 0 0 0-.09-.21.17.17 0 0 0 0 .16.13.13 0 0 1-.2.04zm0 .32c-.06.12 0 .19 0 .2s.01-.17-.06-.32zm0 4.86a.09.09 0 0 1 0-.14c.06 0 0-.06 0-.09a.37.37 0 0 1 0 .14c-.09-.06-.08-.03.01-.03zm0-.5c.09 0 .14-.07.16-.2s0-.2-.11-.2a.23.23 0 0 0 0 .2s-.04-.01-.11.08zm0 .91h.14v-.14h-.14zm1.41-9.54a.3.3 0 0 0 .07-.23l-.07-.23a2.2 2.2 0 0 0 .27-1.07 1.26 1.26 0 0 1 .36-.93.73.73 0 0 1 0-.41.61.61 0 0 0 0-.36.26.26 0 0 1 .18 0c.06 0 .08 0 0-.11q.23-.82.52-1.75t.57-1.71c-.06 0-.09-.05-.09-.07s0 0-.09 0-.07.09-.11.09a.36.36 0 0 0-.16 0q-.18.64-.41 1.25a6 6 0 0 0-.32 1.43.15.15 0 0 0-.16.14.41.41 0 0 1-.11.23q-.41 1.86-.84 3.48t-.8 3.25a14.59 14.59 0 0 1-.21 2.74 2.26 2.26 0 0 1 0 1.23 1.43 1.43 0 0 0 .11 1.09q.09-2.46.27-4.32a14.64 14.64 0 0 1 .96-3.86zm1.2-6.73h-.11q-.68 2.59-1.41 5.09a26.39 26.39 0 0 0-1 5q.5-2.77 1.16-5.09t1.43-5.09c.06 0 .08-.05 0-.07s0 0 0 .07-.11-.06-.13-.03zm-2.4-2.57a.17.17 0 0 1 0 .11.18.18 0 0 0 0 .11q-.09 0 0-.09a.36.36 0 0 0 0-.14zm0 19.18c.09.06.14 0 .14-.14v-.23s-.09.16-.09.37zm0 .68c.09 0 .14 0 .14-.11s0-.13-.14-.07zm.09-2.64h.09v-.09h-.09zm0 .77c0 .12 0 .12 0 0s.08-.12.05.01zm0 .45c0 .09 0 .08 0 0s.08-.11.05.01zm.14-19.59h-.09s.13.04.13.01zm.27 12.55h.23a5.62 5.62 0 0 0-.36 2 8.73 8.73 0 0 1-.23 2q.14 0 0 .25c-.06.17 0 .22.09.16q.14-1.73.32-3.3a10.49 10.49 0 0 1 .91-3.16 1.61 1.61 0 0 1 .18-1.09 1.07 1.07 0 0 0 .09-1 11.9 11.9 0 0 0-.55 2 5.66 5.66 0 0 1-.63 2.14zm-.23-12.82c.06.09.09.08.09 0s.02-.12-.04.01zm.18-.23h-.09s.14.04.14.01zm0 20c-.12 0-.15.08-.09.14s.09 0 .09-.14c0-.21 0-.32-.09-.32a.6.6 0 0 0 .19.33zm-.09.41s0-.18-.09-.18zm0 .64h.09v-.09h-.09zm0-1.91h.09v-.09h.05zm.09.46a.27.27 0 0 0-.09-.18c.14.12.17.18.23.18zm0-1.32c-.06.09 0 .14 0 .14s.22-.05.1-.14zm0 0a2.43 2.43 0 0 0 .14-.5.49.49 0 0 0-.14-.45 1 1 0 0 1 0 .48.73.73 0 0 0 .14.43zm0-18h.14V54h-.14zm0 .27v-.07c0 .01.2.04.14.07zm.14 16.68a1.59 1.59 0 0 1 .21-.45.43.43 0 0 0-.07-.41 2 2 0 0 1 0 .43.72.72 0 0 0 0 .44zm0-.91c.12 0 .16-.07.11-.21s0-.23 0-.3h.1a.14.14 0 0 1 0 .21.19.19 0 0 0-.07.31zm.21-2.08c.09.06.14 0 .14-.07s0-.16-.09-.16a.37.37 0 0 1-.05.23zm0 .23q.09.18.09 0t-.09-.01zm0 .91c.09 0 .17 0 .23-.14s0-.18-.09-.18l-.09.16a.28.28 0 0 0-.05.15zm.18-1.68h-.09v.14h.14a.18.18 0 0 1 0-.14 1.36 1.36 0 0 0 .16-.36c0-.15 0-.26-.07-.32l-.09.29a.82.82 0 0 0-.03.38zm.09 1a.31.31 0 0 0-.09-.23c-.06.06-.08.11-.07.16s.09.11.18.11zm-.07-15.19h.14v.23a.18.18 0 0 0-.09.18.18.18 0 0 1 0-.2.57.57 0 0 0-.05-.21zm.14 14.86a1.06 1.06 0 0 1 .07-.29q.07-.21-.07-.25a.75.75 0 0 1-.07.3.18.18 0 0 0 .07.24zm.09 1.5c-.15 0-.2.08-.14.14s.11.01.14-.14zm0-3.09v-.18c0-.06 0-.07-.14 0 .11.11.15.18.18.18zm-.14 2.86c.06.12.09.13.09 0s.02-.09-.04.01zm.14-16.41c.06 0 .06.06 0 .09a.09.09 0 0 0 0 .14c-.09 0-.11-.06 0-.09a.14.14 0 0 0 .04-.13zm0 14.37c0 .15 0 .16 0 0s0-.12 0 0zm.09-14.91q0 .23.11.14c.11-.06.13-.12.07-.18a.26.26 0 0 1-.18.04zm0 14.5c0-.09 0-.12-.09-.09s.1.08.13.08zm0-.32a1.53 1.53 0 0 1 .11-.32c0-.09 0-.15-.11-.18a.23.23 0 0 1 0 .27q0 .14.09.23zm0-14.68q.09.18.09 0t0-.01zm0 15.55q.09.14.09 0zm.27-10.27c.09-.06.1-.05 0 0s.03.08.09-.01zm0 7q.18 0 .27-.25c.06-.2 0-.31-.09-.34a2.41 2.41 0 0 1 .03.3.35.35 0 0 1-.12.28zm.11.84v.07l.09-.09s.01.03.01.01zm.52-1.84a7.12 7.12 0 0 1-.27.75 1.92 1.92 0 0 0-.14.93 4.44 4.44 0 0 1 .23-.84 3 3 0 0 0 .18-.84.19.19 0 0 1 0-.25.14.14 0 0 0 0-.21.38.38 0 0 1 0 .21.33.33 0 0 0 .1.24zM32.38 62a1.51 1.51 0 0 0-.23.82 1.76 1.76 0 0 0 .09-.23c0-.09.09-.09.18 0l-.07-.27a.82.82 0 0 1 0-.32c.12-.06.16 0 .11.07s0 .13.11.07a.86.86 0 0 1-.07-.18c0-.06-.07-.09-.16-.09zm-.14 1.36v.14a.35.35 0 0 0 0-.14s.04-.06.01-.03zm.14-.45c-.06 0-.07 0 0 .09s.05 0 0-.09.1 0 0-.11-.11-.07-.11 0a.08.08 0 0 1 .11.07zm0-1.18c0 .15 0 .16 0 0s.03-.16 0-.04zm.18-.18c0-.09 0-.09-.14 0h.09s.02.02.05-.04zm0-.14v-.18a.13.13 0 0 1 0 .09s-.06.02 0 .05zm0-11.68v.14s.02-.18.05-.18zm.23 11q-.18 0-.25.16c0 .14 0 .22.07.25a.84.84 0 0 1 .09-.21.93.93 0 0 0 .09-.21c.09-.06.09-.09 0-.09s-.04.05.05.11zm1.5-13.82a1.55 1.55 0 0 0-.41.68 3.83 3.83 0 0 0-.66 1 5.69 5.69 0 0 1-.61 1.07c.06-.24.13-.47.2-.68a1.14 1.14 0 0 1 .43-.55 2.57 2.57 0 0 1 .59-1.16 4.7 4.7 0 0 0 .73-1.11c.06.09 0 .2-.07.32a.6.6 0 0 0-.15.44zm-1.68 14.74c0 .09 0 .08 0 0s.03-.12 0 0zm0-10.91v-.07c0 .01.11.04.04.07zm0 10.64c.06.09.09.08.09 0s.02-.13-.05-.01zm0 1.14a.33.33 0 0 0 .2-.25.28.28 0 0 0-.07-.25q-.09.18-.07.23s.05.11-.02.26zm0 1.14q.09.18.09 0t-.05-.01zm0-7.45s.06-.02.09-.02zm0 4.36c.09.06.16.08.2 0a.34.34 0 0 0 .11-.14.16.16 0 0 0 0-.14h-.16c.12.06.11.09 0 .09s-.09.09-.06.18zm.09-3.14q0-.09.07-.23a.55.55 0 0 0 .11-.36h-.14l-.09.34a.24.24 0 0 0 .14.24zm0-6.86c.06 0 .08.05 0 .07s0 .05 0 .11-.08-.06 0-.09a.13.13 0 0 0 .14-.11zm0 11.41c0-.06 0-.08 0 0s0-.14-.09-.14.24.16.27.16zm0-.27c-.06 0-.08 0 0 0s.11-.07 0-.11.2-.03.23.09zm0-.68h.3v-.09h-.09zm0-.32a.26.26 0 0 0 .18-.09.26.26 0 0 0 .05.07zm0-1q.09.14.09 0t.21.03zm.14 1.45s0-.07.09-.11 0-.08 0-.11l-.11.11s.18.11.29.14zm2-11.46q-.64 1.64-1.18 3.41t-.91 3.18a25.23 25.23 0 0 0 1.11-3.14q.43-1.54 1.07-3.27c-.06 0-.08-.06-.07-.09a.08.08 0 0 0 0-.09c.12 0 .2-.08.23-.23a.35.35 0 0 0 0-.32.42.42 0 0 0-.11.25 1.79 1.79 0 0 1 .17.34zm-1.78 10.22c0 .12 0 .13 0 0s.03-.09 0 0zm0-3a.75.75 0 0 0 .27.5 1.56 1.56 0 0 1 .16-.32.37.37 0 0 0 0-.41.22.22 0 0 1-.18.11.41.41 0 0 0-.2.07zm0 2.14v.18c.21 0 .3-.06.27-.18a.17.17 0 0 0-.18-.06zm.18.73c.06 0 .08-.11 0-.25s-.08-.14-.14 0 .05 0 0 .11.08.06.24.09zm0 .16c0-.11 0-.13-.14-.07V60c.19 0 .24 0 .24-.1zm-.09.84a.13.13 0 0 1 .09 0c-.06-.06-.11-.09-.14-.09s.11.04.15.04zm0-11.23h.22c.06 0 0 .08-.14.07s-.05-.06.02-.12zm0 7.59c.06-.12.09-.12.09 0s.07.07.01-.05zm0 1.73h.18c0-.06-.06-.09-.18-.09zm.09 1.45c.06 0 .09 0 .09-.07a.16.16 0 0 1 0-.11c.02-.05-.02.01.01.13zm0-10.86v-.07c0-.07 0-.07.09-.07a.19.19 0 0 0 0 .14c0 .06 0 .08-.09 0zm0 9.14zm0 1.45c.06 0 .09 0 .09-.11s0-.13-.09-.07zm.09-11.55zm4-3.36v.09h-.09a5.67 5.67 0 0 0-.24 1.07 1.77 1.77 0 0 1-.55 1 12.52 12.52 0 0 1-.68 2.14 11.74 11.74 0 0 0-.68 2.23c-.06.06-.11.07-.14 0s-.06 0-.09.07a3.78 3.78 0 0 1 0 .46c0 .21-.12.33-.27.36s0 .14 0 .16a.11.11 0 0 1 .07.11q-.32.82-.59 1.73l-.5 1.68h.27a.58.58 0 0 1 .36-.54c-.12-.06-.17-.14-.16-.23a.9.9 0 0 1 .11-.3l.16-.29a.18.18 0 0 0 0-.23.3.3 0 0 1 .23 0 2.27 2.27 0 0 1 .11-.8 4.61 4.61 0 0 0 .2-.8H35c0-.06 0-.09-.07-.09h-.07c.15-.06.2-.14.16-.25s0-.19.16-.25c-.12-.06-.13-.14 0-.25a1.14 1.14 0 0 0 .2-.25.42.42 0 0 1 0-.52 2.35 2.35 0 0 0 .27-.66l.16-.64a1.35 1.35 0 0 1 .16-.41.13.13 0 0 0 .09 0h.09c.15-.09.23-.31.25-.66a2.48 2.48 0 0 1 .11-.75 2.28 2.28 0 0 1-.16.48q-.11.25-.2.48a.29.29 0 0 0 0 .23c0 .09 0 .11-.18 0a19.28 19.28 0 0 1 .77-2.23 16.21 16.21 0 0 0 .73-2.14v-.09a.75.75 0 0 0 .23-.55.85.85 0 0 1 .18-.55.59.59 0 0 0-.27.46 4.82 4.82 0 0 1-.14.68zm-3.86 4a.09.09 0 0 0 0 .07.18.18 0 0 1 0 .11s-.08-.06-.14-.18zm-.09 7.27h.14v-.09h-.14zm0 1.73h.18v-.23s0 .09-.07.09.03-.01.03.09zm.18 1.41v-.18a.26.26 0 0 0-.18 0c.06 0 .09 0 .09.07s.17.06.23.06zm-.18 1q.09.14.09 0t.05 0zM33.61 49c.06 0 .06.08 0 .11s-.06-.17 0-.11zm0 9.71c0 .09.05.08.07 0s-.01-.14-.07-.02zm.09 1.64a.41.41 0 0 1 .07-.2.15.15 0 0 0 0-.21.4.4 0 0 1-.07.21.15.15 0 0 0 0 .18zm0-12.23c0-.12 0-.12 0 0s.03.1 0-.02zm.23.27h-.14s.14.01.14-.02zm0 11c.12.06.18 0 .18-.09a.1.1 0 1 0-.18.09zm.07-1.11c-.06 0-.08.05 0 .07s0 0 0-.07a.12.12 0 0 0 .14-.14A.18.18 0 0 0 34 58a.78.78 0 0 0 0 .28zm0-1.18c0 .06.05.08.07 0s0 0-.07 0a.23.23 0 0 1 .07-.25c.08-.08.07-.14 0-.21a.52.52 0 0 1-.07.23.18.18 0 0 0 0 .23zm.18.73q-.18-.09-.09 0c.06.06.09.06.09 0s.08-.05 0-.07.02.01.02.07zm.23-10.18v.27q-.23 0-.18-.09a.27.27 0 0 1 .2-.18zm-.14 11h.14c.14 0 0 0 0 0a.07.07 0 0 0-.12.04zm0-1.64c0 .15 0 .16 0 0s.1-.08.07.05zm.09-9.41q-.09-.18 0-.09t.07.14zm0 9.18h.09v-.18h-.14zm.09-.27h.09v-.09h-.09zm.09-1.68q.09.14.09 0t-.02.04zm.77-9.46c0-.06 0-.07-.09 0s-.08.06 0 .09c-.15 0-.26.05-.32.25a1 1 0 0 1-.23.43.29.29 0 0 1 .09-.41.52.52 0 0 0 .23-.41.93.93 0 0 0 .36-.11l.23-.16c0-.06-.05-.08-.16 0s-.13 0-.07-.14.18-.09.18-.27a.52.52 0 0 1 .09-.36.49.49 0 0 0 .41-.43 1.25 1.25 0 0 1 .32-.61.33.33 0 0 1 .2-.16.21.21 0 0 0 .16-.11v-.09c0-.03-.07-.06-.07-.09a.18.18 0 0 1 0-.14h.09a.29.29 0 0 1 .16-.27.74.74 0 0 0 .25-.23 5.73 5.73 0 0 1-.64 1.25q-.41.61-.86 1.25a.18.18 0 0 0 .18.14 1.11 1.11 0 0 0-.3.61.56.56 0 0 1-.48.48.92.92 0 0 0 .07-.18.89.89 0 0 1 .07-.18c.16-.06.2-.07.2-.1zm-.64 10.77v-.09s0-.12-.09-.09.13.23.17.23zm0-9.18v-.18q.09-.23.27 0a.2.2 0 0 1-.14.11.11.11 0 0 0-.09.11zm0 8.46a.65.65 0 0 0 .34-.43c.08-.23.05-.37-.07-.43 0 .09-.08.21-.14.36a2.35 2.35 0 0 0 .04.55zm0-1.32c0-.07.11 0 0-.09s.18-.01.21.14zm0 2c.06.09.09.09.09 0s.18-.1.12 0zm.18-.09v-.18c0-.06 0-.08-.09 0s.18.17.3.17zm2.14.59a4.45 4.45 0 0 0-1-.07l-.99.07a.93.93 0 0 0 0 .3c0 .11 0 .16.09.16a4.81 4.81 0 0 1 1.91-.28l2 .09a.35.35 0 0 0-.43-.27 4.24 4.24 0 0 1-.52 0q-.09-.18-.34 0a.25.25 0 0 1-.39-.09c0 .06 0 .08-.09.07s-.06-.04-.03.02zm-1.2-11.32a3.76 3.76 0 0 1-.3.7 1.51 1.51 0 0 1-.48.57 4.84 4.84 0 0 0 .39-.64 4.76 4.76 0 0 1 .39-.63zM35 55.69c.09 0 .16-.09.2-.27s0-.27-.07-.27a.38.38 0 0 1 0 .3 1.24 1.24 0 0 0-.13.24zm.11-9.69v-.07a.18.18 0 0 1 0 .07v.07s-.03-.07 0-.07zm.23 8.59a.29.29 0 0 1 0-.23c0-.09 0-.11-.09 0a.13.13 0 0 0-.07.16c.01 0 .07.04.16.04zm0-9.54c.06 0 .08 0 0 .14h-.09a.09.09 0 0 1 0-.07.09.09 0 0 0 .04-.12zm0 10c-.06 0-.08.05 0 .07s0 0 0-.07.09-.06.09-.09 0-.08.09-.14c-.12-.08-.18-.01-.18.18zm.36-6.86a1.24 1.24 0 0 0-.25.45 1.17 1.17 0 0 0-.07.59q.14-.27.23-.5a1.47 1.47 0 0 0 .09-.55.71.71 0 0 0 .25-.41q.07-.27.11-.41a1.3 1.3 0 0 0-.36.74zm-.32 6.27c.15.06.21 0 .18-.07s0-.17 0-.2c-.09 0-.14 0-.14.07a.28.28 0 0 1-.04.11zm0 .27c0-.09 0-.11.09 0-.06-.09-.11-.14-.14-.14s.07.06.1.06zm.14-.64a.67.67 0 0 0 .23-.32.38.38 0 0 0 0-.36 4.3 4.3 0 0 0-.19.59zm.32-3.5c.09-.12.08-.2 0-.23a.43.43 0 0 1-.11.27c-.08.09-.08.17 0 .23a2.05 2.05 0 0 1 .15-.35zm-.18 2.27c.06.12.09.12.09 0s.01-.2-.05-.08zm.14-.5c.18 0 .27-.11.27-.25a.6.6 0 0 1 .09-.34.18.18 0 0 1-.14 0 .35.35 0 0 0-.14.32.45.45 0 0 1-.04.19zm.23-7.5c.06.06.05.12 0 .18a.25.25 0 0 0-.11.18.11.11 0 0 1 0-.18.7.7 0 0 0 .14-.26zm0 2.27a.34.34 0 0 0 .2-.21c0-.11 0-.17-.07-.2l-.09.18a.5.5 0 0 0-.01.16zm.09 4.14a.36.36 0 0 0 0 .23h.09v-.18a.41.41 0 0 1 .18 0 .08.08 0 0 0 .09-.09.08.08 0 0 1-.09-.09c0-.06 0-.08-.14 0s0 .11 0 .14-.05.08 0 .14zm.32-5.09a.57.57 0 0 0-.14.23.58.58 0 0 1-.14.23q.23 0 .2-.18a.31.31 0 0 1 .07-.27l.5-1.19a4 4 0 0 0 .27-1.2 11.44 11.44 0 0 1-.36 1.09 8.89 8.89 0 0 0-.37 1.21zm-.23 5.5c0-.06 0-.08 0 0a.21.21 0 0 0 .14.23.18.18 0 0 0 0-.21.17.17 0 0 1 0-.2c-.09 0-.13 0-.11.07s.1.03.01.03zm.13-7.68q0-.18 0 0zm.14-.23v.07c0-.01-.07-.03-.01-.06zm0 0s.05-.02-.01.01zm.41 5.77a.42.42 0 0 0-.27.34 1.61 1.61 0 0 1-.14.43c.15 0 .22-.07.2-.21s.05-.19.2-.16l-.11.21a.15.15 0 0 0 0 .2.45.45 0 0 0 .11-.27 1.67 1.67 0 0 1 .07-.32h-.11a.76.76 0 0 0 0-.18c.06.12.12.12.18 0s.06-.14 0-.16a.2.2 0 0 1-.14-.11c.06-.06.09-.08.09 0s0 0 .14 0c-.06-.09-.08-.15 0-.18a.49.49 0 0 0 .09-.18h-.14s-.06 0-.09-.07c.12 0 .15-.09.09-.27a1.22 1.22 0 0 0-.18.95zm-.27 1h-.09a.12.12 0 0 0 .14.14v-.16c0-.02-.09-.07-.06-.01zm-.1 6.46c.06.06.09 0 .09 0s-.03-.11-.09 0zm.09-8.86c-.06 0-.08.05 0 .07s0 0 0-.07a.18.18 0 0 1 0-.14.19.19 0 0 0 0-.14c.04.01 0 .14 0 .29zm0-5.41v.07c0-.01-.02-.03.04-.06zm.09 5h-.09s.14-.02.14.01zm-.09 8.91c0-.09 0-.08 0 0s.07.13.04.01zm0-13.27l.09-.18c.09.12.06.18 0 .18zm.09 7.23c0 .15 0 .2.09.14s.15-.11 0-.14zm0-7.41v-.07c0 .01.15.04.09.07zm.14 4.14c-.06 0-.08.05 0 .07s0 0 0-.07.07 0 0-.09.06-.03.09.09zm.09-.27c.09 0 .14-.06.16-.18s0-.2 0-.23zm0 1.32q.09.18.09 0t.04-.01zm.09.27h.09v-.09h-.09zm0 8s.21.01.18-.05zm.09-10.5c-.09.12-.08.16 0 .11s.33-.13.18-.16zm0 1.73a.15.15 0 0 1 .14.09c0 .06.06 0 .09 0a.43.43 0 0 1 .07-.43c.11-.16.08-.28-.07-.34 0 .15-.06.29-.09.41a1 1 0 0 1 .04.22zm.14.64a.25.25 0 0 1 0-.18q0-.09-.11 0c.15.06.2.12.29.12zm-.09-5l.25-.41a.39.39 0 0 0 0-.45 2.65 2.65 0 0 0-.14.43 2.86 2.86 0 0 1 .07.42zm.36 1.82a.45.45 0 0 0-.18.29l-.09.39a.36.36 0 0 0 .16-.27 1.65 1.65 0 0 1 .11-.41v-.07c0-.02.15 0 .18.06zm-.09 2.54c-.06.09-.05.1 0 0s.27-.07.18-.01zm.14-5.5c0 .12 0 .12 0 0s.21-.13.18-.01zm0 2.68c.06.09.09.08.09 0s.15-.13.09 0zm0 2.27s.18-.03.18 0zm.09-2.59c-.06.06-.08.09-.07.09h.07a.15.15 0 0 0 .07-.07s.17-.02.11-.02zm.27 1.09a2.62 2.62 0 0 0-.25.41.53.53 0 0 0 0 .45l.39-1a2.69 2.69 0 0 0 .2-1 2.61 2.61 0 0 1-.23.5.91.91 0 0 0 .07.64zm-.27-3.91H38v-.09h-.14zm.34 1.82a.21.21 0 0 0 0-.23.93.93 0 0 1-.09.21.37.37 0 0 0 0 .2.27.27 0 0 0 .09-.18zm0 3.37a.07.07 0 0 1 0-.11v-.07c0-.07-.09.14 0 .17zm0-2.55c.06-.15 0-.23 0-.23v.22zm0 12.09a.09.09 0 0 1 0 .07v-.07zm0-10c0 .09 0 .08 0 0s.09-.12.06 0zm.5-1.32a.56.56 0 0 0-.14.23l-.09.27q.23 0 .23-.5c.06 0 .08-.05 0-.07s.06.01.06.07zm-.18-2.18c-.06.09-.05.1 0 0s.15-.06.06 0zm.41-2h.09v-.14h-.09zm0-.36c.06.15.09.17.09 0s.08-.05.02.04zm0 3.82c0 .12 0 .13 0 0s.18-.06.15.04zm.23-1v.07h.09a.07.07 0 0 0 .06-.06zm.09-.11a.29.29 0 0 0 .07-.14c0-.06 0-.09-.07-.09s0 .11 0 .14.09.07.15.1zm0 13.36a.31.31 0 0 0 .23.09v-.14h-.18c0-.06 0-.07 0 0s.12.06.15.06zm2.06 10.2h-.14c-.03 0 0 0 0 0a.78.78 0 0 0 .23.23c.12.09.15.18.09.27s0 .13-.11.11-.13 0-.16.11a1.64 1.64 0 0 1-1-.61 2.54 2.54 0 0 1-.48-1.09 4.89 4.89 0 0 1 0-1.34 5.58 5.58 0 0 1 .3-1.36q-.09-.14 0-.14c.08 0 .11 0 .11-.09l.7-2.61q.34-1.25.7-2.61a.84.84 0 0 1 .86-.16l.86.29a1.4 1.4 0 0 1 .23.75 3 3 0 0 1-.11.8 6 6 0 0 1-.3.82 4.7 4.7 0 0 0-.27.77q-.46 1.45-.91 2.8a11.42 11.42 0 0 0-.6 3.06zm.36-3h.09c-.06 0-.09-.06-.09-.06zm3.59-14.23a5.82 5.82 0 0 1-.18 1.41 1.63 1.63 0 0 1-.88 1.04 1.34 1.34 0 0 1-.77-.52 1.29 1.29 0 0 1-.18-1 4.51 4.51 0 0 0 1-.61 1.66 1.66 0 0 1 1.01-.37zM56.75 64.6c0 .09 0 .15-.09.16a.21.21 0 0 0-.14.16c0 .06.08.05.14 0a.54.54 0 0 1 .18-.16c0-.09 0-.14-.09-.14a2.76 2.76 0 0 1 1-.73 2.27 2.27 0 0 0 1-.77.56.56 0 0 0 .48-.27.68.68 0 0 1 .3-.32c.06.06.14 0 .25 0l.34-.32a2.5 2.5 0 0 1 .39-.32.48.48 0 0 1 .39-.09 2 2 0 0 1 .77-.73 2.66 2.66 0 0 0 .86-.77h.43a6.14 6.14 0 0 0 .61-.11c-.06-.06-.11-.09-.14-.09s.11-.08.16-.07.1 0 .16-.07 0-.14-.09-.14l.73-.57.73-.57a.69.69 0 0 1 .14.55 1.43 1.43 0 0 1-.23.59 3.45 3.45 0 0 1-.43.52 1.83 1.83 0 0 1-.43.34 3.83 3.83 0 0 1-.73.86 2 2 0 0 1-1 .5c0 .12 0 .15.14.09a1.71 1.71 0 0 1-.55.5 7.38 7.38 0 0 0-.64.41v-.16c0-.02.08-.05 0-.11l-.25.07c-.08 0-.13.08-.16.21s0 .07.09 0a.13.13 0 0 1 .18 0q-1.09.82-2.16 1.66t-2.11 1.61q0-.18.09-.16c.09 0 .12 0 .09-.16s-.09-.05-.18 0a.22.22 0 0 0-.09.25.11.11 0 0 1-.11-.09c0-.06-.05-.08-.11 0q0 .27.27.23a.68.68 0 0 1-.32.36.34.34 0 0 0-.11-.14s-.05-.09 0-.18a.35.35 0 0 0-.14.11l-.14.16c0 .09.07.12.11.09s.07 0 .07 0a.3.3 0 0 1-.14.3l-.27.11a1.1 1.1 0 0 0-.27.14.47.47 0 0 0-.18.32c-.15 0-.17-.08-.07-.14s.13-.12.07-.18-.21 0-.18.16a.84.84 0 0 1 0 .39.92.92 0 0 0-.3.59 5.39 5.39 0 0 0-.07.89v.91a1.25 1.25 0 0 1-.18.7 35.82 35.82 0 0 1-.27 4.36q-.27 2.23-.75 4.43t-.96 4.33l-1.14 4.09q-.55 1.18-1.09 2.43t-1.16 2.48a19.11 19.11 0 0 1-1.39 2.34 9.46 9.46 0 0 1-1.77 1.93 7.76 7.76 0 0 1-2.48 1.68 5.68 5.68 0 0 1-3.16.45.71.71 0 0 1-.09-.27c-.06 0-.09 0-.09.07s0 .08-.09.11a6.09 6.09 0 0 1-2.68-.93 6.82 6.82 0 0 1-1.89-1.84 8.2 8.2 0 0 1-1.14-2.5 12.71 12.71 0 0 1-.43-3 10.17 10.17 0 0 1 .86-3.84 15.48 15.48 0 0 1 1.82-3.21 2 2 0 0 1 .55-1 4.26 4.26 0 0 0 .73-1c.15.06.22 0 .2-.11a.5.5 0 0 1 .07-.34.72.72 0 0 1 .27-.29 1.18 1.18 0 0 0 .32-.3q.68-.91 1.52-1.89t1.75-1.93q1.32-1.5 2.75-3a30 30 0 0 1 3.07-2.84q.77-.59 1.59-1.34a11.08 11.08 0 0 1 1.45-1.16q-1.36 1.32-2.82 2.66t-2.87 2.69q-1.43 1.41-2.73 2.89a29.61 29.61 0 0 0-2.39 3.11 2.7 2.7 0 0 0-.77.84q-.27.48-.59 1a5.34 5.34 0 0 0 .66-.84q.34-.52.7-1a2.35 2.35 0 0 1 .45-.5 1.1 1.1 0 0 0 .36-.59h.18a8.88 8.88 0 0 1 1.48-1.7 8.28 8.28 0 0 0 1.48-1.75.12.12 0 0 1 .14.14c.06 0 .08 0 0-.11s0-.13 0-.16a3.37 3.37 0 0 0 1.18-.89l1-1.16a.29.29 0 0 1 .18.14c0 .06.09.06.18 0s0-.16 0-.11a.15.15 0 0 1-.14.07 20.32 20.32 0 0 1 3.27-3.18q1.86-1.46 3.55-2.91a.92.92 0 0 0-.73 0 2.65 2.65 0 0 0-.61.43l-.59.54a1.17 1.17 0 0 1-.66.32q.64-.59 1.32-1.11l1.36-1.07a.86.86 0 0 1 0-.43c0-.17 0-.28-.11-.34a2.49 2.49 0 0 0 .23-.82 1.54 1.54 0 0 0-.14-1 5.26 5.26 0 0 0 .07-1.5c0-.58-.07-1.07-.07-1.5a24.59 24.59 0 0 1-2.14 2.48 13 13 0 0 0-2 2.52 7 7 0 0 0-.73.64 8.32 8.32 0 0 1-.77.68 5.55 5.55 0 0 1-.91.57 2.52 2.52 0 0 1-1.14.25 1.29 1.29 0 0 1-.39-.14.87.87 0 0 0-.43-.09 3.32 3.32 0 0 1-.8-1.11 4.86 4.86 0 0 1-.39-1.43 2 2 0 0 0 .07-.64 2 2 0 0 1 .07-.64 9 9 0 0 1 .8-1.72 10.93 10.93 0 0 1 1-1.7 7.87 7.87 0 0 1 1.23-1.41 4.33 4.33 0 0 1 1.45-.89A6.6 6.6 0 0 1 50 59a1.85 1.85 0 0 1 .86 1 1.53 1.53 0 0 1-.82 1 .89.89 0 0 0-.25-.07.41.41 0 0 1-.25-.11v-.48a1 1 0 0 0-.09-.34A8.37 8.37 0 0 0 47 62.65a10.8 10.8 0 0 0-1.34 3.68 4 4 0 0 0 1.64-.84 11.7 11.7 0 0 0 1.36-1.36q.64-.75 1.23-1.48a7.8 7.8 0 0 1 1.23-1.23.19.19 0 0 0 0-.14v-.14c0-.07.15.07.09.23a.81.81 0 0 0 .23-.23c.06.06 0 .12 0 .18a1.52 1.52 0 0 0-.23.18.89.89 0 0 0 .52-.34.94.94 0 0 0 .25-.61.27.27 0 0 0 .3-.09 1.53 1.53 0 0 0 .2-.34 3.07 3.07 0 0 1 .2-.39.89.89 0 0 1 .25-.27c0 .06.07.07.11 0s0-.05-.11 0c0-.15.09-.23.18-.23a.83.83 0 0 0 .27 0v-.16c-.06 0-.06-.05 0-.11s.08 0 .07.07 0 .05.07 0a1.68 1.68 0 0 1 .43-1.48 1.49 1.49 0 0 1 1.07-.45.93.93 0 0 1 .82.52q.27.5-.32 1.45a16.34 16.34 0 0 1 0 3.2 18.85 18.85 0 0 0 0 3.2L56 65l.61-.43zM34.47 90.42c.21-.06.31-.16.3-.3s.07-.23.25-.29c-.09-.15-.1-.26 0-.32s.07-.15 0-.27c.12.06.19 0 .2-.14a.38.38 0 0 0-.07-.32 4.11 4.11 0 0 0-.32.82 4.11 4.11 0 0 1-.36.82zm1.18-2.82v.18a.79.79 0 0 0-.25.34.59.59 0 0 0 0 .48 3.22 3.22 0 0 0 .27-.82v-.18c0-.12.08 0 .07 0a.31.31 0 0 0 .07-.16c0-.08 0-.11-.07-.11a.27.27 0 0 0 0 .27zm16.87-18.73a.51.51 0 0 0-.2.11l-.16.16a.36.36 0 0 1 0 .23.75.75 0 0 1-.18.14.67.67 0 0 0-.18.14.13.13 0 0 1 0-.09h-.09a.84.84 0 0 1-.23.23c-.09.06-.06.14.09.23a.19.19 0 0 1-.2 0s-.13-.05-.25 0 0 .13 0 .11.14 0 .14.07l-.43.36a2.26 2.26 0 0 1-.48.32v-.18a.3.3 0 0 0 .14-.14 1.12 1.12 0 0 1 .27-.14.29.29 0 0 0 .24-.32.56.56 0 0 0-.45.36 1.68 1.68 0 0 1-.34.23c-.17.09-.17.17 0 .23a2.38 2.38 0 0 1-.55.61A8.2 8.2 0 0 1 49 72c.06-.15.06-.2 0-.16s-.06.1 0 .16a.24.24 0 0 1-.27.27c.09-.09.08-.15 0-.18a.21.21 0 0 1-.11.11.45.45 0 0 0-.16.11.18.18 0 0 0 0 .14.19.19 0 0 1 0 .14 3.58 3.58 0 0 0-.84.73 4.09 4.09 0 0 1-.8.73.16.16 0 0 1 0-.11s0-.05-.09 0-.07.11 0 .14a.2.2 0 0 1 .07.18l-.34.32a1.28 1.28 0 0 1-.43.23v-.11a.11.11 0 0 0 .09-.11.44.44 0 0 0-.23.09c-.09.06-.11.12 0 .18 0-.12 0-.14.14 0s0 .24-.09.25a.38.38 0 0 1-.27-.07c0 .09 0 .13.09.11s.11 0 0 .16a.8.8 0 0 0-.27.2.46.46 0 0 1-.36.11.18.18 0 0 0 0 .11s0 .05-.07.11q0-.18-.14-.18a2.09 2.09 0 0 1-.84 1.25A4.86 4.86 0 0 0 43 78v.09a2.08 2.08 0 0 0-.48.59.54.54 0 0 1-.57.32v.27a.29.29 0 0 0-.18.14c0 .06-.11.06-.23 0a.22.22 0 0 1 0 .32.25.25 0 0 1-.36 0c0 .09 0 .13.09.11s.12 0 .09.07a.8.8 0 0 1-.55.32.15.15 0 0 1 0 .18.15.15 0 0 0 0 .18q0-.18.27-.09a1.38 1.38 0 0 0 .14-.25l.09-.25h.18c.09 0 0-.19.09-.2a.15.15 0 0 0 .14-.16v-.07.07c0 .07-.08 0-.07 0s0-.08 0-.14c.15 0 .24 0 .27-.11s.09-.1.18-.07c-.06-.06-.09-.11-.09-.14a.36.36 0 0 0 .3-.25q.07-.21.34-.16a.24.24 0 0 0 0-.21v-.07c0 .03.08 0 .07 0h.07c0-.15.09-.21.27-.18a.14.14 0 0 0-.09-.14c-.06 0-.08-.11 0-.23s.14.06.14.18a.3.3 0 0 0 .14-.14.29.29 0 0 1 .14-.14c-.12 0-.18 0-.18-.09a.23.23 0 0 1 .2-.16.72.72 0 0 0 .3-.11v-.18a.78.78 0 0 0 .23-.11l.18-.11a.49.49 0 0 1 .23-.45v.23c0-.15.07-.23.2-.23s.22 0 .25-.14a.16.16 0 0 0-.18 0h-.14a.68.68 0 0 1 .23-.27.47.47 0 0 1 .41 0c0-.12 0-.2.09-.23a.29.29 0 0 0 .14-.18q-.18 0-.16.09c0 .09 0 .12-.11.09a.83.83 0 0 1 .41-.55 4.55 4.55 0 0 1 .55-.27h-.14a.33.33 0 0 1 .41-.23.69.69 0 0 0 .11-.27c0-.09.11-.14.3-.14a.26.26 0 0 1 .11-.3 2.37 2.37 0 0 0 .3-.25v.18a.5.5 0 0 1 .18-.18.78.78 0 0 0 .18-.14q-.18 0 0-.25c.12-.14.23-.16.32-.07a5.84 5.84 0 0 1 .59-.77.73.73 0 0 1 .73-.32.63.63 0 0 1 .34-.21.45.45 0 0 0 .3-.25.55.55 0 0 0-.36.11l-.23.2-.07-.11a.47.47 0 0 1-.07-.11.49.49 0 0 1 .34-.18c.17 0 .23-.09.2-.18a.24.24 0 0 0 .25 0 .31.31 0 0 0 .2-.14c-.06-.06-.11-.07-.16 0s-.08 0-.11-.11a.5.5 0 0 1 .55-.32.51.51 0 0 0 .55-.27h-.18c-.03 0-.06 0-.09-.07a.86.86 0 0 0 .32-.3c.09-.14.2-.17.32-.11a.09.09 0 0 1 0 .14c-.06 0-.06.06 0 .09.06-.12.14-.17.23-.14s0-.14 0-.16-.08-.05 0-.11a2.72 2.72 0 0 0 .52-.48 1.05 1.05 0 0 1 .61-.34 2.19 2.19 0 0 0 0 .27s.06.06.18.09q-.82.64-1.66 1.43a20.51 20.51 0 0 1-1.61 1.39.15.15 0 0 1 0-.11s0-.05-.09 0-.16.23-.11.32 0 .18-.2.27-.08 0-.07-.09 0-.09-.07-.09q-.09.36-.27.09.09.18 0 .16c-.08 0-.1.05-.07.21s.08 0 .16-.07.14-.11.2 0a14.12 14.12 0 0 1-1.18 1.14q-.64.55-1.23 1.14h-.09s0-.07-.09-.07A.42.42 0 0 1 46 76a1 1 0 0 1-.5.25s0-.06.09-.09.06-.06 0-.09a1.49 1.49 0 0 1-.55.75 7.9 7.9 0 0 0-.68.52.17.17 0 0 0 .11 0h.11a1.13 1.13 0 0 1-.25.39.83.83 0 0 1-.48.21 22.51 22.51 0 0 1-1.55 2q-.82.93-1.59 1.84L39 84.28a28 28 0 0 0-1.5 2.64 23.61 23.61 0 0 0-1.21 2.89 19 19 0 0 0-.8 3.34 4.12 4.12 0 0 0 .34 2.45 3.74 3.74 0 0 0 1.48 1.55 5.84 5.84 0 0 0 2.16.7 7.43 7.43 0 0 0 2.39-.07 7.07 7.07 0 0 0 2.18-.8 3.91 3.91 0 0 0 1.5-1.43l.32-.14A31 31 0 0 0 49 90.1a46.29 46.29 0 0 0 2.3-6c-.06-.15-.05-.27 0-.34a.24.24 0 0 0 0-.3 4.7 4.7 0 0 0 .43-1.18 5.62 5.62 0 0 0 .27-1.22 31.85 31.85 0 0 0 1-4.46 32.53 32.53 0 0 0 .43-4.73 3 3 0 0 0 .16-1.36 4.18 4.18 0 0 1 .11-1.45.94.94 0 0 0-.57.39.64.64 0 0 1-.7.2c0-.06 0-.09.11-.09s.1 0 .07-.14.11 0 0-.09-.08 0 0 .09-.1 0-.11 0h-.11a.09.09 0 0 0 0-.07.09.09 0 0 1 0-.07.29.29 0 0 1 .18-.14.28.28 0 0 0 .18-.18c0 .09.08.13.16.11l.2-.07c-.12-.15-.08-.29.14-.43a1.85 1.85 0 0 1 .5-.25c-.09-.06-.1-.11 0-.14s.1-.08.07-.14a1.56 1.56 0 0 1-.27.11.34.34 0 0 0-.18.16l-.14-.14a2.18 2.18 0 0 1-.36.3 1.18 1.18 0 0 0-.35.4zM36.61 85.74h.09v-.09h-.09zm.23-.36s-.07 0-.11.09 0 .11 0 .14a.78.78 0 0 0 .09-.23c.06 0 .07 0 0-.09s-.01-.04.02.09zm.32-.68c.09 0 .17 0 .23-.14a.37.37 0 0 0-.24.13zm.36-.45c-.06.09-.05.1 0 0s.09-.07 0-.01zm1.32 14.5a.25.25 0 0 1 .18 0c.06 0 .08 0 0-.11s-.18.01-.18.1zM38.93 83a.21.21 0 0 1 .07-.1s.08 0 .11.07v-.27a.18.18 0 0 0-.23.09c-.01.09-.01.21.05.21zm.18 15.77h.09c-.06 0-.09-.08-.09.02zm.27 0h.09c-.06 0-.09-.08-.09.02zm.18 0c0 .09.05.08.07 0s-.01-.11-.07.02zm.18-16.55a.28.28 0 0 1 .07-.27l.23-.25.2-.23a.19.19 0 0 0 0-.25 1.36 1.36 0 0 1-.43.5q-.34.28-.06.52zm.09 16.59c0 .12 0 .12 0 0s.04-.1.01.02zm.27-17.68q0 .14.07 0t-.06.02zm.09 17.37c0 .12 0 .12 0 0s.04-.11.01.01zm0 .45c0-.09 0-.12.11-.09s.14 0 .11 0-.09-.07-.18 0-.05.05.02.14zm.23-17.82a.3.3 0 0 0 .28-.13.6.6 0 0 1 .14-.2.07.07 0 0 1-.07 0 .07.07 0 0 0-.07 0l-.18.16c-.06-.06-.08.04-.05.19zm.09 17.73h.11c-.05 0-.03-.05-.06.02zm.41 0h.09c-.06 0-.01-.09-.01-.03zm0-.36h.09c-.06 0-.01-.12-.01-.03zm.18.41c0 .12 0 .13 0 0s.13-.12.1-.03zm.14-.41h.14v-.14h-.14zm.5-.14a.26.26 0 0 0 .18-.09c-.02-.03-.08 0-.08.06zm1.32-.09a.13.13 0 0 1 0-.09v-.09q0 .36-.68.27c0 .15-.06.22-.18.2a.19.19 0 0 0-.23.16q.36-.09.89-.27a2.6 2.6 0 0 0 .84-.45.27.27 0 0 0-.32.11.33.33 0 0 1-.23.13zm-1 0h.11c-.05 0 .06-.17.03-.08zm.91-19.55c-.06.09-.05.1 0 0s.23-.13.14-.07zm.68-1.72c-.09 0-.14 0-.14.09a.15.15 0 0 1-.09.14h.14a.26.26 0 0 1 .09-.18c.12 0 .15 0 .09-.09s-.09-.07-.09.04zm.09.5c.09.09.13.09.11 0s-.04-.08-.1.01zm.09 20.41H44c0-.09-.06-.17-.18-.23zm.18-.27c.09-.06.16-.08.2-.07l.25.07c0-.15-.07-.21-.2-.18a.3.3 0 0 0-.26.19zm.82-.34q0-.16 0 0t.01.01zm0-20.84c0 .12 0 .12 0 0s.04-.12.01.01zm.23.18v-.18a.1.1 0 1 0-.09.18zm0-1.23h.09c-.06 0-.09-.05-.09.01zm.27 21.23c-.18.06-.27.15-.27.27s.22-.05.28-.26zm.09-20.82c-.09.12-.08.16 0 .11s.16-.07.01-.1zm0 20.73A2.09 2.09 0 0 0 46 96a.72.72 0 0 1 .52-.41q.36-.68.89-1.48t.93-1.57h-.18a9.33 9.33 0 0 1-1.27 2.16 20.81 20.81 0 0 0-1.42 1.86zm.68-22h.09c-.06 0-.04-.13-.04-.04zm.23-.23c-.06.09-.05.1 0 0s.14-.1.05-.04zm0 21.59c0 .12 0 .13 0 0s.13-.12.1-.03zm.09-21.68c.09.09.13.08.11 0s.05-.16-.01-.04zm.18.82c0 .09 0 .08 0 0s.13-.16.1-.05zm.09 20.46c.06.09.09.08.09 0s.07-.16.01-.04zm.27-.27v-.18.11c0 .01.04-.01.1.02zm.14-21.73c.15 0 .24 0 .27-.09a.55.55 0 0 1 .14-.23.56.56 0 0 0-.23.14zm.09 21.23c.06.09.09.08.09 0s.07-.17.01-.05zm.18-20.41h.09v-.09h-.09zm0-.5c0 .12 0 .13 0 0s.18-.14.15-.05zm.18-.7c.09-.08.08-.08 0 0s.06.02.15-.05zm0 21.43c0 .09.05.09.07 0s.19-.14.13-.05zm.14-20.64c.06 0 .12 0 .18-.14a.18.18 0 0 0 .01.09zm.14-.41h.09v-.09H48zm0 .23h.14a.26.26 0 0 0 0-.18v.09s.09-.02.09.04zm.23 18.59c-.12 0-.15 0-.09.09s.09 0 .09-.09a4.65 4.65 0 0 0 .32-.36.44.44 0 0 0 .09-.46 1.77 1.77 0 0 1-.23.41 1 1 0 0 0 .05.36zm.27-19.91c.09-.06.1-.05 0 0s.17.05.23-.05zm.27 19A3.72 3.72 0 0 0 49 91a.48.48 0 0 0-.18.21c-.04.07-.04.15.02.21zm.6-19.82c-.09 0-.17.06-.23.18.09 0 .17-.06.23-.18zm.09-7.6h.14v-.09h-.14zm.18-.36h.18s.08-.05.14 0v-.14a.2.2 0 0 1-.14.11.11.11 0 0 0-.18-.01zm0 .23c.06.09.09.08.09 0s.02-.16-.04-.04zm.23 7.41a.32.32 0 0 0 .2-.11c.1-.17.1-.17.03-.17s0 .14-.09.14-.12.01-.09.1zm4.18-12a.42.42 0 0 0-.11.25c0 .11-.1.17-.25.2s0-.08 0 0a3.17 3.17 0 0 1-.23.45.27.27 0 0 1-.36.14 2.81 2.81 0 0 1-.73 1.16 12.14 12.14 0 0 0-1 1 .37.37 0 0 1-.09-.27c-.15 0-.26.09-.32.27s-.17.24-.32.18a1.82 1.82 0 0 0 .45-.55 3.13 3.13 0 0 0-1.09 1.09.33.33 0 0 0 .25.07c.08 0 .08.05 0 .2a.18.18 0 0 0 .18-.11.18.18 0 0 1 .18-.11.1.1 0 0 0 .18.09h-.18c-.09 0 0-.08.09-.07h.18c.06-.06.07-.11 0-.16s0-.08 0-.11.11.09.14.09c-.06-.15 0-.23.07-.23a.34.34 0 0 0 .25-.09 7.4 7.4 0 0 1 .64-.82l.75-.82a10 10 0 0 0 .73-.86 2.81 2.81 0 0 0 .48-1c.06-.12 0-.14 0-.07s.04.11.16.08zm-4 4.41h.09c.06 0 .08 0 .07-.11s-.05-.1-.11-.07-.07.09 0 .09.07.03.07.09zm.5-.68a.15.15 0 0 0-.14.09.3.3 0 0 1-.14.14c-.06-.15 0-.24 0-.27a.21.21 0 0 1 .37.03zm-.27 7.91v-.11c0-.01.06 0 .09.07a.13.13 0 0 1 0 .04zm.09-7.23v.14c.06 0 .09 0 .09-.14a.29.29 0 0 0 .27-.18c-.18 0-.27.06-.27.18zm.18-.86c0-.06 0-.07.09 0s.12.03 0 0zm.18.27c.06-.12.09-.13.09 0s.07.09.01 0zm.5-1v-.23h-.09v.23zm-.09.41c.12 0 .17 0 .14.14h-.14zm.36 7.82a.22.22 0 0 0 .32-.11c.06-.14.15-.17.27-.11-.06-.12-.16-.13-.3 0zm0-9.27c.06-.12.09-.13.09 0s.11.13.05.04zm.18-.27c-.12 0-.15-.05-.09-.16s.12-.14.18-.11 0 .1 0 .11.02.11.05.2zm0 0c.06 0 .08 0 0 .09a.09.09 0 0 1-.14 0 .07.07 0 0 1 0-.07.07.07 0 0 0 .28.02zm.59-.86a.55.55 0 0 1-.36.36.58.58 0 0 0 .26-.19.21.21 0 0 1 .25-.1zM52 70h.27c0-.12 0-.17-.09-.14A.29.29 0 0 0 52 70zm.14-9.64c.09-.06.1-.05 0 0s-.14.06-.03-.03zm.55-.91c.06.09 0 .18-.09.27a1.2 1.2 0 0 1-.32.18 1 1 0 0 1 .2-.23 1 1 0 0 0 .17-.25zm-.27 1.27a.07.07 0 0 1 0-.07v-.07a.07.07 0 0 1 0 .07s-.1.01-.04.04zm.14 8.18a.29.29 0 0 0 .3-.16.28.28 0 0 1 .3-.16 2.54 2.54 0 0 1-.64.54c-.06-.06-.07-.1 0-.11a.11.11 0 0 0 0-.14zm0-8.77c0-.09 0-.12-.09-.09s.02.06.05.06zm.5-1.13a.36.36 0 0 1-.32.32.4.4 0 0 0 .11-.21c.02-.11.09-.11.21-.11zm.18-.23a.16.16 0 0 1-.18.18.14.14 0 0 0 .09-.14c0-.09.03-.1.1-.07zm0 10.14c0 .12 0 .13 0 0s.04-.13.01-.04zm0 .27h.14c0-.06 0-.09-.14-.09zm.09-10.55c0-.12 0-.19.07-.2a.1.1 0 0 1 .11 0 .1.1 0 0 1 0 .11s-.05.06-.17.06zm.23 9.37c-.12 0-.15 0-.09.09s.09 0 .09-.09a.17.17 0 0 0 .18 0c.06 0 .06-.08 0-.11s0 .08-.09.07-.09-.01-.09.04zm0 .73h.14v-.13h-.14zm.14-1.55s0-.06.09-.09 0-.08 0-.14l-.11.11s-.02.1.07.13zm5.18-3.32q-.09-.18-.23-.18 0 .18.23.18-.09.23-.41.16t-.41.16a.12.12 0 0 1 .14.14 2 2 0 0 0-.57.36l-.52.45h.18c.06 0 .09 0 .09.07a.23.23 0 0 1-.34.14q-.25-.09-.34.09a.29.29 0 0 0 .11.07s.05.05 0 .11l-.09.09q-.23-.18-.34-.11a.91.91 0 0 0-.23.2l-.23.27a.22.22 0 0 1-.3 0c0 .15 0 .24-.09.25s-.14.08-.14.21.18 0 .18 0l-.07.07a.42.42 0 0 0-.11.11v.11q.55-.41 1-.86a7.4 7.4 0 0 1 1.09-.82v-.14l.25-.09.25-.09a.46.46 0 0 0-.14-.16q-.09-.07 0-.07a1.62 1.62 0 0 0 1.25-.58 1.6 1.6 0 0 1 1-.64 2.15 2.15 0 0 1 .41-.55.73.73 0 0 1 .64-.23 6.16 6.16 0 0 1 1.07-.84 2.11 2.11 0 0 0 .84-.89.89.89 0 0 0 .68-.73.75.75 0 0 0-.34.25.75.75 0 0 1-.39.25.3.3 0 0 0 0-.23c-.15 0-.24 0-.27.09s.06.07.09 0 0 .1-.11.11a.14.14 0 0 0-.11.16c.09 0 .15 0 .18-.07s.06-.07.09 0a.8.8 0 0 1-.55.32c.09.12.08.2 0 .23l-.34.09v-.14c0-.03 0 0-.07 0l-.34.27a1.75 1.75 0 0 1-.34.23v.2a.11.11 0 0 1 .09.11.31.31 0 0 0-.34.23c0 .15-.17.17-.39 0a.68.68 0 0 1-.09.34c-.06.11-.17.11-.32 0v.11c0 .01.05.07 0 .16s-.14 0-.14 0 0 .08-.14 0a.18.18 0 0 1 0-.11.18.18 0 0 0 0-.11q-.32.09-.36.27h.14l-.25.14h-.25c-.12 0-.06.14 0 .23s0 .15-.09.18v-.23c-.12 0-.18 0-.18.11s0 .11-.14.11a.18.18 0 0 0 0 .11.18.18 0 0 1 0 .11zm-3.27 1.68l.25-.11q.16-.07-.07-.16a.15.15 0 0 1-.07.14.35.35 0 0 0-.07.15zm.14 1.68a.72.72 0 0 1 0-.18q0-.09-.11 0c.06.14.09.2.15.2zm0-.86c0-.06.07-.07.11 0s.05.05-.07.01zm0-.36H56v-.14h-.14zm.09 1h.23c.09 0 .12-.07.09-.16a.5.5 0 0 1-.23 0q-.05-.01 0 .16zm.09-.82h.09v.14H56zm.55-.36c0-.09 0-.11.09 0s.12-.01-.01-.04zm.32-.73h.18c0-.06-.06-.09-.18-.09zm.18.18h.09c-.06 0-.01-.12-.01-.03zm0-.82a.1.1 0 1 0 .09-.18v.09s.07 0 .04.06zm.36 1.36c.15 0 .25 0 .3-.11a.37.37 0 0 1 .2-.16.13.13 0 0 1-.09 0h-.14c-.06 0 0 .18-.09.18s-.05-.03-.05.06zm.18-.73c-.06 0-.09 0-.09-.14a.09.09 0 0 0 .07 0 .09.09 0 0 1 .07 0 .27.27 0 0 1 .09.12zm.23-1.41c.09-.06.1-.05 0 0s.07.07.13-.02zm.25 1.61h.14v-.09H58zm.52-.23c.14 0 .13-.08 0-.14 0 .06-.05.11-.16.16s-.11.1 0 .16c-.07-.08 0-.14.14-.17zm.25-2s-.05-.05-.02.05zm.09 1.68v-.13c-.09 0-.14 0-.14.09s.03.12.12.09zm.18-.32a.21.21 0 0 0 .25 0 .38.38 0 0 0 .2-.16.47.47 0 0 0-.3 0zm.09-.82h.14v.14h-.14zm.36-.23c0-.09 0-.08 0 0s.01.18-.02.06zm.73.27h-.18c-.12 0 0 .19.09.2s.13-.02.07-.14zm.18-.18c.15-.06.23-.12.23-.18-.17.06-.25.12-.25.24zm.09-.82l.09-.09c0-.06 0-.09-.14-.09a.26.26 0 0 0 .03.24zm.23.64h.14s-.09-.05-.09-.07 0 0-.09 0zm.32-.18c0-.09 0-.14-.09-.14s.05.2.05.2zm.55-1.55H62l-.18.16a.79.79 0 0 1-.23.11c-.06-.06-.07-.11 0-.14s0-.01-.03-.07zm.23-.5h-.12s.12.12.09.06zm0 0q.09 0 .18-.14a.18.18 0 0 0-.21.16zm.45 1.14c-.09-.09-.15-.09-.18 0s0 .09.09.09.1-.02.07-.08zm.59-.5a.2.2 0 0 0 .23-.23.2.2 0 0 0-.25.24zm.23-.27s-.03-.02-.03.01zm.34-.16c.08 0 .08 0 0-.11s-.2 0-.23.09zm.34-1.16c.09.06.2 0 .32-.09s.15-.21.09-.27l-.2.18zm.18.5q.14.14.11 0t-.13.01zm.18-.09c.09 0 .17 0 .25-.11s0-.16-.11-.16a.09.09 0 0 1 0 .14.15.15 0 0 0-.16.14zm.36-.27c0-.12 0-.19.11-.2s.11-.08.11-.21-.13.05-.2.16-.1.2-.04.26z"/><path class="cls-2" d="M75.93 31.14v-.09c-.06.06-.06.09 0 .09s0 .2.11.23a.63.63 0 0 1 .2.14.81.81 0 0 1-.16.36 1.37 1.37 0 0 1-.34.27.14.14 0 0 0 .2 0l.2-.18a.82.82 0 0 1 .27.41h-.21a.44.44 0 0 1 0 .41c-.08.12-.14.24-.2.36-.06-.09-.11-.11-.14-.07s-.11.07-.23.07a.15.15 0 0 0 .07.14.16.16 0 0 1 .07.14.27.27 0 0 1 .27 0 3.82 3.82 0 0 0-.11.48.6.6 0 0 1-.25.34s.12.08.27.23a.3.3 0 0 1-.14.14.18.18 0 0 0-.09.18.42.42 0 0 0-.18-.11c-.06 0-.11 0-.14.16a.18.18 0 0 0 .11 0s.08 0 .2.07q0 .23-.07.32a1.36 1.36 0 0 0 0 .41c.15 0 .18 0 .09-.09s-.06-.12.09-.09a.64.64 0 0 1 0 .27.51.51 0 0 0 0 .23c-.09.06-.12 0-.09-.07s0-.14-.09-.11-.05.11 0 .16a.16.16 0 0 1 .07.21.24.24 0 0 0-.2.09c0 .06-.14.08-.3 0v.11c0 .01.06 0 .09-.07s.07.1 0 .21l-.11.25c.12.06.18.06.18 0s.06-.09.18-.09c.06.15 0 .27-.18.36a.47.47 0 0 0-.27.45c.15 0 .21 0 .18-.07s0-.1 0-.16.14.05.07.16-.1.19-.07.25a.2.2 0 0 1-.18-.07h-.23c0 .09.07.14.11.16s0 .07 0 .16c.09.06.13 0 .11 0s0-.12.16-.09 0 .24-.11.27l-.3.09c.06.09.17.11.32 0 0 .21-.11.3-.32.27a.3.3 0 0 0-.07-.18v-.23q-.18-.09-.16.09c0 .12 0 .17-.11.14a1.73 1.73 0 0 1 .11-.73 2.92 2.92 0 0 0 .2-.73h-.22a1.87 1.87 0 0 1-.16 1 4 4 0 0 0-.3 1c.18 0 .26-.07.23-.2a.35.35 0 0 1 .09-.34.18.18 0 0 1 .18.11.27.27 0 0 0 .18.16 2.57 2.57 0 0 1-.2.41.53.53 0 0 1-.39.23c-.06-.06-.06-.11 0-.14a.15.15 0 0 0 .09-.14c.06 0 .08 0 0 0h-.18a1.08 1.08 0 0 0-.23.46l-.09.48q0 .25-.11.5a.82.82 0 0 1-.3.43.74.74 0 0 1 0 .45c.09 0 .14 0 .16-.09s.07-.08.16 0a.22.22 0 0 0 0 .25.22.22 0 0 1 0 .25.29.29 0 0 0 .18-.14.69.69 0 0 1 .14-.18c0-.09 0-.11 0 0a.09.09 0 0 1-.14 0q.09-.23-.23-.32a1.6 1.6 0 0 0 .32-.82 2.31 2.31 0 0 1 .23-.82c.09.06.14.08.16 0s.08 0 .2 0a.56.56 0 0 1 0 .21q0 .11.18.07l.09.09a.28.28 0 0 1-.18.18c-.15 0-.2 0-.14-.09s0-.11 0-.14-.11.08 0 .14a.26.26 0 0 1 .09.18.13.13 0 0 0 .09 0h.14a.79.79 0 0 1-.41.82c0 .06.06.07.09 0s.08 0 .14 0a4 4 0 0 1-.25.82 3.9 3.9 0 0 0-.25.86q-.27 0-.27.18c0 .09.06.09.09 0s.06-.09.09 0 0 .17-.07.23-.1.17 0 .32a.45.45 0 0 0-.3.45.58.58 0 0 1-.25.5c-.15 0-.22-.06-.2-.18a2.89 2.89 0 0 0 0-.36c-.15.06-.21.14-.18.25a.21.21 0 0 1-.09.25c-.15 0-.2 0-.16-.11s0-.16-.07-.25c.18-.06.28-.15.3-.27a.72.72 0 0 1 .11-.32c.24.12.39 0 .46-.27s.11-.56.14-.77a.14.14 0 0 0-.16.11.4.4 0 0 1-.11.2l-.18-.07c-.06 0-.08-.08 0-.2a.33.33 0 0 0-.16.2.21.21 0 0 1-.16.16.57.57 0 0 1 .09.32c0 .12-.08.18-.23.18a.11.11 0 0 0 .09.11c.06 0 .09 0 .09-.07q-.18.32-.34.66a3.44 3.44 0 0 0-.25.84.15.15 0 0 0 .14-.09c0-.06.08 0 .14 0 .06-.06.07-.11 0-.16s0-.08.07-.11.08 0 .07.11a1 1 0 0 0 0 .2c.12 0 .17 0 .16-.11a.21.21 0 0 1 .07-.2.24.24 0 0 1 .2 0 .37.37 0 0 0 .2 0 1.78 1.78 0 0 1-.3.86 2.82 2.82 0 0 0-.39.86c0 .09.06.11.18 0a.56.56 0 0 1-.3.36c-.14.06-.13.18 0 .36-.06-.06-.1 0-.11 0s0 .14.07.14a.35.35 0 0 1-.23 0c.06.24 0 .36-.23.36 0 .09.06.14.18.14a.2.2 0 0 0-.11.14.2.2 0 0 1-.11.14c0 .06 0 .08.07 0s.07 0 .07 0-.08.21-.14.16 0 0 0 .16a.22.22 0 0 1-.23 0c0 .06 0 .1.07.11a.11.11 0 0 1 .07.11.81.81 0 0 0-.36.66.44.44 0 0 1-.36.48c-.12 0-.15 0-.09-.11s0-.13-.09-.16a3.2 3.2 0 0 1 0 .34.27.27 0 0 0 .16.29.13.13 0 0 0 .07-.16c0-.07 0-.1.16-.07a16.73 16.73 0 0 0-1 2.36 6.58 6.58 0 0 1-1.32 2.23 13.63 13.63 0 0 1-1.32 2.77 27 27 0 0 0-1.5 2.77.74.74 0 0 0-.36.32.41.41 0 0 0 0 .45.47.47 0 0 1-.27 0 .08.08 0 0 0 .09.09.08.08 0 0 1 .09.09l-.16.16a.51.51 0 0 0-.11.2.14.14 0 0 0 .2 0c.08-.06.08 0 0 .23a6.51 6.51 0 0 1 .97-1.04 4.73 4.73 0 0 0 1-1.55.81.81 0 0 0 .45-.36 4.39 4.39 0 0 0 .36-.59 1.62 1.62 0 0 0 .59-.36 1 1 0 0 1 .86-.14c-.06.06-.07.11 0 .16a.59.59 0 0 0 .16.11 1.05 1.05 0 0 1 .7 0 .73.73 0 0 0 .57 0c.06.15.11.29.16.43a3 3 0 0 1 .11.52.13.13 0 0 1-.16.07c-.08 0-.11 0-.11.07s0 .08.14 0 .15 0 .18 0a7.68 7.68 0 0 1-.07 1 5.57 5.57 0 0 0 0 1.14.13.13 0 0 1-.18 0 .13.13 0 0 0-.18 0c.06.15.15.23.27.23a5.9 5.9 0 0 1-.25.61 1.64 1.64 0 0 0-.16.7c0 .06.06.07.09 0s.08-.05.14 0a9.08 9.08 0 0 0 0 1.57 8.05 8.05 0 0 1 0 1.48.14.14 0 0 0 .11.16c.08 0 .1.08.07.2a.59.59 0 0 0 .52-.23.84.84 0 0 1 .48-.32.15.15 0 0 1 .14.09.14.14 0 0 0 .14.09.6.6 0 0 0-.2.61 1.35 1.35 0 0 1 0 .66 1.66 1.66 0 0 1-1.7-.11 5.74 5.74 0 0 1-1.25-1.16c.06-.15.05-.24 0-.27a.27.27 0 0 1-.16-.18c.06-.06.1-.07.11 0s.05.05.11 0a.18.18 0 0 0 0-.14v-.18c0-.09-.09 0-.09.07s0 .07-.09.07V62.9a4 4 0 0 0-.23-1.36 1.78 1.78 0 0 0 .11-1 5.17 5.17 0 0 1 0-1.27 14.66 14.66 0 0 0-1.6 2.35q-.66 1.11-1.25 2.3t-1.25 2.36q-.61 1.18-1.3 2.27a2.6 2.6 0 0 0-.55.11 1 1 0 0 1-.5 0v-.14a.4.4 0 0 1-.18 0l-.09-.16a.24.24 0 0 1 0-.2.19.19 0 0 0-.14 0h-.14a3.81 3.81 0 0 0-.09-.52.55.55 0 0 0-.27-.29 4.11 4.11 0 0 1 .41-1.86 4 4 0 0 0 .35-1.75 6.57 6.57 0 0 0 .48-1.43c.11-.5.2-1 .3-1.5s.19-1 .3-1.48a11.3 11.3 0 0 1 .39-1.33v.2a.64.64 0 0 1 0 .25.37.37 0 0 1 .27-.09l.09-.54a.61.61 0 0 1 .23-.41.49.49 0 0 1 0-.45l.14.09.18-.09-.09.36a1.68 1.68 0 0 0 0 .41h.27a.43.43 0 0 1-.11-.5 2.7 2.7 0 0 0 .16-.5.31.31 0 0 0-.23-.09.51.51 0 0 0 .09.14v.18a.16.16 0 0 0-.11 0 .36.36 0 0 1-.16 0 1.59 1.59 0 0 0 .2-.8.53.53 0 0 1 .3-.52.18.18 0 0 0-.09-.18c-.06 0-.06-.11 0-.23s0-.08.09-.07a.19.19 0 0 0 .18-.07c.06.06.06.15 0 .27a.8.8 0 0 0-.09.36 2.41 2.41 0 0 0 .23-.52c.06-.2.11-.37.14-.52-.09 0-.14 0-.14.09a.4.4 0 0 1 0 .18.26.26 0 0 1-.18 0l-.14-.09a12.18 12.18 0 0 0 .64-2.36 11.17 11.17 0 0 1 .59-2.23.1.1 0 0 0-.07-.11s-.05-.05 0-.11a.2.2 0 0 0 .16-.25q0-.2.2-.16a2.34 2.34 0 0 1 .2-1.45 2.23 2.23 0 0 0 .2-1.41c.06.15.15.14.27 0s0-.09-.11-.09-.1 0-.07-.14a1.61 1.61 0 0 0 .43-1 2.31 2.31 0 0 1 .43-1.14.37.37 0 0 1 .09-.43q.18-.16 0-.39a3.41 3.41 0 0 0 .39-.89q.11-.43.2-.84a8.19 8.19 0 0 1 .23-.82A3.44 3.44 0 0 1 69.7 40c0-.09 0-.14-.07-.16s-.08-.07 0-.16a1.24 1.24 0 0 0 .37-.58c.09-.24.11-.39 0-.46q.45-1 .93-2.16T72 34.19a.74.74 0 0 0-.14-.18 33.1 33.1 0 0 0-2 4.75q-.86 2.57-1.77 4.66l1.11-3.57q.56-1.8 1.27-3.57a32.37 32.37 0 0 1 1.61-3.45 20.19 20.19 0 0 1 2.09-3.14 1.74 1.74 0 0 1 1.23.23 3.49 3.49 0 0 1 .82.82c0 .09-.06.13-.09.11s-.08 0-.14.07l.14.14c.03.06-.05.08-.2.08zM63.7 64.06h.14V64h-.14zm.32-.59c-.06-.15-.06-.25 0-.3a.48.48 0 0 0 .14-.3c-.12 0-.21.1-.27.3s-.02.3.11.3zm0-.68h.14v-.14H64zm.23-.45a.35.35 0 0 0 .07-.18c0-.09 0-.12-.11-.09a.19.19 0 0 1 0 .18c-.04.05-.02.08.04.08zm0-.36c.06 0 .12 0 .18-.14a.18.18 0 0 0-.23.16zm.45-4.77q.14.09.14.41l-.14-.14s0 .08-.18.14-.05-.13 0-.21a.85.85 0 0 0 .14-.22zm.55-2a1.58 1.58 0 0 0-.2.86 1.05 1.05 0 0 1-.34.82c0-.21.05-.42.07-.64a.43.43 0 0 1 .25-.41c0-.15-.05-.29-.07-.41s.04-.16.24-.19zm-.36 1.68q.09-.18.09 0t-.14.03zm.18-.36c0-.12 0-.12 0 0s-.07.15-.07.03zm.27-2.36a.26.26 0 0 0 .18 0 .41.41 0 0 0-.09.39c0 .17 0 .27-.18.3v-.23a.18.18 0 0 1-.09-.18.21.21 0 0 0 .11-.14.4.4 0 0 1 .02-.12zm0-.23c.12 0 .14.08.07.14s-.1.04-.07-.08zm.14 3.41h.09c-.06 0-.1-.07-.1.02zm0-4c.15 0 .23.06.23.18a.41.41 0 0 0-.18 0c-.03.03-.04-.02-.01-.11zm0 2.54a.22.22 0 0 0 .2-.16c0-.11 0-.17-.11-.2s-.08.16-.07.2a.21.21 0 0 1 .02.27zm0 .36a.32.32 0 0 0 .07-.16q0-.11-.11-.07c.08.23.09.31.12.31zm.18-4q.09 0 .07.32c0 .21-.1.29-.25.23a.37.37 0 0 0 .09-.27.37.37 0 0 1 .18-.25zm0 .68v.18c-.12 0-.18 0-.18-.09s.14-.09.27-.02zm-.18 4.09h.09c-.06 0-.01-.02-.01.04zm0 4.41c-.06.09-.05.1 0 0s.22-.03.13.04zm0-7.82c.06 0 .08 0 .07.09a.29.29 0 0 1-.07.14c-.06 0-.08 0 0-.09a.36.36 0 0 0 .18-.1zm.27-1.91a.77.77 0 0 0 0 .32c0 .06 0 .11-.18.14a.63.63 0 0 1 0-.27.16.16 0 0 1 .36-.15zm-.14 1.64c0-.12 0-.12 0 0s.21.16.18.03zm0 2.68v.09c.06.06.1 0 .11 0s0-.12-.07-.09l.14.04zm.32-4.91a.2.2 0 0 1 0 .25l-.18.21c-.06-.06-.06-.15 0-.27s.25-.15.36-.15zm-.18 4.55c.06.09.09.08.09 0s.16-.09.09.03zm.23-1.86a.55.55 0 0 1 .09-.25c.06-.11 0-.16-.09-.16a.23.23 0 0 1 0 .23.13.13 0 0 0 .18.21zm0-3.59c.12 0 .17.14.14.32s-.11.26-.23.23a1.7 1.7 0 0 1 .31-.52zm.09 4.23h-.18s.09.06.09.09 0 0 .09 0zm0-1.36c.06-.27.17-.44.32-.5-.09-.06-.19 0-.3.14s.16.28.25.38zm0-3.14h.14v.14h-.09a.19.19 0 0 1 .17-.08zm.45-1.91h.14a2 2 0 0 0-.2 1 .92.92 0 0 1-.34.77c.06-.36.12-.67.18-.93s.36-.51.45-.81zm-.32 4.41v-.09s.06 0 .09-.09a.12.12 0 0 0-.16 0c.23.13.24.17.3.2zm0-.59a.28.28 0 0 0 0 .16v.16c.09 0 .15-.07.18-.21s0-.21 0-.21.08.12.05.12zm0 1.5q.09.14.09 0t.14.02zm.18-1.73c.15-.06.22-.2.2-.43a.64.64 0 0 1 .16-.52q-.23 0 0-.21t0-.34a1.87 1.87 0 0 0-.2.73 5.11 5.11 0 0 1 .07.8zm0 .77a.29.29 0 0 0 .23-.23c-.09 0-.14 0-.14.07a.25.25 0 0 1 .14.19zM69.43 51a.25.25 0 0 1-.11.18c-.08.06-.07.12 0 .18s0-.08 0-.07 0 0 .07 0a.41.41 0 0 1-.25.23c-.11 0-.14.12-.11.27h.14v.07a.08.08 0 0 0-.09 0v.07c0-.01.07 0 .07.07a.45.45 0 0 0 0 .2c0 .08 0 .1-.14.07q.09-.09 0-.16h-.14c-.06 0 0 .14-.09.23l-.23.23a.22.22 0 0 1 0 .25c0 .08 0 .14.07.2a.78.78 0 0 0-.36.3.77.77 0 0 0-.14.43 1.34 1.34 0 0 0-.45.59 1.91 1.91 0 0 0-.18.77.38.38 0 0 0-.23.55.09.09 0 0 0-.14 0 .14.14 0 0 1-.14.09.56.56 0 0 1-.14.5.68.68 0 0 0-.18.5l.59-.7a1.89 1.89 0 0 0 .41-.84h.14v-.22a2.71 2.71 0 0 0 .61-.8 5.8 5.8 0 0 1 .57-.89c-.06 0-.1 0-.11.11s0 .11-.07 0a1.47 1.47 0 0 1 .09-.36l.09.09a.72.72 0 0 1 .18-.2c.09-.07.08-.13 0-.16a1.09 1.09 0 0 1 .23-.14v-.16a.2.2 0 0 1-.11-.11c.06-.06.1-.08.11 0s.05 0 .11 0a1 1 0 0 0 0-.41c.18 0 .26 0 .25-.14s.05-.15.2-.18A1 1 0 0 1 70 51a2.23 2.23 0 0 0 .34-.77h-.14c-.03 0 0 0 0 0V50a.11.11 0 0 1 .11.07s.05.05.11 0 0-.17-.07-.16-.14 0-.11-.16c.24 0 .38-.06.41-.18-.21.06-.3 0-.27-.14s0-.08.09-.14.09.07.09.11 0 .07.09.07a.31.31 0 0 1 .14-.27v-.14s-.08 0 0-.14q.18.09.3-.11a.24.24 0 0 0-.07-.34c.12-.06.17-.1.16-.11a.67.67 0 0 1-.07-.21.32.32 0 0 0 .27-.27.42.42 0 0 1 .23-.32q-.18-.09-.09-.36a2.23 2.23 0 0 1 .32-.27c-.12-.06-.18-.14-.18-.23a.19.19 0 0 1 .11 0h.11a2.24 2.24 0 0 1 .23-.73 1.24 1.24 0 0 0 .09-.82q.36 0 .32-.21a.41.41 0 0 1 .09-.39.24.24 0 0 0-.2.09.24.24 0 0 1-.2.09.09.09 0 0 1 0-.14c.06 0 0-.06 0-.09a.27.27 0 0 0-.14.23 2 2 0 0 0 0 .3.68.68 0 0 1 0 .25c0 .06-.08.08-.2 0a.28.28 0 0 1-.09.32c-.09.06-.06.12.09.18a.49.49 0 0 1-.16.27 1 1 0 0 0-.2.23c.06 0 .09.06.09.18s-.1.08-.11 0-.05 0-.11 0a.26.26 0 0 1 0 .41.38.38 0 0 0-.09.5c-.09.06-.16.07-.2 0s-.1 0-.16.11.1.07.11 0 0 0 .07 0-.13.37-.2.57a.83.83 0 0 1-.34.43.42.42 0 0 1 0 .32.45.45 0 0 0-.07.27c-.09-.06-.15 0-.18.09a.22.22 0 0 1-.23.18v.16a.11.11 0 0 1 .09.11 1.4 1.4 0 0 1-.36.57 1.1 1.1 0 0 0-.39.82zm-2.32-3.59c0 .27-.09.43-.27.45a1.82 1.82 0 0 0 .07-.27c.01-.13.09-.19.2-.22zm-.27 2c0-.06 0-.06.09 0s.07-.02-.09-.08zm.09 2.09q.09.18.09 0t-.09-.08zm0 2.45c.12 0 .18 0 .18-.09H67v.01zm0-3.77a4.35 4.35 0 0 0 .23-.55.85.85 0 0 0 0-.55l-.2.59a.64.64 0 0 0 .04.43zm0-3c.09.06.14.12.14.18s-.07-.18-.07-.3zm.23-.64c.15 0 .19.05.11.16s-.14.16-.2.16 0-.15 0-.18a.15.15 0 0 0 .18-.26zM67.07 56c.12 0 .14.08.07.14s-.02-.14.02-.27zm.09-5.36c0-.06 0-.14.07-.25s0-.16-.11-.16a.23.23 0 0 1 0 .23c.01-.07.04-.01.13.05zm-.09 3.59l.13-.23v.09s-.04-.02-.04.01zm.22-4.23c.15-.15.15-.24 0-.27.06.06.06.11 0 .16s-.06.11 0 .11zm0-3c.06-.12.09-.13.09 0s-.07.15-.13.06zm5.87-14h-.09.09a.08.08 0 0 1 .09.09 1.89 1.89 0 0 1-.27.18.58.58 0 0 1-.36.77.65.65 0 0 1 0 .39 1.77 1.77 0 0 1-.16.3 1 1 0 0 0-.14.32.66.66 0 0 0 0 .41 4.61 4.61 0 0 0-.61 1.77 8.84 8.84 0 0 1-.52 2c.06.06.1 0 .11-.07s0-.11.07 0 .07.26 0 .32a.79.79 0 0 1-.16.16l-.2.14a.22.22 0 0 0-.11.21l.1.01s.05.11 0 .23a.28.28 0 0 0-.32.09c0 .12 0 .17.11.14s.13 0 .07.14-.08.16-.16.11a.15.15 0 0 0-.2 0 .45.45 0 0 1-.07.27.46.46 0 0 0-.07.27c.15 0 .21-.11.18-.25s0-.21.18-.21a15.48 15.48 0 0 1-.89 3 9.73 9.73 0 0 0-.7 2.91 1.46 1.46 0 0 0-.43.84q-.07.48-.11 1.2a.45.45 0 0 1-.16.11.45.45 0 0 0-.16.11.43.43 0 0 1 .11.36 1.69 1.69 0 0 1-.11.45l-.18.43a.85.85 0 0 0-.09.3v-.07a.07.07 0 0 0 .09 0 5.54 5.54 0 0 0-.41 1.77.54.54 0 0 0-.25.61q.07.43-.25.48a.28.28 0 0 1 .07.25.28.28 0 0 0 .07.25q.64-1.27 1.11-2.5A12 12 0 0 1 69.75 49q.64-1.68 1.34-3.46t1.48-3.41a2 2 0 0 1 .11-.86l.3-.91c-.06 0-.11 0-.14.07s-.06.08-.09 0 .07-.23.11-.23a.25.25 0 0 1 .16.09v-.23c0-.06 0-.06 0 0s-.09 0-.09 0a.11.11 0 0 0 .07-.14.11.11 0 0 1 .07-.14c0 .06 0 .11.14.14a1.3 1.3 0 0 1 .09-.52l.18-.43-.16.07s-.08 0-.11-.11l1.09-4.07a16.62 16.62 0 0 0 .55-4.34 3.7 3.7 0 0 0-.93 1.18q-.4.63-.76 1.3zm-5.5 12.46a.85.85 0 0 0-.09.39c0 .14-.09.17-.27.11l.16-.23a.32.32 0 0 0 0-.27zm-.36.64c.06-.09.1-.09.11 0s-.03.05-.12-.05zm.09 2.86a.51.51 0 0 1 0-.16c0-.08 0-.1-.14-.07a.17.17 0 0 1 0 .14s.07.02.13.05zM67.3 60.1h.11c-.05 0-.09-.1-.12-.04zm.09.18c-.06.06-.08.1 0 .11h.09a.07.07 0 0 0 .07 0s-.08-.12-.17-.15zm0-5a.13.13 0 0 1 .07.16.32.32 0 0 1-.07.16c-.06-.06-.08-.11 0-.16a.28.28 0 0 0 .04-.2zm0-6.59c.09 0 .14-.14.16-.34a.9.9 0 0 0 0-.39 2.32 2.32 0 0 0-.17.69zm0 .82c.06.09.09.08.09 0s.01-.17-.05-.05zm.14 5.5q.09-.18.09 0t-.06-.01zm.09-7.18l.07-.14.07-.14c-.06 0-.11 0-.16.09s-.01.11.06.14zm0-.91a.08.08 0 0 1 .09-.09.41.41 0 0 0 .18 0v-.18a.32.32 0 0 1-.23.14c-.08-.07-.08-.01.04.08zm0 7.77c0 .12 0 .15-.09.09s.09-.13.22-.13zm.32-11.14a.73.73 0 0 1 0 .8 3.13 3.13 0 0 0-.34.8.9.9 0 0 1 .14-.8 1.32 1.32 0 0 0 .32-.84zm-.32 11.14v-.22h.09c.06.06.08.1 0 .11s0 .05 0 .11zm0-7.32c0 .12 0 .12 0 0s.16-.16.13-.04zm0 .54q-.09.14 0 0c.27-.09.26-.1.17-.04zm0-.82h.14V47h-.14zm0 7.27q.09-.18.11 0c.27.05.2.06.11-.03zm.09-7.86c.06 0 .11 0 .16-.11s0-.17 0-.21a.54.54 0 0 1-.09.14.26.26 0 0 0 .15.14zm.18 7.59c0 .06 0 .09-.14.09s.25-.12.36-.12zm0-8.27h.14v-.09h-.18zm.18-.32c-.06 0-.08.05 0 .07s0 0 0-.07q.23-.09.14-.41c-.09 0-.12 0-.09.14a.27.27 0 0 1 .13.23zm.14 8.18h-.09v-.09c.34-.08.35-.03.26.06zm.14-8a.25.25 0 0 1 .09-.16.29.29 0 0 0-.23.23c.26-.01.31-.04.31-.08zm.23 7.61c-.06.12-.18.17-.36.14.19-.1.31-.15.53-.15zm-.23-8.77h.09c.06-.06 0-.11 0-.14s-.12 0-.09 0a.13.13 0 0 1 .17.13zm0 .73c.09.09.13.09.11 0s.16-.1.1-.01zm0-1.09q.18.09.09 0c.2-.07.17-.07.17-.01zm0-.14h.14v-.14h-.14zm0 8.68c.06-.12.09-.13.09 0s.28.08.22-.01zm.18.46c-.15 0-.18 0-.09-.09s.43-.07.4.08zm0-9.46c-.06.06-.09.08-.09.07h.07zm0 8.82s.25.02.31-.01zm0-9c.09 0 .15 0 .18-.14s0-.2 0-.23a.3.3 0 0 1-.07.18.3.3 0 0 0 .15.23zm0 9s.37-.04.31-.01zm0-6h.07a.09.09 0 0 0 .07 0 .34.34 0 0 1 0-.14h-.09zm0-3.46c.15 0 .23-.1.23-.2a.58.58 0 0 0 0-.25c-.09.06-.13.12-.11.18a.44.44 0 0 1 .28.26zm.14 9.82v.07c0-.01.33-.05.39-.08zm.09 9.64h.18a.49.49 0 0 0 0 .5.27.27 0 0 1-.14.41c0 .09 0 .14.09.14s.12 0 .09.14 0 .06 0 .18a.61.61 0 0 1-.2-.61 2.51 2.51 0 0 0 .38-.77zm0-20.09h.09c-.06 0 .31-.1.31-.01zm0 19.46h.18c.06.06.06.14 0 .23a.53.53 0 0 1-.18.18zm.14-19.64a.26.26 0 0 1 .09-.18h-.18a.31.31 0 0 1 0 .21c.4-.04.42-.01.48-.04zm0 10.82a.1.1 0 0 1 .07-.11.11.11 0 0 0 .07-.11.19.19 0 0 0-.16.09c.39.06.4.06.46.12zm.14 11.09c-.06.06-.1 0-.11 0s.45-.16.54-.01zm0-13.18a.07.07 0 0 0 .09 0v.07c0 .07-.08 0-.07.11s0 .1-.11.07 0-.1 0-.11.51-.06.48-.12zm0-9.27a.4.4 0 0 0 0-.18.44.44 0 0 1 .09-.23c-.12 0-.2 0-.23.16s.48.2.57.23zm0 10.18q.09-.14.09 0t.34-.02zm0 .68q.09.14.09 0t.34-.01zm.23-.32a.13.13 0 0 1 0-.09v-.09.11c0 .01.37.03.43.06zm0-11.46a.21.21 0 0 1 .11-.11s.07-.07.07-.16-.12 0-.18.07a.14.14 0 0 0 .43.19zm0 9.77c.06 0 .09 0 .09.09s.3 0 .3-.1zm.09.64c.06 0 .08 0 .07.14s-.05.11-.11 0v-.14s.43.05.43-.01zm.64 9.67a3.74 3.74 0 0 1 0-.5.68.68 0 0 0 0-.45l-.14.52q-.11.34.14.43zm-.14-21c.06-.06.11-.08.16 0s.1 0 .16-.09a.32.32 0 0 0-.2 0 .14.14 0 0 0-.14.14zm0 11c.06 0 .09 0 .09.11s0 .13-.09.07zm.09 12.18c.09 0 .14 0 .16-.09s0-.14-.11-.14 0 .1 0 .11-.1.16-.07.22zm0-.77c.06 0 .11 0 .14-.07s0-.13 0-.16a.11.11 0 0 1-.07.11s-.12.15-.09.21zm0-19.59H70v-.09h-.09zm.18 19.27c0-.06 0-.12-.14-.18.01.22.01.31.12.28zm0 .77a.44.44 0 0 1 0-.2c0-.07 0-.1-.14-.07.01.28.01.37.17.37zm0 .68c0-.12 0-.18-.14-.18v.18q.01.19.12.1zM70 61.24q.18 0 .18-.45-.14 0-.14.16a.93.93 0 0 1-.04.29zm0 .36c.09.06.14 0 .14-.11s0-.19-.14-.16zm.09-1c.06 0 .11 0 .14-.14a.21.21 0 0 0 0-.23l-.09.16a.23.23 0 0 0-.03.21zm0-11c.09-.06.1-.05 0 0s0 .09.07 0zm.09-10.36h.18c.06 0 .09 0 .09-.07s-.08 0-.07 0 0-.09-.07-.09a.34.34 0 0 0-.07.09.36.36 0 0 1 .01.07zm.18 12c0 .12 0 .13 0 0s.1-.09.07 0zm.09-.86s0-.06.09-.09 0-.07 0-.14 0 .11-.07.14-.04.05.05.08zm0-11.86s0-.18-.09-.18zm.09 10.68c.09-.06.1-.05 0 0s-.04.08.02-.01zm.09 1.18h.09c-.06 0-.06-.07-.06-.01zm0-2.32c-.06.09-.05.1 0 0s.16-.06.07 0zm0 .64h.23v.14h-.11a.1.1 0 0 0 0-.15zm.18-10.91a.36.36 0 0 0 .19-.19c0-.09 0-.14-.07-.14a.32.32 0 0 0-.07.16.13.13 0 0 0 .07.16zM71 50.15v.18c0 .09.2 0 .14-.21s-.12-.19-.18-.07zm0-10.36c.09-.09.14-.09.14 0s-.03.08-.14-.01zm0 9.46c0-.09 0-.14-.09-.14s.09.13.15.13zm0-9.82a.26.26 0 0 0 .18-.09.26.26 0 0 0-.12.08zm0 8.5h.14v.14H71zm.14-11a.08.08 0 0 1 .09-.09c.06 0 .08 0 0-.09a.16.16 0 0 0-.18 0c.09.06.11.11.2.17zm0 12.41h.09s0-.08.09-.11-.09 0-.09 0h-.09v.09s.21-.05.15.01zm.09-1c.06-.09.06-.15 0-.18s0 .1 0 .11.09.07.15.1zm.36.14c-.06 0-.11 0-.14-.11s-.08-.07-.14 0 .11 0 .14.11.24.12.3.03zm-.18-.45a.11.11 0 0 1 .07-.11.21.21 0 0 0 .11-.11.15.15 0 0 0-.18 0 .11.11 0 0 0 .15.25zm0-1.91h.09V46h-.09zm0 1.18q0 .18 0 0t.15.03zm.09.32c.09-.06.15-.07.18 0s.06 0 .09-.07-.08-.07-.07-.11a.51.51 0 0 0 0-.16c-.12 0-.17 0-.16.11a.28.28 0 0 1 .12.26zm.09-1.09c0-.12 0-.12 0 0s.19.15.16.03zm.09.59a.54.54 0 0 0 .32-.27c-.06-.01-.16.08-.16.3zm.09-13.23a1.89 1.89 0 0 0 .48-.66 1.76 1.76 0 0 0 .2-.7 3.1 3.1 0 0 0-.36.66q.02.36-.16.73zm0 1.32c.09 0 .14 0 .14-.07a.16.16 0 0 1 0-.11.16.16 0 0 0 .02.21zm.18 11.36h.23a.11.11 0 0 0-.07-.11.1.1 0 1 0-.16.11zM72.43 35c.06 0 .08 0 0 .11s-.08.11-.14.11 0-.1 0-.11.14-.04.14-.11zm0 10.73h.14v-.09h-.14zm.14-.32a.14.14 0 0 0 .2 0 .28.28 0 0 0 .11-.23.76.76 0 0 1-.2.07.14.14 0 0 0-.12.17zm0-2.09q.09.14.09 0t-.05.01zm0-10.82a4.32 4.32 0 0 0 .39-.46.7.7 0 0 0 .16-.54 1.37 1.37 0 0 1-.27.48 1.32 1.32 0 0 0-.19.53zm0 12.68c.06 0 .08-.07.07-.11a.21.21 0 0 0-.11-.11c.13.16.14.23.17.23zm.45-.32a.37.37 0 0 1-.23-.07.79.79 0 0 0-.23-.11.34.34 0 0 0 .2.21.21.21 0 0 0 .4-.02zm0-1.32a.11.11 0 0 0 .18 0c.06-.06 0-.11 0-.14s0 0-.09 0 0-.14 0-.14-.08.1 0 .11.05.12.05.19zm.32-1.09a3.41 3.41 0 0 0-.07.34.18.18 0 0 1-.2.16.56.56 0 0 1 0-.21c0-.08 0-.11-.09-.11s.28-.11.49-.17zm-.09-1.14v.36a.25.25 0 0 0-.23.27v.18c0 .09.19 0 .2-.14a.25.25 0 0 0-.07-.23c.12-.06.18-.13.18-.2a1 1 0 0 1 .09-.34.18.18 0 0 1-.14 0s.16.06.1.12zm0-2.64c-.09.09-.09.14 0 .14s.22-.03.13-.12zm.41 3.14c-.15-.06-.2 0-.14.23.23.02.27-.04.27-.21zm.23-.77h.09v-.18H74zm.09-.73c.06.12.09.13.09 0s.1-.07.04.02zm.09-.27v.18a.13.13 0 0 1 .16 0 .19.19 0 0 0 .2 0c0-.15 0-.23-.11-.25a.5.5 0 0 0-.12.08zm.09-4.27c0 .09 0 .08 0 0s.16-.11.13.01zm.18 3.73c-.09-.06-.14 0-.14 0s.18.13.27.01zm0-4.68h.09v-.09h-.09zm.09-.41a.34.34 0 0 1 .09-.2c.06-.07 0-.1-.09-.07a.13.13 0 0 1 0 .16s.12.09.18.12zm0-.55c-.09.12-.08.16 0 .11s.38-.07.23-.1zm.09 5.73v-.16a.24.24 0 0 0 .09-.11c.06 0 .07.08 0 .14zm0-6c.06 0 .1 0 .11-.14s0-.17-.07-.14a.27.27 0 0 0 .23.29zm0 3a.36.36 0 0 1 .16 0s.08 0 .11-.09c.15-.16.06-.11 0 .1zm0 1.14h.09c-.06 0 .18-.08.18.01zm.09-.59q.18 0 .07.09c-.08 0-.1.11-.07.23a.34.34 0 0 0 .2-.23.24.24 0 0 0 0-.27.08.08 0 0 1-.09.09.08.08 0 0 0 .16.1zm0-1.23v.14h.18v-.18H75s0 .05-.07.05zm.09.32c0 .12 0 .13 0 0s.3-.08.3.01zm0-4.5c0 .15 0 .19.07.11s.42-.1.29-.1zm0 4.09q.09-.09.16 0h.16a.52.52 0 0 0-.2-.09c.25-.07.18-.02.24.1zm.14-4.14a.13.13 0 0 1 0-.18.13.13 0 0 0 0-.18.43.43 0 0 0-.07.23c.3.13.34.17.43.14zm-.09 3.82a.34.34 0 0 0 .14-.11s.11-.05.23 0 0-.16-.09-.11-.18 0-.18 0 .08-.06.07-.09-.05 0-.11 0a.41.41 0 0 1 0 .18.29.29 0 0 0 .3.14zm0-4.36c.06.09.09.08.09 0s.38-.14.32 0zm.14 3.27c.09.06.16 0 .2-.11s0-.19-.11-.16v.11c0 .01.28.08.31.17zm0-.91c.06 0 .15-.06.27-.18h-.18v.09s.36.04.36.1zm0 2v.09h.14v-.14h-.09l.4.1zm.09-1.77v.14c.06.06.1 0 .11 0s0-.14-.07-.14.44.08.41.05zm0 2.41h.14v.14h-.14zm.36-2.32c-.06 0-.09-.06-.09-.09s0 0-.09 0-.05.15 0 .18.65.02.68-.04zm-.18-1c0 .12 0 .12 0 0s.53-.02.5.1zm.18 1.91c.06 0 .08.05 0 .07s0 .05 0 .11.44.01.5-.08zm0-3h.09c-.06 0 .41-.04.41.05zm.66 1.19c.09 0 .08-.11 0-.23-.07.15-.06.23 0 .23zm.18-1.59q.09-.14.11 0t-.13 0zm11.34 28.86h.23c.15 0 0-.07 0-.23.06 0 .08 0 .07.07a.1.1 0 0 0 0 .11.6.6 0 0 0 .09-.34 1.57 1.57 0 0 1 0-.39q0-.09-.14 0a.26.26 0 0 0-.09.18.43.43 0 0 1 0-.41.43.43 0 0 0 0-.41.56.56 0 0 0 .3 0c.14 0 .2 0 .2.11a.31.31 0 0 0 0-.34q-.11-.16.11-.25v-.18c0-.09-.13 0-.11.07s0 .1-.11.07a.46.46 0 0 0 0-.3.48.48 0 0 1 0-.25c.12 0 .17 0 .14.11a.23.23 0 0 0 0 .25c.21.06.36.27.45.64a1.91 1.91 0 0 1 0 .91v-.09a6.1 6.1 0 0 1-1.16 3.18q-1 1.41-2 2.64a2.79 2.79 0 0 1-1.25 1.36 4.09 4.09 0 0 1-1.84.54 5 5 0 0 1-1.5-1.23 3.67 3.67 0 0 1-.73-2 8.77 8.77 0 0 0-1.07 1.3q-.48.71-1 1.36a6 6 0 0 1-1.11 1.2 3.36 3.36 0 0 1-1.61.55 1.1 1.1 0 0 1-.43-.25 2 2 0 0 0-.39-.3.57.57 0 0 0-.36-.64 2.82 2.82 0 0 1-.15-1.23 9.15 9.15 0 0 1 .18-1.27q.41-1.73 1-3.59A15.47 15.47 0 0 1 76.52 58a1.07 1.07 0 0 1 1 .39 3.91 3.91 0 0 0 .66.75q.09.37-.11.48a3.38 3.38 0 0 0-.39.25L77 62.58q-.39 1.39-.8 2.7a.35.35 0 0 0 .43-.14 3.36 3.36 0 0 0 .25-.41 13.2 13.2 0 0 0 1.36-1.59 16 16 0 0 1 1.32-1.59l.59.14c.24.06.35.18.32.36a1.23 1.23 0 0 1 .91.32 2 2 0 0 1 .48.8 5.32 5.32 0 0 1 .14 1.07 8.93 8.93 0 0 0 .2 1.14 3.08 3.08 0 0 0 1.23-.75 13.41 13.41 0 0 1 1-1c.06-.09 0-.13 0-.11s-.11 0 0-.11l.27-.34a2.86 2.86 0 0 0 .27-.39h.09a.08.08 0 0 0 .09.09 1.18 1.18 0 0 0 0-.45 10.83 10.83 0 0 0 .91-1.3 7.8 7.8 0 0 0 .73-1.57 5.36 5.36 0 0 0 .27-1.7 3.77 3.77 0 0 0-.41-1.7 1.3 1.3 0 0 1 .86.57 1.1 1.1 0 0 1 .23 1.07c0 .15.08.2.14.14s.11 0 .14.09-.02.18-.02.08-.05-.11-.11 0a.59.59 0 0 1 .07.48q-.07.25-.16.5a4.66 4.66 0 0 1-.2.48.44.44 0 0 0 0 .41q-.09.09-.27 0c.06.09.06.15 0 .18s-.06.11 0 .23h-.18c-.03 0 .07.17 0 .34a1 1 0 0 0 0 .48.18.18 0 0 1-.14 0h-.18c-.09 0 0-.15 0-.18a.18.18 0 0 1 0-.14h-.16a.83.83 0 0 0 0 .21.88.88 0 0 1 0 .21c0 .06-.07.07-.16 0s0 .09.07.09a.16.16 0 0 1 .11 0 2.41 2.41 0 0 0-.11.25.4.4 0 0 0 .07.25c-.06.06-.11.06-.16 0a1.11 1.11 0 0 1-.11-.18.15.15 0 0 0-.09.14c0 .06-.06.08-.18 0a.44.44 0 0 1 0 .32l-.14.23a.47.47 0 0 1-.27 0 .25.25 0 0 0 0 .18.43.43 0 0 1 0 .23c.06.06.12.05.18 0a.28.28 0 0 1 .23-.11.25.25 0 0 0 0 .18.42.42 0 0 1 0 .23 1.48 1.48 0 0 0-.36-.09c0 .12 0 .18.09.18a.18.18 0 0 1 .18.09 1.79 1.79 0 0 0 .7-.82 1.31 1.31 0 0 1 .75-.73c0-.15-.07-.18-.11-.09s-.1.08-.16 0q.32-.09.27-.5c0-.27 0-.45.18-.54v.22c.12-.09.17-.11.16-.07s0 .08.11.11a.31.31 0 0 0 0-.29c-.29-.17-.34-.26-.4-.29zm-9.18 4a.34.34 0 0 1 .3 0c.11 0 .14 0 .11-.18a.41.41 0 0 1-.45 0 .36.36 0 0 0 .04.23zm1-1q-.18 0-.09.09c.06.06.09 0 .09-.09.18-.06.29-.14.32-.23h-.2a.4.4 0 0 1-.12.23zm.55-.59H80v-.14h-.09zm5.14 2h-.18c-.03 0-.08-.05-.14 0s.05.12.16.18.13.02.13-.13zm-.27-.59a.31.31 0 0 0 .27-.14.31.31 0 0 1-.2 0c-.09.06-.11.13-.08.19zm.23-.36c0-.15-.06-.23-.18-.23-.02.2.04.27.19.27zm-.14.64H85c0-.09-.06-.12-.18-.09zm.41-.5a.12.12 0 0 0 .14-.14.31.31 0 0 1-.14 0h-.09c.06.12 0 .2 0 .25s-.08.1 0 .16c-.04-.16-.01-.23.08-.23zm-.14-.46c.09-.06.15-.08.18-.07s.08 0 .14-.11c0 .09 0 .08 0 0s0-.13-.14-.07a.28.28 0 0 1 0 .16.23.23 0 0 0-.19.13zm.32-.45a1.37 1.37 0 0 1 0-.23q0-.14-.11-.09c.01.22.04.33.1.36zm.09-.77s-.01.01-.01.04zm0 1.09v.14h.09a.13.13 0 0 0 0-.09l-.05-.01zm.34.43c.08-.08.07-.08 0 0s-.04.11.04.04zm.43-.66a.08.08 0 0 0-.09.09.59.59 0 0 0-.18.16.14.14 0 0 0 0 .21 1.23 1.23 0 0 1 .11-.18.3.3 0 0 0 .07-.18.08.08 0 0 0 .09-.09.48.48 0 0 0 .29-.3c0-.14.19-.17.43-.11-.09-.21-.24-.23-.43-.07a.67.67 0 0 0-.25.5zm.18-1.45c0-.12 0-.11 0 0s.01.19.04.04zm.09-.36c.09 0 .14 0 .14.09h-.14zm.27-.09c.06 0 .08.09 0 .18h-.14v-.09a.08.08 0 0 0 .18-.06zm-.09 1.09s.08 0 .14.09c0-.15 0-.21-.14-.18zm.09-1.68q0 .18 0 0t.04.03zm.36 1.41a.36.36 0 0 0 0 .23h.16a.19.19 0 0 0-.07-.18c.09 0 .11 0 0-.09s-.08 0 0 .09zm.27-1.73c0 .09 0 .11-.09 0s.02 0 .14.03zm0 .86q.14-.09-.09-.23c.03.21.06.27.19.27zm.18-1.41c.06 0 .08 0 .07.09s-.05.12-.11.09v-.14h.14zm0 1.55c0 .09 0 .08 0 0s.08-.09.05.03zm3.41.84l-.09.14c-.09.14 0 0 0 0a.18.18 0 0 0 0-.14q-.5.73-1 1.59a11.24 11.24 0 0 0-.84 2s.08 0 .14-.09v.18A18.31 18.31 0 0 0 93 62.46q1.54-1.82 3.14-3.55a.63.63 0 0 1 .66.16 1.66 1.66 0 0 1 .3.52l.09-.09v-.07c0-.07 0-.1-.09-.07a.93.93 0 0 1 .7.54 2.06 2.06 0 0 1 .11.93c0 .35-.08.73-.16 1.14a6.58 6.58 0 0 0-.11 1.2c-.09 0-.11-.06 0-.18a.59.59 0 0 0-.11.36.64.64 0 0 0 .07.41q-.14.86-.32 1.68a2.59 2.59 0 0 0 0 1.45h-.14a.67.67 0 0 1 0 .25c0 .08 0 .14.09.21s0 .08-.07.07-.07 0-.07.07c.15.06.22.21.2.46a.73.73 0 0 0 .2.59.29.29 0 0 1-.25 0c-.08 0-.1 0-.07.16a.59.59 0 0 0-.45 0 .81.81 0 0 1-.25-.27.56.56 0 0 0-.34-.23 3.64 3.64 0 0 1-.45-1.39 8.4 8.4 0 0 1 0-1.52q0-.77.14-1.61t.14-1.66a13.46 13.46 0 0 0-1.45 1.5q-.68.82-1.41 1.57a11.45 11.45 0 0 1-1.59 1.36 4.68 4.68 0 0 1-2 .8l-.5-.18a1.6 1.6 0 0 1-.5-.27c0-.12 0-.21-.18-.27a1.88 1.88 0 0 0-.45-1.18 10.24 10.24 0 0 1 1.77-4.64 19 19 0 0 1 3.14-3.54 4.16 4.16 0 0 0 .5 0 1.1 1.1 0 0 0 .41-.16 6.19 6.19 0 0 0 .57.29 4.8 4.8 0 0 1 .61.34 1.18 1.18 0 0 1 .41.45.88.88 0 0 1 0 .68c-.06-.06-.09-.07-.09 0s0 .07-.09.07a.17.17 0 0 1-.2 0 .24.24 0 0 0-.2-.09 3 3 0 0 0-1.25.89 3.79 3.79 0 0 1-1 .89l-.14.14v.18a1 1 0 0 0-.61.5 3.89 3.89 0 0 1-.65.65zm-2.55 2h.09v-.14h-.09zm.86 1.55s.07-.07.01-.04zm.32-1c.06.09 0 .22-.07.39a.9.9 0 0 0-.16.48.44.44 0 0 1 0-.43 1.19 1.19 0 0 0 .24-.48zm.18-.45c.15.06.18.12.09.18a.27.27 0 0 0-.14.23.14.14 0 0 1 0-.21.18.18 0 0 0 .06-.24zm.14-.23c.06-.06.05 0 0 .07s-.08.06-.01-.11zm.27-.27c0 .06-.06.09-.09.09s0 0 0 .09-.07-.07 0-.14a.12.12 0 0 1 .1-.08zm.14-.5c.06 0 .08.09 0 .18s-.08.14-.14.14 0-.15 0-.18a.09.09 0 0 0 .15-.18zm1.41 2c0 .12 0 .14 0 0s.04-.1.01 0zm.09-.14h.07c-.04 0-.06-.09-.06.04zm.14-1.14a.56.56 0 0 1 .2 0c.08 0 .1 0 .07-.09a.48.48 0 0 0-.18 0zm.28 1.18q0-.27-.27-.27c0 .06 0 .1.11.11a.21.21 0 0 1 .16.16zm0-1.23a.83.83 0 0 1 .16-.27.18.18 0 0 0 0-.27.44.44 0 0 0-.09.32c0 .15 0 .17-.09 0q-.03.19.02.19zm0 .86v-.09.09zm1-1.55q0 .27-.14.32a.59.59 0 0 0-.23.14h.16a.45.45 0 0 1 .2 0 2.73 2.73 0 0 0-1 1 .3.3 0 0 0 .2 0c.08 0 .08 0 0 .11a.2.2 0 0 0 .23-.23h-.23c0-.12.05-.17.16-.16s.16 0 .16-.11.09 0 .09.14 0 .11.09 0 .1-.15 0-.18-.08 0 0 0a1 1 0 0 0 .43-.3c.17-.17.19-.28.07-.34a.09.09 0 0 1 .14 0 .5.5 0 0 0 .23 0 2.3 2.3 0 0 1 .5-.75l.59-.52a1.88 1.88 0 0 1 .27-.39 2.82 2.82 0 0 0 .32-.43 1.89 1.89 0 0 0 .2-.48.86.86 0 0 0-.07-.57c0 .06-.14.06-.32 0v.18c0 .09-.17.07-.23.21a.42.42 0 0 1-.32.25.28.28 0 0 1-.09.36.66.66 0 0 1-.41.14.51.51 0 0 0-.09.29.38.38 0 0 1-.18.3l.18-.06c0-.06 0-.1.14-.11s.09-.07 0-.16a4.16 4.16 0 0 0-.93.73l-.75.82a.15.15 0 0 1 .14.09c0 .06.08 0 .14 0s0-.09 0-.09-.08 0 0-.09.16 0 .2.09.1.12.16 0-.08 0 0-.09a.09.09 0 0 1-.01-.13zm-1 1.91h.14v-.18h-.14zm.23-1.27c.06 0 .07 0 0 0s.01-.06.04-.03zm.09-.18q-.09.09 0 0t.04-.03zm.09.18c.15 0 .23 0 .23-.14q-.19-.02-.19.11zm.55-.64c0-.15-.05-.18-.16-.09s-.16.11-.16 0a.41.41 0 0 1 .23-.11h.23a.52.52 0 0 0 0-.16.2.2 0 0 1 0-.16.25.25 0 0 1 .11.09.34.34 0 0 0 .07.09c-.06.09-.06.17 0 .23-.09 0-.14 0-.16.07s-.03.08-.12.02zm0 .77s.04.04.04-.02zm.32-.82c.06.12.05.18 0 .18a.28.28 0 0 0-.2.09.58.58 0 0 1 .11-.16zm-.23.68c.06-.09.09-.1.09 0s.01.04-.05-.02zm.18 1v.09zm0-1.68a.24.24 0 0 0 .11-.09h.11a.15.15 0 0 0 0 .11s-.01-.05-.13-.05zm.14-.64c.09-.06.1-.05 0 0s.02.07.08-.02zM94 63c0-.06 0-.05 0 0s0 .1 0 0zm.45-.77c0 .15 0 .2-.14.14a.12.12 0 0 1 .12-.13zm0 .46c0 .12 0 .15-.09.09v-.09zm0 0c0-.09 0-.11.09-.07s-.04.07-.16.07zm0-.46c0-.09 0-.11.07-.07s0 .08-.09.08zm.18-.18a.08.08 0 0 1 .07-.05.08.08 0 0 1-.09.06zm.68-.5a.6.6 0 0 0-.16.11l-.2.16c.05-.17.13-.26.34-.26zm-.23.68a.09.09 0 0 1-.07 0h.07zm0-.91h.09v.14h-.09zm.27 0a.11.11 0 0 0-.09-.11c-.06 0-.06-.05 0-.11s.11 0 .16.09.05.14-.04.14zm0 0v.07c0-.04-.06-.06.03-.06zm.27-.14h.18v.14h-.18zm.23-.07v-.07c0-.15.03-.04.03.08zm1 7.48s-.07.01-.01.01zm.27-9.14h-.07c.01 0 .03-.05.06.01zm0 0l-.01.01zm.45 4.77a.4.4 0 0 1 0 .11zm0-.41c.06-.06.08 0 .07.09s0 .2 0 .23-.08 0-.07-.11a1.08 1.08 0 0 0 0-.19zm0 0c0-.09 0-.11.07 0s.02 0-.07-.03zm0-.5v.18zm13.31 5.15c.06 0 0 0 0 0v-.14s.08-.09 0-.09a.18.18 0 0 0 .14 0 .26.26 0 0 0 .14-.32q.86-.46 1.75-1t1.8-1a13.82 13.82 0 0 1 1.89-.82 8.42 8.42 0 0 1 2.11-.43 5.44 5.44 0 0 0 1 .11.6.6 0 0 1 .64.52 1.55 1.55 0 0 0-.91-.18 3.64 3.64 0 0 0-.77.14v.18l.48-.14a.58.58 0 0 1 .43.09.94.94 0 0 1-.55.09c0 .06.07.09.11.09s.05 0 0 .09a.27.27 0 0 1-.34 0 .33.33 0 0 0-.34-.09.73.73 0 0 0-.09-.32c-.09 0-.12.11-.09.23s.09.15.18.09q-.09.14 0 .16c.06 0 .06.07 0 .16a15.37 15.37 0 0 0-2.41 1 16.64 16.64 0 0 0-2.14 1.32 1 1 0 0 0-.73.41 10.1 10.1 0 0 0-1.86 1.14q-.82.64-1.73 1.27-.5 3.14-1.23 6.36a30.64 30.64 0 0 1-2 6.09c0 .09 0 .12.09.09q-.68 2-1.5 3.75a36.38 36.38 0 0 1-1.82 3.48h-.18a.56.56 0 0 1-.14.09c-.06.09-.08.14 0 .16s0 .08 0 .21q-.77.82-1.77 1.71a3.22 3.22 0 0 1-2.18.89 3.37 3.37 0 0 1-1.39-.27 4.88 4.88 0 0 1-1.14-.7 6.59 6.59 0 0 1-1-1q-.43-.55-.8-1a.48.48 0 0 0 0-.34 1 1 0 0 0-.16-.21.18.18 0 0 1 0-.14v-.14a.13.13 0 0 0 0-.09 8.61 8.61 0 0 1 .63-3.83 27.68 27.68 0 0 1 1.52-3.34.21.21 0 0 1 0 .27.48.48 0 0 0-.11.32.72.72 0 0 0-.14.18.51.51 0 0 0 0 .23l.16-.16s.05-.13 0-.25l1.3-2.2a12.61 12.61 0 0 1 1.48-2 .36.36 0 0 1 0 .23.18.18 0 0 1-.14.18c-.09 0-.12.14-.09.32a.66.66 0 0 0 .2-.21 1.06 1.06 0 0 1 .16-.2h-.07c-.07 0-.07 0-.07-.07.18-.15.37-.3.57-.43a.4.4 0 0 0 .11-.57s.08 0 .14-.09l.18.07s.08 0 .14-.16h-.16c-.08 0-.13 0-.16.11a3.82 3.82 0 0 1 .66-1l.8-.89a.13.13 0 0 1 0 .16.22.22 0 0 0-.07.16.71.71 0 0 0 .55-.43.69.69 0 0 1 .5-.43.12.12 0 0 0-.14-.14.28.28 0 0 1 .11-.07s.05-.05 0-.11a.67.67 0 0 0 .2 0l.16-.07a.07.07 0 0 0 0-.07v-.11c-.15 0-.23 0-.23.07s-.06.11-.18.11a2.77 2.77 0 0 1 .68-.64.29.29 0 0 1-.18.23c-.09 0-.11.11 0 .23a.45.45 0 0 0 .23-.2c0-.08.11-.1.23-.07-.12-.06-.14-.13-.07-.2s.05-.13-.07-.16a.81.81 0 0 0 .23-.23.69.69 0 0 1 .27-.23.23.23 0 0 0 .09.27c.15-.06.2-.13.14-.2a.14.14 0 0 1 0-.2.31.31 0 0 1 .14 0h.09c-.06-.12 0-.2.07-.23a.29.29 0 0 0 .21-.23l.18-.18a1.55 1.55 0 0 0 .18-.23c.18-.06.29-.15.32-.27s-.05-.08-.07 0a.07.07 0 0 1-.07 0l.34-.36a1 1 0 0 1 .39-.27v.09l.2-.09q.11 0-.07-.14 0-.18.27 0a.4.4 0 0 1 .2-.41l.48-.36c0 .15 0 .23-.11.25a.23.23 0 0 0-.21.16.68.68 0 0 0 .43-.29.65.65 0 0 1 .34-.3c0-.06 0-.08 0 0a.19.19 0 0 1-.14 0 1.35 1.35 0 0 1 .45-.36c0 .15 0 .17.11.07s.14-.16.2-.16c0-.15 0-.27.23-.34a2.12 2.12 0 0 0 .45-.25q.36-2.59.7-4.93t.8-4.93a18.15 18.15 0 0 0-1.75 1.62q-.68.93-1.34 1.89l-1.32 1.91q-.66 1-1.39 1.82a1.41 1.41 0 0 1-.55.64 3.4 3.4 0 0 1-.82.36 1.38 1.38 0 0 1-1.3-.43l-.84-1a9.8 9.8 0 0 1-.2-2.14q0-1 .14-2t.3-2q.18-1 .32-2.14a1.7 1.7 0 0 0 .32-.45 1.16 1.16 0 0 1 .93.25 5 5 0 0 1 .52.61q-.09 1.09-.25 2c-.11.59-.2 1.17-.3 1.73s-.17 1.13-.23 1.7a17.31 17.31 0 0 0-.09 1.82 4.05 4.05 0 0 0 1.59-1.39 12.59 12.59 0 0 1 1.32-1.66c.06 0 .11 0 .14-.09s0-.12-.09-.09c.09 0 .14-.07.14-.11a.37.37 0 0 1 0-.16l.14.16v.16a.16.16 0 0 0-.18.18.16.16 0 0 0 .18-.18l.77-.66a1.67 1.67 0 0 0 .5-1 .26.26 0 0 0 .25 0 .47.47 0 0 0 .2-.18 2.52 2.52 0 0 0 .16-.27.54.54 0 0 0 .07-.23c.09.06.16 0 .2 0a.46.46 0 0 0 0-.32 1.63 1.63 0 0 0 .55-.45 1.38 1.38 0 0 0 .36-.68.23.23 0 0 0 .32-.09.26.26 0 0 0 0-.32.18.18 0 0 1 .18-.09c.09 0 .12-.06.09-.18a.56.56 0 0 0 .32-.39.56.56 0 0 1 .32-.39c0-.06 0-.08-.09 0s-.12 0-.09-.14a.3.3 0 0 0-.18.14.71.71 0 0 1-.14.18.27.27 0 0 1 .07-.34 4.18 4.18 0 0 1 .36-.32 2.62 2.62 0 0 0 .36-.34.61.61 0 0 0 .16-.41.8.8 0 0 1 .8-.27 1 1 0 0 1 .7.45 8.62 8.62 0 0 1-.09 2.77q-.46 2-.82 4.16t-.77 4.75c.06.06.12 0 .18 0a.51.51 0 0 1 .18-.18h.09a.13.13 0 0 0 0 .09c.06 0 .07-.06 0-.09s0-.09 0-.18.11 0 .14 0a.15.15 0 0 0 .3.05zM95 88.15q0 .18 0 0zm.27-1.09a.87.87 0 0 0-.16.23c0 .09 0 .15.11.18v-.23c0-.03.06-.09 0-.18s.07 0 0-.09.04-.03.07.09zm0-.45q.14.14.14 0t-.07-.01zm.09-.36c-.09.12-.09.13 0 0s.16-.1.07-.01zm.14-.18a.11.11 0 0 1 .07-.11.11.11 0 0 0 .07-.11.31.31 0 0 0-.18.07c0 .02.01.08.1.14zm.09-.36a.15.15 0 0 0 .16-.14q0-.14-.16-.09zm0-.82c-.06.09-.05.1 0 0s.2-.08.11-.02zm.14.39a.16.16 0 0 1 0-.11h-.09s0 .08-.09.11c.24.03.29.03.29-.02zm0-.66c-.09.09-.09.13 0 .11s.15-.07.06-.13zm.14-.18s0-.08.11-.16 0-.11-.11-.11q.09.09 0 .16c0 .02 0 .06.06.09zm0-.32c.12 0 .18 0 .18-.09S96 84 96 84.1zm.18.32c0 .12 0 .13 0 0s.14-.11.11-.02zm.09-.09c.06 0 .11-.05.14-.16s0-.14-.14-.11c.06.06.06.11 0 .16s.05.06.11.09zm7.32-7.86q-1.18 1.5-2.45 3a29.46 29.46 0 0 0-2.32 3.18 17.41 17.41 0 0 0-1.7 3.55 12.25 12.25 0 0 0-.66 4.07.73.73 0 0 0-.07.36 3.06 3.06 0 0 1 0 .45.16.16 0 0 1-.14-.07v.11a1.78 1.78 0 0 0 .32 1 3.39 3.39 0 0 0 1.55.25 3.61 3.61 0 0 0 1.34-.39 5.21 5.21 0 0 0 1.11-.77 6.26 6.26 0 0 0 .86-1q1.18-1.91 2.23-4a21.31 21.31 0 0 0 1.59-4.11 3.24 3.24 0 0 0 .52-1.16 4.73 4.73 0 0 1 .43-1.16q.5-1.91 1-3.77a19.94 19.94 0 0 0 .64-3.55 23.6 23.6 0 0 0-2.14 1.93 28.13 28.13 0 0 1-2.01 2.06zm-7 7.45c0-.12 0-.18-.09-.18v.18c.06.06.09.06.15-.02zm.09-.18a2.3 2.3 0 0 1 .27-.48.48.48 0 0 0 .09-.48 1.8 1.8 0 0 1-.27.45.5.5 0 0 0-.03.49zm.36-1a.25.25 0 0 0 .25-.2v-.3c0 .12 0 .2-.11.23s-.05.1-.05.25zm.45-.59q-.14-.14-.11 0c0 .09.05.09.11 0a2.05 2.05 0 0 1 .32-.5c-.15 0-.24 0-.27.14a1.18 1.18 0 0 0 .02.34zm.45-1.57a.78.78 0 0 0-.14.3c-.09-.06-.08-.16 0-.3a1.36 1.36 0 0 1 .3-.29 1.65 1.65 0 0 1-.09.27zm-.18.89q.27.09.27-.27a.24.24 0 0 0-.2.25zm.09 1h.09c-.06 0-.02-.04-.02.02zM98 82c-.06 0-.08.05 0 .07s0 0 0-.07c.09-.09.09-.14 0-.14a.19.19 0 0 0 0 .14zm.09-1.18c.09 0 .14 0 .16-.07s.07-.08.16 0v-.27h-.14a.28.28 0 0 1-.07.21.62.62 0 0 0-.09.14zm.23.32c.06.12.05.21 0 .27a.49.49 0 0 0-.16.27q.27 0 .41-.36t0-.45c.04.13-.05.22-.23.28zm.23-1v.09h.09v-.13h-.09c.06.06.05.09.01.09zm.59-1v-.07c0 .01.08.05.02.08zm.09-.23c.06-.12.09-.13.09 0s-.01.09-.07.01zm2.41-1.32c.15 0 .23-.08.23-.14s.08-.12.23-.18 0-.15 0-.16-.05-.07 0-.16a.26.26 0 0 1 .18 0 .09.09 0 0 1 0 .07.09.09 0 0 0 0 .07.26.26 0 0 0 .32-.16c.06-.14 0-.22-.14-.25a1 1 0 0 0 .61-.39c.14-.2.25-.37.34-.52 0 .12 0 .18.09.18s0-.11 0-.14 0 0-.11 0a.13.13 0 0 0 0-.09h.09l.16-.18.16-.18v-.11a.11.11 0 0 1-.07-.11.64.64 0 0 0 .59-.3 1.26 1.26 0 0 1 .59-.48.41.41 0 0 0 0-.11.94.94 0 0 0 0-.16c.09.09.16.09.21 0s.1-.08.16 0c-.06-.15-.06-.2 0-.14s.11.06.14 0-.08-.1 0-.11.17-.05.14-.11-.09 0-.09 0a.38.38 0 0 0 0-.16h.11a.07.07 0 0 0 .07 0c0 .12 0 .14.09 0s.06-.11-.09 0v-.18a.18.18 0 0 0 .27-.09c.06-.12.17-.12.32 0a.11.11 0 0 1 .09-.11c.06 0 .08-.05 0-.11a.63.63 0 0 1-.16-.11.51.51 0 0 0-.2-.11l.2-.09c.08 0 .14 0 .2.09q0-.23.16-.16a.15.15 0 0 0 .21 0 .27.27 0 0 0-.07-.14c0-.06 0-.12.07-.18a.08.08 0 0 1 .09.09.08.08 0 0 0 .09.09c0-.06 0-.08.07-.07s.07 0 .07-.07v-.09q.14.14.16 0a.22.22 0 0 1 .11-.18.11.11 0 0 0 .07.11h.07v-.23c0-.12.18-.12.27 0a2.31 2.31 0 0 0 .23-.55.83.83 0 0 0 0-.54 22.67 22.67 0 0 0-2.66 2.23q-1.2 1.18-2.48 2.36a4.94 4.94 0 0 1-.77 1c-.3.3-.6.61-.89.93a11.73 11.73 0 0 0-.8 1 3.67 3.67 0 0 0-.55 1.09 1.56 1.56 0 0 0-.55.55.82.82 0 0 0 .59-.48.83.83 0 0 1 .45-.48.22.22 0 0 1 0-.25c0-.08.11-.08.2 0 0-.15 0-.22.11-.2s.14-.05.11-.2c-.09.09-.14.07-.14 0a.11.11 0 0 1 .18 0c.06-.06.08-.09 0-.09s0 0 0-.14.09.06.09.09 0 0 .09 0a2 2 0 0 0 0-.36c0-.09.06-.17.18-.23 0 .12.06.14.18.07s.35-.17.35-.23zm-2 .82c0 .18-.11.29-.23.32.06.06.11.09.14.09s0 .09 0 .09a.08.08 0 0 0-.09.09.17.17 0 0 1 0-.14.44.44 0 0 0 0-.23c.06 0 .1 0 .11-.11a.14.14 0 0 1 .13-.1zm-.03 14.19c.06.09.09.09.09 0s-.03-.09-.09 0zm.18-14.23v-.11.11zm.09 14.14a1.13 1.13 0 0 1 .41-.32.31.31 0 0 0 .18-.41 1 1 0 0 1-.39.36.33.33 0 0 0-.2.37zm.27-14.46h.27c0-.15 0-.21.14-.18s0-.08-.09-.14a.41.41 0 0 1 .18-.11.21.21 0 0 0 .14-.16.53.53 0 0 0-.39.23c-.07.12-.15.25-.24.37zm.18 14.73c.09.09.13.09.11 0s-.04-.09-.1 0zm7.09-16.23l-1 3.41a21.2 21.2 0 0 1-1.3 3.41 8 8 0 0 1-.41 1.43q-.27.71-.61 1.39l-.66 1.32a5.88 5.88 0 0 0-.45 1.18 9 9 0 0 1-1.25 1.86 6.69 6.69 0 0 0-1.2 2.09c.12 0 .21-.06.27-.27h-.18c.12 0 .19-.09.2-.18s.1-.14.25-.14a.24.24 0 0 1 0-.3 1.66 1.66 0 0 1 .25-.21v.16c0 .02-.08.05 0 .11s.14 0 .14-.09 0-.09.14 0a.16.16 0 0 0-.18-.18 1.52 1.52 0 0 0 .64-.41v-.14s-.07 0-.07-.09a20.79 20.79 0 0 0 1.2-2 14.23 14.23 0 0 0 .93-2.09.29.29 0 0 0 .25-.27.22.22 0 0 1 .25-.23v-.16.07a.18.18 0 0 1-.14 0 .25.25 0 0 0 .09-.16s0-.08.09-.11 0 .07.09 0 0-.05-.09 0q.23-.54.43-1.07t.43-1a.28.28 0 0 1 .09.32q0 .23-.27.14a.18.18 0 0 0 0 .14.55.55 0 0 1 .09.14 2.29 2.29 0 0 1-.3.5.64.64 0 0 0-.11.59 3.15 3.15 0 0 1 .23-.52 4.4 4.4 0 0 0 .23-.48v-.09l.21-.41a.36.36 0 0 0 0-.36c-.06.09-.11.1-.16 0a.8.8 0 0 0-.11-.16c.06 0 .09 0 .09-.14s.06-.11.18 0c-.06-.09-.07-.16 0-.21s0-.11 0-.2a.85.85 0 0 0 .32-.25 1.53 1.53 0 0 0 .27-.43c.06 0 .07-.05 0-.07s0 0 0 .07a.27.27 0 0 0-.18.16.29.29 0 0 1-.14.16 5.24 5.24 0 0 1 .3-1.16q.2-.52.43-1.25c.09.09.08.2 0 .32q.23 0 .41-.5c-.12 0-.19 0-.21.09s-.07.09-.16.09a15.45 15.45 0 0 0 .5-1.73 17.82 17.82 0 0 1 .5-1.77c-.06-.06-.09-.11-.09-.14a1.59 1.59 0 0 0 .25-.77 6.18 6.18 0 0 1 .2-1 1.06 1.06 0 0 0-.43.84c-.17.32-.21.6-.24.76zM101 77a.6.6 0 0 1-.11.16.22.22 0 0 0-.07.16c-.06 0-.08.05 0 .07s0 0 0-.07h.18V77c.06.06.11.05.14 0l.09-.2c-.14-.05-.23.03-.23.2zm.14 1.09c.06.09.09.08.09 0s-.01-.09-.07.01zm.14-.55h.09v.09h-.09zm.36-1.41v.28c-.06-.09-.1-.12-.11-.09s-.07.06-.16.09a.56.56 0 0 1 .09-.14l.14-.14zm0 1.45c-.06 0-.11 0-.14-.07s0-.13 0-.16a.31.31 0 0 1 .16.25zm-.14 13.68q.09-.14.07 0t-.05.02zm.5-15.52a.54.54 0 0 1-.32.41c0-.15 0-.23.11-.23s.16-.06.16-.18zm-.32 16h.14v-.14h-.14zm.14-.68a.26.26 0 0 1-.09.18V91zm.18-15.32c0-.12 0-.15.09-.09s0 .09-.09.09zm0 15.64q.09.14.09 0t-.09 0zm.84-1.41a.08.08 0 0 1 0 .09 1.1 1.1 0 0 0-.18.45.34.34 0 0 0-.2.18.89.89 0 0 1-.16.23q.27 0 .36-.41a.49.49 0 0 0 .23-.45h.07a.07.07 0 0 1 0-.09c.12 0 .14 0 0-.11s-.11 0 0 .11c-.14-.05-.16-.03-.15.03zm-.57-14.5v.07c0-.01-.05-.04-.02-.07zm.14 1c0-.12 0-.12 0 0s0 .12-.03 0zm0 13.82q.09.14.09 0t-.07-.01zm.59-15.57v-.07.07zm0 14.57c-.06 0-.08 0 0 0 .06-.06.09-.08.09 0s0 .06.09.09a.29.29 0 0 1 .14-.14.18.18 0 0 0 .09-.18c-.22-.06-.41.04-.41.22zm.14-13.68c.06 0 .09 0 .09.09s-.07-.01-.07-.1zM103.7 88c-.06 0-.08.05 0 .07s0 0 0-.07a.08.08 0 0 1 .09.09v.14c0 .14-.13 0-.11 0a.25.25 0 0 1 0 .18 1.33 1.33 0 0 0-.36.32h.09s0-.07.09-.07.17 0 .23-.11a.89.89 0 0 0 .09-.34 2.8 2.8 0 0 1 .34-.7 1.13 1.13 0 0 0 .2-.66 3 3 0 0 0-.32.64 1.29 1.29 0 0 1-.34.51zm-.36-13.46c.09-.09.09-.15 0-.18s0 .1 0 .11-.06.06 0 .09zm.55-.77a1.66 1.66 0 0 1-.18.23l-.18.18a.54.54 0 0 1 .35-.4zm0 0s.05.01-.01.01zm.09 0c0-.09 0-.12.09-.09v.09zm.09 1c.06 0 .08.05 0 .07a.07.07 0 0 0 0 .07c-.06 0-.08-.05 0-.07a.08.08 0 0 0-.01-.1zm0-1.09a.16.16 0 0 1 .18-.18v.18zm.14 1v.07c0-.01-.02-.12.04-.15zm0 0s0-.08.09-.14.11.06 0 .09a.35.35 0 0 1-.05-.03zm.09 12.82c0 .15 0 .2.07.14s.09-.19-.03-.22zm.09-.59a2.63 2.63 0 0 1 .3-.52.46.46 0 0 0 .07-.52 1.14 1.14 0 0 1-.25.57.46.46 0 0 0-.08.39zm.4-13.91c0 .09 0 .14-.09.14s-.12 0-.09.14-.09.08-.09 0-.05-.12 0-.18a.79.79 0 0 1 .27-.1zm.09 1c-.06.12-.14.18-.23.18s0-.14.07-.14a.38.38 0 0 0 .16-.04zm.23-10.46c-.15 0-.18 0-.09-.09s.12-.04.09.11zm.27 9c-.06-.06-.1 0-.11 0s0 .12.07.09a.09.09 0 0 1 0-.07.09.09 0 0 0 0-.07c.06 0 .08-.05 0-.07s.04.08.04.14zm.27-9.68q.09 0 0 .16a.25.25 0 0 1-.18.11.51.51 0 0 1 .09-.14.51.51 0 0 0 .1-.12zm0 9.32c-.06.09-.11.14-.14.14s.08-.13.15-.13zm.23 11.18a.19.19 0 0 0 0-.14.25.25 0 0 0-.18.11c-.06.08 0 .13 0 .16a.49.49 0 0 1 .18-.12zm-.14-20.59c.06-.12.09-.12.09 0s-.02.13-.08.01zm0 1.23c.06.12.09.13.09 0s.02-.08-.04 0zm.14 9.09c0-.12 0-.13 0 0s.12.1.05.01zm.54 8.45q-.32 0-.23.36c-.06 0-.08 0 0 0h.18a.28.28 0 0 0 0-.18.43.43 0 0 1 0-.23 2 2 0 0 0 .14-.34 4.06 4.06 0 0 1 .14-.39.31.31 0 0 0-.25.32c.08.25.07.39.07.48zm-.18-9h.14v.09h-.14zm.27-10.91c0 .12 0 .15-.07.09s.03-.07.12-.07zm0 0a.43.43 0 0 1 .14-.25.41.41 0 0 0 .14-.2.17.17 0 0 1 0 .25zm.23 9.64s-.01.04.05.01zm0 0l.05.01zm0 0c0-.06 0-.08 0 0l.1-.03zm0 8.77h.09c-.06 0 .01-.12.01-.04zm.18-.23c-.06 0-.08.05 0 .07s0 0 0-.07.07 0 0-.09.08-.06.08.06zm0-7.73c0-.12 0-.12 0 0s.08.1.08-.02zm.14 7.45l.14-.25q.09-.16-.09-.25c0 .15 0 .25-.11.3s0 .09.11.18zm0-18.68c0-.09.07-.11.11 0s.11.01-.01-.02zm.14 17.86c-.06 0-.09.05-.09.16s0 .14.09.11a.43.43 0 0 0 0-.11 1 1 0 0 0 0-.16c.06 0 .11-.05.16-.16a.21.21 0 0 0 0-.25.28.28 0 0 0-.09.2.47.47 0 0 1 .02.19zm0-7.86s.2-.02.14-.02zm.18 7a.18.18 0 0 0-.14 0v.09a.16.16 0 0 1 .16-.09c.08 0 .1 0 .07-.09s-.08 0-.07-.09 0-.09-.07-.09.1.23.19.3zm.18-6.23c.12.12.12.2 0 .23a1.34 1.34 0 0 1-.32 0v-.14a.18.18 0 0 1 .14 0c.06 0 .09 0 .09-.11s.17.02.23.05zm-.27 4.91l.09.09a.08.08 0 0 1 .05-.06zm.18-16.23s.08.06.14.03zm0 17.27a.88.88 0 0 1 .14-.46.49.49 0 0 0 0-.45l-.21.52c.16.23.17.36.26.42zm.5-18a1.14 1.14 0 0 1-.25.39 2 2 0 0 0-.3.39.61.61 0 0 1 .23-.41.83.83 0 0 0 .27-.36zm-.5 1.09c0-.09 0-.11.09 0s.22.02.1-.01zm.14 10c0-.11 0-.1-.09 0s.27.07.27-.04zm-.09 4c.06 0 .09.06.09.09a.13.13 0 0 0 0 .09.18.18 0 0 0 .11 0 .18.18 0 0 1 .11 0 1.47 1.47 0 0 1 0-.32c0-.06 0-.14-.11-.23a3.11 3.11 0 0 0 .23-.45c.09-.21.06-.33-.09-.36q-.09.36-.14.66a1.17 1.17 0 0 1-.02.51zm.48-14.47a.28.28 0 0 1-.07.21.22.22 0 0 0-.07.16.18.18 0 0 1 0-.23c0-.09.05-.14.14-.14zm-.18 1.18c0 .09 0 .08 0 0s0-.12-.03 0zm.11 14.63a.19.19 0 0 1 .14 0c-.09-.12-.09-.2 0-.23s.12-.12.09-.27q-.18 0-.25.23c-.05.07-.04.17.02.27zm.14-14.59a.36.36 0 0 1 0-.23q-.14 0-.16.07c.03.04.09.09.15.12zm.09 13.59q0 .23 0 0zm0-2a.33.33 0 0 1 .09-.2c.06-.08 0-.11-.09-.11a.12.12 0 0 1 0 .18c-.02.02-.02.07.04.13zm.86-14.14a.13.13 0 0 1 0-.09.64.64 0 0 0-.48.39.77.77 0 0 1-.39.43c.15-.24.3-.46.43-.66a1.89 1.89 0 0 1 .57-.52.39.39 0 0 1-.11.23s-.04.07.03.19zm-.82 15.74c.09 0 .17-.15.23-.36-.15 0-.23.12-.23.36zm.16-2.23c.08 0 .07-.08 0-.23-.08.16-.08.23 0 .23zm.07-11.77a.22.22 0 0 1 .07-.16v-.11c0-.03-.06 0-.09.11s-.04.13.02.16zm0-1q.09 0 .09.18l-.09-.09zm.09 13.71c0-.11 0-.11 0 0s-.05.06-.05-.05zm0 1.25q.09.18.09 0t-.09-.05zm.09-1.82c-.09.06-.11.11 0 .16s.08 0 0-.16c.06 0 .1-.05.11-.16s0-.17-.07-.2a1.19 1.19 0 0 0-.07.16.34.34 0 0 0 .03.15zm0-12.36a.22.22 0 0 0 .25-.2c0-.14.11-.17.3-.11q-.14-.23-.07-.32a1.55 1.55 0 0 0 .16-.32l-.39.41a1.3 1.3 0 0 0-.25.49zm.45-1.5l.09.09a.08.08 0 0 1-.08-.14zm.14-.32h.09v.14h-.09v-.19zm.09-.23c.09.06.14.11.14.14h-.14zm.23.77l-.16.14a.15.15 0 0 0-.07.14c.15 0 .21 0 .18.09a.3.3 0 0 1-.14.18c.15 0 .22-.09.2-.18a2.25 2.25 0 0 1 0-.36c.09 0 .11 0 0-.09s-.04-.09-.01.04zm0-.86c.06-.09.1-.09.11 0s-.07.04-.16-.05zm.32.61s.06.08.18.11v-.2a1.12 1.12 0 0 1 .09-.2c-.15 0-.24 0-.27.09a.44.44 0 0 1-.18.23c.07-.11.13-.12.13-.07zm-.09-.93c.06 0 .11 0 .14-.09s0-.06 0 .09c.21-.06.28-.14.21-.23s-.05-.18.07-.27H110c0 .15 0 .24-.14.27a.29.29 0 0 0-.16.18zm0 1.32c0 .09 0 .08 0 0s-.02-.17-.05-.05zm.18-2h.07v.14h-.14zm5.68 9.23c-.15 0-.23.06-.23.18a.37.37 0 0 1-.09.27c-.12-.06-.12-.15 0-.27-.21 0-.33 0-.36.14h-.14a.27.27 0 0 0 0-.27l.39-.07a.35.35 0 0 0 .3-.25 18.11 18.11 0 0 0-2.86 1.48q-1.32.84-2.55 1.75a.11.11 0 0 0 .18 0c.06-.06.11 0 .14.09-.24.12-.38.26-.41.41.12.06.22 0 .3-.16s.17-.21.3-.11a.74.74 0 0 1-.25.23 1.16 1.16 0 0 0-.25.18c.06 0 .09.11.09.23a.21.21 0 0 0 .23-.14c0-.09.12-.12.27-.09 0-.15.05-.28.25-.39a1.13 1.13 0 0 1 .52-.16.16.16 0 0 0 .09-.16c0-.08 0-.11.09-.11s0 .13.07.11.11 0 .11-.07a.19.19 0 0 0 0-.14v-.14c.06.15.14.17.23.07l.23-.25c-.12 0-.2 0-.23.07s-.11.11-.23.11a.88.88 0 0 0-.32.11c-.15.08-.26 0-.32-.2a.51.51 0 0 1 .32-.07c.09 0 .17 0 .23-.16a.18.18 0 0 0 .18.14q.18-.14.41-.34a.48.48 0 0 1 .5-.11l-.25.16a.59.59 0 0 0-.2.3 4.56 4.56 0 0 1 .48-.25.62.62 0 0 0 .34-.39c.15.06.23 0 .23-.09a.51.51 0 0 0 .18-.09h.23a5.8 5.8 0 0 1 .66-.54 1 1 0 0 1 .7-.27q0-.32.54-.41a1.13 1.13 0 0 0-.2-.16c-.08 0-.05-.11.07-.2a.43.43 0 0 0 .39-.09.25.25 0 0 1 .34 0c-.06.06-.11.09-.14.09s0-.09 0-.09a.15.15 0 0 1-.07.14s-.05.09 0 .18l.41-.25a.38.38 0 0 0 .18-.34c.09 0 .14 0 .14-.07s0-.1.14-.07a.15.15 0 0 1-.09.14c-.06 0 0 .06 0 .09a.26.26 0 0 0 .09-.18c0-.06.08-.06.23 0a.16.16 0 0 0 0-.11.35.35 0 0 1 0-.16 7.59 7.59 0 0 0-1.64.65zm-5.14 3c.06-.12.09-.13.09 0s-.07-.05-.13-.14zm.36-.23a.18.18 0 0 1-.23.09v-.09zm.41.09q0 .18-.5.27c.02-.26.19-.35.46-.41zm-.18-1v.07c0 .07-.06-.25-.06-.23zm.64-.25a.41.41 0 0 1-.18 0 .08.08 0 0 0-.09.09c.12.12.21.07.27-.14.06 0 .08-.05 0-.07s-.04-.1-.04-.04zm1.09-.14a.18.18 0 0 1-.09.18.29.29 0 0 0-.14.14c-.06 0-.08 0 0 0a.14.14 0 0 0 0-.09.41.41 0 0 0-.32.25q-.09.2-.41.16l.43-.34a1.53 1.53 0 0 1 .49-.46zm1.18-.68a.3.3 0 0 1-.14.14.69.69 0 0 0-.18.14.11.11 0 0 0 .18 0 .26.26 0 0 1 .18-.09s0 .08.09.14a.63.63 0 0 1-.36.29.47.47 0 0 0-.32.3c-.12 0-.2 0-.23.09a.3.3 0 0 1-.3 0c-.08 0-.08-.14 0-.3h.41c0-.12.07-.17.2-.16s.19-.05.16-.2a.34.34 0 0 0-.27 0l-.25.14a.39.39 0 0 1-.18.07s-.08 0-.11-.14a.56.56 0 0 0 .59-.2.61.61 0 0 1 .49-.38zm0 0c0-.12 0-.17.07-.14s.11.08.11.14zm1-.41h.18a1 1 0 0 1-.45.5c-.24.15-.41.14-.5 0l.18-.07c.06 0 .09-.07.09-.16s-.18 0-.18-.09a.21.21 0 0 1 .11-.11.21.21 0 0 0 .11-.11.28.28 0 0 1 .18.18s-.09 0-.18.14a1.31 1.31 0 0 1 .3 0c-.01-.21.04-.28.07-.44zm-.14 0c0 .06 0 .08-.07.07s-.05-.05 0-.11-.04-.12-.01-.12zm.77-.64a13.94 13.94 0 0 0 1.82-.59 8.11 8.11 0 0 1 1.91-.5 5.35 5.35 0 0 0-.66 0 1.39 1.39 0 0 1-.52-.09 2.24 2.24 0 0 1-1.27.66 2.61 2.61 0 0 0-1.36.37zm2-.14c.06 0 .11 0 .14-.09a.25.25 0 0 0-.23-.07c-.09 0-.14.05-.14.11a.5.5 0 0 1 .1-.1zm0-.32q.18.18.32 0a.46.46 0 0 1-.18 0s-.25-.21-.31-.15zm.36.23c0-.06 0-.12-.09-.18-.17-.03-.14.03-.08.03zm.27-.34a.42.42 0 0 1 .23 0v-.18s-.13.11-.2.07-.13 0-.16.16zm0 .52c.06.09.09.08.09 0s-.24-.27-.32-.16zm.77-1.27c0-.09 0-.11.09 0s-.18-.12-.3-.15zM60.62 80.53h-3.37v-2.25h.31a4.94 4.94 0 0 0 2.71-.65 3 3 0 0 0 1.26-2.08h2.54v16.93h-3.45zm6.13 11.95a9.29 9.29 0 0 1 .23-2.1 7.7 7.7 0 0 1 .69-1.87 10 10 0 0 1 1.17-1.73 18 18 0 0 1 1.64-1.71l1.39-1.29a7.62 7.62 0 0 0 .92-.93 3.93 3.93 0 0 0 .54-.86 3.24 3.24 0 0 0 .25-.93 9.86 9.86 0 0 0 .06-1.15q0-2.1-1.67-2.1a1.56 1.56 0 0 0-1.59 1 3.39 3.39 0 0 0-.26 1.05q-.06.6-.06 1.27h-3.3v-.65A4.92 4.92 0 0 1 68 76.82a5.46 5.46 0 0 1 4-1.27 5.35 5.35 0 0 1 3.83 1.2 4.53 4.53 0 0 1 1.24 3.42 7.65 7.65 0 0 1-.14 1.52 5.76 5.76 0 0 1-.45 1.31 6.25 6.25 0 0 1-.81 1.25 11.9 11.9 0 0 1-1.22 1.26l-1.91 1.77a7.18 7.18 0 0 0-1.2 1.35 3.91 3.91 0 0 0-.55 1.14h6.38v2.68zM79.8 85a3.14 3.14 0 0 1 2.2-1.48 3 3 0 0 1-1.16-.53 3.12 3.12 0 0 1-1.16-1.77 4.13 4.13 0 0 1-.12-1 4.37 4.37 0 0 1 1.33-3.58 6.65 6.65 0 0 1 7.29 0 4.37 4.37 0 0 1 1.33 3.58 3.78 3.78 0 0 1-.13 1 3.38 3.38 0 0 1-.42 1 3.16 3.16 0 0 1-.75.81 3.05 3.05 0 0 1-1.14.53A3.14 3.14 0 0 1 89.18 85a5.09 5.09 0 0 1 .72 2.75 8.21 8.21 0 0 1-.18 1.63A4.07 4.07 0 0 1 89 91a4.27 4.27 0 0 1-1.64 1.27 8.24 8.24 0 0 1-5.67 0A4.27 4.27 0 0 1 80 91a4.08 4.08 0 0 1-.75-1.65 8.25 8.25 0 0 1-.18-1.63A5.09 5.09 0 0 1 79.8 85zm2.81 3.84a2.67 2.67 0 0 0 .31.93 1.69 1.69 0 0 0 .61.62 2.14 2.14 0 0 0 1.91 0 1.7 1.7 0 0 0 .61-.62 2.68 2.68 0 0 0 .31-.93 7.37 7.37 0 0 0 .08-1.14 7.29 7.29 0 0 0-.08-1.15 2.68 2.68 0 0 0-.31-.92 1.7 1.7 0 0 0-.61-.62 2.13 2.13 0 0 0-1.91 0 1.69 1.69 0 0 0-.61.62 2.67 2.67 0 0 0-.31.92 7.29 7.29 0 0 0-.08 1.15 7.37 7.37 0 0 0 .08 1.09zm.66-6.88a1.58 1.58 0 0 0 2.44 0 2.88 2.88 0 0 0 .45-1.79q0-2.32-1.67-2.32t-1.67 2.32a2.88 2.88 0 0 0 .45 1.74z"/></g></g></svg>