<svg xmlns="http://www.w3.org/2000/svg" viewBox="0 0 421.15 133.2"><title>sonoma__white</title><g fill="#fff" data-name="Layer 2"><path d="M24.65 57.9a3.08 3.08 0 0 0 1.1.8c0 .13-.07.18-.2.15a.57.57 0 0 0-.4 0c0 .2.17.37.5.5 0-.2.13-.33.4-.4l1.5 1 1.5 1c.2-.27.25-.4.15-.4s-.15-.1-.15-.3a2.7 2.7 0 0 1 .7.5 3.93 3.93 0 0 0 .6.5c.07.13.07.22 0 .25s-.1.12-.1.25.25.1.35-.1.22-.23.35-.1.13.42 0 .45-.13.18 0 .45c.2 0 .3-.17.3-.5a1.81 1.81 0 0 0 1 .75 1.18 1.18 0 0 1 .75 1 4 4 0 0 1 .9.5 3.85 3.85 0 0 0 .9.5c0 .13 0 .2-.1.2s-.1.07-.1.2.07.18.2.15a1.69 1.69 0 0 1 .4 0q2.2 2.6 4.2 5.25a19.85 19.85 0 0 1 3.1 6.35.09.09 0 0 1-.1-.1c0-.07-.07-.1-.2-.1q.4 2 .7 4.2a14.75 14.75 0 0 1 0 4.2 4.52 4.52 0 0 1-1 2.3 19.06 19.06 0 0 0-1.45 2 1.51 1.51 0 0 0-.8.4 2.64 2.64 0 0 0-.5.7q-.3.3-.5 0a.6.6 0 0 1-.1.6 2.47 2.47 0 0 1-.45.35 5.14 5.14 0 0 0-.45.3.25.25 0 0 0-.1.35 2.44 2.44 0 0 0-1.15.55 2 2 0 0 1-1.15.45c-.13 0-.18.08-.15.25a.48.48 0 0 1-.15.45 1.54 1.54 0 0 0-1.35.45 1.19 1.19 0 0 1-1 .45 5.39 5.39 0 0 1-2.55 1 8.24 8.24 0 0 0-2.65.85 1.73 1.73 0 0 1-.7-.1 1.62 1.62 0 0 1-.7.2 1.38 1.38 0 0 0-1 .3 15.9 15.9 0 0 1-2.25 0 6 6 0 0 0-2 .15q-2.3-.4-4.55-1a6.06 6.06 0 0 1-3.55-2.5 7.47 7.47 0 0 1-.25-3.3q.25-1.6.65-3.3a5.74 5.74 0 0 0 .9-1.2 9.16 9.16 0 0 1 .8-1.2 31.38 31.38 0 0 1 4.4-2.45 24.41 24.41 0 0 1 5.2-1.65 4.13 4.13 0 0 1-.65.35l-.7.4c.07.2.15.23.25.1a.26.26 0 0 1 .35-.1.85.85 0 0 1-.9.6c-.13.13-.17.21-.1.25s0 .12-.1.25a22 22 0 0 0-3.5 2.45q-1.55 1.35-3.35 2.75a.49.49 0 0 1 0 .55c-.1.17 0 .25.25.25l-.8 1.2a11.16 11.16 0 0 0-.7 1.2q1.4.6 2.55 1.15a7.44 7.44 0 0 0 3.15.55c.2 0 .3.07.3.2a46.68 46.68 0 0 0 6-.4 17.29 17.29 0 0 0 5.75-1.8 2.76 2.76 0 0 0 .6 0 2.06 2.06 0 0 1 .5 0 1.39 1.39 0 0 1 .9-.65c.4-.1.63-.25.7-.45h.1s0 .05.1.05h.1q1.9-1.6 4-3.45a6.26 6.26 0 0 0 2.2-4.65 3 3 0 0 0 0-1.25 2.54 2.54 0 0 1 0-1.15 2.85 2.85 0 0 0-.45-.9 1.7 1.7 0 0 1-.15-1.2.4.4 0 0 0-.3-.1 22.85 22.85 0 0 0-3.35-5.4 40 40 0 0 0-4.25-4.3c0-.27-.08-.43-.25-.5a.39.39 0 0 1-.25-.4c-.13 0-.18.05-.15.15s0 .15-.15.15a10.32 10.32 0 0 0-2.55-2.05 9.13 9.13 0 0 1-2.35-1.85.86.86 0 0 1-.25.1 2 2 0 0 1-.35-.1 2.28 2.28 0 0 1-.8-.8c-.2-.33-.47-.37-.8-.1a.41.41 0 0 1 .1-.3 1.61 1.61 0 0 1-.65-.25 1 1 0 0 1-.55-.65.23.23 0 0 0-.25.2c0 .13-.08.1-.15-.1a11.72 11.72 0 0 1-1.45-.9 4.36 4.36 0 0 0-1.55-.65c0-.2-.08-.3-.25-.3s-.22-.07-.15-.2a6.74 6.74 0 0 1-2.15-1 5.57 5.57 0 0 0-2.15-1l-1-.65a4.65 4.65 0 0 0-1.35-.55 2.32 2.32 0 0 0-1.5-.9 1.87 1.87 0 0 1-1.4-1c-.2.13-.37.15-.5 0a.52.52 0 0 0-.5 0Q7.75 52 5.9 50.85a21.48 21.48 0 0 1-3.35-2.55c.13-.33.12-.53-.05-.6a.39.39 0 0 1-.25-.4H2a.2.2 0 0 1 0-.15.2.2 0 0 0 .05-.15.34.34 0 0 1-.3-.15 1.44 1.44 0 0 0-.6-.35A10.08 10.08 0 0 1 0 41.75a16.11 16.11 0 0 1 .75-5.25 16.48 16.48 0 0 0 1.6-3 1.11 1.11 0 0 0 .8-1.2q1.3-1.3 2.7-2.45a20.8 20.8 0 0 0 2.6-2.55 13.93 13.93 0 0 0 3.35-2.2 11.53 11.53 0 0 1 3.45-2.1 11.8 11.8 0 0 1 2.9-1.8 7.92 7.92 0 0 0 2.7-1.9 21 21 0 0 0 4.55-2.15A19.9 19.9 0 0 1 30.15 15q.8-.5 1.7-.95t1.7-1a5 5 0 0 0 2.3-.65 5.07 5.07 0 0 1 2.3-.65 12.41 12.41 0 0 1 4.7-2 30.33 30.33 0 0 0 5-1.45l3.7-.8q1.9-.4 3.3-.6c.13.13.2.23.2.3a13.93 13.93 0 0 1 4.75-.45 15.19 15.19 0 0 1 4.95 1 .61.61 0 0 0 .35.4c.17.07.25.27.25.6.13.13.23.15.3 0s.17-.08.3 0q.6 1 1.4 2.25a16.23 16.23 0 0 1 1.35 2.6 9 9 0 0 1 .65 2.75 5.33 5.33 0 0 1-.7 2.9l-.55.55a.76.76 0 0 0 0 .95 17.09 17.09 0 0 0-3.8 3.8 8.67 8.67 0 0 1-1.85 1.4q-1.05.6-2 1.2a4 4 0 0 0-1.5.5 9 9 0 0 0-1.3.9 8.49 8.49 0 0 0-2 .25q-1.05.25-2 .45a9.84 9.84 0 0 1-2 .2 3.75 3.75 0 0 1-1.85-.5 9.72 9.72 0 0 1 4.3-3.3 33.22 33.22 0 0 0 5.1-2.6 11.39 11.39 0 0 1 2.2-1.55 5.05 5.05 0 0 0 1.85-1.5.59.59 0 0 0 .6-.1 7 7 0 0 0 1-1.35A7.52 7.52 0 0 1 66 17.1a3.92 3.92 0 0 1 .6-1.6 1.92 1.92 0 0 0 .2-1.7 14.08 14.08 0 0 0-6.8-2.05 38.61 38.61 0 0 0-7.65.25 17.47 17.47 0 0 0-3.7.85 13.69 13.69 0 0 1-3.7.75c-.07 0-.1.1-.1.3q-.8.1-1.75.3a14.83 14.83 0 0 0-1.55.4 4.61 4.61 0 0 0-.6.25 5.6 5.6 0 0 0-.6.35 13.76 13.76 0 0 1-2.25.8q-1.15.3-2.25.7a7.66 7.66 0 0 0-1.55.8q-.75.5-1 0c-.13.33-.28.43-.45.3s-.38-.1-.65.1c-.07.2 0 .23.1.1s.23-.07.3.2-.08.18-.25.15a2.33 2.33 0 0 0-.45 0 5.69 5.69 0 0 1-2.2 1.1 4.22 4.22 0 0 0-2 1.1c-.2.07-.32 0-.35-.1s-.12-.17-.25-.1-.15.23 0 .3.08.17 0 .3a36.48 36.48 0 0 0-4.45 2q-2.05 1.1-4.15 2.4c-.07 0-.17-.07-.3-.2-.2.07-.23.13-.1.2a.2.2 0 0 1 .1.3 51 51 0 0 0-5.35 3.3q-2.55 1.8-5.15 3.6a1.08 1.08 0 0 1-.8.75.77.77 0 0 0-.6.85A17.93 17.93 0 0 0 3 37.8a7 7 0 0 0-1.1 5.1 8.68 8.68 0 0 0 3 3.35q1.95 1.25 3.75 2.65a6.84 6.84 0 0 1 2.8 1.3 7.86 7.86 0 0 0 2.8 1.4v.3a1.19 1.19 0 0 1 1.05.25 2.36 2.36 0 0 0 1 .55c0 .27-.07.4-.2.4a.18.18 0 0 0-.2.2 1 1 0 0 0 .75.5 1.56 1.56 0 0 1 .85.4.28.28 0 0 0-.05-.35.61.61 0 0 1-.15-.45q.7.3 1.65.75a10.83 10.83 0 0 1 1.65 1q0 .5-.15.35a.78.78 0 0 0-.45-.2c0-.13 0-.2.1-.2s0-.07-.1-.2-.22 0-.25.1-.15.07-.35 0a1.05 1.05 0 0 0-.7-.65 3.16 3.16 0 0 0-.9-.15 15.89 15.89 0 0 0 4.3 2.4v.4q.3-.2 1 .1c.46.2.63.47.5.8-.27.07-.33 0-.2-.15s.13-.25 0-.25-.18 0-.15.1a.17.17 0 0 1 0 .2 2.57 2.57 0 0 0 .85.85 1.41 1.41 0 0 0 1.05.25.61.61 0 0 0-.6-.45.6.6 0 0 1-.6-.45c.07-.13.15-.15.25 0s.19 0 .45-.1zM3.45 35.7h.2v-.3h-.2zm.9-3.3a.49.49 0 0 1 .25-.4c.17-.1.15-.22 0-.35q0 .2-.35.4t.1.35zm-.2 2.6h.2v-.3h-.2zm.45-2.75c0 .17.12.18.45.05-.26-.2-.41-.22-.45-.05zm.25-.55a.45.45 0 0 1 .3-.25c.13 0 .2-.15.2-.35a.69.69 0 0 0-.45.25c-.16.17-.18.28-.05.35zm.2 2.4c.07.27.1.27.1 0s-.03-.27-.1 0zm.6-3.2a.76.76 0 0 1 .25-.3.75.75 0 0 0 .25-.3.41.41 0 0 0-.5.2c-.13.2-.13.33 0 .4zm-.1 1.8a.09.09 0 0 0 .1.1c0-.13 0-.2.1-.2a.09.09 0 0 0 .1-.1h-.3zm.6.4c-.13.33-.12.43 0 .3s.2-.23 0-.3zm.1-2.9c0 .13 0 .18.1.15a.33.33 0 0 0 .15-.2.83.83 0 0 0 .05-.2s-.1 0-.3.15zm1.1-.8a2 2 0 0 1-.4.15c-.13 0-.17.15-.1.35q.5-.2.5-.5c.27 0 .33-.07.2-.2s-.2-.07-.2.2zm-.5 2.3h.2v-.2h-.2zm1.2-2.9a1.55 1.55 0 0 1-.4-.05c-.13 0-.17.05-.1.25.33 0 .5-.07.5-.2.27 0 .4-.1.4-.3a.39.39 0 0 0-.4.3zm-.2 2.6v.2h.2c.13-.13.1-.23-.1-.3a.09.09 0 0 1-.1.1zm.6 19.6c.07.13.1.08.1-.15s-.03-.18-.1.15zm.1-22.6a.75.75 0 0 0 .45-.2c.17-.13.15-.27 0-.4a.29.29 0 0 1-.4.2c-.16-.08-.18.07-.05.4zm.7 1.2c-.2 0-.3 0-.3.1.2 0 .3-.03.3-.1zm-.2-1.9a.51.51 0 0 0 .75 0l.55-.55a2.39 2.39 0 0 0-.65.25c-.16.05-.38.17-.65.3zm0 1.1c.27 0 .4-.1.4-.3q-.4 0-.4.3zm.3 1.2a.43.43 0 0 0 .6-.1c-.2.07-.33 0-.4-.1s-.13-.07-.2.2zm.2-.5c.07.2.1.18.1 0s-.03-.27-.1 0zm.2 20.5c-.13.13 0 .2.25.2s.45 0 .45-.1a2.89 2.89 0 0 1-.35-.2c-.1-.07-.21-.03-.35.1zm.7-20.1c0-.13 0-.2-.1-.2s-.1.07-.1.2c.07-.07.12-.07.15 0s.05.1.05 0zm0-.8c.07.2.12.2.15 0s-.01-.2-.15 0zm.8 21.4c-.27.13-.42.12-.45 0s-.15-.22-.35-.15a.75.75 0 0 0 .4.45q.3.1.4-.3zm-.5-23.8l.45-.25q.25-.15 0-.35a.64.64 0 0 1-.4.3c-.15.07-.18.17-.05.3zm.3 2.7c.2-.07.23-.15.1-.25s-.15-.02-.1.25zm.5 21.4c-.13-.13-.2-.07-.2.2s-.08.17.15.1.25-.17.05-.3zm-.1-24.5a5.74 5.74 0 0 1 1.85-1.2 3.3 3.3 0 0 0 1.55-1.3q-.9.5-1.8.95a4.15 4.15 0 0 0-1.6 1.55zm.1 1.7c.13.2.21.18.25 0s-.05-.27-.25 0zm1.1 23.3a.8.8 0 0 0-.5-.1q-.1.2.15.25a.29.29 0 0 0 .35-.15zm-.5-24.8a.17.17 0 0 1 .2 0h.1c-.2-.1-.3-.07-.3 0zm.1 1.8q-.1.5.15.25c.17-.17.12-.25-.15-.25zm.15-.55c.1.17.15.12.15-.15.27-.07.33-.15.2-.25s-.2 0-.2.25q-.3-.1-.15.15zm.35 25.55h.3c0-.27-.1-.4-.3-.4zM13 28a.26.26 0 0 0 .35-.1c.1-.13.08-.23-.05-.3q.1.2-.2.1c-.25-.07-.28.03-.1.3zm0-1.9c.27 0 .4-.1.4-.3-.31 0-.4.1-.4.3zm.2 27.2q-.3.4.1.25c.22-.1.19-.18-.15-.25zm.9.5a.62.62 0 0 1 .15-.3c.1-.13 0-.2-.15-.2s-.23.13-.3 0a.46.46 0 0 0 .25.5zm0-28.5c-.13.27-.1.3.1.1s.12-.23-.15-.1zm.2 1.9c.07.07.05.07 0 0s-.18-.07-.05 0zm.4 27.1c.2-.13.2-.27 0-.4s-.33-.13-.4 0a.18.18 0 0 1 .2.2.18.18 0 0 0 .15.2zm0-1.7a.28.28 0 0 0 0-.35c-.1-.1-.18-.08-.25.05.13 0 .2 0 .2.1a.28.28 0 0 0 0 .2zM14.45 86v-.1a.09.09 0 0 1 .1-.1c0-.2-.07-.27-.2-.2 0 .27.04.4.1.4zm.1-59.1c.13.07.27 0 .4-.3-.13 0-.22 0-.25.1a.8.8 0 0 1-.15.2zm.2-.7h.1s0 .05.1.05 0-.1 0-.1.05 0 .05-.1-.1 0-.1 0 0-.05-.1-.05 0 .1 0 .1-.05.03-.05.1zm.7 60.1c.07-.33 0-.5-.15-.5h-.55c0 .33.25.5.7.5zm-.6-61.5q.1.2.3 0t-.1-.3c0 .13 0 .18-.1.15s-.1.02-.1.15zM15 54.3q-.1.5 0 .1v-.1zm0-.4c.2 0 .3 0 .3-.1s.07 0 .2.1c.07-.27 0-.4-.25-.4s-.36.13-.25.4zm.6-30c.07-.27-.13-.4-.6-.4 0 .27.15.4.55.4zM15.05 53c.33-.13.5-.12.5.05s.1.28.3.35c.07-.33 0-.52-.25-.55a1.54 1.54 0 0 1-.6-.25.39.39 0 0 0 0 .25.21.21 0 0 1 .05.15zm.6 38.8c0-.27-.23-.4-.7-.4.05.13.24.27.7.4zm2.4-70.05a4.51 4.51 0 0 0-1.1 1 .28.28 0 0 1-.2-.1 2 2 0 0 1-.7.45.75.75 0 0 0-.5.45.09.09 0 0 1 .1.1c0 .07.07.1.2.1s.18-.25.15-.35 0-.15.15-.15a.28.28 0 0 0 .4 0 .28.28 0 0 1 .4.05v-.6c.07-.07.18-.07.35 0s.25 0 .25-.1a.86.86 0 0 1 .35-.35 2.09 2.09 0 0 0 .45-.25l.1.2a5.7 5.7 0 0 1 1-.65 5.62 5.62 0 0 0 1-.65 4.91 4.91 0 0 0 1-.55l.8-.55a.28.28 0 0 0 .35-.05q.15-.15-.15-.25a5 5 0 0 0-1.55.7 14.08 14.08 0 0 1-1.55.9v.1a3.53 3.53 0 0 0-1.3.55zm-2.4 32.15c.07.2.12.18.15 0s-.01-.27-.15 0zm.3 1c.07-.2 0-.32 0-.35a.61.61 0 0 1-.25-.15.46.46 0 0 0 .3.5zm-.1-.8a.2.2 0 0 1 .3.1c.07.13.17.13.3 0a.42.42 0 0 1-.35-.2c-.1-.21-.18-.17-.25.1zm.3-28.8h-.1c-.07 0-.1.07-.1.2a.18.18 0 0 0 .2-.2zm.3 29.4h-.3v.3c.17 0 .3-.1.3-.3zm.3 29.5c-.27 0-.4.1-.4.3a.28.28 0 0 0-.2.1c.13 0 .2 0 .2-.1.27 0 .4-.1.4-.3a1 1 0 0 0 .9-.3.3.3 0 0 0-.45 0 2.73 2.73 0 0 1-.45.3zm-.3-31.3a4.47 4.47 0 0 0 .55.15.31.31 0 0 1 .25.35.87.87 0 0 1-.9-.1v-.2s.1-.1.1-.2zm0-26.8q-.2.2 0 0c.22-.1.2-.1 0 0zm.3 29c-.2 0-.3 0-.3.1.2 0 .3-.03.3-.1zm-.2-31.2c.13.07.17.07.1 0s-.1-.07-.1 0zm0 30.5h.2v-.2h-.2zm.5-29.6c-.2 0-.3 0-.3.1.25 0 .3-.03.3-.1zm.7 31.4a.6.6 0 0 1 .75.1q.25.3.45 0a1.7 1.7 0 0 0-.6-.35 1.05 1.05 0 0 1-.6-.65c-.13.2-.28.18-.45-.05s-.3-.25-.55-.15c.13.4.32.58.55.55s.39.15.45.55zm-.7 37.4c-.2 0-.3 0-.3.1.25 0 .3-.03.3-.1zm0-38.9h.2c.13-.13.1-.22-.1-.25s-.27 0-.2.15a.09.09 0 0 1 .1.1zm0-29.2c.07.27.1.27.1 0s-.03-.27-.1 0zm.1-2h.2v-.2h-.2zm.4-.9c-.13 0-.2 0-.2-.1s.07-.13.2-.2zm-.2 3a.25.25 0 0 0 .35-.1c.1-.13.08-.23 0-.3 0 .13 0 .2-.15.2s-.2.07-.2.2zm0 29.1c.13.27.2.28.2 0s-.06-.2-.2 0zm.3-30.1v-.3a.29.29 0 0 1-.1.2c-.06.07-.03.1.1.1zm0-1.3a.68.68 0 0 0 .5-.2.25.25 0 0 0 0-.4q-.1.3-.25.35a.46.46 0 0 0-.25.25zm.2 60.6c-.07-.13 0-.25.2-.35s.2-.22 0-.35a1 1 0 0 1-.3.35c-.13.1-.1.22.1.35zm-.1-28.8c.13.2.2.18.2 0s-.06-.27-.2 0zm.1-30.2h.3v-.3h-.3zm1.5 30.6l-.6-.3a1.42 1.42 0 0 0-.6-.1 1.38 1.38 0 0 0 .45.45.58.58 0 0 0 .75-.05zm-.9 1.1h-.1l-.1.1c.14 0 .2-.03.2-.1zm.2 26.5h.45c.17 0 .18-.07 0-.2-.28 0-.45.1-.45.2zM19 22.3c-.07.07-.07.12 0 .15s.07 0 0-.15q.8-.2.8-.3a.9.9 0 0 0-.4.1zm0 1.9c0 .07 0 .1.15.1s0-.2.15-.2.15 0 .15-.1a.39.39 0 0 1-.25 0h-.25a.17.17 0 0 1 .05.2zm3.85 69.7v-.3a2.91 2.91 0 0 1-1.85 0 2.19 2.19 0 0 0-2 .5l3.45.15a7.64 7.64 0 0 0 3.15-.65c0 .2.07.3.2.3.13-.4.3-.52.5-.35s.47.15.8-.05q-.1 0-.1-.5a5.85 5.85 0 0 0-2.2.4 2.92 2.92 0 0 1-1.8.2c0 .2-.08.3-.15.3zm-3.4-72.6c0 .07 0 0-.1-.1a.09.09 0 0 1 .1.1zm1.4 35.9a1.59 1.59 0 0 1-.7-.35c-.33-.23-.6-.28-.8-.15 0 .13.22.3.65.5s.72.2.85 0zm-1.3 25.7c.2 0 .3-.07.3-.2h-.2v.1s-.1.03-.1.1zm.3-58.6h.2V24h-.2zm.8-1.7c-.13 0-.2 0-.2.1s.2-.03.2-.1zm-.1-.9c.07 0 .17-.07.3-.2-.26 0-.36.07-.3.2zm.1 34.6a.57.57 0 0 0 .2.4.58.58 0 0 0-.2-.4zm.1-.9a2.57 2.57 0 0 1 1.8.75 4.43 4.43 0 0 0 1.9 1q-.1.2-.65.15t-.35-.45c-.47.13-.67 0-.6-.5a.44.44 0 0 1-.7-.1c-.2-.27-.4-.3-.6-.1 0-.35-.26-.61-.8-.75zm.3-34.2c-.07.07-.12.08-.15 0s0 0 0 .15c.07-.07.12-.08.15 0s0-.02 0-.15zm0 35.6c-.13.2-.12.22 0 0s.2-.13 0 0zm0 .5a.49.49 0 0 0 .1.5.92.92 0 0 1 .9-.25 8.57 8.57 0 0 1 .8.35.54.54 0 0 0-.4-.6 3.79 3.79 0 0 1-.8-.3q.2.4-.1.35a3.16 3.16 0 0 0-.5-.05zm.1-36.1c.13.2.2.18.2 0s-.06-.27-.2 0zm0 37c.13.2.2.18.2 0s-.06-.27-.2 0zm.4 23.7c-.2 0-.3 0-.3.1.2 0 .3 0 .3-.1zm-.1-59.1v.1c-.08-.07-.06-.1 0-.1zm.2 35.2h.2c.13-.13.1-.21-.1-.25s-.27 0-.2.15a.09.09 0 0 1 .1.1zm.85 23.65c.23-.1.22-.22 0-.35 0 .13-.08.21-.25.25a.46.46 0 0 0-.35.25 1.67 1.67 0 0 0 .6-.15zm-.25-23.25c0-.07 0-.07.1 0 0-.27-.07-.4-.2-.4 0 .27.04.4.1.4zm.2-37.8h.3v-.3h-.3zm.3 1.9c-.2 0-.3 0-.3.1.2 0 .3-.03.3-.1zm-.3 35.7a3.59 3.59 0 0 0 .9.8 1 1 0 0 0 1.1.1 5.36 5.36 0 0 0-2-.9zm.2-38.8c.13.27.33.3.6.1a5.85 5.85 0 0 0 .6-.5 1.93 1.93 0 0 0 .7-.25 1.09 1.09 0 0 0 .6-.55l-1.4.7q-.6.3-1.1.5zm.2.9c.27 0 .4-.07.4-.2H23v.1s-.15.03-.15.1zm.7 1.8zm.3 59.1c.27-.13.3-.12.1 0s-.23.2-.1 0zm3.4-20q0 .2.2 0c.13-.13.07-.13-.2 0q-.7-.6-1.35-1.1a5.58 5.58 0 0 0-1.45-.8 3.26 3.26 0 0 0 1.2 1q.7.4 1.6.9zm-2.6-3.3v-.4a4.69 4.69 0 0 1 1.3.6 7.33 7.33 0 0 1 1.1.9.83.83 0 0 1-.7-.1 6.87 6.87 0 0 1-.6-.45L25.2 58a.56.56 0 0 0-.55-.1zm.9 2.6c-.33 0-.5 0-.5.1.34.33.5.3.5-.1zm-.1-41.9c.07-.47.3-.7.7-.7a1 1 0 0 0 .9-.5 1.63 1.63 0 0 0-1.15.3q-.65.4-.45.9zM26 94.3c0-.07 0-.1-.15-.1s-.15 0-.15.1 0 .2.15.2.15-.07.15-.2zm-.1-34.8c.07.27.1.29.1.05s-.08-.25-.15-.05zm2.8.6a2.13 2.13 0 0 1-.85-.35 6 6 0 0 0-.75-.45c.2-.2.48-.17.85.1a3.19 3.19 0 0 1 .7.7zm1.4 32.3a.82.82 0 0 0-.5-.3 1.46 1.46 0 0 1-1.3.45c-.6 0-1 .18-1.1.65a1.33 1.33 0 0 0 1.7-.3c-.13-.07-.23-.08-.3 0s-.1 0-.1-.15a1.56 1.56 0 0 1 1.1 0c-.13-.27-.08-.37.15-.3a2.33 2.33 0 0 0 .45.1 5 5 0 0 0 .5-.3c.2-.13.23-.27.1-.4a1.18 1.18 0 0 0-.75.55zm-1.9-75.7c0-.07 0-.1-.15-.1a.48.48 0 0 1-.4.35q-.3.05-.4.45a1 1 0 0 0 .7-.2.76.76 0 0 1 .7-.1.44.44 0 0 1 .5-.5.44.44 0 0 0 .5-.5 2.55 2.55 0 0 0-1.4.8.16.16 0 0 1-.05-.2zm-.45 3.3c-.27-.07-.35 0-.25.05s.18.08.25-.05c.13.13.2.12.2 0s-.06-.2-.2 0zM28 61.8c.13-.2.2-.17.2.1s.1.33.3.2.08-.45-.15-.55a4.93 4.93 0 0 0-.75-.25.23.23 0 0 0 .15.25.46.46 0 0 1 .25.25zm.5-42.1c-.13 0-.2 0-.2.1s.15-.03.15-.1zm0 41.5c-.07.33 0 .42.15.25s.07-.25-.2-.25zm.2 1.1c.27 0 .4-.1.4-.3-.31 0-.45.1-.45.3zm.5-.6c.13-.13.13-.2 0-.2a.32.32 0 0 1-.3-.2q-.15.4.25.4zm.4.4a.2.2 0 0 1-.15 0 .4.4 0 0 0-.25-.05c-.07.13 0 .25.15.35s.12.25-.15.45a1 1 0 0 1 .6.15.66.66 0 0 0 .4.15c-.07.27 0 .37.2.3a.28.28 0 0 0 .2-.4c-.13 0-.2 0-.2.05s-.07 0-.2 0c-.07-.27-.2-.42-.4-.45s-.27-.22-.2-.55a1.8 1.8 0 0 1 .5.2c0-.27-.08-.4-.25-.4s-.3.1-.3.2zm.5-.4q0-.7-.3-.8c-.13.2-.15.35 0 .45zm-.2 30.1h-.1l-.1.1c.09 0 .15-.03.15-.1zm.3-75.7a.4.4 0 0 0-.4.2c.27 0 .4-.07.4-.2q.2.2.45 0l.45-.45a1.59 1.59 0 0 0-.95.45zm-.1 46.4c.13.07.2 0 .2-.2s-.07-.27-.2-.2zm.3 29.4v-.4c-.2 0-.3 0-.3.1s.18 0 .15.15-.03.15.1.15zm0-29.8c.2.07.37 0 .5-.3-.38-.13-.55-.03-.55.3zm1.8 2.35c-.07 0-.07-.12 0-.25-.4.07-.63 0-.7-.25s-.27-.35-.6-.35a2.21 2.21 0 0 0 .55.7 1.82 1.82 0 0 0 .85.4c-.05-.13-.08-.22-.15-.25zm-.8-46.75c.13-.13.12-.23 0-.3s-.29 0-.35.1a.17.17 0 0 1 .15.1c-.06.07.02.1.15.1zm-.2-2.1q.2.3.5-.2a.68.68 0 0 0-.55.2zm.7 47.2q.1-.2-.25-.35t-.45 0a1.24 1.24 0 0 1 .3.2.57.57 0 0 0 .35.15zm-.5-44.5c-.13.2-.1.22.1 0s.12-.13-.15 0zm.5-.4h.2c.07-.2 0-.32-.2-.35s-.27 0-.2.15h.1a.29.29 0 0 1 .05.2zm0-2.3l.65-.35c.3-.17.42-.32.35-.45a1 1 0 0 1-.6.25c-.3.03-.45.22-.45.55zm.4 76.8v-.3h-.2v.3zm.1-28.1q.4 0 .3-.3c-.13-.07-.2 0-.2.05a.34.34 0 0 1-.15.25zm.8 1.2a5.37 5.37 0 0 0 1 1 1.89 1.89 0 0 0 1.1.45 4.93 4.93 0 0 1-.95-.75 2.63 2.63 0 0 0-1.15-.65c-.07-.13-.15-.32-.25-.55s-.28-.28-.55-.15a1.5 1.5 0 0 0 .75.65zm-.7-48.4a.22.22 0 0 0 .2-.4c0 .13 0 .2-.15.2s-.16.1-.1.2zm.1 74.9c0-.13 0-.2.15-.2s.15-.07.15-.2a.26.26 0 0 0-.35.1c-.15.13-.13.23 0 .3zm.4 1.9h-.4c-.13 0-.1.21.1.25s.3-.15.3-.25zm.7-2.6c-.2 0-.3 0-.3.1.15 0 .25-.03.25-.1zm-.2-76.5h.2v-.2h-.2zm.6 76.3h.1v-.3h-.1zm.6-77.1q0 .5.25.25a.69.69 0 0 1 .45-.25c-.13-.13-.25-.13-.35 0s-.26.13-.4 0zm.2 76.4c-.13.2-.12.22 0 0s.15-.13-.05 0zm.8-22.9c-.27 0-.4 0-.4.1a.58.58 0 0 0 .35-.1zm-.3 22.8c.33 0 .5-.13.5-.4-.38 0-.55.1-.55.4zm.9-21.9V68c-.13 0-.22 0-.25-.1a.56.56 0 0 0-.25-.2.71.71 0 0 0 .45.7zM36 89.7v.2h.3v-.3h-.2a.09.09 0 0 1-.1.1zm1.5-20.2a1.83 1.83 0 0 0-1.1-.9 1.31 1.31 0 0 0 1.05.9zM37 89.3c0-.07 0-.1-.15-.1a.33.33 0 0 0-.25.1h.2s.02.07.2 0zm.2-76c.13.27.2.3.2.1s-.11-.23-.25-.1zm.1 75.4h.2v-.2h-.2zm.7-18.9c-.2 0-.3 0-.3.1.15 0 .3-.03.3-.1zm.4-56.8h.2v-.4h-.2zm.9 1.3h.2v-.2h-.2zm3.1 70.3c.07.07.07.1 0 .1s-.18.2-.15.2a.41.41 0 0 0 .15 0 .35.35 0 0 0 .15-.15c-.01-.12-.06-.15-.2-.15zm.3-6.7c.27.07.4.4.4 1a.43.43 0 0 1-.3-.45 1.26 1.26 0 0 0-.15-.55zm.2 1.6a.34.34 0 0 1 .25-.1q.15 0 .15.1c.07.13 0 .2-.15.2s-.3-.07-.3-.2zm.3 3.9h.2v.3h-.3v-.2a.09.09 0 0 0 .05-.1zm0-3.3c.13-.07.2 0 .2.15a.49.49 0 0 1-.1.35q-.15 0-.15-.5zm.1 1.1c.13 0 .2.13.2.4s-.1.4-.3.4a.63.63 0 0 0 0-.4.62.62 0 0 1 .05-.4zm-.1 1.6h.2v.2h-.2zm.1-.5c.07-.2.1-.18.1 0s-.08.27-.15 0z"/><path d="M52.35 59.5a.42.42 0 0 1-.3-.45.74.74 0 0 0-.2-.55 21.46 21.46 0 0 1 2.85-2.9 8.78 8.78 0 0 1 3.85-1.8 2.21 2.21 0 0 1 1.1.8 6.88 6.88 0 0 1 3.1 1.2 24.72 24.72 0 0 0 2.6 1.7 8.37 8.37 0 0 1 .55 4.5 14.76 14.76 0 0 1-1.3 4.1 21.31 21.31 0 0 1-2.3 3.7Q61 71.5 60 73q-2 .6-3.8 1.3a5 5 0 0 1-3.8-.1 8.11 8.11 0 0 1-2-3.5 11.53 11.53 0 0 1-.4-3.85 15.56 15.56 0 0 1 .8-3.85 21.16 21.16 0 0 1 1.55-3.5zm7.7-1a9.27 9.27 0 0 0-5.2 4.55A16.55 16.55 0 0 0 53 70.6a2.25 2.25 0 0 0 .95 0 4.45 4.45 0 0 1 1-.1 18.94 18.94 0 0 0 4.75-4.9 15.66 15.66 0 0 0 2.45-6.9 4.12 4.12 0 0 1-.3-.75 2.34 2.34 0 0 0-.3-.65c-.54-.13-.85 0-1 .3a2.84 2.84 0 0 1-.5.9zm1.8 3.2a.75.75 0 0 1 .2-.45c.13-.17.07-.25-.2-.25a.33.33 0 0 1-.1.4c-.13.14-.1.23.1.3zm.6-3c.07.27.1.27.1 0s-.03-.27-.1 0zm29 10a8.78 8.78 0 0 0 4.9-1.45 31.09 31.09 0 0 1 4.1-2.45c-.2-.13-.27-.27-.2-.4a19.94 19.94 0 0 0 5.25-2.85 49.11 49.11 0 0 0 4.75-4A6.33 6.33 0 0 0 108.4 59a4.11 4.11 0 0 1-2.4 1.1 14 14 0 0 1 2.35-1.9l2.55-1.6a3.4 3.4 0 0 1-1 2.1 13 13 0 0 1-1.9 1.65l-2.15 1.55a6.2 6.2 0 0 0-1.7 1.8q-.7-.4-1.25.4a2.33 2.33 0 0 1-1.25 1 1.84 1.84 0 0 0 1.3-.35 2.48 2.48 0 0 0 .9-.85h.55a1.42 1.42 0 0 1 .35.2q.2-.2 0-.35a.41.41 0 0 1 0-.45 2.29 2.29 0 0 1 .7-.2c.13 0 .27-.13.4-.4a.62.62 0 0 0 .75.1 3.51 3.51 0 0 0 .9-.6c.3-.27.62-.53.95-.8a3 3 0 0 1 .8-.5L108.1 63a3.44 3.44 0 0 1-1.65 1.5 3.69 3.69 0 0 1-.4.65 1.72 1.72 0 0 0-.3.55q-1.2.8-2.6 2t-2.9 2.2A18.08 18.08 0 0 1 97 71.65a8.08 8.08 0 0 1-3.65.65 3.33 3.33 0 0 1-2-.65 7.78 7.78 0 0 1-1.6-1.55c-.07-.2-.13-.25-.2-.15s-.17.08-.3 0a7.43 7.43 0 0 1-1.2-2.9 17.83 17.83 0 0 1-.3-3.3q0-1.7.15-3.45t.15-3.3a24.94 24.94 0 0 0-4 3.15 44.55 44.55 0 0 0-3.4 3.7q-1.6 1.95-3.1 4T74.45 72a2 2 0 0 1-1 .15 1 1 0 0 0-1 .35 5 5 0 0 1-2-3.65 17.11 17.11 0 0 1 .35-4.6q.5-2.45 1.2-4.95a13.4 13.4 0 0 0 .5-4.8 3.43 3.43 0 0 1 2.15.25 4.37 4.37 0 0 1 1.4 1.25 13.34 13.34 0 0 1-.35 3.65 35.19 35.19 0 0 0-.65 4 29.45 29.45 0 0 0 2.95-3.1 11.38 11.38 0 0 1 3.1-2.75 11.46 11.46 0 0 1-2.1 2.3 8.75 8.75 0 0 0-2 2.4 7.43 7.43 0 0 0 2.3-2 10.43 10.43 0 0 1 2.1-2.1c-.13-.13-.2-.23-.2-.3a4.52 4.52 0 0 0 2-1.25q1.1-1.05 2.1-2a3.55 3.55 0 0 0-2 1.2 3.53 3.53 0 0 1-1.9 1.2 6.93 6.93 0 0 1 1.8-1.75 3.48 3.48 0 0 1 2.3-.85 1.4 1.4 0 0 1 1.05-.6 2.28 2.28 0 0 1 1.1.3 11.39 11.39 0 0 1 1 .65 2.62 2.62 0 0 0 1 .45 3.11 3.11 0 0 1 1.6 2.3 14.84 14.84 0 0 1 .2 3.5q-.1 1.9-.3 3.9a8.38 8.38 0 0 0 .3 3.55zm-7.9-11.2c.07.2.1.18.1 0s-.03-.27-.1 0zm.2-.2a.72.72 0 0 0 .7-.4 1 1 0 0 1-.45.1c-.17 0-.25.1-.25.3zm1.6-1c0-.13 0-.2.1-.2s.1-.07.1-.2a.22.22 0 0 0-.2.4zm15.9 9.2c0-.2-.07-.27-.2-.2s0 .3.1.3a.09.09 0 0 1 .1-.1zm0-1.7c.2-.13.21-.12 0 0s-.13.2 0 0zm.5-.3c.2-.13.21-.12 0 .05s-.13.15 0-.05zm.7-.8h.3v.3h-.3zm1.5-.8a.57.57 0 0 1-.4.2.58.58 0 0 1 .45-.2zm2.6.4v.2a.09.09 0 0 0-.1.1h-.2v-.2l.1-.1zm.7-1.1h.3v.2h-.3z"/><path d="M108.25 59.5a.42.42 0 0 1-.3-.45.74.74 0 0 0-.2-.55 21.46 21.46 0 0 1 2.85-2.9 8.78 8.78 0 0 1 3.85-1.8 2.21 2.21 0 0 1 1.1.8 6.88 6.88 0 0 1 3.1 1.2 24.72 24.72 0 0 0 2.6 1.7 8.37 8.37 0 0 1 .55 4.5 14.76 14.76 0 0 1-1.3 4.1 21.31 21.31 0 0 1-2.3 3.7q-1.35 1.75-2.35 3.25-2 .6-3.8 1.3a5 5 0 0 1-3.8-.1 8.11 8.11 0 0 1-2-3.5 11.53 11.53 0 0 1-.35-3.85 15.56 15.56 0 0 1 .8-3.85 21.16 21.16 0 0 1 1.55-3.55zm7.7-1a9.27 9.27 0 0 0-5.2 4.55 16.55 16.55 0 0 0-1.9 7.55 2.25 2.25 0 0 0 .95 0 4.45 4.45 0 0 1 1-.1 18.94 18.94 0 0 0 4.75-4.9 15.66 15.66 0 0 0 2.45-6.9 4.12 4.12 0 0 1-.3-.75 2.34 2.34 0 0 0-.3-.65c-.54-.13-.85 0-1 .3a2.84 2.84 0 0 1-.4.9zm1.8 3.2a.75.75 0 0 1 .2-.45c.13-.17.07-.25-.2-.25a.33.33 0 0 1-.1.4c-.13.14-.1.23.1.3zm.6-3c.07.27.1.27.1 0s-.03-.27-.1 0zm40.9-4.9c.2.27.42.3.65.1a6.94 6.94 0 0 1 .65-.5 2.23 2.23 0 0 0 .45.35c.17.1.18.25.05.45a.55.55 0 0 0 .4 0 .24.24 0 0 1 .3.15 4 4 0 0 1-.3 2.1 13.13 13.13 0 0 0-.7 1.7c-.13.07-.23 0-.3 0s-.17-.12-.3 0 0 .28.15.25.25 0 .25.15c-.13.47-.37.7-.7.7a2.74 2.74 0 0 1 0 1.8 3.58 3.58 0 0 1-1.1 1.8.45.45 0 0 1 .25.3c0 .13-.08.2-.35.2a.7.7 0 0 1 0 1 1 1 0 0 0-.25 1 .79.79 0 0 0-.1.5 1.19 1.19 0 0 0-.8.6.25.25 0 0 0 .4 0c.13-.13.27-.1.4.1a1.93 1.93 0 0 1-1 .3c.33.2.42.37.25.5s-.12.37.15.7a.58.58 0 0 0-.4.2c-.13.2-.1.28.1.25s.23 0 .1.25c-.13-.07-.27 0-.4.3a.9.9 0 0 1-.6.5c0 .27.07.35.2.25a.28.28 0 0 1 .4 0 1.49 1.49 0 0 0-.4.75.9.9 0 0 1-.6.65 3 3 0 0 0 .15.4.47.47 0 0 1 0 .2c0 .07-.13.1-.4.1a7 7 0 0 1-.25 3q-.45 1.55-.85 2.65c0 .13.17.27.5.4a.61.61 0 0 0-.4.55.75.75 0 0 1-.2.55 3.17 3.17 0 0 1 .15 2 4.19 4.19 0 0 0 0 2.15q.5-.1.65.25a8 8 0 0 1 .3.85 5.6 5.6 0 0 0 .35.9q.2.4.9.4c-.13.27-.12.42 0 .45s.22.12.15.25a1.81 1.81 0 0 1-1.55.55 2.88 2.88 0 0 1-1.4-.75 15.35 15.35 0 0 1-1.25-1.3q-.6-.7-1.1-1.2c-.07-.13-.1-.17-.1-.1a.09.09 0 0 0 .1.1v.2a8.08 8.08 0 0 1-1.35-4.3 22.72 22.72 0 0 1 .4-4.7 41.15 41.15 0 0 1 1.15-4.65 28.66 28.66 0 0 0 1-4.25q-1 1.3-2.55 3a14.74 14.74 0 0 1-3.3 2.75 5.39 5.39 0 0 1-3.45.85q-1.7-.2-3-2.8c-.13 0-.2 0-.2.15s-.07.12-.2 0a5.32 5.32 0 0 1-.55-3.25q.25-1.65.35-3.55-1.5 1.9-2.85 4t-2.75 4.1q-1.4 2-2.95 3.9a19.1 19.1 0 0 1-3.45 3.3q-2.7-.4-3.55-2.1a7.26 7.26 0 0 1-.65-4 22.26 22.26 0 0 1 1-4.65q.75-2.4 1.25-4.3a18.81 18.81 0 0 1 1-5q.75-2.1 1.85-4.6a1.61 1.61 0 0 1 1.35-.65 2.77 2.77 0 0 1 1.4.5A3.7 3.7 0 0 1 133 55a2.57 2.57 0 0 1 .35 1.6 18.49 18.49 0 0 1-.6 3q-.5 1.85-1.2 3.95t-1.4 4.15q-.7 2.05-1.2 3.55c-.13.07-.17.12-.1.15s.1 0 .1-.15a10.15 10.15 0 0 0 2.25-2.7 9.52 9.52 0 0 1 2.15-2.6 10.51 10.51 0 0 1 2-3 11.55 11.55 0 0 0 2-2.85 1.7 1.7 0 0 0 .8-.65 4 4 0 0 1 .7-.8 4.2 4.2 0 0 1 .9-.6 2.57 2.57 0 0 1 1.4-.15c-.07.13 0 .23 0 .3s.12.17 0 .3a.77.77 0 0 0 .55 0c.17-.07.18 0 0 .3a3.76 3.76 0 0 1 .9-.25 2.9 2.9 0 0 1 .9 0c.13.2.1.27-.1.2s-.27 0-.2.1a.89.89 0 0 0 .5.25.91.91 0 0 1 .5.25 3.92 3.92 0 0 1 0 1 .6.6 0 0 0 .45.65 8.65 8.65 0 0 0-.2 1.65 4.16 4.16 0 0 0 .3 1.45 2.7 2.7 0 0 0-.55 2 12.09 12.09 0 0 1-.15 2.55 11.53 11.53 0 0 0 3.5-2.75q1.4-1.65 2.9-3.35c-.07-.13-.12-.17-.15-.1s-.12.1-.25.1a14 14 0 0 0 3.35-3.9 18.53 18.53 0 0 1 3.25-4.1 1.61 1.61 0 0 1 .25-1 4.15 4.15 0 0 0 .45-.85q.8.2 1.1.3a.58.58 0 0 1-.1.4 1.14 1.14 0 0 0-.2.3q.2.3.25 0c0-.2.15-.27.35-.2-.07.13-.07.23 0 .3s.37.13.5 0zM129.35 68c.13.2.2.18.2 0s-.07-.27-.2 0zm6.9-5.7a12.35 12.35 0 0 1-2.25 4 19.25 19.25 0 0 0-2.55 3.9 1.7 1.7 0 0 0 .85-1 1.7 1.7 0 0 1 .85-1c.07.13 0 .25-.2.35s-.13.15.2.15a2 2 0 0 1 .55-.8.77.77 0 0 0 .15-.9 1.27 1.27 0 0 0 .9-.55c.2-.3.4-.62.6-1s.42-.68.65-1a2.36 2.36 0 0 1 1-.85c-.13.13-.18.25-.15.35a.23.23 0 0 0 .25.15 7.44 7.44 0 0 1 1.5-2.1 14.47 14.47 0 0 0 1.75-2q-.6.1-.6-.3c.2-.07.32-.13.35-.2s.15 0 .35.1a.66.66 0 0 1-.1-.6.66.66 0 0 0 0-.5 5.1 5.1 0 0 0-2.15 2 4.71 4.71 0 0 1-1.95 1.8zm-.6 3.4v.2c.13.13.22.1.25-.1s0-.27-.15-.2a.09.09 0 0 1-.1.1zm.9-1.2a1.12 1.12 0 0 0-.4.4q-.2.3 0 .5a.88.88 0 0 0 .25-.45 1.79 1.79 0 0 1 .15-.45c.2 0 .23-.07.1-.2s-.17-.07-.1.2zm.6-1.6c.27.27.27.5 0 .7-.13 0-.2-.2-.2-.6.13.13.2.1.2-.1zm1-.7q-.5.4-.7.6a1.75 1.75 0 0 1 .35-.8c.17-.2.32-.37.45-.5.27.2.23.43-.1.7zm.4-2.8h.2v-.2h-.2zm1.3.8a.59.59 0 0 1-.3.5.43.43 0 0 1-.6-.1l.35-.35c.1-.1.28-.12.55-.05zm.8 4.6c.13.27.2.28.2 0s-.07-.2-.2 0zm.3-.4c0-.13 0-.2.1-.2s-.1-.2-.3-.2a.17.17 0 0 1 .05.2c-.03.07.02.13.2.2zm.1 2c-.07.33 0 .43.15.3s.12-.23-.15-.3zm4.9 2.5c.13.13.2.23.2.3l.4-.2.4-.2c-.27-.27-.27-.45 0-.55a.42.42 0 0 0 .3-.55 1.82 1.82 0 0 0-1.25 1.2zm.6-1.1c.13-.27.12-.37-.05-.3s-.15.17.05.3zM155 58a.85.85 0 0 1-.25.7c-.17.13-.35.27-.55.4v-.3c-.33 0-.5.13-.5.4a.09.09 0 0 0 .1.1.09.09 0 0 1 .1.1.9.9 0 0 0-.25.5q-.05.3-.45.3a.2.2 0 0 1 .05-.15.21.21 0 0 0 0-.15l-.55.35c-.17.1-.25.32-.25.65.2 0 .3-.12.3-.35s.13-.32.4-.25q-.6 1-1.3 2a4.85 4.85 0 0 1-1.6 1.5q.3-.1.3.2-.8.8-1.4 1.5t-1.4 1.6a1.05 1.05 0 0 0 .9-.55 1.24 1.24 0 0 1 .8-.65 1.16 1.16 0 0 1-.2.3 1.13 1.13 0 0 0-.2.3c.27 0 .42-.08.45-.25a.73.73 0 0 1 .35-.45c.13.13.2.18.2.15s.13 0 .4 0a.23.23 0 0 0-.15-.25.23.23 0 0 1-.15-.25c.2 0 .33-.15.4-.45s.23-.35.5-.15c-.07.13-.13.2-.2.2s-.1.07-.1.2a.57.57 0 0 1 .4 0 .24.24 0 0 0 .3-.15c-.13-.13-.17-.25-.1-.35s.2-.08.4 0v-.5q-.2-.2-.3.1c-.07.2-.17.17-.3-.1a1.17 1.17 0 0 0 .55-.5c.1-.2.32-.27.65-.2a.46.46 0 0 1 .3-.5 2.43 2.43 0 0 0 .6-.3c.07-.2 0-.32-.1-.35a.44.44 0 0 1-.3-.25 2.38 2.38 0 0 0 .3-.35.76.76 0 0 1 .4-.25c.07 0 .1.1.1.3a1.06 1.06 0 0 0 .65-.6 1.06 1.06 0 0 1 .65-.6.46.46 0 0 1 .15-.65c.23-.17.15-.35-.25-.55a.62.62 0 0 0 .65-.45 1.35 1.35 0 0 0 0-1 .8.8 0 0 0 .55-.7 3.59 3.59 0 0 1 .25-1 2 2 0 0 0-1.25 1 11.68 11.68 0 0 0-.65 1.3 1 1 0 0 0 .25-.35.46.46 0 0 1 .35-.25zm-4 6c.13.27.13.33 0 .2s-.18-.2 0-.2zm0 0c0-.07.07-.1.2-.1s-.12.1-.2.1zm.2-.1c0-.27.07-.33.2-.2s.02.2-.25.2zm.2-1.5c.13.07.27 0 .4-.2a.58.58 0 0 0-.45.2zm1 16.7c.07-.2 0-.3-.35-.3s-.45.07-.45.2a2.08 2.08 0 0 0 .75.1zm-.8.6h.3v-.2h-.3zm.3-2.7c-.07.33-.08.35 0 .05s-.05-.32-.05-.05zm0 .6c.07.2.1.18.1 0s-.08-.27-.15 0zm.1-16c.27.07.33 0 .2-.1s-.2-.1-.2.1zm0 18c.27 0 .4-.07.4-.2h-.3c0 .07 0 .1-.05.1s-.05.03-.05.1zm.4-4.6a.09.09 0 0 1 .1-.1c0-.2-.1-.27-.3-.2a.16.16 0 0 1 0 .2c-.03.1.02.1.15.1zm-.2 2.8h.3v-.2h-.3zm.2-3.5a.75.75 0 0 1 .2-.45c.13-.17.07-.25-.2-.25a.37.37 0 0 1-.1.45c-.18.1-.15.18.05.25zm0 2.8h.2v-.5h-.2zm.2-1.1q-.3.3 0 .3t-.05-.3zm0-.2q.3.1.4-.3c.07-.27 0-.37-.3-.3-.07.13-.07.23 0 .3s-.02.17-.15.3zm.2-2.8c0-.07.07-.1.2-.1-.13-.2-.23-.3-.3-.3-.05.27-.02.4.05.4zm0-.7c-.07.33-.07.35 0 0s.02-.3-.05 0zm0 2.6c.27.07.35 0 .25 0s-.23-.13-.3 0zm0 4.2v.3q.2.2.3-.1t-.1-.3c0 .07-.12.1-.25.1zm.6-5.55q.2-.55-.2-.65a2.45 2.45 0 0 1-.15.75c-.1.3-.08.52.05.65q.05-.2.25-.75zm-.3-2.25h.2v-.2h-.2zm.2 1.2h.4c0-.2-.13-.27-.4-.2zm.5-10.4c-.13 0-.2 0-.2-.1s-.07-.07-.2 0 0 .22.15.25.2-.02.2-.15zm-.4 15.2c-.07.33 0 .43.2.3s.08-.23-.25-.3zm.3-5.5a.58.58 0 0 1 .2-.4c.13-.13.07-.2-.2-.2a.48.48 0 0 1-.15.35c-.15.1-.1.18.1.25zm-.1-12.2c.07.2.12.18.15 0s-.07-.27-.2 0zm.3 14.4a1.89 1.89 0 0 0 .15-.55q0-.35-.15-.45a1 1 0 0 0-.15.5q-.1.4.1.5zm.1-6.3c.13.2.2.2.2 0s-.12-.2-.2 0zm.2-7.3c.13.07.17.12.1.15s-.1.12-.1.25q-.35-.1-.05-.4zm0-1.3a.09.09 0 0 1-.1.1c-.1 0-.1-.03.05-.1zm.4 14.6c0-.07-.05-.1-.15-.1s-.15 0-.15.1 0 .2.15.2.17-.07.1-.2zm-.2-6.7c.07.27.1.27.1 0s-.08-.27-.15 0zm.2-.2c.07-.13.15-.32.25-.55s0-.32-.25-.25q.2.3 0 .45t-.05.35zm-.1 7.8c.13.2.2.18.2 0s-.12-.27-.25 0zm.4-4.7c-.13.2-.12.22 0 0s.15-.13-.05 0zm0-4.7a.48.48 0 0 0 .35-.4 1.53 1.53 0 0 1 .25-.6c-.33-.07-.48 0-.45.35a.77.77 0 0 1-.2.65zm.1 6.1c-.13.2-.12.22 0 0s.15-.13 0 0zm0-13.3a.09.09 0 0 1 .1-.1.09.09 0 0 1-.1.1zm.1-.1a.89.89 0 0 0 .25-.45c0-.17.12-.25.25-.25a.71.71 0 0 1-.55.7zm.3 12.1c0-.13-.1-.27-.3-.4q-.05.5.25.4zm.2 4.55c.07-.3 0-.48-.1-.55.07.27 0 .42-.15.45s-.25.15-.25.35q.35.2.45-.25zm-.4-6c-.13.2-.12.22 0 0s.15-.08-.05.05zm.2-5v.3c.13.13.22.1.25-.1s0-.3-.15-.3-.08.22-.15.15zm.3 8.6c.07 0 .1-.07.1-.2a.09.09 0 0 1-.1-.1h-.2c0 .33 0 .5.1.5s-.02-.15.05-.15zm-.1-4a.57.57 0 0 0 .4-.2.58.58 0 0 0-.45.25zm.2 1.7c.2-.13.13-.3-.2-.5a.67.67 0 0 0 .15.55zm-.2.2c.07.27.1.28.1 0s-.08-.15-.15.05zm.1-14.9c0-.13.07-.13.2 0s.02.18-.25.05zm.1 7.7c.27.07.35 0 .25 0s-.23-.08-.3.05zm.3 4.7c0-.13-.1-.27-.3-.4-.05.39.05.52.25.45zm-.1 1.8h.2v-.2a.09.09 0 0 1-.1-.1c0-.07-.07-.1-.2-.1zm.3-3.4c-.2-.13-.28-.1-.25.1s.07.22.2-.05zm-.1 3.6c-.13.2-.12.22 0 0s.15-.08-.05.05zm.2-13.6a1.29 1.29 0 0 1 .25-.35.61.61 0 0 0 .15-.45h-.4q.2.3 0 .45c-.18.15-.18.27-.05.4zm1.1.8c.13.27.2.27.2 0s-.12-.21-.25.05zm.3-1.3c.13.2.2.2.2 0s-.12-.15-.25.05zm.05 12.7c0 .07-.05 0-.05-.1s.03.08 0 .15zm.15-3.5c.13.27.2.28.2 0s-.12-.15-.2.05zm.4-1.8c.07.27.1.28.1 0s-.08-.15-.15.05zm0 1.3c.27.13.33.13.2 0s-.25-.08-.25.05zm.1 1.2c.13.13.2.23.2.3h-.2zm.6-3.7h.3c0-.2 0-.3-.1-.3s0 .18-.15.15-.15.07-.1.2zm.2-7.9a.21.21 0 0 0 0-.15v-.25c.2-.07.32 0 .35 0s0 .22-.15.35zm8.7 9.35v.1c0-.07-.07 0-.2.3 0 .07 0 .07.1 0a.41.41 0 0 0 .1-.3v-.1q-1.1 1.6-2.15 3.5A24.69 24.69 0 0 0 164 71c.07 0 .17-.07.3-.2v.4a40.31 40.31 0 0 0 7.9-7.1q3.4-4 6.9-7.8a1.39 1.39 0 0 1 1.45.35 3.65 3.65 0 0 1 .65 1.15l.2-.2c.07.07.1 0 .1-.15s-.07-.22-.2-.15a2 2 0 0 1 1.55 1.2 4.56 4.56 0 0 1 .25 2.05q-.1 1.15-.35 2.5a14.51 14.51 0 0 0-.25 2.65c-.2 0-.23-.13-.1-.4a1.3 1.3 0 0 0-.25.8 1.41 1.41 0 0 0 .15.9v.1q-.3 1.9-.7 3.7a5.7 5.7 0 0 0 .1 3.2h-.3a1.47 1.47 0 0 1-.1.55c-.07.17 0 .32.2.45 0 .13 0 .18-.15.15s-.15 0-.15.15c.33.13.48.46.45 1a1.6 1.6 0 0 0 .45 1.3.64.64 0 0 1-.55 0q-.25-.15-.15.35a1.29 1.29 0 0 0-1 0 1.8 1.8 0 0 1-.55-.6 1.23 1.23 0 0 0-.75-.5 8 8 0 0 1-1-3.05 18.47 18.47 0 0 1-.1-3.35q.1-1.7.3-3.55t.3-3.65a30 30 0 0 0-3.2 3.3q-1.5 1.8-3.1 3.45a25.14 25.14 0 0 1-3.5 3 10.27 10.27 0 0 1-4.4 1.75q-.5-.2-1.1-.4a3.52 3.52 0 0 1-1.1-.6q.1-.4-.4-.6a4.14 4.14 0 0 0-1-2.6 22.5 22.5 0 0 1 3.9-10.2 41.83 41.83 0 0 1 6.9-7.8 9.22 9.22 0 0 0 1.1 0 2.37 2.37 0 0 0 .9-.35 13.45 13.45 0 0 0 1.25.65 10.5 10.5 0 0 1 1.35.75 2.59 2.59 0 0 1 .9 1 1.94 1.94 0 0 1 0 1.5c-.13-.13-.2-.15-.2 0s-.07.15-.2.15a.36.36 0 0 1-.45-.1.53.53 0 0 0-.45-.2 6.62 6.62 0 0 0-2.75 1.95 8.28 8.28 0 0 1-2.25 2l-.3.3c-.07.07 0 .2.1.4a2.24 2.24 0 0 0-1.35 1.1 8.58 8.58 0 0 1-1.25 1.4zm-5.6 4.3h.2v-.3h-.2zm1.9 3.4a.09.09 0 0 1 .1-.1c.12 0 .08.03-.05.1zm.7-2.2c.13.2.08.48-.15.85a2 2 0 0 0-.35 1 1 1 0 0 1 .1-.95 2.62 2.62 0 0 0 .4-.9zm.4-1c.33.13.4.27.2.4a.59.59 0 0 0-.3.5.3.3 0 0 1 0-.45.4.4 0 0 0 .15-.45zm.3-.5c.13-.13.12-.08 0 .15s-.15.18.05-.15zm.6-.6c-.07.13-.13.2-.2.2s-.1.07-.1.2c-.13-.07-.15-.17 0-.3a.26.26 0 0 1 .35-.1zm.3-1.1c.13.07.17.2.1.4s-.17.3-.3.3c-.07-.2 0-.33.1-.4a.2.2 0 0 0 .15-.3zm3.1 4.5c.07.27.1.3.1.1s.02-.23-.05-.1zm.2-.3q.3.1.15-.1t-.05.1zm.3-2.5a1.26 1.26 0 0 1 .45.1c.17.07.22 0 .15-.2a1 1 0 0 0-.4.05.44.44 0 0 1-.15.05zm.6 2.5q.1-.6-.6-.6c0 .13.08.22.25.25a.47.47 0 0 1 .4.35zm0-2.7a.09.09 0 0 1 .1.1 1.85 1.85 0 0 1 .35-.6.4.4 0 0 0 0-.6 1 1 0 0 0-.2.7c0 .33-.07.37-.2.1-.07.2-.07.3 0 .3zm.1 1.9v-.2h-.1v.2zm2.1-3.4c0 .4-.1.63-.3.7a1.26 1.26 0 0 0-.5.3h.35a1 1 0 0 1 .45.1 6 6 0 0 0-2.1 2.2.67.67 0 0 0 .45 0c.17 0 .18.05 0 .25a.44.44 0 0 0 .5-.5h-.5c0-.27.12-.38.35-.35s.35 0 .35-.25c.13 0 .2.1.2.3s.07.23.2.1.22-.33 0-.4-.18-.1 0-.1a2.29 2.29 0 0 0 1-.65q.55-.55.15-.75a.2.2 0 0 1 .3-.1 1.11 1.11 0 0 0 .5.1 5.08 5.08 0 0 1 1.1-1.65c.4-.37.83-.75 1.3-1.15h.1s0-.05.1-.05a4 4 0 0 1 .6-.85 6.26 6.26 0 0 0 .7-1 4.13 4.13 0 0 0 .45-1 1.89 1.89 0 0 0-.15-1.25q-.1.2-.7 0c0 .13 0 .2.1.2s.1.07.1.2q-.3 0-.5.45a.92.92 0 0 1-.7.55.62.62 0 0 1-.2.8 1.46 1.46 0 0 1-.9.3 1.15 1.15 0 0 0-.2.65.83.83 0 0 1-.4.65l-.2-.2c0-.13.1-.21.3-.25s.2-.15 0-.35a9.09 9.09 0 0 0-2 1.6q-.85.9-1.65 1.8a.32.32 0 0 1 .3.2c.07.13.17.1.3-.1s0-.2-.1-.2-.17-.07-.1-.2.35-.07.45.2.22.27.35 0c-.13 0-.17-.07-.1-.2a.2.2 0 0 1 .25-.1zm-2 4.2h.3v-.4h-.3zm.5-2.8c.13 0 .15 0 0-.05s-.12-.02-.05.05zm.2-.4c-.13.13-.12.13 0 0s.15-.13-.05 0zm.2.4q.5 0 .5-.3c-.4 0-.55.1-.55.3zm1.2-1.4c0-.33-.12-.4-.35-.2s-.35.23-.35.1a.91.91 0 0 1 .5-.25 3.17 3.17 0 0 1 .5-.05 1.11 1.11 0 0 0 0-.35.45.45 0 0 1 0-.35.55.55 0 0 1 .25.2.74.74 0 0 0 .15.2q-.2.3 0 .5c-.2-.07-.32 0-.35.15s-.2.19-.45.05zm0 1.7c-.07 0-.08 0 0 .1s-.1.03-.1-.1zm.7-1.8c.13.27.12.4 0 .4a.62.62 0 0 0-.45.2 1.32 1.32 0 0 1 .25-.35zm-.5 1.5c.13-.2.2-.22.2-.05s-.12.18-.25.05zm.4 2.2h.1v.2h-.1zm.1-3.7a.54.54 0 0 0 .25-.2c0-.07.12-.1.25-.1a.34.34 0 0 0-.1.25c-.05.1-.2.12-.45.05zm.3-1.4c.2-.13.22-.12 0 0s-.18.2-.1 0zm.4 1.4c.07-.13.1-.12.1 0s-.08.2-.15 0zm1-1.7c0 .33-.1.43-.3.3a.26.26 0 0 1 .25-.3zm-.1 1c0 .27-.07.33-.2.2v-.2zm0 0q0-.3.2-.15c.08.1.02.15-.25.15zm.1-1q0-.3.15-.15t-.2.15zm.4-.4a.18.18 0 0 1 .2-.2.18.18 0 0 1-.25.2zm1.5-1.1a1.32 1.32 0 0 0-.35.25 3 3 0 0 1-.45.35c.02-.4.28-.6.75-.6zm-.5 1.5a.2.2 0 0 1-.15 0s0-.05.15-.05zm.1-2h.2v.3h-.2zm.6 0a.24.24 0 0 0-.2-.25q-.2 0 0-.25c.13-.07.25 0 .35.2s0 .3-.2.3zm0 0c.07.2 0 .25-.1.15s-.15-.15.05-.15zm.6-.3h.4v.3h-.4zm.5-.15c0 .23 0 .18-.1-.15.02-.13.05-.08.05.15zm2.1 16.45c0 .07 0 .08-.1 0s-.08 0 .05 0zm.6-20.1c-.13 0-.18 0-.15-.1s.03-.03.1.1zm0 0a.09.09 0 0 1 .1.1.09.09 0 0 1-.15-.1zm1 10.5a.9.9 0 0 1-.1.25zm0-.9c.13-.13.18-.07.15.2s0 .43 0 .5-.18-.08-.15-.25a2.32 2.32 0 0 0-.05-.45zm0-.1c0-.2.05-.23.15-.1s0 .17-.2.1zm.1-1.1c.07 0 .1.13.1.4-.07-.07-.1 0-.1.1zm47.65-7H230a.41.41 0 0 1 .25 0h.35c.13.4.12.65 0 .75s-.15.29 0 .55q-.8.1-.75.45a.7.7 0 0 1-.35.65c.13.13.2.13.2 0s.07-.17.2-.1v.6a.45.45 0 0 0-.25.25c0 .1-.12.08-.25 0a.75.75 0 0 0 .1.7.82.82 0 0 1 .2.6c-.2.13-.27.28-.2.45a1.4 1.4 0 0 1 0 .75c0-.07.1-.07.3 0a5.3 5.3 0 0 1-.1 1.8 4.76 4.76 0 0 0-.1 1.7.41.41 0 0 0-.3.1.58.58 0 0 1-.4.1c.07.27.27.37.6.3a.4.4 0 0 0-.2.4.27.27 0 0 1-.3.3 1.89 1.89 0 0 1 .35 1.5 2.17 2.17 0 0 0 .15 1.4h-.3a2.37 2.37 0 0 1 .3 1.5c-.13 0-.2 0-.2-.1a.09.09 0 0 0-.1-.1 1 1 0 0 0 0 .4 1 1 0 0 1 0 .5c-.33 0-.43 0-.3.1a.2.2 0 0 1 .1.3c-.2 0-.22.07 0 .2s.18.07 0-.2h.4a.7.7 0 0 0-.1.6 1.21 1.21 0 0 1 0 .7v.1a.73.73 0 0 1 .15-.2.28.28 0 0 1 .05.4.66.66 0 0 0-.15.4.18.18 0 0 1-.2-.2.18.18 0 0 0-.2-.2.93.93 0 0 0 0 .6c.07.2.17.2.3 0 .27.07.37.3.3.7s0 .67.2.8a1 1 0 0 0 0 .9 1 1 0 0 1 0 .9 20.61 20.61 0 0 1 .8 3.4 18.15 18.15 0 0 0 2.5 4.3 8.14 8.14 0 0 0 4.3 2.7 10.87 10.87 0 0 0 3.85-.3 16.68 16.68 0 0 0 3.8-1.45 14.33 14.33 0 0 0 3-2.15 12.51 12.51 0 0 0 2.35-2.75h.6a15.65 15.65 0 0 1 1.7-3.25q1-1.45 2-3.15 1.7-3.5 3.15-7.2a44.45 44.45 0 0 0 2.2-7.9c.27.13.33.27.2.4a.59.59 0 0 0-.1.6c.2.07.32 0 .35-.25s0-.35 0-.35c.2-.07.32 0 .35.2a4.34 4.34 0 0 1 0 .7v.7a.27.27 0 0 0 .3.3 27.64 27.64 0 0 1-.55 3q-.35 1.45-.75 3.15a.4.4 0 0 1-.3-.1c.13.53.12.9 0 1.1a2 2 0 0 0-.35 1q-.4.1-.15.25a.35.35 0 0 1 .15.45.68.68 0 0 0-.3.6.49.49 0 0 0 .35.1.56.56 0 0 1 .45.3c0 .27-.1.33-.3.2s-.37-.13-.5 0 0 .22.1.25.07.12 0 .25-.2 0-.2-.1a.29.29 0 0 0-.1-.2c-.2.13-.23.27-.1.4s.17.23.1.3q.1.4-.1.3a1.16 1.16 0 0 1-.3-.2 9.8 9.8 0 0 0-1.1 3.6c.27.13.48 0 .65-.55a2.73 2.73 0 0 1 .55-1h.1a.37.37 0 0 1 .1.55 1.62 1.62 0 0 1-.5.55c-.07.13-.07.2 0 .2s.1.07.1.2a28.89 28.89 0 0 0-1.85 3 27.92 27.92 0 0 0-1.55 3.35q-1.1 1.1-2.1 2.15t-2.3 2.35a13.37 13.37 0 0 1-1.85.85 5.5 5.5 0 0 0-1.75 1q-.8.1-1.5.15a1.29 1.29 0 0 0-1 .45 12.84 12.84 0 0 1-7.55-.25 18.59 18.59 0 0 1-6.05-3.55c0 .13 0 .2.1.2a4.22 4.22 0 0 1-1.55-1.6 9.53 9.53 0 0 0-1.45-1.9 10.71 10.71 0 0 0-.85-2.15 8.58 8.58 0 0 1-.75-1.85c0-.2 0-.3.1-.3a1.33 1.33 0 0 1-.35-.85c0-.37-.07-.75-.1-1.15a7.53 7.53 0 0 0-.2-1.2 2.75 2.75 0 0 0-.45-1c.33-.13.42-.4.25-.8s-.12-.67.15-.8q0-.1-.5-.1a.8.8 0 0 0-.1-.5c0-.13 0-.18.1-.15s.17 0 .3-.15a17.17 17.17 0 0 1-.55-3.6q-.05-1.6 0-3.6a.18.18 0 0 1 .2.2c.13-.07.18-.15.15-.25a.45.45 0 0 1 0-.35.18.18 0 0 0-.2.2 13.43 13.43 0 0 1 0-3.85q.25-2 .35-3.55a139.32 139.32 0 0 1 4.6-17.8 65 65 0 0 1 7.65-15.9 5.79 5.79 0 0 1 1.3-2.3 6.94 6.94 0 0 0 1.4-2.2q1.8-2 3.35-3.85a11.7 11.7 0 0 1 4.15-3 .57.57 0 0 0 .65 0 2.62 2.62 0 0 0 .55-.4q.5 0 .55-.1c0-.07.15 0 .35.1a.89.89 0 0 1 .4-.25.24.24 0 0 0 .2-.25 15.17 15.17 0 0 0 2.75-.45 6.52 6.52 0 0 1 2.65-.15 4.14 4.14 0 0 1 1.6.5 5.78 5.78 0 0 0 1.5.6 1.75 1.75 0 0 1 .65.55.86.86 0 0 0 .75.35 20 20 0 0 1 1.55 2 10.51 10.51 0 0 1 1.25 2.6 11.41 11.41 0 0 0 .2 2.15 3.61 3.61 0 0 1-.2 2 12.25 12.25 0 0 0-1 .9 2.72 2.72 0 0 1-1.3.7 1.47 1.47 0 0 1-1.45-1.25 9.4 9.4 0 0 1-.25-2 20 20 0 0 0-.85-2.25 11.35 11.35 0 0 0-1.35-2.3 6.2 6.2 0 0 0-1.85-1.65 3.29 3.29 0 0 0-2.55-.2 13.55 13.55 0 0 1-2.15 2.25 8 8 0 0 0-1.95 2.35 4 4 0 0 0-2.05 1.65 8.19 8.19 0 0 1-1.95 2.05 12.65 12.65 0 0 1-1.35 2.3 22.66 22.66 0 0 0-1.45 2.2c-.13 0-.2 0-.2-.1a.09.09 0 0 0-.1-.1q-.2-.1-.1.15c.07.17.13.25.2.25a45.6 45.6 0 0 0-2.8 5.55 60.93 60.93 0 0 1-2.8 5.75 1.62 1.62 0 0 1-.5 1.5 1.44 1.44 0 0 0-.4 1.5 8.73 8.73 0 0 0-1 2.75 8.4 8.4 0 0 1-1 2.85 3.17 3.17 0 0 1-.15 1.15c-.1.23-.22.52-.35.85a.53.53 0 0 0 .2.25c.07 0 .07.15 0 .35a1.12 1.12 0 0 0-.6 1.3 1 1 0 0 1-.6 1.2 1 1 0 0 1 .1.7.49.49 0 0 0 .1.5 2.4 2.4 0 0 0-.5 1 7.93 7.93 0 0 0-.15 1 4.45 4.45 0 0 1-.2 1 1.88 1.88 0 0 1-.65.75zm-5 6.3c.07.2.1.2.1 0s-.04-.2-.1 0zm0 1c.07.2.1.18.1 0s-.04-.27-.1 0zm0 9.1h.2V75h-.2zm2.5-17c.07.13.12.17.15.1s0-.1-.15-.1a4.87 4.87 0 0 0 .2-1.8.21.21 0 0 1 .15.05h.25a4.07 4.07 0 0 1 0-.75 1.07 1.07 0 0 0-.15-.65.49.49 0 0 0 .3-.6 3.67 3.67 0 0 1-.1-.9c.33.07.43 0 .3-.2s-.13-.3 0-.3a.58.58 0 0 0 .4.1c.13-.13.1-.2-.1-.2s-.27-.07-.2-.2a.48.48 0 0 0 .45-.3.4.4 0 0 0-.05-.5 1.92 1.92 0 0 0-.15.4c0 .13-.15.2-.35.2-.07-.33 0-.53.2-.6s.3-.17.3-.3q-.5-.1-.15-.2c.23-.07.35-.13.35-.2-.33-.07-.43-.18-.3-.35a.55.55 0 0 0 .1-.55.21.21 0 0 1 .15.05h.25a1 1 0 0 1 .2-1c.27-.3.27-.72 0-1.25.27 0 .4 0 .4-.1s.15-.35.05-.65a.62.62 0 0 1 .25-.75c.33-.13.45-.3.35-.5a1.81 1.81 0 0 1-.15-.8q.1.1.4 0a1.71 1.71 0 0 1 .35-1.35.7.7 0 0 0 0-1 .36.36 0 0 0 .45-.1 1.14 1.14 0 0 0 .2-.5 3.87 3.87 0 0 1 .15-.6.64.64 0 0 1 .3-.4c-.27.07-.4 0-.4-.3s.23-.13.3 0 .17.13.3 0c-.07-.13 0-.22.05-.25s.12-.12 0-.25-.2-.1-.2-.3-.13-.27-.4-.2q-.4 1.2-.75 2.1c-.23.6-.45 1.18-.65 1.75s-.4 1.15-.6 1.75a13.65 13.65 0 0 0-.5 2.2q-.5 0-.6.3a7.9 7.9 0 0 1-.4 3.25q-.6 2.15-1.2 3.95c-.07.2 0 .3.1.3s.17.13.1.4a5.35 5.35 0 0 0-.8 1.8 11.08 11.08 0 0 0-.25 1.8q-.05.9-.15 1.85a8.72 8.72 0 0 1-.4 1.85c.13 0 .2 0 .2.1a13.18 13.18 0 0 0-.35 4.15 19 19 0 0 1-.15 4.15 21.81 21.81 0 0 1 .25 2.85q0 1.65.15 3.45c.27.07.33.22.2.45s-.07.38.2.45a26.19 26.19 0 0 1-.25-5.4 36.75 36.75 0 0 0 0-5.1 8.52 8.52 0 0 0 .3-1.85 5.07 5.07 0 0 0-.1-1.85 2.31 2.31 0 0 0 .5-.3 8.41 8.41 0 0 1 .15-2.6 9.8 9.8 0 0 0 .25-2.5c.27 0 .4-.2.4-.6a.48.48 0 0 0-.15-.35c-.1-.1-.09-.18.05-.25zm-1.7 2q.1.3.15 0t-.15 0zm.3-.8a.49.49 0 0 0 .1-.35.36.36 0 0 0-.2-.35.36.36 0 0 1 0 .4q-.2.2.1.3zm0-1.6c.07.2.1.18.1 0s-.04-.27-.1 0zm.2-1.1c0-.13 0-.2.15-.2s.12-.07 0-.2a.22.22 0 1 0-.2.4zm-.1 22.9h.3c0-.27 0-.4-.1-.4s0 .2-.1.2-.1.07-.1.2zm.1-23.5c.2 0 .32-.12.35-.35s0-.35-.25-.35c.07.2.07.33 0 .4a.41.41 0 0 0-.1.3zm.4-.8c-.07-.13 0-.27.15-.4s.12-.23-.15-.3a1.09 1.09 0 0 1-.2.4q-.1.1.2.3zm0 25.35a.94.94 0 0 0-.25-.55 1.07 1.07 0 0 1 .15.65c0 .17.08.38.35.65a2.46 2.46 0 0 1-.2-.75zm.35-5.7c.13-.17 0-.22-.3-.15a.6.6 0 0 1 .15.8c-.17.27-.08.53.25.8-.2 0-.32 0-.35.1l-.15.3c.33-.07.47 0 .4.1a.87.87 0 0 0-.1.4l.35.1a1 1 0 0 0 .25-.1 2.26 2.26 0 0 0 0 .45c0 .17 0 .25-.15.25s-.2-.15-.2-.25-.1-.08-.3 0a.42.42 0 0 1 .15.4c0 .13 0 .2.25.2s.13-.17.2-.1.13 0 .2-.1a2.58 2.58 0 0 1 .1-.8.92.92 0 0 0-.1-.7c0 .07-.05.1-.15.1s-.15 0-.15-.1a1.47 1.47 0 0 0-.1-1.2h.4c.07-.27 0-.43-.05-.5a2.49 2.49 0 0 1-.35-.3c-.07.13-.07.23 0 .3s0 .13-.1.2-.24-.03-.1-.2zm.2-3.05h-.5c.2.13.28.23.25.3s-.12.27-.25.6a1.6 1.6 0 0 0 .4 0c.13 0 .2 0 .2.15s0 .42-.25.45-.35.15-.35.35q.3.6.7.6a3.05 3.05 0 0 0-.1-2.3 3.05 3.05 0 0 0 .3-1.2 1.85 1.85 0 0 0-.2-1.3 1.16 1.16 0 0 0 .2-.8 1.64 1.64 0 0 0-.2-.9 1 1 0 0 0 .35-.85 3.71 3.71 0 0 0-.25-1h.4a.71.71 0 0 1-.1-.6c.07-.13 0-.27-.2-.4l.15-.3c0-.07.12 0 .25.1a1.9 1.9 0 0 1-.15-.85 1.58 1.58 0 0 1 .25-.55 1 1 0 0 1-.25-.35.23.23 0 0 0-.25-.15 41.21 41.21 0 0 1-.45 4.45 13.85 13.85 0 0 0 .1 4.55zm-.1 2.6c-.27 0-.4 0-.4.1.31 0 .45-.03.45-.1zm-.2 4.7a.88.88 0 0 1 .5-.25c.2 0 .3-.18.3-.45a.82.82 0 0 1-.6.2c-.22 0-.3.2-.15.5zm1-29.8h-.2a8.93 8.93 0 0 1-.45 1.8 3.72 3.72 0 0 0-.15 2 14.26 14.26 0 0 0 .45-2 2.77 2.77 0 0 1 .75-1.6c.07 0 .1-.07.1-.2q.3-.1.1-.3c-.13-.13-.17 0-.1.3-.07 0-.1.07-.1.2-.07-.2-.13-.23-.2-.1s-.13.1-.2-.1a.65.65 0 0 1 .3-.3q.2-.1 0-.5a.27.27 0 0 0-.3.3zm-.6 27.7c0-.07.07-.1.2-.1s-.02.1-.15.1zm.2 3.8a.81.81 0 0 1 .1-.45c.07-.1 0-.22-.1-.35h.4a1.44 1.44 0 0 0-.5-1 2.09 2.09 0 0 1 0 1c-.1.4-.05.67.15.8zm0 1h.2v-.2h-.2zm.5-.4v-.7a.58.58 0 0 1-.4-.1 1.85 1.85 0 0 1 .15.45.46.46 0 0 0 .3.35zm-.4.8q.2 0 .1.3a.23.23 0 0 0 .25-.15.23.23 0 0 1 .25-.15c-.13 0-.18 0-.15-.1a.16.16 0 0 0 0-.2c0 .13 0 .18-.15.15s-.19.02-.25.15zm.1-20c.4 0 .6-.07.6-.2a.2.2 0 0 1-.1-.3c.07-.13 0-.2-.2-.2a5.59 5.59 0 0 1-.25.7zm.2 16c.07.33.1.37.1.1s.01-.3-.05-.1zm.2-8.6h.2a.09.09 0 0 0 .1-.1c-.13 0-.18-.07-.15-.2s0-.2 0-.2 0 .22-.1.25-.07.12 0 .25zm0-21.2a.6.6 0 0 0 .4-.4 1.92 1.92 0 0 0 .1-.6 1.45 1.45 0 0 1 .1-.55 1 1 0 0 1 .5-.45 1.17 1.17 0 0 1 0-1 4.44 4.44 0 0 0 .3-1.15.21.21 0 0 1 .15.05.39.39 0 0 0 .25 0c.13-.27.13-.4 0-.4a.32.32 0 0 1-.3-.2.5.5 0 0 0 .25-.4 3.86 3.86 0 0 1 .15-.6 1.06 1.06 0 0 1 .2-.4c.07-.07.2 0 .4.1a.33.33 0 0 0 .1-.4.67.67 0 0 0-.3-.3 6.51 6.51 0 0 1 .4-1.1 4.17 4.17 0 0 0 .3-1.3.59.59 0 0 1 .4.1q-.1-.4 0-.5t0-.5h.4a.83.83 0 0 1 .15-.7q.25-.4-.25-.5-1.1 3.1-2 5.6a42.68 42.68 0 0 0-1.65 5.6zm0 12.8c.2.07.27 0 .2-.25s0-.38.1-.45h-.3a1.63 1.63 0 0 1 .05.7zm.1 7.4a.09.09 0 0 1 .1-.1.18.18 0 0 0-.2-.2c.05.2.08.3.15.3zm-.1 14.6c.07.33.1.37.1.1s.01-.3-.05-.1zm.3-10.5a2.75 2.75 0 0 1 0-1 1.35 1.35 0 0 0-.2-1 1.56 1.56 0 0 1 0 1.1 1 1 0 0 0 .25.9zm-.1-5.7a2.46 2.46 0 0 1 .15-1 1.37 1.37 0 0 0-.05-.95h.45q.25 0 0-.2h-.6a9.8 9.8 0 0 0-.15 1 2.21 2.21 0 0 0 .25 1.15zm-.1.3q-.1.6 0 .15t.05-.15zm.4-8.5v-.4q-.3-.1-.3.4h.3c.13.33.12.52 0 .55s-.18.12 0 .25.28.13.25 0 .08-.2.35-.2q-.2 1.3-.45 2.65a24.8 24.8 0 0 0-.35 2.65h-.1.1c.33-.07.48-.25.45-.55s.12-.48.45-.55a.57.57 0 0 1-.4-.2l.2-2a13 13 0 0 1 .4-2c-.2 0-.3 0-.3-.15a.8.8 0 0 1 .1-.35 2 2 0 0 0 .15-.4c0-.13 0-.2-.15-.2s-.08.23-.05.3a.16.16 0 0 1 0 .2zm-.4 1.3c.27 0 .4 0 .4-.1s-.15-.18-.25-.15a.23.23 0 0 0-.1.25zm0 7.9c.07.2.1.17.1-.1s.01-.23-.05.1zm.6 3.7c-.13.13-.12.13 0 0s.25-.13 0 0zm.5 6.1c0-.4-.13-.6-.4-.6.05.4.18.6.45.6zm-.2-26.9c.27.13.4.07.4-.2h-.4c-.09 0-.09.1.05.2zm0 27.1c.07.2.1.18.1 0s.01-.27-.05 0zm.2-11.1c0-.13 0-.17.1-.1 0-.2-.07-.3-.2-.3.05.3.08.4.15.4zm.3-11.8h-.1a.09.09 0 0 1-.1.1v.2c.13.07.2 0 .2-.3.13 0 .17-.12.1-.35s0-.35.1-.35a.23.23 0 0 0 .15.25c.1 0 .12.12 0 .25s-.18.25-.15.35 0 .25-.15.45c.27.07.38 0 .35-.25a4 4 0 0 1 0-.55h.2a4.06 4.06 0 0 1 .4-2.1.83.83 0 0 0-.55.75.83.83 0 0 1-.55.75c-.07.2 0 .33 0 .4s.21.2.15.4zm-.2 1.2a.61.61 0 0 0 .1.35.53.53 0 0 1 0 .45.52.52 0 0 0 .35-.55.94.94 0 0 1 0-.55c-.2-.13-.28-.1-.25.1s.05.27-.15.2zm.1 1.1c.07.2.1.17.1-.1s.01-.23-.05.1zm.1 4.8c.13-.07.2 0 .2.3a.09.09 0 0 0-.1.1c-.02 0-.05-.13-.05-.4zm0 1.3c.13-.13.2-.07.2.2s-.07.3-.2.1zm.3 22.7q-.1.3.15.15c.17-.1.12-.15-.15-.15a1.08 1.08 0 0 0-.3-.8v.55c.05.17.15.25.35.25zm0-33.2c.13.2.2.2.2 0s-.02-.2-.15 0zm.3 6.9c-.2 0-.3 0-.3.1.25 0 .35-.03.35-.1zm0-13.3c-.2 0-.29-.07-.25-.2a.44.44 0 0 1 .25-.3zm.1 14.15a.48.48 0 0 0-.1.65c-.13-.07-.2-.23-.2-.5a.81.81 0 0 1 .2-.6c.31.13.35.29.15.5zm.1-13.55a.18.18 0 0 0 .2-.2.18.18 0 0 0-.15.2zm.3.2a.09.09 0 0 0-.1-.1.09.09 0 0 0-.1.1.09.09 0 0 1 .1.1c.05.07.08.03.15-.1zm-.1 5.3a.78.78 0 0 0 .15-.4c0-.2 0-.27-.25-.2.05.4.08.6.15.6zm.1-8.3c.13.13.17.22.1.25a.16.16 0 0 0-.1.15c-.13-.07-.17-.12-.1-.15s.15-.12.15-.25zm-.1 6.9a.41.41 0 0 1 .3.1 1.32 1.32 0 0 0 0-1.4l.5-.75a1 1 0 0 0 .1-1c-.2.54-.38 1-.55 1.4a5.66 5.66 0 0 0-.3 1.65zm.1-9.5c.2 0 .3-.17.3-.5-.2 0-.25.17-.25.5zm.3 3.8q.3-.5 0-.6a1.15 1.15 0 0 1-.1.35c-.02.17.01.25.15.25zm.1 6.5a.1.1 0 1 0-.2 0 .16.16 0 0 1 .15.1q.1.1.1-.1zm-.1-8.8c.13-.2.2-.18.2.05s-.02.22-.15-.05zm.4-2.8h-.3c-.07.2 0 .27.3.2s.31-.13.05-.2zm-.2 4.2q.5 0 .25-.25c-.12-.17-.2-.08-.2.25zm.4 2.7c.13.2.22.18.25 0s-.05-.27-.2 0zm0 .4c.13.2.2.18.2 0s0-.27-.15 0zm.2-3.7c.07 0 0 0 0-.05s-.09-.02 0 .05zm0-1.1c.07.2.1.18.1 0s.01-.27-.1 0zm.1 4.2h.4a.6.6 0 0 0-.1-.6c.13 0 .21 0 .25-.1s0-.1-.15-.1a.65.65 0 0 0-.35.8zm.4-4.8a.09.09 0 0 1-.1-.1c0-.07-.07-.1-.2-.1a.2.2 0 0 0 .1.3c.18.07.25.03.25-.1zm3.2-10.6a.09.09 0 0 0-.1-.1c-.07 0-.1-.07-.1-.2a.23.23 0 0 0 .25-.15.61.61 0 0 1 .15-.25c-.27-.07-.4.07-.4.4a.4.4 0 0 0-.25 0 .38.38 0 0 1-.25.05c-.07-.13-.07-.23 0-.3s0-.1-.3-.1a7.45 7.45 0 0 1-1.2 2.9 5.75 5.75 0 0 0-1 3q.2-.7.4-.8a3.23 3.23 0 0 1 0 1.85 7.33 7.33 0 0 1-.75 1.55.77.77 0 0 1 .3.25.45.45 0 0 0 .4.15V40h.2q0-.4-.15-.5c-.1-.07-.12-.2 0-.4l.25-.5c.1-.2.21-.17.35.1a2.3 2.3 0 0 0 .4-1.3 1.38 1.38 0 0 1 .3-1c-.07.13 0 .2.2.2-.07-.13-.05-.22 0-.25s.08-.08 0-.15a.09.09 0 0 1-.1.1.09.09 0 0 1-.1-.1.41.41 0 0 1 .1-.3 1.18 1.18 0 0 0 .2-.3c.07.13.13.17.2.1a1.11 1.11 0 0 0 .2-.4c.07-.2.13-.38.2-.55a1.08 1.08 0 0 1 .2-.35h-.3c.07-.13.23-.2.5-.2.13-.27.1-.35-.1-.25s-.27.08-.2 0a1 1 0 0 0 .1-.45c0-.17.13-.25.4-.25a.45.45 0 0 0-.25.25c0 .1.08.15.35.15a.33.33 0 0 0 0-.5q-.25-.2.15-.3c.07.13.12.17.15.1s0-.1-.15-.1a7.65 7.65 0 0 0 .6-1.65 1.57 1.57 0 0 1 1.2-1.15 1.76 1.76 0 0 1 .35-1.65 4.45 4.45 0 0 0 .85-1.15q-.1.4.15.25c.17-.1.12-.18-.15-.25q-.1-.3.4-.3a.25.25 0 0 1 0-.4q.2-.2 0-.3a15.1 15.1 0 0 0-1.9 2.85q-.8 1.4-1.7 2.9zm-3.5 9c0-.07 0-.07.1 0s.08.07-.05 0zm.3 4.9c.13.2.2.18.2 0s-.02-.27-.15 0zm.4-5.9a.32.32 0 0 1-.3-.2c-.07-.13 0-.2.1-.2s.25.13.25.4zm.3 1c-.07-.13-.07-.23 0-.3a.58.58 0 0 0 .1-.4c-.2-.07-.3 0-.3.3s.11.4.25.4zm0-1.8a.29.29 0 0 0 .1-.2c0-.2 0-.3-.1-.3a.28.28 0 0 1 0 .35c-.1.1-.09.15.05.15zm.4-3.5q.5.2.15.75l-.55.85a1.4 1.4 0 0 1 0-.9 3.31 3.31 0 0 0 .45-.7zm2.1-3.7a3.39 3.39 0 0 1-.55 1.15 3.46 3.46 0 0 0-.55 1c0-.07-.07-.1-.2-.1s.07.1.2.1a3.28 3.28 0 0 0-.2 1c.13-.13.21-.08.25.15s0 .32-.15.25c-.13-.27-.32-.33-.55-.2a1.48 1.48 0 0 1-.75.2c.07 0 .08-.08 0-.25s0-.25.15-.25a.78.78 0 0 0 .7-.3c-.27-.13-.35-.3-.25-.5l.25-.5a.09.09 0 0 1 .1.1.09.09 0 0 0 .1.1q.2-.2.1-.3a.4.4 0 0 1-.1-.3 1.36 1.36 0 0 0 .65-.35.4.4 0 0 0 0-.55c.07.13 0 .23 0 .3s-.15 0-.15-.1.07-.4.2-.4a1 1 0 0 0 .8-.25zm-2.4 6c.07-.13.08-.18 0-.15a.2.2 0 0 0 0 .15.2.2 0 0 1 0 .15s-.02-.02.05-.15zm0 1.6c.13.2.2.18.2 0s-.02-.27-.15 0zm.1 3.8a.9.9 0 0 1 .4-.1q.2 0 0-.2-.35 0-.35.3zm.7-4.5c-.27 0-.4 0-.4.1.3 0 .45 0 .45-.1zm-.4 3.4c.13.2.2.18.2-.05s-.02-.25-.15.05zm.6-5.5c-.07.07-.12.08-.15 0s-.05 0-.05.15a.09.09 0 0 1 .1-.1.09.09 0 0 0 .15-.05zm-.2 5.2h.2v-.2h-.2zm.2-3.7c0-.13 0-.17.1-.1 0-.2-.07-.3-.2-.3.05.27.08.4.15.4zm.1-5.5c.13 0 .18.08.15.25s-.12.18-.25 0v-.2a.09.09 0 0 0 .15-.05zm.5 3.6c-.13.2-.12.28 0 .25s.25-.11.05-.25zm0-2c0 .13 0 .18-.05.15s.03-.08.1-.15zm0 0l.1-.1c0 .13 0 .17-.05.1zm2-6.9a2.67 2.67 0 0 1-.45 1c-.23.33-.47.65-.7 1a2.88 2.88 0 0 0-.5 1 1.2 1.2 0 0 0 .15 1 3.05 3.05 0 0 0 .15-.35c0-.1.18-.15.45-.15a1.4 1.4 0 0 1 .35-1.1 4.39 4.39 0 0 0 .65-.7c-.33 0-.5 0-.5-.1.27-.07.4-.43.4-1.1a1 1 0 0 0 .6.25c.27 0 .37-.12.3-.45q-.2-.2-.35 0c-.1.13-.18.13-.25 0l.4-.4a3.42 3.42 0 0 0 .4-.5c0 .33.07.47.2.4a.94.94 0 0 1 0-.85c.13-.23.1-.38-.1-.45a1.53 1.53 0 0 0-.55.85 1.06 1.06 0 0 1-.6.65zm-1.4 12.4c.13.07.15 0 0 0s-.02-.13.05 0zm.2-9.3c.13-.33.2-.37.2-.1s-.02.3-.15.1zm.5-1.3c.13.07.13.17 0 .3zm6.3-8.8q-.1-.1-.3.1h-.1a.82.82 0 0 0-.3.5 13.78 13.78 0 0 0-3.5 4.7.48.48 0 0 1 .35.15.41.41 0 0 0 .45 0 6 6 0 0 0 .2-1.45q0-.65.7-.45a2.31 2.31 0 0 1 .75-1.5 4.51 4.51 0 0 0 1-1.5c.27-.13.4-.3.4-.5h.2a.09.09 0 0 0 .1-.1q.2-.1 0-.3c-.04-.08-.04.02.1.35zm-4.2 7.6v.2q.2.2.25-.05c0-.17 0-.25-.15-.25a.09.09 0 0 1-.05.1zm0 .5c.13.2.2.18.2 0s-.02-.27-.15 0zm1.9-3.5c.07-.27.17-.3.3-.1a2 2 0 0 1 .85-1.45 1.39 1.39 0 0 0 .65-1.35 12.59 12.59 0 0 1-1.2 1.6 6.71 6.71 0 0 0-1.1 1.7.47.47 0 0 0 .55-.4zm.8-2.1h-.4v.2a.09.09 0 0 0 .1.1h.1c.13-.13.2-.23.2-.3.27 0 .33-.07.2-.2s-.2-.07-.2.2zm1.2-.8q.6-.1.6-1c-.33.13-.47.28-.4.45s.05.35-.15.55zm.7-2.4c-.13 0-.2 0-.2.1s.25-.03.25-.1zm.1 1.4c0-.07.07-.1.2-.1 0-.27 0-.4-.1-.4s0 .23-.15.3-.1.13.05.2zm8.5 66.9c.13.2.2.18.2 0s-.02-.27-.15 0zm2.2-2.8a2.69 2.69 0 0 0 .4-.55c.13-.23.3-.28.5-.15-.07-.33 0-.55.3-.65a1.09 1.09 0 0 0 .6-.55q-.7-.2-1.2.65a5.43 5.43 0 0 0-.55 1.25zm1.9-3.4v.1c-.13.13-.18.2-.15.2a.39.39 0 0 0 .15 0 .34.34 0 0 0 .15-.15c.08-.12.03-.15-.1-.15zm1.8-3.5c.07-.2.1-.17.1.1s.01.23-.05-.1zm.9-.1c-.13.2-.12.21 0 0s.25-.13.05 0zm.1-.4c0-.27.07-.43.2-.5s.17-.2.1-.4c.13.07.17.25.1.55s-.15.45-.35.35zm.1-3c.13.27.2.3.2.1s-.02-.23-.15-.1zm.65-1.65q-.25.15-.05-.25c.25.07.26.15.1.25zm.25 2.45c.2.07.25.2.15.4a1.93 1.93 0 0 1-.35.5c-.2-.13-.22-.28 0-.45a.7.7 0 0 0 .25-.45zm-.3-2a.6.6 0 0 0 .6-.15q.3-.25.3.25-.5-.2-.5.5-.55 0-.35-.6zm.8 1.2c.07.2.07.33 0 .4a1.07 1.07 0 0 0-.2.3c-.27-.07-.33-.17-.2-.3zm-.4-1.9h.2v.2h-.2zm.4 1.9a.36.36 0 0 1 0-.4.43.43 0 0 1 .35-.2.36.36 0 0 0-.2.35c.1.17.03.25-.1.25zm.6-4.6c.2.13.22.38 0 .75a1.74 1.74 0 0 1-.55.75 3.25 3.25 0 0 1 .2-.8c.16-.13.26-.37.4-.7zM260 72q0-.2.1-.15t-.1.15zm6-12.5a.42.42 0 0 1-.3-.45.75.75 0 0 0-.2-.55 21.51 21.51 0 0 1 2.85-2.9 8.79 8.79 0 0 1 3.85-1.8 2.22 2.22 0 0 1 1.1.8 6.87 6.87 0 0 1 3.1 1.2 24.84 24.84 0 0 0 2.6 1.7 8.39 8.39 0 0 1 .6 4.5 14.76 14.76 0 0 1-1.3 4.1 21.43 21.43 0 0 1-2.3 3.7q-1.35 1.75-2.35 3.25-2 .6-3.8 1.3a5 5 0 0 1-3.8-.1 8.1 8.1 0 0 1-2-3.5 11.56 11.56 0 0 1-.35-3.85 15.56 15.56 0 0 1 .8-3.85 21 21 0 0 1 1.5-3.55zm7.7-1a9.27 9.27 0 0 0-5.2 4.55 16.56 16.56 0 0 0-1.9 7.55 2.26 2.26 0 0 0 1 0 4.44 4.44 0 0 1 1-.1 19 19 0 0 0 4.75-4.9 15.67 15.67 0 0 0 2.45-6.9 4.2 4.2 0 0 1-.3-.75 2.31 2.31 0 0 0-.3-.65c-.53-.13-.85 0-1 .3a2.84 2.84 0 0 1-.45.9zm1.8 3.2a.75.75 0 0 1 .2-.45c.13-.17.07-.25-.2-.25a.33.33 0 0 1-.1.4c-.09.14-.05.23.15.3zm.6-3c.07.27.1.27.1 0s.01-.27-.05 0zm20.85 2.1c.07.13 0 .2 0 .2s-.15.07-.15.2 0 .2.1.2.1.07.1.2a.62.62 0 0 0 .2-.45.83.83 0 0 1 .3-.55c-.07-.13-.13-.12-.2 0s-.17.22-.3.15 0-.3.1-.3a.18.18 0 0 0 .2-.2c.07-.07.07-.12 0-.15s-.07 0 0 .15a.82.82 0 0 0-.5.3q-.3-.3.1-.45a1.68 1.68 0 0 0 .6-.35.64.64 0 0 1 .25.55 2.75 2.75 0 0 0 0 .55q.5 0 .35-.6c-.1-.4-.28-.57-.55-.5a.39.39 0 0 1 .3-.4 3.63 3.63 0 0 0 .5-.2c.13.33.15.5 0 .5s-.15.17-.15.5v.2a1.92 1.92 0 0 0 1-.5 2 2 0 0 1 1-.5.54.54 0 0 0-.6-.4c.13-.27.28-.32.45-.15s.42.15.75 0l-.25-.5a.39.39 0 0 1 0-.5c.27 0 .35.12.25.35s0 .35.35.35v.2a.58.58 0 0 0-.2.4c0 .07.17.1.5.1.07-.2 0-.28-.15-.25s-.22 0-.15-.25a3.55 3.55 0 0 1 .85-.1.87.87 0 0 0 .75-.5q-.1-.2-.2 0c-.07.13-.17.13-.3 0a.89.89 0 0 1 .4-.25q.2 0 .3-.35v-.2q.3-.1.25.1a1.57 1.57 0 0 0-.05.4.45.45 0 0 0 .4-.15 3.53 3.53 0 0 0 .2-.35c0-.2 0-.23-.1-.1a.2.2 0 0 1-.3.1 1.84 1.84 0 0 1 1.35-1 1.29 1.29 0 0 0 1-1.3 1.28 1.28 0 0 0-.5-.3 1 1 0 0 1-.5-.4c-.2.07-.23.15-.1.25a.43.43 0 0 1 .2.35c-.2.07-.25.2-.15.4s0 .3-.35.3a.76.76 0 0 0 0-.55 1.06 1.06 0 0 1-.1-.55 1.86 1.86 0 0 0-1.4 1.3c.07.27.15.35.25.25a.42.42 0 0 1 .45-.05c0-.2-.08-.28-.25-.25s-.22 0-.15-.25a2.66 2.66 0 0 0 .9-.6c.13.4.07.63-.2.7s-.3.27-.1.6c-.33-.2-.57-.18-.7 0a1 1 0 0 1-.7.45q.2.2.1.3a1.14 1.14 0 0 0-.2.3c.27-.13.37-.15.3-.05a1.07 1.07 0 0 0-.1.55c-.13-.13-.22-.17-.25-.1s-.15.1-.35.1a.68.68 0 0 0 .25-.9q-.25-.5.45-.8c-.13-.13-.3-.13-.5 0a.51.51 0 0 0-.2.6c-.2-.13-.43-.08-.7.15a6.85 6.85 0 0 1-.7.55 13.83 13.83 0 0 1 2.9-2.85 32.18 32.18 0 0 1 3.7-2.4 3.31 3.31 0 0 1 1.3.85 2.65 2.65 0 0 0 1.5.75 3.23 3.23 0 0 1 .45 1.3 8.87 8.87 0 0 0 .25 1.4 10.66 10.66 0 0 0-1.35 4.3 15.09 15.09 0 0 1-1 4.3.82.82 0 0 1 0 1.1 1.08 1.08 0 0 0-.05 1.3.75.75 0 0 0-.3.25c-.07.1-.17.12-.3 0a.85.85 0 0 1 .1.7l-.2.8c-.07.27-.12.5-.15.7s.08.37.35.5a10 10 0 0 0-.55 3.75 11 11 0 0 0 .85 4l.4.2.4.2a1.79 1.79 0 0 1-.2.9q-.3-.1-.4.05a.77.77 0 0 1-.3.25 2.68 2.68 0 0 1-2.25-1.35q-.75-1.25-1.55-2.45a24.62 24.62 0 0 1-.15-8.95q.75-4.15 1.35-8.25-3.2 2.6-6.15 5.35t-6.15 5.35a.83.83 0 0 0-.45.1.74.74 0 0 1-.55 0 4.53 4.53 0 0 1-2.8 1.1 4.36 4.36 0 0 1-2.55-.8 5.44 5.44 0 0 1-1.8-2.15 7 7 0 0 1-.65-3q.3-1.4.5-3.15a7.38 7.38 0 0 1 1-3.05 3.2 3.2 0 0 1 .35-1.85 14 14 0 0 0 .75-1.65l2.2 1a5.74 5.74 0 0 1 1.9 1.25 36.4 36.4 0 0 1-1.65 4.4 17.92 17.92 0 0 0-1.35 4.8 5.77 5.77 0 0 0 2.6-.75 13 13 0 0 0 2-1.5q.95-.85 1.85-1.75a8 8 0 0 1 2.1-1.5c0 .07 0 .1-.05.1s0 0 0 .1c.2.07.33 0 .4-.1a.32.32 0 0 1 .25-.2zm2.1-2.3q0 .3-.5.3-.2-.5.45-.3zm.15.7a.39.39 0 0 1 .25.4.87.87 0 0 1-.4-.1l-.4-.2a1.77 1.77 0 0 0 .2-.5.6.6 0 0 0 .35.4zm0 1.4a.4.4 0 0 0 .4-.2 1.57 1.57 0 0 1 .3-.4h-.5c.13.27.12.4-.05.4s-.27.07-.2.2zm0-2.2c.13-.27.2-.28.2 0s-.12.2-.25 0zm.6-.6c.13 0 .15.07 0 .2a.25.25 0 0 1-.35.1zm-.1.4a.41.41 0 0 0 .4.15c.13 0 .2 0 .2.25q-.75 0-.65-.4zm.3 1.8h.3v-.2h-.3zm.4-.4q.4.1.2-.1c-.19-.13-.25-.1-.25.1zm.8-1.8c.13-.2.28-.23.45-.1s.18.27 0 .4-.35.08-.25-.15.01-.28-.25-.15zm.1.7c0-.13 0-.18.1-.15s-.02.08-.15.15zm1.6-1.2c-.27 0-.33-.17-.2-.5.13 0 .27-.13.4-.4.2.13.2.27 0 .4a.41.41 0 0 0-.25.5zm1-.1a1.24 1.24 0 0 0 1-.9 1.78 1.78 0 0 0-.6.45 5.34 5.34 0 0 1-.45.45zm.2-1.6c.13 0 .18.08.15.25s-.12.22-.25.15v-.3a.09.09 0 0 0 0-.1zm.7-.7a.26.26 0 0 1 .3.3.26.26 0 0 1-.35-.3zm.3.8c.07-.27.1-.27.1 0s-.09.3-.2 0zm.1-1.4c.27.07.33 0 .2-.1s-.25-.1-.25.1zm29.65 14.4a8.78 8.78 0 0 0 4.9-1.45 31.09 31.09 0 0 1 4.1-2.45c-.2-.13-.27-.27-.2-.4a19.94 19.94 0 0 0 5.25-2.85 49.09 49.09 0 0 0 4.75-4A6.34 6.34 0 0 0 351.8 59a4.12 4.12 0 0 1-2.45 1.15 14 14 0 0 1 2.35-1.9q1.25-.8 2.55-1.6a3.39 3.39 0 0 1-.95 2.1 12.88 12.88 0 0 1-1.9 1.65l-2.15 1.55a6.2 6.2 0 0 0-1.7 1.8q-.7-.4-1.25.4a2.33 2.33 0 0 1-1.25 1 1.84 1.84 0 0 0 1.3-.35 2.48 2.48 0 0 0 .9-.85h.55a1.42 1.42 0 0 1 .35.2q.2-.2 0-.35a.41.41 0 0 1 0-.45 2.29 2.29 0 0 1 .7-.2c.13 0 .27-.13.4-.4a.62.62 0 0 0 .75.1 3.51 3.51 0 0 0 .9-.6c.3-.27.61-.53.95-.8a3 3 0 0 1 .8-.5L351.5 63a3.44 3.44 0 0 1-1.65 1.5 3.69 3.69 0 0 1-.4.65 1.72 1.72 0 0 0-.3.55q-1.2.8-2.6 2t-2.9 2.2a18.08 18.08 0 0 1-3.25 1.8 8.08 8.08 0 0 1-3.65.65 3.33 3.33 0 0 1-2-.65 7.78 7.78 0 0 1-1.6-1.55c-.07-.2-.13-.25-.2-.15s-.17.08-.3 0a7.43 7.43 0 0 1-1.2-2.9 17.83 17.83 0 0 1-.3-3.3q0-1.7.15-3.45t.15-3.25a24.94 24.94 0 0 0-4 3.15 44.55 44.55 0 0 0-3.4 3.7q-1.6 1.95-3.1 4t-3.1 4.1a2 2 0 0 1-1 .15 1 1 0 0 0-1 .35 5 5 0 0 1-2-3.65 17.11 17.11 0 0 1 .35-4.6q.5-2.45 1.2-4.95a13.4 13.4 0 0 0 .5-4.8 3.43 3.43 0 0 1 2.15.25 4.37 4.37 0 0 1 1.4 1.2 13.34 13.34 0 0 1-.35 3.65 35.19 35.19 0 0 0-.65 4 29.45 29.45 0 0 0 2.9-3.15 11.38 11.38 0 0 1 3.1-2.75 11.46 11.46 0 0 1-2.1 2.3 8.75 8.75 0 0 0-2 2.4 7.43 7.43 0 0 0 2.3-2 10.43 10.43 0 0 1 2.1-2.1c-.13-.13-.2-.23-.2-.3a4.52 4.52 0 0 0 2-1.25q1.1-1.05 2.1-2a3.55 3.55 0 0 0-2 1.2 3.53 3.53 0 0 1-1.9 1.2 6.93 6.93 0 0 1 1.8-1.75 3.48 3.48 0 0 1 2.3-.85 1.4 1.4 0 0 1 1.05-.6 2.28 2.28 0 0 1 1.1.3 11.39 11.39 0 0 1 1 .65 2.62 2.62 0 0 0 1 .45 3.11 3.11 0 0 1 1.6 2.3 14.84 14.84 0 0 1 .2 3.5q-.1 1.9-.3 3.9a8.38 8.38 0 0 0 .35 3.6zm-7.9-11.2c.07.2.1.18.1 0s-.05-.27-.1 0zm.2-.2a.72.72 0 0 0 .7-.4 1 1 0 0 1-.45.1c-.17 0-.25.1-.25.3zm1.6-1c0-.13 0-.2.1-.2s.1-.07.1-.2a.22.22 0 0 0-.2.4zm15.9 9.2c0-.2-.07-.27-.2-.2s0 .3.1.3a.09.09 0 0 1 .1-.1zm0-1.7c.2-.13.21-.12 0 0s-.14.2 0 0zm.5-.3c.2-.13.21-.12 0 .05s-.15.15 0-.05zm.7-.8h.3v.3h-.3zm1.5-.8a.57.57 0 0 1-.4.2.58.58 0 0 1 .4-.2zm2.6.4v.2a.09.09 0 0 0-.1.1h-.2v-.2l.1-.1zm.7-1.1h.3v.2h-.3z"/><path d="M386.25 30.9a4.23 4.23 0 0 0-2.5 0 2.86 2.86 0 0 1-2.5-.45l-.55.35a1 1 0 0 1-.55.15.36.36 0 0 1-.5-.3q-.1-.4-.5 0c0-.13 0-.18-.1-.15a.16.16 0 0 1-.2 0c0 .13 0 .18.1.15a.17.17 0 0 1 .2 0v.3a1.61 1.61 0 0 1-1.1-.15.74.74 0 0 0-.9.15.26.26 0 0 0-.3-.3.4.4 0 0 1-.4-.2c-.07.27 0 .38.2.35s.23.12.1.45a.59.59 0 0 0-.85-.35.59.59 0 0 1-.85-.25c-.07 0-.13.07-.2.2s-.1.07-.1-.2a.65.65 0 0 1-.85.15c-.3-.17-.52-.08-.65.25a4.82 4.82 0 0 0-1.5-.2 3.17 3.17 0 0 0-1.6.4.41.41 0 0 0 .4.15 2.11 2.11 0 0 1 .5 0c-.2.2-.2.3 0 .3-.13.2-.27.27-.4.2a.32.32 0 0 1-.2-.3q-.4.1-.45.35a5 5 0 0 1-.15.55q.8 0 1.85.1a1.57 1.57 0 0 0 1.45-.4q.5.1.15.15c-.23 0-.32.12-.25.25a3.7 3.7 0 0 0 1.45-.1q.85-.2 1 .2c.2.07.3 0 .3-.15s.1-.25.3-.25.1.27-.1.4a3.3 3.3 0 0 0-.5.4 1 1 0 0 1-.6-.15c-.13-.1-.3 0-.5.15.07.13.25.2.55.2s.48-.07.55-.2a3.31 3.31 0 0 0 1 .05 9.48 9.48 0 0 0 1.3-.25c-.27-.13-.3-.27-.1-.4s.35.07.25.2a.28.28 0 0 0 0 .4 4 4 0 0 1 .85.1 1.23 1.23 0 0 0 .85-.1c-.13-.2-.27-.3-.4-.3s-.27-.1-.4-.3a1.51 1.51 0 0 1 1.4-.15q.9.25 1.2-.35.3.1.1.3a3 3 0 0 1 .9 0 5 5 0 0 0 .8 0h.1c-.07 0-.1-.12-.1-.25a5.92 5.92 0 0 0 3.3.45 8.77 8.77 0 0 1 3.9.45q.3.2.3-.05c0-.17.07-.25.2-.25-.07.13 0 .2.2.2s.3-.07.3-.2.1 0 .1 0h.1c.27-.07.4 0 .4.3.07-.2.33-.23.8-.1-.33.13-.35.23 0 .3a3.87 3.87 0 0 0 .85.1 1.85 1.85 0 0 0 1.5.15 1.46 1.46 0 0 1 1.4.25q.1-.3-.15-.3c-.17 0-.28-.1-.35-.3.13 0 .17 0 .1-.05s-.1 0-.1.05a5.89 5.89 0 0 0-1-.3 3.08 3.08 0 0 1-1-.4q-.1-.3.15-.25c.17 0 .25 0 .25-.25-.4 0-.6.07-.6.2s-.1.23-.3.3-.33-.07-.2-.2a.33.33 0 0 0 .1-.4c-.33 0-.5.2-.5.6q-.2-.2-.35-.15a.22.22 0 0 1-.25 0q0-.3.4-.3c0 .13 0 .18.05.15a.2.2 0 0 0 0-.15h.1-.2a1.71 1.71 0 0 0-1.7-.4c-.8.13-1.33 0-1.6-.4-.13 0-.2.08-.2.25s-.07.22-.2.15a1.69 1.69 0 0 1-.2-.5c-.13 0-.37.17-.7.5 0-.13-.08-.2-.25-.2s-.18-.1 0-.3h.2s.07.05.2.05c.13-.27.05-.33-.25-.2s-.42 0-.35-.3q2.2.2 4 .45t4 .65a.45.45 0 0 0 .1.5c-.13 0-.22.08-.25.25s.05.18.25 0v-.3c.13 0 .2 0 .2-.1a3.35 3.35 0 0 1 .5.4c.13.13.37.1.7-.1a4.23 4.23 0 0 1 1.2 2.5 2.34 2.34 0 0 1-.8 2.3q.2-.4-.4-.3a.64.64 0 0 1-.8-.4 2.17 2.17 0 0 1-2.2 0 .94.94 0 0 1 .7-.5 3.47 3.47 0 0 0 .9-.3 12 12 0 0 0-4.7-1 14.31 14.31 0 0 1-4.7-.75c0 .2-.25.33-.75.4s-.82 0-1-.3a1 1 0 0 1-.6.15 1.89 1.89 0 0 0-.7 0v-.4c-.13 0-.18.07-.15.2s0 .2 0 .2a2.31 2.31 0 0 0-.8-.2.68.68 0 0 1-.5-.2q-.2.5-1.4.4a12.52 12.52 0 0 1-2-.3q-2 .2-4.35.3t-4.85.3a6.29 6.29 0 0 0-.75 1.75 12.29 12.29 0 0 1-.65 1.85l-.3-.3q-.1.4 0 .55c.1.1.12.28 0 .55s-.22.17-.25.1-.12-.1-.25-.1a2.55 2.55 0 0 1-.5 1.3.85.85 0 0 0 0 1.1h-.4q-1.4 3.8-2.75 7.2a42.29 42.29 0 0 1-3.25 6.5 12 12 0 0 1-1.75 3.95 22 22 0 0 1-2.6 3.15 6.15 6.15 0 0 0 .1 1.2 1.11 1.11 0 0 1-.4 1c0 .2 0 .25.1.15s.13-.08.2 0q-.1.8-.15 1.8t0 1.8l-.3.3a1.16 1.16 0 0 1-.3.2 13.83 13.83 0 0 1 .4 3.35v3.5a25.75 25.75 0 0 0 .25 3.55 9.54 9.54 0 0 0 1.15 3.4.9.9 0 0 0 .4.1.9.9 0 0 1 .4.1 9.42 9.42 0 0 0 3.55-1.6 21 21 0 0 0 2.7-2.45q1.25-1.35 2.4-2.75a16.32 16.32 0 0 1 2.55-2.5.41.41 0 0 1 0-.45.42.42 0 0 0 0-.45 1.25 1.25 0 0 0 .9-1 1.27 1.27 0 0 1 1-1 1.43 1.43 0 0 1 .5-1l.9-.7a25.56 25.56 0 0 1 2.25-3.55q1.25-1.65 2.65-3.25a41.08 41.08 0 0 0 2.6-4 11.19 11.19 0 0 1 3.1-3.5 9.87 9.87 0 0 0-1.65 2.5 6.4 6.4 0 0 1-1.75 2.3c-.07.2-.07.32 0 .35s.1.12.1.25a6 6 0 0 0-1.3 1.3q-.5.7-1 1.5a17 17 0 0 1-1 1.5 7.23 7.23 0 0 1-1.35 1.3.16.16 0 0 0 .1.15c.07 0 .07.12 0 .25a.09.09 0 0 1-.1-.1.09.09 0 0 0-.1-.1 39.52 39.52 0 0 1-4.8 6.65q-2.8 3.15-5.3 6.35a.46.46 0 0 0 .5-.1 3.42 3.42 0 0 0 .4-.5 3.55 3.55 0 0 1 .45-.55.88.88 0 0 1 .65-.25c.13-.13.1-.18-.1-.15s-.23-.05-.1-.25a.54.54 0 0 0 .75-.25 1.51 1.51 0 0 1 .65-.65c.07-.13 0-.22 0-.25s-.12-.15-.05-.35l.3.3a67.68 67.68 0 0 0 4.8-5.55q2.1-2.7 4.1-5.9a1.6 1.6 0 0 0 .7-.2 6.42 6.42 0 0 1 .9-2 5 5 0 0 1 1.5-1.6q0-.2-.3-.4c.33 0 .47-.12.4-.35s.13-.38.6-.45a.57.57 0 0 1 .15-.75 1.74 1.74 0 0 0 .55-.65 9.92 9.92 0 0 1-1.85 3.5 8.61 8.61 0 0 0-1.75 3.7q-.8-.1-.8.8c.07.2.15.23.25.1s.22-.13.35 0c-.07.33-.37.43-.9.3a.8.8 0 0 0-.1.35.55.55 0 0 1-.2.35c.13.13.25.12.35 0s.28-.18.55 0a16.54 16.54 0 0 0-1.55 2.7 15.53 15.53 0 0 1-1.85 3c0 .13 0 .15 0 0s.12-.08.25 0q-2.5 3-5 6.3a35.75 35.75 0 0 1-5.75 5.9 14.27 14.27 0 0 1-3.55 1 4 4 0 0 1-3.35-.9 12.79 12.79 0 0 1-2.9-4.75 23.57 23.57 0 0 1-1.15-5.6 51.56 51.56 0 0 1-.15-6q.1-3 .3-5.85c-.07-.27-.3-.4-.7-.4q-.5-.9-1-1.9a4.32 4.32 0 0 1-.4-2.3.46.46 0 0 0 .5-.3 1.27 1.27 0 0 1 .3-.5.53.53 0 0 1 .45.45 2.5 2.5 0 0 0 .25.75c.27 0 .4 0 .4.1l.4-.2.4-.2q.8-4.4 1.55-9a88.45 88.45 0 0 1 1.85-8.7 4.22 4.22 0 0 1 .4-2.5 5.43 5.43 0 0 0 .5-2.7q-5.4.6-9.75 1.25t-9.55 1a14.21 14.21 0 0 0-1.7-.25c-.47 0-1.1-.12-1.9-.25a3.33 3.33 0 0 1-.85-2 4.15 4.15 0 0 1 .35-2.35q2.8.3 6 .35a56.55 56.55 0 0 0 6.35-.25v.1c-.1 0 0-.18.1-.15s.1 0 .1 0a5.16 5.16 0 0 0 2.2 0 3.74 3.74 0 0 1 2 0c.2-.07.22-.13 0-.2s-.22-.17-.15-.3a1.23 1.23 0 0 0 .65.15 5 5 0 0 0 .55-.25v.4c.13 0 .18-.07.15-.2s0-.2.15-.2a1.16 1.16 0 0 0 .8.2.62.62 0 0 0 .7-.5 1 1 0 0 0 .35.25.67.67 0 0 1 .25.15c0 .33-.18.52-.55.55a.56.56 0 0 0-.55.65c-.13-.27-.37-.33-.7-.2a.87.87 0 0 1-.9-.1 1.49 1.49 0 0 0 1.4.5l1.8-.2q.2 0 .15.15c0 .1-.08.15-.15.15a1.7 1.7 0 0 1 .4 0c.13 0 .2 0 .2-.15a1.86 1.86 0 0 0 1 .15 1 1 0 0 0 .8-.35c-.13.27-.1.35.1.25a.4.4 0 0 1 .5 0 .77.77 0 0 0 .35-.55c0-.23.08-.52.15-.85a.66.66 0 0 0-.3.3q-.1.2-.4.1c-.13-.2-.27-.23-.4-.1s-.27.1-.4-.1c.07-.13.15-.2.25-.2s.18-.07.25-.2c-.13-.13-.25-.17-.35-.1s-.08-.07 0-.4q.3.6.85.15c.37-.3.62-.32.75 0a9.09 9.09 0 0 1 .7-2.5 5.29 5.29 0 0 0 .5-2.2q1.5-3.4 2.75-7t2.65-7.15a68.15 68.15 0 0 1 3.1-6.7 29.79 29.79 0 0 1 4-5.8 4.88 4.88 0 0 1 2.75.7 10.42 10.42 0 0 1 1.95 1.7A7 7 0 0 1 377.4 5a8.15 8.15 0 0 1-.65 2.55c0 .2.13.23.4.1q-.8 3.2-1.55 6T374 19.1l-1.7 5.4q-.85 2.7-1.85 5.7a76.05 76.05 0 0 0 8.3 0 57.82 57.82 0 0 1 8.6.15l-.4.4a1 1 0 0 1-.7.15zm-43.4 1.6c.2-.13.22-.12 0 .05s-.14.15 0-.05zm1.5-.1c.13-.27.2-.28.2 0s-.07.2-.2 0zm1.3-.4c.13 0 .2 0 .2.05s.07 0 .2 0 0 .18-.1.15-.1 0-.1.15c-.13-.07-.18-.13-.15-.2a.16.16 0 0 0-.05-.15zm.9.1c0-.13.07-.15.2 0s.06.07-.2 0zm3.3 0c.13-.2.22-.2.25 0s-.1.2-.25 0zm3.2 0c-.4-.07-.53 0-.4.1s.26.1.35-.1zm.8 25.1c.2 0 .33-.17.4-.5s0-.53-.2-.6a.7.7 0 0 1-.05.6.81.81 0 0 0-.15.5zm.4-24.5c.13 0 .2.1.2.3-.07-.07-.1 0-.1.1s-.1-.1-.1-.4zm.1 22.7a3.08 3.08 0 0 1 .5-1.3 1.33 1.33 0 0 0 .2-1.2c0-.2-.07-.23-.2-.1a6.57 6.57 0 0 1-.45 1.3 1.86 1.86 0 0 0-.05 1.3zm.8-23.2v.2c.27-.13.27-.2 0-.2V32a.2.2 0 0 1-.3.1.32.32 0 0 1-.2-.3 1.1 1.1 0 0 1 .85-.05 1.07 1.07 0 0 0 .75.05.26.26 0 0 1-.1.35c-.13.1-.07.12.2 0-.07.33-.25.45-.55.35a.48.48 0 0 0-.65.25c-.2.07-.32 0-.35-.1s-.18-.17-.45-.1a.72.72 0 0 1 .8-.35zm0 23.1c.13.27.2.27.2 0s-.07-.3-.2 0zm.3-4a.87.87 0 0 0 .15-.45c0-.23-.08-.32-.35-.25a1 1 0 0 1 0 .4c-.09.07 0 .17.2.3zm.1-18.1c-.13 0-.18 0-.15-.1s.08-.03.15.1zm0 20.3a.77.77 0 0 1 .1-.3c.07-.13 0-.2-.1-.2a.64.64 0 0 0-.15.3c-.04.13.01.2.15.2zm0-20.3a.09.09 0 0 1 .1.1.09.09 0 0 1-.1-.1zm.1-1.1c.13.2.2.2.2 0s-.07-.2-.2 0zm0 16.8h.2c.13-.07.18-.13.15-.2s-.12-.1-.25-.1a.41.41 0 0 1-.1.3zm0 3.3a.58.58 0 0 0 .4-.2c.13-.13.07-.23-.2-.3a1.75 1.75 0 0 1-.2.5zm.2-4c-.07.33-.07.35 0 0s.06-.27 0 0zm0-1.2a3.58 3.58 0 0 1 .45-.95 2.3 2.3 0 0 0 .35-1 1.55 1.55 0 0 0-.3-.25.53.53 0 0 1-.2-.25 10 10 0 0 1-.25 1.45 2.26 2.26 0 0 0-.05 1zm.2 4.1c0-.13 0-.17.1-.1a.27.27 0 0 0-.3-.3.36.36 0 0 1 0 .3c.01.07.06.1.15.1zm0-18.3c.07-.2.1-.18.1 0s-.04.27-.15 0zm1 .3c-.13.2-.23.27-.3.2a.79.79 0 0 0-.5-.1.56.56 0 0 1 .75-.1zm.5 6.7c-.13.13-.22.15-.25 0s-.12-.08-.25 0a1.61 1.61 0 0 1-.1 1.45 1.61 1.61 0 0 0-.1 1.45c-.13 0-.2 0-.2-.05s-.07 0-.2 0a.7.7 0 0 0 0 .6 1.73 1.73 0 0 1 .25.5c-.2 0-.3 0-.3-.1s-.07 0-.2.1a1 1 0 0 1 .1.45c0 .17.13.25.4.25a3.12 3.12 0 0 0 .2-.6.51.51 0 0 0-.2-.6.81.81 0 0 0 .45-.6c.1-.33 0-.5-.25-.5a9.38 9.38 0 0 0 .55-1.4q.25-.8.45-1.7a.39.39 0 0 1-.25 0 .21.21 0 0 0-.15-.05q-.5.3.05.8zm-.7-7.9l-.1-.1h-.1c0 .07.07.1.2.1a.28.28 0 0 0 .1.2c.07.07.07.17 0 .3a.89.89 0 0 0-.45-.25c-.17 0-.22-.22-.15-.55a2.07 2.07 0 0 0 .5 0c.13 0 .2.08.2.35zm-.4 16.2c.13.2.2.18.2 0s-.07-.27-.2 0zm.9-4.5c.13.13.23.1.3-.1s0-.3-.1-.3-.05.2-.15.2-.12.07-.05.2zm4.3-9a4.86 4.86 0 0 1-1.1 1.8 2.94 2.94 0 0 1 .1 1.7 3.65 3.65 0 0 1-.8 1.6 3 3 0 0 1-.1 1.3q-.2.7-.45 1.45t-.45 1.6a4.27 4.27 0 0 0 0 1.85h-.3a1.37 1.37 0 0 1-.05.8l-.3 1a6.41 6.41 0 0 0-.2 1.1 2.21 2.21 0 0 0 .15 1 .6.6 0 0 0-.45.65.79.79 0 0 1-.35.75 30.93 30.93 0 0 0 4-8.05q1.55-4.55 3-8.75l-1.5.2a2.79 2.79 0 0 1-1.2 0zm-3.8-2.2c-.13.13-.23.2-.3.2v-.2zm0 6c.2.13.32.07.35-.2s0-.37-.25-.3c0 .13 0 .22-.1.25s-.07.12 0 .25zM358 31a.59.59 0 0 1 .1.4h-.3c-.07-.13 0-.2 0-.2s.2-.07.2-.2zm-.1 1c.27.07.33 0 .2-.1s-.15-.1-.15.1zm0 5.4a.58.58 0 0 0 .1.4c.27 0 .4-.17.4-.5a.8.8 0 0 0-.45.1zm.8-1.4a.58.58 0 0 0-.2-.4c.05.27.11.4.25.4zm.3 1.5a.37.37 0 0 1 .1-.55c.2-.17.17-.25-.1-.25a2.63 2.63 0 0 1-.3.45c-.09.17.01.28.3.35zm-.3-2.3c.13.27.2.28.2 0s-.02-.2-.15 0zm.4-2.6q-.1.3.15.3c.17 0 .18.1 0 .3a.66.66 0 0 0-.25-.15q-.15 0 0 .25a.71.71 0 0 0 .6-.1.42.42 0 0 1 0-.55.3.3 0 0 0 0-.45c-.09.27-.25.4-.45.4zm.1 3.2c.13.27.2.28.2 0s-.02-.2-.15 0zm.2 2.3c.13.27.2.28.2 0s-.02-.2-.15 0zm.6-6.8a.58.58 0 0 1 .2-.4 1.17 1.17 0 0 0-.5.15c-.2.1-.2.22 0 .35.05-.07.15-.1.3-.1zm.4-1.9a.32.32 0 0 1 .2-.3c.13-.07.1-.13-.1-.2a1.58 1.58 0 0 1-.25.2q-.1.1.2.3zm.1-1.7a.94.94 0 0 0 .6-.25c.2-.17.17-.32-.1-.45a.66.66 0 0 1-.3.3.4.4 0 0 0-.15.4zm.3.8c.27.07.33.05.2 0s-.15-.13-.15 0zm.1-.6c.27.07.33 0 .2 0s-.15-.13-.15 0zm.3 54.3c.13.2.2.18.2 0s-.02-.27-.15 0zm.4-56.1a1.34 1.34 0 0 0 .3-.45c.07-.17-.07-.28-.4-.35a1.75 1.75 0 0 0-.15.5c.01.2.1.3.3.3zm-.1 1.5q.2.3.15 0t-.1 0zm3.1 5c-.07.2 0 .33 0 .4s.12.17 0 .3c-.2-.07-.3-.08-.3-.05a1.39 1.39 0 0 1-.2.35c.6-.07.88-.3.85-.7a1.5 1.5 0 0 1 .35-1.1.41.41 0 0 0-.45 0c-.1.1-.18 0-.25-.25h.6a.2.2 0 0 1 0-.15.2.2 0 0 0 0-.15c.13-.07.17-.12.1-.15s-.1 0-.1.15a2.08 2.08 0 0 0-1.35 0 3.48 3.48 0 0 1-1.25.25c.27 0 .4.1.4.3-.27.13-.42.15-.45 0a.86.86 0 0 0-.35-.35 4.25 4.25 0 0 0-.3.75c-.07.23-.17.52-.3.85a9.1 9.1 0 0 1 2.7-.2c0-.4.07-.6.2-.6l.1.1c.25.22.18.25.05.25zm-2-9a1 1 0 0 1-.1-.45c0-.17-.1-.25-.3-.25a1 1 0 0 1 .1.45c.05.17.15.25.35.25zm-.4 7.6c.27.07.33 0 .2-.1s-.15-.1-.15.1zm11.2-29.3q-1.2 1.5-2.45 3.35a8.21 8.21 0 0 0-1.4 3.75 1.09 1.09 0 0 0-.75 1.2q0 .9-.75 1c-.13.27-.1.38.1.35s.27 0 .2.25a1.49 1.49 0 0 0-.4.65.63.63 0 0 1-.5.45 1.83 1.83 0 0 1-.1 1.35 1.58 1.58 0 0 1-.8.75c.33.07.45.15.35.25a1.13 1.13 0 0 0-.25.45.48.48 0 0 0 .55-.45.84.84 0 0 1 .35-.65 1.65 1.65 0 0 1-.5 1.6 1.1 1.1 0 0 0-.2 1.5 1.51 1.51 0 0 0-.55.8 1.08 1.08 0 0 1-.55.7c.13.13.23.1.3-.1s.17-.13.3.2a1.54 1.54 0 0 0-.55.9q-.15.6-.25 1.2a5.35 5.35 0 0 1-.3 1.1.89.89 0 0 1-.6.6 5.17 5.17 0 0 1-.15 1.9 15.57 15.57 0 0 1-.65 1.85q-.4 1-.75 2a8.54 8.54 0 0 0-.45 2 .84.84 0 0 0 .65-.05.66.66 0 0 1 .65.05q-.1.2-.4.15c-.2 0-.27 0-.2.25a2.47 2.47 0 0 0 1-.4q.2-.2 1.4-.1 2.1-7.2 4.55-14.6a83 83 0 0 0 3.45-14.5 6.29 6.29 0 0 0-1.1-.6.84.84 0 0 0 .35.55 2.36 2.36 0 0 1 .45.3zm-10.7 29.3q.5.1.3-.1c-.09-.1-.19-.1-.25.1zm.1-8.7c.07.27.1.29.1.05s.01-.25-.05-.05zm.2-.3a.7.7 0 0 0 .15-.35c0-.17 0-.25-.15-.25a.28.28 0 0 1 0 .4c-.1.05-.09.13 0 .2zm.5 10.3c0 .27-.17.33-.5.2-.07-.13 0-.2.1-.2zm-.2-11.1a2.47 2.47 0 0 1 .5-.9.61.61 0 0 0 0-.9q-.2.5-.45 1a.77.77 0 0 0 0 .8zm.3 12.2c.33.07.45 0 .35-.1s-.17-.1-.3.1zm.4-11.7c-.13-.13-.13-.25 0-.35s.13-.18 0-.25a.68.68 0 0 0-.15.35c.01.17.06.25.15.25zm.2-3.3q-.1.1-.1.15s0 .08-.1.15c.13.07.2 0 .2-.3.13-.07.17-.12.1-.15s-.05.02-.05.15zm.4-2.3c-.2.2-.2.3 0 .3s.25-.1.05-.3zm.2 16.2c0-.13 0-.18.1-.15s.1.08-.05.15zm.4-12.1c-.2.2-.2.28 0 .25s.25-.11.05-.25zm0 18.1h.2v-.3h-.2zm.8-20.8c-.07.33-.07.35 0 0s.11-.27 0 0zm.3-.9a.75.75 0 0 1 .25-.3.74.74 0 0 0 .25-.3.35.35 0 0 1-.2-.35q0-.25-.3-.15.2.4 0 .6c-.09.13-.09.3.05.5zm.5 23.2c.13-.07.2 0 .2.25s-.07.29-.2.15zm.3-.7c.13-.2.2-.18.2 0s-.02.27-.15 0zm.3-8c-.07.13 0 .22 0 .25s.12.15.05.35c.13 0 .21-.08.25-.25a.86.86 0 0 1 .25-.45c-.13-.07-.23 0-.3 0s-.07.17-.2.1zm.5-19.3q-.2-.2-.2.1c.3.07.38.03.25-.1zm.3 17.4c-.13.13-.2.18-.2.15s0-.07.1-.1a.59.59 0 0 0 .15-.1zm.5-1.1c.13.13.2.08.2-.15s-.07-.32-.2-.25zm.2-.7a.32.32 0 0 0 .35-.3q0-.3-.25-.3a1 1 0 0 0-.05.6zm.4-.8a.34.34 0 0 0 .1-.25c0-.1-.07-.15-.2-.15a1.16 1.16 0 0 1-.15.25s.1.08.3.15zm-.1 47c.07-.27.1-.28.1-.05s.01.25-.05.05zm.2-47.7h.2v-.2h-.2zm.1 7.1a1.26 1.26 0 0 1 .7 0V33l-.2-.2c0 .2-.12.25-.35.15s-.24-.02-.1.25zm.4-9c.27.07.33 0 .2-.1s-.15-.1-.15.1zm.7 8.9c-.13.07-.17.1-.1.1a.09.09 0 0 0 .1-.1c.27.07.33 0 .2-.1s-.15-.1-.15.1zm-.1-11.2a2.08 2.08 0 0 1 0 .9c.27 0 .38-.13.35-.4a2 2 0 0 0-.15-.6q.05.1-.15.1zm.2 10.9q.5.2.35 0t-.3 0zm.4-12.1q.3.1.3-.5-.46 0-.25.5zm.1 12.4a1.3 1.3 0 0 1 1 0q.5.2.7-.1a1.72 1.72 0 0 1-1 0 3.92 3.92 0 0 1-.65-.35c0 .13 0 .22-.1.25s.03.1.1.2zm.2-14.1c.33 0 .53-.12.6-.35a.53.53 0 0 0-.1-.55 1.54 1.54 0 0 0-.3.4 3.73 3.73 0 0 0-.15.5zm.2 12.3c0-.2.07-.23.2-.1s.11.17-.15.1zm1 .7c.2.07.23.15.1.25s-.23.08-.3 0 0-.08.1 0 .15-.12.15-.25zm0-16c.27.13.35.13.25 0s-.14-.13-.2 0zm.2-.4c.07.2.1.18.1 0s.01-.27-.05 0zm.2 17.5a.91.91 0 0 0 .7 0c.13-.1.3-.08.5 0q-.2-.5-.6-.4a1 1 0 0 0-.6.4zm.1.7c.33.07.45 0 .35-.1s-.17-.1-.3.1zm.9-1.7c.07-.2.12-.18.15 0s.03.27-.15 0zm.2-1.5c.07.2.1.18.1 0s.01-.27-.05 0zm.7 1.5c.13-.2.2-.2.2 0s-.02.2-.15 0zm.6 34.8h.3v-.2h-.3zm.1-2.6c.13.27.2.27.2 0s-.02-.3-.15 0zm.3-.7v.2h.2c.07-.2 0-.33-.1-.4 0 .14 0 .2-.05.2zm.1 4.3c.13.13.2.08.2-.15s-.07-.32-.2-.25zm.1-36.7c0-.2.07-.23.2-.1s.11.17-.15.1zm.1 1.2h.5c0 .13 0 .2.1.2s.07.07 0 .2c-.35 0-.55-.13-.55-.4zm.3 30.7h.2v-.3h-.2zm.2-31.1c.13-.2.2-.18.2.05s-.02.22-.15-.05zm.5 0c.2.07.27.17.2.3l-.2.4c-.13-.07-.2-.23-.2-.5.18.07.25 0 .25-.2zm.8 33q.1.3-.25.45c-.23.1-.35 0-.35-.35.13.13.23.13.3 0a.2.2 0 0 1 .3-.1zm-.3-31.4c.27.07.33 0 .2-.1s-.15-.1-.15.1zm.1-1.7h.2v.2h-.2zm.2-.6c.07-.2.15-.23.25-.1s.06.17-.25.1zm0 1.4c.13-.2.2-.18.2 0s-.02.3-.2 0zm.9 27.1c.07.2.12.2.15 0s.03-.2-.1 0zm.8-29.2a.68.68 0 0 0 .6-.3q-.55 0-.55.3zm1.6 2.1a2 2 0 0 0-.85.1c-.1.07-.07.13.1.2a1.3 1.3 0 0 0 .65.05 3.7 3.7 0 0 0 .9-.25q-.4.1-.5 0a.41.41 0 0 0-.25-.1zm-.1-1.5c.13-.27.2-.28.2 0s-.02.2-.15 0zm.4-.6c.27.07.35 0 .25-.1s-.14-.1-.2.1zm.6 25.9h.3v.2h-.3zm.2-23.7c-.13.2-.12.22 0 0s.25-.13.05 0zm.3.9q.5.1.35-.1c-.05-.13-.17-.1-.3.1zm.1 21.5c.33 0 .4.08.2.25s-.22.09-.15-.25zm.2-22.4a1.7 1.7 0 0 0 1 .2 2.26 2.26 0 0 0 1.15-.2c-.27.13-.38.1-.35-.1s-.08-.27-.35-.2q-.1.3-.3.3a.87.87 0 0 1-.4-.1 1.9 1.9 0 0 0-.45-.15c-.07-.03-.19.05-.3.25zm1-1.9h.3v.3h-.3zm.9-.2c.07.2.12.18.15 0s.03-.27-.1 0zm.5 1.3a.79.79 0 0 1-.5.1c.05-.2.21-.23.55-.1zm.2-.7c0 .27 0 .27-.1 0s.15-.3.15 0zm.7 1.7q-.3.1-.35 0c0-.1-.15-.15-.35-.15-.13.2 0 .32.25.35s.5-.07.5-.2zm-.5-2.4c.27.07.35 0 .25-.1s-.14-.1-.2.1zm.4.3c0 .27-.07.4-.2.4a.58.58 0 0 1 .25-.4zm.6 1.7c-.4-.07-.53 0-.4.1s.31.1.45-.1zm0-1.6c.2-.13.22-.12 0 .05s-.09.15.05-.05zm0 2.1c.27.13.43.1.5-.1-.13-.13-.25-.18-.35-.15a.23.23 0 0 0-.1.25zm.5-2.5c.2-.07.3 0 .3.2s-.1.27-.3.2c0-.13 0-.2-.1-.2s.01-.07.15-.2zm-.1.9c.13-.2.2-.2.2 0s-.02.2-.15 0zm.8 1.5a1.59 1.59 0 0 1-.4 0c-.13 0-.2 0-.2.15a.43.43 0 0 1 .4 0c.2.02.2-.02.2-.15zm-.5-.9c.07-.13.13-.15.2 0s.17.12.3 0c0 .13-.07.18-.2.15a.6.6 0 0 1-.25-.15zm.6-.9v.1c-.07 0-.1 0-.1-.05s.08-.05.15-.05zm0 .1a.59.59 0 0 1 .4.1c0 .13-.1.18-.3.15s-.2-.12-.05-.25zm1.9.9c-.07.27-.22.33-.45.2a1 1 0 0 0-.85 0 .69.69 0 0 1 .6-.25 4.21 4.21 0 0 0 .7.05zm-.7-.7c.13-.2.2-.18.2.05s-.02.22-.15-.05zm.4-.1c.07-.27.1-.27.1 0s.01.27-.05 0zm.3-.2c.2-.07.3 0 .3.2l-.1.1c-.13 0-.18 0-.15-.1a.17.17 0 0 0-.05-.2zm.4 1.3c.13.13.07.17-.2.1q.05-.3.25-.1zm0-1.1c.13-.2.2-.18.2 0s-.02.27-.15 0zm.5 1.1v-.15c0 .03.1.08.05.15zm.1-1.1c.2 0 .25 0 .15.15s-.08.22 0 .35c-.04 0-.15-.17-.15-.5zm.4 1.1c-.13 0-.18 0-.15-.1s.13-.03.2.1zm.2-1c.07-.2.1-.18.1.05s.01.22-.05-.05zm.1.3h.4v.3h-.3zm.3 1.5q.1.3.15 0t-.15 0zm.3-2.1c.27.07.33 0 .2-.1s-.15-.1-.15.1zm.15 1.6c0-.07 0-.1-.15-.1.11.13.16.17.2.1zm1.45 0c-.07 0-.17.07-.3.2-.13-.2 0-.3.3-.3zm0 0c.07 0 .1 0 .1-.05s.07 0 .2 0c.07.2 0 .3-.3.3zm.6-.9c-.07.2 0 .32.35.35s.45 0 .45-.25a1 1 0 0 0-.75-.1zm.6 1.5q.2.4.15 0c.01-.18-.04-.2-.1 0zm.5.2c-.13.27-.13.33 0 .2s.13-.2 0-.2-.12-.17-.15-.1.06.1.2.1zm.9-1c.13.13.17.2.1.2s-.13.07-.2.2c.2 0 .32.15.35.45s.25.35.65.15c-.33 0-.5-.07-.5-.2a.58.58 0 0 1 .2-.4c-.2.07-.28 0-.25-.2s-.08-.27-.35-.2c0-.07-.07-.13-.2-.2a.2.2 0 0 0-.3.1.78.78 0 0 0 .55.1z"/><path d="M400.25 77.3l.1.1c.13-.07.1-.1-.1-.1 0-.2 0-.3.1-.3s.17-.2.1-.2a.41.41 0 0 0 .3.1.58.58 0 0 0 .3-.7q1.9-1 3.85-2.15t4-2.2a30.53 30.53 0 0 1 4.15-1.8 18.58 18.58 0 0 1 4.65-1 12 12 0 0 0 2.1.25 1.32 1.32 0 0 1 1.4 1.15 3.41 3.41 0 0 0-2-.4 8 8 0 0 0-1.7.3c0 .13 0 .2.1.2s.1.07.1.2q.6-.2 1-.3a1.29 1.29 0 0 1 1 .2 2.08 2.08 0 0 1-1.2.2c.07.13.15.2.25.2s.12.07 0 .2a.6.6 0 0 1-.75-.1.72.72 0 0 0-.75-.2 1.62 1.62 0 0 0-.2-.7c-.2.07-.27.23-.2.5s.2.33.4.2q-.2.3 0 .35c.13 0 .13.15 0 .35a34.19 34.19 0 0 0-5.3 2.2 36.67 36.67 0 0 0-4.7 2.9 2.11 2.11 0 0 0-1.6.9 22.25 22.25 0 0 0-4.1 2.5q-1.8 1.4-3.8 2.8-1.1 6.9-2.7 14a67.46 67.46 0 0 1-4.5 13.4c0 .2.07.27.2.2q-1.5 4.3-3.3 8.25a79.59 79.59 0 0 1-4 7.65c-.2-.07-.33-.07-.4 0a1.22 1.22 0 0 1-.3.2c-.13.2-.17.32-.1.35s.1.18.1.45q-1.7 1.8-3.9 3.75a7.09 7.09 0 0 1-4.8 2 7.45 7.45 0 0 1-3.05-.6 10.85 10.85 0 0 1-2.5-1.55 14.45 14.45 0 0 1-2.1-2.15q-.95-1.2-1.75-2.3a1.07 1.07 0 0 0 0-.75 2.27 2.27 0 0 0-.35-.45.41.41 0 0 1 .1-.3c.07-.07.07-.17 0-.3a.28.28 0 0 0-.1-.2c-.07-.07-.1 0-.1.1a18.94 18.94 0 0 1 1.15-8.55 60.59 60.59 0 0 1 3.35-7.35.46.46 0 0 1 0 .6 1.06 1.06 0 0 0-.25.7 1.55 1.55 0 0 0-.3.4 1.12 1.12 0 0 0-.1.5l.35-.35c.1-.1.12-.28 0-.55q1.4-2.4 2.85-4.85a27.74 27.74 0 0 1 3.25-4.45.79.79 0 0 1-.1.5c-.07-.07-.1 0-.1.1a.39.39 0 0 1-.3.4c-.2.07-.27.3-.2.7a1.46 1.46 0 0 0 .45-.45 2.32 2.32 0 0 1 .35-.45c0-.07-.05-.08-.15 0s-.15 0-.15-.15l.1-.1c.4-.33.82-.65 1.25-1a.87.87 0 0 0 .25-1.25c.07 0 .17-.07.3-.2a3.08 3.08 0 0 1 .4.15c.07 0 .17-.08.3-.35h-.35c-.17 0-.28 0-.35.25a8.44 8.44 0 0 1 1.45-2.15l1.75-1.95a.28.28 0 0 1 0 .35.48.48 0 0 0-.15.35 1.56 1.56 0 0 0 1.2-.95 1.51 1.51 0 0 1 1.1-1 .26.26 0 0 0-.3-.3.61.61 0 0 1 .25-.15c.1 0 .12-.12 0-.25a1.56 1.56 0 0 0 .45 0l.35-.15a.16.16 0 0 0-.1-.15c-.07 0-.07-.12 0-.25-.33-.07-.5 0-.5.15s-.13.25-.4.25a6.11 6.11 0 0 1 1.5-1.4.64.64 0 0 1-.4.5c-.2.07-.23.23-.1.5a1 1 0 0 0 .5-.45c.07-.17.23-.22.5-.15q-.4-.2-.15-.45c.17-.17.12-.28-.15-.35a1.81 1.81 0 0 0 .5-.5 1.5 1.5 0 0 1 .6-.5.51.51 0 0 0 .2.6c.33-.13.43-.28.3-.45a.3.3 0 0 1 0-.45.69.69 0 0 1 .3 0 .44.44 0 0 0 .2 0c-.13-.27-.08-.43.15-.5a.64.64 0 0 0 .45-.5l.4-.4a3.45 3.45 0 0 0 .4-.5c.4-.13.63-.33.7-.6s-.2-.15-.2-.05a.16.16 0 0 1-.15.1c.27-.27.52-.53.75-.8a2.17 2.17 0 0 1 .85-.6v.2c-.07.07-.07.12 0 .15s.07 0 0-.15l.45-.2c.17-.07.12-.17-.15-.3.07-.27.27-.3.6-.1a.88.88 0 0 1 .45-.9q.55-.4 1-.8c.07.33 0 .52-.25.55a.5.5 0 0 0-.45.35 1.49 1.49 0 0 0 1-.65 1.43 1.43 0 0 1 .75-.65c0-.13 0-.17-.1-.1a.41.41 0 0 1-.3.1 2.93 2.93 0 0 1 1-.8q0 .5.25.15c.17-.23.32-.35.45-.35a.1.1 0 1 0-.2 0c-.07-.33.1-.58.5-.75a4.68 4.68 0 0 0 1-.55q.8-5.7 1.55-10.85t1.75-10.85a40 40 0 0 0-3.2 3.85q-1.5 2.05-3 4.15l-2.9 4.2q-1.45 2.1-3 4a3.09 3.09 0 0 1-1.2 1.4 7.42 7.42 0 0 1-1.8.8 3 3 0 0 1-2.85-1l-1.85-2.25a21.59 21.59 0 0 1-.45-4.7q.05-2.2.3-4.35t.65-4.35q.4-2.2.7-4.7a3.77 3.77 0 0 0 .7-1 2.54 2.54 0 0 1 2 .55 11.1 11.1 0 0 1 1.15 1.4q-.2 2.4-.55 4.35t-.65 3.8q-.3 1.85-.5 3.75a37.88 37.88 0 0 0-.2 4 8.9 8.9 0 0 0 3.5-3 27.82 27.82 0 0 1 2.9-3.65c.13.07.23 0 .3-.2s0-.27-.2-.2c.2-.07.3-.15.3-.25a.8.8 0 0 1 .1-.35 2.55 2.55 0 0 1 .3.35c.07.1 0 .22-.1.35a.35.35 0 0 0-.4.4.35.35 0 0 0 .4-.4q.9-.8 1.7-1.45a3.67 3.67 0 0 0 1.1-2.3.57.57 0 0 0 .55.1 1 1 0 0 0 .45-.4 5.6 5.6 0 0 0 .35-.6 1.19 1.19 0 0 0 .15-.5c.2.13.35.1.45-.1a1 1 0 0 0 .05-.7 3.6 3.6 0 0 0 1.2-1 3 3 0 0 0 .8-1.5.51.51 0 0 0 .7-.2.57.57 0 0 0 .1-.7.4.4 0 0 1 .4-.2c.2 0 .27-.13.2-.4a1.23 1.23 0 0 0 .7-.85 1.23 1.23 0 0 1 .7-.85c.07-.13 0-.17-.2-.1s-.27 0-.2-.3a.64.64 0 0 0-.4.3 1.57 1.57 0 0 1-.3.4.6.6 0 0 1 .15-.75 8.77 8.77 0 0 1 .8-.7 5.7 5.7 0 0 0 .8-.75 1.33 1.33 0 0 0 .35-.9 1.75 1.75 0 0 1 1.75-.6 2.23 2.23 0 0 1 1.55 1 19 19 0 0 1-.2 6.1q-1 4.4-1.8 9.15t-1.7 10.45c.13.13.27.1.4-.1a1.11 1.11 0 0 1 .4-.4c.13 0 .2 0 .2.1a.29.29 0 0 0 .1.2c.13-.07.15-.13 0-.2s-.08-.2 0-.4.23 0 .3 0a.34.34 0 0 0 .45.2zm-34.9 43.3c.07.27.1.27.1 0s-.04-.27-.1 0zm.6-2.4a1.89 1.89 0 0 0-.35.5c-.1.2 0 .33.25.4-.07-.27 0-.43.1-.5s.13-.2 0-.4c.13 0 .15-.07 0-.2s-.07-.07 0 .2zm.1-1c.2.2.3.2.3 0s-.1-.2-.35 0zm.2-.8c-.2.27-.2.28 0 0s.2-.2 0 0zm.3-.4a.23.23 0 0 1 .15-.25.23.23 0 0 0 .15-.25.67.67 0 0 0-.4.15q-.2.15.1.35zm.2-.8a.32.32 0 0 0 .35-.3c0-.2-.08-.27-.35-.2zm.1-1.8c-.13.2-.12.22 0 0s.15-.13 0 0zm.3.85a.34.34 0 0 1 .1-.25c-.13-.07-.2 0-.2.05s-.07.18-.2.25c.15.07.3.05.3-.05zm-.1-1.45q-.3.3 0 .25c.2-.05.2-.12-.05-.25zm.3-.4c0-.07.08-.18.25-.35s.08-.25-.25-.25c.13.13.13.25 0 .35s-.14.18 0 .25zm.1-.7c.27 0 .4-.07.4-.2-.27 0-.4.07-.4.2zm.4.7c.07.27.1.28.1 0s-.04-.2-.1 0zm16.3-17.5q-2.6 3.3-5.4 6.65a64.74 64.74 0 0 0-5.1 7 38.2 38.2 0 0 0-3.75 7.8 27 27 0 0 0-1.45 9 1.58 1.58 0 0 0-.15.8 6.77 6.77 0 0 1 0 1 .34.34 0 0 1-.3-.15c-.07-.1-.1 0-.1.25a3.92 3.92 0 0 0 .7 2.3 7.45 7.45 0 0 0 3.4.55 8 8 0 0 0 2.95-.85 11.48 11.48 0 0 0 2.45-1.7 13.88 13.88 0 0 0 1.9-2.1q2.6-4.2 4.9-8.75a46.82 46.82 0 0 0 3.5-9 7.17 7.17 0 0 0 1.15-2.55 10.35 10.35 0 0 1 1-2.55q1.1-4.2 2.2-8.3a44 44 0 0 0 1.4-7.8 51.77 51.77 0 0 0-4.7 4.25 61.69 61.69 0 0 1-4.6 4.15zM368 112.2c.13 0 .23-.12.3-.35s0-.32-.3-.25c.13.13.13.25 0 .35s-.09.18 0 .25zm.6-.9c0-.27-.07-.4-.2-.4v.4c.05.13.11.13.25 0zm.2-.4a4.92 4.92 0 0 1 .6-1 1 1 0 0 0 .2-1 4 4 0 0 1-.6 1 1.11 1.11 0 0 0-.15 1zm.8-2.2a.56.56 0 0 0 .55-.45c.1-.3.08-.52 0-.65q0 .4-.25.5c-.17.07-.25.27-.25.6zm1-1.3q-.3-.3-.25 0t.25 0a4.47 4.47 0 0 1 .7-1.1q-.5 0-.6.3a2.64 2.64 0 0 0-.05.8zm1-3.45a1.69 1.69 0 0 0-.3.65c-.2-.13-.18-.35 0-.65a3 3 0 0 1 .65-.65 3.62 3.62 0 0 1-.3.7zm-.4 2q.6.2.6-.6a.53.53 0 0 0-.55.55zm.2 2.3c.27.07.33 0 .2 0s-.15-.18-.15-.05zm.5-1.1c-.13.07-.17.12-.1.15s.1 0 .1-.15h.1q.3-.3 0-.3a.4.4 0 0 0-.05.25zm.2-2.6c.2.07.32 0 .35-.15s.15-.18.35 0v-.6h-.3a.61.61 0 0 1-.15.45 1.34 1.34 0 0 0-.2.25zm.5.7c.13.27.12.47 0 .6a1.07 1.07 0 0 0-.35.6c.4 0 .7-.27.9-.8s.23-.87.1-1q0 .35-.6.55zm.5-2.1v.2h.2a.09.09 0 0 1 .1-.1v-.3h-.2c.05.05.01.15-.05.15zm1.3-2.3c0-.13 0-.18.1-.15s.08.03-.05.1zm.2-.5c.13-.27.2-.29.2-.05s-.02.2-.15 0zm5.3-2.9q.5-.1.5-.3c0-.13.17-.27.5-.4.07-.2 0-.32 0-.35s-.12-.15 0-.35a.58.58 0 0 1 .4-.1.21.21 0 0 1 0 .15.2.2 0 0 0 0 .15.57.57 0 0 0 .7-.35c.13-.3 0-.48-.3-.55a2.13 2.13 0 0 0 1.35-.85q.45-.65.75-1.15c0 .27.07.4.2.4-.07-.13 0-.23 0-.3s0-.1-.25-.1a.3.3 0 0 0 .1-.2c0-.07.07-.1.2-.1a.09.09 0 0 1 .1.1.09.09 0 0 0 .1.1 3.86 3.86 0 0 0 .35-.4 3.5 3.5 0 0 1 .35-.4c.07-.13 0-.22 0-.25a.23.23 0 0 1-.15-.25 1.41 1.41 0 0 0 1.3-.65 2.78 2.78 0 0 1 1.3-1 .9.9 0 0 0 .1-.25 2.14 2.14 0 0 0-.1-.35q.3.3.45 0c.1-.2.22-.17.35.1-.13-.33-.13-.43 0-.3s.23.13.3 0c-.2-.13-.17-.22.1-.25s.37-.12.3-.25c-.13.07-.2 0-.2 0a.82.82 0 0 0-.1-.35c.13 0 .22 0 .25.1a.16.16 0 0 0 .15.1c-.07.27 0 .3.2.1s.13-.23-.2-.1v-.4a.4.4 0 0 0 .6-.2q.2-.4.7 0a.23.23 0 0 1 .2-.25c.13 0 .17-.12.1-.25a1.34 1.34 0 0 1-.35-.25 1.12 1.12 0 0 0-.45-.25l.45-.2c.17-.07.32 0 .45.2.07-.33.18-.45.35-.35a.33.33 0 0 0 .45 0 .6.6 0 0 0-.15-.3c-.1-.13 0-.27.15-.4a.18.18 0 0 1 .2.2.18.18 0 0 0 .2.2c0-.13.05-.18.15-.15s.15 0 .15-.15 0-.07-.1-.2c.2.2.32.2.35 0a.5.5 0 0 1 .25-.4.23.23 0 0 0 .15.25h.15s-.1-.23.1-.5.4-.27.6 0A5.12 5.12 0 0 0 394 84a1.84 1.84 0 0 0 0-1.2 49.58 49.58 0 0 0-5.85 4.9q-2.65 2.6-5.45 5.2a10.86 10.86 0 0 1-1.7 2.2l-2 2a26.14 26.14 0 0 0-1.75 2.15 8.11 8.11 0 0 0-1.2 2.4 3.4 3.4 0 0 0-1.2 1.2 1.81 1.81 0 0 0 1.3-1 1.83 1.83 0 0 1 1-1 .49.49 0 0 1 0-.55c.1-.17.25-.18.45 0q-.1-.5.25-.45c.23 0 .32-.12.25-.45-.2.2-.3.17-.3-.1a.25.25 0 0 1 .4 0c.13-.13.17-.2.1-.2s-.1-.1-.1-.3c.13.07.2.13.2.2s.07.1.2.1a4.24 4.24 0 0 0 .1-.8c0-.2.13-.37.4-.5 0 .27.13.32.4.15s.45-.42.45-.55zm-4.3 1.8c-.07.4-.23.63-.5.7.13.13.23.2.3.2s0 .2-.1.2a.18.18 0 0 0-.2.2.36.36 0 0 1 0-.3 1 1 0 0 0 0-.5c.13 0 .22-.08.25-.25a.31.31 0 0 1 .3-.3zm-.2 31.2c.13.2.2.2.2 0s-.02-.25-.15-.05zm.4-31.3h-.2c-.1 0 0-.22.1-.25s.15.1.15.2zm.2 31.1a2.49 2.49 0 0 1 .9-.7.67.67 0 0 0 .4-.9 2.19 2.19 0 0 1-.85.8.71.71 0 0 0-.45.75zm.6-31.8h.6c-.07-.33 0-.47.3-.4 0-.07-.07-.17-.2-.3a.88.88 0 0 1 .4-.25.47.47 0 0 0 .3-.35 1.16 1.16 0 0 0-.85.5c-.15.22-.3.48-.5.75zm.4 32.4c.2.2.28.2.25 0s-.07-.25-.25-.05zm15.6-35.7h-.1l-2.15 7.5a46.85 46.85 0 0 1-2.85 7.5 17.82 17.82 0 0 1-.9 3.15q-.6 1.55-1.35 3.05l-1.45 2.9a12.78 12.78 0 0 0-1 2.6 19.74 19.74 0 0 1-2.75 4.1 14.73 14.73 0 0 0-2.65 4.6q.4.1.6-.6c-.2.07-.33 0-.4-.1.27-.07.42-.2.45-.4s.22-.3.55-.3a.52.52 0 0 1 0-.65 3.6 3.6 0 0 1 .55-.45c.07.2 0 .32-.1.35s-.17.12-.1.25.3 0 .3-.2.1-.2.3 0a.35.35 0 0 0-.4-.4 3.34 3.34 0 0 0 1.4-.9c.07-.2 0-.3 0-.3s-.15-.07-.15-.2a45.59 45.59 0 0 0 2.65-4.3 31.11 31.11 0 0 0 2-4.6.63.63 0 0 0 .55-.6.49.49 0 0 1 .55-.5v-.2c.07-.07.08-.12.05-.15s-.05 0-.05.15a.41.41 0 0 1-.3-.1.55.55 0 0 0 .2-.35c0-.1.07-.18.2-.25 0 .13.07.15.2 0s.07-.12-.2 0q.5-1.2 1-2.35t.95-2.25a.62.62 0 0 1 .2.7q-.1.5-.6.3a.41.41 0 0 0 .1.3 1.18 1.18 0 0 1 .2.3 5 5 0 0 1-.65 1.1 1.41 1.41 0 0 0-.25 1.3 7.05 7.05 0 0 1 .5-1.15 10 10 0 0 0 .5-1c-.07 0-.1-.07-.1-.2h.1l.45-.9a.78.78 0 0 0 0-.8c-.13.2-.25.22-.35.05a1.89 1.89 0 0 0-.25-.35c.13 0 .2-.1.2-.3s.13-.23.4-.1c-.13-.2-.15-.35 0-.45s.08-.25 0-.45a1.85 1.85 0 0 0 .7-.55 3.28 3.28 0 0 0 .6-1c.13-.07.17-.12.1-.15s-.1 0-.1.15a.6.6 0 0 0-.4.35.64.64 0 0 1-.3.35 11.36 11.36 0 0 1 .65-2.55q.45-1.15 1-2.75c.2.2.17.43-.1.7q.5-.1.9-1.1c-.27 0-.42.07-.45.2s-.15.2-.35.2a33.89 33.89 0 0 0 1.1-3.8 39 39 0 0 1 1.1-3.9c-.13-.13-.2-.23-.2-.3a3.5 3.5 0 0 0 .55-1.7 13.42 13.42 0 0 1 .45-2.2 2.33 2.33 0 0 0-1 1.85c-.1.85-.19 1.47-.25 1.8zm-14.1 1h-.1a1.29 1.29 0 0 1-.25.35.48.48 0 0 0-.15.35c-.13.07-.17.12-.1.15s.1 0 .1-.15h.4c.07-.13.07-.23 0-.3s0-.2.1-.4c.13.13.23.12.3 0s.13-.32.2-.45q-.45-.2-.45.4zm.3 2.4q.2.3.2 0c0-.33 0-.32-.15-.05zm.3-1.2h.2v.2h-.2zm.8-3.1l.1.3-.1.3c-.13-.2-.22-.27-.25-.2s-.15.13-.35.2a1.16 1.16 0 0 1 .2-.3l.3-.3zm0 3.2c-.13.07-.23 0-.3-.15s0-.28.1-.35a.68.68 0 0 1 .25.45zm-.3 30.1q.2-.3.15 0t-.1-.05zm1-34.2a1.2 1.2 0 0 1-.7.9c-.07-.33 0-.5.25-.5s.35-.13.35-.4zm-.7 35.1h.3v-.3h-.3zm.3-1.5a.58.58 0 0 1-.2.4v-.4zm.4-33.6c0-.27.07-.33.2-.2s.11.15-.15.15zm0 34.4c.13.2.2.18.2 0s-.02-.32-.15-.05zm1.85-3.1a.17.17 0 0 1 0 .2.09.09 0 0 0-.1.1h-.1a2.44 2.44 0 0 0-.4 1 .75.75 0 0 0-.45.4 1.94 1.94 0 0 1-.35.5c.4-.07.67-.37.8-.9a1.08 1.08 0 0 0 .5-1 .09.09 0 0 0 .1-.1c.13 0 .18 0 .15-.1a.16.16 0 0 1 0-.2c.27 0 .3-.08.1-.25s-.23-.08-.1.25c-.09-.05-.14-.02-.1.05zm-1.25-31.9c.07.13.07.18 0 .15s-.02-.13.05-.2zm.3 2.2c.07-.27.1-.27.1 0s.01.22-.05-.05zm.1 30.4c.13.2.2.2.2 0s-.02-.25-.15-.05zm1.3-2.2c-.13.07-.17.1-.1.1a.09.09 0 0 0 .1-.1c.13-.13.2-.17.2-.1s.07.13.2.2a.63.63 0 0 1 .3-.3.41.41 0 0 0 .2-.4q-.8-.05-.85.55zm-.1-32c-.07 0 0-.08.1-.15.05 0 .01.08-.05.05zm.4 1.95c.13-.07.2 0 .2.2l-.1.1c-.02-.1-.05-.2-.05-.4zm1.2 27.3q-.2.1-.1.15c.07 0 .1 0 .1-.15a.18.18 0 0 1 .2.2c-.07 0-.1.1-.1.3-.2-.07-.29 0-.25.1a.57.57 0 0 1-.05.4 2.93 2.93 0 0 0-.8.7c.13.07.2.05.2 0s.07-.15.2-.15.37 0 .5-.25a2 2 0 0 0 .2-.75h.1a6.11 6.11 0 0 1 .75-1.55 2.49 2.49 0 0 0 .45-1.45 6.68 6.68 0 0 0-.7 1.4 2.84 2.84 0 0 1-.65.95zm-.8-29.6c.2-.2.2-.33 0-.4 0 .13 0 .21-.1.25s.01-.02.15.05zm1.2-1.7a3.42 3.42 0 0 1-.4.5l-.4.4a1.19 1.19 0 0 1 .85-1zm0 0h.2c.1 0 0-.1-.15-.1zm.2-.1c0-.2.07-.27.2-.2v.2zm.2 2.2c.13.07.17.12.1.15a.16.16 0 0 0-.1.15c-.13-.07-.17-.12-.1-.15a.16.16 0 0 0 .15-.25zm.1-2.4a.35.35 0 0 1 .4-.4c0 .13 0 .2-.1.2s-.07.07 0 .2zm.3 2.1c0 .13 0 .18-.1.15s.01-.18.15-.25zm0 0c0-.07.07-.17.2-.3.2.07.23.13.1.2a.8.8 0 0 1-.25 0zm.2 28.2q-.1.5.15.3c.21-.23.16-.33-.1-.4zm.2-1.3a6 6 0 0 1 .65-1.15 1 1 0 0 0 .15-1.15 2.51 2.51 0 0 1-.55 1.25 1 1 0 0 0-.25.95zm.8-30.5c.07.2 0 .3-.2.3s-.27.1-.2.3c-.13.13-.2.17-.2.1s-.12-.27.05-.4a1.72 1.72 0 0 1 .6-.4zm.2 2.3c-.13.27-.3.4-.5.4 0-.2 0-.3.15-.3a.82.82 0 0 0 .35-.2zm.5-23c-.33.07-.4 0-.2-.2s.31-.23.25.1zm.6 19.8c-.13-.13-.22-.1-.25.1s0 .27.15.2a.2.2 0 0 1 0-.15.21.21 0 0 0 0-.15c.13-.07.17-.12.1-.15s.05-.08.05.05zm.6-21.3q.2.1 0 .35a.54.54 0 0 1-.4.25 1.12 1.12 0 0 1 .2-.3 1.17 1.17 0 0 0 .25-.4zm0 20.5c-.13.2-.23.3-.3.3.11-.3.21-.4.35-.4zm.5 24.6a.41.41 0 0 0 .1-.3.54.54 0 0 0-.4.25c-.13.17-.1.28.1.35a1.09 1.09 0 0 1 .25-.4zm-.3-45.3c.13-.27.2-.27.2 0s-.02.17-.15-.1zm.1 2.7c.13.27.2.29.2.05s-.02-.35-.2-.15zm.3 20c.07-.27.1-.28.1 0s.01.1-.05-.1zm1.2 18.6c-.47 0-.63.27-.5.8-.13.07-.17.1-.1.1a.09.09 0 0 0 .1-.1h.4a.63.63 0 0 0 0-.4 1 1 0 0 1 .05-.5 4.55 4.55 0 0 0 .3-.75 8.24 8.24 0 0 1 .3-.85.68.68 0 0 0-.55.7c.06.4.05.7.05.9zm-.4-19.8h.3v.2h-.3zm.6-24c0 .27 0 .33-.15.2s0-.3.2-.3zm0 0a1 1 0 0 1 .3-.55.9.9 0 0 0 .3-.45.37.37 0 0 1-.1.55c-.2.05-.32.22-.45.35zm.5 21.2a.09.09 0 0 1-.1.1c-.02-.1.01-.13.15-.2zm0 0a.09.09 0 0 1 .1-.1.09.09 0 0 1-.05 0zm.1-.1c0-.13 0-.17.1-.1a.09.09 0 0 1-.05 0zm0 19.3c.27.07.33 0 .2-.1s-.15-.2-.15 0zm.4-.5c-.13.07-.17.12-.1.15s.1 0 .1-.15.15-.07.05-.2-.07-.17 0 .1zm-.1-17c.07-.27.1-.27.1 0s.01.17-.05-.1zm.3 16.4c.07-.13.17-.32.3-.55s.07-.42-.2-.55c.07.33 0 .55-.25.65s-.14.15.2.35zm.1-41.1c.07-.2.15-.23.25-.1s.06.07-.25 0zm.3 39.3c-.13 0-.2.12-.2.35s.07.32.2.25a.93.93 0 0 0 .1-.25 2.16 2.16 0 0 0-.1-.35c.13 0 .25-.12.35-.35a.46.46 0 0 0 0-.55.62.62 0 0 0-.2.45 1 1 0 0 1-.1.35zm.1-17.3c0-.07 0-.08.1 0s.08-.1-.05-.1zm.4 15.5a.4.4 0 0 0-.3.1c-.07.07 0 .13.1.2a.35.35 0 0 1 .35-.2c.17 0 .22-.07.15-.2s-.18-.07-.15-.2 0-.2-.15-.2c-.15.1-.15.27.05.4zm.4-13.7q.4.4 0 .5a3 3 0 0 1-.7.1v-.3a.41.41 0 0 1 .3.1c.13 0 .2-.08.2-.25s.11-.32.25-.25zm-.6 10.8l.2.2a.18.18 0 0 1-.15-.3zm.4-35.7a.09.09 0 0 1-.1.1c-.02-.1.01-.13.1-.2zm.1 38a1.92 1.92 0 0 1 .3-1 1.08 1.08 0 0 0 .1-1q-.2.5-.45 1.15c-.12.35-.1.62.1.75zm1.1-39.7a2.49 2.49 0 0 1-.55.85 4.35 4.35 0 0 0-.65.85 1.34 1.34 0 0 1 .5-.9 1.82 1.82 0 0 0 .6-.8zm-1.1 2.4c0-.2.07-.23.2-.1s.11.07-.15 0zm.3 22c0-.23-.07-.22-.2 0 .18.1.25.08.25-.15zm-.2 8.85c.13.07.2.13.2.2a.29.29 0 0 0 .1.2.4.4 0 0 0 .25-.05h.25a3.25 3.25 0 0 1 0-.7c0-.13 0-.3-.25-.5a6.85 6.85 0 0 0 .5-1c.2-.47.13-.73-.2-.8-.13.53-.23 1-.3 1.45a2.57 2.57 0 0 1-.5 1.05zm.6-31.8a.61.61 0 0 1-.15.45.48.48 0 0 0-.15.35.39.39 0 0 1-.05-.5c.15-.35.26-.45.4-.45zm-.4 2.6c.07.2.1.18.1 0s.01-.42-.05-.15zm.3 32.1a.4.4 0 0 1 .3-.1c-.2-.27-.2-.43 0-.5s.27-.27.2-.6c-.27 0-.45.17-.55.5s-.04.42.1.55zm.3-32.1a.79.79 0 0 1 .1-.5c-.2-.07-.32 0-.35.15s.1.13.25.2zm.2 30c-.07.33-.07.35 0 0s.11-.42.05-.15zm.1-4.5a.74.74 0 0 1 .2-.45c.13-.17.07-.25-.2-.25a.25.25 0 0 1 0 .4q-.16.05.05.15zm1.9-31.1a.29.29 0 0 1-.1-.2 1.39 1.39 0 0 0-1 .85 1.7 1.7 0 0 1-.85 1q.5-.8 1-1.45a4.19 4.19 0 0 1 1.25-1.15.85.85 0 0 1-.25.5c-.15-.13-.14.03 0 .3zm-1.9 34.7c.2-.07.37-.33.5-.8-.29-.15-.45.12-.45.65zm.35-4.9c.17 0 .15-.17 0-.5-.14.18-.12.35.05.35zm.15-25.9a.48.48 0 0 1 .15-.35c.1-.1.08-.18 0-.25s-.13.08-.2.25-.04.13.1.2zm-.1-2.3c.13-.07.2.07.2.4l-.2-.2zm.2 30.15c0-.23 0-.25-.1 0s.15.08.15-.15zm.1 2.75q.2.4.2 0t-.2-.15zm.2-4c-.2.13-.23.25-.1.35s.17 0 .1-.35q.2 0 .25-.35t-.15-.45a2.63 2.63 0 0 0-.15.35.76.76 0 0 0 .1.3zm0-27.2a.48.48 0 0 0 .55-.45c0-.3.25-.38.65-.25-.2-.33-.25-.57-.15-.7a3.37 3.37 0 0 0 .35-.7q-.5.5-.85.9a2.86 2.86 0 0 0-.5 1.05zm1-3.3l.2.2a.18.18 0 0 1-.15-.35zm.3-.7h.2v.3c-.07-.07-.1 0-.1.1h-.2v-.3c.11-.08.15-.11.15-.25zm.2-.5q.3.2.3.3h-.3zm.5 1.7a2.36 2.36 0 0 1-.35.3.34.34 0 0 0-.15.3c.33-.07.47 0 .4.2a.65.65 0 0 1-.3.4c.33-.07.48-.2.45-.4a4.85 4.85 0 0 1-.05-.8c.2 0 .23-.07.1-.2s-.12-.22-.05.05zm-.1-1.9q.2-.3.25 0t-.2-.15zm.7 1.35c0 .1.13.18.4.25V56a2.5 2.5 0 0 1 .2-.45c-.33-.07-.53 0-.6.2a1 1 0 0 1-.4.5c.31-.25.45-.25.45-.2zm-.2-2.05c.13.07.23 0 .3-.2s.1-.13.1.2q.7-.2.45-.5t.15-.6h-.3c0 .33-.1.53-.3.6a.64.64 0 0 0-.35.35zm0 2.9c.07.2.1.18.1 0s.01-.42-.05-.15zm.4-4.5h.3v.3h-.3zm12.5 20.3c-.33 0-.5.13-.5.4a.82.82 0 0 1-.2.6q-.4-.2 0-.6-.7-.1-.8.3h-.3a.6.6 0 0 0 .1-.6 6.59 6.59 0 0 1 .85-.15.78.78 0 0 0 .65-.55 40 40 0 0 0-6.3 3.25q-2.9 1.85-5.6 3.85a.25.25 0 0 0 .4 0q.2-.2.3.2-.8.4-.9.9c.27.13.48 0 .65-.35s.38-.45.65-.25a1.62 1.62 0 0 1-.55.5 2.5 2.5 0 0 0-.55.4c.13.07.2.23.2.5a.46.46 0 0 0 .5-.3c.07-.2.27-.27.6-.2-.07-.33.12-.62.55-.85a2.47 2.47 0 0 1 1.15-.35.36.36 0 0 0 .2-.35c0-.17.07-.25.2-.25q-.1.3.15.25c.17 0 .25-.08.25-.15a.41.41 0 0 0-.1-.3q-.1-.1.1-.3c.13.33.3.38.5.15s.37-.42.5-.55q-.4-.1-.5.15c-.07.17-.23.25-.5.25a1.91 1.91 0 0 0-.7.25c-.33.17-.57 0-.7-.45a1.15 1.15 0 0 1 .7-.15c.2 0 .37-.08.5-.35a.39.39 0 0 0 .4.3q.4-.3.9-.75a1 1 0 0 1 1.1-.25l-.55.35a1.29 1.29 0 0 0-.45.65 10 10 0 0 1 1-.55 1.37 1.37 0 0 0 .75-.85q.5.2.5-.2a1.12 1.12 0 0 0 .4-.2q.1-.1.5.1A12.82 12.82 0 0 1 408.1 75a2.24 2.24 0 0 1 1.55-.6q.1-.7 1.2-.9a2.39 2.39 0 0 0-.45-.35q-.25-.15.15-.45a1 1 0 0 0 .85-.2.54.54 0 0 1 .75 0c-.13.13-.23.2-.3.2.13-.13.1-.2-.1-.2a.34.34 0 0 1-.15.3q-.15.1 0 .4l.9-.55a.83.83 0 0 0 .4-.75q.3.1.3-.15t.3-.15a.32.32 0 0 1-.2.3c-.13.07-.1.13.1.2a.58.58 0 0 0 .2-.4c0-.13.17-.13.5 0a.34.34 0 0 0 .1-.25.81.81 0 0 1 .1-.35 16.79 16.79 0 0 0-3.75 1.6zm-11.3 6.5c.13-.27.2-.28.2 0s-.02.05-.15-.15zm.8-.5a.41.41 0 0 1-.5.2c-.07-.13 0-.2.1-.2zm.9.2q-.1.4-1.1.6.2-.55 1.15-.75zm-.4-2.25c.07 0 0 .08-.1.15.05-.28.08-.33.15-.3zm1.4-.55a.9.9 0 0 1-.4.1.18.18 0 0 0-.2.2q.4.4.6-.3c.13-.07.17-.12.1-.15s-.05-.1-.05 0zm2.4-.3a.4.4 0 0 1-.2.4.63.63 0 0 0-.3.3c-.13 0-.17 0-.1-.1a.29.29 0 0 0 .1-.2.91.91 0 0 0-.7.55c-.13.3-.43.42-.9.35l1-.75a3.32 3.32 0 0 1 1.15-.7zm2.6-1.5a.66.66 0 0 1-.3.3 1.48 1.48 0 0 0-.4.3.25.25 0 0 0 .4 0 .57.57 0 0 1 .4-.2c0 .07.07.17.2.3a1.38 1.38 0 0 1-.8.65 1 1 0 0 0-.7.65c-.27 0-.43.07-.5.2a.66.66 0 0 1-.65.05c-.17-.1-.18-.32 0-.65.33.07.52 0 .55-.1s.15-.1.35.1c0-.27.15-.38.45-.35s.42-.12.35-.45a.76.76 0 0 0-.6 0l-.55.3a.85.85 0 0 1-.4.15c-.1 0-.18-.1-.25-.3a1.23 1.23 0 0 0 1.3-.45 1.35 1.35 0 0 1 1.2-.65zm0 0c-.07-.27 0-.37.15-.3s.25.17.25.3zm2.1-.9c.27 0 .4 0 .4.1a2.2 2.2 0 0 1-1 1.1c-.53.33-.9.3-1.1-.1a2 2 0 0 1 .4-.15c.13 0 .2-.15.2-.35-.27 0-.4-.07-.4-.2a.45.45 0 0 1 .25-.25.46.46 0 0 0 .25-.25.6.6 0 0 1 .4.4c-.07 0-.2.1-.4.3a2.86 2.86 0 0 1 .65-.1c.21-.15.35-.32.35-.65zm-.3 0c0 .13 0 .18-.15.15s-.12-.12 0-.25.1 0 .1 0 .03-.05.1-.05zm1.7-1.4a30.75 30.75 0 0 0 4-1.3 17.76 17.76 0 0 1 4.2-1.1 12.07 12.07 0 0 0-1.45-.1 3.06 3.06 0 0 1-1.15-.2 4.92 4.92 0 0 1-2.8 1.45 5.75 5.75 0 0 0-2.75 1.1zm4.3-.3c.13.07.23 0 .3-.2a.54.54 0 0 0-.5-.15c-.2 0-.3.12-.3.25a1.13 1.13 0 0 1 .55-.05zm-.1-.7c.27.27.5.23.7-.1a1 1 0 0 1-.4 0c-.02-.23-.12-.18-.25-.05zm.8.5c.07-.13 0-.27-.2-.4q.05.25.25.25zm.6-.75a.93.93 0 0 1 .5.05c0-.27 0-.4-.1-.4q-.2.3-.45.15c-.17-.1-.28 0-.35.35a2.11 2.11 0 0 1 .4-.3zm-.1 1.15c.13.2.2.18.2 0s-.02-.42-.15-.15zm1.7-2.8c0-.2.07-.23.2-.1s.11.02-.15-.05z"/></g></svg>