<svg xmlns="http://www.w3.org/2000/svg" viewBox="0 0 221.41 191.96"><defs><style>.cls-1{fill:#fff}</style></defs><title>wayfinder</title><g id="Layer_2" data-name="Layer 2"><g id="Layer_1-2" data-name="Layer 1"><path class="cls-1" d="M101.28 39.74c.1-.01.01.07 0 0zm40.48 24.15a.4.4 0 0 1 .21 0 .4.4 0 0 0-.21 0z"/><path class="cls-1" d="M146.43 66.39a1.55 1.55 0 0 0-.36.47c-.18.23-.35.61-.56.63a2 2 0 0 0-.9.39c-.2.09-.52.06-.49.34 0 .07-.4.19-.6.28a14.46 14.46 0 0 1-3.88.86c-.72.08-1.53.32-2.25.46s-1.43.3-2.16.38a3.76 3.76 0 0 0-1.54.24c-.39.26-.95 0-1.32.36 0 .07-.21 0-.31 0a7.19 7.19 0 0 0-1.24.14c-.3.11-.73.08-1 .19s-.84 0-1.12.27h-.1a9.31 9.31 0 0 0-1.35.08 5 5 0 0 1-1 .18c-.41 0-.92.17-1.33.22l-1.24.14c-.41 0-.85-.12-1.23.21-.45-.31-.82.17-1.24.14a8.85 8.85 0 0 0-1.35.08c-.21 0-.3.18-.5.2a2.61 2.61 0 0 1-1 .11c-.32-.11-.72.15-1 .18-1 .11-2 .22-2.91.25a5.5 5.5 0 0 0-1.89 0c-.41.12-.84-.05-1.15.06a5.48 5.48 0 0 1-1 .18c-.51.06-.95 0-1.46 0a7.23 7.23 0 0 0-2.16.32c-.41.11-.43-.1-.64-.08a12 12 0 0 1-1.66.11c-.42 0-.8.31-1.24.14-.28.32-.52 0-.83 0s-.93.1-1.46.09a3.55 3.55 0 0 0-1.23.21c-.4.19-.65-.14-1 .11a2.91 2.91 0 0 1-1.34.15 2.14 2.14 0 0 1-1.15 0c-.8.3-1.59-.18-2.5.13a.63.63 0 0 1-.52.06c-.76-.28-1.55.17-2.28.19-.32 0-.71.22-1.15.05-.11-.06-.41.12-.6.21s-.34-.25-.63 0a.92.92 0 0 1-.41.11 3.62 3.62 0 0 1-1.25.07c-.32-.11-.6.28-.93.17s-.7.3-1 .11c-.29.25-.53-.08-.83 0s-.51.12-.71.22-.56-.3-.84 0a12.37 12.37 0 0 0-1.55.17 14.07 14.07 0 0 0-1.66.12 14.44 14.44 0 0 1-1.77.12c-.42 0-.82.16-1.16-.09h-.31a8.42 8.42 0 0 1-3 .4c-.53 0-1.06.06-1.59.1l-1.68.16-5.08.57c-.16-1.44-.31-2.9-.42-4.34a5.49 5.49 0 0 0-.25-.8.92.92 0 0 1-.06-.34.43.43 0 0 1 .15-.27c-.24-.18 0-.63-.17-.92s-.09-.83-.14-1.24a7.51 7.51 0 0 0-.14-1.24 48.28 48.28 0 0 1-.62-5.59 4.2 4.2 0 0 0-.1-.93c0-.31-.14-.61-.17-.92a6 6 0 0 0-.05-1.14l-.11-1a14.41 14.41 0 0 0-.4-3c-.1-.2-.14-.61.07-.64s.32.28.41.48a1.66 1.66 0 0 1 0 .63.3.3 0 0 0 0 .41c.08.1 0 .41.26.39s.16-.54.08-.63a1.3 1.3 0 0 1-.14-1.24.71.71 0 0 0 0-.32c-.32-.28-.24-.81-.28-1.22l-.15-1.35a7 7 0 0 0 0-1.26 5.06 5.06 0 0 0-.26-1.75 1.74 1.74 0 0 1-.07-.62 2 2 0 0 0 .07-.64v-.97a3.88 3.88 0 0 1-.24-1.55c0-.4-.4-1-.14-1.26a1 1 0 0 0-.32-.87.73.73 0 0 1-.19-.41 1.26 1.26 0 0 0 0-.17c.52-.06.86-.37 1.63-.19a5 5 0 0 1 2.07-.37l.97-.07a2.14 2.14 0 0 1 .7 0 1.68 1.68 0 0 0 1-.18c.3-.11.41-.12.63 0s.31 0 .51-.13h.31c.27.54.85.12 1.38.21.11 0 .1-.09.2-.1-.11 0-.11-.06-.22 0h-.21l-.22-.12a.25.25 0 0 1 .2-.09c.62-.07 1.25-.07 1.87-.14l1.14-.13a2.69 2.69 0 0 0 1-.18c.19-.17.74 0 .93-.18s.52 0 .82-.16.74.06.93-.1.53.09.82-.16c.09-.15.62-.07.93-.1a7.28 7.28 0 0 1 1.22-.28c.41-.12.84 0 1.23-.28.09-.08.42 0 .63.08a1.14 1.14 0 0 0 1.25-.07 1 1 0 0 1 .5-.2c.82-.16 1.66-.18 2.36-.41a1.29 1.29 0 0 1 .84 0 1.55 1.55 0 0 0 .95 0A7.34 7.34 0 0 1 90 39a6 6 0 0 1 1.13-.13c.42 0 .84.05 1.14-.13s.52 0 .82-.16c.11 0 .65.15.74.06a1.64 1.64 0 0 1 .82-.16 5.53 5.53 0 0 1 1.15-.05c.32.11.48-.35.92-.17.21 0 .61-.14.92-.18a6 6 0 0 1 1.14-.13l1.14-.13c.11 0 .1-.08.19-.17a5.66 5.66 0 0 0 2.71-.08l1.63-.4c.25.34.73-.08.73 0 .24.26.49-.34.63 0a11.56 11.56 0 0 1 2.69-.3c1.66-.11 3.19-.5 4.86-.54.18-.31.52-.06.82-.16a4.92 4.92 0 0 1 1-.11l1.14-.13c.31 0 .61-.21.82-.16s.55.23.74.07.55.16.72-.15h.21a8.28 8.28 0 0 0 3-.19c.61-.14 1.2-.49 1.86-.21l.52-.06c.42 0 .83-.09 1.25-.06s.92-.17 1.36 0a6.9 6.9 0 0 0 1.12-.2 5.15 5.15 0 0 0 1-.26 2.64 2.64 0 0 1 1 0 6.05 6.05 0 0 0 1.15-.05c.31 0 .74.06 1-.26.35.32.62-.07.93-.1h.42c0 .43.44.24.75.13a4.08 4.08 0 0 1 .92-.18l4.42-.34 2.25-.17 2.53-.21.77-.11c.4.22.74.39 1.06.58a9.82 9.82 0 0 0 .94.73 17.16 17.16 0 0 1 1.73 1c.32.27.75.37 1 .82a1.5 1.5 0 0 0 .49.2.69.69 0 0 1 .45.27c.14.17.37.39.49.38.38 0 .63.38 1 .41s.5.38.77.54l2.19 1.4c.09.05.05.12.14.17-.09-.05-.16.06-.25 0s-.3-.09-.49-.2l-.89-.53c-.09-.05-.13 0-.22 0 .09.05 0 .11.14.17.43.5 1 .76 1.39 1.33.51 0 .81.48 1.23.57l.18.11c.31.69 1 .7 1.54 1.09.32.27-.07-.29.23-.2a2.59 2.59 0 0 1 .63.38c.36.21.51.56 1 .7.22 0 .51.56.64.55s.45.27.66.31a3.67 3.67 0 0 1 .84.42c.05.12.05.12 0 .18l.09.05c-.09-.05-.09-.05-.14-.17.71-.17 1.31.45 1.93.82 0-.07.1.06.07.12h-.14a4 4 0 0 1-1.24-.57c-.09-.05-.12 0-.21 0s0 .17.11.23a6.28 6.28 0 0 0 2 1.12c.15 0 .31.18.41.25.3.18.54.41.84.59a6.26 6.26 0 0 0 1 .6 3.15 3.15 0 0 0 1 .6 1.58 1.58 0 0 1 .32.11c-.19.19-.62.31-.73.48a4.18 4.18 0 0 1-1.18 1.28c-.53.4-1.06.69-1.25 1.26a1.48 1.48 0 0 1-.4.28 1.36 1.36 0 0 0-.94.87c-.08.37-.53.2-.73.58a5.22 5.22 0 0 1-.76.71c-.28.16-.59.44-.86.6s-.36.53-.64.69a16.24 16.24 0 0 0-2.08 1.73c-.22-.08 0 .6-.38.35-.19-.21.21-.38.36-.52.79-.83 1.71-1.68 2.55-2.46.23-.21.17-.73.64-.69.31-.28.48-.55.79-.83a6.31 6.31 0 0 1 .84-.78l.83-.77c.35-.33.88-.62 1-1 0-.09.44-.22.6-.36a.93.93 0 0 0 .25-.43.13.13 0 0 1 0-.14c-.07.06-.16.06-.23.12a6.71 6.71 0 0 0-.89.73 4.71 4.71 0 0 0-.79.63c-.13.12-.3.23-.45.34a1.22 1.22 0 0 0-.39.43c-.13.32-.5.37-.51.67-.53.2-.64.69-1.07 1s-.69.64-1.12.94a13.82 13.82 0 0 0-1.2 1.3 16.84 16.84 0 0 0-1.37 1.27 2.89 2.89 0 0 1-1 .87 3 3 0 0 0-.94 1 8.39 8.39 0 0 1-1 .92c-.38.36-.91.55-1 1s-.48.25-.74.58a2.1 2.1 0 0 1-.64.69c-.23.21-.49.55-.86.6 0-.05-.12 0-.12 0-.26.34-.37.83-.94 1a1.5 1.5 0 0 0-.92.85.88.88 0 0 1-.35.23 1.58 1.58 0 0 0-.89.72c-.1.2-.53.2-.56.62a.3.3 0 0 1-.22-.09c.1-.19-.06-.52.41-.47 0-.3.51-.37.64-.69s.53-.49.84-.78a7.2 7.2 0 0 0 1-.79l.84-.78c.3-.28.59-.74.79-.83.53-.2.69-.64 1.07-1a3.35 3.35 0 0 0 1.07-1c.1-.19.56-.32.66-.51a1.69 1.69 0 0 1 .51-.67 10.81 10.81 0 0 0 2.16-2.3c.23-.21.68-.34.78-.53a1.52 1.52 0 0 1 .64-.69c.5-.07.44-.6.76-.71l.08-.37c-.17 0-.28.16-.38.35a.85.85 0 0 1-.26.34c-1.22 1.13-2.42 2.14-3.61 3.15 0-.05-.12 0-.25 0 .07-.07 0-.12.1-.19l.08-.07c1.52-1.12 2.73-2.72 4.2-3.89.3-.28.43-.6.74-.88a6.35 6.35 0 0 0 .79-.83 9 9 0 0 1 1-.88l.81-.67a1 1 0 0 0 .78-.42 4 4 0 0 1 .39-.57V49l.24-.21A8.59 8.59 0 0 1 163 48a2.27 2.27 0 0 0-.34-.32 1.6 1.6 0 0 0-.81-.29c-.2-.28-.45-.27-.71-.43a5.18 5.18 0 0 1-.89-.53c-2.55-1.61-5.18-3.1-7.7-4.77-.09-.05-.36-.21-.39-.15a.45.45 0 0 1-.59 0c-.19-.29-.28-.34-.54-.32l-.1-.23c-.06-.11-.07-.29-.16-.34-.68-.49-1.3-.86-2-1.29a.28.28 0 0 1-.2.13v-.11s-.09-.05-.13 0 0 .06.09.05c0 .06.09.05.09.05a2 2 0 0 1 .81.48c0 .11 0 .17.07.29-.09-.06-.21 0-.31-.1-.5-.38-1.23-.57-1.49-1.15a17.19 17.19 0 0 0-2.36-1.33 2.61 2.61 0 0 1-.5-.27 2.46 2.46 0 0 0-.21-.16h-.17c-.06 0-.14.08-.2-.07a.61.61 0 0 1-.23 0h-.58a3.07 3.07 0 0 0-1.22.25c-.2.09-.65-.15-.74-.06a.66.66 0 0 1-.72.08.9.9 0 0 0-.73 0 3.85 3.85 0 0 1-1.55.24 5.78 5.78 0 0 1-1.14.06c-.32 0-.49.34-.82.16s-.82.16-1.06-.1c-.6.28-1.46.09-2.06.3a3.3 3.3 0 0 1-1.66.18c-.21 0-.3.11-.51.13a2.5 2.5 0 0 1-.84 0c-.23-.19-.41 0-.63 0s-.6.21-1 .18a6.34 6.34 0 0 0-1.14.06c-.41 0-.85-.13-1.13.19h-.21c-.33-.18-.55-.23-.84 0-.2.09-.63 0-.93.17s-.51.13-.82.16-.84-.05-1.13.19h-.21a13 13 0 0 0-3.75.13c-.31 0-.65-.21-1 0a.78.78 0 0 1-.95 0 5.22 5.22 0 0 1-1.82.56 2.58 2.58 0 0 1-1 .19 20.07 20.07 0 0 0-3.65.11 1.5 1.5 0 0 1-1.35.15 2.58 2.58 0 0 0-1 .26 2.85 2.85 0 0 1-1.85.34c-1 .47-2.08.16-3.08.56a2.65 2.65 0 0 1-1.46 0 2.11 2.11 0 0 0-.94 0c-.31 0-.5.2-.72.15a12.42 12.42 0 0 0-3.39.22 1.85 1.85 0 0 0-1.23.21 2 2 0 0 0-1.15 0 7.2 7.2 0 0 0-1.25.06c-.31 0-.59.35-.93.1-.18.24-.73 0-.91.25-.44-.17-.82.16-1.24.14-.11-.06-.41 0-.51.13-.48.41-1 .25-1.65.25l-.76-.14h-.31v.28a2 2 0 0 0-.75-.13 8.47 8.47 0 0 0-1.35.08 1.75 1.75 0 0 0-1.21.42c-.19.17-.59.35-.71.22a.91.91 0 0 0-1 .11 8.31 8.31 0 0 1-2.27.32c-.47-.53-1-.25-1.57 0a.64.64 0 0 1-.52.06 1.72 1.72 0 0 0-1.56.1c-.34-.25-.74 0-1.15.06a7.56 7.56 0 0 1-1.24.14 8.93 8.93 0 0 0-2.37.33c-.5.2-1.06-.1-1.66.11a19 19 0 0 1-2 .44.73.73 0 0 1-.42 0 .44.44 0 0 0-.19 0s-.06 0-.08.12-.19.09-.37-.1h-.1c-.17.28-.55.17-1 .18v.1c0 .09-.12.14-.19.2s.33.4.12.46.1.28.11.37 0 .25.11.4 0 .42 0 .63-.1.43 0 .52a4.29 4.29 0 0 1 .27 2.48c0 .1.09.2.1.3a12.91 12.91 0 0 1 .4 2.36 20.32 20.32 0 0 0 .25 2.91c0 .31-.15.54 0 .95a7.52 7.52 0 0 1 .14 1.24 5.53 5.53 0 0 1 .05 1.14c-.11.33.28.6.11 1s.08.73.2 1.13a3.68 3.68 0 0 1 0 .94c0 .21.06.52 0 .63-.18.33.19.4.14.61a2.51 2.51 0 0 0 0 .73c0 .1 0 .22-.12.22l-.16-.19a.49.49 0 0 1-.11-.3v.32a5.79 5.79 0 0 0 0 1c0 .11-.06.11 0 .22 0-.1-.08-.09-.1-.2v-.1c0-.31.07-.64-.17-.92v.94c0 .31 0 .73.27 1.12.08.09 0 .63-.05.84 0 .52 0 .95.28 1.22a.42.42 0 0 1 0 .41c-.06.11 0 .41.07.62s.2.5.14.61a1.6 1.6 0 0 0 0 1.15 3.06 3.06 0 0 1 .06 1.2c0 .2 0 .41.11.35s.35-.12 0 .24a.6.6 0 0 0-.1.36 1.24 1.24 0 0 1 .17.45 9.92 9.92 0 0 0 1.31-.24c.24-.1.53 0 .77-.23 0-.07.21-.09.21 0 .19.27.65-.07.95 0a1.42 1.42 0 0 0 .92-.17c.1-.08.41 0 .62-.07a18.21 18.21 0 0 0 3.93-.43c.41-.11.84 0 1.14-.13s.64.15 1 0a2.13 2.13 0 0 1 1.14-.13c1.57 0 3.2-.42 4.76-.52a.62.62 0 0 0 .29-.17c0-.07-.12-.13-.23-.19s-.11-.06-.22 0l.1-.08 2.36-.41c1.33-.29 2.69-.3 4-.52a4.86 4.86 0 0 1 1.46-.09c.32 0 .38-.33.82-.16.21 0 .6-.21.93-.17s.55.3.83 0a2.52 2.52 0 0 1 .72-.08l1.14-.13c.41 0 .95 0 1.24-.14s.54.16.94 0c.09-.15.4-.19.6-.21a3.16 3.16 0 0 1 .83-.09 9.4 9.4 0 0 0 2.82-.09s.1-.08.09-.16l1.16.09c.27-.39.64.14.92-.17.1-.08.53.08.73 0a3.19 3.19 0 0 1 1.88 0c.11.06.4-.19.52 0 .3-.11.49-.34.69-.36s.54.15.64.07c.28-.32.71-.22 1-.25a5.14 5.14 0 0 0 2.06-.3c.19-.17.66.29.93-.1.33.18.65.21.71-.22.31 0 .8-.3 1 .11a1.69 1.69 0 0 0 .32.1c.39-.26.73 0 1.15-.05s.69-.36 1-.11a8.32 8.32 0 0 1 2.27-.32 6.91 6.91 0 0 1 1.13-.19c.43.1.71-.22 1-.11h.11c.56-.64 1.42-.45 2.24-.54a27.64 27.64 0 0 1 3.41-.45 1.94 1.94 0 0 0 .6-.21c.1 0 .2-.1.3-.11a.5.5 0 0 1-.32 0c-.32 0-.6.28-.92.17s-.4.19-.63 0-.53 0-.84 0h-.73a3.62 3.62 0 0 1 .8-.3c.92-.17 2-.29 2.89-.39a2.64 2.64 0 0 0 1-.26 2 2 0 0 1 .71-.22c.31 0 .43.1.73 0 .71-.22 1.54-.24 2.26-.4l1.84-.42c.1 0 .2-.09.3-.11 1-.11 2-.22 3-.4.41 0 .71-.22 1.12-.26a6 6 0 0 1 1.14-.13c.52-.06.62-.07.85.12l-.72.08c-.1 0-.09.08-.2.09.11.06.12.13.23.19s.32 0 .42 0l.6-.28v-.07a2.23 2.23 0 0 0 .53.08 11.6 11.6 0 0 1 2.72 0c.64.07 1.29.29 1.93.43v.21c-.18.31-.18.31.15.41s.64.15.25.4a3.79 3.79 0 0 0 .58.51c.41-.12.43.05-1.54.27zM165 49.56c-.06.05-.06.05-.2.09s0 .12-.08.17.14 0 .2-.09-.03-.11.08-.17zm-1.22-2.09c.12 0 .06 0 .17-.15a.11.11 0 0 1-.13 0c-.06.05 0 .09 0 .14zm1.31.87l.3-.07a.24.24 0 0 1-.17 0c-.15 0-.08.04-.22.06zm.85.35c-.07 0-.18 0-.24-.06s-.08.07-.08.1h-.07c-.05 0 .06 0 0 .09.16-.06.22-.11.38-.16zm-2.27-2.44a.39.39 0 0 1 .14.17c.36.05.49.38.71.43a14.36 14.36 0 0 1 2.14 1.2 4.24 4.24 0 0 0 .76.3h.21c-.1-.06 0-.07-.08-.13-.3-.18-.6-.27-.88-.44s-.39-.32-.59-.44H166c0-.09-.21-.21-.31-.27s-.56-.25-.75-.37l-.58-.35a1.69 1.69 0 0 0-.56-.17c-.09.11-.09.11-.18.06zm-2-1.12c.05.12.14.17.19.29s.31.1.4.15c-.09-.05-.14-.17-.23-.22s-.27-.06-.41-.23zm-3.84-3.3c-.13 0-.17.07-.11.18 0-.06.12 0 .12 0v-.17zm-6.25-4.16c.06.12 0 .18.1.23s.31.1.4.15c-.05-.12 0-.17 0-.17a1.89 1.89 0 0 0-.55-.22zm-24.35-2.29l.11.06c.1-.08.1-.08.09-.15s-.14.07-.25.08zm-.2 2l.11.06c.09-.08.09-.08.09-.15a.41.41 0 0 0-.23.04zm-4.51-2c.1 0 .11.06.11.06s.11 0 .1-.08c-.15.02-.15.02-.26-.04zm-3.92.57c.11 0 .11.06.21.05s.2-.1.3-.11c-.1 0-.11-.05-.21 0s-.36-.07-.35 0zm-.06 2.31c-.09.08-.08.15 0 .21s.1-.08.1-.08-.11-.06-.12-.13zm-1.34-.79v.21c0-.07.1-.08.1-.08s-.14-.12-.15-.19zm-3.62 1.33v-.21l-.1.08c0 .07.11.06.12.13zm2.17-.24c0 .07.12.13.12.13s.2-.09.3-.11-.12-.13-.12-.13a.5.5 0 0 0-.35.06zm-.82-.77h-.1l.12.13c.22 0 .33.11.54.16l.1-.08c-.06-.12-.18-.18-.71-.26zm-.22-.12zm-.4.12a.59.59 0 0 0 .32.11c.11 0 .21 0 .2-.09s-.37-.1-.57-.08zm-.41 1c0 .07.11.06.23.19l.48-.41h-.32c-.11 0-.47 0-.44.21zm-.51-.8c.11 0 .11.06.21 0s.2-.1.3-.11c-.1 0-.11-.06-.21 0s-.25.12-.35.12zm-.4.12v.21l.09-.08c-.08-.09-.14-.08-.15-.15zm-17 2.38c0-.14 0-.14-.12-.13l-.1.08a.44.44 0 0 1 .15.03zm8.1-.61c.08-.15.08-.15 0-.21s-.1.08-.1.08.11.06.12.13zm6.7-1a.39.39 0 0 1-.21 0 .22.22 0 0 0-.08.23s0 .07.11.06.01-.17.11-.26zm1.77-.12v.14h.31v-.07a.51.51 0 0 1-.38-.04zM101 37.9h.32l.52-.06c.11 0 .1-.08.2-.09-.1 0-.11-.06-.21-.05h-.42a.65.65 0 0 1-.41.2zm-.52 0v.22l.1-.08c0-.07-.11-.06-.12-.13zm-7.54 1c.11.06.21 0 .33.11s.3-.11.4-.12h-.32zm-.65 1.73h.52a10.22 10.22 0 0 0 1.45-.16c.3-.11.6-.21.84 0 .28-.25.61-.14.91-.24s.65.21 1 0c.45.24.71-.22 1.14-.13.11.06.11.06.12.13l.19-.16c.42 0 .87.26 1.25-.07 0-.07.3-.1.31 0 .35.32.52 0 .82-.16.1-.08.3-.18.33.1l-.09.08h.1V40l.1-.08-.11-.06.1-.08a2.15 2.15 0 0 1 .91-.24l.83-.09c0 .07 0 .07-.08.22s-.11 0-.1.08l.1-.08c-.11 0-.11 0-.1.08l.1-.08-.11-.06.1-.08a.6.6 0 0 0 .29-.18c.31 0 .45.24.83 0a3.37 3.37 0 0 1 1.22-.35c.31-.11.66.22 1 0a2.48 2.48 0 0 1 1.24-.14c1.15 0 2.26-.39 3.41-.45.32 0 .6-.28.94 0a1.84 1.84 0 0 0 .4-.19c.1 0 .1-.08.09-.15-.32 0-.65-.15-.84-.05a2.6 2.6 0 0 1-1 .18 5 5 0 0 1-1 .11 4.07 4.07 0 0 1-.92.17 4.08 4.08 0 0 0-.92.18 6.08 6.08 0 0 0-2.27.32c-.33-.18-.73 0-.95 0s-.4.19-.71.15a8.12 8.12 0 0 0-1.87.13 3 3 0 0 1-1.76.12h-.21a2.64 2.64 0 0 1-1.43.3c-1 .11-2.07.23-3.11.27a2.51 2.51 0 0 0-1.22.28.3.3 0 0 1-.41 0 2.64 2.64 0 0 0-.73 0c-.35-.04-.84.22-.72.36zm-4.78 2.25q-.14.13 0 .22c0-.07.1-.08.1-.08s-.11-.06-.12-.13-.09.03 0-.05zm-8.66 1.24c.11 0 .11.06.22 0s.2-.09.3-.1a.26.26 0 0 1-.21 0c-.16.04-.16.04-.33.06zm-6.07-1.85l.11.06c.09-.08.09-.08.09-.15a.41.41 0 0 0-.22.05zm-3.31-.57c-.1.08-.09.15 0 .21s.09-.08.09-.08-.11-.06-.12-.13zm-7.47.85h.21l.91-.1a5.37 5.37 0 0 0 1.33-.22c-.46.05-1 0-1.43.09l-.94.1zm1.82 7.1c.08.09.15.09.22 0s-.09-.09-.09-.09-.06.11-.13.12zm-1.18 9.55c.16.09.16.09.22 0s-.08-.09-.08-.09-.06.11-.13.12.12.07.03-.02zm3.36-.15c.08.1.15.09.21 0s-.08-.09-.08-.09-.13.04-.13.09zm-2.66 3.22c.15.09.07 0 0-.21a10.24 10.24 0 0 1-.23-1.44c0-.1-.09-.2-.1-.3 0 .1-.06.11 0 .21l.08.72.09.83c-.02.11.06.21.13.2zm.26 1a.45.45 0 0 1 0-.22 2.65 2.65 0 0 0-.27-.49c-.07 0-.13.12-.13.12a.84.84 0 0 0 .12.41c.02.13.09.12.25.21zm3 .19a.58.58 0 0 1 0-.32c-.1-.2-.25-.29-.34-.49a.44.44 0 0 1 0 .22 2.57 2.57 0 0 0 .35.62zm-3.3.68c.06-.11.13-.12.12-.22s-.11-.31-.12-.41c-.06.11-.13.12-.13.12a2.57 2.57 0 0 1 .13.54zm2.86-.11c.15.09.14 0 .21 0s-.08-.09-.08-.09-.06.11-.13.12zm-2.24 3.18A.44.44 0 0 1 64 67a4.44 4.44 0 0 1-.32-1.64 2.56 2.56 0 0 0-.22-.71c0-.1-.08-.09-.08-.09l-.06.11c0 .42.1.93-.07 1.26.23.18.2.5.23.81zm.16 2.7h.21c-.07 0-.08-.09-.08-.09s-.06.11-.12.12zm.26 2.34c0-.2.17-.38.16-.5a2.21 2.21 0 0 0-.41-.48l-.06.11c.1.2.11.3.2.5s.09.22.11.4zM66.55 77l.57-.28a.26.26 0 0 0-.23-.12c-.15 0-.54 0-.68.22-.04.07.07.13.34.18zm.57.08a.37.37 0 0 0-.29 0 .37.37 0 0 1 .29-.01zm2.75-.45c-.16-.06-.32 0-.48-.09s-.46.12-.62.14a1 1 0 0 0 .47.09c.16-.02.32-.11.63-.15zm3.43-.23a3.92 3.92 0 0 0-.87-.26l-.1.08c0 .07.11.06.12.13s.44.17.64.15.11-.1.22-.11zm.72-.08c0-.07-.12-.13-.12-.13s-.2.09-.3.11.12.13.12.13.2-.11.28-.12zm.18-.32c.1-.08 0-.14 0-.21s-.1.08-.1.08.11.06.12.13zm11.29-4q.15-.13 0-.22c0 .07-.09.08-.09.08s.11.06.12.13zm4.24-.47c.09-.16 0-.22 0-.14a14.33 14.33 0 0 0-1.77.12.6.6 0 0 0-.08.23c0 .07.12.13.22.12a6.85 6.85 0 0 1 1.64-.32zm.52-.06c.1-.08 0-.14 0-.22l-.09.08c0 .07.11.06.12.13zm1.66-.18c-.1 0-.11-.06-.21 0s-.2.1-.3.11a.25.25 0 0 1 .21 0 .52.52 0 0 1 .3-.08zm2-.29c0-.07-.12-.13-.13-.2a.71.71 0 0 1-.3.1c.11.06.23.19.34.25s.05-.04.04-.15zm35.72-4.58c-.11-.06-.23-.19-.33-.18s-.3.18-.39.26c.11.06.21 0 .32.1s.26-.07.35-.15zm.82-.16c-.1 0-.11-.06-.11-.06s-.1 0-.09.08a.19.19 0 0 1 .15.01zm3.67-.91h-.32l-.72.08c-.31 0-.63 0-.81.24-.22 0-.34-.18-.52.06s-.4.19-.71.22a.56.56 0 0 0-.08.22c0 .07.12.13.22.12.91-.32 1.83-.49 2.74-.73.08-.03.08-.09.15-.18zm1.14-.13c-.1 0-.11-.06-.21 0l-.11-.06a1.84 1.84 0 0 0-.61.14.43.43 0 0 0 .13.2 1.84 1.84 0 0 1 .75-.24zm1.74-.41c0-.35-.21 0-.41 0a6 6 0 0 0-1.15.05c-.1 0-.09.08-.2.1l.11.06c.09-.15.31 0 .32 0a5.17 5.17 0 0 1 .61-.14c.4.43.47.06.67-.03zm1.34-.22l-.11-.06a.08.08 0 0 0 0 .14c-.05-.03-.05-.03.05-.04zM160.83 56c.21-.09.28-.16.49-.25v.12c-.1.19-.11.5-.41.48s-.47.25-.53.49a.53.53 0 0 1-.28.16l-.09-.1c-.05-.06 0-.18.05-.25l.54-.5a.49.49 0 0 1 .23-.15z"/><path class="cls-1" d="M62.53 56.5c-.07 0-.06.11-.13.12h-.07a2 2 0 0 1-.41-1.11l.06-.11a1.52 1.52 0 0 1 .55 1.1zm100.19-2.43c.15-.14.32-.11.53-.19-.08.07-.18.27-.26.34l-.38.35-.46.43c-.07.07-.12 0-.18 0a7.93 7.93 0 0 0 .75-.93zm-2.85-.77a.56.56 0 0 1-.07-.23 7.17 7.17 0 0 1 .91-.85s.08-.07.12 0 0 .12 0 .12c-.3.28-.66.52-.74.88zm3.06-5.56v.16h-.09l-.22-.05h-.16l-.22-.08c-.09-.05 0-.11 0-.18-.13 0-.09-.06 0 0l.45.15zm-.67 3.26c.08-.07 0-.12.1-.19s.23-.21.26-.34a.23.23 0 0 1 .32-.2h.06a.45.45 0 0 0-.06.1 1.12 1.12 0 0 1-.13.17l-.15.14-.3.28c-.05.04-.1.04-.1.04zm5.51-3.53a4.54 4.54 0 0 1 .7.34l.87.52-.09.08a1.38 1.38 0 0 1-.35.12v-.08l.08-.08-.59-.35c-.25-.24-.79-.4-.62-.55zm-4.17 5.87c.13 0 .23.09.35.07a1.41 1.41 0 0 0-.18.26c-.2.09-.37.06-.57.15.02-.12.1-.19.4-.48zM67.09 72.39l-.09-.67.08.09v.49a.09.09 0 0 0 .01.09zm31.03-34.75h-.31a1.76 1.76 0 0 0 .39-.26c0 .13.13.2.14.27a.19.19 0 0 1-.22-.01zM163 50.11h-.12c-.03 0 0-.14.07-.17s.19 0 .22 0-.04.14-.17.17zm1.8 2.22s0 .06.25.07a.79.79 0 0 1-.13.22h-.17c-.05 0-.03-.21.05-.29zm-.74.59a.39.39 0 0 1 .2-.09.47.47 0 0 1-.18.27c-.07.07-.13 0-.2.08.12-.07.12-.18.18-.26zM158 58.76a.19.19 0 0 0 .17 0l-.23.21h-.17a.24.24 0 0 1 .23-.21zm3.72-11.58c.09.05.06.11.14.17s-.16.07-.16.07c-.18-.11-.14-.17-.23-.22zm-76.58-3.8c.11 0 .11.06.21 0-.1 0-.2.09-.3.11a.4.4 0 0 1-.21 0 .52.52 0 0 1 .3-.11zm-23.32 6.71c-.07 0-.16-.09-.16-.09l.06-.11c.09.11.09.11.1.2zm-.45-2.79a.56.56 0 0 1 .11.31h-.07l-.09-.15zm95.19-6.3c-.09-.05-.06-.11-.14-.17h.12c.05.12.05.12 0 .18zm8.54 11.06a.76.76 0 0 1 .26-.14v.14h-.21zm2.61-2.32c.2-.09.1 0 .08.12l-.19.08c0-.11 0-.1.11-.2s.2-.08 0 0zM102.9 69.46c.11.06.11.06.12.13h-.11l-.11-.06s.11 0 .1-.07zM86 43.51c-.11-.06-.11-.06-.12-.13H86l.11.06c-.11-.01-.11-.01-.11.07zm72.56 1.86l.05.12a.19.19 0 0 1-.18-.11c0 .11 0 .06 0 0s.09.05.13-.01zm1.87 1.12c.13 0 .09.05.14.17h-.13c-.05-.12-.05-.12 0-.18s.12.01-.01.01zm-.67-.49c0 .06-.12 0-.16.07l-.05-.12a.26.26 0 0 1 .21.05zm-98.11 1.8c0 .11-.06.11-.06.11l-.08-.1.06-.11s.06 0 .08.1zm-.02.53c-.07 0-.07 0-.16-.09l.06-.11c.09.1.09.1.1.2zm.21 1.23l-.06.12c-.08-.1-.08-.1-.1-.2a.2.2 0 0 1 .16.08zm36.41-9.78c.11.06.11.06.12.13h-.21c.11.02.1-.06.09-.13zm4.96-.55c.11.06.11.06.12.13h-.21c.1-.05.1-.05.09-.13zm18.06 77.17c-.1.01-.01-.07 0 0zM81 91.81a.4.4 0 0 1-.21-.05.4.4 0 0 0 .21.05z"/><path class="cls-1" d="M76.41 89.26a1.55 1.55 0 0 0 .37-.47c.19-.23.36-.61.57-.63a2 2 0 0 0 .9-.38c.2-.09.52-.05.49-.34 0-.07.4-.18.6-.28a14.46 14.46 0 0 1 3.89-.82c.72-.07 1.54-.3 2.26-.44s1.43-.29 2.16-.36a3.76 3.76 0 0 0 1.54-.23c.4-.25.95.05 1.33-.34 0-.07.21 0 .31 0a7.19 7.19 0 0 0 1.24-.12c.3-.1.73-.07 1-.18s.84 0 1.13-.25h.1a9.29 9.29 0 0 0 1.35-.07 5 5 0 0 1 1-.17c.41 0 .92-.17 1.34-.21l1.24-.12c.41 0 .85.13 1.24-.19.45.31.82-.16 1.24-.12a8.86 8.86 0 0 0 1.35-.06c.21 0 .3-.18.5-.2a2.61 2.61 0 0 1 1-.1c.32.11.72-.14 1-.17 1-.1 2-.2 2.91-.22a5.5 5.5 0 0 0 1.89 0c.41-.11.84.06 1.15 0a5.47 5.47 0 0 1 1-.17c.52-.05.95 0 1.46 0a7.24 7.24 0 0 0 2.17-.29c.41-.11.43.11.64.09a12 12 0 0 1 1.66-.09c.42 0 .81-.3 1.24-.12.28-.32.52 0 .83 0s.93-.09 1.46-.08a3.55 3.55 0 0 0 1.24-.19c.4-.18.64.15 1-.1a2.91 2.91 0 0 1 1.35-.13 2.14 2.14 0 0 1 1.15 0c.81-.29 1.59.2 2.5-.1a.63.63 0 0 1 .52-.05c.76.28 1.55-.15 2.28-.16.32 0 .71-.21 1.15 0 .11.06.41-.11.61-.2s.34.25.63 0a.92.92 0 0 1 .6-.2 3.62 3.62 0 0 1 1.25-.06c.32.11.6-.27.93-.16s.7-.29 1-.1c.29-.25.53.09.84 0s.51-.12.71-.21.55.3.84 0a12.29 12.29 0 0 0 1.55-.15 14 14 0 0 0 1.66-.1 14.41 14.41 0 0 1 1.77-.1c.42 0 .82-.15 1.16.1h.31a8.42 8.42 0 0 1 3-.37c.53 0 1.06 0 1.59-.08l1.68-.14 5.08-.52c.14 1.44.28 2.9.38 4.34a5.5 5.5 0 0 0 .24.8.92.92 0 0 1 .05.34.43.43 0 0 1-.15.27c.23.19 0 .63.16.92s.08.83.12 1.24a7.51 7.51 0 0 0 .12 1.24 48.28 48.28 0 0 1 .56 5.59 4.2 4.2 0 0 0 .09.93c0 .31.13.61.16.92a6 6 0 0 0 0 1.14l.1 1a14.41 14.41 0 0 0 .37 3c.09.2.13.61-.08.63s-.32-.28-.41-.48a1.66 1.66 0 0 1 0-.63.3.3 0 0 0 0-.41c-.08-.1 0-.41-.25-.39s-.16.54-.08.63a1.3 1.3 0 0 1 .12 1.25.71.71 0 0 0 0 .32c.31.28.23.81.27 1.23l.13 1.35a7 7 0 0 0 0 1.25 5.06 5.06 0 0 0 .24 1.75 1.74 1.74 0 0 1 .06.62 2 2 0 0 0-.08.63v.97a3.88 3.88 0 0 1 .22 1.55c0 .4.39 1 .13 1.26a1 1 0 0 0 .31.88.73.73 0 0 1 .18.42 1.27 1.27 0 0 0 0 .17c-.52.05-.87.36-1.63.17a5 5 0 0 1-2.08.35l-1.14.13a2.14 2.14 0 0 1-.7 0 1.68 1.68 0 0 0-1 .17c-.3.1-.41.11-.63 0s-.31 0-.51.12h-.31c-.26-.54-.85-.13-1.38-.22-.11 0-.1.09-.2.1.11 0 .11.06.22 0h.21l.22.12a.25.25 0 0 1-.2.09c-.62.06-1.25.05-1.87.12l-1.14.11a2.69 2.69 0 0 0-1 .17c-.19.17-.74 0-.93.17s-.52 0-.82.15-.74-.07-.93.09-.53-.09-.82.15c-.09.15-.62.06-.93.09a7.27 7.27 0 0 1-1.23.26c-.41.11-.84 0-1.23.27-.09.08-.42 0-.63-.08a1.14 1.14 0 0 0-1.25.05 1 1 0 0 1-.5.19c-.82.15-1.66.16-2.37.38a1.29 1.29 0 0 1-.84 0 1.55 1.55 0 0 0-.95-.05 7.33 7.33 0 0 1-2.17.29 6 6 0 0 1-1.14.11c-.42 0-.84-.06-1.14.11s-.52 0-.82.15c-.11 0-.64-.15-.74-.07a1.64 1.64 0 0 1-.82.15 5.52 5.52 0 0 1-1.15 0c-.32-.11-.49.34-.92.17-.21-.05-.61.13-.92.16a6 6 0 0 1-1.14.11l-1.14.11c-.11 0-.1.08-.19.17a5.66 5.66 0 0 0-2.71.05l-1.63.38c-.24-.34-.73.07-.73 0-.24-.27-.49.33-.63 0a11.56 11.56 0 0 1-2.69.27c-1.66.09-3.2.46-4.87.48-.18.3-.52.05-.82.15a4.93 4.93 0 0 1-1 .1l-1.14.11c-.31 0-.61.2-.82.15s-.55-.24-.74-.07-.54-.16-.72.14h-.21a8.28 8.28 0 0 0-3 .15c-.62.13-1.21.48-1.86.19l-.52.05c-.42 0-.83.08-1.25.05s-.92.16-1.36 0a6.9 6.9 0 0 0-1.13.19 5.14 5.14 0 0 0-1 .24 2.65 2.65 0 0 1-1 0 6.05 6.05 0 0 0-1.15 0c-.31 0-.74-.07-1 .24-.35-.32-.62.06-.93.09h-.42c0-.43-.44-.25-.74-.14a4.08 4.08 0 0 1-.93.17l-4.43.29-2.25.14-2.53.19-.78.1c-.4-.22-.73-.39-1.05-.59a9.8 9.8 0 0 0-.94-.74 17.26 17.26 0 0 1-1.72-1c-.32-.28-.75-.37-1-.84a1.5 1.5 0 0 0-.48-.21.69.69 0 0 1-.45-.27c-.14-.17-.36-.4-.49-.39-.38 0-.62-.38-1-.42s-.5-.39-.76-.55l-2.18-1.42c-.09-.06-.05-.12-.14-.17.09.06.16-.06.25 0s.3.1.48.21l.89.54c.09.06.13 0 .21 0-.09-.05 0-.11-.14-.17-.42-.51-1-.77-1.37-1.34-.51 0-.8-.49-1.23-.59l-.18-.11c-.3-.69-1-.71-1.52-1.1-.32-.28.07.29-.24.19a2.58 2.58 0 0 1-.62-.38c-.35-.22-.51-.57-1-.71-.21 0-.51-.56-.63-.56s-.44-.27-.66-.32a3.67 3.67 0 0 1-.84-.43c-.05-.12-.05-.12 0-.18l-.09-.05c.09.05.09.05.14.17-.71.16-1.3-.47-1.92-.85 0 .07-.1-.06-.07-.12h.14a4 4 0 0 1 1.23.58c.09.05.12 0 .21 0s0-.17-.1-.23a6.27 6.27 0 0 0-2-1.14c-.15 0-.31-.19-.41-.25-.3-.19-.54-.41-.84-.59a6.27 6.27 0 0 0-1-.61 3.15 3.15 0 0 0-1-.61 1.56 1.56 0 0 1-.32-.12c.19-.19.62-.3.73-.47a4.18 4.18 0 0 1 1.19-1.27c.53-.39 1.06-.67 1.27-1.24a1.49 1.49 0 0 1 .41-.27 1.36 1.36 0 0 0 1-.86c.08-.37.53-.19.74-.58a5.22 5.22 0 0 1 .77-.7c.28-.16.59-.44.87-.59s.37-.53.65-.68a16.26 16.26 0 0 0 2.1-1.71c.22.09 0-.6.39-.35.19.21-.21.38-.37.52-.8.82-1.73 1.66-2.58 2.43-.23.21-.17.73-.64.68-.31.28-.49.54-.8.82a6.32 6.32 0 0 1-.85.77l-.83.76c-.36.32-.89.61-1 1 0 .09-.45.21-.6.35a.93.93 0 0 0-.26.42.13.13 0 0 1 0 .13c.07-.06.16-.06.23-.12a6.72 6.72 0 0 0 .89-.72 4.72 4.72 0 0 0 .8-.62c.13-.12.3-.23.45-.34a1.22 1.22 0 0 0 .39-.43c.13-.31.51-.36.52-.66.53-.19.65-.68 1.08-1s.7-.63 1.13-.93a13.79 13.79 0 0 0 1.22-1.29 16.85 16.85 0 0 0 1.39-1.26 2.89 2.89 0 0 1 1-.86 3 3 0 0 0 1-1 8.42 8.42 0 0 1 1-.91c.39-.35.92-.54 1-1s.48-.24.74-.57a2.1 2.1 0 0 1 .64-.68c.23-.21.5-.54.87-.59 0 .05.13 0 .13 0 .26-.33.38-.82 1-1a1.5 1.5 0 0 0 .93-.84.88.88 0 0 1 .35-.23 1.58 1.58 0 0 0 .9-.71c.1-.2.53-.19.57-.62a.3.3 0 0 1 .22.09c-.11.19.06.52-.41.47 0 .3-.51.37-.65.68s-.54.49-.85.77a7.21 7.21 0 0 0-1 .78l-.85.77c-.31.28-.6.74-.8.82-.53.19-.69.63-1.08 1a3.35 3.35 0 0 0-1.08 1c-.1.19-.56.31-.67.51a1.69 1.69 0 0 1-.52.67A10.82 10.82 0 0 0 65 99.53c-.23.21-.68.33-.79.53a1.52 1.52 0 0 1-.65.68c-.5.07-.44.59-.77.7l-.09.37c.17 0 .28-.16.39-.35a.86.86 0 0 1 .26-.34C64.62 100 65.83 99 67 98c0 .05.13 0 .25 0-.07.07 0 .12-.1.19l-.08.07c-1.53 1.1-2.76 2.69-4.24 3.84-.31.28-.44.6-.75.87a6.33 6.33 0 0 0-.8.82 9 9 0 0 1-1 .87l-.82.66a1 1 0 0 0-.79.41 4 4 0 0 1-.39.56v.14l-.25.21a8.6 8.6 0 0 1 1.59.88 2.26 2.26 0 0 0 .34.32 1.6 1.6 0 0 0 .81.3c.19.28.44.27.71.44a5.17 5.17 0 0 1 .89.54c2.53 1.64 5.14 3.16 7.64 4.86.09.05.35.22.39.16a.45.45 0 0 1 .59 0c.19.29.28.34.53.33l.1.23c.05.11.07.29.16.34.67.5 1.29.88 2 1.31a.28.28 0 0 1 .2-.13v.11s.09.06.13 0 0-.06-.09-.06c0-.06-.09-.05-.09-.05a2 2 0 0 1-.8-.49c0-.11 0-.17-.06-.29.09.06.21 0 .31.11.49.39 1.23.58 1.48 1.16a17.19 17.19 0 0 0 2.34 1.35 2.62 2.62 0 0 1 .5.28 2.45 2.45 0 0 0 .21.16h.16c.05 0 .14-.08.2.07a.6.6 0 0 1 .23 0h.58a3.08 3.08 0 0 0 1.22-.24c.2-.09.64.15.74.07a.66.66 0 0 1 .72-.07.9.9 0 0 0 .73 0 3.84 3.84 0 0 1 1.55-.22 5.76 5.76 0 0 1 1.14 0c.32 0 .49-.33.82-.15s.82-.15 1.06.11c.6-.27 1.46-.07 2.07-.27a3.3 3.3 0 0 1 1.66-.16c.21 0 .3-.1.51-.12a2.51 2.51 0 0 1 .84 0c.23.19.41 0 .63 0s.6-.2 1-.17a6.35 6.35 0 0 0 1.14 0c.41 0 .85.13 1.13-.18h.21c.33.18.55.23.84 0 .2-.09.63 0 .93-.16s.51-.12.82-.15.84.06 1.13-.18h.21a13 13 0 0 0 3.76-.09c.31 0 .65.22 1 0a.78.78 0 0 1 .95 0 5.21 5.21 0 0 1 1.83-.54 2.58 2.58 0 0 1 1-.18 20.1 20.1 0 0 0 3.65-.07 1.5 1.5 0 0 1 1.35-.13 2.58 2.58 0 0 0 1-.25 2.85 2.85 0 0 1 1.85-.32c1-.46 2.08-.14 3.09-.53a2.65 2.65 0 0 1 1.46 0 2.11 2.11 0 0 0 .94 0c.31 0 .5-.19.72-.14a12.43 12.43 0 0 0 3.24 0 1.85 1.85 0 0 0 1.23-.2 2 2 0 0 0 1.15 0 7.16 7.16 0 0 0 1.25-.05c.31 0 .59-.35.93-.09.18-.24.73 0 .91-.24.44.17.82-.15 1.25-.12a.67.67 0 0 0 .51-.12c.48-.41 1-.24 1.65-.23l.74.14h.31v-.28a2 2 0 0 0 .74.14 8.45 8.45 0 0 0 1.35-.06 1.75 1.75 0 0 0 1.22-.41c.19-.17.59-.35.71-.22a.91.91 0 0 0 1-.1 8.31 8.31 0 0 1 2.27-.3c.47.53 1 .26 1.57.06a.64.64 0 0 1 .52-.05 1.72 1.72 0 0 0 1.56-.08c.34.25.74 0 1.15 0a7.54 7.54 0 0 1 1.25-.12 9 9 0 0 0 2.37-.31c.5-.19 1.06.11 1.66-.1a19 19 0 0 1 2-.42.73.73 0 0 1 .42 0 .44.44 0 0 0 .19 0s.06 0 .08-.12.19-.09.37.11h.1c.18-.28.55-.16 1-.17v-.1c0-.09.13-.13.19-.2s-.33-.4-.12-.46-.1-.28-.11-.37 0-.25-.11-.4 0-.42 0-.63.1-.43 0-.52a4.29 4.29 0 0 1-.25-2.49c0-.1-.09-.2-.1-.3a12.91 12.91 0 0 1-.38-2.37 20.33 20.33 0 0 0-.22-2.91c0-.31.16-.54 0-.95a7.52 7.52 0 0 1-.12-1.24 5.53 5.53 0 0 1 0-1.14c.11-.33-.27-.6-.1-1s-.07-.73-.19-1.13a3.68 3.68 0 0 1 0-.94c.05-.21-.05-.52 0-.63.18-.33-.19-.4-.13-.61a2.5 2.5 0 0 0 0-.73c0-.1.05-.22.12-.22l.16.19a.49.49 0 0 1 .1.3c0-.1.05-.21 0-.32a5.79 5.79 0 0 0 0-1c0-.11.06-.11 0-.22 0 .1.08.1.09.2v.1c0 .31-.08.63.16.92v-.94c0-.31 0-.73-.26-1.13-.08-.1 0-.63.06-.84 0-.52 0-.95-.27-1.23a.42.42 0 0 1 0-.41c.06-.11 0-.41-.06-.62s-.19-.5-.13-.61a1.6 1.6 0 0 0 0-1.15 3.06 3.06 0 0 1 0-1.14c0-.2 0-.41-.11-.35s-.35.12 0-.24a.6.6 0 0 0 .11-.36 1.24 1.24 0 0 1-.16-.45 9.93 9.93 0 0 0-1.31.23c-.25.1-.53 0-.78.22 0 .07-.21.09-.21 0-.19-.27-.65.06-.95 0a1.41 1.41 0 0 0-.93.16c-.1.08-.41 0-.62.06a18.2 18.2 0 0 0-3.94.39c-.41.11-.84 0-1.14.11s-.64-.15-1 0a2.13 2.13 0 0 1-1.14.11c-1.57-.06-3.2.39-4.76.47a.62.62 0 0 0-.29.17c0 .07.12.13.23.2s.11.06.22 0l-.1.08-2.37.38c-1.33.27-2.69.27-4 .47a4.86 4.86 0 0 1-1.46.07c-.32 0-.39.32-.82.15-.21-.05-.61.2-.93.16s-.55-.3-.83 0a2.52 2.52 0 0 1-.72.07l-1.14.11c-.41 0-.95-.05-1.24.12s-.54-.17-.94 0c-.09.15-.4.18-.61.2a3.16 3.16 0 0 1-.83.08 9.4 9.4 0 0 0-2.82.06s-.1.08-.09.16l-1.16-.1c-.28.39-.64-.15-.92.17-.1.08-.53-.09-.73 0a3.19 3.19 0 0 1-1.88 0c-.11-.06-.4.18-.52 0-.3.1-.49.33-.7.35s-.54-.16-.64-.08c-.28.31-.71.21-1 .24a5.13 5.13 0 0 0-2.06.28c-.19.16-.66-.29-.93.09-.33-.18-.65-.22-.71.22-.31 0-.81.29-1-.12a1.68 1.68 0 0 0-.32-.11c-.39.25-.73 0-1.15 0s-.7.35-1 .1a8.33 8.33 0 0 1-2.27.3 6.93 6.93 0 0 1-1.13.18c-.43-.1-.71.21-1 .1H101c-.56.63-1.42.43-2.25.51a27.72 27.72 0 0 1-3.41.41 2 2 0 0 0-.61.2c-.1 0-.2.09-.3.1a.5.5 0 0 1 .32 0c.32 0 .6-.28.92-.16s.4-.19.63 0 .53 0 .84 0h.73a3.63 3.63 0 0 1-.81.29c-.92.16-2 .27-2.89.36a2.64 2.64 0 0 0-1 .24 2 2 0 0 1-.71.22c-.31 0-.43-.1-.73 0-.71.22-1.55.23-2.27.37l-1.84.4c-.1 0-.2.09-.3.1-1 .1-2 .2-3 .37-.41 0-.71.21-1.13.25A6 6 0 0 1 82 92c-.52.05-.62.06-.85-.13l.72-.07c.1 0 .1-.08.2-.09-.11-.06-.12-.13-.23-.19s-.32 0-.42 0l-.6.27v.07a2.23 2.23 0 0 0-.53-.09 11.6 11.6 0 0 1-2.72 0c-.64-.08-1.29-.3-1.93-.45v-.21c.18-.31.18-.31-.15-.41s-.64-.16-.25-.41a3.78 3.78 0 0 0-.58-.52c-.21-.17-.22-.31 1.75-.51zm-18.7 16.63c.06-.05.06-.05.2-.09s0-.12.08-.17-.14 0-.2.08-.02.12-.08.17zm1.2 2.11c-.12 0-.06 0-.17.15a.11.11 0 0 1 .13 0c.06-.05 0-.09 0-.14zm-1.3-.88l-.3.07a.24.24 0 0 1 .17 0c.09-.02.03-.06.13-.08zm-.85-.35c.07 0 .18 0 .24.07s.08-.07.08-.1h.07c.05 0-.06 0 0-.09-.16.05-.22.1-.37.16zm2.24 2.45a.39.39 0 0 1-.13-.17c-.36-.06-.48-.38-.71-.43A14.33 14.33 0 0 1 56 107.4a4.26 4.26 0 0 0-.76-.3h-.21c.1.06 0 .07.08.14.3.18.59.28.88.45s.39.32.58.44h.08c0 .09.21.21.3.27s.56.26.75.37l.57.35a1.69 1.69 0 0 0 .56.18c.08-.13.08-.13.17-.08zm2 1.14c-.05-.12-.14-.17-.19-.29s-.3-.1-.4-.16c.09.06.14.17.23.23s.21.05.36.22zm3.81 3.34c.13 0 .17-.06.11-.18 0 .06-.12 0-.12 0v.17zm6.2 4.23c-.05-.12 0-.18-.1-.24s-.31-.1-.4-.15c.05.12 0 .17 0 .17a1.9 1.9 0 0 0 .49.22zm24.32 2.55l-.11-.06c-.1.08-.1.08-.09.15s.09-.08.19-.09zm.22-2l-.11-.06c-.09.08-.09.08-.09.15a.41.41 0 0 0 .19-.04zm4.49 2.07c-.1 0-.11-.06-.11-.06s-.11 0-.1.08c.1-.04.1-.04.17.02zm3.92-.53c-.11 0-.11-.07-.21-.06s-.2.1-.3.11c.1 0 .11.06.21 0s.34.06.34-.01zm.09-2.31c.09-.08.09-.15 0-.21s-.1.08-.1.08.11.06.12.13zm1.33.8v-.21c0 .07-.1.08-.1.08s.09.1.09.17zm3.64-1.29v.21l.1-.08c0-.07-.11-.06-.12-.13zm-2.18.22c0-.07-.11-.13-.11-.13s-.2.09-.3.1.12.13.12.13a.5.5 0 0 0 .29-.07zm.81.78h.1l-.11-.13c-.22 0-.33-.11-.54-.16l-.1.08c0 .09.12.15.65.24zm.22.12zm.4-.11a.59.59 0 0 0-.32-.11c-.11 0-.21 0-.2.09s.32.07.52.05zm.42-1c0-.07-.11-.06-.23-.2l-.48.41c.11 0 .21.05.32 0s.41-.01.39-.22zm.5.81c-.11 0-.11-.06-.21-.05s-.2.09-.3.1c.1 0 .11.06.21 0s.2-.09.3-.09zm.4-.11v-.21l-.09.08c-.01.06.09.05.1.12zm17-2.19c0 .14 0 .14.12.13l.1-.08a.44.44 0 0 1-.17-.07zm-8.1.52c-.08.15-.08.15 0 .21s.1-.08.1-.08-.11-.06-.12-.13zm-6.71.88a.39.39 0 0 1 .21.05.22.22 0 0 0 .08-.22s0-.07-.11-.06-.04.09-.14.21zm-1.77.1v-.14h-.31v.07a.51.51 0 0 1 .35.05zm11.5 1h-.32l-.52.05c-.11 0-.1.08-.2.09.1 0 .11.07.21.06h.42a.65.65 0 0 1 .45-.2zm.52 0v-.22l-.1.08c0 .07.11.06.12.13zm7.55-.9c-.11-.06-.21-.05-.33-.11s-.3.1-.4.11c.1 0 .21.05.32 0zm.67-1.72h-.52a10.18 10.18 0 0 0-1.45.14c-.3.1-.6.21-.84 0-.29.24-.61.13-.92.23s-.65-.22-1 0c-.45-.24-.71.22-1.14.11-.11-.06-.11-.06-.12-.13l-.19.16c-.42 0-.86-.27-1.25.05 0 .07-.3.1-.31 0-.35-.32-.52 0-.82.15-.1.08-.3.18-.33-.11l.09-.08h-.1v-.07l-.1.08.11.06-.1.08a2.14 2.14 0 0 1-.92.23l-.83.08c0-.07 0-.07.08-.22s.11 0 .1-.08l-.1.08c.11 0 .11 0 .1-.08l-.1.08.11.06-.1.08a.6.6 0 0 0-.29.18c-.31 0-.45-.24-.83 0a3.37 3.37 0 0 1-1.22.34c-.31.1-.65-.22-1 0a2.48 2.48 0 0 1-1.24.12c-1.15 0-2.27.37-3.41.41-.32 0-.6.28-.94 0a1.84 1.84 0 0 0-.4.18c-.1 0-.1.08-.09.15.32 0 .64.15.84.06a2.6 2.6 0 0 1 1-.17 5 5 0 0 1 1-.1 4.06 4.06 0 0 1 .92-.16 4.09 4.09 0 0 0 .93-.17 6.07 6.07 0 0 0 2.27-.3c.33.18.73 0 .95 0s.4-.18.71-.14a8.11 8.11 0 0 0 1.88-.11 3 3 0 0 1 1.77-.1h.21a2.63 2.63 0 0 1 1.44-.29c1-.1 2.07-.21 3.12-.24a2.5 2.5 0 0 0 1.23-.26.3.3 0 0 1 .41 0 2.64 2.64 0 0 0 .73 0c.32.08.82-.14.7-.27zm4.8-2.2q.14-.12 0-.22c0 .07-.1.08-.1.08s.11.06.12.13.12-.04.02.04zm8.67-1.15c-.11 0-.11-.06-.22 0s-.2.09-.3.1a.26.26 0 0 1 .21 0c.14-.05.14-.05.36-.07zm6 1.91l-.11-.06c-.1.08-.1.08-.09.15a.41.41 0 0 0 .29-.06zm3.3.6c.1-.08.09-.15 0-.21s-.1.08-.1.08.11.06.12.13zm7.42-.81h-.21l-.91.09a5.35 5.35 0 0 0-1.34.2c.46 0 1 0 1.43-.07l.94-.09zm-1.74-7.12c-.08-.1-.15-.09-.22 0s.09.1.09.1.06-.11.13-.12zm1.28-9.54c-.16-.09-.16-.09-.22 0s.08.1.08.1.06-.11.13-.12.03-.04.1.06zm-3.29.12c-.08-.1-.15-.09-.21 0s.08.1.08.1.06-.11.13-.12zm2.7-3.19c-.15-.09-.07 0 0 .21a10.24 10.24 0 0 1 .21 1.44c0 .1.09.2.1.3 0-.1.06-.11.05-.21l-.07-.73-.08-.83c.03-.06-.05-.16-.12-.15zm-.24-1a.45.45 0 0 1 0 .22 2.66 2.66 0 0 0 .26.5c.07 0 .13-.12.13-.12a.84.84 0 0 0-.11-.41c.03-.1-.04-.09-.19-.18zm-3-.22a.58.58 0 0 1 0 .32c.09.2.24.29.33.49a.44.44 0 0 1 .05-.22 2.57 2.57 0 0 0-.33-.61zm3.31-.64c-.06.11-.13.12-.12.22s.1.31.11.41c.06-.11.13-.12.13-.12a2.57 2.57 0 0 1-.07-.51zm-2.87.08c-.15-.09-.14 0-.21 0s.08.1.08.1.06-.11.13-.12zm2.27-3.16a.44.44 0 0 1-.05.22 4.45 4.45 0 0 1 .31 1.64 2.56 2.56 0 0 0 .21.71c0 .1.08.1.08.1l.06-.11c0-.42-.09-.93.09-1.26-.23-.19-.19-.5-.22-.81zm-.13-2.71h-.21c.07 0 .08.1.08.1s.12-.08.19-.09zm-.23-2.34c0 .2-.17.38-.16.5a2.22 2.22 0 0 0 .41.48l.06-.11c-.09-.2-.1-.3-.2-.5s-.04-.18-.05-.36zm-2.16-4.74l-.57.27a.26.26 0 0 0 .23.12c.15 0 .54 0 .68-.21.1-.06-.01-.12-.28-.17zm-.57-.09a.37.37 0 0 0 .29 0 .37.37 0 0 1-.23.01zm-2.75.42c.16.06.32 0 .48.1s.46-.12.62-.13a1 1 0 0 0-.47-.1c-.1.02-.26.11-.58.14zm-3.43.19a3.93 3.93 0 0 0 .86.27l.1-.08c0-.07-.11-.06-.12-.13s-.44-.17-.64-.15-.05.06-.15.06zm-.72.07c0 .07.12.13.12.13s.2-.09.3-.1-.12-.13-.12-.13-.17.11-.26.12zm-.18.31c-.1.08 0 .14 0 .21s.1-.08.1-.08-.11-.06-.12-.13zm-11.29 3.87q-.15.12 0 .22c0-.07.1-.08.1-.08s-.11-.06-.12-.13zm-4.25.42c-.09.16 0 .22 0 .14a14.34 14.34 0 0 0 1.77-.1.6.6 0 0 0 .08-.23c0-.07-.12-.13-.22-.12a6.85 6.85 0 0 1-1.64.31zm-.52.05c-.1.08 0 .14 0 .22l.1-.08c0-.07-.11-.06-.12-.13zm-1.66.16c.1 0 .11.06.21.05s.2-.09.3-.1a.25.25 0 0 1-.21 0 .52.52 0 0 1-.27.06zm-2 .27c0 .07.12.13.12.2a.7.7 0 0 1 .3-.1c-.11-.06-.23-.2-.34-.26s-.05.09-.05.17zm-35.77 4.2c.11.06.23.2.33.19s.3-.18.39-.26c-.11-.06-.21 0-.32-.11s-.25.1-.34.18zm-.82.15c.1 0 .11.06.11.06s.1 0 .1-.08a.19.19 0 0 1-.16.03zm-3.68.87c.1 0 .22.05.32 0l.72-.07c.31 0 .63 0 .81-.23.22.05.34.19.52-.05s.4-.18.71-.21a.56.56 0 0 0 .08-.22c0-.07-.12-.13-.22-.12-.91.31-1.84.47-2.75.71-.05.04-.04.11-.14.19zm-1.14.11c.1 0 .11.06.21.05l.11.06a1.84 1.84 0 0 0 .62-.13.43.43 0 0 0-.13-.2 1.84 1.84 0 0 1-.75.22zm-1.74.39c0 .35.21 0 .41 0a6.08 6.08 0 0 0 1.15 0c.1 0 .1-.08.2-.09l-.11-.06c-.09.15-.31 0-.32 0a5.22 5.22 0 0 1-.62.13c-.39-.43-.45-.07-.65.02zm-1.34.21l.11.06a.08.08 0 0 0 0-.14c.05.07.05.07-.05.08zM61.9 99.48c-.21.09-.28.15-.49.24v-.12c.11-.19.12-.49.42-.47s.48-.25.54-.49a.52.52 0 0 1 .28-.16l.09.1c.05.06 0 .18-.05.25l-.54.49a.48.48 0 0 1-.25.16z"/><path class="cls-1" d="M160.2 100.05c.07 0 .06-.11.13-.12h.07a2 2 0 0 1 .4 1.11l-.06.11a1.52 1.52 0 0 1-.54-1.1zM60 101.4c-.15.14-.32.1-.53.19.08-.07.18-.26.26-.34l.38-.35.46-.42c.07-.07.12 0 .17 0a7.91 7.91 0 0 0-.74.92zm2.83.81a.56.56 0 0 1 .06.23 7.19 7.19 0 0 1-.92.84s-.08.07-.12 0 0-.12 0-.12c.31-.28.66-.51.75-.87zm-3.12 5.52v-.16h.09l.22.05.16.06.22.09c.08.05 0 .11 0 .18.13 0 .09.06 0 0l-.45-.15zm.7-3.23c-.08.07 0 .12-.11.19s-.23.21-.26.33a.23.23 0 0 1-.32.19h-.09a.42.42 0 0 0 .06-.1 1.11 1.11 0 0 1 .13-.17l.15-.14.31-.28c.08-.08.13-.02.13-.02zm-5.54 3.45a4.54 4.54 0 0 1-.7-.34l-.86-.53.09-.08a1.38 1.38 0 0 1 .35-.11v.08l-.08.08.59.36c.24.22.74.39.61.54zm4.23-5.83c-.13 0-.23-.09-.35-.07a1.41 1.41 0 0 0 .18-.26c.2-.09.37-.06.58-.14-.03.12-.11.19-.41.47zm96.71-18l.07.67-.08-.09v-.49a.09.09 0 0 0 .01-.09zm-31.4 34.41c.1 0 .21.05.31 0a1.79 1.79 0 0 0-.39.25c0-.13-.13-.2-.13-.27a.19.19 0 0 1 .21.02zm-64.75-13.17h.12c.03 0 0 .14-.08.17s-.19 0-.22 0 .06-.15.18-.17zm-1.77-2.24s0-.06-.24-.07a.79.79 0 0 1 .13-.21h.17c.04 0 .05.16-.06.28zm.74-.58a.39.39 0 0 1-.2.08.47.47 0 0 1 .18-.27c.07-.07.13 0 .2-.08-.07.08-.1.2-.18.27zm6.15-5.77a.19.19 0 0 0-.17 0l.23-.21h.17a.24.24 0 0 1-.23.21zm-3.87 11.53c-.09-.06-.05-.11-.14-.17s.16-.07.16-.07c.18.11.14.17.23.23zm76.54 4.63c-.11 0-.11-.06-.21 0 .1 0 .2-.09.3-.1a.41.41 0 0 1 .21.05.52.52 0 0 1-.3.05zm23.38-6.46c.07 0 .16.09.16.09l-.06.11c-.09-.09-.09-.09-.1-.2zm.43 2.8a.56.56 0 0 1-.1-.31h.07s.06.1.08.15zM66 114.53c.09.06.05.11.14.17H66c-.05-.12-.05-.12 0-.18zm-8.41-11.14a.76.76 0 0 1-.26.13v-.14h.21zM55 105.67c-.2.08-.1 0-.07-.12l.19-.08c0 .11 0 .1-.11.2s-.26.09-.01 0zm65-19.01c-.11-.06-.11-.06-.12-.13h.12l.11.06s-.11 0-.11.07zm16.6 26.14c.11.06.11.06.12.13h-.11l-.11-.06c.1 0 .1 0 .1-.07zm-72.54-2.65L64 110a.19.19 0 0 1 .18.11c0-.11 0-.06 0 0s-.09-.02-.12.04zM62.19 109c-.13 0-.09-.06-.14-.17h.13c.05.12.05.12 0 .18s-.11-.01.01-.01zm.68.5c0-.06.12 0 .16-.07l.05.12a.26.26 0 0 1-.21-.05zm98.13-.74c0-.11.06-.11.06-.11l.08.1-.06.11s-.08.01-.08-.1zm0-.52c.07 0 .07 0 .16.09l-.06.11c-.1-.1-.1-.1-.1-.2zm-.19-1.24l.06-.11c.08.1.08.1.09.2a.2.2 0 0 1-.15-.09zm-36.51 9.39c-.11-.06-.11-.06-.11-.13h.21c-.12-.02-.11.06-.1.13zm-4.97.49c-.11-.06-.11-.06-.12-.13h.21c-.1.06-.1.06-.09.13zM108.1 26.33zm3.01-.22h1.57a1.55 1.55 0 0 1 .21 0c.36.06.43.13.43.2s.15.08.21.11.15.07.15.11-.15.05.07.08-.15 0 .21.07c.07 0 0 0 0 0s-.07 0 0 .06 0 0 .07.05-.07 0 .14.06c-.07 0-.07 0-.07.07s.14 0 .07.05.07 0 .07.07v.06s-.21 0 .07.06c-.36 0 .08 0 0 .06s-.07 0-.07.07.15 0 .15 0 .14 0 0 .05.07 0 .07.05a.14.14 0 0 1-.07.14c-.08 0-.36.06-.22.09s-.14 0-.07.06.07 0 .07.05-.17.27-.17.27-.07.07.08.11-.15 0-.15 0 0 .06-.07.08.22 0 0 .06h-.07l-.07.07c-.07.07 0 0 .07.06s-.21 0 0 .05.07 0 0 .07.07 0-.14.06c.21 0-.36.08-.15.12s.07 0 0 0c-.36 0 0 .08-.07.11s.14 0-.07.06.07 0 .14 0h-.07.07s.07 0-.07.06.21 0 .07 0 .22 0 0 .05h-.07.07c-.14 0 .07.05 0 .08s-.07.06-.07.08 0 .06-.07.09.07 0-.22.06c.29.05.15.1.07.15s0 .3-.14.45.43 0 0 .05h.07c.14 0 0 0 0 .06s-.07 0 0 .06 0 .19 0 .28-.07 0 0 0h.07s-.07 0-.07.06v.05c0 .05-.14.1.07.15s.07 0-.14 0a2.7 2.7 0 0 1-.36 0h.07c.07 0 .15 0 0 0a.61.61 0 0 0-.21 0h-.15c.06 0 .21 0 0 .06s-.07 0-.07 0c.28 0 .15 0 .15.06v.07c-.08 0-.15 0-.15.06s-.14.06.07.09a.42.42 0 0 0-.14 0h-.07c.21 0 .07 0 .07.06s.29 0 0 0h.36c-.07 0 .29 0 0 .06.29 0 .14 0 .14.07s.07.05-.07.07-.07 0 .07.05.07 0-.07 0h.07c-.56 0-.21 0-.36.07h.36s-.07.06-.07.09v.06s-.07 0 .07.05-.07 0 .07 0h.07c.14 0-.15 0 0 0h.07c.22 0 0 0 0 0s.14 0 .14.06-.07 0 .15.06-.07 0-.15 0c-.28 0-.28 0-.07.06a.35.35 0 0 1 .14 0c.07 0 0 .08.15.12s0 0-.07 0h-.15c.06 0 .07.07.07.11v.06c0 .06-.14 0 0 .06s-.07 0 .07 0h-.15.07l-.07.06c-.07.06.29 0 .07 0h.07v.12h.15c-.36 0-.29.09-.22.13l.22.08h-.14c.21 0 0 .09 0 .13s.15.16 0 .24h.07c.07 0 0 0 0 .05v.06h.07-.15.07c-.29.05-.22.09-.15.15s.36.06 0 .09c-.07 0 0 0-.07.06s.07 0-.14.07.07 0 .07.06 0 0 .14.05-.07 0-.14.05-.07 0-.07.06-.14 0 .14.05c-.36 0 0 0 0 0h-.28.07s-.21.29-.29.44.07 0 .07.07-.14 0-.14.05.14.06.07.1.07 0-.21.06h.08c.08 0 .07 0 0 0h-.08c.07 0 0 0 .15.05s-.07 0-.07 0-.08.09-.08.13h-.29v-.05H112a3.85 3.85 0 0 1-.43.09c.29 0 0 0 .14.07-.43 0-.07.06-.14.09s.21 0 .29 0-.22 0-.07.06-.21 0-.15 0h.14-.07c.51 0 .28.07.28.1h-.14c-.15 0-.15 0-.15-.07h-.21s-.22.07.07.11c.07 0 0 0 0 0h-.07v.05c0 .05-.15 0 0 .05s-.15 0-.07 0 .21.05.14.08-.21.05.07.08h-.07c-.07 0-.21 0 0 .06s-.21 0-.07 0 0 0 0 .05-.07 0-.15.05.15 0 .07 0-.15.09-.15.13c-.21 0 .43 0 0 0h-.14a.19.19 0 0 1-.07-.18h-.07s-.07 0-.07-.06v-.12s.15-.05-.07-.08.14 0 .14 0a.42.42 0 0 0-.14 0h-.14c-.07 0-.07 0-.07.06s-.08 0-.08.06-.14 0 0 .06-.07 0 .15 0c-.22 0 .07 0 0 .07l-.07.07c-.07.07.14.06.14.09s-.07.06 0 .09.07 0-.07.07-.07 0 .07.07 0 0 0 .07-.21.05.07.07-.14 0-.07 0h.07s.07 0-.14.05h-.07c.07 0 .35 0 .07.07s-.15 0 0 .06 0 0-.07 0-.15 0-.08.06-.21 0 .08 0h-.36c-.14 0 0 0 0-.06s.07 0 .07-.06v-.06s-.15 0-.07-.06 0 0 0-.07.14 0 0-.07.14 0 .07 0h-.15s0-.1-.21-.15h.14-.07c.29 0-.14 0 0-.05h-.21c-.14 0-.07 0 0 0h.07s-.07.16-.15.24h-.21c.21-.09-.15-.19 0-.28s-.15 0-.15-.06 0 0-.07-.06.07-.09.07-.13c.5 0 .07-.1.07-.14h-.07c.07-.07-.21-.14-.07-.21s.21-.06-.07-.09c.14 0 0 0 0 0v-.05c0-.05 0-.3.14-.45s0 0-.07 0h-.29c.07 0 .15 0 0 0h.36a.11.11 0 0 0 .07-.12h-.21s-.07 0 0 0 .07 0 0 0h-.28c.07 0-.14-.07.21-.09-.07 0 .14-.09-.07-.13s0 0 0-.06-.28 0 0 0c-.07 0 .21-.08-.07-.12h.15c-.06 0-.15 0 0 0h.07c-.07 0-.07-.05-.07-.08s0 0 .07-.06-.28 0-.07 0-.07 0 .21-.05c-.21 0 .07-.07-.07-.1s-.14-.06 0-.08-.07 0-.07 0h.14c.07 0-.14 0-.07-.05s.07 0 .07-.06.22 0-.07-.06h.07-.14s.14 0-.07-.06c.43-.06.21-.12.28-.19s.28 0 .07-.05-.15 0 .14 0a.64.64 0 0 1-.36-.09c-.07 0-.14 0-.07-.05.36-.06.14-.12.29-.18-.21 0-.21 0 0-.07s-.07 0-.15-.05-.43-.06-.14-.09c-.36-.05.07-.1-.22-.15-.07 0-.07 0 .15-.07s.07 0 .07 0h-.07c.36-.05.21-.11.28-.16s.15 0-.07-.06c.22 0 .15 0 .15-.06s.07 0 .07-.06-.29 0 0 0h-.15c.21 0-.07 0 0-.06s0 0-.07 0c-.36 0-.14-.05-.07-.08h.21-.28a.87.87 0 0 0 .21 0c.07 0 .07 0 .07-.07s0 0-.28-.06-.29 0-.15 0c.36 0 .07 0 0-.05-.28 0 0-.08-.07-.11.58 0 .36 0 .22-.08s-.07 0 0 0 .36-.05.07-.08c.29 0 .07 0 .07-.06V31c0-.06.15-.08-.07-.12s.21-.05.07-.08-.14-.07-.21-.1.28 0 0 0h.14c-.29 0-.07-.08-.07-.12a1.19 1.19 0 0 1 .21 0h-.14.07c-.28 0-.21-.08 0-.12h-.07c-.07 0-.21-.08-.14-.12s.14-.1.07-.14.21 0 .14 0 0 0 0-.06 0 0 .07-.06-.21 0 0-.05 0 0-.07-.06 0 0 .07 0h.49c.07 0 .07 0 .07-.05h.28s.07 0-.15-.06.07 0 .15 0 .14 0-.15-.06c-.07 0-.07 0 0 0h-.07c.07 0 .22 0 .15-.06s0 0 .07-.07 0 0-.07 0-.36 0 0 0h.14c-.21 0-.07-.08-.21-.12s.07 0-.14-.05-.07 0 0 0c.29 0 0 0 .07-.05s.07 0-.07 0 .29-.13 0-.2c-.07 0 .07 0 0-.06s.21 0 .07-.05-.07 0 0-.06-.07-.16 0-.24h-.5c-.07 0-.07-.08-.15-.12s0-.13-.07-.2-.07-.05.07-.07-.28 0-.07 0h-.07.07c-.07 0 0 0 0 0v-.06s.15 0 0-.06.22 0 .07 0h-.14s-.07 0 0 0c.36 0 .14-.09.21-.14h-.15l.22-.06c-.07 0-.07-.07.21-.09h.07-.28.14c-.28 0-.14 0-.14-.05s.21-.07-.07-.1.36 0 0 0h-.15.36c-.21 0 .07 0 .07-.06s-.28 0 0-.05c-.28 0 0-.08-.07-.11s-.14 0-.07-.06-.14 0 0-.05c-.57 0-.29-.07-.29-.11s-.21-.11-.07-.17a.4.4 0 0 0-.14 0h-.28a1.08 1.08 0 0 1-.21 0 .14.14 0 0 1-.07-.14l-.14-.05c-.14-.05-.15 0-.15 0h.07c-.08 0-.07-.08-.15-.11l-.21-.09h-.07a.15.15 0 0 0-.07-.15s-.14 0-.14-.06v-.06c0-.06 0 0 .21 0h.35-.28.14c-.07 0 .14-.09.29-.13s.43-.06.64-.09h.21a2.06 2.06 0 0 0 .43 0 1.47 1.47 0 0 1 .43 0h.58c.26-.4.37-.4.37-.29zm-.86 11h-.07.14zm-.07-.25zm-.07.11zm.14.05h-.07L110 37h.07zm.93-.22h-.07c.14 0-.07 0 0 0s.07.08.07.12a.39.39 0 0 0 .14 0h.15-.07.07-.21zm-.07-.11h-.15.14s-.1.03.01.02zm.86-.25zm.36-.37h-.15.22l-.07.02zm.42-1.22zm-1.93 0zm2.5-.21c-.07 0-.07 0 0 0zm-.14-.2h-.08.08zm-2.29 0zm.93-.06zm-.93-.19zm0 .11h-.14.25s0-.01-.11-.01zm.86 0h-.35.07a1.47 1.47 0 0 0 .28-.05zm.15 0zm-.07 0h-.14.07s.06-.07.06-.08zm-1 0h-.22.43s-.04-.11-.22-.11zm.86 0h-.07.14zm-.07 0zm-.5-.85zm-.28.4zm.16.15zm-.07.09h-.14.07s.03.04.14.04zm2.15-.56h-.07.15c-.05.05-.05.04-.05.03zm.08 0zm-.15-.38h-.15.14zm-1.65 0h-.07s-.07.05 0 .07.15 0-.07 0h.14c.07 0-.28 0-.07.05-.28 0 .15 0 0 .06s-.36 0-.07.06c.07 0 .07 0 0 0h-.07.21-.07.15-.07c.21 0 .21 0 .21.06s-.29 0-.07.05.07 0 0 .06.14.11.07.17.21 0-.07 0h.42c-.07 0-.07 0-.07-.05v-.05c0-.05-.15 0-.07 0h-.07s.22-.08-.07-.11h.07c.07 0 .15-.06.07-.09s-.21-.06.07-.09c-.29 0-.15-.05-.15-.07a.16.16 0 0 1 .07-.15c.07 0 0 0-.14-.06s-.14 0 0 0h.07a1.12 1.12 0 0 0-.32.06zm-1.71-.25zm-.29-.43h-.07.14c-.04-.02-.04-.02-.04-.03zm2.5-.29zm.93-.16zm-.07-.3h-.07s.07.05.07 0 .07 0 .07 0zm-1.93-.31zm2.21-.46zm-3.29 0zm3-.14h-.07s.14 0 .07.07h.14v-.08zm-.14-.05h-.07.28zm-3 0h-.07.35zm3.36 0h-.15.22v-.1zm-2.86 0zm2.57-.14h-.07c.21 0 .14.06.14.08a.35.35 0 0 0 .14 0h.15c.07 0 0 0 .21-.06h-.14zm.14-.13zm0-.11h-.21.43-.15zm.07-.22h-.21zm.15 0zm0 0zm-.15-.09h-.14.22s-.04-.12-.04-.13zm.15-.17h-.36.42zm0 0h-.15.21zm-.29 0zm-2.71-.76zm0-.21h-.15c-.07 0-.07.06-.07.09h.36c-.07 0-.21-.06-.14-.08zm0 0zm0-.08h.14c-.14-.02-.14-.02-.14-.03zm-.07-.1h-.21.36zm-.64-1.78h-.22.36zm-.07 0s-.04-.07.03-.07zm-.5-.19h.08c-.07 0-.22 0 0 0h.5a2.87 2.87 0 0 1-.43-.14zm0-.06h-.15.28c-.03-.03-.1-.04-.1-.06zm-.21-.09c-.36 0 0 0 0 0s-.07 0-.07.06h.14c.42-.11.02-.11-.05-.12zm-.07-.07zm3.74 10.97h.29c-.22 0-.14 0 0 0h-.36s-.01.01.07 0z"/><path class="cls-1" d="M112.89 31h.21c.14 0 .36 0 .29.06h-.07c-.21.04-.5 0-.43-.06zm-.89 6.4a1.73 1.73 0 0 1 .22 0h.07v.06h-.15s-.04-.04-.14-.06zm-2.47.07h-.21c-.07 0 0 0 0-.06h.14s-.07 0 .15.06zm0-.63h-.36.15c-.07 0 0 0 0 0zm-.07.47h-.07.14zm2.79-.31h.07-.22.15zm-.15.34h.36-.28c-.08.03-.08.02-.08 0zm-2-7.11h-.1.07zm3.58 3.19h.28-.28s-.08.01 0 0zm-4.36 3.82h-.14.15s.06-.01-.01 0zm2.86.02zm-.08.05h.15-.08zm.15.42h.14-.14q-.11.01 0 0zm-2.86-.96h-.21.07zm0-4.02h-.14.07c.07-.01.07 0 .07 0zm3.5-1.38zm.11.13zm-1 4.89zm.18.86zm.07-.13zm-2.86-8.85zm-.21 4.53zm.14 3.79h-.07s-.07 0 0 0h.07zm0 .11h-.07.07zm.07-.05zm3.43-5.17zm.07-.03zm-.07-.06zm-1.28 2.03zm0 .25zm-.29 124.77s-.07 0 0 0zm-3.15-27.36h.07c-.07-.02-.07 0-.07 0z"/><path class="cls-1" d="M111.11 130.26a3.26 3.26 0 0 0 .43.08 2.46 2.46 0 0 1 .57.12c0 .08.15.12.28.18s0 .1.29.1c.07 0 .14.08.21.12a.81.81 0 0 1 .43.74c0 .14.15.29.21.43a.93.93 0 0 1 .15.41c0 .1-.15.19.07.29s-.15.18.21.25c.07 0 0 0 0 .06s-.07.16 0 .23 0 .14.07.19-.07.16.14.21a.37.37 0 0 0-.07.25c0 .08.14.12.07.2s.07.18.07.25v.23c0 .08-.21.16.07.23-.36.08.08.16 0 .23a.36.36 0 0 0-.07.25s.15.06.15.1.14.12 0 .19.07.14.07.19a1.43 1.43 0 0 1-.07.55c-.08.12-.36.23-.22.35s-.14.16-.07.21a.24.24 0 0 1 .07.19c0 .1-.14.18-.14.27a.31.31 0 0 0 .08.41c.07.08-.15.08-.15.12a.47.47 0 0 1-.07.31c-.07.08.22.16 0 .23.29.06-.07.1-.07.16s0 .18-.07.27 0 .18.07.23-.21.12 0 .2.07.18 0 .25.07.16-.14.21c.21.16-.36.29-.15.47s.07.08 0 .1c-.36.14 0 .29-.07.43s.14.14-.07.21.07.08.14.12-.28.06-.07.12c.07 0 .07.06.07.08s.07.18-.07.23.21.12.07.18.22.14 0 .19c.22.06-.14.1-.07.16s.07.1.14.14-.36.1-.07.16c-.14.1.07.19 0 .29a.54.54 0 0 0-.07.31.55.55 0 0 1-.07.33c-.07.08.07.16-.22.21v.06c.29.2.15.37.07.57-.21.57 0 1.13-.14 1.7 0 .06.43.14 0 .19.21 0-.07.12.07.18s0 .16 0 .23-.07.16 0 .23c.22.35 0 .7 0 1.05 0 .06-.07.14 0 .18s.07.12.07.18a.26.26 0 0 0-.07.21v.2c0 .19-.14.37.07.57.07 0 .07.12-.14.12a.81.81 0 0 1-.36-.1s0-.1.07-.12.15 0 0-.08 0-.08-.21-.08-.21.1-.15.12.21.16 0 .23-.07.06-.07.06c.28.06.15.16.15.23v.25a.4.4 0 0 0-.15.23c0 .12-.14.21.07.33s0 .08 0 .12-.14.08-.14.12v.08l-.07.08c.21.06.07.14.07.21s.29.12 0 .18c-.07 0-.07.1.22.1h.14s.29.16 0 .23c.29.1.14.18.14.27s.07.19-.07.27-.07.14.07.19.07.08-.07.12 0 .06.07.1v.06c-.56 0-.21.16-.36.25s.08 0 .08 0h.28s-.07.23-.07.35v.21c0 .06-.07.12.07.19s-.07.14.07.18-.07.1.07.16-.15.14 0 .18-.15.1.07.16 0 .12 0 .18a.41.41 0 0 1 .14.23c.07.08-.07.16.15.23s-.07.08-.15.12c-.28.1-.28.14-.07.23s.14.06.14.1 0 .31.15.45 0 .14-.07.16-.21.14-.15.18.07.27.07.41v.21c0 .07-.14.16 0 .21s-.07.1.07.16-.21.12-.15.14.07.1.07.16a.24.24 0 0 1-.07.21c-.14.06.29.1.07.18s.07.12.07.18v.42h.15c-.36.16-.29.33-.22.51l.22.31c-.36 0 0 .14-.07.14-.29 0 .28.1-.07.12.21.16 0 .33 0 .51s.15.6 0 .92c.28 0 0 .1.07.16s0 .12 0 .19v.21c0 .06.14.12.07.16s-.29.1-.15.14-.21.1.07.14c-.29.19-.22.33-.15.57s.36.23 0 .35v.1c-.07.08 0 .16-.07.23s.07.18-.14.25.07.14.07.21 0 .14.14.2-.07.14-.14.19a.26.26 0 0 0-.07.21c0 .06-.14.14.14.19-.36.06 0 .12 0 .17a.07.07 0 0 1-.07.08c-.43 0-.29.08-.21.14a.19.19 0 0 1 .07.18c-.07.55-.21 1.11-.29 1.68 0 .1.07.18.07.25s-.14.14-.14.19.14.23.07.37.07.16-.21.23a.1.1 0 0 0 .08.1c.07 0 .07.06 0 .1s-.15.1-.08.12 0 .14.15.19-.07.12-.07.18-.08.33-.08.49-.07 0-.07 0h-.14s-.08-.06-.08-.1v-.19H112c-.21.12-.14.23-.43.35.29.08 0 .18.14.25-.43.12-.07.23-.14.35s.21 0 .29 0 0 .1 0 .14-.22.14-.07.23-.21.14-.15.16 0 .1.07.14a.18.18 0 0 1 .07.18h-.15.07c.51.1.28.25.28.39s0 0-.07 0h-.07a.23.23 0 0 1-.15-.25h-.21s-.22.27.07.41c.07 0 0 .06 0 .08s-.07.12-.07.17v.19c0 .05-.15.14 0 .2s-.15.1-.07.16.21.19.14.31-.21.2.07.29a.09.09 0 0 1-.07.08c-.21.08-.21.16 0 .23s-.21.1-.07.17 0 .14 0 .19-.07.14-.15.19.15.12.07.18a.66.66 0 0 0-.15.51c-.21 0 .43.08 0 .1s-.14-.08-.14-.12a2.06 2.06 0 0 1-.07-.66c0-.06-.43-.12-.07-.17 0-.08-.07-.14-.07-.21v-.42c0-.1.15-.2-.07-.29s.14-.08.14-.12-.07-.08-.14-.12-.07 0-.07 0h-.07a.31.31 0 0 0-.07.23.25.25 0 0 0-.08.21c0 .08-.14.18 0 .23s-.07.12.15.16c-.22.1.07.18 0 .27s0 .18-.07.27.14.21.14.33-.07.23 0 .35.07.16-.07.25-.07.16.07.25 0 .18 0 .25-.21.2.07.27-.14.1-.07.18.07.12.07.18.07.14-.14.19-.07 0-.07 0 .35.16.07.25-.15.16 0 .23 0 .06-.07.08-.15.14-.08.21-.21.1.08.16a1.2 1.2 0 0 1-.22 0c-.07 0-.43-.06-.07-.12-.22 0 .07-.12-.07-.18s0-.14 0-.21a.3.3 0 0 0 .07-.23v-.21c0-.08-.15-.18-.07-.21s0-.18 0-.27.14-.18 0-.27.14-.12.07-.16-.15-.1-.15-.16 0-.37-.21-.57c0-.06.21-.14.14-.18s-.14-.16-.07-.18c.29-.08-.14-.14 0-.19l-.21-.06c-.14 0-.07.06 0 .1s.07.06.07.08a3.68 3.68 0 0 1-.15.9h-.21c.21-.35-.15-.72 0-1.07 0-.08-.15-.14-.15-.21a.27.27 0 0 0-.07-.21c-.07-.16.07-.33.07-.49.5-.18.07-.37.07-.55 0 0-.07-.06-.07-.08.07-.25-.21-.53-.07-.78s.21-.23-.07-.33c.14-.06 0-.1 0-.16v-.19a14 14 0 0 1 .14-1.7.07.07 0 0 0-.07-.08c-.21 0-.36-.06-.29-.1s.15-.08 0-.12h.15c.07 0 .21 0 .21-.06a1 1 0 0 0 .07-.45 1.11 1.11 0 0 1-.21 0c-.07 0-.07 0 0 0s.07.12 0 .18h-.21s-.07 0-.07-.06-.14-.25.21-.35c-.07-.18.14-.33-.07-.51s0-.16 0-.23-.28-.12 0-.18c-.07-.14.21-.29-.07-.45-.07 0 .21-.12.15-.14s-.15-.08 0-.14.14-.12.07-.14-.07-.19-.07-.29a.25.25 0 0 1 .07-.21c.07-.06-.28-.1-.07-.16s-.07-.16.21-.19c-.21-.12.07-.27-.07-.39s-.14-.21 0-.31-.07-.06-.07-.1 0-.14.07-.16 0-.08.07-.12-.14-.12-.07-.19a.27.27 0 0 0 .07-.21c0-.08.22-.16-.07-.21.21-.06.29-.1.07-.16s.07-.12-.07-.18-.07-.1-.07-.16.14-.16-.07-.21c.43-.21.21-.47.28-.7 0-.06.28-.12.07-.19s-.15-.14.14-.18c-.29-.1-.29-.23-.36-.35s-.14-.14-.07-.19c.36-.21.14-.45.29-.68-.21-.1-.21-.16 0-.25s-.07-.14-.15-.19-.43-.23-.14-.35c-.36-.2.07-.39-.22-.58-.07-.08-.07-.17.15-.27s.07-.12.07-.18-.14-.1-.07-.14c.36-.2.21-.41.28-.6s.15-.16-.07-.23c.22-.06.15-.14.15-.21a.3.3 0 0 0 .07-.23c0-.06-.29-.12 0-.18-.22 0 .07-.14-.15-.17.21-.08-.07-.16 0-.23s0-.08-.07-.1c-.36-.1-.14-.19-.07-.31l.21-.14v-.06h-.28c.07 0 .21-.08.21-.14a.34.34 0 0 0 .07-.25c0-.1 0-.18-.28-.23s-.29-.12-.15-.14c.36-.08.07-.16 0-.2-.28-.14 0-.29-.07-.43.58-.08.36-.17.22-.29s-.07-.08 0-.1.36-.19.07-.29c.29-.06.07-.14.07-.21v-.23c0-.07.15-.29-.07-.45s.21-.19.07-.31-.14-.25-.21-.39.28-.1 0-.16c-.07 0-.07-.1.14-.14-.29-.14-.07-.29-.07-.45s.14-.1.21-.14-.28-.1-.07-.16-.07-.1-.07-.14.07-.1-.07-.16.07-.08.07-.12.14-.08.07-.1c-.28-.16-.21-.31 0-.47 0 0-.07 0-.07-.06s-.21-.29-.14-.45a.76.76 0 0 0 .07-.55c0-.06.21-.1.14-.18s0-.16 0-.23a.24.24 0 0 1 .07-.21c.15-.06-.21-.12 0-.2s0-.14-.07-.21a.18.18 0 0 1 .07-.18c.07 0 0-.1.07-.12s-.15-.08-.07-.12a.13.13 0 0 0 .07-.14h.28c.07 0 .07 0 .07.06s.07 0 .07-.06a.25.25 0 0 0 .07-.19h.14c0 .06-.14.12.07.18 0-.06.07-.12.07-.18s.07-.14-.15-.21.07-.12.15-.16.14-.18-.15-.23c-.07 0-.07 0 0-.08s0-.08 0-.12-.14-.1-.07-.12.22-.16.15-.22 0-.17.07-.27 0-.1-.07-.1-.36 0 0-.06c.07 0 .14 0 .14-.06-.21-.14-.07-.29-.21-.45s.07-.14-.14-.2-.07-.06 0-.06c.29-.06 0-.14.07-.2s.07-.12-.07-.18 0-.08 0-.12c0-.25.29-.49 0-.74-.07-.08.07-.16 0-.21s.21-.12.07-.2-.07-.16 0-.21c.22-.29-.07-.6 0-.9 0 0-.07 0-.14-.06a.87.87 0 0 0-.22 0h-.14c-.07-.16-.07-.29-.15-.45s0-.51-.07-.76c0-.1-.07-.2.07-.27s-.28-.08-.07-.16-.14-.12-.07-.18.36-.1.07-.16c-.07 0 0-.1 0-.14v-.21c0-.08.15-.18 0-.23s.22-.1.07-.18-.14-.08-.14-.12-.07-.12 0-.16c.36-.18.14-.35.21-.53h-.15l.22-.21c-.36-.06.21-.12-.07-.18-.07 0 .14-.1.07-.14s-.07-.25.21-.35c.07 0-.14-.08.07-.1-.07-.06-.28-.1-.28-.14s.21-.1.14-.12c-.28-.06-.14-.14-.14-.2s.21-.25-.07-.39.36-.12 0-.18c.21-.06.28-.12-.15-.14 0-.06-.21-.16.22-.18l.14-.06c-.21-.08.07-.14.07-.21s-.28-.14 0-.19c-.28-.14 0-.29-.07-.43s-.14-.16-.07-.21-.14-.14 0-.19c-.57-.12-.29-.27-.29-.43s-.21-.43-.07-.64c0 0-.07-.08-.14-.12s-.07 0-.07-.06 0 0-.07.06.22.12.07.18.15.08-.07.12-.07.1-.07.16-.07.1-.07.14-.21-.1-.21-.16a1.41 1.41 0 0 1-.07-.55c0-.06 0-.14-.14-.19s-.15-.08-.15-.14.15-.08.07-.14-.07-.29-.15-.43l-.21-.35s-.07 0-.07-.06a1.51 1.51 0 0 0-.07-.57c0-.08-.14-.14-.14-.21v-.21c0-.07 0-.12.21-.16v.14h.28s.07-.06.07-.08l-.21-.12h-.07c.07 0 .14-.08.14-.1-.07-.18.14-.33.29-.51a5.33 5.33 0 0 1 .64-.35h.64a.43.43 0 0 1 .43 0c.22 0 .43-.06.58-.1s.38.1.38.47zm-.86 41.62h-.07c-.07 0 .07 0 .07.06s.07 0 .07 0-.07-.04-.07-.06zm-.07-1h.21-.21zm-.07.43h.21-.07s-.07.05-.15.05zm.14.19h-.07s-.14 0-.14.06.07 0 .07 0 .07.01.14-.01zm.93-.82h-.07s-.07.12 0 .16.07.29.07.45.07.08.14.12h.14s-.07-.1-.07-.16.07-.1.07-.14h-.07c.07 0 .07-.06.07-.08s-.07-.1-.07-.14v-.12s-.07-.06-.14-.1-.07.08-.07.06zm-.07-.43l-.15.06s.07.06.07.08.07 0 .07-.06-.1.01.01-.02zm.86-.93a.39.39 0 0 0-.21 0h.21zm.36-1.4h-.15s.08.06.08.08h.14-.07zm.42-4.62h-.07.14s-.07.07-.07.05zm-1.93-.08h-.07.14s0 .07-.07.05zm2.5-.8h-.07.07c-.07.07-.07.07 0 .05zm-.14-.74h-.08s.08 0 .08.06.07 0 .07 0 0-.01-.07-.01zm-2.29-.06a.4.4 0 0 0-.21 0h.21zm.93-.23h-.21.21zm-.93-.7h.21-.21zm0 .41h-.14s.07 0 .07.06a.57.57 0 0 0 .14 0s.04.01-.07-.01zm.86-.14h-.14l-.21.1h.07a.48.48 0 0 0 .28-.06zm.15 0zm-.07-.08c-.07 0-.14 0-.14.06s0 0 .07 0 .06-.01.06-.05zm-1-.1h-.22l.36.1s.07 0 .07-.06-.04-.02-.22-.02zm.86-.08h-.07s.07 0 .07.06.07 0 .07 0-.08-.02-.08-.04zm-.07-.08h-.21.21zm-.5-3.22h.14-.14zm-.28 1.52a.39.39 0 0 0 .21 0h-.21zm.21 1.27h.07a.79.79 0 0 0-.21 0h-.07zm-.07.33h-.14v.06h.07s-.02-.02.09-.04zm2.15-2.12s-.07 0-.07.06v.1h.15v-.08c-.1 0-.1-.02-.1-.06zm.08-.1H113h.22zm-.21-1.4c-.07 0-.07 0-.15.06s.07.06.07.08.07 0 .07-.06zm-1.65-.16s-.07.06-.07.1-.07.19 0 .27.15.12-.07.16c.21.06.07.12.14.18s-.28.12-.07.19c-.28.08.15.14 0 .21h-.14.14c0 .08-.36.16-.07.23.07 0 .07.06 0 .06-.36.06-.07.1.07.16s.15.06-.14.06H111h.21c.07.06.21.12.14.18v.16h-.28.21s.07 0 .15.06-.28.08-.07.16.21.16.21.23-.29.12-.07.2.07.16 0 .23.14.43.07.64c-.07.06.21.12-.07.17a.45.45 0 0 0 .14.08h.14c.07 0 .21-.12.14-.16s-.07-.14-.07-.2v-.19c0-.05-.15-.12-.07-.18s-.07-.12-.07-.18.22-.29-.07-.43c.21-.06.07-.14.14-.18s-.14-.08-.07-.14.15-.23.07-.35-.21-.21.07-.33c-.29-.1-.15-.19-.15-.27a1.62 1.62 0 0 1 .07-.58c.07-.08 0-.16-.14-.23s-.14 0 0-.08a.14.14 0 0 0 .07-.14c.05-.01-.16-.11-.31-.09zm-1.71-.94a.42.42 0 0 0-.22 0h.22l.04.01zm-.29-1.64h-.07s.07 0 .07.06 0 0 .07 0-.03-.01-.03-.05zm2.5-1.09h-.07.14s.08.03-.03.01zm.93-.6a.39.39 0 0 0-.21 0h.21zm-.07-1.15h-.07v.12c0 .14.07.19.07.18s.07-.12.07-.18v-.12zm-1.93-1.17a.42.42 0 0 0-.22 0h.22zm2.22-1.75h-.15.15s0-.02 0 0zm-3.29 0a.4.4 0 0 0-.21 0h.21zm3-.55h-.07s.14.18.07.27.07 0 .07.06.07 0 .07 0v-.29s-.03-.07-.1-.07zm-.14-.2h-.07a1 1 0 0 0 .21.1h.14s0-.06-.07-.08-.03-.03-.17-.05zm-3-.1l-.07.06s.21.06.28.1.07 0 .07 0a1.2 1.2 0 0 0-.25-.18zm3.36-.06h-.15s.07.06.07.08h.15v-.1zm-2.86 0a.76.76 0 0 0-.21 0h.21zm2.57-.55h-.07c.21.1.14.21.14.31s.07.1.14.14.07 0 .07 0h.07c.07-.08 0-.17.21-.23-.21 0-.14-.1-.14-.16zm.14-.51h-.21.07zm0-.43c-.07 0-.21.06-.21.08a2.34 2.34 0 0 0 .36.1h.07l-.15-.1s-.03-.08-.03-.13zm.07-.82l-.21-.06h-.14s-.08.08.14.08a.45.45 0 0 0 .25-.07zm.15-.06zm0 0h-.07s.07-.05.07-.07zm-.15-.33c-.07 0-.07 0-.14.06s.07.06.07.08.15 0 .15-.06-.04-.11-.04-.15zm.15-.64a1.64 1.64 0 0 0-.36.16h.21c.21 0 .21-.08.21-.12s-.07 0-.07 0zm0-.14h-.15s.07 0 .07.06h.14s-.06-.07-.06-.13zm-.29 0a.77.77 0 0 0-.21 0h.21zm-2.71-2.29a.41.41 0 0 0-.22 0h.22zm0-.8h-.15a.55.55 0 0 0-.07.33h.36s-.21-.21-.14-.31zm0-.1a.81.81 0 0 0-.22 0h.22zm0-.31h-.07s.07 0 .07.06 0 0 .07 0-.07-.04-.07-.06zm-.07-.37h-.21c.07 0 .07 0 .07.06l.29-.06a.6.6 0 0 0-.08 0zm-.64-6.74c-.07 0-.22 0-.22.06l.22.08.14-.06c-.04-.02-.04-.06-.11-.08zm-.07-.16h-.07.07s-.04.02.03 0zm-.5-.7s-.07 0-.07.06v.14c0 .06-.07.12.15.16-.07 0-.22.06 0 .1s.14.08.14.14h.36a2.62 2.62 0 0 1-.43-.53s-.05-.05-.12-.07zm0-.21h-.14a.11.11 0 0 0 .07.12h.21c-.04-.01-.11-.03-.11-.12zm-.21-.33c-.36 0 0 0 0 .08a.26.26 0 0 0-.07.21h.14c-.14 0 0-.06.07-.06s-.07-.06-.07-.12c.42-.06.02-.11-.05-.11zm-.07-.25h-.07a.32.32 0 0 0 .15 0c-.06.01-.06.01-.06-.01zm3.74 41.65c.08 0 .08-.06.15-.1h.07c.07 0 .29.08.07.12s-.14.1 0 .14 0 0-.07.06h-.29v-.14s-.01-.06.07-.08z"/><path class="cls-1" d="M112.89 148.91h.22c.14 0 .36.18.29.21h-.07c-.22-.02-.51-.12-.44-.21zM112 172.9s.14-.06.22-.1.07.06.07.08v.21h-.15c.04-.04-.04-.09-.14-.19zm-2.47.29h-.21c-.07-.08 0-.16 0-.23s0 0 .07 0h.07s-.07.16.15.21zm0-2.38h-.21c-.07-.06-.07-.12-.15-.18s.07 0 .15 0zm-.07 1.76h-.07s0-.06-.07-.08 0-.06.07-.08h.07s.07.06.07.08v.12l-.07-.04zm2.79-1.25a.12.12 0 0 1 .07.1v.16a.64.64 0 0 1-.15 0h-.07v-.12c.08-.06-.1-.12.15-.14z"/><path class="cls-1" d="M112.1 172.68h.29c.07 0 .07.06.07.06s-.21.06-.28.1-.08-.08-.08-.16zm-2-26.87v.19h-.07v-.14s.07-.03.07-.05zm3.58 12.08s.07 0 .07-.06a1.09 1.09 0 0 0 .21.08h-.28s-.08 0 0-.02zm-4.36 14.42h-.07s-.07-.06-.07-.08.15 0 .15-.06.06.1-.01.14zm2.86.08h.28-.14c-.07.04-.14.02-.14 0zm-.08.18h.07c.07 0 .08 0 .08.06s-.08 0-.08 0-.07-.04-.07-.06zm.15 1.57a.56.56 0 0 0 .14 0v.06a.55.55 0 0 1-.14 0c-.07-.02-.07-.04 0-.06zm-2.86-3.62h-.22s.07 0 .07-.06zm0-15.16h-.07s-.07 0-.07-.06 0 0 .07 0 .07.04.07.06zm3.5-5.24h.15-.14zm.11.5h-.07.14zm-1 18.48h.14-.14zm.18 3.23h.15-.15zm.07-.48h.14-.14s.08-.02 0 0zm-2.86-33.42a.35.35 0 0 1 .14 0h-.14zm-.21 17.09h.15-.15zm.14 14.32h-.07s-.07 0 0 0-.07 0 0 0h.07zm0 .41h-.14.15c.06 0 .06.02-.01 0zm.07-.16h-.14.07c.07-.02.07-.02.07 0zm3.43-19.54h.14-.07s-.07.02-.07 0zm.07-.1h.15-.07c-.08.02-.08.02-.08 0zm-.07-.23h.14zm-1.28 7.65h-.15.15zm0 .94h-.15z"/><path class="cls-1" d="M110.83 2.61c0 .07-.35.27-.32.41a3 3 0 0 1-.46.62 1.9 1.9 0 0 1-.59.36 13.31 13.31 0 0 1-2.27.4c-1.34.17-2.66.31-4 .54a26.72 26.72 0 0 0-3.89.84c-.93.24-1.3.42-1.59.86a5.92 5.92 0 0 1-2.79 1.47c-.75.22-1.5.37-2.25.59-2.93 1-5.85 2-8.8 2.91a19 19 0 0 0-2.5 1 5 5 0 0 1-1.48.49 1.45 1.45 0 0 0-1.1.4c-.51.29-1.05.48-1.58.73a6.65 6.65 0 0 0-1.08.44 8.25 8.25 0 0 1-2.68 1.15l-.35.19c-1.36.95-2.86 1.74-4.35 2.6s-3 1.68-4.47 2.67a34.28 34.28 0 0 1-3.39 1.92 13 13 0 0 0-2.62 2 21.78 21.78 0 0 1-2 1.59 25.41 25.41 0 0 1-2.63 2c-.83.52-1.33 1.44-2.16 1.64-.42.72-1.4 1.05-2 1.6a16.82 16.82 0 0 1-1.89 1.66c-.44.39-.92.72-1.36 1.11s-.92.72-.86 1.07c0 .05-.32.51-.6.77-1.4 1.34-2.79 2.69-4.07 4.1l-2 2.06-1.7 2.1a46.75 46.75 0 0 0-4.42 5.1l-3.66 5.22c-.45.62-.75 1.58-1.49 1.78-.39.68-.73 1.37-1.1 2.05-.26.52-.4.89-.78 1.1a2.92 2.92 0 0 1-.29.73 7.85 7.85 0 0 0-.94 1c-.1.17 0 .44-.15.8s-.49.83-.78 1.33a15.37 15.37 0 0 1-1.2 2 5.06 5.06 0 0 0-.73 1.35 21.54 21.54 0 0 1-2.1 4.33 12.36 12.36 0 0 0-.59 1.42 19.91 19.91 0 0 1-1 2.49c-.51.83-.62 1.82-1.11 2.66a4.24 4.24 0 0 0-.15.56c-.89.69-.82 1.75-1 2.49s-.28 1.36-.75 1.81A10.1 10.1 0 0 1 14 85c-.13.36-.52.84-.25 1.14a3.88 3.88 0 0 1-.32.91 13.57 13.57 0 0 0-1.08 3.3l-.22.74-.5 1.67a2.66 2.66 0 0 0-.15.76l-.28-.08a2.92 2.92 0 0 0-.21.75c0 .8-.39 1.69-.41 2.29 0 .81-.59 1.45-.38 2.1 0 .21-.5 1.07-.51 1.47-.06.58.13 1-.14 1.56s-.06 1.17-.38 1.69-.07 1.37-.54 1.87c-.09.77-.48 1.28-.38 1.9a7.58 7.58 0 0 0-.25 1.28 15.87 15.87 0 0 0-.3 2.11 18.13 18.13 0 0 0-.46 1.88c-.07.38-.07 1-.13 1.35a2.26 2.26 0 0 1-.14 1 4.77 4.77 0 0 0-.32 2.3 25.31 25.31 0 0 1-.37 4.25c-.27 1.72-.55 3.45-.78 5.17a1.66 1.66 0 0 0 0 .59 6 6 0 0 1-.16 3.3c-.18.76 0 .58.1.78a3.55 3.55 0 0 1 0 1.17c-.27.95 0 2.16-.31 3.12-.17.59.3 1.19 0 1.77s.09 1-.07 1.38c.2.2.1.79.08 1.17a9.29 9.29 0 0 0-.14 3.08c.07 0 0 .59 0 .78a3.56 3.56 0 0 0-.15 2.13 13.45 13.45 0 0 1 0 3.68v.38a5.09 5.09 0 0 1-.3 3.28c-.07 0 0 .38 0 .58a11.49 11.49 0 0 1 .18 1.53c0 .58-.06.77.17 1.14a10.28 10.28 0 0 1 .08 1.52c0 .39-.31-.55-.27.21a4.2 4.2 0 0 0 .26.94 1.28 1.28 0 0 0 .1.37c-.27 1 .27 1.69.29 2.44a9.83 9.83 0 0 1 .24 2.42 4.18 4.18 0 0 0 .15 1.3c.17.72.5 1.39.27 2-.07 0 .08.36.12.53a2.47 2.47 0 0 1 .57 1.72l.1.34c.44-.14.56 1.09 1 1.49 0 0 .13.32.06.34s-.49.06.17.66a1.86 1.86 0 0 1 .86 1.57l.36.51a2.72 2.72 0 0 0 1.16.83c.25.12.4.68 1 .7 0-.06.3.1.4.25a2.69 2.69 0 0 0 1 .72 5.17 5.17 0 0 0 .61.21c.21.06.41.1.74.2s.53.16.68.31a11.62 11.62 0 0 0 2.08.91 13.29 13.29 0 0 0 2.13.51c.74.11 1.8.5 2.38.54a10.06 10.06 0 0 1 2.44.55c.18.11.58 0 .78.06.74.28 1.17.06 1.93.27a7.08 7.08 0 0 0 1.71.37 6.12 6.12 0 0 1 1.92.41 1.83 1.83 0 0 1 .55.23s.18.1.17.18a2.33 2.33 0 0 1 1.92.32 5.77 5.77 0 0 0 .8 0 1.87 1.87 0 0 1 1.75.14 4.51 4.51 0 0 1 .59 0c1.16.18 2.39-.07 3.26.65a24.82 24.82 0 0 0 2.54.15 18.9 18.9 0 0 1 3.48.42c1.15.24 2.51.33 3.86.51a31.57 31.57 0 0 1 4.24.67c1 .26 2.16 0 2.89.49a15.2 15.2 0 0 0 3.13.12l1 .1a6.69 6.69 0 0 0 2.13.29 9.17 9.17 0 0 1 1.93.26 3.41 3.41 0 0 1 1 .23c.75.43 1 .17 1.19 0a14.63 14.63 0 0 1 3.89.26 4.19 4.19 0 0 0 1 .16c4.48.37 9.14.69 13.82.94.59 0 1.37 0 1.54.36.6-.25 1.17.06 1.76.09 0 0 0-.28.2-.27a7 7 0 0 1 1.76.07 6 6 0 0 0 1.95.08c.79-.19.38.3 1.17.19a21.11 21.11 0 0 1 2.93 0c.58 0 1 0 1.35.25.19.22.2 0 .4-.06s.19-.06.39-.05c.78 0 1.55.47 2.34 0 .78.15 1.76 0 2.53.12.59 0 1.37.38 2 .17s1.37.08 2-.13c.39-.22 1 0 1.56 0h4.47c2.54-.17 4.89.26 7.23-.23a16.8 16.8 0 0 1 1.75 0 8.83 8.83 0 0 0 1.38 0 12.37 12.37 0 0 1 2.92.13 12.24 12.24 0 0 0 3.31 0 26.6 26.6 0 0 1 5.65-.31 3 3 0 0 0 .78-.19.76.76 0 0 1 .77-.11c.41.19.6.25 1 0a1.54 1.54 0 0 1 1.38-.07 3 3 0 0 0 1.56 0l2.53-.16a14.12 14.12 0 0 1 2.34 0 4.48 4.48 0 0 1 .58-.12 15.06 15.06 0 0 1 1.75-.27 10.15 10.15 0 0 1 2.54-.12 6.85 6.85 0 0 1 2.12-.33c0 .07.2.06.21.13l.37-.18 2.14-.18c.78-.07 1.54-.29 2.32-.29s1.74-.24 2.54-.18a9 9 0 0 1 2.33-.17 3.13 3.13 0 0 0 1.17-.13 10.22 10.22 0 0 1 2.92-.24 15.25 15.25 0 0 0 2.52-.37 15.24 15.24 0 0 1 3.48-.42 9 9 0 0 1 2-.11 9.66 9.66 0 0 0 1.91-.39 8 8 0 0 1 1.73-.31 7.49 7.49 0 0 0 1.73-.31c.56-.15.76-.18 1 0 0 .07.58 0 .58 0a4.51 4.51 0 0 1 2.11-.46c.78 0 1.51-.45 2.13-.25 2.69-.47 5.38-.94 8.07-1.45.76-.21.61.11 1 0 .77-.14 1.75-.24 2.5-.44a16.68 16.68 0 0 1 3.63-.6l.74-.15c.18-.11.55-.19.72-.3.54-.19 1.17 0 1.64-.38s1.28-.26 1.78-.49a13 13 0 0 1 1.86-.64c.53-.17.89-.29 1.61-.58a4.81 4.81 0 0 0 1.37-.75 4.88 4.88 0 0 1 1.08-.45c.48-.14.8-.28.81-.75 0-.05.29-.34.4-.44s.55-.23.73-.48a1.9 1.9 0 0 1 .49-.79 4.28 4.28 0 0 0 .78-1.42c.24-.61.45-1.1.65-1.57s.26-1 .5-1.69a7 7 0 0 0 .5-2.3 8.81 8.81 0 0 1 .67-2.73 2 2 0 0 0 .17-.93c-.19-1 .1-2.09 0-2.87a17.06 17.06 0 0 1 .11-2.5c0-.77 0-1.74.08-2.71s0-1.76 0-2.54v-1.57a1.3 1.3 0 0 1 .08-.39 5.89 5.89 0 0 1-.26-1.58c.09-.78.44-.77.31-1.55a1.68 1.68 0 0 1 .08-.58 1.87 1.87 0 0 0 .37-.77 5.47 5.47 0 0 0-.35-1.36.57.57 0 0 1 0-.58c.22-.19.21-.78.21-1.36a39.81 39.81 0 0 0-.28-4.47c-.09-.77-.05-1.75-.08-2.71 0-.39.26-1-.06-1.55a3.54 3.54 0 0 0-.09-1.74s0-.39.05-.39c.32-.8-.12-2.13.1-2.93v-.19a20.62 20.62 0 0 1-.58-2.83 24.91 24.91 0 0 1-.3-3.14 18.31 18.31 0 0 1-.13-3.11c0-.2-.14-.57-.16-.76a8.54 8.54 0 0 0-.23-1.34c-.23-.75.33-1.22-.15-2.13-.22-.56-.15-1.55-.33-2.31s-.35-1.71-.41-2.49-.5-1.3-.43-2.09c0-.59-.36-1.11-.44-1.89a22.16 22.16 0 0 0-.37-2.3l-.58-2.65a18.12 18.12 0 0 0-.38-2.3c-.21-.55-.07-1.18-.46-1.88a12.61 12.61 0 0 1-.6-2.05l-.81-3a1.84 1.84 0 0 1 0-.6 11.22 11.22 0 0 0-1-2.93c-.19-1.77-1.23-3.67-1.55-5.41a5.57 5.57 0 0 0-.52-1.47 33.58 33.58 0 0 1-2.29-5.75l-.38-.89c-.44-1.07-.93-2.12-1.34-3.21a14.69 14.69 0 0 0-1.17-2.44 26 26 0 0 0-2.63-4.72l-.19-.34a20.34 20.34 0 0 0-.87-1.95c-.29-.5-.82-1.09-1.12-1.58-1-1.65-2-3.27-3.08-4.91a4.61 4.61 0 0 1-.43-.87l-.1-.4c-.17-.11-.17-.11-.23-.07a6.27 6.27 0 0 1-.57-.55 8.89 8.89 0 0 0-1.77-2.29c-.34-.47-.64-1-1-1.42a28.91 28.91 0 0 0-2.5-3.2c-.85-.93-1.66-1.89-2.48-2.84s-1.58-2-2.4-2.92c-.54-.56-1-.69-1.4-1.34a17.24 17.24 0 0 0-1.29-1.44c-.53-.56-.77-1.15-1.38-1.35a23.65 23.65 0 0 0-2.38-2.42 24.33 24.33 0 0 1-2.47-2.34c-.49-.62-1.29-.88-1.91-1.65-.1-.18-.49-.31-.79-.56-1.26-1.21-2.45-2.21-3.82-3.3a1.26 1.26 0 0 1-.26-.29 3.91 3.91 0 0 0-2.14-1.7c-.16-.11-.36-.16-.52-.28l-3-2.17c-.32-.22-.48-.34-.64-.44a14.31 14.31 0 0 0-1.36-1.12 13.51 13.51 0 0 0-1.52-.88c-1.8-1.16-3.63-2.26-5.35-3.59-.83-.52-1.59-.77-2.24-1.2a17.79 17.79 0 0 0-2-1.29 15.15 15.15 0 0 0-1.68-.57c-.21 0-.73-.28-.82-.55a5.84 5.84 0 0 1-1.79-.79 3.78 3.78 0 0 0-1.4-.69 2 2 0 0 1-.87-.46 8.65 8.65 0 0 0-2.15-.94c-.82-.09-1.41-.7-2-.71a3.69 3.69 0 0 0-.84-.56c-.52-.28-1.3-.43-1.64-.64-.51-.33-1.14-.31-1.3-.45-.79-.72-2.48-.62-3.27-1.35-1.15-.27-2.4-.86-3.57-1.07-1-.21-1.84-.7-2.6-.89-1.13-.33-2.26-.66-3.41-1s-2.3-.53-3.44-.82c-.57-.12-.93-.34-1.31-.42a6.73 6.73 0 0 0-1.16-.24 5.19 5.19 0 0 0-2-.28 2.93 2.93 0 0 1-.77-.2c-.52-.3-.89-.58-1.44-.89-.73-.48-.29-.69.36-1A6.81 6.81 0 0 1 114 .18a8.7 8.7 0 0 0 1.63-.18c.23-.11.61.11.8.15 1.38.39 2.73.78 4 1.17.62.19 1.35.38 2 .6s1.35.44 2 .67 1.68.52 2.47.73 1.54.45 2.33.61c-.24.08-.26.15-.46.16a1.62 1.62 0 0 0 .55.24 21.5 21.5 0 0 1 2.18.35c.76.22 1.24.68 2 .95a5.4 5.4 0 0 0 2.52.64c.43 0 .64 0 .52-.27-.26-.47.38-.48 1.19-.34l1.57.39a8.42 8.42 0 0 1 3.41 1.27c.69.45 1.48.65 2.19 1a11.67 11.67 0 0 0 2 1c.58.2 1.06.12 1.51.57.63.54 1.15.4 1.63.79a7.29 7.29 0 0 0 1.57.92c.35.19 1.1.51 1 .76.21 0 .53.28.57.22a2.75 2.75 0 0 1 1.84.82 3.36 3.36 0 0 0 1.41.78 50.8 50.8 0 0 1 4.44 2.82 4.53 4.53 0 0 0 1.19.76c.58.2 1.05.59.86.89a2.58 2.58 0 0 0 .43.45 5.4 5.4 0 0 0 1.59.87c-.12.18.25.35.58.58.16.11.37.17.53.28a1.9 1.9 0 0 0-.37-.52 3.22 3.22 0 0 0-.74-.34c.28-.06.24-.35.86.16a15.14 15.14 0 0 1 1.4 1.15c.45.4 0 .06-.25 0s-.2-.06-.25 0c1 .69 1.94 1.42 2.89 2.16.16.12.57.25.68.43a4.68 4.68 0 0 0 1.73 1.36 8 8 0 0 0 1.48 1.36 42.55 42.55 0 0 1 4.15 3.76c.7.71 1.45 1.38 2.2 2s.39.16.34-.08c0-.05.25 0 .3 0 .19.68 1.36 1.2 1.35 1.79a1.38 1.38 0 0 1 .24.33c1 .73 1.55 1.84 2.62 2.47.19.09.28.29.41.43 1.24 1.59 2.39 3 3.75 4.42.85.86 1.27 1.82 2.12 2.4-.06 0-.11.09 0 .29a1.79 1.79 0 0 0 .33.51c.05 0 .23.06.29 0 0-.24-.16-.64.4-.08a3 3 0 0 1 1.36 2 7.8 7.8 0 0 0 1 1.53c.81 1.14 1.58 2.06 2.41 3.19a1.7 1.7 0 0 0 .41.45.76.76 0 0 1 .46.89c.06.2.18.37.23.58.06 0 .23.08.29 0s.23.08.29 0c.11.16.23.33.17.37a3.09 3.09 0 0 0 .83 1.86 1.63 1.63 0 0 1 .39.46c0-.24.07-.28 0-.49s0-.25.07-.28a7.87 7.87 0 0 0 1 1.51c0 .25-.13.32-.14.57a1.72 1.72 0 0 0 .32.5c.27.3.61.56.65.77a1.93 1.93 0 0 0 .68 1.26 5.83 5.83 0 0 1 1.68 2.73c-.13.07-.34 0-.12.53a15.37 15.37 0 0 1 1.2 2.52c.06.42.34.49.56.6s.62.58.21.56l-.13.06c.36.72.74 1.64 1.16 2.33.08.18.43.23.51.41a6.41 6.41 0 0 1 .95 2.2 3.7 3.7 0 0 0 1 2.4 1.42 1.42 0 0 1 .31.73 5.49 5.49 0 0 0 1.12 2.77l.14.37c.15.8.24 1.4.44 2.17a3.15 3.15 0 0 0 .4.69l.27.32c-.34.33.06 1 .26 1.6s.33 1.15.51 1.71a14.57 14.57 0 0 0 .55 1.69c.38.92.34 2 .75 2.88a10.89 10.89 0 0 1 .89 3c.12 1 .57 2.1.63 2.89 0 1 .71 1.66.63 2.49a5.34 5.34 0 0 0 .28.54 3.29 3.29 0 0 1 .45 2.53c-.05.42-.05.42.28.95a1.38 1.38 0 0 1 .29 1.35c.19 1.17.3 2.56.46 3.73 0 .2.15.77.22.76.72.68.59 2.11.82 3.07 0 .19 0 .4-.07.42-.32.25-.36.46 0 1s.61 1.1.24 1.56c0 0 .06.39.13.38a3.22 3.22 0 0 1 .38 2.14c-.37.45-.34.64 0 1.2.07 0 .17.18.24.17.14.58.52 1.33 0 1.4-.07 0 0 .2 0 .4.45.15.33 1 .33 1.55s0 1.19.36 1.35c.07 0 .09 1 .22 1.57s.11 1.17-.24 1.21v.4c.58.74.42 1.75.43 2.73a2.36 2.36 0 0 0 .07 1v.6c-.08 0-.14 0-.23-.18s-.1-.39-.19-.58c0 .2-.06.2 0 .4a7.66 7.66 0 0 1 .15 2.35 1.3 1.3 0 0 0 .09.39c.15.19.29.18.12.78a4.83 4.83 0 0 0-.24 1c0 .2.1.59.17.58h.36a3.7 3.7 0 0 0-.1 1c0 .59.18 1.37-.17 1.58-.07 0-.06.39-.06.39a10.21 10.21 0 0 0 .21 2.17 9 9 0 0 1 0 2 19.09 19.09 0 0 1 .16 2.17 3.74 3.74 0 0 1-.08 1.38 9.75 9.75 0 0 0 .12 2.57 8.83 8.83 0 0 1 .05 1.38 14.75 14.75 0 0 0-.18 1.76c0 .78-.5-.2-.37.78a14.65 14.65 0 0 1 .11 1.76 13.86 13.86 0 0 1-.1 1.77v.39a9.57 9.57 0 0 1-.2 4.13 2.46 2.46 0 0 0 .06 1.58c0 .2.06.2 0 .4s0 .6 0 .8c-.14 0-.21 0-.27-.22-.07 0-.06-.2-.13-.21a1.29 1.29 0 0 1-.1.39 4.72 4.72 0 0 1-.17 2.56 1.5 1.5 0 0 1-.31 1.75c-.07 0-.13.38-.13.38.09.42.19 1-.25 1.36 0 .4-.31 1.14-.14 1.6a9.23 9.23 0 0 0-.62 2.31 4.42 4.42 0 0 0-.55 1 6.18 6.18 0 0 1-.57.95 6.24 6.24 0 0 0-.25.77c0 .21 0 .21-.37.48-.06 0-.16.13-.16.13a2.93 2.93 0 0 1-.7 1.1c-.32.33-.67.61-.92.93-.1.19-.26.32-.37.51l-.16.12v-.06a4 4 0 0 0-1.64 1.16 5 5 0 0 1-2.52 1.19c-.09 0-.77.23-1.41.42a10.5 10.5 0 0 0-1.25.39 1.26 1.26 0 0 1-1.51.46l-.38.1c-1.62.88-3.25.85-5 1a4.28 4.28 0 0 0-1.34.32 8.93 8.93 0 0 1-3.85.75 3.72 3.72 0 0 0-1.74.31 2.41 2.41 0 0 0-1.57.12 13.13 13.13 0 0 1-4 .88 8.78 8.78 0 0 0-1.35.28 12 12 0 0 1-3.87.66c-.4 0-4.09.51-4.48.56a5 5 0 0 1-2.76.15c-.2 0-.39.05-.38.12-.34.4-.59 0-1 .13a17.81 17.81 0 0 0-3.54.16c-.2 0-.39.12-.58.14 0 .07.21.12.41.17a1.33 1.33 0 0 0 .4 0c-.19 0-.18.09-.38.12l-2.36.06c-.4 0-1 .19-1.36.23a2.52 2.52 0 0 0-1.76.12c-.38.18-.55.42-.79.08a11.5 11.5 0 0 0-2.74.15 17 17 0 0 1-2.74.27c-1 .09-.57.2-.17.31 0 .07.21.05.21.12a1.25 1.25 0 0 0-.38.11 3.69 3.69 0 0 0-1.76.17 13 13 0 0 1-1.75.16c-.2 0-.21-.06-.41-.11.19 0 .19-.09.39-.11l.18-.09c-.4 0-.79-.08-1.38-.1-.2 0-.2.09-.38.18a6.09 6.09 0 0 1-2 .17.83.83 0 0 0-1 .08c-.19 0-.58.11-.77.13 0 .15.61.17-.18.3s-1.58 0-2.35.1c-.59 0-1.2-.2-1.37.24h-.39a2.89 2.89 0 0 0-1.57 0c-.58.11-1.56.32-2-.09h-.39a18.29 18.29 0 0 1-5.68.39 3.83 3.83 0 0 0-1.36.21c-.4.09-.4 0-.6-.19l-.2-.06c-1 0-1.76.07-2.75.18-.39 0 .6.26-.38.3a6.65 6.65 0 0 0-1.17 0c.37-.59-.8-.18-1.19-.25h-.79c-1.17 0-.18.22-.18.36a5.48 5.48 0 0 1-.79.17 20.49 20.49 0 0 0-3.53.1c-1 .09-2.36 0-3.54 0-.59 0-.39-.07-.2-.21a6.49 6.49 0 0 0-1.17 0 6.82 6.82 0 0 1-2.75.3 1.39 1.39 0 0 0-.39-.07c.19 0 .39 0 .39-.08s.2-.21.2-.29H115c-1.18.36-2.74.1-3.93.31-1-.29-1 .28-1.57.2-1.17-.08-2.56.41-3.54-.24 0-.07-.39 0-.39 0-.19.07-.39.21-.59.28l-.78-.3c-.2 0-.39-.22-.79 0l-.59.2c.2-.14.2-.21.2-.28a6.17 6.17 0 0 0-1.57-.1 8.83 8.83 0 0 1-3.14 0h-.78a17.78 17.78 0 0 1-3.93-.12 21.15 21.15 0 0 0-2.15-.09c-.79 0-1 .1-1.19.31l-1.17-.26c-.39-.09-.59-.1-.78 0-.22.35-1 .31-1.79.27l-1.18-.06c-.78 0-.39-.09-.38-.23s-.18-.16-1.37-.07a2.76 2.76 0 0 1-.79-.12 16.19 16.19 0 0 0-3.71-.37c0 .36-1 .08-1.4.2-.18-.23-.56-.4-1.36-.24a19.52 19.52 0 0 1-2-.22h-.59c-.23.34-.61.17-1.18 0h-.59c-.21.27-.41.18-1 .06a6.17 6.17 0 0 0-2.33-.34c0 .07-.57-.26-.77-.28-.58 0-1.37 0-2.15-.05s-1.77-.17-2.55-.17a16 16 0 0 0-2.56-.11 2.48 2.48 0 0 0-1 0 3 3 0 0 1-.79.06c-1.55-.31-2.95-.17-4.49-.5 0 0-.19-.1-.18-.16-1.53-.47-3.51-.41-5.24-.93l-.39-.05c-2.58 0-5.07-.6-7.43-.79-.59 0-1.36-.27-1.6.05 0 .07-1-.15-1.38-.14-.58 0-.78 0-.95-.29 0 0-.57-.16-.76-.19a14.42 14.42 0 0 1-3.1-.56c0 .07-.21 0-.22.11v.07c.2 0 .19.1.38.14.57.1 1.15.26 1.73.35-.77-.12-1.37-.14-2.15-.27l-1.16-.19c-.4-.07-.77-.2-1.16-.26.39.06.78.06 1.18.12a1.27 1.27 0 0 0 .4 0c-.2 0-.19-.1-.37-.13a15.43 15.43 0 0 0-3.5-.51 1.63 1.63 0 0 0-.6 0c.19 0 .37.14.57.17s.37.14.56.17h-.4a20 20 0 0 0-2.93-.37s-.2 0-.18-.11v-.07h.4c.59 0 1 .24 1.39.1l-1.55-.27c-.58-.1-.87.35-1.59-.06a3 3 0 0 1-1.92-.43 1.92 1.92 0 0 0-.62 0l-.39-.08a12.44 12.44 0 0 0-2.14-.52h-.2a.91.91 0 0 1-.82 0 6.2 6.2 0 0 1-.76-.34 3.2 3.2 0 0 1-.7-.49c-.37-.18-.81-.16-.85 0l-.39-.12a6.3 6.3 0 0 0-1.93-.76l-.89-.35a7.77 7.77 0 0 1-.77-.36c-.73-.4-.82-.21-1.08-.18s-.37-.23-.64-.23c-.42-.13-.76-.42-.69-.54-.38-.22-.89-.64-1.12-.72a2.5 2.5 0 0 1-1.65-1.58c-.05-.11-.23-.36-.43-.66a5.57 5.57 0 0 0-.76-1 6.4 6.4 0 0 1-1.23-1.78 10.28 10.28 0 0 1-.82-2 8.08 8.08 0 0 0-.59-1.13c-.25-.57-.2-.15-.07.25.08.2 0 .23.09.42-.08-.19-.14-.17-.22-.37-.3-1-.79-2-.55-2.89a3 3 0 0 0-.6-2 5.07 5.07 0 0 0-.1-1s-.18-.17-.24-.15 0-.22.11-.23c.28 0 .35-.47 0-1.24-.13-.53-.2-1.38-.51-1.51.18-.83-.23-1.4-.27-2 0-.8-.13-1.4-.16-2.21v-.8c0 .19.09.39.11.79s0 .6.07 1c0 .2.09.2.11.4 0-.2.05-.21 0-.41-.07-.8 0-1.4-.12-2.19a9.22 9.22 0 0 1 0-3 6.1 6.1 0 0 0-.09-1 27.19 27.19 0 0 1 0-4.57c.08-.8.17-1.19-.19-1.2a.77.77 0 0 1-.13-.4l.1-2.77c0-.59.4-1 .22-1.77 0-.39.2-1.18.23-1.77a8.52 8.52 0 0 1 .24-2s0-.39-.05-.39c-.34-.41-.09-1 .07-1.38a.72.72 0 0 0 .09-.38c-.29 0-.42-.22-.46-.8l.09-1.77c0-.18.08-.18.08-.18s.14 0 .13.19 0 .39.11.6-.32.57 0 .79a2.71 2.71 0 0 0 .18-.78 8.61 8.61 0 0 0 .07-1.37c0-1-.21-.21-.28-.21-.06-.2-.27-.21-.1-.79.08-.2.49-2.36.5-2.55s0-.41-.12-.41-.2-.21-.27-.21c.09-.2.23-.19.25-.39a7.11 7.11 0 0 0 .15-1.17v-.6c0 .2-.12.59-.13.78a.79.79 0 0 0-.1.4c-.06-.21-.13-.21-.11-.41a20.42 20.42 0 0 1 .48-3.34 3.65 3.65 0 0 0 .12-2.18l.06-.59c.54-.34.1-1.59.47-2.34a1.73 1.73 0 0 1 0-1.39 18 18 0 0 1 .58-4.1 9.92 9.92 0 0 1 .59-3.33v-.2c-.25-2.06.65-4.12.9-6.1.09-.79.33-1.56.49-2.33l.18-.78c.22-1-.37-.28-.24-.87 0-.2.42.09.64-.87.42-1.54.65-2.92 1-4.27a1.75 1.75 0 0 0-.06-.84 1.72 1.72 0 0 1 .09-.6c0 .21.09.22.16.24.08.23.27.07.31-.33a27.64 27.64 0 0 1 1.31-5.22 10.1 10.1 0 0 0 .47-2.16A6.1 6.1 0 0 1 9 84h.13c.2.28.4.14.53-.66a1.9 1.9 0 0 1 .06-.61 19 19 0 0 0 .75-2.15c.21-.72.36-1.31.59-2 .2-.13.54-.22.56-1.07l.22-.56a.85.85 0 0 0 .37-.93v-.86a1 1 0 0 0 .59-.84c.11-.82.37-.5.52-.87.08-.19.17-.58.33-.95.19-.58.35-.94.53-1.52l-.39-.18.77-1.65c.24-.33.45-.45.69-.78a1 1 0 0 0 .38-.93c-.2-.55.45-.9.63-1.26a.87.87 0 0 0 .47-.89 34.11 34.11 0 0 0 3-5.48l-.12-.07a11.33 11.33 0 0 1 .83-1.38c.39-.48.74-.5 1-1.25a12.53 12.53 0 0 1 1.38-2c.5-.63.85-1.37 1.36-2a16.16 16.16 0 0 0 1.52-2.13 7.24 7.24 0 0 0 .55-1.1c.12-.41.25-.57.54-.6a5.58 5.58 0 0 0 .79-.92 9.08 9.08 0 0 1 .81-1.15 2.24 2.24 0 0 0 .71-1c.13-.16.38-.47.44-.42a.94.94 0 0 0 .67-.48c.13-.16 0-.29 0-.5a1.38 1.38 0 0 0 .2-.36 8 8 0 0 0 2.14-2.4 19.94 19.94 0 0 0 2.51-2.6 12.27 12.27 0 0 0 1.06-1.21 2.25 2.25 0 0 1 1-1 5.3 5.3 0 0 0 1.22-1.05l.17-.39c-.14.14-.33.24-.47.39s-.33.24-.47.38c.14-.14.08-.19.23-.34.46-.39 1-1.3 1.57-1.27 0 0 .48-.37.63-.51.58-.55 1.1-1.15 1.74-1.66s.78-.94 1.23-1.32a15.06 15.06 0 0 1 1.4-1.15c.15-.14.25-.32.41-.45-.15.14-.5.35-.65.48s-.49.34-.65.48l-.09-.11.11-.19c.49-.34 1.1-.88 1.74-1.36 0 0 .15-.13.2-.08.3 0 .44-.1.74-.37A19.22 19.22 0 0 0 48.46 27c.42-.44 1.11-1.19 1.69-1.11 0 0 .63-.5.59-.55.07-.23 0-.29.51-.65 0 .06.21-.07.36-.18-.11.18-.27.3-.23.35l.09.12a9 9 0 0 0 2.28-2c.28-.3.2-.06.4-.13.4-.12.4-.12.73-.7a3.37 3.37 0 0 1 .95-.75c1-.34 1-.34 1.27-.63a21.68 21.68 0 0 1 3.61-2.56 1.74 1.74 0 0 1 .54-.26 4.92 4.92 0 0 0 2.12-1.16c.58-.59 1.42-.75 2-1.34a4 4 0 0 1 1.1-.45 2 2 0 0 0 1.22-.69c0-.07.32-.25.32-.25a16.88 16.88 0 0 0 3.69-2c.36-.18.94-.38 1.3-.56a13.28 13.28 0 0 0 2.17-1 15.33 15.33 0 0 1 4-1.82c.59-.17 1.34-.44 2.09-.74a3 3 0 0 1 .74-.43 7.57 7.57 0 0 0 2.5-.74A17.09 17.09 0 0 1 87 6c1.52-.51 2.81-1.07 4.34-1.53a10.81 10.81 0 0 1 1.55-.39 15.41 15.41 0 0 0 2.38-.48l2.47-.67c.77-.2 1.57-.34 2.15-.55a9.57 9.57 0 0 1 2-.25c1.31-.34 2.47-.46 3.85-.73a29.42 29.42 0 0 1 3.59-.51c.16 0 .18 0 .37.08a14.26 14.26 0 0 0 1.5.48c.46.15.3.47-.37 1.16zm19 1.72v-.14h-.21zm19.63 10l-.36-.17c-.18-.09-.21 0-.41 0l.35.17c.14.02.17-.04.39-.02zm9.13 1.5l.07-.13h-.21l.14.16zm1.73 1c-.13-.16-.1-.23-.27-.33s-.56-.24-.73-.34c.14.16.1.22.28.33.31.2.52.24.69.34zm1.38 4.87c-.16-.1-.12-.17-.29-.27a.77.77 0 0 1-.37-.15c.16.1.13.16.29.27a1.34 1.34 0 0 1 .34.15zm2.43 2l-.16-.11zm1.57.49l-.32-.22zm6.54 5.32a2.65 2.65 0 0 0-.37-.48l-.59-.21c0 .06.22.36.22.36a4.26 4.26 0 0 1 .71.3zm2.83.29l-.92-.75-.09.11a2.8 2.8 0 0 0 .56.56 2.21 2.21 0 0 0 .38.05zm12.23 12.62c-.08-.2-.08-.2 0-.25l-.19-.1a1.27 1.27 0 0 1 .16.32zm-.05 0c.18.1.05 0-.08-.19.13.15.13.15.08.19zm2.1 2.36c.05 0-.08-.19.11-.09l-.19-.1zm.88 1.06h.05c-.07-.2-.07-.2-.25-.3a1.36 1.36 0 0 1 .17.31zm1.14 1.61l-.12-.15zm0 .25c.18.11.06 0-.07-.2.13.15.07.2.07.2zm1.93-.8c-.06 0 .07.2.07.2.13.15.13.15.18.11-.19-.1-.19-.1-.26-.31zm-.53 1.95a1.62 1.62 0 0 0-.26-.55c-.12-.15-.33-.5-.45-.65l-.18-.11c-.06 0 0 .25 0 .25a4.71 4.71 0 0 0 .57.8 1.55 1.55 0 0 0 .3.26zm8.3 9.67c-.11-.17-.11-.17-.17-.13s.15.13.15.13zm7.28 13.95c0-.21-.1-.39-.12-.6-.07 0-.21-.12-.36-.27.08.18.1.39.18.57s.21.33.28.3zm4.31 22l-.1-.37s-.12-.17-.19-.15l.1.37s.11.15.18.13zm4.34 6.8l-.08-.39zm.78 3.26l-.08-.39a.79.79 0 0 0-.15-.37l.08.38a1.19 1.19 0 0 1 .13.37zm2.7 21.31l.1-.4a5.56 5.56 0 0 1-.17-1h-.14c-.07 0-.12.21-.1.4a6.65 6.65 0 0 0 .3.99zm.25 3.34zm-.3 4.75l.06-.2a1.36 1.36 0 0 1-.09-.39 1.29 1.29 0 0 1-.05.4zm.49 3.32c0-.19.06-.2.06-.39s-.08-.19-.08-.39c0 .2-.07.2-.06.39a1.28 1.28 0 0 0 .07.37zm0 8.07zm.16 4.13h.07c.08 0 .08 0 0-.2.07.2 0 .2 0 0-.04.19-.04.18-.15.18zm-2.37.73h.07c0-.2-.07-.2-.07-.2zm-1.21 17.48h.14v-.2c-.15.01-.19.19-.19.19zm-6.19 12.48c.18-.08.21 0 .39-.1s.15-.15.33-.24c-.18.09-.21 0-.39.1a1.26 1.26 0 0 1-.38.23zm-14.09 3.61a1.43 1.43 0 0 0 .4 0c.2 0 .19-.1.37-.14h-.4a1.3 1.3 0 0 0-.42.13zm-.78.06l-.18.11h.2v-.07zm-13.14 2.28v.07l1.16-.18c.18-.1.57-.16.94-.29l.42.08c0-.07.18-.1.18-.1a1.3 1.3 0 0 0-.4 0c-.24-.25-.8 0-1.18 0a7 7 0 0 0-1.18.41zm-6 .78l.59-.08v-.07l-.39.05c-.31.02-.3.09-.3.09zM148.12 190v.15l.19-.09zm-4.69.54c0 .07.21.13.2.06.2 0 .19-.09.19-.09zm-5.69.26l.41.12c.19 0 .58-.1.78-.11v-.07a3.24 3.24 0 0 0-1.19.02zm-1.36.21h.2c.19-.08.19-.08 0-.14s-.2.03-.2.13zm-1.51-2.86c0 .07.19.06.2.14l.19-.08a1.23 1.23 0 0 1-.39-.1zm-.26 2.66c-.2.08 0 .07 0 .15v-.15zm-9.61.63a1.35 1.35 0 0 1 .4.06.83.83 0 0 0 .4-.08.8.8 0 0 0-.4-.06.76.76 0 0 1-.4.04zm-2.55.13c.2 0 .39.07.59.06s.39-.08.59-.08c-.2-.06-.59-.06-.79-.13-.39.05-.39.05-.39.12zm-2.17-.39v.07a.39.39 0 0 0 .4 0 .78.78 0 0 1-.4-.1zm-.38.37c0 .07.2.14.2.14.19 0 .19-.08.39-.08v-.07zm-4.12 0c.59.14.79.21.79.21.19-.07.19-.14.39-.22-.2 0-.39-.07-.59-.07s-.37.02-.6.02zm-30.25-.23c0 .07 0 .21.19.22h1.37c0-.08-.19-.23-.38-.24a4 4 0 0 0-1-.12s-.19.01-.19.08zm-1.33-.71zm-18.37-3.87h.2zm-4.29-.35h.2c.2-.05.2-.05 0-.14.19.09 0 .07 0 0s0 .03-.21.08zm-3.65 2.91c.2 0 0-.07 0-.14 0 .08-.21.05 0 .14zm-.75-.44c.2 0 .19.09.39.11a.84.84 0 0 0 .4 0 .74.74 0 0 0-.38-.12 1.26 1.26 0 0 0-.42-.04zm-1.79.16h.39zm-1.35-.15h.79l-.19-.09c-.24.07-.44.05-.6.09zM38.29 186c-.2 0 0 .07 0 .14s.21 0 0-.14c.01-.09-.19 0 0 0zm-19.59-2.36c-.22 0 0 .07.17.11-.19 0-.17-.11-.17-.11zm-9.1-3.21c.19.11.19.11.23 0-.19-.07-.23-.01-.23-.01zm-2.18-1.49l.13.2s.22.08.09-.11zm-2.25-4.26c-.06 0 0 .21-.12.07l.16.14zm2.2-1.81l-.13.07.14.12zm-5-2.84l.18.6h.07l-.12-.39s-.11-.01-.17-.24zm.3-2.37a2.93 2.93 0 0 0 .11.79c0 .2.21.57.25.77 0-.21-.07-.6 0-.82zm3-1c-.07 0-.07 0 0 .2-.13-.23-.13-.23-.06-.24zm-5-5.77v.2c.07 0 .09.19.14 0-.09-.09-.09-.09-.18-.25zm.71-3.25H1.2l.09.2zM1 148.51H.83l.07.19zm.35-2.17c0 .39-.09.59-.09.78l.06.2.23-.59c-.11.01-.1-.19-.23-.39zm-1-.83a6.3 6.3 0 0 1 0 1.19h.03v-.79zM5 137.09c-.08.19-.15.19-.16.38a1.41 1.41 0 0 1 0 .4c0-.2.08-.2.09-.4zm-4-.4a.74.74 0 0 0-.09.38c.08-.19.08-.19.15-.19s-.06 0-.06-.2zM4.58 131h-.07a.37.37 0 0 0 0 .39c-.06-.19 0-.19 0 0a.75.75 0 0 1 .07-.39zm1.19-28.06v.19c0 .21 0 .21.14 0s-.07-.2-.14-.21zm.49-.9h-.15v.2c.1-.04.14-.24.14-.24zm2.87-.37c0-.2-.07 0-.07 0h.07zm-2.91-1.06c-.07 0-.12.18-.19.16s0 .2.1.22.11-.17.18-.16c.04-.21-.03-.23-.1-.24zm3 .09h-.07.07c-.14.15-.09-.04-.02-.02zm-.68-14.08c-.07 0-.2.15-.2.15s.13-.18.2-.15zm4.09-.08c-.07.19-.13.16-.2.34s0 .21-.05.39c.06-.18.12-.16.19-.34a1.3 1.3 0 0 0 .07-.39zm-3.44-1.39h-.07a.42.42 0 0 0-.13.38H9a.81.81 0 0 1 .19-.38zm4.57-.07c-.07-.23-.13 0-.13 0v.21l.13-.16c-.08-.13-.02-.26-.01-.06zm1.49-4.42A.71.71 0 0 0 15 81a2 2 0 0 0-.15.8l.28-.75a1.26 1.26 0 0 0 .11-.4zm-.86-9.3a.73.73 0 0 0-.23.33c.07 0 .15-.16.22-.12s0-.23 0-.23zm4 1.19c0-.21 0-.21-.07 0h.07zm5.28-9.89c0-.21-.06 0-.06 0h.06zm-3.87-2.29c0-.21-.07 0-.17.14.11-.18.17-.14.17-.14zm2.2-.79l-.1.17c-.1.17-.1.17.06 0s.04-.17.04-.17zm4.16-1.08l-.17.13v.24c.14-.16.08-.2.19-.37zM30.72 45c.13-.16.13-.16.07-.21-.13.16-.13.16-.07.21zm14.76-9.65c-.14.13-.19.08-.33.21s-.09.19-.23.32c.14-.13.18-.08.33-.22s.13-.16.23-.35zm14.45-16.48c-.16.11-.37.16-.54.26l-.68.44a1.24 1.24 0 0 0-.29.28c.16-.11.2-.05.37-.16l.34-.22.18-.11a2.82 2.82 0 0 0 .62-.49z"/><path class="cls-1" d="M10.94 181.11c.58.28 1.12.48 1.54.68s1.07.46 1.66.68l.18.14c0 .07 0 .07-.25.06a1.59 1.59 0 0 0-.42-.08 4.64 4.64 0 0 0-1.41-.72l-.32-.12-.38-.17a1.77 1.77 0 0 1-.6-.47zm56.32 9.22c.19 0 .19.09.19.09-.19 0-.2.06-.4 0-.4 0-.77-.29-1.18-.11 0-.07-.18-.09-.17-.16s.2-.12.2-.12a2.89 2.89 0 0 1 1.36.3zm-2.55-.33v.14a4.49 4.49 0 0 1-1 .05c-.19 0-.18-.09-.38-.18a.8.8 0 0 1 .4 0 3.69 3.69 0 0 1 .98-.01zM11.6 77.57l-.6 1.68a2.23 2.23 0 0 1 .6-1.68zm33.58 110.2l1.14.36s-.2 0-.21.12c-.38-.12-.58-.15-1-.27zM219.95 119l-.16-1.37c.12.38.31.75.43 1.14-.08-.04-.13.16-.27.23zM62.57 189.81a1.9 1.9 0 0 1 .57.2 1.35 1.35 0 0 1-.41 0 1.68 1.68 0 0 1-.58-.13s-.18-.09-.18-.16a1.68 1.68 0 0 1 .6.09zm65.78 1.85a1.28 1.28 0 0 0-.39-.06 1.62 1.62 0 0 0 .58-.16c0 .08.2.14.21.21-.21-.06-.4-.06-.4.01zm92.47-30.04a5.34 5.34 0 0 1-.2.78l.06-.79c0-.2.09-.19.1-.39-.01.2.06.21.04.4zM64.3 186.1c.19.08.18.16.37.25-.19 0-.58-.13-.77-.15v-.21c.21.01.41.01.4.11zm32.22 5.68c.19 0 .39.09.59.09-.2 0-.4.06-.59.05s-.4-.08-.79-.09a3.59 3.59 0 0 1 .79-.05zM7.49 89.43c-.06.19-.18.36-.23.55.06-.19 0-.4.1-.59s.18-.37.24-.55c-.06.16-.05.4-.11.59zm197.68-24.08c-.09-.18-.12-.38-.06-.41s.16.14.22.1a4.42 4.42 0 0 1 .18.81c-.09-.17-.24-.32-.34-.5zm-54.88 124.59l.78-.06c0 .07-.18.09-.38.17-.01-.05-.2-.05-.4-.11zm-58.88 1.74h-.4c.2-.07.21-.14.41-.13 0-.07.19 0 .39 0zm-.8.04l-.38-.16h.78zM11.8 77.43l-.13-.05c.15-.37.23-.77.51-.88zm1.49-4.17c-.08.19-.14.16-.22.35a.79.79 0 0 1 .09-.41c.08-.18.15-.15.23-.34a1.23 1.23 0 0 0-.1.4zm179.63 111.29l.39-.06c-.18.1-.17.18-.37.21 0 .07-.19 0-.39.06.21-.04.39-.14.37-.21zM3.43 173.19c.08.2 0 .23.1.43-.15-.17-.21-.14-.29-.34s0-.22-.09-.42c.07.14.21.35.28.33zm15.8-112.71c.06 0 .16-.13.23-.09l-.2.35c-.1.17-.16.13-.26.31a1.76 1.76 0 0 0 .23-.57zm16.96 126.19c.2 0 .19.1.38.13h-.4c-.21 0-.17-.1-.38-.13.02-.06.21-.03.4 0zM16.52 66.12l-.37.72c0-.22.12-.39.15-.6s.22-.12.22-.12zm-8.85 52.7v-.19s.07 0 0 .19zm-.67 6.9c0-.19 0-.19-.05-.2s.07 0 .05.2c.11-.18.1.01 0 0zm.39-9.26v-.2h.07zm47.41 68.63h-.2zm97.02 1.91h-.4.4zm14.9 1.51c-.21-.12 0-.14.19-.09-.2 0-.19.09-.19.09zm6.23-.88h.19-.19zm1.16-.15c0-.07 0-.07.19-.1-.2.03-.19.1-.19.1zM131.07 4.26v.07-.07zm83.11 174.51c0-.06 0-.06.13-.18-.17.12-.13.18-.13.18zm4.24-5.44c-.14.16-.06 0-.06 0h.06zM207 68.91c-.16-.14-.16-.14-.09-.18l.09.18zm-2.34-5.09c-.06 0-.13.07-.23-.11.16.14.16.14.23.11s.04.18 0 0zm-15.4-21.88c-.08-.19.05 0 .11-.09s.08.2-.11.09zm-8.6-9.21c.1.19.1.19-.1.1l.1-.1zM9.92 81.81l-.14.37c.07-.19 0-.22.14-.37-.13.16-.07.18 0 0zM7 91.15c-.06.19-.06.19-.06 0zm-5.83 32.68c0 .2 0 .2-.09.19s.09-.19.09-.19zm-.74 15.38c-.08.19-.14 0-.07 0s0-.2.07 0zm-.08 1.37l-.08.2v-.4zm1.21 26.88c-.11-.18 0-.19 0-.19zm15.72 15.97c.22 0 .2.05 0 0zm-.01.07c-.17-.12 0-.07 0-.07v.07zm23.61 3.8c0 .07.19.1.19.1s0 .07-.21 0c.01-.03.2 0 .02-.1zm1.74.32a.63.63 0 0 1 .39.05l-.39-.05zm.98.14l.39.05c-.2 0-.21 0-.39-.05.17.1.18.03 0 0zm4.49.53v.14c0-.07-.19-.1 0-.14zm53.34 3.41h.2v.07l-.2-.07zM1.46 168.33c.07 0 .11.18 0 0 .12.18.05.2 0 0zM169.49 22.95c-.2-.06 0 .06 0 0zM94.36 191.8h.19s0 .07-.19 0c.18.07.19 0 0 0zm18.47.07h.39c-.22-.01-.22.07-.39 0zm1.17.06c-.2-.07 0-.07 0 0-.19 0-.19-.07 0 0zm39.62-2.27c-.2.09-.4 0-.2 0h.2c-.2.02-.2.09 0 0zM195.94 56.7l.22.32c-.11-.16-.17-.12-.17-.12zm-68.38 134.99l-.19-.07h.39s0 .06-.2.07z"/></g></g></svg>