<svg xmlns="http://www.w3.org/2000/svg" viewBox="0 0 40.12 128.93"><defs><style>.cls-1{fill:#58595b}</style></defs><title>weather_gauge</title><g id="Layer_2" data-name="Layer 2"><g id="General_Content" data-name="General Content"><path class="cls-1" d="M29 92.19c-.09-.08 0-.48-.13-.64A3.66 3.66 0 0 1 29 90a2.36 2.36 0 0 0 .09-1.36v-.24c0-1-.09-1.92-.09-2.87 0-.48-.09-.88 0-1.28a6.26 6.26 0 0 0 0-1.32c0-.64 0-.64.13-.88 0-.08.09-.08.09-.16a10.09 10.09 0 0 0 .13-2 13.07 13.07 0 0 1 0-2.63c0-.24-.18-.48 0-.64a1.49 1.49 0 0 1 0-.88 2.36 2.36 0 0 0-.09-1 1.28 1.28 0 0 1 0-.72c.18-.32 0-.48 0-.72s0-.56.13-.72a16.09 16.09 0 0 1-.13-2.08c0-.32.18-.48 0-.72s0-.48 0-.72l.09-.16c0 .08.13.16.13.24v2.72-.08a25.31 25.31 0 0 0 0-3.19v-.32c0-.24.09-.4 0-.56a14.29 14.29 0 0 1-.09-2.39 3.64 3.64 0 0 0-.09-1 1 1 0 0 1 0-.72c.18-.24-.09-.48 0-.64s-.09-.56 0-.8a3.54 3.54 0 0 0 0-1.36 3.17 3.17 0 0 0 0-1.44 3.5 3.5 0 0 1 0-1 10.72 10.72 0 0 0-.09-1.67 2 2 0 0 1 0-.72 6.07 6.07 0 0 0-.09-.88l-.09-.16c.27-.48-.13-1 0-1.52a1.6 1.6 0 0 0 0-.64 5.89 5.89 0 0 1 0-1.76v-.24a8 8 0 0 1-.09-2.72V45.1s0-.08-.09-.08.09-.24.09-.32 0-.4-.13-.16l.19-.08a8.34 8.34 0 0 1 0-1c0-.4.09.08.13 0a.82.82 0 0 0 0-.32c0-.16-.09-.48 0-.56a3.2 3.2 0 0 0 0-.64v-.88a.39.39 0 0 1 0 .16 1.27 1.27 0 0 0 .09.4 9.92 9.92 0 0 1 0-1.6 11.37 11.37 0 0 0 0-1.28c0-.4.13-.88-.09-1.2.18-.56-.18-1.28 0-1.83a2.36 2.36 0 0 0 0-.56c0-.4.18-.64 0-1 0-.16.09-.56 0-.88s.13-.48 0-.8a2.88 2.88 0 0 1 0-.88v-3.35a2.7 2.7 0 0 0 0-.64c-.09-.48-.27-.56-.44-.16v.16s-.09.08-.13.16v-.32a7.71 7.71 0 0 0-.09-1.44 1 1 0 0 1 .09-.8.77.77 0 0 1-.09-.64c.09-.24-.13-.56 0-.88s0-.64.13-1a1.66 1.66 0 0 0-.09-.32 3.82 3.82 0 0 1-.09-1.59c.4-.24.13-.88.22-1.28h-.09c0 .08 0 .16-.09.24a.46.46 0 0 1 0-.24V18s0-.08.09-.08l-.09-.16a3.31 3.31 0 0 1 0-.64 1.09 1.09 0 0 0 0-.4c.13-.24-.09-.48 0-.8a1.24 1.24 0 0 0-.09-.87v-.16a2.42 2.42 0 0 0 .09-1.12 5 5 0 0 1-.09-1.12c0-.4.22-.56.09-1l-.13-1a6 6 0 0 1 0-.88v-.79a1.36 1.36 0 0 0-.17-.72 1.86 1.86 0 0 1-.1-.69 1.63 1.63 0 0 0-.15-.61 4.13 4.13 0 0 0-.28-.57 4.74 4.74 0 0 0-.25-.58A1.19 1.19 0 0 0 27 5.4c-.43-.29-.64-.74-1-1-.05 0-.13-.06-.18-.11s.07.13.12.17 0 .08 0 .08h-.11c-.2-.19-.43-.33-.57-.48a1.3 1.3 0 0 0-.53-.42c-.17-.12-.47-.12-.58-.36 0-.07-.36 0-.47-.11s-.45-.36-.68-.31-.44-.21-.72-.2a1.34 1.34 0 0 1-.74-.16h-.28a3.94 3.94 0 0 0-1 0 1.69 1.69 0 0 0-1 0c-.33 0-.8-.09-1 0a5.52 5.52 0 0 1-.6.16 4.47 4.47 0 0 0-.6.12h-.22c-.01 0 0-.13 0-.23-.14 0-.42.07-.47.15a2.76 2.76 0 0 1-.75.41 6.06 6.06 0 0 0-1 .68c-.26.23-.71.46-.84.83 0 .08-.22.17-.31.28a.76.76 0 0 0-.19.29v.14c0 .06.07 0 .11-.08a3.85 3.85 0 0 1 .31-.36c0-.05.12-.07.17-.12a.39.39 0 0 0-.07.21c0 .08 0 .08-.06.13a4.05 4.05 0 0 0-.9 1.52 4.33 4.33 0 0 0-.19.69 5 5 0 0 0-.2.67 3 3 0 0 0-.13.76c.07.2 0 .32.06.51a4.09 4.09 0 0 1 0 .59 6.49 6.49 0 0 0 .09 1.27 11.44 11.44 0 0 1 0 1.28c0 .56 0 1.12.13 1.6-.22.32 0 .72 0 1a6.08 6.08 0 0 0 0 1.28 5.17 5.17 0 0 1 0 .8c0 .24.09.48 0 .8v.88c0 .4.22.72 0 1.12a3 3 0 0 1 0 1.12c0 .24.22.4 0 .64 0 .08.09.4.09.64a3 3 0 0 1 0 .64 1.85 1.85 0 0 0 .09.72v.56a2.7 2.7 0 0 0 0 1 4 4 0 0 1 .22.8 8.31 8.31 0 0 1 0 1v1a8.31 8.31 0 0 0 0 1 17 17 0 0 1 .09 2.63c0 .32.09.56.09.88v1.28c0 3-.09 6.14-.09 9.26 0 .24-.13.56 0 .8s-.09.48-.09.72.09.32.09.48-.22.48 0 .72c-.13.16 0 .4 0 .56v.64a1.34 1.34 0 0 0-.09.71v3.51a4.53 4.53 0 0 1 0 .81.8.8 0 0 0 0 .72c-.22.4 0 .72 0 1.12a1.62 1.62 0 0 1-.09.64c0 .08.09.4.09.56v4.15c0 .24-.27.48 0 .71-.22.24 0 .4 0 .64a6.5 6.5 0 0 0-.13 1 2.86 2.86 0 0 1 0 .88c-.13.32.13.48 0 .64s0 .4 0 .56a2.55 2.55 0 0 1 0 .56v5.03c-.18.24.09.4 0 .64a2.34 2.34 0 0 0 0 .56c0 .4.27.8 0 1.2.27.64-.09 1.2 0 1.84a3.16 3.16 0 0 0 .09.88c0 .08-.09.4-.09.64v1.6a1.79 1.79 0 0 1-.09 1 1.52 1.52 0 0 0 0 .64 7 7 0 0 1 .09 1.68l.09 1.68v.32l-.13-.24c-.18-.16 0-.56-.18-.72l-.09-.16s-.09.08-.09.16c-.13.72-.13 1.52-.22 2.23a2.35 2.35 0 0 0 0 .56V85a6.58 6.58 0 0 0 0 1c0 .32-.13.56 0 .8a1.29 1.29 0 0 1 0 .4 1.28 1.28 0 0 0-.09.4 2.9 2.9 0 0 0 0 .32.77.77 0 0 0-.09.64c.09.4.14.8.22 1.2a4.66 4.66 0 0 1 .11 1.12v1.72c0 .13-.09.22-.13.32s0 .38-.18.39a5.15 5.15 0 0 1-1.68 1 2.4 2.4 0 0 1-.74.62c-.16.16-.34 0-.5.32 0 .12-.37.24-.55.38l-.55.5a7.35 7.35 0 0 0-.54.51c-.1.11-.29.23-.16.36a2.65 2.65 0 0 1-.18.24c-.16.15-.34.38-.52.52a13 13 0 0 0-.84 1.12h-.11v.17c-.44.23-.64.72-.92 1.16.08.22-.18.32-.21.47-.06.3-.27.36-.39.63a1.83 1.83 0 0 1-.43.7 1.91 1.91 0 0 0-.36.74c-.11.28-.14.58-.37.74a2.16 2.16 0 0 1-.14.74A18.63 18.63 0 0 0 2 110a1.77 1.77 0 0 1-.06.45c0 .15-.13.23-.12.39a4.7 4.7 0 0 0 .18.81c0 .29-.08.62 0 .83a4.16 4.16 0 0 1 .3 1.17c0 .16.14.35.19.57.21.72.28 1.33.53 2a1.3 1.3 0 0 0 .45.79v.07c.16.34.1.71.38 1a1.47 1.47 0 0 1 .51.93c0 .09.12.2.2.32a5.41 5.41 0 0 0 .71 1 9 9 0 0 1 .7 1.05c.34.11.53.45.73.67s.69.48.82.91a.56.56 0 0 0 .2.12.56.56 0 0 1 .4.36c.05.05.08.14.15.18.63.19.86.76 1.41 1a1.84 1.84 0 0 1 .64.28c.2.12.2.27.46.28h.06c0 .08 0 .23.11.27a1.16 1.16 0 0 0 .38.11h.23c.07 0 0-.07-.12-.11a4.61 4.61 0 0 1-.56-.41c-.36-.28-.83-.54-1.26-.83-.24-.18-.47-.25-.61-.57a1.35 1.35 0 0 0-.51-.33c-.24-.06-.26-.16-.34-.29a5 5 0 0 1-.59-.48 1.58 1.58 0 0 0-.53-.54c-.29-.13-.39-.36-.56-.61s-.52-.55-.58-.79-.37-.19-.35-.39-.07-.32-.31-.42a2.07 2.07 0 0 1-.15-.35c-.11-.2-.28-.35-.25-.55.15.17.27.35.41.53a17.78 17.78 0 0 0 1.36 1.71c.24.26.47.54.71.79l.77.73a5.74 5.74 0 0 1 .81.78 1.61 1.61 0 0 1 .7.57 1 1 0 0 0 .5.34c.41 0 .73.39 1.07.55.06.2.43.14.49.35.28-.06.3.24.52.3a5.09 5.09 0 0 1 .74.36c.57.2 1.2.45 1.77.63.22.06.56.24.82.12 0 0 .22 0 .21.06a.76.76 0 0 0 .64.25c.25-.09.36.1.59.09s.18-.2.22 0 0 .23-.26.18a19 19 0 0 1-4-1.18c-.21-.08-.5-.19-.78-.31a1.19 1.19 0 0 0 .76.55l1.22.45c.21.09.61.1.53.35h.15c.16-.28.5-.06.72 0a5.35 5.35 0 0 1 .67.16l.68.12a6.39 6.39 0 0 0 .9.18c.23 0 .36.23.61.06s.38.11.54.07a.21.21 0 0 0 .16 0c.14.36.62.22 1 .26s.39 0 .39-.15a1.2 1.2 0 0 1 .23-.06h1.16v.27h-.07.16a3.1 3.1 0 0 1 1.53-.28 1.18 1.18 0 0 0 .9-.25 1.69 1.69 0 0 1 .45-.12c.22-.06.58 0 .75-.2.19.07.5-.23.68-.16a1.69 1.69 0 0 1 .26-.19 1.21 1.21 0 0 1 .83-.22h.17c0-.35.42-.2.62-.35a7.06 7.06 0 0 0 .73-.45 1.51 1.51 0 0 1 .53-.32 1.6 1.6 0 0 0 .71-.33c.13-.08.24-.2.38-.28a1 1 0 0 1-.36 0l-.14-.07a.37.37 0 0 1 .16 0 .44.44 0 0 1 .17-.16v-.07a1 1 0 0 0-.24.2.45.45 0 0 1-.17.15c-.11.12-.26.31-.41.35-.4.09-.74.26-1.11.37h-.11c-.02 0 0-.11 0-.11l.2-.1c.29-.24.74-.23 1.13-.61s.83-.52 1.24-.85A10.54 10.54 0 0 0 32 123c.06-.05.14-.07.2-.12l-.08.25a1.12 1.12 0 0 1-.25.29c-.22.21-.42.33-.6.47s0 .08-.1.12.09 0 .15-.06c.24-.19.44-.31.61-.47a3 3 0 0 1 .71-.59c.26-.06.22-.43.54-.43a1.49 1.49 0 0 0 .38-.49c.12-.2.37-.08.4-.37a1.09 1.09 0 0 1 .37-.4.68.68 0 0 0 .33-.43c.07-.24.1-.5.43-.64l.09-.12c0-.31.22-.59.37-.86s.32-.7.52-1 .15-.18.16 0 .12.16.23-.05a15.13 15.13 0 0 0 1.18-2.6.44.44 0 0 0 0-.23 10 10 0 0 1 .45-2.11c0-.15.14-.21.23-.19l.08-.22c-.08-.33.09-.61.14-.92a7.13 7.13 0 0 0 .12-1 4.53 4.53 0 0 0 .05-1.09c0-.31.08-.47.06-.69v-.86c0-.31 0-.54-.06-.77s0-.54-.09-.85.12-.58-.06-.86 0-.56-.21-.75a1 1 0 0 1 0-.32.44.44 0 0 0-.11-.45.92.92 0 0 1-.18-.43 4 4 0 0 0-.68-2A4.61 4.61 0 0 1 37 101c-.19-.43-.47-.9-.7-1.32s-.38-.59-.58-.93-.28-.57-.44-.85-.34-.33-.53-.69a4.17 4.17 0 0 0-.68-.87l-.72-.74c-.22-.23-.53-.48-.76-.7a17.49 17.49 0 0 0-1.87-1.46 4.78 4.78 0 0 1-.89-.83 1.26 1.26 0 0 1-.32-.75c.06-.11.29-.19.52-.25s.43.11.55.23a.32.32 0 0 0 .29.17c.22 0 .43-.19.64.27.31-.15.68.23.94.45s.15.23.28.33.16.07.23.12h-.21c-.09 0-.16-.07-.23-.12s0 .09.11.14a2.29 2.29 0 0 1 .62.57c.16.2.47.24.53.54 0 .09.41.18.49.47a3.16 3.16 0 0 0 .62.69l.11.12c.11.13.15.32.26.44s.29.2.4.33A19.64 19.64 0 0 1 36.9 98c.18.28.08.45.18.68s.22.35.2.07h.12a4.93 4.93 0 0 0 .33.68c.27.24.1.42.32.69s.25.62.39.83 0 .63.34.58v.08c0 .17 0 .45.09.59a.77.77 0 0 1 .2.55c0 .26.17.38.25.62a21.45 21.45 0 0 1 .53 3 2 2 0 0 0 .18.82c.11.16-.18.43.06.58a.79.79 0 0 0 0 .75s0 .17-.08.17-.13 0 0 .17a.59.59 0 0 1 0 .58.89.89 0 0 0 .06.67.46.46 0 0 0-.07.58c0 .09-.16.4-.12.49.14.43-.1.74-.15 1.07s-.1.74-.18 1.14a4.27 4.27 0 0 0-.28 1.47 1.35 1.35 0 0 0-.11.23 7.77 7.77 0 0 0-.5 1.15l-.3.83-.39.8a10.34 10.34 0 0 1-.87 1.55c-.17.29-.49.47-.59.8s-.32.37-.35.65a.68.68 0 0 1-.25.33c-.27 0-.35.46-.51.54s-.22.46-.46.47a.53.53 0 0 1-.39.42c-.23.12-.09.36-.35.45-.09 0-.19.16-.32.27l-.66.6c-.18.17-.4.42-.58.46s-.24.36-.55.49-.47.47-.77.47a1.59 1.59 0 0 1-.72.54c-.26.05-.4.29-.68.31s-.28.33-.56.34a5.23 5.23 0 0 0-.66.32l-.66.32a1.94 1.94 0 0 1-.48.32 6.09 6.09 0 0 1-2.27.68 2.65 2.65 0 0 0-.55.14c-.32.08-.62.17-.94.22l-.93.13-.92.13h-.92c-.32 0-.56.12-.81 0a.77.77 0 0 1-.81 0 1.06 1.06 0 0 1-.81 0c-.32-.07-.59.21-.9 0s-.57 0-.89-.09l-.81-.13a7.44 7.44 0 0 1-.95-.24c-.38-.16-.75-.07-1.18-.33a7.16 7.16 0 0 0-1.29-.52c-.46-.17-.87-.45-1.25-.58s-.53-.57-.92-.52a9 9 0 0 1-.9-.55c-.36-.2-.74-.36-.89-.71 0-.08-.31-.12-.44-.22A4.69 4.69 0 0 1 7 124c-.36-.33-.73-.53-.95-1a3.94 3.94 0 0 0-.49-.54c-.28-.4-.74-.64-.8-1.12 0 0-.06-.16-.14-.19a.72.72 0 0 1-.43-.58c-.44-.19-.44-.77-.71-1.07 0-.44-.44-.77-.61-1.22l-.6-1.28c-.21-.43-.34-.9-.52-1.35-.05-.15 0-.49-.11-.55a.57.57 0 0 1-.15-.54 2 2 0 0 0-.18-.69 2.88 2.88 0 0 1-.4-1.54 3 3 0 0 1-.09-1.43c-.15-.39 0-1-.33-1.27a4.76 4.76 0 0 0-.08-1.13c0-.16 0-.49.19-.39s.18-.07.15-.23-.13-.09-.21-.18 0-.25-.06-.33v-.16h.34a.5.5 0 0 1-.07-.21c0-.16.12-.31.15-.46a6.43 6.43 0 0 0 .17-1.43 1.32 1.32 0 0 1 .17-.7c.27-.18.11-.47.24-.68s.21-.52.29-.75a6.85 6.85 0 0 0 .12-.72 2.52 2.52 0 0 1 .17-.54 19.74 19.74 0 0 1 1-2.09 2.91 2.91 0 0 0 .38-.8 1.57 1.57 0 0 1 .39-.52 4.45 4.45 0 0 0 .72-1 12.66 12.66 0 0 1 1.55-1.64c.17-.17.31-.26.42-.37.28-.28.61-.53.91-.79a4.19 4.19 0 0 0 .88-.84c.55-.17.9-.86 1.52-.87a7 7 0 0 1 .77-.43 2.47 2.47 0 0 0-.06-.94v-.3a3.33 3.33 0 0 0 0-.63 1.15 1.15 0 0 1 0-.56 1.18 1.18 0 0 0 0-.56 7 7 0 0 1 0-1.91c0-.16-.13-.48 0-.56a1.92 1.92 0 0 1 0-.72 3.72 3.72 0 0 0 0-.72v-.4a5.34 5.34 0 0 0-.13-1.92.7.7 0 0 1 .09-.56.45.45 0 0 0 0-.48c-.09-.32 0-.64-.13-1a2.83 2.83 0 0 1-.22-1.2v-6.47c.09-.08.13-.08.22-.16v-.16c0 .08 0 .08-.09.08s0 .08-.09.08v-5.27a1.77 1.77 0 0 0-.09-1c.09-.4 0-.8.13-1.12a7.23 7.23 0 0 0 .09-1c0-.08 0-.16.09-.24v.24c0 .08.08 0 .08 0v-.48c0-.16 0-.16-.13-.08h-.09c0-.32-.09-.72.14-1a.35.35 0 0 1 0 .16.44.44 0 0 1 0 .24h.08a1 1 0 0 0 0-.32 1.78 1.78 0 0 1 .09-.48c.09-.24-.09-.56 0-.88a.36.36 0 0 0 0-.16c-.18 0-.26-.24-.26-.56a1.22 1.22 0 0 1 .13-.8.86.86 0 0 0 .09-.4 4.67 4.67 0 0 1 .27-1.13s0-.16-.09-.16-.22-.4-.22-.63a12.71 12.71 0 0 1 0-1.28c0-.08.09-.24.13-.24s.09-.24.09-.4v-.72.91a1.09 1.09 0 0 1-.18-.48 4.15 4.15 0 0 1 .09-.72 1 1 0 0 0 0-.64c-.09-.24 0-.8-.13-1.12a13.13 13.13 0 0 0 .13-2.64v-2.71a3.18 3.18 0 0 0-.09-1.44v-.08a4 4 0 0 0 0-1.76 1.85 1.85 0 0 1 .09-.56 1.26 1.26 0 0 1 0-.24 1.07 1.07 0 0 1-.09-.88c.14-.24 0-.4.09-.64a1.87 1.87 0 0 0 0-.72v-2.31c0-.56-.09-1 0-1.52a9.49 9.49 0 0 0 0-1.6v-2.28c0-.08.14-.32 0-.48a.72.72 0 0 1 0-.32c.08-.16 0-.4 0-.56s-.13-.4-.09-.64 0-.56.13-.8a1.38 1.38 0 0 1-.08-.72c0-.24.08-.56-.09-.8a1 1 0 0 0 0-.71c0-.24-.09-.64.18-.64a1.31 1.31 0 0 0 0-.24h-.13v.08l-.13-.88s0-.08.09-.08.09.08.09.08v.56-.08c0-.24.18-.56-.13-.72s-.18-.32 0-.72l.09-.08c0-.64.14-1.12.14-1.68l-.14-2v-.32a2.76 2.76 0 0 0 0-1.2 2.57 2.57 0 0 1 0-.56v-2.87c0-.24 0-.56-.09-.72.18-.24 0-.4 0-.64s-.09-.32-.09-.48a4.13 4.13 0 0 0 0-1 4.52 4.52 0 0 1 0-.8c0-.32.09-.64-.09-.88V13c.09-.4.22-.72 0-1a2.24 2.24 0 0 0-.09-1v-.64c-.18-.24 0-.4 0-.56 0-.48.15-1.05-.09-1.5-.06-.18.22-.39.12-.67s.16-.48.11-.76c-.05-.11.12-.32.13-.5a2.61 2.61 0 0 1 .53-.71c.15-.31 0-.29-.08-.34a1.15 1.15 0 0 1 .45-.75 1.51 1.51 0 0 0 .56-.68c.33-.53.77-1 1-1.47a4.91 4.91 0 0 1 .92-.75c.6-.44 1.34-.56 1.87-1 .07-.07.28 0 .28 0s.13.15.37 0c.19 0 .48-.4.64-.06.28 0 .64 0 .8-.2a1.28 1.28 0 0 1 .45-.07 2.25 2.25 0 0 1 .69.07 1.86 1.86 0 0 0 .72-.09A.79.79 0 0 1 20 .3a1.05 1.05 0 0 0 .72 0c.16 0 .32-.18.32 0h1.32c.27 0 .48-.11.72.11a.9.9 0 0 0 .28 0 3 3 0 0 1 1.31.41.44.44 0 0 1 .15.11c.18 0 .38-.17.66.11a1.81 1.81 0 0 0 .68.48c.23 0 .39.24.56.32s.42.36.68.48a1.17 1.17 0 0 1 .6.7 1 1 0 0 1 .48.55c-.08.18.22.52.26.5.2 0 .24.17.38.41a8.66 8.66 0 0 1 .78 1.56 7.78 7.78 0 0 0 .54 1.57c-.17.31.12.45.11.74a2.43 2.43 0 0 0 .14.92v.57a6.25 6.25 0 0 1 0 .88 7 7 0 0 0 .09 1 2.05 2.05 0 0 1 0 .72 1.91 1.91 0 0 0 0 1.12 17.73 17.73 0 0 1 .09 2.63c0 .8.09 1.59.09 2.39 0 .24 0 .56-.09.72v.24a1.85 1.85 0 0 1 0 1.2 1.2 1.2 0 0 1 0 1 3.65 3.65 0 0 1 .09 1.2v1.12c0 .16.09.32.09.56s-.22.32-.09.48 0 .32 0 .56v4.23a3.6 3.6 0 0 0 0 .64.79.79 0 0 1 0 .56 1.52 1.52 0 0 0 0 .48 3.47 3.47 0 0 1 .09.56c0 .4-.13.8 0 1.19a.89.89 0 0 1-.09.32l-.09.16v-1.79 1.24a2.21 2.21 0 0 0 .22 1s0 .24-.09.4a1.23 1.23 0 0 0-.13.64 11.51 11.51 0 0 1 0 2.15c0 .24 0 .48.18.48v.88c0-.08-.09-.08-.09-.08a.47.47 0 0 1 0-.24l-.09.08c.09.4-.27.16-.22.48s-.08.72.09 1a.74.74 0 0 1 0 .32c-.09.4 0 .72.22.8s.31.72.31 1v3.27c0 .24-.27.32-.09.64a2.69 2.69 0 0 1 0 .64v1.2a10.06 10.06 0 0 0 .09 2.32c-.18.08 0 .32 0 .48a.93.93 0 0 0 0 .48 1.1 1.1 0 0 1 .09.64c0 .24 0 .56-.09.72a1.09 1.09 0 0 1 .09.56v.32a3 3 0 0 0-.18.72v.8c0 .32-.13.8.18 1v.16c.13.24-.18.32 0 .56a.84.84 0 0 1 0 .56 1 1 0 0 0 0 .8 16.53 16.53 0 0 1 .18 2.07 7.52 7.52 0 0 0 .09 2c-.18.24-.09.72-.09 1a7.18 7.18 0 0 0 0 1c0 .32-.18.56 0 .8v.32c-.26.16.13.56-.09.72.22.24 0 .64.09 1a3.57 3.57 0 0 1 0 1.2 2.08 2.08 0 0 1-.09 1 4.09 4.09 0 0 1 .09 1.28c0 .24-.09.48 0 .8s0 .56 0 .8c.09.4-.22.48-.09.88a5.83 5.83 0 0 1 .09.88 2 2 0 0 1 .09.72v2.07c-.18.24.09.56 0 .88a5.33 5.33 0 0 0 0 1.2v2.79c0 .16.09.4.09.56s-.09.48-.09.72.13.48.09.56a1.87 1.87 0 0 0-.09.48V84a2.13 2.13 0 0 1 .09.64c-.18.24 0 .48 0 .72a5 5 0 0 0 0 .8 5.25 5.25 0 0 0 .13 1.28c.09.32-.09.4 0 .56s.13.24 0 .48a2.41 2.41 0 0 0 0 .56 5.75 5.75 0 0 1 0 1.76c0 .24.18.64 0 .64s-.13.4-.27.48-.26.32-.4.4-.18-.24-.31 0-.18-.32-.31-.08c0 .08-.18.08-.27.08h-.35c-.45.11-.62-.05-.94-.13zm5.26 30.45h.09s0-.09-.07-.06c.09 0 0 0 0 0l-.06.06zm-1.54 1.42c.06-.06.15-.07.21-.13a.47.47 0 0 0 .15-.2 1.07 1.07 0 0 1-.27.19s-.04.08-.13.14zm-21 2.38c-.11 0-.11 0-.06.12s.09 0 .09 0-.05-.08 0-.12-.12.01-.02.01zM.47 108.19c-.09 0-.09.07-.13.07s0 .17.08.17 0-.08.09-.08a.37.37 0 0 1-.04-.16zM10.68 86.5c0 .08-.09.08-.09.16v.32c0-.08.09-.08.09-.08a3 3 0 0 0 0-.4zm0-1.44v.16zm0-.56v.08s0 .08.09 0c0 .08 0 .08 0 0s-.09.01-.09-.07zm-.44-5.27c0-.08-.09 0-.13 0s0 .08 0 .08 0-.08.09-.08zm0-.8l-.09.08v.08a.36.36 0 0 1 0-.16zm0-2.4v1.6-1.43a.36.36 0 0 1 0-.2zm0-1.28c-.18.16-.09.4-.09.56v.56l.09-.08v-.64a1.43 1.43 0 0 0 0-.38zm.09-2.63c-.09-.08-.09 0-.13 0s0 .08 0 .08.08-.06.12-.06zm1.94-22.42v.24a.46.46 0 0 0 0-.24zm-.18-1v.4c0-.08.09-.24.13-.32a.13.13 0 0 0-.13-.03zm.13-4.7v1.52a.46.46 0 0 1 0-.24 2.37 2.37 0 0 1 .13-.4v-.32c-.17-.13.05-.56-.13-.56zm0-1.28v.72h.09a1 1 0 0 0 .09-.64c0-.08 0-.08-.09-.08zm.22-6.54c-.26-.08-.13.4-.13.56a8.43 8.43 0 0 0 .18 2.8v.08c0 .32.13.72-.18.8v1.2c0 .24.22.48 0 .72l.13.24v-1.12a3.65 3.65 0 0 1 .09-1.2 2.13 2.13 0 0 0 0-1 3.34 3.34 0 0 1-.09-1.12c0-.32-.09-.48 0-.8a2.24 2.24 0 0 0 .09-.72c-.13-.33 0-.62-.09-.4zm-.13-1.44c-.13 0 0 .24-.09.4v.32a.47.47 0 0 0 0-.24c0-.08.09-.08.09-.16s.18-.29 0-.29zm-1.85-8.34v.08s0 .08.09.08a.37.37 0 0 0-.09-.16zm1.37-9.1l-.09.08v.24c0 .08.09-.08.09-.08a.5.5 0 0 0 0-.24zM16.61.45V.32c-.09 0-.08.07-.08.07s.07.01.08.06zm9.28 3.29v-.08h-.09a.15.15 0 0 1 .09.07zm4.66 7.76c0-.08.09-.08.09-.08v-.08zm0 .08s-.09 0-.09.08 0 .15.09-.09zm0 .4a3 3 0 0 1 0-.32v-.08c0 .07-.04.23-.04.42zm.09 2c.13-.16 0-.4.09-.64v-.8s-.09-.08-.13-.08v.16c.13.24 0 .48 0 .72a2.83 2.83 0 0 0 0 .66zm-1.06 5.91a1 1 0 0 0 .09-.72c0-.08-.13 0-.13 0a.66.66 0 0 0 0 .24v.4c-.09.06-.05.06 0 .06zm0 .8l.09-.08v-.24c0-.08-.09.08-.09.08a.45.45 0 0 0 0 .22zm-.09 1.68h.13v-.08s-.08.06-.13.06zm1.28 5.43c0 .08-.09.08-.09.08v.48c0-.08.09-.08.09-.16a1.48 1.48 0 0 0 0-.43zm-.88-2.71v.16l.09.16v.08a1.58 1.58 0 0 0 .09.32c0 .08.09.08.09.08a1.33 1.33 0 0 0 0-.72c-.16-.11-.16-.03-.27-.11zm-.31-.4h.13v-.08s-.08.05-.13.05zm-.35.64a.23.23 0 0 1 0-.16v-.24.16a.47.47 0 0 0 0 .21zm0 .56a.23.23 0 0 1 0-.16v-.24.16a.46.46 0 0 1-.04.21zm.35.64c0 .08 0 .24.09.32v-1.68l-.13.24a.23.23 0 0 0 0 .16v.56c0 .48-.13-.08-.18.08a.86.86 0 0 0 0 .32v.32a1.76 1.76 0 0 1 .09-.32zm.53-.08zm0 .8c0-.08.09-.08.09-.16v-.16c0-.08-.2.07-.2.07a.46.46 0 0 1 0 .22zm0 .4v-.08s0-.08-.09 0c0-.08 0-.08 0 0s-.02-.04-.02.04zm.75 0v-1.81 1.6a.37.37 0 0 0-.09.17zm-.71 1v-.72l-.09.08v.56s-.06-.08.01 0zm.75 1c0 .08.09.08.13 0s0-.08 0-.08 0 .08-.09.08zm0 .64l.09-.08v-.24c0-.08-.09.08-.09.08a.48.48 0 0 0-.04.2zm0 1.12c0-.08.09-.08.09-.16v-.32c0 .08-.09.08-.09.08a1.83 1.83 0 0 1-.08.36zM30.46 33c0 .08.09.08.13 0s0-.08 0-.08 0 .08-.09.08.01.12-.04 0zm.09 1.59h.13v-.48c0-.08-.09-.4-.13-.72a1.4 1.4 0 0 0 0 1zm.13 1.91a1.27 1.27 0 0 0 .09-.4c0-.16-.09-.24-.09-.4a5 5 0 0 1 0-.8c-.18.24 0 .56-.09.8v.8zm0 1.92c0 .08.09 0 .09 0v-1h-.09a1.29 1.29 0 0 0-.09.4 3.1 3.1 0 0 0 .09.64zm-.84 3.75c.09-.16.18-.24.18-.32s-.09-.16-.13-.24a.52.52 0 0 0-.09.24 1 1 0 0 0 0 .37zm0 .24h.13v-.08s-.17.13-.21.13zm0 .4h.13v-.08s-.17.13-.21.13zm-.31.8v-.4.16c0 .08-.08.21-.08.29zm.31.64v-.4.16c0 .08-.08.21-.08.29zm-.09 1.76h.09a.87.87 0 0 0 .09-.32v-.16s-.13 0-.13.08a1 1 0 0 1-.13.44zm.09.48h.13a.37.37 0 0 0 0-.16s-.09.08-.13.08zm.09 2.31l.13-.24c0-.08 0-.16-.09-.16a.86.86 0 0 1-.18.24.75.75 0 0 1 .06.21zm.01 1.2a1.57 1.57 0 0 0 .09-.24 2 2 0 0 0-.18-.4.79.79 0 0 0 0 .32.76.76 0 0 0 .09.32zm-.13.24v-.08s0-.08-.09 0c0-.08 0 0 0 0s.08-.04.08.05zm0 .8v-.56c0 .08 0 .16-.09.24a1.6 1.6 0 0 0 .13.28zm-.09.48c.09 0 .09 0 .09-.08v-.08a.39.39 0 0 1 0 .16s-.01.04-.05-.04zm.09 1.76v-.72l-.09.08v.56c.04.04.08.04.13.04zm0 1.52v-.72.64zm0 .8c0-.08.09-.08.09-.16v-.16c0-.08-.09.08-.09.08a.64.64 0 0 1 .04.19zm.84 1.6v-.16zm.13 7.74c0-.08.09-.08.09-.16v-.32c0 .08-.09.08-.09.08a1.83 1.83 0 0 1 .04.35zm-1 8.54v.08h.09v-.16s0-.08.09-.08 0-.08-.09-.8v-.64 1.36-.08.08a.64.64 0 0 1 0 .24v.08c0 .08-.07-.05-.07-.13zm0 1v-.4.24a.38.38 0 0 1 .02.07zm.13 1.67a3.09 3.09 0 0 0 0-.48v-1s-.09-.08-.13-.08-.09.16-.09.16a3.91 3.91 0 0 1 .09.72c.07.12-.02.44.16.6zm0 .8v-.4.24a.39.39 0 0 1-.02.08zm0 2.07c.18-.08 0-.32.09-.48v-.48l-.09.08v.48a1 1 0 0 1-.06.32zm.09 2.24l.09-.08v-2s-.09-.08-.13-.08-.09.08-.09.16v.88c0 .24.18.48 0 .72-.07 0 .02.24.07.32zm-.44 1.12c0 .08 0 0 .09-.08v-.08a.37.37 0 0 1 0 .16zM22 128.73c-.08 0-.08 0 0 0-.08 0 0 0 0 0zm-17.18-6.11s-.12 0-.18-.06a12.42 12.42 0 0 1-.94-1.18 21.74 21.74 0 0 1-1.48-2.53c-.39-.93-.83-1.73-1.14-2.69a1.29 1.29 0 0 1-.06-.42v-.09l.07.06a4.12 4.12 0 0 0 .26.7c.23.35-.05.56.25.88a2.18 2.18 0 0 1 .32.67 2 2 0 0 0 .32.87l.56.93c.18.28.34.57.53.85l.6.8c.2.26.39.54.61.79l.11.12a.4.4 0 0 0 .17.3z"/><path class="cls-1" d="M31.61 29v-.16.56a7.52 7.52 0 0 0 .09 2c.09.24-.18.48 0 .8a3.51 3.51 0 0 1 0 1v.48c-.18-.08 0-.32-.09-.48a3.72 3.72 0 0 1-.09-1.2v-1.19zM9.62 74.37v-2.48a1.81 1.81 0 0 1 .09-.48v-.08.72a5.44 5.44 0 0 0-.09 1.52 2.27 2.27 0 0 1 0 .8zm-2.51 50.56a.23.23 0 0 1 .1.13c-.06 0-.09 0-.16-.07L6 124a10.61 10.61 0 0 1-1-1c-.06-.06-.08-.15-.14-.22s.18.06.24.13a.7.7 0 0 1 .31.28 7.59 7.59 0 0 0 1.7 1.74zM.43 106.14H.3a2 2 0 0 1 0-.5c0-.16 0-.43.19-.55.15.12 0 .34 0 .5v.16l-.07.4zm.16 7.75v.17c0-.08-.06-.07-.08-.15-.06-.24-.11-.4-.16-.64l-.05-.33a1.62 1.62 0 0 1 0-.42 2.93 2.93 0 0 1 .17.56 3 3 0 0 0 .12.81zm29.04-48.44c0 .08-.09 0 0 0l-.13-1c0-.08 0-.16.09-.16s.09.08.09.08v1zM10.32 26s-.09 0-.09-.16v-1.52.08zm-.7 49.57v.88a2 2 0 0 1 0-.88v-.8c.13.23-.04.56 0 .8zm.09-4.47s-.09-.08-.09-.16v-.4a.52.52 0 0 1 .09-.24.53.53 0 0 0 .09.24v.4a.28.28 0 0 1-.09.16zM31.7 36.71v-.72c.13.16 0 .48 0 .72v.72c-.09-.24.05-.56 0-.72zm-20.87 90.82a3 3 0 0 1-.63-.26c-.19-.17-.46-.22-.53-.42.14.09.38.18.52.27s.49.14.64.41zm18.4-97.6v-1.04.16zm2.34-6.71v.8-.72zm-.44 17.01a2.71 2.71 0 0 1 0 .56s-.09.08-.13.08-.09-.32-.09-.48a.53.53 0 0 1 .22-.16zM9.53 79.64a1.92 1.92 0 0 1 0-.64v-.48l.08.08v.4a1.49 1.49 0 0 1-.08.64zm21.86-57.45v-.24a3 3 0 0 0 0 .32v.48zM.29 110.78l-.16.35c0-.08 0-.08-.05-.16.17-.1-.2-.4 0-.41.06-.01.11.15.21.22zm30.66-75.1s0-.08.09-.08v.48c0 .16 0 .4-.09.48a1 1 0 0 1 0-.32zM9.32 126.59c.05.08 0 .12-.07.11l-.25-.17c-.08 0-.19-.17-.27-.22a2 2 0 0 1 .26.06l.36.22zm2.44 1.34a5.41 5.41 0 0 0 .7.29l-.11.05-.4-.15-.15-.12s-.06 0-.04-.07zM9.84 69.74v.32a1.67 1.67 0 0 1-.09-.24v-.48.08a.63.63 0 0 0 .09.32zM.9 115.26c0 .09 0 .09-.05.11-.08-.24-.13-.48-.2-.72l.1.05.08.32c.03.08.04.16.07.24zm30.71-80.62c0-.08 0-.16.09-.24a.46.46 0 0 1 0 .24c0 .08 0 .16-.09.24a.45.45 0 0 1 0-.24zM10.28 24.16a1.32 1.32 0 0 0-.13-.32c0-.08 0-.08.09-.16 0 .08.09.16.09.24s-.01.16-.05.24zM.21 111.78s0 .09-.07.09a.9.9 0 0 1-.09-.33l.06-.17c0 .09.07.25.1.41zm.01-2.3a.76.76 0 0 1-.08.24l-.14-.24s0-.08.08-.08.05 0 .14.08zm29.05-64.7c0-.08 0-.08.09-.16v.16a1 1 0 0 1 0 .32 2.84 2.84 0 0 0-.09-.32zm.14 10.13v-.08zm.13 5.75l-.09.08v-.24s0-.08.09-.08.04.16 0 .24zm-.92-57.19a.49.49 0 0 1 .15.12c.06.08 0 .1.08.18a3.79 3.79 0 0 0-.26-.27c-.06-.08-.03-.1.03-.03zm3.08 34.28s0-.08.09-.08a.23.23 0 0 1 0 .16l-.09.16a.46.46 0 0 1 0-.24zm-.04.64v-.16c0-.08.09.08.09.08v.24c0-.08-.05-.08-.09-.16zM9.93 90.65v-.08a.36.36 0 0 1 0-.16c-.04.08 0 .16 0 .24zm21.64-63.6s0-.08.09-.08a.46.46 0 0 1 0 .24l-.09.08a.56.56 0 0 0 0-.24zM8.5 126v.12a.26.26 0 0 1-.16-.07l-.09-.17a.69.69 0 0 0 .25.12zm-.67-.48v.12a.25.25 0 0 1-.16-.07l-.08-.17a.5.5 0 0 0 .24.12zM21.44.09h-.09a.28.28 0 0 1 .19 0s0-.09-.1 0zM7.32 125.2a.25.25 0 0 1 .11.14h-.09s-.04-.11-.02-.14zm21.6-107.56v.16l-.09-.16zM4.47 96.83h-.09a.2.2 0 0 1 .11-.13s-.06.1-.02.13zM.16 107.51c.05-.08.05-.08.1-.08v.08l-.05.08c0-.08-.04-.16-.05-.08zM.89 104a.23.23 0 0 1-.08.15v-.09s.04-.06.08-.06zm9.6-98.77c.08-.06.08-.06.12 0v.08l-.08.06c0-.12.04-.21-.04-.14zM10 7.16h-.12l.06-.07s-.01.06.06.07zm.31-1.02h-.12l.07-.14s.01.13.05.14zm19.32 59.71c-.09 0-.09 0-.09-.08v-.08a.22.22 0 0 1 0 .16zm0-33.37c0 .08-.09 0-.13 0v-.08s0 .08.09.08zm-.14-3.11v-.08c0-.08 0-.08.09-.08s0-.08 0 0a.37.37 0 0 0-.09.16zm-.04 11.17v.08a.22.22 0 0 1 0-.16s-.04.01 0 .08z"/><path class="cls-1" d="M10.24 24.24v.16l-.09-.16c.04-.08.04-.08.09 0zm-.05-.8v.16-.08c-.04-.08-.04-.08 0-.08zm19.04 4.33a.39.39 0 0 1 0 .16v-.08c0-.08 0-.08.09-.08zM10.1 73.25v.16l-.1-.16s.06-.08.1 0zm1.13 54.43a.26.26 0 0 1 .13.11h-.1c-.05-.08-.05-.07-.03-.11zm20.38-93.6c.09-.08.09 0 .13 0v.08s0-.08-.09-.08zm0-5.67v-.24.24zM31.52 23v-.16l.09.16s-.09.07-.09 0zm-.04 1.9c.09-.08.09-.08.13 0v.08s0-.08-.09-.08zm0 .4v-.08a.17.17 0 0 1 0 .16c.04-.08.04-.08 0-.08zm-.04-2.16s0-.08.09-.08v.16l-.09-.08zM31 36.87a.22.22 0 0 1 0 .13v-.13zm-.14 2.96a.22.22 0 0 1 0-.16v.08c.04.08.04.08 0 .08zm-7.25 57.06c-.09 0 0-.24-.13-.32a1 1 0 0 1 .18-.81.65.65 0 0 0 .09-.69v-.12c0-.49-.09-1-.09-1.46a3.49 3.49 0 0 1 0-.65 1.66 1.66 0 0 0 .09-.65c0-.32 0-.32.13-.45s.09 0 .09-.08a2.66 2.66 0 0 0 .13-1 3.38 3.38 0 0 1 0-1.33c0-.12-.18-.24 0-.32a.41.41 0 0 1 0-.44c.09-.16 0-.32-.09-.49s-.09-.28 0-.36 0-.24 0-.36 0-.28.13-.36c-.22-.32 0-.73-.13-1.05 0-.16.18-.24 0-.36s0-.24 0-.36l.09-.08s.13.08.13.12v1.37a6.5 6.5 0 0 0 0-1.62v-.16c0-.04.09-.2 0-.28a3.69 3.69 0 0 1-.09-1.21c0-.16 0-.32-.09-.49s-.09-.32 0-.36-.09-.24 0-.32-.09-.28 0-.4 0-.45 0-.69a.85.85 0 0 0 0-.73c-.09-.12 0-.32 0-.49a2.8 2.8 0 0 0-.09-.85.53.53 0 0 1 0-.36 1.63 1.63 0 0 0-.09-.45l-.09-.08c.27-.24-.13-.53 0-.77v-.32a1.54 1.54 0 0 1 0-.89L24 76a2.11 2.11 0 0 1-.09-1.38v-.24a4.89 4.89 0 0 1 0-.77V73a.15.15 0 0 0-.09 0s.09-.12.09-.16 0-.2-.13-.08h-.09a2.16 2.16 0 0 1 0-.53c0-.2.09 0 .13 0a.23.23 0 0 0 0-.16c0-.08-.09-.24 0-.28a.85.85 0 0 0 0-.32v-.44a.14.14 0 0 1 0 .08c0 .08 0 .12.09.2s0 0 0 .08v-.08a2.56 2.56 0 0 1 0-.81 2.94 2.94 0 0 0 0-.65c0-.2.13-.45-.09-.61.18-.28-.18-.65 0-.93v-.28c0-.08.18-.32 0-.53s.09-.28 0-.44.13-.26 0-.41 0-.28 0-.45v-1.73a1 1 0 0 0-.37 0c-.33.09-.48.27-.45.44s0 .09-.05.13-.1 0-.13 0a1.47 1.47 0 0 0-.59.09c-.11 0-.23.09-.25-.09-.11.13-.19.13-.27.09s-.22.13-.32 0-.25 0-.43-.13a.56.56 0 0 0-.16.09c-.24.22-.53.09-.81.09-.12-.4-.45-.13-.65-.22v.09s.08 0 .12.09a.14.14 0 0 1-.12 0h-.73v-.09l-.08.09h-.32a.29.29 0 0 0-.2 0c-.11-.13-.27.09-.36 0s-.24-.09-.28.09h-.05c-.12-.09-.34-.18-.41-.09s-.24 0-.32.09-.36-.22-.39-.09l-.1.07.06.21v.28c0 .1-.09.32.09.57a.16.16 0 0 1 0 .23v.22a2.75 2.75 0 0 1 0 .27v.36a.5.5 0 0 0 0 .36c.18.28 0 .57.09.81a.13.13 0 0 0 .09 0 1.55 1.55 0 0 1 0 .45.69.69 0 0 0 0 .4c0 .12.13.28 0 .4s.13.2.09.28-.18.32-.09.44-.09.28 0 .45a.4.4 0 0 1-.09.44v.16a1.07 1.07 0 0 0 0 .53c-.18.2 0 .36 0 .53s-.09.4 0 .56a1.39 1.39 0 0 1 .09.73s0 .12-.09.12h-.22c-.09 0 0 .24 0 .28a.64.64 0 0 1 .09.48l.09.69c0 .2-.09.48.09.69v.24a.4.4 0 0 0 0 .2v-.4c0-.04 0 .08.09.12s0 0 0 .08a4.37 4.37 0 0 0 .09 1.09c0 .16.09.28.09.45v.44a1.84 1.84 0 0 0 0 .49c.09.12 0 .2.09.32s0 .2 0 .32 0 .4.09.65 0 .44 0 .65a4.39 4.39 0 0 0 .14.81c-.22.16 0 .36 0 .53a1.58 1.58 0 0 0 0 .65c0 .16.09.28 0 .4s.09.24 0 .4v.45c0 .2.22.36 0 .57a.8.8 0 0 1 0 .56c0 .12.22.2 0 .32s.09.2.09.32a.78.78 0 0 1 0 .32c0 .16 0 .24.09.36v.28c0 .16-.09.36 0 .53s0 .24 0 .36a2.15 2.15 0 0 1 0 .53v.53a2.14 2.14 0 0 0 0 .53 4.38 4.38 0 0 1 .09 1.33c0 .16.09.28.09.45v.64L17.28 94v3.52c0 .24-.13.48 0 .77a.39.39 0 0 1 0 .19h-.2a1.93 1.93 0 0 0-.4.08c-.14.06-.21.18-.36.24s-.6 0-.65.26c-.24 0-.33.18-.54.17s-.39.09-.57.29a1 1 0 0 0-.25 0l-.13.07a6.13 6.13 0 0 0-1.3.7c-.08.06-.14.21-.22.21s-.22 0-.22.21c-.26-.07-.26.16-.36.3a.34.34 0 0 1-.26.1s-.07.17-.12.22c-.23.2-.45.39-.66.59l-.57.64c-.06.08-.33 0-.21.21-.24-.05-.07.16-.16.22a1.12 1.12 0 0 0-.35.25c-.05.09-.13.28-.24.29s0 .24-.15.23-.09.14-.09.23-.08.15-.11.21a10.87 10.87 0 0 0-.78 1.66c0 .1 0 .27-.14.28s0 .19-.09.26a.38.38 0 0 0-.1.22c0 .17.18.39-.12.5.19.31-.18.49-.14.78 0 .11-.08.23 0 .38s-.1.16-.11.26a3.58 3.58 0 0 0-.09.69c0 .14.09.28-.08.42s0 .21 0 .28c.17.24.06.48.13.72s.1.48.17.71v.14l-.15-.08c-.18 0-.07-.24-.21-.29l-.09-.06a.09.09 0 0 0-.08.08 4 4 0 0 0 0 1c0 .08.08.17.1.24s0 .23 0 .33l.09.28a1.41 1.41 0 0 0 .18.4c.09.12 0 .29.15.33 0 0 0 .1.06.17s0 .13 0 .2a.68.68 0 0 0 .1.12.21.21 0 0 0 0 .3c.16.13.26.28.42.4a1.92 1.92 0 0 1 .57.83s0 .11-.06.16 0 .11 0 .14a.48.48 0 0 1 .33.48c.19 0 .25.22.34.33s0 .22.15.25.11.19.18.28l.23.28a2.37 2.37 0 0 0 .25.26c.05.05.1.16.22 0a.71.71 0 0 1 .13.07 1 1 0 0 1 .23.28c.12.19.4.25.54.41v.09h.11c0 .3.28.41.48.55.16-.11.15.1.24.1s.16.16.28.24.23.1.29.29.2.16.33.23.3.05.32.27a.56.56 0 0 1 .36.09 15.71 15.71 0 0 0 2.72.94.5.5 0 0 1 .2.12c.06.06.08.16.16.17a3.51 3.51 0 0 0 .42 0c.15 0 .27.2.4.12a.7.7 0 0 1 .6 0h.3c.37-.05.67.17 1 .12.15 0 .34.07.44-.12.18 0 .36.18.53 0s.32-.11.53 0h.18a5.94 5.94 0 0 1 1.24-.16c.09-.22.3-.19.44-.24s.35-.24.6-.11a.17.17 0 0 0 .09-.09c0-.11.1-.14.24-.11s.09 0 .12 0c.18-.33.57-.13.79-.37s.14-.23.25-.25.2 0 .23-.13c.06 0 .16.11.19.1a.61.61 0 0 0 .12-.17v-.08c0-.02-.05 0-.09 0s-.24 0-.34.09a4 4 0 0 0-.67.33c-.13.08-.2.19-.41.09s-.2.09-.25.16-.12.1-.2.09-.24.2-.33.19a.4.4 0 0 0-.37.07c-.1.17-.23.12-.39.13s-.35.12-.48.06-.14.21-.24.1-.17-.1-.25.05a.62.62 0 0 1-.2 0c-.12 0-.21.09-.3 0a.79.79 0 0 1 .31-.12 17.9 17.9 0 0 0 2-.56.8.8 0 0 1 .54-.14.44.44 0 0 1 .42-.14.33.33 0 0 0 .26-.15c.08-.24.33-.23.47-.36.13.07.14-.18.3-.07 0-.21.2 0 .27-.13s.21-.15.33-.23a5.57 5.57 0 0 0 .73-.56c.08-.07.29-.12.25-.33 0 0 .05-.1.08-.07a.22.22 0 0 0 .31-.16c0-.17.16-.1.21-.21s-.11-.21.08-.08.18.13.08.24a5.7 5.7 0 0 1-.78.68 8.83 8.83 0 0 1-.83.62c-.09.06-.19.19-.31.27.22.12.35 0 .48-.11a4.44 4.44 0 0 0 .52-.39c.09-.07.18-.26.35-.06l.06-.05c-.17-.26.06-.28.15-.36s.33-.31.5-.48.28-.16.35-.3.27 0 .21-.22.19-.09.2-.18 0 0 0-.09c.32.17.33-.13.49-.25s.16-.13 0-.23a.34.34 0 0 1 0-.12c.12-.15.25-.29.36-.45h.07v.06a.84.84 0 0 1 .39-.68.38.38 0 0 0 .18-.43c0-.09.07-.14.11-.21s.29-.16.18-.34c.16 0 .07-.27.22-.28a.59.59 0 0 1 0-.18c0-.16 0-.32.24-.36h.11c-.26-.18.09-.22.09-.34s.08-.26 0-.44a.37.37 0 0 1 .09-.3c.16-.08.16-.24.2-.35a1.77 1.77 0 0 0 0-.24c-.05.07-.15.08-.21.11s0 0-.14 0 .07-.06.07-.06a.14.14 0 0 1 0-.12h-.08a.33.33 0 0 0 0 .16.13.13 0 0 1 0 .12c0 .08.08.22 0 .28a1.6 1.6 0 0 0-.37.48h-.09a.17.17 0 0 1-.07-.06v-.11c0-.2.27-.31.22-.59a3.39 3.39 0 0 1 .17-.73l.14-.7s.05-.07.06-.11l.12.13a.29.29 0 0 1 0 .19l-.07.37v.08c0 .08.05 0 .06-.07l.07-.37c0-.15 0-.34.11-.45s-.15-.25.08-.34v-.31c0-.08.23-.14.07-.26a.33.33 0 0 1 0-.27.21.21 0 0 0 0-.27c-.09-.12-.22-.23 0-.38v-.08c-.22-.11-.18-.3-.18-.45s-.13-.37-.15-.56 0-.12.13-.05.18 0 .17-.1a7 7 0 0 0-.19-1.41.13.13 0 0 0-.07-.1c-.34-.23-.24-.65-.42-1 0-.07 0-.14.13-.17v-.12c-.18-.1-.09-.3-.16-.44l-.2-.46c-.08-.18-.07-.4-.23-.49s-.07-.23-.12-.33l-.2-.38-.2-.33-.22-.36c-.08-.13 0-.35-.17-.4s-.05-.3-.27-.29c0 0-.07-.09-.06-.15s0-.18-.14-.18-.17-.06-.19-.15a1.14 1.14 0 0 0-.67-.82c-.11-.05-.13-.26-.21-.35s-.38-.34-.56-.5a5 5 0 0 0-.42-.35l-.3-.39c0-.15-.24-.08-.36-.26s-.27-.24-.44-.35a4.7 4.7 0 0 0-.45-.27l.41-.2c-.35-.19-.72-.35-1.08-.51a1 1 0 0 1-.49-.42 1 1 0 0 1-.15-.58 1.26 1.26 0 0 1 .32-.4c.08-.11.25 0 .32 0s.05.11.16.06.27-.32.38 0c.2-.26.39 0 .56.06s.08.14.16.17.1 0 .14 0-.08.06-.14.08-.1 0-.14 0 0 .06.06.08a.72.72 0 0 1 .38.23c.1.1.3 0 .32.23 0 .06.26 0 .31.17s.25.18.39.28h.07c.07 0 .1.17.17.22s.2 0 .27.07c.3.18.56.41.84.62s.06.27.13.39.16.14.15 0h.09c.1.09.17.27.26.29s.07.24.26.29.21.28.33.34.05.37.31.19c0 .09 0 .27.11.31s.21.11.2.23.17.14.26.24c.38.37.49.93.81 1.32.07.11.12.28.3.32s-.08.3.16.26c0 .18 0 .31.15.36v.12c0 .02-.11.06 0 .1s.16.11.18.25a.28.28 0 0 0 .24.27c-.08.13-.09.23.08.29v.27c.25.13.15.35.22.51l.19.56c.13.23 0 .52.31.71a.43.43 0 0 0 0 .14 1.55 1.55 0 0 0 .07.64 9.84 9.84 0 0 1 .22 1.81c0 .17-.14.35-.05.51s0 .25.09.37a.19.19 0 0 1 0 .21c-.22.08 0 .3-.08.38s.13.26 0 .33c.08.09.11.22 0 .29s.16.18 0 .3-.06.12-.06.21v.46c0 .13 0 .3-.1.37s.09.23 0 .38 0 .35-.17.43a.5.5 0 0 1-.06.46c-.12.1 0 .25-.19.34s.07.24-.09.32-.07.24-.11.36a3.06 3.06 0 0 1-.13.35.68.68 0 0 1 0 .3c-.16.38-.18.84-.57 1.07-.07.05-.1.18-.14.26a14.78 14.78 0 0 1-1 1.61c-.09.13-.11.28-.33.27.06.2-.11.28-.26.32a.32.32 0 0 1-.19.38c-.13.1 0 .36-.28.36s-.17.24-.29.36l-.32.33a1.43 1.43 0 0 1-.37.33c-.19.1-.23.31-.48.4a3.06 3.06 0 0 0-.59.39 4.08 4.08 0 0 0-.58.4c-.15.17-.47-.06-.48.25a2.36 2.36 0 0 1-.47.26c-.18.1-.32.29-.55.2-.06 0-.11.15-.19.18a2.28 2.28 0 0 1-.68.3c-.22.11-.4.25-.69.16-.09 0-.24.08-.35.11s-.44.25-.7.08h-.12a.22.22 0 0 1-.36.08c-.15.26-.46 0-.64.14-.23-.13-.45 0-.7 0l-.72.08h-.73c-.08 0-.24-.13-.28-.08s-.16.09-.28 0a.66.66 0 0 0-.36 0c-.29.19-.57 0-.81 0s-.5 0-.71-.19c-.22.09-.47-.13-.69.14a1.15 1.15 0 0 0-.58 0c-.09 0-.25 0-.15-.23s0-.18-.08-.17-.08.12-.14.19-.13 0-.19 0h-.08v-.13l.05-.17c-.05 0-.11.06-.15.05s-.13-.13-.2-.16c-.24 0-.42-.26-.71-.19-.11 0-.32-.08-.34-.14 0-.25-.23-.09-.32-.19s-.23-.17-.34-.23a1.23 1.23 0 0 0-.39 0 .68.68 0 0 1-.28-.1c-.36-.2-.65-.42-1-.64a.71.71 0 0 0-.42-.19c-.09 0-.19-.16-.23-.24a1 1 0 0 0-.48-.39 6 6 0 0 1-.8-.82c-.09-.09-.12-.17-.17-.23-.31-.28-.43-.71-.86-.88 0-.32-.5-.4-.42-.81-.2-.21-.24-.57-.54-.76-.06 0-.06-.11-.08-.14s0-.26-.12-.31a.31.31 0 0 1-.14-.25.37.37 0 0 0-.13-.25 1.83 1.83 0 0 1-.39-.89c0-.08-.22-.18-.07-.28a.51.51 0 0 1-.11-.35c0-.13-.12-.22-.16-.33s0-.13 0-.21a1.79 1.79 0 0 0-.37-.91.22.22 0 0 1 0-.3c.07-.1.1-.14 0-.25s-.11-.31-.21-.46c-.26-.34-.26-.34-.29-.59a12.8 12.8 0 0 1 .03-3.37h.23v-.08h-.18a13.56 13.56 0 0 1 .7-2.62c0-.16.2-.27.1-.49.16-.16.2-.36.35-.48s.18-.28.29-.4.08-.05.14-.07 0 .09 0 .13.07 0 .07 0l.11-.21c0-.07 0-.07-.1-.1h-.08c.07-.14.09-.37.34-.36a.13.13 0 0 1-.08 0 .14.14 0 0 1 0 .13h.07a.29.29 0 0 0 0-.16.47.47 0 0 1 .2-.16c.14-.05.07-.28.23-.37a.13.13 0 0 0 0-.09.26.26 0 0 1-.07-.38c.09-.14.13-.26.35-.26a.28.28 0 0 0 .19-.11c.16-.13.21-.45.48-.49v-.12a.29.29 0 0 1 0-.39 2.55 2.55 0 0 1 .44-.49.19.19 0 0 1 .18 0c.12.06.15 0 .21-.08l.26-.25h-.06l-.15.14c-.06.06-.15.08-.21.14 0-.12 0-.24.05-.3a1.15 1.15 0 0 1 .33-.19c.12-.05.2 0 .27-.19s.31-.26.36-.46a4.68 4.68 0 0 0 1.17-.69l1.22-.66c.21-.1.51-.1.61-.39.37.06.54-.17.77-.31a.85.85 0 0 1 .33 0h.15c-.18-.24-.18-.45-.09-.49s0-.19.09-.28 0-.23 0-.35a10.89 10.89 0 0 1 0-1.18c0-.28-.09-.49 0-.77a2.46 2.46 0 0 0 0-.81v-1.18c0-.04.13-.16 0-.24v-.44c0-.08-.13-.2-.09-.32s0-.28.13-.4c-.13-.12-.08-.24-.08-.37s.08-.28-.09-.4c.13-.12 0-.24 0-.36s-.09-.32.18-.32a.4.4 0 0 0 0-.12h-.13l-.13-.44a.15.15 0 0 1 .09 0 .17.17 0 0 1 .09 0v.28c0-.12.18-.28-.13-.36s-.18-.16 0-.36a.15.15 0 0 0 .09 0c0-.32.13-.57.13-.85l-.13-1v-.16a.73.73 0 0 0 0-.61.68.68 0 0 1 0-.28v-1.46c0-.12 0-.28-.09-.36.18-.12 0-.2 0-.32s-.09-.16-.09-.24.09-.36 0-.53 0-.28 0-.4.09-.32-.09-.44 0-.08 0-.12c.09-.2.22-.36 0-.53.09-.2 0-.32-.09-.49s0-.28 0-.32v-.28c0-.24.13-.53-.18-.73-.09-.08.18-.2 0-.32s0-.24-.09-.36 0-.16 0-.24v-.36c0-.12-.13-.12-.22-.12s-.18-.24 0-.4.09-.24 0-.4a1.87 1.87 0 0 0-.31-.81c-.09-.12 0-.36-.09-.53 0-.32.13-.65-.09-.93v-.12s.18 0 0-.16c.09-.08-.27-.24.09-.28 0-.12.13-.28-.09-.36v-.2a.84.84 0 0 1 .09-.32c0-.16 0-.24-.09-.36a.22.22 0 0 1 0-.16c.13-.12.09-.24 0-.37s-.18-.16 0-.16a.77.77 0 0 0 0-.2 1.17 1.17 0 0 0-.08-.4c0-.12-.18-.2 0-.32a.18.18 0 0 0 0-.12.94.94 0 0 1 0-.61.14.14 0 0 1 0-.08c0-.08-.31-.12-.18-.28a.32.32 0 0 0 .09-.36c-.13-.08 0-.2 0-.28V69a.3.3 0 0 1 .09-.4.23.23 0 0 1 0-.32c.18 0 .13-.24.09-.24s-.09-.12-.09-.24v-.85a2 2 0 0 0 .22-1.27c.22-.1 0-.32 0-.49a1.27 1.27 0 0 0-.09-.67v-.44a3.24 3.24 0 0 1 0-.65 3 3 0 0 0 0-.31 3.65 3.65 0 0 0 .45-.07A1.1 1.1 0 0 1 15 63a1.23 1.23 0 0 0 .9 0 11.06 11.06 0 0 1 2.08-.09 11.49 11.49 0 0 1 1.21-.09c.12 0 .28 0 .36.09h.12c.2-.09.4-.18.61 0a.34.34 0 0 1 .48 0 1 1 0 0 1 .61-.09h.88c.13 0 .29-.09.49-.09s.19.22.37.09.25 0 .45 0h2v1.48a2.16 2.16 0 0 0 0 .5.53.53 0 0 1 0 .46 1.19 1.19 0 0 0 0 .41 2 2 0 0 1 .09.44c0 .3-.13.74 0 .93a.3.3 0 0 1-.09.16l-.09.08v-1.22.94c0 .22 0 .21.22.54a1.67 1.67 0 0 1-.09.2c-.09.12-.18.24-.13.32.18.36 0 .73 0 1.09 0 .12 0 .24.18.24v.45a.14.14 0 0 0-.09 0 .14.14 0 0 1 0-.12.15.15 0 0 0-.09 0c.09.2-.27.08-.22.24s-.08.36.09.53v.16c-.09.2 0 .36.22.4s.31.36.31.53v1.66c0 .12-.27.16-.09.32a.71.71 0 0 1 0 .32v.6c0 .41-.13.81.09 1.17-.18 0 0 .16 0 .24s-.09.2 0 .24.09.2.09.32 0 .28-.09.36a.32.32 0 0 1 .09.28v.16c0 .12-.18.2-.18.36v.4c0 .12-.13.4.18.49v.08c.13.12-.18.16 0 .28a.24.24 0 0 1 0 .28c-.18.16 0 .28 0 .4a4.4 4.4 0 0 1 .04 1.1c0 .32-.13.69.09 1-.18.12-.09.36-.09.53a1.87 1.87 0 0 0 0 .48c0 .16-.18.28 0 .4v.16c-.26.08.13.28-.09.36.22.12 0 .32.09.48a.93.93 0 0 1 0 .61c0 .16.09.36-.09.53.18.2 0 .44.09.65s-.09.24 0 .4 0 .28 0 .4-.22.24-.09.45 0 .32.09.45a.55.55 0 0 1 .09.36 8.23 8.23 0 0 1 0 1.05c-.18.12.09.28 0 .45s0 .4 0 .61v1.41c0 .08.09.2.09.28s-.09.24-.09.36.13.24.09.28a.55.55 0 0 0-.09.24v.16c0 .12.13.28.09.32s0 .24 0 .36a1.27 1.27 0 0 0 0 .4c0 .24 0 .48.13.65s-.09.2 0 .28.13.12 0 .24 0 .2 0 .28a1.5 1.5 0 0 1 0 .89c0 .12.18.32 0 .32s-.13.2-.27.24-.26.16-.4.2-.18-.12-.31 0-.18-.16-.31 0a.52.52 0 0 1-.27 0h-.36a2.64 2.64 0 0 1-.78-.03zm9.72 13.88a.07.07 0 0 0-.09 0h.09zm-.15 1.06s.06-.07.07-.11a.15.15 0 0 0 0-.13.26.26 0 0 1-.06.16s.04.04-.01.08zm-6.27 9c0 .1 0 .1.08.11v-.06s-.06 0-.08-.05-.01.08 0 .02zm-11 2.16v.14c0 .04.09 0 .1-.06s0-.06 0-.1a.12.12 0 0 1-.07.03zm-9-8.67c0 .05-.07.07-.06.11s.08.1.09.14a.15.15 0 0 1 .07-.07c-.01-.1-.01-.12-.01-.16zm-.22-.69v.05h.06zm-.09-.27v.05a.06.06 0 0 0 .08 0c0 .05 0 0 0 0l-.02-.03zm-.89-2.59h-.13c-.04 0 0 0 0 0h.08zm0-.42h-.09a.14.14 0 0 1 0-.08zm0-1.25v.08a3.19 3.19 0 0 0 0 .33v.48a7 7 0 0 1 0-.75.13.13 0 0 1 .03-.12zm0-.67c-.18.07-.1.2-.11.29v.25a.17.17 0 0 0 .09 0v-.33a.42.42 0 0 0 .1-.19zm.28-1.34c-.08-.06-.09 0-.13 0s.14.01.2.02zm7.53-7.54h-.08c-.03 0 0 .07-.07.09s.05 0 .08 0a.11.11 0 0 0 .15-.07zm.28-.37h-.11c-.03 0 0 .05 0 .07h.19a.19.19 0 0 0 0-.06zm3-1.23v.08l-.21.07-.34.11-.36.14c-.06 0-.09.08-.15.11a.41.41 0 0 1 .22 0 3.21 3.21 0 0 1 .42 0c.13-.05.25-.1.21-.13s.58-.18.31-.33zm0-1v.57h.09A.55.55 0 0 0 17 97c0-.07 0-.09-.09-.1zm.32-3.95c-.26 0-.13.2-.13.28a2.24 2.24 0 0 0 .18 1.42c0 .16.13.36-.18.4v.88c0 .19.22.46 0 .59l.13.25v-1.43a.58.58 0 0 1 .09-.34.57.57 0 0 0 0-.53.9.9 0 0 1-.09-.57c0-.16-.09-.24 0-.4s.13-.28.09-.36 0-.32-.09-.19zm-.12-.74c-.13 0 0 .12-.09.2v.16a.14.14 0 0 0 0-.12s.09 0 .09-.08.16-.16 0-.16zM15.13 88h.09a.12.12 0 0 0-.09 0zm1.37-4.61a.16.16 0 0 0-.09 0v.12a.14.14 0 0 0 .09 0 .15.15 0 0 0 0-.1zM14.07 74h-.13.13zM16 69zm-1.7-5.78a.47.47 0 0 1-.14-.09h-.06zm.06 0a.21.21 0 0 0 .14.09c.03.01.09.01-.17-.08zm.34 0a2.81 2.81 0 0 1-.28 0h-.06c.03.01.19.06.31.06zm1.46-.09c-.19-.13-.33 0-.54-.09H15a.28.28 0 0 0 0 .13h.15c.09-.13.33 0 .51 0a1.45 1.45 0 0 0 .47.02zm3.58 1.06c0-.09-.28-.18-.36-.09s0 .13 0 .13a.19.19 0 0 0 .12 0h.2s.01.06.01.02zm.4 0a.14.14 0 0 0 0-.09h-.12a.16.16 0 0 0 0 .09.14.14 0 0 0 .09.01zm.85.09v-.13s.01.1.01.14zM25.06 63a.08.08 0 0 1 0 .09 1.56 1.56 0 0 0 .33 0v.08l.08-.16a1.36 1.36 0 0 0-.41-.01zm-2.5.88h.1l.14-.09s.05 0 0 0a1.34 1.34 0 0 0 .25-.09.27.27 0 0 0 .1-.09.68.68 0 0 0-.5 0c-.04.15-.01.2-.09.28zm-.34.31v-.13h-.06s.07.1.06.14zm.21.35h-.13a.19.19 0 0 0 .13.02zm.25 0h-.14a.2.2 0 0 1 .15.06zm.54-.35c.07 0 .16 0 .24-.09s-.06 0-.11 0h-.85l.08.13H23c.26 0-.12.13-.06.18s.09 0 .13 0h.19s-.09 0-.1-.09zm.29-.53h.16c.08 0 0 0 0 0h-.14zm.5 0v-.09h-.14a.1.1 0 0 0 0 .09.35.35 0 0 1 .13.1zm.26 0s-.09 0-.08.09-.05 0 0 0 .03.01.08.01zm.66-.75h-1.3 1.14a.56.56 0 0 0 .16.09zm-.22.94v-.23h-.25a.11.11 0 0 0 0 .09h.19V64s.02-.07.07-.05zm.75.14s.09 0 .13-.09 0 .1-.09.13zm0 .49a.36.36 0 0 0 .09-.12v-.17a.38.38 0 0 0-.09.12.22.22 0 0 0 .05.27zm0 .93c0-.08.09-.1.09-.16v-.24a.22.22 0 0 1-.09.1 1 1 0 0 1 .01.4zm-.35 1.38c0 .06.09.06.13 0s0-.06 0-.06 0 .06-.09.06.01.15-.04.1zm.09.85h.13v-.14s-.09-.2-.13-.36c-.13.2 0 .32 0 .49zm.13 1c0-.08.09-.12.09-.2s-.09-.12-.09-.2a1.31 1.31 0 0 1 0-.4c-.18.12 0 .28-.09.4v.4zm0 1a.06.06 0 0 0 .09 0v-.53h-.09c0 .08-.09.12-.09.2a.86.86 0 0 0 .09.32zm-.84 1.9c.09-.08.18-.12.18-.16s-.09-.08-.13-.12-.09.08-.09.12a.28.28 0 0 0 0 .2zm0 .12h.13s-.17.04-.21.04zm0 .2h.13s-.17.04-.21.04zm-.31.4v-.2.08c0 .08-.08.13-.08.17zm.31.32v-.2.08c0 .08-.08.13-.08.17zm-.09.89h.09a.3.3 0 0 0 .09-.16v-.08h-.13s-.09.25-.13.29zm.09.24h.13a.14.14 0 0 0 0-.08h-.13zm.09 1.17l.13-.12a.09.09 0 0 0-.09-.08.63.63 0 0 1-.18.12.6.6 0 0 1 .06.14zm.09.57a.62.62 0 0 0 .09-.12.93.93 0 0 0-.18-.2.23.23 0 0 0 0 .16s-.08.13 0 .21zm-.13.12a.07.07 0 0 0-.09 0v.05zm0 .4v-.28c0-.04 0 .08-.09.12s0 .14.05.19zm-.09.24h.09a.14.14 0 0 1 0 .08s-.09.02-.13-.02zm.09.89v-.3a.16.16 0 0 0-.09 0v.28s0 .08.05.08zm0 .77v-.36.32zm0 .4s.09 0 .09-.08v-.08a.16.16 0 0 0-.09 0c-.04.18-.04.18-.04.22zm.84.81zm.13 3.92s.09 0 .09-.08v-.16a.14.14 0 0 1-.09 0 .5.5 0 0 1-.04.3zm-1 4.33h.18c.09 0 0 0-.09-.4v-.28.73c0 .12 0 0 0 0s-.15.05-.15.01zm0 .49v-.2.12a.14.14 0 0 1-.06.14zm.13.85a.81.81 0 0 0 0-.24V88a.44.44 0 0 0-.13 0l-.09.08a1.07 1.07 0 0 1 .09.36c-.01.04-.1.2.07.28zm0 .41v-.2.12a.14.14 0 0 1-.1.13zm0 1.05c.18 0 0-.16.09-.24v-.2a.16.16 0 0 0-.09 0V90s-.14.1-.14.18zm.09 1.13a.16.16 0 0 0 .09 0v-1a.47.47 0 0 0-.13 0 .09.09 0 0 0-.09.08v.45c0 .12.18.24 0 .36a1.89 1.89 0 0 0-.02.16zm-.44.57h.09a.14.14 0 0 1 0 .08zM31 117.42s-.06 0 0 0zm-7.24 6.15a.1.1 0 0 1-.06.11 5.69 5.69 0 0 1-.76.19 10.94 10.94 0 0 1-1.52.13c-.52 0-1 .08-1.5.07-.09 0-.13 0-.22-.09a1.1 1.1 0 0 0 .38 0c.21-.09.27.22.47.08a.59.59 0 0 1 .38 0c.14.12.31.06.48 0l.55-.07.5-.11.5-.11a4.81 4.81 0 0 0 .5-.12h.08c.1-.04.15-.01.22-.08z"/><path class="cls-1" d="M26.26 62.89v-.2.51a7 7 0 0 0 .09 1.94c.09.22-.18.53 0 .81a3.46 3.46 0 0 1 0 1v.3c-.18-.06 0-.11-.09-.3a3.35 3.35 0 0 1-.09-1.14v-1.1zM5.19 108.18v-.01c.11-.43.17-.91.26-1.33a.61.61 0 0 1 .15-.24h.05v.09l-.07.29a1.53 1.53 0 0 0-.22.8c0 .16-.15.22-.17.4zM25.36 123h.1c.1 0 0 .06-.06.08-.24.1-.44.2-.68.29l-.7.23h-.14c-.04 0 .06-.11.1-.13s.14-.13.19-.11a2.14 2.14 0 0 0 1.19-.36zm-10.49-.06v.13a.58.58 0 0 1-.27 0c-.08 0-.23 0-.24-.19.11-.15.19 0 .27 0h.08l.19.08zm3.88.94l.08.05c.08.05 0 0-.09 0h-.51a.45.45 0 0 1-.21-.06.87.87 0 0 1 .31-.06 1.41 1.41 0 0 0 .42.07zm5.53-40.53s-.09 0 0 0l-.13-.49a.09.09 0 0 1 .09-.08.16.16 0 0 1 .09 0v.53zM15 87.81s-.09 0-.09-.08V87zm-9.86 21.02c0 .17-.07.35-.07.48-.12-.18 0-.31 0-.48s.06-.3.07-.43c.16.14-.03.3 0 .43zm.45-2.39a.1.1 0 0 1-.07-.11l.05-.21s.06-.07.12-.1 0 .1.06.15v.17l-.16.1zm20.76-37.65v-.36c.13.08 0 .24 0 .36v.36c-.09-.15.05-.28 0-.36zm1.17 53.3a.66.66 0 0 1-.27.22c-.14 0-.21.17-.35.1.08 0 .17-.14.24-.19s.18-.22.38-.13zM23.88 65.4v.11c0 .04 0 0 0 0v-.62c0-.03 0 0 0 0zm-2.47-3.18h1.07-.99zm4.36 8.35a.72.72 0 0 1 0 .28.47.47 0 0 1-.13 0c-.18 0-.09-.16-.09-.24a.52.52 0 0 1 .22-.04zM5.09 111.06S5 111 5 110.71v-.22a.14.14 0 0 1 .08 0v.22a.48.48 0 0 1 .01.35zm15.79-48.67h.24zm-3.7 61.12l.14.21h-.09c0-.18-.24.13-.2-.08-.03-.02.1-.05.15-.13zm8.42-55.25h.09v.2c0 .08 0 .2-.09.24a.28.28 0 0 1 0-.16zm1.08 54.22a.08.08 0 0 1 .06.11l-.15.09h-.18a.74.74 0 0 1 .07-.14l.19-.11zm1.25-.73l.32-.22a.16.16 0 0 1 0 .1l-.18.13-.07.05s0-.02-.07-.06zM5.9 105.77s-.08.11-.09.15a.48.48 0 0 1 0-.15l.07-.21h.06v.05c-.06.06-.07.1-.04.16zm13.57 18.18v.09h-.38a.17.17 0 0 1 0-.09h.3zm6.79-56.21s0-.08.09-.12a.14.14 0 0 1 0 .12s0 .08-.09.12a.14.14 0 0 1 0-.12zM15 86.88a.6.6 0 0 0-.13-.16l.09-.08c.09-.08.09.08.09.12s-.05.08-.05.12zm2.65 36.9a.14.14 0 0 1 0 .09.22.22 0 0 1-.18 0l-.07-.1s.17 0 .25.01zm-1.12-.4a.32.32 0 0 1 .1.11l-.15.1a.14.14 0 0 1 0-.09.37.37 0 0 1 .05-.12zm7.39-50.51l.09-.08v.08A.28.28 0 0 1 24 73s-.08-.09-.08-.13zm.14 5.13v-.04zm.13 2.92a.14.14 0 0 0-.09 0v-.12h.09c.09 0 .04.08 0 .12zM13.85 68.16a.14.14 0 0 1 0-.08V68v.16c0 .04 0 .04 0 0zm12.5 1.16a.16.16 0 0 1 .09 0v.08l-.09.08a.14.14 0 0 1 0-.16zm-.04.32v-.08a.15.15 0 0 1 .09 0v.12c0 .04-.05 0-.09-.04zM7.17 116.61v.09c0 .03-.08-.05-.1-.09a.13.13 0 0 1 0-.1s.08.06.1.1zm17.92-54.39v-.09a.65.65 0 0 1 .27 0 .07.07 0 0 0 0 .09.82.82 0 0 0-.27 0zm1.12 60.47a.15.15 0 0 1 .08.06c0 .06 0 .06-.06.08h-.11s.03-.05.09-.14zm-.39.19a.17.17 0 0 1 .08.06c0 .05 0 .05-.06.07h-.11a.15.15 0 0 0 .09-.13zm-11.88-51.2v-.08c0-.08-.04.04 0 .08zM25.55 123h.1v.06s-.08.02-.1-.06zm-6.97-58.13h.08l-.08.09zm-8.26 55.48v.06a.06.06 0 0 1-.07-.05l.07-.01zm5.2 2.9v-.1.05s-.04.03 0 .05zm-1.7-.73l.06.07h-.06s-.02-.03 0-.07zm.3-45.02h.09s-.05-.04-.09 0zm.22.89h-.13.13zm0-.48h-.13.13zm9.94 5.64h-.09v.08zm0-16.95c0 .05-.09 0-.13 0v-.05h.09zm-.14-1.68a.26.26 0 0 1 .09-.11.37.37 0 0 0-.09.11zm-.04 5.81v-.08c0-.08-.04.04 0 .08zm-9.19 16.19V87l-.09-.08s.05-.04.09 0zm-.04-.4v.08s-.05-.08 0-.08zm8.78-21.96h-.08v-.09zM5.76 107.65v.08l-.07-.1a.06.06 0 0 1 .07.02zm21.92 14.28h.09v.07c-.07 0-.07 0-.09-.07zm-1.42-54.47h.04zm0-5.11v-.18h-.05a.18.18 0 0 1 .1 0c0 .06-.05.1-.05.18zm-4.97-.09h-.08l.08-.09s.04.09 0 .09zm1.71.04v-.13h.06s-.09 0-.11.09zm.37 0h-.06.15c-.07-.04-.07-.04-.09 0zm-2 .05v-.09h.08a.21.21 0 0 1-.08.09zm4.32 6.52v.08s-.05-.08 0-.08zm-.18 1.5v-.08s.04.08 0 .08zM11.19 13.15v-.07c0-.07 0 0 .06.09s0 .09 0 0a.2.2 0 0 1 .1 0v.07s0 .09.07.07.06 0 .09 0 0-.09 0 0v.07c0-.12 0 0 .07-.07s0 .09 0 0v.11h-.09s.07.07.11 0 .06 0 .08 0 0 .07 0 0 0 0 .06 0c0 .14 0-.07.05 0s0 0 .06 0c0-.09.07-.11.09 0a.06.06 0 0 1 .05 0v-.07.07c0 .07 0 0 0 0h.06c.06 0 0 0 0 0s0 .07 0 0c0 .09 0-.09.06 0s0 .09 0 0 0 .07 0 0a.21.21 0 0 0 .12 0 .55.55 0 0 0 0-.23v-.07c0-.07 0-.07 0 0s0-.07 0 0v.07c0-.11 0 0 .06 0v.12-.09s0 .09 0 0 0 .11 0 0v-.07h.06c.06 0 0 0 0 0h.06s0-.07 0 0 0-.07 0 0 0 .09 0 0a.82.82 0 0 1 0 .11h.07c.07 0 0 0 0 0l.06-.07c0 .12 0 0 0 0s0-.11 0 0 0-.11 0 0 .06 0 .09 0a1.43 1.43 0 0 0 .32 0s0 .07 0 0 0 .12 0 0c0 .07 0 0 0 0a.22.22 0 0 0 .12 0c0 .11 0 0 0 0a.33.33 0 0 0 .14 0s0 .14 0 0c0 .11 0 0 0 0a.16.16 0 0 0 0 .07s0-.07 0 0h.15s0-.14 0 0c0-.14 0 0 .06 0a.06.06 0 0 0 .06 0h.12v.18c0 .07.05.07.08.12s0 .07 0 0c0 .07 0 .07 0 0v-.12c0-.09.05 0 .08 0v.09c0-.07 0-.07 0 0s0 .09 0 0h.06v-.07h.05c.05 0 0 0 0 0 0 .11 0 .07.06.07a.7.7 0 0 1 .22 0v.07s0 .09 0 0 0 .09.07.07 0 .11 0 0 .06 0 .09.07c0-.09 0 0 0 0s0-.07 0 0c0-.11 0 0 .06 0s0-.07 0 0 0 .07 0 0v.09a.06.06 0 0 0-.06 0s0 .09 0 0 0-.07 0 0a.36.36 0 0 1 .16 0c0-.09 0 0 0 0h.07s0 .07 0 0 0-.12 0 0v.11h-.15v.09s0 .09 0 0v.04s0-.09.06 0 0 .09 0 0c0 .07 0 0 0 0 0-.16 0 0 0 0L20 13v-.07s0 .07 0 0a.31.31 0 0 0 0-.11s0 .09 0 0 0 0 .06 0h.05v.09s0-.09 0 0 0 .11 0 0 0-.11 0 0v-.09.16a.17.17 0 0 0 .1 0l.08-.07a.27.27 0 0 1 0 .09c0-.07 0 0 0 0h.09s0 .11 0 0 0 .07 0 0 0 .11.07 0h.09v.07h.16v.11a2 2 0 0 1 0 .25v.25c0 .09 0 .07 0 0v.09s0 .07 0 0 0 .07 0 0h-.07v-.11.07s0-.07 0 0 0-.11 0 0v-.07c0 .02 0 0 0 0s-.07-.09-.1-.07 0-.11 0 0c0-.07 0-.09 0 0s0-.07 0 0 0-.09 0 0 0-.07 0 0 0-.07 0 0a.23.23 0 0 1-.12 0s0-.09 0 0 0 .07 0 0 0 .07 0 0 0 .09 0 0 0 .07 0 0 0 .07 0 0-.06.07-.08 0h-.13c0 .09 0 0 0 0s0 .07 0 0 0 .11 0 0 0-.16 0 0v-.07c0-.07 0 0 0 0s0 .07 0 0c0 .11 0 0 0 0h-.1s0-.07 0 0 0 0-.06 0v-.02.12c0 .05 0 0 0 0v-.16.07c0 .07 0 0 0 0h-.16s-.06-.07-.08 0c0-.09 0 .09-.06-.07 0 0 0-.07-.06 0s0 0-.07 0 0 .07 0 0 0 0-.07.07 0-.07 0 0v.18h-.22v-.11h-.18v-.07c0-.07 0 0 0 0v-.11.07c0-.07 0 0 0 0v.11a.28.28 0 0 1 0-.07c0-.07 0 0 0 0a.32.32 0 0 1 0 .09s0-.07 0 0v.07c0-.11-.06 0-.09-.07a.15.15 0 0 0-.09 0s0-.07 0 0c0-.11 0 0-.06 0 0 .09 0 .09 0 0a.11.11 0 0 1-.08 0h-.17s0-.07 0 0 0 .07 0 0v-.07c0 .07 0 0 0 0 0-.07 0 0 0 0v-.09.21c0 .16 0 .09 0 0s0-.07-.06-.07l-.07.07a.17.17 0 0 0-.1 0c0-.09 0 0 0 0s0-.12 0 0v.09c0 .16 0-.09 0 0v.11c0 .04 0 .09 0 0a.37.37 0 0 0-.06.16s0-.07-.06 0 0-.09 0 0 0 .14 0 0c0 0 0-.07 0 0s0 .09 0 0 0 .09 0 0v.09c0-.07 0-.07 0 0s0-.07 0 0h-.05s0-.07 0 0c0-.11 0 0 0 0h-.09a.15.15 0 0 1-.08 0s0 .09 0 0q0 .1 0 0c0 .07 0 0 0 0s0-.12 0 0h-.15s0-.07 0 0v-.07h.05v.04c0 .02 0 0-.07 0s0 0 0 .09v-.12c0 .02 0 0 0 0v.27h-.11c-.04 0 0-.14 0 0s-.06-.07-.08 0c0-.09 0 0 0 0v-.09.09c0 .07 0-.09 0 0s0 .09-.07.09 0-.07-.07 0c0-.09 0 0 0 0s0-.09 0 0 0 .07 0 0c0 .12 0 0 0 0 0 .09 0 0 0 0s0-.11 0 0 0 0-.07 0h-.1s0 .07 0 0 0 .07 0 0v.07c0 .07 0 0 0 0s0 .07 0 0 0 0-.06 0 0 .09 0 0v-.35a1.56 1.56 0 0 0 0-.16v-.48c-6.17-.07-6.17-.17-6.16-.35zm9 .3h.01zm-.07 0s.01 0 0-.02zm-.77-.23a.27.27 0 0 0 0 .07v-.09zm-.79.25v-.02zm-.88-.14v-.02zm0 0zm0 0zm-.18.23a.59.59 0 0 0 0 .07zm0 0zm-.08 0zm0 0c0 .09 0 0 0 0s-.14-.04-.14-.02zm-.09 0a.49.49 0 0 0 0 .07zm-.78-1s-.14-.09-.14-.07zm0 .09v-.07a.58.58 0 0 0-.18 0zm-.16-.07v-.07s-.18-.09-.18 0zm0 0s0-.07 0 0zm-.23-.11v.07s.07.07.1-.09 0-.07 0 .09 0-.11 0 0v-.14s0 .07 0 0 0-.07 0 0-.33-.05-.32 0zm-.05.07c0 .07 0 0 0 0s-.22-.17-.22-.07zm-.29 1s-.22-.14-.22-.11zm-.32-.71s-.21-.14-.22-.11zM14.64 14zm-.34-1zm-.3 1zm0 0s0-.07 0 0zm0 0zm-.07 0c0 .07 0 0 0 0v-.07c0 .07 0 0 0 0l-.03.07zm-.2-.55s0 .09 0 0a.57.57 0 0 0 0-.07.15.15 0 0 0-.04.07zm0 0s-.06 0-.07.02zm-.06 0zm-.19.66s-.07 0-.06-.02zm.09-.46s-.06.03-.06-.02zm0-.16zm0-.18s-.06-.04-.07-.02zm0 0s-.08-.04-.09-.04zm0 .18v-.18c0-.02 0 0 0 0zm0 .27zm0 0l-.13-.06zm0 0s-.14-.06-.15-.06zm0 .39zm0-.37a.44.44 0 0 1-.18-.06zm0 .39a.26.26 0 0 0 0 .07zm0 0s-.24-.06-.24-.04zm0 0zm-.06-.18a.3.3 0 0 0 0 .07s-.28-.06-.28-.13zm-.06 0V14v-.07c0-.07 0 0 0 0zm-.07.07zM13 14zm-.13-.43s.05-.01.05.02zm0 0s.04.02.04-.01zm0 0s.02.02.02-.01zm0-.16zm0 .16zm-.06 0a.41.41 0 0 0 0-.07s-.02.04-.03.02zm0 0v-.07zm-.08 0v-.02c0-.09-.04.06-.04.06zm0 0v-.09c0-.02 0 0 0 0a.27.27 0 0 0-.08.17zm0-.07l-.09.09zm0 0zm0 0s-.14.09-.13.06zm-.06 0a.16.16 0 0 0-.14.11zm-.05 0zm0 0zm-.22.5zm-.27.07zm-.3-.53zm0 0zm-.06.07v-.07s-.02.02-.03.11zm0 0zm-.07 0c0 .09 0 0 0 0h-.06zm-.08 0h.07v-.07s0 .09 0 0zm0-.23zm8.1.07z"/><path class="cls-1" d="M19.08 13.79l-.1-.07a.16.16 0 0 0-.1 0s0 .11 0 0h.14s.06.09.06.07zm-5.7.73h-.07c-.07 0 0-.09 0 0 0-.09 0 0 0 0zm3.88-.66a.13.13 0 0 0-.09 0s0 .09.05 0 .03 0 .04 0zm1.93-.05h-.09v-.07s.06.07.09.07zm-.7-.22v.07c0-.09 0 0 0 0zm.26.06zm-6.64-.15v-.07zm3.48 0zm1.71.36c0 .07 0 0 0 0-.02-.07-.01.02 0 0zm-.15-.05zm-4.04.76c0 .07 0 0 0 0-.02-.05-.01.02 0 0zm6.23-.67s-.01-.09 0 0zm-6-.61zm.23 1.21zm-.57-.23v-.07c0-.07 0 0 0 0v.07zm4.44-.37s0-.04 0 0zm-3.83.51zm5.04-.85v.11c0-.09 0 .09 0 0v-.11zm-5.51.62zm6.14-.32a.26.26 0 0 1 0 .07v-.07zm.09.02s0 .02 0 0zm-2.27-.13zm1.7-.07zm-5.62.84zm2.34-1s0-.02 0 0zm3.16.13v-.07zm-.07-.09v.11s-.01-.06 0-.11zm-5.78-.25zm-.35.07zm-.2.07s0 .02 0 0zm1.96.64zm-1.17.48zm-.07-.02zm4.83-.85zm-4.39.8zm5.81-.66v-.07zm-.03 0s0 .02 0 0zm-4.74.16zm4.72-.14zm-5.43-.73zm4.38.5s0 .02 0 0zm.39 0zm-.12-.04zm-3.54.41s0-.07 0 0zm.06-.16zm-.03 0zm-2.81-.34zm1.15 0a.61.61 0 0 1 0-.07zm.11-.07zM13 13.4zm2.52.14zm-.02.02zm-2.08-.27zm3.8.32zm2.13.27zm-6.15.64a.5.5 0 0 1 0 .07zm.2 0zm.18-.04zm-.06-.02a.27.27 0 0 1 0 .07zm-.02 0s0 .02 0 0zm.08-.03zm-.48-.2zm-.1-.1zm-1.28 8.54v-.07.09c0 .09 0 .09 0 0v.14c0-.02 0 0 0 0s0-.09 0 0a.18.18 0 0 1 0 .07v-.07c0-.07 0 .09 0 0V23s0 .07 0 0 0 .07 0 0c0 .14 0-.07 0 0 0-.09 0-.11 0 0v-.07a.41.41 0 0 1 0 .07v.14s0 .07 0 0c0 .09 0-.09 0 0s0 .09 0 0 0 .07 0 0a1.6 1.6 0 0 0 0-.23v-.07c0-.07 0-.07 0 0s0-.07 0 0v.07c0 .07 0 0 0 0v.12-.09s0 .09 0 0 0 .11 0 0v-.18s0-.07 0 0 0-.07 0 0 0 .09 0 0v.11c0 .04 0 0 0 0a.24.24 0 0 0 0-.07c0 .12 0 0 0 0s0-.11 0 0 0-.11 0 0a.21.21 0 0 0 .11 0s0 .07 0 0 0 .12 0 0c0 .07 0 0 0 0 0 .11 0 0 0 0s0 .14 0 0c0 .11 0 0 0 0a.36.36 0 0 0 0 .07s0-.07 0 0h.05s0-.14 0 0c0-.14 0 0 0 0v.18a1 1 0 0 0 0 .12s0 .07 0 0c0 .07 0 .07 0 0v-.12c0-.09 0 0 0 0v.09c0-.07 0-.07 0 0s0 .09 0 0v-.07.07a.1.1 0 0 1 .07 0v.07s0 .09 0 0v.07c0-.02 0 0 0 0s0 .11 0 0v.07c0-.09 0 0 0 0s0-.07 0 0c0-.11 0 0 0 0s0-.07 0 0 0 .07 0 0v.09-.09s0 .09 0 0 0-.07 0 0a.06.06 0 0 1 .05 0c0-.09 0 0 0 0s0 .07 0 0 0-.12 0 0a.78.78 0 0 1 0 .11h-.05v.09s0 .09 0 0v.04s0-.09 0 0 0 .09 0 0c0 .07 0 0 0 0 0-.16 0 0 0 0v-.16s0 .07 0 0a.74.74 0 0 0 0-.11s0 .09 0 0v.09s0-.09 0 0 0 .11 0 0 0-.11 0 0v-.09a.22.22 0 0 1 0 .07.49.49 0 0 0 0 .09v-.07a.73.73 0 0 1 0 .09c0-.07 0 0 0 0s0 .11 0 0 0 .07 0 0 0 .11 0 0v.07H12a.39.39 0 0 1 0 .11v.5c0 .09 0 .07 0 0v.09s0 .07 0 0 0 .07 0 0v-.11.07s0-.07 0 0 0-.11 0 0v-.07c0 .02 0 0 0 0v-.07c0 .02 0 0 0 0s0-.11 0 0c0-.07 0-.09 0 0s0-.07 0 0 0-.09 0 0 0-.07 0 0 0-.07 0 0 0-.09 0 0 0 .07 0 0 0 .07 0 0 0 .09 0 0 0 .07 0 0 0 .07 0 0 0 .07 0 0c0 .09 0 0 0 0s0 .07 0 0 0 .11 0 0 0-.16 0 0v-.07c0-.07 0 0 0 0s0 .07 0 0c0 .11 0 0 0 0s0-.07 0 0V24v.12c0 .05 0 0 0 0v-.16s0-.07 0 0v-.07s0-.07 0 0 0 .07 0 0v.07c0 .07 0 0 0 0s0-.07 0 0v.18h-.08v-.11h-.06v-.07c0-.07 0 0 0 0v-.11a.57.57 0 0 1 0 .14v-.07.04c0-.07 0 0 0 0v.09s0-.07 0 0c0-.07 0 0 0 0s0-.07 0 0c0-.11 0 0 0 0 0 .09 0 .09 0 0s0-.07 0 0 0 .07 0 0v-.07c0 .07 0 0 0 0 0-.07 0 0 0 0v-.09.21c0 .16 0 .09 0 0v-.07.07c0-.09 0 0 0 0s0-.12 0 0v.09c0 .16 0-.09 0 0a.81.81 0 0 0 0 .11s0 .09 0 0a.91.91 0 0 0 0 .16s0-.07 0 0 0-.09 0 0 0 .14 0 0c0 0 0-.07 0 0s0 .09 0 0 0 .09 0 0v.09c0-.07 0-.07 0 0s0-.07 0 0 0-.07 0 0c0-.11 0 0 0 0s0 .09 0 0q0 .1 0 0c0 .07 0 0 0 0s0-.12 0 0h-.05s0-.07 0 0v-.07.04c0 .02 0 0 0 0v-.03c0 .02 0 0 0 0v.27s0-.14 0 0 0-.07 0 0c0-.09 0 0 0 0a.84.84 0 0 0 0-.09v.09c0 .07 0-.09 0 0v.09s0-.07 0 0c0-.09 0 0 0 0s0-.09 0 0 0 .07 0 0c0 .12 0 0 0 0 0 .09 0 0 0 0s0-.11 0 0 0 .07 0 0 0 .07 0 0v.07c0 .07 0 0 0 0s0 .07 0 0 0 .09 0 0V23c-.09-.06-.09-.15-.09-.33zm3.08.3a.08.08 0 0 1 0 .03zm0 0s-.02.03-.02-.03zm-.26-.23v.07s-.03-.08-.03-.1zm-.27.25v.07c0 .07 0 0 0 0a.08.08 0 0 1-.03-.06zm-.3-.14zm0 0zm0 0zm-.06.23v.07zm0 0zm0 0zm0 0c0 .09 0 0 0 0s-.11-.08-.11-.02zm0 0v.07zm-.27-1l-.13-.08zm0 .09V22s-.15.07-.15.1zm-.2-.17v-.07.07zm0 0s0-.07 0 0zm-.08-.11v-.02.09c0 .16 0 0 0 0s0-.11 0 0v-.09s0 .07 0 0 0-.07 0 0-.02 0-.01.04zm0 .07c0 .07 0 0 0 0s-.03-.07-.03.04zm-.1 1s-.03-.04-.03-.02zm-.11-.71s-.03-.04-.03-.02zm-.22 1.26s-.03 0-.03-.02zm-.12-1s-.02.02-.03 0zm-.11 1zm0 0s-.03-.07-.02-.02zm0 0zm0 0c0 .07 0 0 0 0v-.07c0 .07 0 0 0 0s-.05.05-.05.07zm-.12-.51s0 .09 0 0v-.07a.4.4 0 0 0 0 .07zm0 0h-.01zm0 0zm-.06.66v.07s-.04-.1-.04-.12zm0-.46s-.01-.01 0-.05zm0-.16zm0-.18s-.01-.08-.01-.06zm0 0l-.01-.08zm0 .18v-.09a.67.67 0 0 1 0-.09zm0 .27zm0 0l-.03-.09zm0 0s-.03-.09-.04-.09zm0 .39zm0-.37s-.05-.11-.05-.09zm0 .39v.07zm0 0s-.07-.09-.07-.07zm0 0zm0-.18v.07s-.1-.14-.1-.17zm0 0v.07-.09c0-.07 0 0 0 0zm0 .07zm0 0zm0-.43s-.21-.1-.21-.08zm0 0s-.21-.08-.21-.1zm0 0s-.22-.08-.22-.1zm0-.16zm0 .16zm0 0v-.07s-.25-.05-.25-.11zm0 0v-.07zm0 0v-.02c0-.09-.29-.03-.29-.03zm0 0v-.09c0-.02 0 0 0 0s-.3.04-.3.08zm0-.07l-.3-.01zm0 0zm0 0s-.32-.01-.32-.03zm0 0a.43.43 0 0 0-.34.02zm0 0zm0 0zm0 .43zm-.09.07zm-.1-.53zm0 0zm0 .07v-.07c0-.07 0 0 0 0s-.42 0-.42.09zm0 0zm0 0c0 .09 0 0 0 0l-.45-.02zm0 0v-.07s0 .09 0 0zm0-.23zm2.31.08zm-.22.31v-.07s0 .11 0 0v.07zm-1.95.69s0-.09 0 0c0-.09 0 0 0 0zm1.33-.62s0 .09 0 0zm.66-.05v-.07s-.01.07 0 .07zm-.24-.23v.07c0-.09 0 0 0 0zm.09.07zM12 23v-.07zm1.22 0zm.59.38c0 .07 0 0 0 0 0-.07 0 .02 0 0zm-.05-.05zm-1.38.76c0 .07 0 0 0 0-.01-.09 0 .02 0 0zm2.13-.67s0-.09 0 0zm-2.05-.62v-.04h.01v.04h-.01zm.08 1.2zm-.2-.21v-.07c0-.07 0 0 0 0s-.01 0 0 .07zm1.52-.37s0-.04 0 0zm-1.31.5v.05h-.01v-.05h.01zm1.72-.84v.11c0-.09 0 .09 0 0v-.11zm-1.88.62v.07zm2.1-.32v.07-.07zm.03.02s0 .02 0 0zm-.78-.14zm.58-.07zM12.4 24zm.8-1zm1.08.17v-.07zm-.02-.09zm-1.98-.25zm-.12.07v-.05.05zm-.07.1zm.68.61l-.01.02v-.02l.01-.03v.03zm-.41.48zm0-.03v-.07zm1.64-.84zm-1.51.78zm1.99-.65v-.07zm-.01 0s0 .03 0 0zm-1.62.21s0 .02 0 0zm1.61-.18zm-1.86-.74zm1.5.51s0 .02 0 0zm.14 0zm-.05-.05zm-1.19.37s0-.03 0 0zm0-.12zm0 0zM12 23zm.43 0v-.07.07zm.03-.06zm-.13-.02s0-.02 0 0zm.87.14zm-.01.02zm-.71-.28zm1.3.33s0 .02 0 0zm.73.27zm-2.1.6v.07zm.07 0zm.06 0zm-.02 0v.07zm-.01 0zm.03-.05zm-.16-.21zm-.04-.09zm-1.16 8.53v-.07.09c0 .09 0 .09 0 0a.16.16 0 0 1 .09 0v.07s0 .09.06.07.05 0 .08 0 0-.09 0 0v.07c0-.12 0 0 .06-.07s0 .09 0 0v.11h.33s.06.07.1 0 0 0 .07 0 0 .07 0 0 0 0 .05 0c0 .14 0-.07 0 0s0 0 .05 0c0-.09.06-.11.08 0s0 0 0-.07v.07c0 .07 0 0 0 0s0 .07 0 0c0 .09 0-.09.06 0s0 .09 0 0 0 .07 0 0a.16.16 0 0 0 .1 0 .63.63 0 0 0 0-.23v-.07c0-.07 0-.07 0 0s0-.07 0 0v.07c0-.11 0 0 0 0v.12V32s0 .09 0 0 0 .11 0 0v-.07h.05c.05 0 0 0 0 0s0-.07 0 0 0-.07 0 0 0 .09 0 0a.94.94 0 0 1 0 .11h.06c.06 0 0 0 0 0v-.07c0 .11 0 0 0 0s0-.11 0 0 0-.11 0 0 .05 0 .08 0a1.09 1.09 0 0 0 .28 0s0 .07 0 0 0 .12 0 0c0 .07 0 0 0 0a.17.17 0 0 0 .11 0c0 .11 0 0 0 0a.25.25 0 0 0 .12 0s0 .14 0 0c0 .11 0 0 0 0a.17.17 0 0 0 0 .07s0-.07 0 0h.13s0-.14 0 0c0-.14 0 0 .06 0h.1v.18c0 .07 0 .07.07.12s0 .07 0 0c0 .07 0 .07 0 0v-.12c0-.09 0 0 .07 0v.09c0-.07 0-.07 0 0s0 .09 0 0v-.07.07a.53.53 0 0 1 .19 0 .37.37 0 0 0 0 .07s0 .09 0 0 0 .09.06.07 0 .11 0 0 .05 0 .08.07c0-.09 0 0 0 0s0-.07 0 0c0-.11 0 0 .06 0s0-.07 0 0 0 .07 0 0v.09s0 .09 0 0 0-.07 0 0a.28.28 0 0 1 .14 0c0-.09 0 0 0 0h.06s0 .07 0 0 0-.12 0 0v.11h-.13v.09s0 .09 0 0v.04s0-.09 0 0 0 .09 0 0c0 .07 0 0 0 0 0-.16 0 0 0 0v-.16s0 .07 0 0a.34.34 0 0 0 0-.11s0 .09 0 0v.09s0-.09 0 0 0 .11 0 0 0-.11 0 0v-.09.16a.13.13 0 0 0 .09 0l.07-.07a.31.31 0 0 1 0 .09c0-.07 0 0 0 0h.08s0 .11 0 0 0 .07 0 0 0 .11.06 0h.08v.07H20v.11a2.28 2.28 0 0 1 0 .25v.25c0 .09 0 .07 0 0v.09s0 .07 0 0 0 .07 0 0h-.06v-.11.07s0-.07 0 0 0-.11 0 0v-.07c0 .02 0 0 0 0s-.06-.09-.09-.07 0-.11 0 0c0-.07 0-.09 0 0s0-.07 0 0 0-.09 0 0 0-.07 0 0 0-.07 0 0a.17.17 0 0 1-.1 0s0-.09 0 0 0 .07 0 0 0 .07 0 0 0 .09 0 0 0 .07 0 0 0 .07 0 0 0 .07-.07 0h-.11c0 .09 0 0 0 0s0 .07 0 0 0 .11 0 0 0-.16 0 0v-.07c0-.07 0 0 0 0s0 .07 0 0c0 .11 0 0 0 0h-.09s0-.07 0 0v-.02.12c0 .05 0 0 0 0v-.16.07c0 .07 0 0 0 0h-.14s0-.07-.07 0c0-.09 0 .09-.05-.07 0 0 0-.07-.06 0s0 0-.06 0 0 .07 0 0 0 0-.06.07 0-.07 0 0v.18h-.19v-.11h-.16v-.07c0-.07 0 0 0 0v-.99.07c0-.07 0 0 0 0v.11a.31.31 0 0 1 0-.07c0-.07 0 0 0 0a.34.34 0 0 1 0 .09s0-.07 0 0v.07c0-.11-.05 0-.08-.07a.11.11 0 0 0-.08 0s0-.07 0 0c0-.11 0 0-.05 0 0 .09 0 .09 0 0a.09.09 0 0 1-.07 0s0-.07 0 0 0 .07 0 0v-.07c0 .07 0 0 0 0 0-.07 0 0 0 0v-.09.21c0 .16 0 .09 0 0s0-.07-.05-.07l-.06.07a.13.13 0 0 0-.09 0c0-.09 0 0 0 0s0-.12 0 0v.09c0 .16 0-.09 0 0v.11c0 .04 0 .09 0 0a.4.4 0 0 0 0 .16s0-.07-.06 0 0-.09 0 0 0 .14 0 0c0 0 0-.07 0 0s0 .09 0 0 0 .09 0 0V33c0-.07 0-.07 0 0s0-.07 0 0 0-.07 0 0c0-.11 0 0 0 0H18c-.07 0 0 0 0 0s0 .09 0 0c0 .07 0 .07 0 0s0-.12 0 0h-.13s0-.07 0 0v.14c0 .02 0 0-.06 0s0 0 0 .09v-.12c0 .02 0 0 0 0v.27h-.1c-.04 0 0-.14 0 0s0-.07-.07 0c0-.09 0 0 0 0v-.09.09c0 .07 0-.09 0 0s0 .09-.06.09 0-.07-.06 0c0-.09 0 0 0 0s0-.09 0 0 0 .07 0 0c0 .11 0 0 0 0 0 .09 0 0 0 0s0-.11 0 0 0 0-.06 0h-.08s0 .07 0 0 0 .07 0 0v.07c0 .07 0 0 0 0s0 .07 0 0 0 0-.05 0 0 .09 0 0a.85.85 0 0 0 0-.14v-.85c-6.15-.09-6.15-.18-6.15-.37zm7.82.3zm-.06 0s.01 0 .01-.02zm-.67-.23a.32.32 0 0 0 0 .07v-.09zm-.68.25v-.02zm-.76-.14v-.02zm0 0zm0 0zm-.16.23a.64.64 0 0 0 0 .07zm0 0zm-.07 0zm0 0c0 .09 0 0 0 0s-.12-.04-.13-.02zm-.08 0a.59.59 0 0 0 0 .07zm-.67-1s-.13-.09-.13-.07zm0 .09v-.07a.64.64 0 0 0-.16 0zm-.14-.07v-.07s-.16-.09-.16 0zm0 0s0-.07 0 0zm-.2-.11v.07s.06.07.08-.09 0-.07 0 .09 0-.11 0 0v-.09s0 .07 0 0 0-.07 0 0-.28-.1-.28-.05zm0 .07c0 .07 0 0 0 0s-.24-.16-.24-.07zm-.25 1s-.26-.14-.26-.11zm-.27-.71s-.24-.13-.25-.11zM14.18 33zm-.3-1h.01zm-.28 1zm0 0h.01zm0 0zm-.06 0c0 .07 0 0 0 0v-.07c0 .07 0 0 0 0V33zm-.18-.55s0 .09 0 0a.62.62 0 0 0 0-.07.16.16 0 0 0 0 .1zm0 0s-.02.03-.02.05zm-.05 0zm-.16.66s-.03.03-.03.01zm.08-.46s-.03.06-.03.01zm0-.16zm0-.18s-.03-.01-.03.01zm0 0l-.05-.01zm0 .18v-.18c0-.02 0 0 0 0zm0 .27zm0 0l-.09-.03zm0 0l-.1-.03zm0 .39zm0-.37s-.13-.05-.13-.03zm0 .39a.32.32 0 0 0 0 .07zm0 0s-.18-.03-.23 0zm0 0zM13 33zm0 0v.07V33c0-.07 0 0 0 0zm-.06.07zm-.06 0zm-.11-.43s-.08-.05-.08-.02zm0 0s-.09-.02-.09-.05zm0 0s-.1-.02-.1-.05zm0-.16zm0 .16zm-.05 0a.45.45 0 0 0 0-.07s-.15 0-.15-.02zm0 0v-.07zm-.07 0v-.02c0-.09-.16.02-.16.02zm0 0v-.09c0-.02 0 0 0 0a.34.34 0 0 0-.2.14zm0-.07l-.2.05zm0 0zm0 0s-.24.05-.24.02zm-.05 0a.19.19 0 0 0-.24.07zm0 0zm0 0zm0 .43zm-.23.07zm-.26-.53zm0 0zm-.05.07v-.07s-.39.05-.39.15zm0 0zm-.06 0c0 .09 0 0 0 0l-.42.03zm-.07 0h.06v-.07s0 .09 0 0zm0-.23zm6.66.1z"/><path class="cls-1" d="M18 32.82l-.08-.07a.12.12 0 0 0-.08 0s0 .11 0 0H18v.07zm-4.91.73h-.06c-.06 0 0-.09 0 0 0-.09 0 0 0 0zm3.37-.66a.1.1 0 0 0-.07 0s0 .09 0 0 .06 0 .07 0zm1.67-.04h-.08v-.07s.06.07.08.07zm-.6-.23v.07c0-.09 0 0 0 0zm.23.07s-.01 0 0 0zM12 32.53v-.07zm3 0zm1.5.36c0 .07 0 0 0 0-.02-.07-.01.02 0 0zm-.14-.04zm-3.51.75c0 .07 0 0 0 0-.01-.05 0 .02 0 0zm5.41-.66s0-.09 0 0zm-5.2-.62zm.2 1.21zm-.51-.23v-.07c0-.07 0 0 0 0v.07zm3.87-.36s-.01-.05 0 0zm-3.33.5zm4.38-.85v.11c0-.09 0 .09 0 0s-.01-.06 0-.11zm-4.79.62zm5.33-.32a.31.31 0 0 1 0 .07v-.07zm.08.02s0 .03 0 0zm-1.97-.13zm1.48-.07zm-4.88.84s-.01 0 0 0zm2.08-1a.66.66 0 0 0 0 .07v-.09s-.05 0 0 .02zm2.7.14v-.07zm-.07-.1zm-5.02-.25zm-.3.07zm-.18.07s.01.02 0 0zm1.71.64zm-1.02.48zm-.02-.02zm4.2-.85zm-3.86.8zm5.05-.66v-.07zm-.03 0s0 .02 0 0zm-4.16.2zm4.14-.18zm-4.71-.73zm3.8.5s0 .03 0 0zm.34 0zm-.11-.04zm-3.07.38zm.06-.13zm-.03 0zM12 32.53zm1 0v-.07zm.07-.07zm-.33-.03zm2.26.14zm-.07.02zm-1.81-.27zm3.31.32zm1.85.27zm-5.35.64a.6.6 0 0 1 0 .07zm.17 0zm.17-.04zm-.06-.02a.29.29 0 0 1 0 .07zm-.01 0s0 .02 0 0zm.06-.03zm-.41-.2zm-.09-.09zm-1.85 8.53v-.07.09c0 .09 0 .09 0 0s0 0 .06 0 0 0 0 .07v.07c0-.02 0 0 .05 0s0-.09 0 0c0-.07 0 .09 0 0V42h-.05s0 .07.06 0 0 .07 0 0c0 .14 0-.07 0 0 0-.09 0-.11.05 0s0 0 0-.07V42c0 .07 0 0 0 0s0 .07 0 0c0 .09 0-.09 0 0s0 .09 0 0 0 .07 0 0a.08.08 0 0 0 .07 0 .93.93 0 0 0 0-.23v-.07c0-.07 0-.07 0 0s0-.07 0 0v.07c0-.11 0 0 0 0v.12-.09s0 .09 0 0 0 .11 0 0v-.07s0-.07 0 0 0-.07 0 0 0 .09 0 0v.11c0 .04 0 0 0 0a.17.17 0 0 0 0-.07c0 .12 0 0 0 0s0-.11 0 0 0-.11 0 0 0 0 .05 0a.51.51 0 0 0 .19 0s0 .07 0 0 0 .12 0 0c0 .07 0 0 0 0a.09.09 0 0 0 .07 0c0 .11 0 0 0 0a.12.12 0 0 0 .08 0s0 .14 0 0c0 .11 0 0 0 0a.21.21 0 0 0 0 .07s0-.07 0 0h.09s0-.14 0 0c0-.14 0 0 0 0v.18a.7.7 0 0 0 0 .12s0 .07 0 0c0 .07 0 .07 0 0v-.12c0-.09 0 0 0 0v.09c0-.07 0-.07 0 0s0 .09 0 0v-.07.07a.24.24 0 0 1 .13 0 .53.53 0 0 0 0 .07s0 .09 0 0v.07c0-.02 0 0 0 0s0 .11 0 0 0 0 .05.07c0-.09 0 0 0 0s0-.07 0 0c0-.11 0 0 0 0s0-.07 0 0 0 .07 0 0v.09s0 .09 0 0 0-.07 0 0a.13.13 0 0 1 .09 0c0-.09 0 0 0 0s0 .07 0 0 0-.12 0 0a.48.48 0 0 1 0 .11h-.09v.09s0 .09 0 0v.04s0-.09 0 0 0 .09 0 0c0 .07 0 0 0 0 0-.16 0 0 0 0v-.16s0 .07 0 0a.48.48 0 0 0 0-.11s0 .09 0 0v.09s0-.09 0 0 0 .11 0 0 0-.11 0 0v-.09.07a.3.3 0 0 0 0 .09.07.07 0 0 0 .06 0v-.07a.44.44 0 0 1 0 .09c0-.07 0 0 0 0h.05s0 .11 0 0 0 .07 0 0 0 .11 0 0h.05v.07h.09v.61c0 .09 0 .07 0 0v.09s0 .07 0 0 0 .07 0 0a1 1 0 0 1 0-.11v.07s0-.07 0 0 0-.11 0 0v-.07c0 .02 0 0 0 0s0-.09-.06-.07 0-.11 0 0c0-.07 0-.09 0 0s0-.07 0 0 0-.09 0 0 0-.07 0 0 0-.07 0 0a.09.09 0 0 1-.07 0s0-.09 0 0 0 .07 0 0 0 .07 0 0 0 .09 0 0 0 .07 0 0 0 .07 0 0 0 .07 0 0h-.07c0 .09 0 0 0 0s0 .07 0 0 0 .11 0 0 0-.16 0 0v-.07c0-.07 0 0 0 0s0 .07 0 0c0 .11 0 0 0 0h-.06s0-.07 0 0v-.02.12c0 .05 0 0 0 0v-.16a.36.36 0 0 0 0 .07s0-.07 0 0v-.07s0-.07 0 0 0 .07 0 0v.07c0 .07 0 0 0 0s0-.07 0 0v.18h-.13v-.11h-.11v-.07c0-.07 0 0 0 0v-.11.18a.49.49 0 0 1 0-.07c0-.07 0 0 0 0a.52.52 0 0 1 0 .09s0-.07 0 0v.07c0-.11 0 0-.05-.07a.06.06 0 0 0-.05 0s0-.07 0 0c0-.11 0 0 0 0 0 .09 0 .09 0 0s0-.07 0 0 0 .07 0 0v-.07c0 .07 0 0 0 0 0-.07 0 0 0 0v-.09.21c0 .16 0 .09 0 0v-.07.07a.07.07 0 0 0-.06 0c0-.09 0 0 0 0s0-.12 0 0v.09c0 .16 0-.09 0 0a.48.48 0 0 0 0 .11s0 .09 0 0a.55.55 0 0 0 0 .16s0-.07 0 0 0-.09 0 0 0 .14 0 0c0 0 0-.07 0 0s0 .09 0 0 0 .09 0 0v.09c0-.07 0-.07 0 0s0-.07 0 0 0-.07 0 0c0-.11 0 0 0 0h-.05c-.05 0 0 0 0 0s0 .09 0 0q0 .1 0 0c0 .07 0 0 0 0s0-.12 0 0h-.08s0-.07 0 0v-.07.04c0 .02 0 0 0 0v-.03c0 .02 0 0 0 0v.27h-.07c-.07 0 0-.14 0 0s0-.07 0 0c0-.09 0 0 0 0a.58.58 0 0 0 0-.09v.09c0 .07 0-.09 0 0v.09s0-.07 0 0c0-.09 0 0 0 0s0-.09 0 0 0 .07 0 0c0 .12 0 0 0 0 0 .09 0 0 0 0s0-.11 0 0h-.06s0 .07 0 0 0 .07 0 0v.07c0 .07 0 0 0 0s0 .07 0 0 0 .09 0 0a1.27 1.27 0 0 0 0-.14v-.85c-.23-1.06-.23-1.18-.23-1.36zm5.22.3zm0 0h-.04zm-.45-.23a.46.46 0 0 0 0 .07s-.04-.07-.04-.1zm-.46.25v.07l-.04-.09zm-.51-.14s-.03-.02-.04-.02zm0 0zm0 0zm-.11.23v.07zm0 0zm0 0zm0 0c0 .09 0 0 0 0s-.16-.05-.16-.02zm-.05 0v.07zm-.45-1l-.16-.11zm0 .09v-.07s-.18-.03-.18 0zm-.09-.07v-.07c0-.07 0 0 0 0s-.19-.06-.19 0zm0 0s0-.07 0 0zm-.13-.11v.07s0 .07.06-.09 0-.07 0 .09 0-.11 0 0V41s0 .07 0 0 0-.07 0 0-.28-.1-.27-.06zm0 .07c0 .07 0 0 0 0s-.24-.17-.24-.09zm-.17 1l-.24-.09zm-.18-.71s-.24-.14-.24-.12zm-.37 1.26s-.25-.1-.25-.12zm-.2-1s-.24-.08-.24-.1zm-.18 1zm0 0s-.25-.16-.25-.12zm0 0zm0 0c0 .07 0 0 0 0v-.07c0 .07 0 0 0 0s-.29-.05-.3-.03zm-.42-.64s0 .09 0 0v-.07a.27.27 0 0 0 0 .07zm0 0h-.01zm0 0zm-.11.66s-.05 0-.04-.02zm.05-.46s-.04.02-.04-.02zm0-.16zm0-.18s-.04-.05-.05-.02zm0 0s-.05-.05-.06-.05zm0 .18v-.13c0-.02 0 0 0 0zm0 .27zm0 0l-.08-.06zm0 0l-.09-.06zm0 .39zm0-.37s-.11-.08-.11-.06zm0 .39a.45.45 0 0 0 0 .07zm0 0s-.14-.06-.14-.04zm0 0zm0-.18a.46.46 0 0 0 0 .07s-.2-.11-.2-.13zm0 0v.07-.11c0-.07 0 0 0 0zm0 .07zm0 0zm-.08-.43s-.3-.07-.3-.05zm0 0s-.31-.05-.31-.07zm0 0s-.32-.05-.32-.07zm0-.16zm0 .16zm0 0v-.07s-.38-.02-.38-.05zm0 0v-.07zm0 0v-.02c0-.09-.44 0-.44 0zm0 0v-.09c0-.02 0 0 0 0a.42.42 0 0 0-.46.11zm0-.07l-.46.02zm0 0zm0 0s-.49.02-.49 0zm0 0a.24.24 0 0 0-.53.05zm0 0zm0 0zm0 .43zm-.16.07zm-.17-.53zm0 0zm0 .07v-.07s-.65.03-.65.12zm0 0zm0 0c0 .09 0 0 0 0l-.71.01zm0 0v-.07s0 .09 0 0zm0-.23zm3.96.08zm-.37.34l-.06-.07a.06.06 0 0 0-.06 0s0 .11 0 0h.08s.04.09.04.07zm-3.3.73s0-.09 0 0c0-.09 0 0 0 0zm2.25-.66s0 .09 0 0zm1.12-.05h-.05v-.07s.03.07.05.07zm-.41-.23v.07c0-.09 0 0 0 0zm.16.07s-.01 0 0 0zm-3.85-.2v-.07zm2.01 0zm.99.41c0 .07 0 0 0 0-.01-.07 0 .02 0 0zm-.08-.05zm-2.37.76c0 .07 0 0 0 0 0-.05 0 .02 0 0zm3.63-.67s0-.09 0 0zm-3.47-.61zM12.3 43zm-.3-.18v-.07c0-.07 0 0 0 0v.07zm2.54-.37s-.01-.04 0 0zm-2.22.55zm2.91-.89v.11c0-.09 0 .09 0 0v-.11zm-3.23.62zm3.6-.32a.45.45 0 0 1 0 .07v-.07zm.05.02s0 .02 0 0zm-1.31-.14zm.98-.07zm-3.25.85zm1.35-1.01v.07V42v.06zm1.83.14zm-.04-.09zm-3.35-.25zm-.2.07v-.05.05zm-.11.07zm1.13.64v.02-.05.03zm-.68.48zm0-.03v-.07zm2.76-.84zm-2.54.75zm3.36-.62v-.07zm-.02 0s0 .03 0 0zm-2.74.21zm2.73-.18zm-3.14-.73zm2.53.5s0 .02 0 0zm.23 0zm-.07-.05zm-2.05.37s0-.02 0 0zm.04-.12zm-.02 0zM11.44 42zm.67 0v-.07zm.06 0zm-.22 0zm1.48.09zm-.02.02zm-1.2-.27zm2.2.32zm1.23.27zm-3.56.64v.07zm.11 0zm.11-.07zm-.04 0a.49.49 0 0 1 0 .07zm-.01 0zm.05 0zm-.3-.23zm0-.09zm-.82 5.39V48v.09c0 .09 0 .09 0 0a.16.16 0 0 1 .09 0v.07s0 .09.06.07.05 0 .08 0 0-.09 0 0v.07c0-.12 0 0 .06-.07s0 .09 0 0v.11h.33s.06.07.1 0 0 0 .07 0 0 .07 0 0 0 0 .05 0c0 .14 0-.07 0 0s0 0 .05 0c0-.09.06-.11.08 0s0 0 0-.07v.07c0 .07 0 0 0 0s0 .07 0 0c0 .09 0-.09.06 0s0 .09 0 0 0 .07 0 0a.16.16 0 0 0 .1 0 .63.63 0 0 0 0-.23v-.07c0-.07 0-.07 0 0s0-.07 0 0v.07c0-.11 0 0 0 0v.12-.09s0 .09 0 0 0 .11 0 0v-.07h.05c.05 0 0 0 0 0s0-.07 0 0 0-.07 0 0 0 .09 0 0a.94.94 0 0 1 0 .11h.06c.06 0 0 0 0 0v-.07c0 .12 0 0 0 0s0-.11 0 0 0-.11 0 0 .05 0 .08 0a1.1 1.1 0 0 0 .28 0s0 .07 0 0 0 .11 0 0c0 .07 0 0 0 0a.17.17 0 0 0 .11 0c0 .11 0 0 0 0A.25.25 0 0 0 16 47s0 .14 0 0c0 .11 0 0 0 0a.17.17 0 0 0 0 .07s0-.07 0 0h.13s0-.14 0 0c0-.14 0 0 .06 0h.1v.18c0 .07 0 .07.07.12s0 .07 0 0c0 .07 0 .07 0 0v-.12c0-.09 0 0 .07 0v.09c0-.07 0-.07 0 0s0 .09 0 0v-.07.07a.53.53 0 0 1 .19 0 .37.37 0 0 0 0 .07s0 .09 0 0 0 .09.06.07 0 .11 0 0 .05 0 .08.07c0-.09 0 0 0 0s0-.07 0 0c0-.11 0 0 .06 0s0-.07 0 0 0 .07 0 0v.09s0 .09 0 0 0-.07 0 0a.28.28 0 0 1 .14 0c0-.09 0 0 0 0h.06s0 .07 0 0 0-.12 0 0v.11h-.13v.09s0 .09 0 0v.04s0-.09 0 0 0 .09 0 0c0 .07 0 0 0 0 0-.16 0 0 0 0v-.16s0 .07 0 0a.34.34 0 0 0 0-.11s0 .09 0 0v.09s0-.09 0 0 0 .11 0 0 0-.11 0 0v-.09.16a.13.13 0 0 0 .09 0l.07-.07a.31.31 0 0 1 0 .09c0-.07 0 0 0 0h.08s0 .11 0 0 0 .07 0 0 0 .11.06 0h.08v.07H20v.11a2.28 2.28 0 0 1 0 .25v.25c0 .09 0 .07 0 0v.09s0 .07 0 0 0 .07 0 0h-.06v-.11.07s0-.07 0 0 0-.11 0 0v-.07c0 .02 0 0 0 0s-.06-.09-.09-.07 0-.11 0 0c0-.07 0-.09 0 0s0-.07 0 0 0-.09 0 0 0-.07 0 0 0-.07 0 0a.18.18 0 0 1-.1 0s0-.09 0 0 0 .07 0 0 0 .07 0 0 0 .09 0 0 0 .07 0 0 0 .07 0 0 0 .07-.07 0h-.11c0 .09 0 0 0 0s0 .07 0 0 0 .11 0 0 0-.16 0 0v-.07c0-.07 0 0 0 0s0 .07 0 0c0 .11 0 0 0 0h-.09s0-.07 0 0v-.02.12c0 .05 0 0 0 0v-.16.07c0 .07 0 0 0 0h-.14s0-.07-.07 0c0-.09 0 .09-.05-.07 0 0 0-.07-.06 0s0 0-.06 0 0 .07 0 0 0 0-.06.07 0-.07 0 0v.18h-.19v-.11h-.16v-.07c0-.07 0 0 0 0v-.11.07c0-.07 0 0 0 0v.11a.31.31 0 0 1 0-.07c0-.07 0 0 0 0a.34.34 0 0 1 0 .09s0-.07 0 0v.07c0-.11-.05 0-.08-.07a.11.11 0 0 0-.08 0s0-.07 0 0c0-.11 0 0-.05 0 0 .09 0 .09 0 0a.09.09 0 0 1-.07 0s0-.07 0 0 0 .07 0 0v-.07c0 .07 0 0 0 0 0-.07 0 0 0 0v-.09.21c0 .16 0 .09 0 0s0-.07-.05-.07l-.06.07a.13.13 0 0 0-.09 0c0-.09 0 0 0 0s0-.12 0 0v.09c0 .16 0-.09 0 0v.11c0 .04 0 .09 0 0a.4.4 0 0 0 0 .16s0-.07-.06 0 0-.09 0 0 0 .14 0 0c0 0 0-.07 0 0s0 .09 0 0 0 .09 0 0v.09c0-.07 0-.07 0 0s0-.07 0 0 0-.07 0 0c0-.11 0 0 0 0H18c-.07 0 0 0 0 0s0 .09 0 0c0 .07 0 .07 0 0s0-.12 0 0h-.13s0-.07 0 0v.13c0 .02 0 0-.06 0s0 0 0 .09v-.12c0 .02 0 0 0 0v.27h-.1c-.04 0 0-.14 0 0s0-.07-.07 0c0-.09 0 0 0 0v-.09.09c0 .07 0-.09 0 0s0 .09-.06.09 0-.07-.06 0c0-.09 0 0 0 0s0-.09 0 0 0 .07 0 0c0 .12 0 0 0 0 0 .09 0 0 0 0s0-.11 0 0 0 0-.06 0h-.08s0 .07 0 0 0 .07 0 0v.07c0 .07 0 0 0 0s0 .07 0 0 0 0-.05 0 0 .09 0 0a.85.85 0 0 0 0-.14v-.85c-6.15-.1-6.15-.19-6.15-.38zm7.82.3zm-.06 0s.01 0 .01-.02zm-.67-.23a.32.32 0 0 0 0 .07v-.09zm-.68.25v-.02zm-.76-.14v-.02zm0 0zm0 0zm-.16.23a.64.64 0 0 0 0 .07zm0 0zm-.07 0zm0 0c0 .09 0 0 0 0s-.12-.04-.13-.02zm-.08 0a.59.59 0 0 0 0 .07zm-.67-1s-.13-.09-.13-.07zm0 .09v-.07a.64.64 0 0 0-.16 0zm-.14-.07v-.07s-.16-.09-.16 0zm0 0s0-.07 0 0zm-.2-.11v.07s.06.07.08-.09 0-.07 0 .09 0-.11 0 0v-.09s0 .07 0 0 0-.07 0 0-.28-.1-.28-.05zm0 .07c0 .07 0 0 0 0s-.24-.16-.24-.07zm-.25 1s-.26-.14-.26-.11zm-.27-.71s-.24-.13-.25-.11zm-.56 1.26s-.25-.09-.25-.11zm-.3-1s-.24-.07-.24-.1zm-.28 1zm0 0s-.25-.16-.24-.11zm0 0zm-.06 0c0 .07 0 0 0 0v-.07c0 .07 0 0 0 0s-.25-.04-.25-.02zm-.18-.55s0 .09 0 0a.62.62 0 0 0 0-.07.16.16 0 0 0-.25-.02zm0 0s-.27-.09-.27-.07zm-.05 0zm-.16.66l-.28-.12zm.08-.46s-.28-.06-.28-.11zm0-.16zm0-.18s-.28-.13-.28-.11zm0 0l-.3-.13zm0 .18v-.18c0-.02 0 0 0 0zm0 .27zm0 0l-.34-.15zm0 0l-.35-.15zm0 .39zm0-.37s-.38-.17-.38-.15zm0 .39a.32.32 0 0 0 0 .07zm0 0s-.43-.18-.48-.12zm0 0zm-.48-.33a.36.36 0 0 0 0 .07v-.07zm0 0V49v-.07c0-.07 0 0 0 0zm-.06.07zm-.06 0zm-.11-.43s-.08-.01-.08.02zm0 0s-.09.02-.09-.01zm0 0s-.1.02-.1-.01zm0-.16zm0 .16zm-.05 0a.45.45 0 0 0 0-.07s-.15.04-.15.02zm0 0v-.07zm-.07 0v-.02c0-.09-.16.06-.16.06zm0 0v-.09c0-.02 0 0 0 0a.34.34 0 0 0-.2.18zm0-.07l-.2.09zm0 0zm0 0s-.24.09-.24.06zm-.05 0a.19.19 0 0 0-.24.11zm0 0zm0 0zm0 .43zM12 49zm-.26-.53zm0 0zm-.05.07v-.07s-.02.01-.02.11zm0 0zm-.06 0c0 .09 0 0 0 0s-.04-.01-.05-.01zm-.07 0h.06v-.07s0 .09 0 0zm0-.23zm7.03.06z"/><path class="cls-1" d="M18 48.71l-.08-.07a.12.12 0 0 0-.08 0s0 .11 0 0H18v.07zm-4.91.73h-.06c-.06 0 0-.09 0 0 0-.09 0 0 0 0zm3.37-.66a.1.1 0 0 0-.07 0s0 .09 0 0 .06 0 .07 0zm1.67-.04h-.08v-.07s.06.07.08.07zm-.6-.23v.07c0-.09 0 0 0 0zm.23.07s-.01 0 0 0zM12 48.42v-.07zm3 0zm1.5.36c0 .07 0 0 0 0-.02-.07-.01.02 0 0zm-.14-.04zm-3.51.75c0 .07 0 0 0 0-.01-.05 0 .02 0 0zm5.41-.66s0-.09 0 0zm-5.2-.62zm.2 1.21zm-.51-.23v-.07c0-.07 0 0 0 0v.07zm3.87-.36s-.01-.05 0 0zm-3.33.5zm4.38-.85v.11c0-.09 0 .09 0 0s-.01-.06 0-.11zm-4.79.62zm5.33-.32a.31.31 0 0 1 0 .07v-.07zm.08.02s0 .03 0 0zm-1.97-.13zm1.48-.07zm-4.88.84s-.01 0 0 0zm2.08-1a.66.66 0 0 0 0 .07v-.09s-.05 0 0 .02zm2.7.14v-.07zm-.07-.1zm-5.02-.25zm-.3.07zm-.18.07s.01.02 0 0zm1.71.63zm-1.02.49zm-.02-.02zm4.2-.85zm-3.86.8zm5.05-.66v-.07zm-.03 0s0 .02 0 0zM14 49zm4.14-.22zM13.43 48zm3.8.55s0 .03 0 0zm.34 0zm-.11-.04zm-3.07.36s0-.02 0 0zm.06-.11zm-.03 0zM12 48.42zm1 0v-.07zm.07-.07zm-.33-.03zm2.26.14zm-.07.02zm-1.81-.27zm3.31.32zm1.85.27zm-5.35.64a.6.6 0 0 1 0 .07zm.17 0zm.17-.04zm-.06-.02a.29.29 0 0 1 0 .07zm-.01 0s0 .02 0 0zm.06-.03zm-.41-.2zm-.09-.09zm-1.85 8.53v-.07.09c0 .09 0 .09 0 0s0 0 .06 0 0 0 0 .07v.07c0-.02 0 0 .05 0s0-.09 0 0c0-.07 0 .09 0 0v.11h-.05s0 .07.06 0 0 .07 0 0c0 .14 0-.07 0 0 0-.09 0-.11.05 0s0 0 0-.07v.07c0 .07 0 0 0 0s0 .07 0 0c0 .09 0-.09 0 0s0 .09 0 0 0 .07 0 0a.08.08 0 0 0 .07 0 .93.93 0 0 0 0-.23v-.07c0-.07 0-.07 0 0s0-.07 0 0v.07c0-.11 0 0 0 0v.12-.09s0 .09 0 0 0 .11 0 0v-.07s0-.07 0 0 0-.07 0 0 0 .09 0 0v.11c0 .04 0 0 0 0a.17.17 0 0 0 0-.07c0 .12 0 0 0 0s0-.11 0 0 0-.11 0 0 0 0 .05 0a.51.51 0 0 0 .19 0s0 .07 0 0 0 .12 0 0c0 .07 0 0 0 0a.09.09 0 0 0 .07 0c0 .11 0 0 0 0a.12.12 0 0 0 .08 0s0 .14 0 0c0 .11 0 0 0 0a.21.21 0 0 0 0 .07s0-.07 0 0h.09s0-.14 0 0c0-.14 0 0 0 0v.18a.71.71 0 0 0 0 .12s0 .07 0 0c0 .07 0 .07 0 0v-.12c0-.09 0 0 0 0V57c0-.07 0-.07 0 0s0 .09 0 0v-.07.07a.25.25 0 0 1 .13 0 .53.53 0 0 0 0 .07s0 .09 0 0v.07c0-.02 0 0 0 0s0 .11 0 0 0 0 .05.07c0-.09 0 0 0 0s0-.07 0 0c0-.11 0 0 0 0s0-.07 0 0 0 .07 0 0v.09s0 .09 0 0 0-.07 0 0a.13.13 0 0 1 .09 0c0-.09 0 0 0 0s0 .07 0 0 0-.12 0 0a.48.48 0 0 1 0 .11h-.09v.09s0 .09 0 0v.04s0-.09 0 0 0 .09 0 0c0 .07 0 0 0 0 0-.16 0 0 0 0v-.16s0 .07 0 0a.48.48 0 0 0 0-.11s0 .09 0 0v.09s0-.09 0 0 0 .11 0 0 0-.11 0 0v-.09.07a.3.3 0 0 0 0 .09.07.07 0 0 0 .06 0v-.07a.44.44 0 0 1 0 .09c0-.07 0 0 0 0h.05s0 .11 0 0 0 .07 0 0 0 .11 0 0h.05v.07h.09v.61c0 .09 0 .07 0 0v.09s0 .07 0 0 0 .07 0 0a1 1 0 0 1 0-.11v.07s0-.07 0 0 0-.11 0 0v-.07c0 .02 0 0 0 0s0-.09-.06-.07 0-.11 0 0c0-.07 0-.09 0 0s0-.07 0 0 0-.09 0 0 0-.07 0 0 0-.07 0 0a.09.09 0 0 1-.07 0s0-.09 0 0 0 .07 0 0 0 .07 0 0 0 .09 0 0 0 .07 0 0 0 .07 0 0 0 .07 0 0h-.07c0 .09 0 0 0 0s0 .07 0 0 0 .11 0 0 0-.16 0 0v-.07c0-.07 0 0 0 0s0 .07 0 0c0 .11 0 0 0 0h-.06s0-.07 0 0v-.02.12c0 .05 0 0 0 0v-.16a.36.36 0 0 0 0 .07s0-.07 0 0v-.07s0-.07 0 0 0 .07 0 0v.07c0 .07 0 0 0 0s0-.07 0 0v.18h-.13v-.11h-.11v-.07c0-.07 0 0 0 0v-.28.18a.49.49 0 0 1 0-.07c0-.07 0 0 0 0a.53.53 0 0 1 0 .09s0-.07 0 0v.07c0-.11 0 0-.05-.07a.06.06 0 0 0-.05 0s0-.07 0 0c0-.11 0 0 0 0 0 .09 0 .09 0 0s0-.07 0 0 0 .07 0 0v-.07c0 .07 0 0 0 0 0-.07 0 0 0 0v-.09.21c0 .16 0 .09 0 0v-.07.07a.07.07 0 0 0-.06 0c0-.09 0 0 0 0s0-.12 0 0v.09c0 .16 0-.09 0 0a.48.48 0 0 0 0 .11s0 .09 0 0a.55.55 0 0 0 0 .16s0-.07 0 0 0-.09 0 0 0 .14 0 0c0 0 0-.07 0 0s0 .09 0 0 0 .09 0 0v.09c0-.07 0-.07 0 0s0-.07 0 0 0-.07 0 0c0-.11 0 0 0 0h-.05c-.05 0 0 0 0 0s0 .09 0 0q0 .1 0 0c0 .07 0 0 0 0s0-.12 0 0h-.08s0-.07 0 0v.14c0 .02 0 0 0 0v-.03c0 .02 0 0 0 0v.27h-.07c-.07 0 0-.14 0 0s0-.07 0 0c0-.09 0 0 0 0a.58.58 0 0 0 0-.09v.09c0 .07 0-.09 0 0v.09s0-.07 0 0c0-.09 0 0 0 0s0-.09 0 0 0 .07 0 0c0 .12 0 0 0 0 0 .09 0 0 0 0s0-.11 0 0h-.06s0 .07 0 0 0 .07 0 0v.07c0 .07 0 0 0 0s0 .07 0 0 0 .09 0 0a1.27 1.27 0 0 0 0-.14V58c-.23-.14-.23-.23-.23-.41zm5.22.3zm0 0s-.04 0-.04-.03zm-.45-.23a.46.46 0 0 0 0 .07s-.04-.07-.04-.1zm-.46.25v.07l-.04-.09zm-.51-.14s-.03-.02-.04-.02zm0 0zm0 0zm-.11.23v.07zm0 0zm0 0zm0 0c0 .09 0 0 0 0h-.16zm-.05 0v.07zm-.45-1s-.16-.1-.16-.07zm0 .09v-.07l-.18-.02zm-.09-.07v-.07c0-.07 0 0 0 0s-.19-.09-.19 0zm0 0s0-.07 0 0zm-.13-.11v.07s0 .07.06-.09 0-.07 0 .09 0-.11 0 0v-.09s0 .07 0 0 0-.07 0 0-.28-.1-.27-.06zm0 .07c0 .07 0 0 0 0s-.24-.17-.24-.08zm-.17 1s-.24-.14-.24-.12zm-.18-.71s-.24-.14-.24-.12zm-.37 1.26s-.25-.1-.25-.12zm-.2-1s-.24-.08-.24-.1zm-.18 1zm0 0s-.25-.16-.25-.12zm0 0zm0 0c0 .07 0 0 0 0v-.07c0 .07 0 0 0 0s-.29-.05-.3-.03zm-.12-.55s0 .09 0 0v-.07a.27.27 0 0 0-.3-.02zm0 0s-.31-.09-.31-.07zm0 0zm-.11.66s-.35-.09-.34-.11zm.05-.46s-.34-.07-.34-.11zm0-.16zm0-.18s-.34-.14-.35-.11zm0 0s-.35-.14-.36-.14zm0 .18v-.18c0-.02 0 0 0 0zm0 .27zm0 0l-.38-.15zm0 0l-.39-.15zm0 .39zm0-.37s-.41-.17-.41-.15zm0 .39a.45.45 0 0 0 0 .07zm0 0s-.44-.15-.44-.13zm0 0zm0-.18a.46.46 0 0 0 0 .07s-.5-.2-.5-.22zm0 0v.07-.09c0-.07 0 0 0 0zm0 .07zm0 0zm-.68-.59zm0 0h-.01zm0 0h-.02zm0-.16zm0 .16zm0 0v-.07l-.08.07zm0 0v-.07zm0 0v-.02c0-.09-.14.02-.14.02zm0 0v-.09c0-.02 0 0 0 0a.42.42 0 0 0-.16.18zm0-.07l-.16.07zm0 0zm0 0l-.19.07zm0 0a.24.24 0 0 0-.23.07zm0 0zm0 0zm0 .43zm-.16.07zm-.47-.43zm0 0zm0 .07V58s-.05 0-.05.09zm0 0zm0 0c0 .09 0 0 0 0l-.11-.07zm0 0V58s0 .09 0 0zm0-.23zm4.56.05zm-.37.34l-.06-.07a.06.06 0 0 0-.06 0s0 .11 0 0h.08s.04.09.04.07zm-3.3.77s0-.09 0 0c0-.09 0 0 0 0zm2.25-.7s0 .09 0 0zm1.12-.05h-.05v-.07s.03.07.05.07zm-.41-.25v.07c0-.09 0 0 0 0zm.16.09s-.01 0 0 0zm-3.85-.16v-.07zm2.01 0zm.99.37c0 .07 0 0 0 0-.01-.07 0 .02 0 0zm-.08-.05zM12 59c0 .07 0 0 0 0zm3.63-.66s0-.09 0 0zm-3.47-.61zm.14 1.21zm-.3-.23v-.07c0-.07 0 0 0 0v.07zm2.54-.37s-.01-.04 0 0zm-2.22.51zm2.91-.85v.11c0-.09 0 .09 0 0V58zm-3.23.62zm3.6-.32a.45.45 0 0 1 0 .07v-.07zm.05.02s0 .02 0 0zm-1.31-.14zm.98-.07zm-3.25.89zm1.35-1v.07-.09.02zm1.83.09v-.07zm-.04-.09zm-3.35-.25zm-.2.07v-.05.05zm-.11.07s0 .02 0 0zm1.13.64v.02-.05.03zM12 59zm0 0zm2.76-.86zm-2.54.8zm3.36-.67v-.07zm-.02 0s0 .03 0 0zm-2.74.21zm2.73-.18zm-3.14-.74zm2.53.51s0 .02 0 0zm.23 0zM15.1 58zm-2.05.39s0-.02 0 0zm.04-.12zm-.02 0zm-1.63-.34zm.67 0v-.07zm.06-.07zm-.22-.02zm1.48.16zm-.02 0zm-1.2-.27zm2.2.27zm1.23.32zm-3.56.68v.07zm.11 0zm.11-.09zm-.04-.02a.49.49 0 0 1 0 .07zm-.01 0s0 .02 0 0zm.05-.02zm-.3-.21zm0-.09z"/></g></g></svg>