<svg xmlns="http://www.w3.org/2000/svg" viewBox="0 0 123.76 148.51"><defs><style>.cls-1{fill:#58595b}</style></defs><title>weather__thunderstorm</title><g id="Layer_2" data-name="Layer 2"><g id="General_Content" data-name="General Content"><path class="cls-1" d="M35.07 9.21c-.07.07-.07-.04 0 0z"/><path class="cls-1" d="M100.55 86.8c6.7-5.37 14.07-8.78 17.51-17.28a27.31 27.31 0 0 0-2.89-26.32c-4.91-6.89-13.53-10.14-21.73-10.33-4.53-.1-3.35 0-4.38-4.24-.18-.72-6.9-15.93-7.91-15 .5-.46 1.22 1.58 1.62 1.25.71-1.48-7.71-7.27-9.29-8.12a39.18 39.18 0 0 0-8.41-3.19 1.46 1.46 0 0 1 .58.31c-2.72.72-8.09-1-11.29-.61a35.71 35.71 0 0 0-12.14 3.2 33.49 33.49 0 0 0-14.9 15.14 35.15 35.15 0 0 0-3.22 9.78c-.19 1.16.27 7.32-.48 8.12-.55.59-2.13.07-2.73.3-3 1.13-5.87 2-8.52 3.93A24.12 24.12 0 0 0 4.19 54c.24-.57.28-1.34.6-1.94C3.23 55 3.16 60.17 2.08 62c0 0 .56 2.23.22 2.25a8.67 8.67 0 0 1-.3-1.69c-3.1 0 6.55 18.76 7.13 17.65-1 1-6.37-9.23-6.65-10.11 2.93 9.15 10.15 14.21 18.66 17.33-6 0-11.6-5.67-15.5-9.5-.18 1.32 3.84 3.65 4.38 4.83A26.24 26.24 0 0 1 .14 63.37c0-.6 3.63-17.61 5.2-16.44a4.1 4.1 0 0 1-1 1.14 25.63 25.63 0 0 1 12.4-9.87c3.63-1.36 3.35-.6 4.06-4.2 2.64-13.51 7.81-24.34 21-30.45a35.41 35.41 0 0 1 28.94-.83 36.2 36.2 0 0 1 9.69 6.1c.32.28 10.46 11.71 9 12.39a1 1 0 0 1-.4-.43c.24.5.36 1.09.56 1.6-.07-.19-1-1.45-.67-1.18.91 1.87 1.91 8.65 3.14 9.52.46.32 4.86-.25 5.76-.16 4.51.44 8.52 4.08 12.59 4.47a.6.6 0 0 0-.26-.43c15.62 7.53 17.45 30.94 7.45 43.46.78-1 1.68-2 2.38-3-1.51 3.33-9.52 13.75-13.95 12.66a2 2 0 0 0 1-.45c-.74 0-9.63 1.44-8.31 0a6.65 6.65 0 0 1 1.9-.49c.12-.13-2.12.42-.07.02zM2.24 70.89zM1 65.5c-.05-.08.4 0 0 0 0 .11 0 .11 0 0zm.32 2.5zm.36 1.08c-.16-.7-.25 1.07 0 0-.03-.14-.03.09 0-.03zm0-4.73a12.61 12.61 0 0 0 .85 4.29 26.21 26.21 0 0 1-.86-4.32zm-.1-2.42c-.33.56-.31 1 0 0-.07.07-.08.19-.01-.03zm1.38-5.05c0 .09-.38-.1 0 0-.04-.16.04-.14-.01-.03zm3.25-6.9c-.32.18-.69.93 0 0zM23.54 33c0 .11 0 .44 0 0zM22 32.44c0 .21.09.3 0 0zm2.75-4c-.05.21-.19.19 0 0 .01.1-.05.09.04.01zm1.06-3.83c-.36 1 0 0 0 0s.08.03.03.01zm-1.61-1c0 .1-.37-.14 0 0 .02-.07.07-.05.03.05zm1.16-.94zm1.11-3.84c.35.05.07 0 0 0zm-1.07 2.06c-.5-.24 0 1 0 0-.03.02.03.16.02.04zm.95-.39s-.93 1.2 0 0zm.2-.14zm.14-.42c-.3.21-.45.93 0 0-.08.12-.08.25.02.06zm-.43-.86zm.83 0zm.17-.4zM39.72 5.91s.57 0 0 0zm-7 4.94c0-.07.29.3 0 0-.02.15-.06.15-.02.01zm-4.53 5.55c.11-.3.08-.49 0 0zM27.12 18s-.7.43 0 0c-.05-.07-.12 0 0 0zm9-7.65a9.81 9.81 0 0 0-.8.67c.19-.24.54-.54.77-.71zm.46-.27c-.31-.2 0-.06 0 0zM43 6c-.64 0-.91.44 0 0-.1 0-.07 0 0 0zm.24-1.58c-2.79 1.35-6 3.41-8.2 4.62-.12.31-.9 1.64-1.29 1.2v.12c.08-.07.08-.07 0-.12-.36.71-6.78 7.66-6.05 8.11 2.51-2.83 4.15-5.88 7.16-8.34C36 9 42.09 3.92 43.25 4.39c-.1.05.15.06 0 0zm4.63-3c-.08.07-.1-.4 0 0zM57.33 0zm6 2.61q-.1-.17-.22 0a.55.55 0 0 0 .2.02zm3 1.52c-.09 0 .11-.38 0 0 .13 0 .12.05.02.02zm5.79 2.29c-.5-.25-1-.49-1.52-.73.46.21 1.09.52 1.54.75zm6.28 2.22c-.1 0 .25-.32 0 0 .14.04.11.09.02.02zm5.41 8.21c-.06 0 .33-.24 0 0 .19.04.13.08.02.02zm2.28-1.35c-.09 0 .33-.23 0 0 .14.08.09.11.02.02zm-.37 3.88a15 15 0 0 1-1.08-1.69c.11.19.81 1.85 1.08 1.69.18.06-.02.05.02.02zm.64.86c-.47-1.05-.78-.21 0 0-.02-.08-.13-.02.02.02zm2.37-.63a.85.85 0 0 0-.56-.73 1 1 0 0 0 .56.73c-.08-.19-.18-.14.03.02zm-2.23 1.54c0-.36-.45-1.07 0 0zm2.15-.84c-.07 0 .37-.19 0 0 .15.05.1.08 0 .01zM88 23.95a7.19 7.19 0 0 0-1.32-2.41c.11 1.33.69 1.58 1.32 2.41zm.79 2.63c.28-.21.07 0 0 0zm.61 2.24a.6.6 0 0 0-.35-.89c.06.29.28.58.35.89.04-.11-.02-.1 0 .01zm3.29 3.88c.48-.77-.4-.05 0 0zm.65.08a.64.64 0 0 0-.33 0 .64.64 0 0 1 .34.01zm1.89-.15c-.54-.33-1-.05 0 0-.09-.06-.23-.01.01 0zm3.41.43q-.42-.59-.9-.37c0 .29.75.35.9.37-.28-.16-.09-.06.01.01zm.72.11c0-.15-.87-.13 0 0 .02-.05-.09-.01.01 0zm.25-.2c-.08 0 .07-.39 0 0 .12-.03.11.03.01.03zm12 2.89c-.1 0 .24-.34 0 0 .09.03.06.07-.04.01zm3.54 3s-1.18-1.75-1.5-1.38a2.1 2.1 0 0 0 1.5 1.38c.13.01.08.05-.03.01zm.38.42c-.1 0 .3-.29 0 0zm1.22 1.34zm1.36 1.67zM116.65 79c.88-.33.32-1 0 0 .13-.09.04-.16 0 0zm-.6.71c.16-.17.29-.1 0 0 .09-.13.13-.09.01-.04zm-2.81 3.15c.33-.23 2.83-2.3 2.45-2.68a19.74 19.74 0 0 0-2.45 2.68c.11-.12.07-.17.01-.05zm-1 .77c.54-.4.12.34.89-.58q-.57-.28-.89.58zm-1.56 1.27c.08.12 1.49-1 1.66-1.13a6 6 0 0 0-1.66 1.13c.14.19.15-.22-.02-.05zm-1.28.85z"/><path class="cls-1" d="M7.68 77.61c-.49-1.26.88.53 1 .85a1 1 0 0 1-1-.85c-.08-.21.02.11 0 0zm74.57-62.97c-.3.25-.78-.22-1-.64a1.75 1.75 0 0 1 1 .64s-.17-.27 0 0zM6 75.41c-.79-1.26 1.08.68.73.92L6 75.41c-.12-.18.27.33 0 0zm-.74 2.51c-.39.28-.95-1.31-1-1.28.16-.1.9 1.16 1 1.28zM.38 64.86c-.32.73-.52-1-.22-1zm2.88 9.95c-.21-.41-.52-.63-.59-1.14.18.33.41.81.59 1.14zM3 67.4c.07.13.53 1.39.26 1.47-.12-.25-.47-1.27-.26-1.47.06.2-.19.14 0 0z"/><path class="cls-1" d="M5.43 74.38c0-1.13 1 1.77 0 0 0-.12.2.38 0 0zm86.23-45.33l-.17-.92a2.39 2.39 0 0 1 .17.92zM38.62 9c.48-.29-.31 0 0 0 .09-.06-.12 0 0 0zM2.48 73.51c.21.3-.21-1.28 0 0zm2.26-.57c.45 0 .09.18 0 0zm.39.88c-.11 0 .24.47 0 0zm5.37 6.66c.22.09.11.34 0 0zM.18 63.14c0 .8-.43-.79 0 0 .01.12-.06-.14 0 0zM77.56 10.1c-.14.18-.4-.32 0 0-.04.05-.09-.1 0 0zm-2.28-1.52c.27 0 .23.15 0 0zM3.41 55.42c.16-.48.21.07 0 0zM4.6 72.65c-.19-.46.21-.1 0 0zm-.9-2.49c.06-.31.25.78 0 0zM122.9 51.1c0 .16-.19.05 0 0-.02.13-.05.01 0 0zM49.45.58c.14 0 0 .21 0 0 .12.03.01.06 0 0zM.16 61.51c.24.58-.42 0 0 0zm.09-.93c-.22 0 0-.56 0 0-.05 0 .01-.11 0 0zM76.14 9c-.13.18-.42-.28 0 0-.04.06-.14-.05 0 0zm1.04.72c-.11.13-.13 0 0 0zM37.75 7.51c-.11 0-.15-.22 0 0-.12.01-.03-.04 0 0zm-4.08 3.25c-.11 0-.18-.2 0 0-.13.03-.04-.05 0 0zm60.8 129.56s.05.04 0 0zm-14.4-48.39c1.5 6.46-7.95 18.67-10.9 24.15a43 43 0 0 0-3.85 9.49 14.56 14.56 0 0 0 .22 9.62c.15.37 4.52 7.2 4.91 6.72-.44.55-.7-.75-1-.38-1 1.86 9.2 4.33 10 4.37a.54.54 0 0 1-.32-.19c.34-.31 4-.33 4.84-.56a19.49 19.49 0 0 0 5.52-2.4 16.46 16.46 0 0 0 6.43-8.46c2.54-7.49-1.34-16.12-4.72-22.74.13.25.56.6.7.9-.35-.72-2.54-6.52-3.1-6.21a4.07 4.07 0 0 1 .65.72c.49-.26-5.48-9-5-9.37.2-.12 3.38 5 3.64 5.47-2.28-4-5.19-8.24-7-12.29 2.15 1.42 3.59 6.09 5.39 8.07.22-.35-1.74-2.31-1.59-3 1.24 2 10.52 17.65 10.06 17.87-.14-.32-.28-.45-.18-.77 5.35 11 8.32 24.12-3.61 32.12a18.24 18.24 0 0 1-14.75 3c-2-.43-13.51-7.65-11.81-8.72a.41.41 0 0 1 .31.17c-.15-.25-.19-.64-.34-.88 0 0 .93.69.48.57-7.65-12.56 1.93-28.11 8.45-39.33-.32.55-.8 1.05-1.12 1.62.22-1 3.17-8.59 4.26-8.66a.6.6 0 0 0-.22.48c-.39.1 4.39-3.67 4.09-2.25l-.44.87c.04.16.58-.93 0 0zm8.2 10.59zm1.46 2.48s-.33.18 0 0c-.08 0-.03 0 0 0zm-.58-1.17zm-.39-.46c.15.27.15-.58 0 0 .03.08.02-.05 0 .03zm.54 2.54a6.64 6.64 0 0 0-1.29-2c.39.72.93 1.35 1.3 2.02zM90 107c.08-.26 0-.58 0 0 0 0 0-.08 0 0zm.71 2.82s.33-.17 0 0c.05.08 0 .11-.03.05zm1.63 3.92c.06-.18-.22-.63 0 0zm4.54 12.9c0-.05 0-.21 0 0zm1.56-.07c0-.15-.11-.08 0 0zm-1.71 2.47c0-.13.08-.07 0 0s.03-.04-.02.05zm0 2c.08-.52 0 0 0 0s-.07.06-.01.07zm1.8.39s.37 0 0 0c.03.13-.02.13-.01.07zm-.84.58zm.26 2.22c-.37 0-.07 0 0 0zm.31-1.21c.5.11-.31-.52 0 0 .04.08-.05-.02-.01.07zm-.77.24c.21-.14.43-.59 0 0zm-.14.08zm0 .23c.24-.13.13-.48 0 0 .06.04.01-.03-.01.08zm.7.5zm-.72 0zm0 .24zm-4.88 8.19s-.3 0 0 0zm3.23-3.32s-.27-.18 0 0c-.07 0-.03.03-.01.11zm1.64-3.51c0 .09.17.39 0 0zm.4-.93s.39-.2 0 0c.04.13.06.08-.01.11zm-4.43 4.58zm-.22.17c.32.19.06 0 0 0zm-2.79 2.76c.32.07.46-.34 0 0 .07.13.04.08 0 .11zm.41 1.34c1.38-1 3-2.48 3.89-3.23 0-.28.07-1.12.52-.79v-.08.08c.18-.56 2.34-4.92 2-5-.74.92-4.81 9.91-6.37 9.07 0 .03-.16.01-.04.07zm-1.82 2.64s.16.35 0 0zm-5 1.83zm-3.52-1.73c.15 0 .09-.08 0 0zm-1.68-.85s0 .36 0 0c-.04.17-.03.11.02.12zm-3.13-.48zm-3.76 0s-.18.33 0 0c-.08 0-.05 0 0 0zm-2.94-4.53s-.25.24 0 0c-.13.04-.09 0-.01 0zm-2 1.73s-.27.26 0 0c-.09 0-.05-.04-.01 0zm.76-2.81c-.11 0 .66.71.71.76-.09-.1-.5-.92-.71-.76s.04-.03-.01 0zm-.42-.37c.39.52.5-.09 0 0 .02.04.12-.02-.01-.02zM65 140.18c.34.46.75.16 0 0 .11.11.2.04 0 0zm2.11-1.68c0 .16.31.55 0 0zm-2 1.21c-.11.01-.01-.02.07 0zm.91-2.48a2.85 2.85 0 0 0 .93 1.09c.11-1.09-.42-.63-.86-1.09zm-.53-1.33c-.3.21-.06 0 0 0zm-.44-1.12c0 .06.32.87 0 0 .03.08.09.06.07.01zm-.58-2.21c-.56-.3-.12.45 0 0-.01-.03.04.13.07.01zm.08-.24v.12c0 .06.01-.04.06-.11zm-.25-.89c-.2.24.09.59 0 0 .01.07.08.12.06.01zm0-1.79c-.45.69 0 .51 0 0-.08.18.03.07.03.01zm0-.38c-.18 0 0 .46 0 0-.05.02.01.07.01.02zm-.23-.11s-.37 0 0 0c-.07-.03.02-.03.01.02zm-.76-6.73s-.36-.12 0 0c-.02-.06.03-.04.01.02zm.84-2.31c-.07-.08-.79.86-.39 1q.56-.21.39-1c-.08-.12-.02-.06.01.02zm.11-.28s-.35-.14 0 0zm.35-.89zm.39-1.05zm8.94-18.53c-.65.18.14.6 0 0-.08.01.06.07 0-.01zm.19-.44c-.07.12-.13 0 0 0-.03.07-.13.01 0-.01zm.75-2.05c-.15.25-1 1.53-.65 1.76s.68-1.61.65-1.76c-.03.04.02.12 0-.01zm.34-.56zm.37-.95c-.1-.06-.45.74-.52.86a1.25 1.25 0 0 0 .52-.86c-.25-.16-.02.12-.01-.01zm.35-.69z"/><path class="cls-1" d="M84.63 99.3c.05.86-.22-.27-.46-.34-.23-.38.59-.14.46.34 0 .14.02-.08 0 0zm-14.86 42.23c.8-.9.65 1.18 0 0 .04-.04.08.15 0 0zm15.73-40.96c.55.94-1.47-1.55 0 0 .06.1-.17-.18 0 0zm1.29-1.79c.07 0 1.26 1.5 0 0zm3.57 6.32c0-.16 1 .6 0 0zm-2.57-4.7c.39.67.34.56 0 0zm-.09 4.4c-1.36-1 .63-.69 0 0-.11-.08.13-.14 0 0z"/><path class="cls-1" d="M85.78 101.15c-.2.8-.54-.94 0 0-.02.08-.12-.15 0 0zm-22.86 33.97c.19.68.17.48 0 0zM92 140.2c0 .05-.14 0 0 0-.05.04.06 0 0 0zM88.27 101c.1.07 0 .37 0 0zm-2.1.95c-.47.14 0-.07 0 0zm-.17-.49c-.13 0-.1-.18 0 0zm-2.57-4.04c-.27-.09 0-.1 0 0zm7.45 8.4c-.2-.37.53.17 0 0-.03-.05.12.03 0 0zM72.5 143.5c.12-.22.19.12 0 0 .03-.05.05.02 0 0zm1.31.5c-.11 0-.16-.07 0 0zM91 110.63c.11.22-.21.11 0 0zm-4.75-8.53c.12.21-.22.12 0 0zm.68 1.31c-.08.29-.23-.4 0 0zm-20.18 9.51c.12 0 .16.08 0 0 .08-.03.05.03 0 0zm21.42 34.21c-.13 0-.07-.17 0 0-.08-.03-.02-.06 0 0zm3.16-40.6c-.3-.11.39-.21 0 0zm.17.47c.21-.11.12.22 0 0 .05 0 .03 0 0 0zm-18.18 36.93c.11-.22.21.1 0 0 .02-.05.05.07 0 0zm-.62-.24c.08-.13.11 0 0 0zm20.48-2.25c.07 0 .2.19 0 0 .08 0 .04.04 0 0zM95 139.3c.08 0 .21.15 0 0 0-.01 0 .03 0 0zm-30.48-47s-.04-.03 0 0zm-8.67-37.78c1.55 5.16-5.68 14.48-8.5 18.56-1.76 2.55-4.07 7.55-6 9.18 1.31 0 12.83.23 12.82.33 0 .65-1-.11-1 .38s9.64.27 10.42.28a.52.52 0 0 1-.31-.18c.41-.44 5.16-.27 6-.1 3.23.61 3.34-.63 1.15 3.15-1.82 3.13-4 6.19-5.91 9.07-4.7 7.13-9.83 13.57-14.5 20.63.12-.19.2-.72.35-.95-.4.6-4 4.71-3.46 5a2.87 2.87 0 0 1 .26-.82c-.37-.24-4.8 7.9-5.38 7.63a50 50 0 0 1 2.83-5c-2.19 3.34-4.44 7.44-7.06 10.19.17-2.06 3.46-5.35 4.3-7.35-.31 0-1.09 2.27-1.77 2.37 1.2-1.81 9.46-15.2 9.61-15.1-.18.27-.21.42-.52.47 2.41-3.68 18.6-25.63 17.88-26.43-.38-.42-18.21.12-18.19-.69 0-.25.29-.33-.51-.35 0 0 .92-.41.62-.1-3.67-.08-8.75-1-12.32-.15-.09-.06 2.14-3 1.94-3.42a.76.76 0 0 0-.42.24C41.34 74.34 46 67.72 49.9 61.35c-.29.47-.74.89-1 1.37.17-.85 2.85-7.57 3.72-7.57a.49.49 0 0 0-.19.43c-.53.09 5.16-3.86 3.46-1.05.01.14.48-.85-.04-.01zm-11.7 67.2zm1.35-2.15s.3.2 0 0c.02.08-.03.05 0 0zm-.68.92zm-.19.5c.14-.22-.54.08 0 0 .03-.04-.07.01 0 .01zm1.82-1.41a5.52 5.52 0 0 0-1 1.83c.39-.58.64-1.25 1.01-1.83zm.58-1c-.23 0-.45.23 0 0-.03.03-.1.07-.03.02zM49 116.9s-.3-.2 0 0c0-.08 0-.05 0 0zm2.3-3c-.17 0-.39.44 0 0zm7.05-10.07zm-1.18-1c-.07.12 0 .11 0 0zm2.85-.67c-.07.11-.12 0 0 0s-.09.02-.02.01zm1-1.71c-.28.42 0 0 0 0s-.02.05-.02.02zm-1.45-1.14s-.3-.2 0 0c-.04-.06 0-.03-.02.01zm1-.11zm.4-2c.34.15.06 0 0 0zm-.6.91c-.42-.27.14.53 0 0-.1.02-.04.12-.05.05zm.77.07c-.27 0-.54.35 0 0zm.15 0zm.06-.2c-.27 0-.24.37 0 0-.12.02-.1.11-.04.02zm-.53-.66zm.69.2zm.06-.2zM65.91 90s.27 0 0 0zm-2.41 3.23s.26.17 0 0c.06.11.02.07 0 0zm-1.71 2.91s-.11-.41 0 0zm-.53.7s-.37.06 0 0c-.06-.03-.09.02-.01 0zm4.55-3.77zm.19-.18c-.06-.03 0-.04 0 0zm2-3.22c-.32 0-.3.46 0 0-.1.01 0 .04 0 0zm-.87-1.08a24 24 0 0 1-2.7 3.57c.06.26 0 1-.41.73L64 93v-.08c-.12.57-2.27 4.28-2.18 4.34 1.14-.83 4.72-8.7 5.29-8.64-.03.01.13-.02 0-.04zm-.4-1.89c-.12 0-.42.08 0 0zm-.73-.86zm-1.43-2c.14 0 .08-.08 0 0zM63 83s0 .36 0 0c-.1.07-.1 0 0 0zm-3.06 0zm-3.14 1.48s0 .36 0 0c-.1.06-.1.01-.05.01zm-4.63-1.88s0 .33 0 0c-.1.12-.1.06-.05.01zM52 85.25s0 .36 0 0c-.09.05-.09 0 0 0zm-1.4-2.44c0 .1.92 0 1 0-.13 0-1-.26-1 0-.09.11-.04-.06-.04 0zm-.52.1c.62 0 .21-.45 0 0 .01 0 .01-.11-.08 0zm-.31 2.41c.5 0 .47-.49 0 0 .06 0 .07-.12-.04-.01zm-.1-2.7c.11.13.59.09 0 0zm-.15 2.29s0 .32 0 0c-.09.09-.09.09-.04 0zm-1.41-2.1a2.6 2.6 0 0 0 1.35-.2c-.92-.61-.79.07-1.39.2zm-1.35-.14c.05.36 0 .07 0 0zm-1.14 0s.89 0 0 0c.01.03.02-.03-.04-.03zm-2.18-.11c-.06.53.15.09 0 0zm-.2-.12c.05.06.05.06.1.06s-.09-.02-.14-.08zm-.65.1c0 .19.31 0 0 0-.02.04.01-.02-.04-.02zm-.71-.13c-.13.53.28 0 0 0-.07.09-.02-.02-.04-.02zm-.16 0c-.23.23.31 0 0 0-.09.03-.01-.03-.03-.03zm-.28.23c-.31.2-.15.14 0 0-.11.02-.05-.03-.03-.03zm-2.26-2.22c0 .07-.43-.1 0 0-.05-.1.01-.09-.03-.03zm1.25-2.06Q40 78 39.8 79c.44.39.22-.27.61-.66-.08-.11-.03-.08-.01-.01zm.13-.22s-.32-.19 0 0zm.44-.74zm.46-.87zm8.84-15.61c-.63.11.16.55 0 0-.08.01.02.08 0 0zm.17-.39c-.07.11-.11 0 0 0s-.08.02-.01 0zm.63-1.8c-.14.24-.92 1.32-.54 1.55s.58-1.41.54-1.55c-.04.04.01.07-.01 0zm.3-.49zm.31-.84c-.1-.06-.39.64-.46.75a1 1 0 0 0 .46-.75c-.26-.15-.02.12-.02 0zm.3-.61zM43.22 126c.69-.35-.12.28-.07.51-.22.33-.4-.45.07-.51.11-.1-.08 0 0 0z"/><path class="cls-1" d="M53.47 82.75c0-1.23 1.22.49 0 0 0-.06.15.07 0 0zm-9.61 42.02c.54-.81-.6 1.81 0 0 .06-.09-.06.23 0 0zm-2.1-.46c-.07 0 .64-1.57 0 0zm3.48-5.31c-.11 0-.08-1.15 0 0zm-2.62 3.89c.37-.57.3-.48 0 0zm3.7-1.53c-.12 1.5-.87-.26 0 0-.01.12-.17-.06 0 0z"/><path class="cls-1" d="M44.22 124.32c.77-.12-.52.79 0 0 .08-.01-.11.18 0 0zm.95-39.51c.66.1.36 0 0 0zM67 92.16c0-.06.14 0 0 0 0-.05-.12.01 0 0zm-24.1 30.11c0-.15.25-.14 0 0zm1.8 1.43c.35.34 0 .06 0 0zm-.3.36c.07.14-.09.14 0 0zm-2.22 3.58c.05.28-.08 0 0 0zm3.39-9.32c-.2.3-.13-.49 0 0-.02.04-.02-.08 0 0zm11.11-35.5c0-.25.22 0 0 0 0-.06.06 0 0 0zm1.32-.09c-.08.09-.16 0 0 0zm-8.57 33.6c.12-.18.2.14 0 0zm-4.64 7.24c.12-.18.22.14 0 0zm.76-1.04c.3 0-.22.33 0 0zM43.4 72.39c.13 0 .15.09 0 0 .08-.02.05.03 0 0zm22.93 14.14c.37-.18.12 0 0 0 .1-.04.09-.03 0 0zm-20.4 31.15c.07.28-.38-.25 0 0zm.27-.32c-.2-.13.12-.18 0 0-.04-.03.03-.04 0 0zm11.36-34.52c0-.25.22 0 0 0 0-.06.06 0 0 0zm-.62.05c0-.15.09-.1 0 0zm8.61 8.28c-.07 0-.22-.14 0 0-.08.01-.05-.03 0 0zm-1.37 2.07c-.08 0-.22-.14 0 0-.08.02-.05-.03 0 0z"/></g></g></svg>