<svg xmlns="http://www.w3.org/2000/svg" viewBox="0 0 124.15 116.92"><defs><style>.cls-1{fill:#58595b}</style></defs><title>weather__snow</title><g id="Layer_2" data-name="Layer 2"><g id="General_Content" data-name="General Content"><path class="cls-1" d="M31.46 12.7c-.07.07-.04-.04 0 0z"/><path class="cls-1" d="M112 81.45c3.06-7.63 8.43-13.21 8.18-22A27.38 27.38 0 0 0 108.06 37a23.83 23.83 0 0 0-8.59-3.25c-1.52-.3-8.74.38-9.68-.45s-2.67-10.5-3.5-12.08C86 20.58 76.44 8 75.71 9c.41-.6 1.47 1.19 1.77.81.95-3.62-16.65-7-18.68-7.13a1.35 1.35 0 0 1 .6.2c-2.24 1.12-7.85.58-10.66 1.4a35 35 0 0 0-10.29 4.56 33.24 33.24 0 0 0-12.23 15.25 37.05 37.05 0 0 0-2.28 9.23c-.65 5.47 1.06 5.68-4.22 7.14A23.94 23.94 0 0 0 3.54 56c.18-.55.15-1.3.39-1.89-1.13 2.73-1 8-1.83 9.64 0 0 .68 2.07.36 2.12a9 9 0 0 1-.39-1.6c-2.84.18 7.08 17.44 7.56 16.49-.9 1-6.42-8.56-6.75-9.35 3.59 8.59 10 13 18.25 16.09-5.68.06-11.06-5.32-14.95-8.77-.18 1.46 3.68 3.07 4.3 4.49C4.88 78.7 1 72.46.22 65.16c-.06-.59 2.14-16.93 3.66-16A3.66 3.66 0 0 1 3 50.32a26.22 26.22 0 0 1 10.75-10.64c1.67-.89 5.07-1.2 6.16-2.41.73-.81.36-.69.81-1.9.62-1.67.33-4.35.76-6.16a39.82 39.82 0 0 1 3.3-9.31A33.89 33.89 0 0 1 36.91 6.35 35.32 35.32 0 0 1 63.3.55 35.71 35.71 0 0 1 74 4.5c.68.37 12.32 8.71 11.1 9.66a1 1 0 0 1-.46-.32 14.57 14.57 0 0 1 .82 1.39c-.08-.11-1.43-1.23-.85-1A40.56 40.56 0 0 1 90.87 26c.39 1.24.62 4.2 1.36 4.71s8.7.65 9.15.55a.59.59 0 0 0-.37-.33c15.89 1.52 26.38 21.8 22.25 36.18a30.43 30.43 0 0 0 .89-3.54c0 3.44-2.78 15.79-7 16.52a1.87 1.87 0 0 0 .63-.8c-1.11.46-1.89 2.06-3.07 2.76-.45.26-4.46 1-4 .53l1.29-1.13c.12-.23-1.56 1.19 0 0zM2.7 72.17zm-1.51-5c-.06-.08.4-.07 0 0 .06.06.01.07-.01-.04zm.46 2.33zm.43 1c-.2-.64-.18 1 0 0-.08-.15-.02.07 0-.04zM1.84 66a11.56 11.56 0 0 0 1.05 4 25.26 25.26 0 0 1-1.05-4zm-.25-2.29c-.27.54-.22.94 0 0-.06.07-.05.17-.01-.04zm1-4.89c0 .08-.38-.06 0 0-.07-.15-.01-.14-.03-.04zM5.09 52c-.28.18-.58.95 0 0zM23.4 36.84c0 .15 0 .7 0 0zm-1.56-.67c0 .19.13.26 0 0zm2.29-4c0 .21-.16.19 0 0-.02.05-.08.05 0-.04zm.58-3.73c-.25 1 0 0 0 0s.05-.03 0-.04zM23 27.65c0 .09-.39-.1 0 0 0-.11 0-.09 0 0zm1-1zm.53-3.78c.36 0 .06 0 0 0zm-.76 2.07c-.53-.18.15 1 0 0-.03-.02.04.11.03 0zm.9-.46s-.78 1.22 0 0zm.18-.15zm.09-.4c-.28.23-.33.92 0 0-.07.07-.05.19.06-.01zm-.57-.78zm.78-.13zm.11-.4zm10.1-13.69s.54-.09 0 0zm-5.94 5.6c0-.06.31.24 0 0 .03.15-.02.12 0 0zm-3.55 5.82c0-.29 0-.5 0 0zM25 21.93s-.63.47 0 0c0-.02-.05.07 0 0zm7.58-8.29l-.67.74.67-.74zm.38-.33c-.33-.15-.05-.05 0 0zm5.5-4.76c-.57 0-.85.51 0 0-.08 0-.05.05.04 0zm0-1.53a72.39 72.39 0 0 0-7.06 5.48c-.07.32-.63 1.67-1.08 1.28v.12c.07-.08.07-.08 0-.12-.19.67-5.3 8.14-4.65 8.43 2.11-2.85 3.29-6 5.71-8.75.91-1 6-6.76 7.09-6.45-.09.06.16.05 0-.01zm3.85-3.62c-.05.08-.17-.37 0 0zM50.94.6zm6 1.5c-.21 0-.24.11 0 0zm3.16.9c-.09 0 0-.4 0 0 .1 0 .1 0 0 0zm5.83 1l-1.57-.37zm6.31.77c-.09 0 .17-.35 0 0 .12.03.1.09.01.04zm6.65 6.62c-.07 0 .28-.31 0 0 .11.02.11.06 0 .03zm1.92-1.79c-.09 0 .27-.3 0 0 .11.03.08.07 0 0zm.4 3.76c-.08 0-1.23-1.14-1.4-1.3.15.14 1.2 1.49 1.4 1.3.15 0-.04.04 0 0zM82 14c-.76-.88-.67 0 0 0-.11 0-.19 0 0 0zm2.16-1.19a.81.81 0 0 0-.7-.54.79.79 0 0 0 .7.54c-.16-.12-.27-.05-.04.04zm-1.85 2c-.06-.32-.69-.89 0 0zm1.9-1.32c-.06 0 .31-.25 0 0 .12.03.07.07-.04.03zm.12 3.57a7.53 7.53 0 0 0-1.75-1.95c.34 1.45.98 1.25 1.71 1.97zm1.31 2.26c.23-.27.06 0 0 0zm1.06 1.94a.57.57 0 0 0-.5-.76c.1.28.36.47.5.76-.03-.09-.08-.06-.04.03zm1.6 3.89c.61-.09 0-.28 0 0zm0 .41a.26.26 0 0 0 0-.2.26.26 0 0 1 0 .23zm.59 1.6c.15-.58-.27-.95 0 0 .03-.08-.06-.16 0 .03zm.73 3.84a1.41 1.41 0 0 0 0-1.48c-.3.07 0 1.29 0 1.48.02-.51-.03-.12 0 0zm.21 1.13c.23-.23-.23-1.23 0 0 .05-.02-.03-.13 0 .03zm.26.11c-.09-.11.42-.45 0 0 .07.14.02.19 0 .04zm12.64-.71c-.09 0 .11-.39 0 0 .12.01.1.07 0 .04zm4.12 1.58s-1.6-1.24-1.78-.77a2.08 2.08 0 0 0 1.78.77c.15-.02.15.03 0 .04zm.49.23c-.09 0 .18-.37 0 0zm1.53.8zm1.78 1zm12.15 33c.66-.67-.18-1 0 0 .09-.03-.02-.06 0 .06zm-.23.85c.07-.21.22-.2 0 0 .04.01.1.01 0 .06zm-1.19 3.83c.17-.34 1.58-3.1 1.06-3.29a18.66 18.66 0 0 0-1.06 3.29c.06-.03 0-.06.01.07zm-.57 1.18c.32-.57.26.31.53-.86q-.61 0-.53.86zm-.81 1.69c.12.08.88-1.46 1-1.64a4.71 4.71 0 0 0-1 1.64c.22.15.06-.22 0 0zm-.77 1.24z"/><path class="cls-1" d="M8.21 78.3c-.55-1.17.85.47.93.78a1 1 0 0 1-.93-.78c-.09-.19.02.11 0 0zM77 9.69c-.23.3-.77 0-1.09-.37a1.41 1.41 0 0 1 1.09.37s-.23-.25 0 0zM6.5 76.29c-.76-1.2 1.05.61.76.83l-.76-.83c-.11-.17.28.3 0 0zm-.67 2.46c-.37.29-1-1.2-1-1.17.17-.12.9 1.06 1 1.17zM.58 66.56c-.25.72-.61-.92-.3-1zm3.21 9.32c-.24-.38-.53-.58-.58-1.07.17.32.41.76.58 1.07zm-.53-7.07c.06.12.61 1.28.36 1.37-.13-.18-.56-1.18-.36-1.37.09.19-.16.19 0 0z"/><path class="cls-1" d="M6 75.32c0-1.06 1 1.61 0 0-.05-.12.17.34 0 0zM88.94 21l-.42-.86a2.66 2.66 0 0 1 .42.86zm-54.09-8.91c.38-.35-.29.06 0 0 .07-.09-.11.02 0 0zM3 74.67c.19.23-.27-1.15 0 0zM5.24 74c.45 0 .08.16 0 0zm.39.8c-.1 0 .27.43 0 0zM11 81c.26.08.11.29 0 0zM.26 64.94c0 .76-.43-.72 0 0 .01.11-.06-.11 0 0zM71.69 6.4c-.1.2-.42-.23 0 0-.03.05-.09-.05 0 0zm-2.43-.96c.24 0 .25.1 0 0zM2.9 57.4c.11-.47.22 0 0 0zm2.2 16.3c-.22-.42.21-.11 0 0zm-.99-2.31c0-.31.3.73 0 0zm113.8-30.01c0 .15-.15.12 0 0 .03.13-.04.04 0 0zM43.66 2.41c.15 0 .07.18 0 0 .12.02.02.06 0 0zM.14 63.4c.29.53-.42 0 0 0zm.03-.89c-.22 0 0-.53 0 0-.05 0 .01-.11 0 0zM70.14 5.7c-.09.21-.44-.19 0 0-.03.05-.14-.05 0 0zm1.12.42c-.07.14-.14 0 0 0zm-37.5 4.63c-.09 0-.19-.2 0 0-.11.02-.04-.05 0 0zm-3.45 3.56c-.11 0-.2-.16 0 0-.12.04-.05-.04 0 0zm34.16 47.82c4.4-.91 10.53 15.55 10.83 15.38-.58.34-.11-.36-.53-.11s2 2.9 1.83 3.38c.74 1.27 3 3.67 3.93 5.27 1.75 2.93 2.4 5.72 4.06 8.55a1.52 1.52 0 0 1-.38-.2c.38.67.78 1.45 1.09 2 0 0-.53-.13-.47 0 .2.34 1.86 2.87 1.58 3.06s-1.35-1.6-1.41-1.7c.18.29 2.17 4 2.22 4a.41.41 0 0 1-.3.14c.25 0-1.85-2.56-1.83-2.54s.68.72.41 1c-1-1.81-2.58-4.2-3.43-5.64a1.33 1.33 0 0 0-.18 0c.12.2.13.12 0 .3-1.56-2.7-9.7-18.06-9.44-18.12C70 72.87 67 69.48 64.8 65.78c.09.16.07.46.17.64-1.25-.35-1.89-2.33-1.97-2.42-1.2-.07 1-2.6 1.44-1.87.14-.03-.16-.32.03 0zm20.19 36zm-.53-.79c.11 0 .23-.13 0 0 .06-.05.01-.02 0-.04zm.16.4zm.2.11c0-.07-.25.28 0 0-.01-.06-.04 0 0-.05zm.24-1.08c.09.16.62.61.57.52s-.49-.41-.57-.56zm-.26-.34c-.12.14-.06.12 0 0-.05 0-.04.02-.01-.04zm.13-1.15c-.11 0-.23.13 0 0-.07-.03-.02-.06-.01-.04zm-.45-1.35c-.1.12 0 .17 0 0zm-2-4.12zm-1.38.71c0 .05.05 0 0 0zm1.33-1.69s-.05.06 0 0-.1.01-.01-.04zm-.47-.58c.09.16 0 0 0 0s.04-.06-.01-.04zm-1.63.84c-.11 0-.22.13 0 0-.06.01 0-.02 0 0zm.53-.58zm-1-.22s.01.02 0 0zm.2.35c-.36.21.3-.06 0 0-.04.03.07-.01.01 0zm.53-.46c-.2.23-.13.36 0 0zm.08-.09zm-.09 0c-.18.19.07.12 0 0-.03 0 .03-.01.01-.09zm-.74.32zm.55-.41zm-.09 0zm-2-2.55c.14-.08.08-.09 0 0zm.56 1.42c.24-.09.13-.08 0 0 .17-.13.12-.1.06-.09zm.78 1c.19 0-.49.1 0 0zm.11.31c-.13.08-.1.12 0 0s.03-.04.07-.09zm.43-2.69zm0-.11c.01-.05.06-.1.07-.09zm-.81-1.16c-.16.18.11.18 0 0 .03-.04.08-.07.07-.08zm-1.22.53a10.43 10.43 0 0 1 .8 1.82c-.06 0 1.43 1.24 1.4 1.26.11-.39-2-3.28-2.2-3.08.08-.06.18-.16.07-.08zm-1.65-.11c-.13 0-.22.13 0 0zm-1-1.28zm1.19-1.95c0 .05.05 0 0 0zm.34-.89c-.12 0-.22.13 0 0-.01-.07.04-.1.05-.08zm-.62-1zm-1.92-.22c-.14 0-.22.13 0 0-.02-.02.03-.05.04-.04zm.66-2.4c-.24.09-.14.08 0 0-.07.01-.02-.02.04-.03zm-2.3 1.3c-.12 0-.22.13 0 0-.02-.02.03-.05.04-.03zm1.81-1.68c.3-.11 0 0 0 0s.09-.06.04-.04zm-.2-.11c.12.2.42-.16 0 0 .06-.02.15-.08.05-.04zM72 77.51c.1.18.5-.1 0 0 .07.03.16-.03 0 0zm2.3-1.41c-.1.11 0 .18 0 0zm-2 1.12c-.24.09-.14.08 0 0-.06.04-.01.01.04 0zm1.51-1.51c.24.41.83.39 0 0zm-.16-.49zm-.21-.37s.17.3 0 0c.01.05.06.02.05 0zm-.36-.73c-.42.09-.12.25 0 0-.01.02.02.07.05.01zm.12-.12zm-.27-.22c-.14.15.12.2 0 0-.05.04.01.03-.01 0zm-.22-.61c-.32.5.09.15 0 0-.08.1-.06.03-.01 0zm-.07-.17c-.17.1.09.14 0 0-.05.08.01.07 0 0zm-.22.08c-.11 0-.22.13 0 0-.06.06-.01.04 0 .05zm-3-.77c-.12 0-.23.13 0 0-.04.07.02.04.02.05zm-.4-.68c.23-.09 0 .78 0 0-.08.09-.02.06-.02.05zm0-.08c-.12 0-.23.13 0 0zm-.16-.27zm-.25-.28zm-3.81-5.51c-.39.43.42-.08 0 0-.05.09.05.03-.01.04zm-.13-.1s-.05.06 0 0-.04.09 0 .04zM64 65c.51.87.88-.19 0 0zm-.11-.18zm-.31-.2c-.43.25.76.06 0 0-.28.18.04.04-.03.03zm-.18-.19zm23.35 34.18c.16-.31-.09.1 0 0s-.04.04 0 0z"/><path class="cls-1" d="M75 77.36c.82-.48-.08.31 0 0 .07-.03 0 .08 0 0zm11.4 20.87c-.23-.4.87.39 0 0-.02-.03.09.04 0 0zm-1.59 1.26c-.09.06-.53-.3 0 0zm-1.19-2.03c-.18.21-.55-.14 0 0-.04.05-.08-.02 0 0zm.83 1.54c-.13-.22-.11-.16 0 0zm1.31-2.21c.72 0-.57.42 0 0 .07.01-.14.11 0 0z"/><path class="cls-1" d="M86.34 98c.43-.49.16.27 0 0 .04 0 .04.09 0 0zM80 84.73s.31-.35 0 0c0-.02 0 .04 0 0zm4.22 14.1c-.22 0 0 0 0 0zm2.02-1.09c.45-.22 0 0 0 0zm.04.18c.21-.08 0 0 0 0zm.89 1.29c.27-.08 0 0 0 0zm-3.79-1.94c.07.12-.37.07 0 0 .01.01-.06.01 0 0zm-7.76-18.88c.26-.15 0 .06 0 0zm.38.38c-.06 0 0-.05 0 0zM84.5 95c0-.06.26-.15 0 0zm1.72 2.69c0-.06.27-.16 0 0zm-.22-.45c.2-.23.07.12 0 0zM67.35 69.81c.11-.13.1-.06 0 0s.05-.03 0 0zm8.39 14.71c.12-.13.11-.06 0 0s.05-.03 0 0zm7.45 12.54c.09 0-.35.2 0 0zm-.03-.16c-.25.15 0-.06 0 0s-.01-.02 0 0zm-7.38-18.22c.26-.15 0 .06 0 0s.01.01 0 0zm-.16-.17c.09 0 .18 0 0 0zm2.93 7.07s-.22.13 0 0c-.04.04-.05.03 0 0zm.45.8s-.22.13 0 0c0 .04 0 .03 0 0z"/><path class="cls-1" d="M87.68 61.89c3 3.38-8.36 17.13-8.05 17.31-.58-.33.26-.28-.16-.52s-1.53 3.23-2 3.33c-2.35 4.15-5.51 9.46-8.1 14a1.64 1.64 0 0 1 0-.44c-.37.66-.89 1.43-1.19 2 0 0-.16-.53-.22-.42-.2.35-1.58 3.09-1.88 2.94s.67-2 .73-2.09c-.17.3-2.45 4-2.41 4a.41.41 0 0 1-.27-.19c.14.18 1.3-2.87 1.31-2.89s-.29 1-.7.88c1-1.86 2.37-4.38 3.23-5.87a1.56 1.56 0 0 0-.12-.14c-.12.21 0 .18-.28.14 1.56-2.75 11-17.65 11.13-17.49 2.4-4.2 3.8-8.6 6-12.38-.09.16-.36.29-.47.47-.31-1.27 1.09-2.83 1.15-2.93-.55-1.09 2.77-.45 2.34.3.04.1.15-.33-.04-.01zm-21.38 36zm.43-.86c.07.09.23.13 0 0 .04-.03-.01-.03 0-.03zm-.26.35zm0 .23c0-.07-.37-.07 0 0 0-.05-.06-.04-.01-.03zm1.06-.34a2.3 2.3 0 0 0-.17.76c.13-.27.07-.62.16-.8zm.16-.4c-.18 0-.13 0 0 0-.06-.05-.07-.03 0-.04zm1.06-.47c-.07-.09-.23-.13 0 0-.04-.09.01-.06 0-.04zm1-1.08c-.15 0-.15.1 0 0zm2.6-3.86zM71 90.58c0 .05 0 0 0 0zm2.14.3s-.07 0 0 0-.06-.01 0 0zm.27-.7c-.09.16 0 0 0 0s.05.02 0 0zm-1.57-1c-.08-.09-.23-.13 0 0-.03-.01.02.02.01.03zm.76.17zm-.3-1s0 .06.01.05zm-.2.36c-.36-.2.2.23 0 0-.04.02.05.09.01.04zm.67.22c-.3-.06-.38.07 0 0zm.12 0zm0-.1c-.25-.05-.07.12 0 0s-.03.11-.01.07zm-.65-.48zm.64.27zm0-.1zm1.26-3c.13.08.12 0 0 0zm-1 1.21c.2.16.14.08 0 0 .11.15.06.12.02.07zM72.68 88c.1.15-.33-.37 0 0zm-.22.26c-.13-.07-.15 0 0 0-.05-.03-.06-.02 0-.01zm2.56-1zm.1-.05c-.06-.04.01-.02 0-.01zm.61-1.3c-.24 0-.11.19 0 0-.06-.02-.01.01 0-.01zm-1.07-.79a10.77 10.77 0 0 1-1.19 1.62s-.37 1.88-.41 1.87c.4-.11 1.88-3.38 1.6-3.49-.01.01.11.03 0-.01zm-.73-1.5c-.08-.09-.23-.13 0 0zm.62-1.54zm2.29 0c0 .05 0 0 0 0zm.95-.16c-.08-.09-.22-.13 0 0-.05-.01 0 .02-.01.08zm.53-1zm-.76-1.79c-.09-.1-.22-.13 0 0-.05-.04 0-.01-.01.01zm2.44-.64c-.2-.16-.14-.08 0 0-.12-.08-.07-.05 0 0zm-2.27-1.35c-.08-.09-.23-.13 0 0-.07-.04-.03-.01-.04 0zm2.37.72c.25.21 0 0 0 0s.01.03-.04.01zm0-.23c-.12.2.35.29 0 0-.1.03.05.08-.04.01zm-2-1.28c-.1.18.34.39 0 0-.1.04-.01.1-.1.01zm2.37 1.29c-.14 0-.15.1 0 0zm-2-1.17c-.19-.16-.14-.08 0 0-.15-.07-.1-.04-.06 0zm2.07.55c-.24.42.07.92 0 0zm.35-.39zm.21-.37s-.17.32 0 0c-.1-.01-.1.02-.1 0zm.46-.68c-.28-.32-.28 0 0 0-.1-.05-.13 0-.06 0zm.13 0zm.06-.35c-.2 0-.12.2 0 0-.11-.02-.06.02-.04-.01zm.42-.5c-.59 0-.09.16 0 0-.17-.02-.09-.04-.04-.02zm.07-.12c-.17-.1-.08.15 0 0s-.05 0-.04-.01zm-.24-.16c-.07-.08-.23-.13 0 0 0-.05 0-.02 0 0zm-.8-3c-.08-.09-.23-.13 0 0-.03-.04.02-.01.01.01zm.4-.7c.2.16-.69.39 0 0-.08-.06-.03-.03.01.01zm0-.08c-.08-.09-.23-.13 0 0zm.16-.27zm.13-.35zm2.92-6.14c-.57-.12.28.32 0 0 0-.01.1.09.06.01zm0-.17s-.08 0 0 0 .03 0 .09.01zm0-.81c-.52.88.61.68 0 0 .08.07.13.07.09.01zm.11-.19zm0-.37c-.44-.25.33.7 0 0-.15-.14.08.07.08.01zm.08-.25zM66.89 100c.35 0-.13 0 0 0s-.06-.05 0 0z"/><path class="cls-1" d="M79.61 78.87c.83.47-.32.09 0 0 .05.03-.08.03 0 0zM67 99.46c.23-.4.09 1 0 0 .06-.03 0 .1 0 0zm-1.85-.74c-.09-.05 0-.61 0 0zm1.19-2.08c-.28-.05-.15-.55 0 0-.06-.01-.03-.07 0 0zm-.93 1.51c.13-.22.09-.18 0 0zm2.59.02c.32.66-.65-.28 0 0 0 .07-.18-.07 0 0z"/><path class="cls-1" d="M67.19 99.3c.64.12-.16.28 0 0 .07.02-.03.07 0 0zM75.68 87s.45.09 0 0c.01 0-.06 0 0 0zM65.44 97.87c-.11-.2.06 0 0 0zm1.95 1.21c.42.28 0 0 0 0zm-.14.12c.17.15 0 0 0 0zm-.68 1.44c.2.2 0 0 0 0zm-.19-4.31c-.07.12-.25-.29 0 0-.01.02-.04-.04 0 0zM79 79.93c.26.15 0 .06 0 0zm-.14.5s0-.06 0 0zm-9.92 15.72c0-.06.26.15 0 0zM67.42 99c0-.06.27.16 0 0zm.3-.37c.3.06-.07.12 0 0zm14.69-30.3c.17 0 .11.06 0 0 .06.01.05.03 0 0zm-8.69 14.83c.17 0 .11.06 0 0 .07.01.06.02 0 0zm-7.25 12.91c.06.07-.35-.2 0 0zm.13-.07c-.26-.15 0-.06 0 0s.01-.06 0 0zm12.24-15.78c.26.15 0 .06 0 0s-.01.01 0 0zm.07-.22c.09.05.12.14 0 0zm-4.72 6.15c-.06 0-.22-.13 0 0-.06-.01-.05-.02 0 0zm-.46.85c-.06 0-.22-.13 0 0-.06 0-.05-.06 0 0z"/><path class="cls-1" d="M53.15 81.91c1.45-4.25 18.63-1.12 18.63-1.47 0 .67-.36-.09-.37.4s3.49-.25 3.81.14c1.46 0 4.64-.71 6.49-.69 3.38 0 6.11.87 9.36.87a1.55 1.55 0 0 1-.37.23c.74 0 1.65.07 2.24.07 0 0-.38.4-.25.4.4 0 3.4-.13 3.41.2s-2 .39-2.13.39c.34 0 4.55.18 4.56.14a.42.42 0 0 1 0 .33c.09-.24-3.13.29-3.1.28s1-.22 1.09.18c-2.06 0-4.9.08-6.56.07 0 0-.06.19-.06.17.23 0 .17-.05.25.17-3.11 0-20.34-.9-20.26-1.13-4.74-.05-9.16.82-13.45.82.18 0 .43.18.63.18-.94.9-2.93.44-3.05.44-.66 1-1.72-2.2-.87-2.19.04-.12-.36-.01 0 0zm41 1zm-.94 0c0-.11 0-.26 0 0-.02-.02-.02.04-.04.04zm.42.06zm.19-.11c-.08 0 .11.36 0 0-.06.04-.02.14-.04.04zm-.8-.75a2.25 2.25 0 0 0 .73-.22c-.3.03-.58.25-.75.25zm-.42.06c.06.18.07.11 0 0-.02.09 0 .09-.04.03zm-.91-.69c0 .11 0 .26 0 0-.07.08-.07.02-.05.02zm-1.38-.3c0 .14.15.08 0 0zm-4.54-.37zm-.09 1.55c.06 0 0-.05 0 0zm-.77-2s0 .07 0 0-.03.06-.05 0zm-.73.11c.18 0 0 0 0 0s-.05-.06-.05 0zm-.07 1.84c0 .12 0 .25 0 0-.11.05-.11 0-.05 0zm-.22-.75c0 .4 0 .06 0 0-.05.11-.05.06-.05 0zm-.7.74c-.05-.06-.03 0-.05 0zm.4 0c0 .41.1-.28 0 0-.05.06-.03-.05-.05 0zm-.13-.69c.1.29.25.3 0 0zm0-.12zm-.08.06c.08.25.14 0 0 0-.06.06-.04.01-.08.01zm-.1.8c0 .62 0-.6 0 0-.08.07-.08-.16-.08.01zm-.07-.69zm-.08.06c0 .39 0 .06 0 0-.13.12-.13.06-.13.01zm-3.17.38c0-.16 0-.11 0 0-.08-.1-.08-.1-.08 0zm1.49.24c0-.26 0-.15 0 0-.05-.11-.06-.05-.07 0zm1.25-.16c.08-.17-.16.47 0 0zm.33.06c0 .15 0 .15 0 0-.08.06-.03.06-.08 0zm-2.16-1.74zm-.1-.06c.01.06-.01 0 .01 0zm-1.4.11c.07.23.21 0 0 0 .02.06.02 0 .01 0zm-.16 1.32a10.47 10.47 0 0 1 2 .24v-.06.06c0 .06 1.79-.6 1.79-.56-.28-.29-3.79 0-3.74.32-.03 0-.07-.12-.05 0zm-.93 1.37c0 .13 0 .25 0 0zm-1.61.22zm-1.06-2c.06 0 0-.05 0 0zm-.61-.77c0 .11 0 .25 0 0 0 .06 0 0 0 0zm-1.13 0zm-1.16 1.54c0 .14 0 .25 0 0 0 .11 0 .05.02.05zM71 80.49c0 .26 0 .16 0 0 0 .11 0 .06 0 0zm0 2.64c0 .11 0 .26 0 0-.06.05-.06 0 0 0zm-.52-2.41c.05-.29 0 0 0 0s-.04-.06-.04-.01zm-.19.11c.23 0 .08-.45 0 0-.03 0-.02-.12-.04 0zm-.11 2.41c.2 0 .17-.48 0 0-.01 0-.01-.12-.05 0zm0-2.7c0 .14.16.08 0 0zm-.18 2.3c0 .26 0 .16 0 0 0 .11 0 .05 0 0zm-.52-2.07c.46 0 .77-.52 0 0zm-.5-.11zm-.42 0s.35 0 0 0c.06.04.06-.01.04-.01zm-.8-.06c-.13.4.15.23 0 0 .01.04.07.04.03-.02zm-.06-.12zm-.33.11c.06.19.23 0 0 0 .04.05.06-.01.02-.01zm-.63-.12c.26.53.18 0 0 0 .08.1.02.04.02-.01zm-.13 0c0 .2.17 0 0 0 .01.04.03-.01.01-.01zm0 .23c0 .11 0 .26 0 0-.04.04-.04-.01-.03-.01zm-2.16 2.16c0 .12 0 .26 0 0-.05.05-.05-.01-.03-.01zm-.79 0c0-.24.65.41 0 0-.05.14-.04.04-.03-.02zm-.1 0c0 .12 0 .26 0 0zm-.31 0zm-.37.06zm-6.64.47c.18.54.14-.4 0 0 .01.03.01-.08-.01-.03zm-.15.06s0 .07 0 0 0 .03-.02-.03zm-.69.4c1 0 .29-.85 0 0 0-.03 0-.09-.02-.03zm-.21 0zm-.33.17c0 .5.43-.62 0 0-.02.25.02-.09-.02-.02zm-.25.06zm41-2.72c-.19-.31 0 .14 0 0s.02.06 0 0z"/><path class="cls-1" d="M71.51 80.61c0-.95.22.23 0 0 0-.06.06.06 0 0zm23.6.86c-.46 0 .77-.55 0 0-.04 0 .08-.05 0 0zm.28 2.01c0 .11-.52.3 0 0zM93 83.47c.09.27-.4.39 0 0 .07.05 0 .05 0 0zm1.77.07c-.25 0-.2 0 0 0zm-1.21-2.26c.41-.6.07.7 0 0 .04-.05.02.18 0 0z"/><path class="cls-1" d="M94.9 81.41c-.2-.62.32 0 0 0-.02-.06.1 0 0 0zM80.36 80c.06 0-.14-.44 0 0-.02 0 .02.1 0 0zm14.16 3.65c-.11.19 0 0 0 0zm.1-2.3c0-.5 0 0 0 0zm.17.06c0-.22.05 0 0 0zm1.55-.11c.07-.28 0 0 0 0zm-3.58 2.28c.14 0-.13.36 0 0 .02 0-.02.05 0 0zM72.7 80.62c0-.3.07 0 0 0zm.5-.12c0 .06-.06 0 0 0zm18.17.94c-.07 0 0-.3 0 0zm3.19-.09c-.07 0 0-.31 0 0zm-.48-.06c-.1-.29.14 0 0 0zm-32.9 2.05c-.06-.16 0-.12 0 0-.02-.05 0-.05 0 0zm16.82.3c-.06-.17 0-.12 0 0 0-.06 0-.06 0 0zm14.09-.01c0 .08 0 .08 0 0zm.4 0c0-.08 0 .41 0 0zm-.15-.06c0 .3-.07 0 0 0s-.02 0 0 0zM73 80.62c0-.3.07 0 0 0zm-.2.06c0-.1.06-.18 0 0zm7.53 1.08c0 .06 0 .25 0 0 .01.06 0 .06 0 0zm.92.01c0 .06 0 .25 0 0 .01.06 0 .06 0 0zM30.49 99.61c5.26-3.86 4.88 6.42 8.21 5.5-1.37.71 1.16 1.1.91 1.76 1.2 1.2 7 3.69 5.55 6.28a5 5 0 0 0 .94.43s-.43.14-.37.2 1.33 1.21 1.2 1.31-1-.33-1.11-.42a20.41 20.41 0 0 1 1.65 1.74.76.76 0 0 1-.24.23c.31-.22-1.52-1-1.38-.91.17-.21.38.68.24.55-.9-.72-2-1.84-2.51-2.33q-.2.21-.09.07c-.1-.08 0 .22 0 .11a.2.2 0 0 1-.17.16c-.14-2.15-8.48-7-7-8.11-1.31-1.25-3.65-2.41-4.62-3.42-.17-.18-.85-.55-1.12-.81 0 0 0 .29.12.36a3.27 3.27 0 0 1-1.76-.42c-.12-.11.42-.24.28-.36-.76.39.79-2.27 1.18-1.9.19-.09-.05-.15.09-.02zM45.55 115zm-.4-.3c.21-.15.11-.11 0 0 .05 0 .01.04.01.04zm.12.2zm.15 0s-.2.29 0 0c0 .01-.02.1.01.02zm.21-.83zm-.2-.11c-.13.2 0 0 0 0s-.02.04.01.04zm.13-.83c-.21.15-.11.12 0 0-.04.05 0 .01.01.01zm-.32-.71c-.12.18 0 0 0 0l.01.01zm-1.49-1.9zm-1.1 1.09zm1.09-1.73s0 .07 0 0-.02.05.01 0zm-.35-.19c.07.06 0 0 0 0s.04-.03.01.01zM42.1 111c-.21.15-.11.11 0 0-.05 0-.01 0 0 0zm.43-.62zm-.78.29s.01 0 0 0zm.15.15c-.27.28.2-.15 0 0-.04.03.05-.04 0-.01zm.43-.54c-.14.22-.14.39 0 0zm.07-.1zm-.07 0c-.16.24 0 0 0 0s.01.02-.01.01zm-.59.54zm.45-.52zm-.07 0zm-1.48-.86c.15-.16 0-.06 0 0zm.41.71c.26-.23.06-.06 0 0s.04-.05-.05.01zm.59.33c.21-.13-.44.32 0 0zm.08.16c-.13.14-.06.09 0 0s-.04.06 0 .02zm.4-2zm0-.08v.01zm-.61-.43c-.15.22.08.08 0 0s.01.02 0-.03zm-1 .9a2.4 2.4 0 0 1 .58.88s1.21-.08.88.37a.47.47 0 0 0 .19-.13c0-.15-1.38-1.46-1.66-1.11.04.06.11-.09.04.01zm-1.3.66c-.22.16-.11.11 0 0zm-.77-.42zm1-1.84zm.29-.75c-.21.16-.1.11 0 0s0 0 .01.01zm-.47-.37zm-1.51.7c-.22.16-.11.11 0 0-.04.04 0-.01.01 0zm.58-1.91c-.27.23-.07.07 0 0-.08.08-.04 0 .01 0zm-1.85 1.89c-.21.15-.11.11 0 0-.03.03.01-.01.01 0zM38 105c-.13 0 0-.08 0 0zm-.15 0c.09.08.34-.29 0 0-.03 0 .05-.11-.04 0zm-1.71 1.7c.08.08.4-.29 0 0-.02-.01.06-.1-.04-.03zm1.85-2c-.12.17 0 0 0 0l-.04.01zm-1.61 1.64c-.27.23-.06.07 0 0-.12.08-.08.04-.04.01zm1.23-1.69c.11.11.91-.16 0 0zm-.11-.26zm-.16-.15s-.03.01-.04.01zm-.26-.34c-.3.22-.12.25 0 0-.08.05-.08.1-.08.01zm.06-.11zm-.2 0c-.11.16.09.08 0 0s-.04-.01-.06-.03zm-.16-.32c-.27.49.07.06 0 0-.11.08-.1.02-.06-.02zm-.05 0c-.14.14.06.06 0 0s-.05-.06-.06-.07zm-.18.15c-.2.15-.11.12 0 0-.1-.03-.06-.08-.05-.07zm-2.33.79c-.21.16-.11.12 0 0-.09-.03-.05-.08-.05-.07zm-.3-.29s0 .3 0 0c-.13.01-.09-.03-.04-.07zm0 0c-.22.16-.11.11 0 0zm-.12-.11zm-.18-.09zm-2.87-2c-.33.48.33-.24 0 0-.11-.1-.03-.18-.08-.15zm-.1 0s0 .07 0 0-.11-.12-.08-.16zm-.54 0c.4.38.7-.51 0 0-.11-.12-.03-.16-.11-.13zm-.08-.08zm-.24 0c-.25.26.46-.23 0 0-.28.09-.03-.14-.08-.12zm-.14 0zm17.54 12.63c.19-.41-.06.09 0 0s-.03.05 0 0z"/><path class="cls-1" d="M38.45 105.27c.47-.49 0-.13 0 0 .04-.05-.02.06 0 0zm8.47 9.1c-.2-.19.71-.12 0 0-.01-.02.08-.02 0 0zm-1.28 1.55c-.12.13-.29 0 0 0zm-.89-.85c-.15.22-.4.14 0 0-.03.05-.06.02 0 0zm.62.67c-.1-.09-.08-.06 0 0zm1.09-2.07c.4-.2-.35.41 0 0 .05-.02-.12.14 0 0z"/><path class="cls-1" d="M46.88 114.25c.35-.53.11.11 0 0s.03.03 0 0zM42.24 108s.32-.47 0 0c-.01 0-.03.08 0 0zm2.96 7.73c-.19.12 0 0 0 0zm1.61-1.63c.36-.35 0 0 0 0zm.03.11c.17-.15 0 0 0 0zm.67.48c.22-.18 0 0 0 0zm-2.94.31c.05.05-.29.21 0 0 0 .05-.05.08 0 0zm-5.67-9.3c.22-.23 0 0 0 0zm.27.1zm6.34 7.2s.22-.22 0 0zm1.28 1.08s.23-.24 0 0zm-.14-.22c.17-.26.05.05 0 0zm-14.06-10.33c.12-.18.06-.06 0 0s.03-.04 0 0zm6.26 6.26c.12-.18.06-.06 0 0s.04-.04 0 0zm5.56 5.1c-.22.22 0 0 0 0s-.01-.01 0 0zM39 105.82c.22-.23 0 0 0 0s0 .01 0 0zm-.11-.04s.18-.14 0 0zm2.11 3.49s-.18.18 0 0c0 .05 0 .04 0 0zm.39.33c0 .05-.17.18 0 0-.04.05-.04.04 0 0z"/><path class="cls-1" d="M47.71 99.59c3.85 5.3-6.54 4.93-5.65 8.31-.69-1.38-1.13 1.17-1.78.93-1.19 1.24-3.84 7.06-6.4 5.62a5.3 5.3 0 0 0-.45 1s-.14-.43-.19-.37c-.22.23-1.17 1.4-1.4 1.19s.49-1.09.5-1.1a22.09 22.09 0 0 1-1.78 1.68.75.75 0 0 1-.23-.24c.21.31 1-1.54.93-1.4.21.17-.69.39-.56.25.76-.86 1.9-2 2.38-2.55q-.21-.2-.07-.09c.08-.1-.23 0-.11 0a.2.2 0 0 1-.16-.17c2.16-.14 7.14-8.59 8.26-7 1.28-1.34 2.47-3.68 3.5-4.67.18-.17.57-.86.83-1.13 0 0-.29.05-.36.12a3.32 3.32 0 0 1 .44-1.77c.12-.12.23.42.36.28-.39-.77 2.27.79 1.9 1.18.11.03.17-.21.04-.07zM32 114.85zm.31-.4c.15.21.11.11 0 0 .01.05-.03.01-.02 0zm-.2.12zm0 .15s-.29-.2 0 0c0 0-.06-.03-.01.01zm.84.21zm.11-.2c-.2-.13 0 0 0 0s-.06-.02-.01 0zm.84.12c-.14-.2-.12-.12 0 0-.04-.04 0 0-.01.01zm.72-.33c-.18-.12 0 0 0 0zm1.93-1.52zm-1.08-1.11zM37.2 113s-.07 0 0 0-.05 0 0 0zm.19-.36c-.07.07 0 0 0 0s.04.05 0 .01zm-1.3-1.3c-.15-.21-.11-.11 0 0-.03-.04.01 0 0 .01zm.62.43zm-.28-.78s-.01.01 0 .01zm-.15.15c-.28-.27.15.2 0 0-.04-.03.03.06 0 .01zm.54.43c-.22-.14-.38-.14 0 0zm.1.07zm0-.07q-.15-.13-.08 0h.08c.02 0-.02.02-.01 0zm-.54-.59zm.52.45zm0-.07zm.89-1.49c.16.15.06 0 0 0zm-.72.42c.23.26.07.06 0 0s.01.04-.07-.01zm-.34.6c.13.21-.31-.44 0 0zm-.16.08c-.14-.13-.09-.06 0 0s-.07-.04-.03.03zm2 .4zm.08 0s-.01-.02-.01-.01zm.44-.62c-.22-.15-.08.08 0 0s-.02 0-.02-.01zm-.89-1a2.41 2.41 0 0 1-.89.59s.07 1.22-.38.89a.47.47 0 0 0 .13.2c.15 0 1.49-1.4 1.14-1.68-.03.02.07.09-.02.01zm-.65-1.31c-.16-.22-.11-.11 0 0zm.43-.78zm1.84 1zm.76.29c-.15-.21-.11-.11 0 0-.05-.05-.01-.01-.01 0zm.38-.47zm-.7-1.48c-.16-.22-.11-.11 0 0-.03-.09.01-.05 0 0zm1.92.57c-.23-.27-.07-.06 0 0-.07-.13-.03-.09 0-.04zm-1.88-1.85c-.15-.21-.11-.11 0 0-.03-.09.01-.05 0-.04zm1.93 1.47c-.07-.13.04 0 0-.04zm0-.15c-.09.09.29.34 0 0-.02-.04.07.04-.01-.04zm-1.7-1.71c-.08.08.29.4 0 0-.02-.03.06.05-.01-.05zm2 1.85c-.17-.12 0 0 0 0zm-1.64-1.61c-.23-.26-.07-.07 0 0-.12-.13-.08-.09-.04-.05zm1.69 1.23c-.11.11.15.92 0 0zm.27-.11zm.16-.16s-.06-.04-.01-.05zm.34-.27c-.22-.3-.25-.12 0 0-.09-.1-.11-.07-.05-.05zm.11.06zm0-.21c-.16-.11-.09.09 0 0s-.03-.04-.01-.05zm.32-.16c-.49-.27-.07.07 0 0-.12-.11-.06-.1-.01-.06zm0-.05c-.15-.14-.06.06 0 0s.03-.05.04-.06zm-.15-.18c-.15-.21-.11-.11 0 0 0-.1.04-.06.03-.05zm-.77-2.34c-.16-.22-.11-.11 0 0 0-.1.04-.06.04-.05zm.29-.3s-.31 0 0 0c-.04-.14 0-.08.04-.08zm0 0c-.16-.22-.12-.11 0 0zm.11-.12zm.09-.18zm2.1-2.91c-.48-.32.24.33 0 0 .03-.12.11-.04.08-.09zm0-.1s-.07 0 0 0 .05-.12.1-.09zm0-.54c-.4.4.51.71 0 0 .06-.09.1-.04.06-.09zm.08-.08zm0-.25c-.26-.26.23.47 0 0-.15-.29.09-.04.06-.09zm.05-.14zM32.54 116.5c.41.2-.1-.07 0 0s-.05-.03 0 0z"/><path class="cls-1" d="M41.91 107.64c.49.48.12 0 0 0 .09.04-.06-.02 0 0zm-9.27 8.59c.2-.21.12.72 0 0 .01-.01.01.07 0 0zm-1.55-1.28c-.12-.12 0-.3 0 0zM32 114c-.22-.14-.14-.41 0 0-.09 0-.06 0 0 0zm-.72.67c.09-.09.06-.09 0 0zm2.06 1.09c.2.41-.41-.35 0 0 .03.05-.13-.12 0 0z"/><path class="cls-1" d="M32.76 116.19c.53.36-.11.11 0 0s-.03.03 0 0zm6.32-4.71s.47.32 0 0c.01-.01-.08-.04 0 0zm-7.79 3.02c-.12-.19 0 0 0 0zm1.62 1.62c.35.36 0 0 0 0zm-.11.03c.15.17 0 0 0 0zm-.49.68c.18.22 0 0 0 0zm-.31-2.97c-.05.05-.21-.29 0 0 0 0 0-.05 0 0zm9.47-5.76c.23.22 0 0 0 0zm-.1.27zM34 114.8s.22.22 0 0zm-1.07 1.3s.23.23 0 0zm.22-.1c.26.17-.05.05 0 0zm10.58-14.28c.18.12.06.06 0 0s.04.04 0 0zm-6.38 6.34c.18.12.06.06 0 0s.04.04 0 0zm-5.21 5.63c-.22-.22 0 0 0 0s.01 0 0 0zm9.21-5.47c.23.22 0 0 0 0s-.01.01 0 0zm.04-.13s.13.18 0 0zm-3.54 2.18c-.05 0-.18-.17 0 0-.05-.03-.04-.04 0 0zm-.34.36s-.18-.18 0 0c-.05-.04-.04-.04 0 0z"/></g></g></svg>