<svg xmlns="http://www.w3.org/2000/svg" viewBox="0 0 81.23 81.25"><defs><style>.cls-1{fill:#58595b}</style></defs><title>weather_f</title><g id="Layer_2" data-name="Layer 2"><g id="County_Map" data-name="County Map"><path class="cls-1" d="M43.81 44.72c-1.79 0-10.35-1.16-11.36 0-1.76 2 1.85 9.37-.06 11.2-.33.31-4.84.48-5.23.13s-.2-1.76-.23-2.56c-.22-5.12 0-10.3 0-15.42 0-1.29-.89-8.45.08-9.28.6-.51 3.93 0 4.64 0H40c.87 0 4.71-.56 5.38 0 .25.21.83 3.71.32 4.21s-4.37 0-5 0c-1.72 0-6.12-.83-7.59 0-1.29.73-.72 2.88-.72 4.76 0 2.93-.48 2.2 1.78 2.75 2.46.6 6.33-1.09 8.58 0 1.63.78 1.06 1.91 1.06 4.21zm5.06-11.2c0-6.58 10.14-6.6 10.13 0s-10.13 6.57-10.13 0zm2.75 0c0 3 4.59 3 4.62 0s-4.62-3.02-4.62.01zM11.14 14.64c.07-.08.03.02 0 0z"/><path class="cls-1" d="M80.47 42.32c2.76 7.89-2.47 18.12-7.37 24.26a39.21 39.21 0 0 1-23.75 14 42.39 42.39 0 0 1-24.84-3 43.28 43.28 0 0 1-7.51-4.3c-.88-.63-12-11.28-10.85-12 .41-.25 1 1.77 1.3 1.57.25-.54-2.53-4.67-2.87-5.43-.84-1.88-1.43-3.71-2.1-5.65a31.33 31.33 0 0 1-1.62-8.91 1.88 1.88 0 0 1-.09.65C-1.51 38.58 1.83 28.38 3.8 24a40.09 40.09 0 0 1 58-18c-.53-.32-1.26-.61-1.81-.88 2 1 7.43 4.64 8.14 6.11 0 0 1.93 1.2 1.68 1.44-.42-.35-.91-.69-1.32-1.05.2-.21 5.91 7.1 6.28 7.68.64 1 4.29 7.52 3.66 8.07.51-.18-5.07-9.32-5.6-10 4.85 6.5 7.8 15.09 7.35 23.11-1.32-5.24-.43-11.53-3.92-16.2-.32 1.34 2.14 3.85 1.92 5.47-1.63-6.4-5.73-12.37-10.42-16.89-.38-.37-12-8.92-12.39-8a2.65 2.65 0 0 1 1.16.62C38.74-3.13 16.17 5.06 7 22.26a39.09 39.09 0 0 0-3.73 24.9 37.39 37.39 0 0 0 3.19 10c.35.69 7.28 11.57 7.74 11.1a1.09 1.09 0 0 1-.47-.25c.37.34.68.79 1 1.12-.11-.1-1.47-.95-1-.77a46.53 46.53 0 0 0 9 6.56c3.78 1.92 11.79 5.75 16 4.29a.6.6 0 0 0-.4-.19c16.12.08 28-6.64 36.31-20.17-.57.94-1.26 1.83-1.83 2.77 1.16-2.68 2.61-5.1 3.54-7.9.66-2 .51-5.8 1.77-7.25 0 .28 0 .61-.09.89.43-.66 2-7.58 2.35-6.88a7.78 7.78 0 0 1 0 1.84c.16.21.19-1.97.09 0zM72.93 18zm-3.19-3.87c-.09 0 .23-.21 0 0 .1.1.06.12-.01.05zm1.47 1.71zm.68.77c-.41-.54.25 1 0 0-.07-.04.02.15-.01.04zM69.47 13c.93 1 1.87 2.07 2.82 3.07A41.5 41.5 0 0 0 69.47 13zm-1.68-1.55a1 1 0 0 0 .51.52 2.67 2.67 0 0 0-.51-.52c.05.1.13.17 0 0zm-3.56-3.56c.09 0-.18.25 0 0-.11-.03-.09-.06 0 0zm-6.46-4c.27.29 1 .53 0 0zM33.21.78zM33 2c.21-.05.22-.16 0 0zm-4.55-.31c.18-.07.31 0 0 0 .13-.06.14-.02.03-.02zM24.7 3.2c1-.46 0 0 0 0s-.02-.04 0 0zm.3 1.38c.06-.07.13.28 0 0-.11.08-.12.04 0 0zm-1.36 0zm-3 2.29c-.23-.14 0 0 0 0zm1.87-1.12c.2.37.61-.68 0 0-.04.08.01-.04-.06.04zm-.88-.08c-.32.08.71-.14.55-.09.01-.18-.32.02-.61.13zm-.22 0zM21 6c.32 0 .89-.54 0 0 .12 0 .19-.11 0 0zm-.14.78q.45.11.58-.45a.87.87 0 0 0-.57.45zm-.62-.22zm-.33.25zM8 19s-.44.34 0 0zm5.18-6.19c0 .07-.22-.22 0 0-.03-.13 0-.1-.04 0zm5.02-4.44c-.2.24-.23.37 0 0zm1.48-1s.77-.13 0 0c.02.08.1.02-.01.04zM10.23 14l.72-.79zm-.39.37c.27.06 0 0 0 0zM5.5 20.85a1.06 1.06 0 0 0 .42-.62 2.83 2.83 0 0 0-.42.62c.09-.07.05-.09 0 0zm.5 1.21c1.14-2.36 3.48-6 5.24-7.37.09 0 .7-1.47 1-1.15v-.11c-.07.08-.07.08 0 .11.39-1 7.09-6.64 7.15-6.55-3 1.35-5.93 4.54-8.09 7a36.43 36.43 0 0 0-3.53 4.62c-.13.2-1.57 3.37-1.8 3.49.03-.1-.12.02.03-.04zM4.9 27c0-.09.29.11 0 0zM3 35.28zm-1.86 5.67c0-.19-.13-.29 0 0zm-.38 3.3c0-.09.31 0 0 0 .05.1.01.11 0 0zm1.14 6.18c-.12-.54-.28-1.1-.42-1.65a13.14 13.14 0 0 0 .42 1.65zM5 56c-.07-.06.28-.12 0 0 .05.1 0 .12 0 0zm3.64 8.81c-.08 0 .26-.2 0 0 .1.05.07.08-.03.02zm1.68-1c-.08 0 .25-.18 0 0 .07.07.03.09-.03.01zm.46 3.38c-.24 0-1.15-1.25-1.34-1.51.12.17 1.13 1.7 1.34 1.51.11.04-.05.04-.02.01zm.78.73a.92.92 0 0 0-.56-.49c-.18.16.49.48.56.49s-.16-.01-.02.01zm1.65-.84a.93.93 0 0 0-.64-.52.91.91 0 0 0 .64.52c-.21-.13-.21-.08-.03.02zM12 68.71c-.14-.37-.74-.88 0 0zm1.36-1c-.08 0 .23-.23 0 0 .08-.01.05.02-.05-.03zm1.08 3.1A15.42 15.42 0 0 0 12.25 69a3.64 3.64 0 0 0 2.15 1.78zm2.08 1.82c0-.26 0 0 0 0zM18.36 74a.78.78 0 0 0-.82-.5c.24.2.56.31.82.5-.06-.09-.08-.06 0 0zm3.82 2.33c.36-.39-.24-.18 0 0zm.35.26a.37.37 0 0 0-.17-.13.37.37 0 0 1 .17.13zm1.67.71a1.09 1.09 0 0 0-.66-.36 1.05 1.05 0 0 0 .66.36c-.07-.08-.2-.09 0 0zm3.23 1.4a.89.89 0 0 0-.84-.49c-.08.21.73.45.84.49-.27-.19-.09-.03.01.01zm.7.26c0-.11-.85-.31 0 0 .02-.04-.13-.03.01.04zm.26-.09c-.1 0 .1-.3 0 0 .12 0 .1.04 0 0zm11.75.4c-.09 0 0-.32 0 0 .1-.04.1.01 0 0zm4.19-.12s-1.85-.3-1.84.09a2.19 2.19 0 0 0 1.84-.09c.09-.09.09-.04 0 0zm.51 0c-.08 0 0-.32 0 0zm1.62-.23zm1.91-.34c-.09-.48.05.28 0 0zm26.92-20.69a.54.54 0 0 0-.31.64.78.78 0 0 0 .31-.64c-.08.11 0 .11 0 0zm.31-.75c-.08.17-.22.19 0 0-.04.09-.08.07.01 0zm1.15-3.45c-.11.3-1.19 2.87-1 3s1-2.69 1-3c-.03.1.01.11 0 0zm.38-1c-.19.5-.22-.09-.35.83.26-.22.2-.43.35-.83zm.39-1.69s-.45 1.45-.51 1.62a3.33 3.33 0 0 0 .51-1.62c-.2-.06-.01.21 0 0zm.28-1.27zm.1-25.18c-.37-1.26.58.74.58 1.13a1.54 1.54 0 0 1-.58-1.13c-.06-.21.01.11 0 0z"/><path class="cls-1" d="M7.08 62.52c-.26.17-.66-.46-.83-.87a2.29 2.29 0 0 1 .83.87s-.13-.3 0 0zm69.55-40.41c-.66-1.36.87.87.58 1l-.58-1c-.09-.19.22.37 0 0zM76 24.17c-.31.14-.66-1.26-.69-1.24.1-.07.6 1.12.69 1.24zM69 14c.22.61-.76-.52-.7-.58zm5.45 7.31a3.5 3.5 0 0 1-.58-1zm-2.39-6.4c.08.07 1 1.09.85 1.21-.21-.2-.91-1-.85-1.21.17.14-.06.16 0 0z"/><path class="cls-1" d="M76.14 21.07c-.15-.92 1 1.65 0 0-.02-.07.22.35 0 0zM19.88 73l-.77-.5a4.68 4.68 0 0 1 .77.5zM8.17 16.06c-.47.63.46-.29 0 0-.07.08.1-.06 0 0zm65.52 4.17c.27.31-.42-1.15 0 0zm1.66-.54c.29 0 .12.19 0 0zm.46.84c-.27-.14.34.57 0 0zm3.54 7.76c.07.11 0 .46 0 0zM67.93 13c.51.46-.72-.26 0 0 .07 0-.11-.09 0 0zM4.28 29.25c.19-.74-.26 1 0 0zM3.93 56.7c-.15.06-.24-.49 0 0-.04.02-.04-.09 0 0zm-1.08-2.55c.21.23.09.23 0 0zM63 7c-.45-.28.09-.13 0 0zm12.19 12.42c-.27-.45.14-.09 0 0zm-1.42-2.23c-.05-.21.47.62 0 0zM56.78 75.56c.12 0 .06.14 0 0 .11-.01.01.04 0 0zM4.66 28.52c-.09.09-.14 0 0 0-.08.08-.04-.02 0 0zM66.85 12c.51.19-.21.23 0 0zm-.57-.55c-.1.12-.37-.34 0 0-.03.03-.07-.07 0 0zM3.26 55c-.15.06-.19-.51 0 0-.04 0-.03-.08 0 0zm.48 1.2c-.11 0-.08-.08 0 0zm5.39-39.3c.08 0 .17.12 0 0 .09-.06.03.02 0 0zm3.21-3.84c.09 0 .15.14 0 0 .11-.06.04.03 0 0z"/></g></g></svg>