<svg xmlns="http://www.w3.org/2000/svg" viewBox="0 0 142.69 69.62"><defs><style>.cls-1{fill:#58595b}</style></defs><title>weather__mist</title><g id="Layer_2" data-name="Layer 2"><g id="General_Content" data-name="General Content"><path class="cls-1" d="M87.25 7.6c.06-.01.01.05 0 0z"/><path class="cls-1" d="M1.11 4.74C6-2.69 22.25.21 28.85 2.76 32.3 4.1 35.72 5.61 39.08 7c.63.27 19.64 5.85 19.57 4 0 .66-1.12-.08-1.12.41.3 1.12 11-1.16 12-1.35a.63.63 0 0 1-.39-.1c1.15-1.64 10.19-2.56 12.07-2.92 4.13-.77 8.07-1.51 12.32-2.04a137 137 0 0 1 26.16-.42c-.29 0-.85.19-1.18.18.86 0 7.17 1.15 7.23.64a4.42 4.42 0 0 1-1 .13c0 .28 10.9 1.09 10.84 2 0 0-6.2-.78-6.73-.86 4.62.67 10.05 1.53 13.84 4-2.87 0-6.35-2.51-9.49-2.49.12.4 2.87.26 3.29.93-2.4-.57-20.59-2.83-20.6-2.21.35 0 .54 0 .78.19a180.08 180.08 0 0 0-35 2.82c-1.81.3-29.37 6.07-29.13 3.6a.42.42 0 0 1 .32-.14c-.29 0-.63-.23-.91-.26 0 0 1.13-.34.75 0a48.45 48.45 0 0 1-6.33-1c-2.1-.5-8.37-3.69-9.95-3.11-.22.56-10.49-3.74-12.25-4.22a31.77 31.77 0 0 0-12.6-.35 17.54 17.54 0 0 1 1.95.08c-.91.32-8.77 2.58-9.32 2.07a.61.61 0 0 0 .5-.18C5.05 6.62-1 5.75.15 5l1-.29C1.2 4.6 0 5 1.11 4.74zm128 2.48zm-2.95-.33s0-.37 0 0c.1-.04.09.01.03.01zm1.32.2zm.61 0c-.32 0 .38.48 0 0-.03-.02.08.05.03-.02zm-2.45-1a8.23 8.23 0 0 0 2.45.11c-.8-.2-1.6-.08-2.42-.2zM124.33 6c.19.22.51.31 0 0 .06 0 .12 0 0 0zm-2.88-1s0 .37 0 0c-.06.09-.06 0 0 0zM117 4.55c.14.14.69.1 0 0zm-14.59 0zm-.13 1.56c.15 0 .09-.1 0 0zm-2.67-1.8c.15 0 .11.09 0 0 .1.03.11.09.04.03zm-2.32.34c.6-.07 0-.05 0 0s.03-.02.04.03zm0 1.85s0 .37 0 0c-.01.1-.01.04.05.04zm-.81-.66zm-2.1 1c-.12-.35 0-.07 0 0zm1.27-.15c.05.51.4-.48 0 0 .06.09.1-.03.05.03zm-.51-.63c.2.14.74.18 0 0zM95.06 6zm-.24.09c.23.18.54-.06 0 0 .07.04.13-.03 0-.02zm-.21.83c.07.59-.08-.66 0 0zm-.33-.65zm-.23.09zm-9.91 1.9s-.27-.17 0 0zm4.73-.55s0-.33 0 0c.05-.13.06-.07.01-.01zm3.9-.75c-.08.06-.27.32 0 0zm1-.06s.36.26 0 0c.05.04.11.03.04-.01zM87 6.13zm-.31 0c-.04.05-.11 0-.05-.01zM82.23 7c.31.21.63-.12 0 0 .07.08.06 0 0 0zM82 8.42a27.16 27.16 0 0 1 5.22-.64c.17-.21.87-.76 1-.2l.05-.07c-.06 0-.06 0-.05.07.6-.31 5.56-1.3 5.55-1.37C92 5.87 82.42 8.94 82 8.42c.06-.01-.09-.1 0 0zm-2.61 1.9s.08.37 0 0zm-4.93 1.32zm-3.79-1.27c.15 0 .08-.11 0 0zm-2-.37s.07.36 0 0c-.04.07-.05 0 .01 0zm-3.48.7c.29 0 .61-.08.95-.15zm-3.43 1.93s0 .37 0 0c-.05.06-.05.01.01 0zm-5.49-1.54s0 .34 0 0c-.05.11-.05.05.01 0zm-.16 2.64s0 .37 0 0c-.05.06-.05 0 .01 0zm-1.63-2.42c-.05.09 1 0 1.13 0-.14 0-1.11-.23-1.13 0-.05.11.01-.06.01 0zm-.6.06c.7.07.27-.44 0 0 .12 0 .12-.11.01 0zm-.46 2.38c.58.05.6-.45 0 0 .14.01.14-.11.01-.01zm0-2.71c.12.15.66.14 0 0zm-.29 2.28c-.05.1-.05.05.02 0zm-1.5-2.22a3.32 3.32 0 0 0 1.57-.1c-.9-.68-.87 0-1.55.1zm-1.52-.27c0 .36 0 .07 0 0zm-1.28-.26c.06.08 1 .19 0 0 .07.07.08.02.03 0zm-2.4-.57c-.19.52.14.11 0 0zm-.2-.17c0 .07 0 .08.1.09s-.06.02-.1-.05zm-1-.17c.17.3.61.18 0 0 .05.11.12.07.01.03zM43.39 9c.55.66.53.16 0 0 .14.19.06 0 0 0zM43 8.91c-.06.17.48.14 0 0 0 .09.05.02 0 0zm-.19.19s-.11.35 0 0c-.07.03-.06-.02 0 0zm-7.13-.42s-.15.35 0 0c-.08.03-.06-.02 0 0zm-2.31-1c-.08.07.85.81 1 .42q-.19-.58-1-.42c-.1.12-.08.07 0 .04zm-.28-.12s-.14.35 0 0zm-.9-.37zm-1.09-.33c-.21.55.15-.38 0 0zM10.91 4.39c.53.41.4-.48 0 0 .09.05.09-.07 0 0zm-.47.12c.14 0 .1.08 0 0 .06-.01.07.05 0 0zm-2.06.68c.29 0 1.83-.13 1.77-.58 0-.29-1.68.46-1.77.58s.05-.07 0 0zm-.64.08zm-1 .3c0 .12.85-.11 1-.13a1.25 1.25 0 0 0-1 .13c.08.29.14-.07.03 0zM6 5.79z"/><path class="cls-1" d="M134.11 6.52c-.25-.19.58.87 0 0-.11-.08.05.07 0 0zm-76.29 4.67c0-1.24 1.44.46 0 0 0-.06.18.05 0 0zm74.69-4.86c-1.12-.21 2.23-.07 0 0-.12-.02.26-.01 0 0zm.49 2.14c0 .08-2 0 0 0zm-7.23-1.1c.11.13-1.1.52 0 0zm5.36.8c-.77-.14-.65-.1 0 0zm-3.53-2.8c1.65-.49.21.94 0 0 .14-.04.04.18 0 0z"/><path class="cls-1" d="M131.86 6.15c-.5-.68 1.12.21 0 0-.05-.07.24.04 0 0zM48 12.63c.69.19.5.1 0 0zM85.23 6c-.14 0 0 0 0 0s.07 0 0 0zm45.11 2.15c-.11 0-.32-.21 0 0zm.66-2.23c.19-.44.09 0 0 0zm.49.16c.08-.09.21 0 0 0zm4.93.92c.26-.12.06.1 0 0zm-11.56.39c.42 0-.43.34 0 0 .06.01-.06.05 0 0zM61.5 11c0-.24.25 0 0 0 0-.07.06 0 0 0zm1.5-.3c-.09.1-.18 0 0 0zm57.6-5.77c-.26 0 0-.24 0 0zm10.17.97c-.26 0 0-.25 0 0zm-1.52-.29c-.19-.24.48.07 0 0zM26 5.59c-.07-.11 0-.17 0 0-.07-.07 0-.06 0 0zm52.58 5.32c-.11-.07 0-.18 0 0-.07-.05-.01-.06 0 0zm44.18-3.66c0 .09 0 .09 0 0zm1.24.11c.26-.19 0 .44 0 0zm-.46-.11c0 .24-.25 0 0 0 0 .06-.06 0 0 0zm-61.03 3.63c0-.24.25 0 0 0 0-.06.06-.01 0 0zm-.7.12c0-.15.09-.1 0 0zm23.66-3.34c.06 0 0 .27 0 0 .06.05.01.06 0 0zm2.89-.46c.07 0 0 .26 0 0 .07.05.01.06 0 0zm-1.11 17.98c.06 0 .01.06 0 0z"/><path class="cls-1" d="M1.11 22.33c4.88-7.43 21.14-4.53 27.74-2 3.45 1.34 6.87 2.85 10.23 4.28.63.27 19.64 5.85 19.57 4 0 .66-1.12-.08-1.12.41.3 1.12 11-1.16 12-1.35a.63.63 0 0 1-.39-.1c1.15-1.64 10.19-2.56 12.07-2.92 4.17-.79 8.11-1.52 12.36-2.05a137 137 0 0 1 26.16-.42c-.29 0-.85.19-1.18.18.86 0 7.17 1.15 7.23.64a4.42 4.42 0 0 1-1 .13c0 .28 10.9 1.09 10.84 2 0 0-6.2-.78-6.73-.86 4.62.67 10.05 1.53 13.84 4-2.87 0-6.35-2.51-9.49-2.49.12.4 2.87.26 3.29.93-2.4-.57-20.59-2.83-20.6-2.21.35 0 .54 0 .78.19a180.08 180.08 0 0 0-35 2.82c-1.81.3-29.37 6.07-29.13 3.6a.42.42 0 0 1 .32-.14c-.29 0-.63-.23-.91-.26 0 0 1.13-.34.75 0a48.45 48.45 0 0 1-6.33-1C44.27 29.2 38 26 36.42 26.57c-.22.56-10.49-3.74-12.25-4.22A31.77 31.77 0 0 0 11.56 22a17.54 17.54 0 0 1 1.95.08c-.91.32-8.77 2.58-9.32 2.07A.61.61 0 0 0 4.7 24c.35.22-5.71-.65-4.55-1.36l1-.29c.05-.16-1.15.24-.04-.02zm128 2.48zm-2.95-.33s0-.37 0 0c.1-.05.09.01.03 0zm1.32.2zm.61 0c-.32 0 .38.48 0 0-.03-.03.08.04.03-.02zm-2.45-1a8.23 8.23 0 0 0 2.45.11c-.8-.18-1.6-.08-2.42-.17zm-1.34-.08c.19.22.51.31 0 0 .09 0 .15.01.03-.06zm-2.88-.91s0 .37 0 0c-.03-.01-.03-.07.03-.06zm-4.42-.56c.14.14.69.1 0 0zm-14.59 0zm-.13 1.56c.15 0 .09-.1 0 0zm-2.67-1.8c.15 0 .11.09 0 0 .1.03.11.11.04.04zm-2.32.34c.6-.07 0-.05 0 0s.03-.01.04.04zm0 1.85s0 .37 0 0c-.01.1-.01.05.05.04zm-.81-.66zm-2.1 1c-.12-.35 0-.07 0 0zm1.27-.15c.05.51.4-.48 0 0 .06.1.1-.02.05.04zm-.51-.63c.2.14.74.18 0 0zm-.13-.1zm-.24.09c.23.18.54-.06 0 0 .12.08.18.02.05.03zm-.21.83c.07.59-.08-.66 0 0zm-.33-.65zm-.23.09zm-9.91 1.92s-.27-.17 0 0zm4.73-.55s0-.33 0 0c.1-.1.11-.05.06.02zm3.9-.75c-.08.06-.27.32 0 0zm1-.06s.36.26 0 0c.1.07.16.06.09.01zM87 23.72zm-.31 0c-.04.05-.11 0-.05-.01zm-4.4.91c.31.21.63-.12 0 0 .01.03 0-.02-.06-.01zM82 26a27.16 27.16 0 0 1 5.22-.64c.17-.21.87-.76 1-.2l.05-.07c-.06 0-.06 0-.05.07.6-.31 5.56-1.3 5.55-1.37C92 23.46 82.42 26.53 82 26c.06 0-.09-.1 0 0zm-2.61 1.9s.08.37 0 0zm-4.93 1.32zM70.66 28c.15 0 .08-.11 0 0zm-2-.37s.07.36 0 0c-.03.02-.04-.03.02-.04zm-3.48.7c.29 0 .61-.08.95-.15zm-3.43 1.93s0 .37 0 0c-.04.02-.04-.04.02-.05zm-5.49-1.54s0 .34 0 0c-.04.07-.04.01.02-.05zm-.16 2.64s0 .37 0 0c-.04.01-.04-.04.02-.04zm-1.61-2.46c-.05.09 1 0 1.13 0-.14 0-1.11-.23-1.13 0-.06.1 0-.06 0 0zm-.6.06c.7.07.27-.44 0 0 .11.04.11-.12 0 .04zm-.46 2.38c.58.05.6-.45 0 0 .13 0 .13-.11 0-.01zm0-2.71c.12.15.66.14 0 0zm-.29 2.28c-.06.09-.06.09.01-.01zm-1.5-2.22a3.32 3.32 0 0 0 1.55-.08c-.89-.7-.86 0-1.54.07zm-1.52-.27c0 .36 0 .07 0 0zm-1.28-.26c.06.08 1 .19 0 0 .06.07.07.01.02 0zm-2.42-.54c-.19.52.14.11 0 0zm-.2-.17c0 .07 0 .08.1.09s-.05-.01-.09-.09zm-1-.17c.17.3.61.18 0 0 .06.07.13.03.02 0zm-1.84-.67c.55.66.53.16 0 0 .15.17.07.02.01.01zM43 26.5c-.06.17.48.14 0 0 0 .05.05.02 0 0zm-.19.19s-.11.35 0 0c-.07.03-.06-.02 0-.01zm-7.13-.42s-.15.35 0 0c-.08.03-.06-.03 0 0zm-2.31-1c-.08.07.85.81 1 .42q-.19-.58-1-.42c-.1.12-.08.07 0 .04zm-.28-.12s-.14.35 0 0zm-.9-.37zm-1.09-.37c-.21.55.15-.38 0 0zM10.91 22c.53.41.4-.48 0 0 .09 0 .09-.09 0 0zm-.47.12c.14 0 .1.08 0 0 .06-.03.07.03 0-.02zm-2.06.68c.29 0 1.83-.13 1.77-.58 0-.29-1.68.46-1.77.58s.05-.09 0-.03zm-.64.08zm-1 .3c0 .12.85-.11 1-.13a1.25 1.25 0 0 0-1 .13c.08.26.14-.09.03-.02zm-.74.2z"/><path class="cls-1" d="M134.11 24.11c-.25-.19.58.87 0 0-.11-.11.05.06 0 0zm-76.29 4.66c0-1.24 1.44.46 0 0 0-.06.18.06 0 0zm74.69-4.86c-1.12-.21 2.23-.07 0 0-.12-.02.26 0 0 0zm.49 2.15c0 .08-2 0 0 0zM125.77 25c.11.13-1.1.52 0 0zm5.36.76c-.77-.14-.65-.1 0 0zM127.6 23c1.65-.49.21.94 0 0 .14-.08.04.14 0 0z"/><path class="cls-1" d="M131.86 23.73c-.5-.68 1.12.21 0 0-.05-.07.24.05 0 0zM48 30.22c.69.19.5.1 0 0zm37.23-6.68c-.14 0 0 0 0 0s.07.05 0 0zm45.11 2.2c-.11 0-.32-.21 0 0zm.66-2.23c.19-.44.09 0 0 0zm.49.15c.08-.09.21 0 0 0zm4.93.93c.26-.12.06.1 0 0zm-11.56.41c.42 0-.43.34 0 0 .06 0-.06 0 0 0zM61.5 28.57c0-.24.25 0 0 0 0-.06.06 0 0 0zm1.5-.28c-.09.1-.18 0 0 0zm57.6-5.78c-.26 0 0-.24 0 0zm10.17.97c-.26 0 0-.25 0 0zm-1.52-.28c-.19-.24.48.07 0 0zM26 23.17c-.07-.11 0-.17 0 0-.07-.07 0-.05 0 0zm52.58 5.32c-.11-.07 0-.18 0 0-.07-.04-.01-.05 0 0zm44.18-3.65c0 .09 0 .09 0 0zm1.24.11c.26-.19 0 .44 0 0zm-.46-.11c0 .24-.25 0 0 0 0 .06-.06-.01 0 0zm-61.03 3.62c0-.24.25 0 0 0 0-.06.06 0 0 0zm-.7.14c0-.15.09-.1 0 0zm23.66-3.35c.06 0 0 .27 0 0 .06.04.01.05 0 0zm2.89-.47c.07 0 0 .26 0 0 .07.05.01.06 0 0zm-1.11 18.67c.06-.01.01.05 0 0z"/><path class="cls-1" d="M1.11 40.59c4.88-7.43 21.14-4.53 27.74-2 3.45 1.34 6.87 2.85 10.23 4.28.63.27 19.64 5.85 19.57 4 0 .66-1.12-.08-1.12.41.3 1.12 11-1.16 12-1.35a.63.63 0 0 1-.39-.1c1.15-1.64 10.19-2.56 12.07-2.92 4.17-.79 8.11-1.52 12.36-2.05a137 137 0 0 1 26.16-.42c-.29 0-.85.19-1.18.18.86 0 7.17 1.15 7.23.64a4.42 4.42 0 0 1-1 .13c0 .28 10.9 1.09 10.84 2 0 0-6.2-.78-6.73-.86 4.62.67 10.05 1.53 13.84 4-2.87 0-6.35-2.51-9.49-2.49.12.4 2.87.26 3.29.93-2.4-.57-20.59-2.83-20.6-2.21.35 0 .54 0 .78.19a180.08 180.08 0 0 0-35 2.82c-1.81.3-29.37 6.07-29.13 3.6a.42.42 0 0 1 .32-.14c-.29 0-.63-.23-.91-.26 0 0 1.13-.34.75 0a48.45 48.45 0 0 1-6.33-1c-2.07-.47-8.36-3.66-9.92-3.1-.22.56-10.49-3.74-12.25-4.22a31.77 31.77 0 0 0-12.6-.35 17.54 17.54 0 0 1 1.95.08c-.91.32-8.77 2.58-9.32 2.07a.61.61 0 0 0 .5-.18c.35.22-5.71-.65-4.55-1.36l1-.29c-.02-.17-1.22.23-.11-.03zm128 2.48zm-2.95-.33s0-.37 0 0c.1-.04.09.01.03.01zm1.32.2zm.61 0c-.32 0 .38.48 0 0-.03-.03.08.06.03-.02zm-2.45-1a8.23 8.23 0 0 0 2.45.11c-.8-.18-1.6-.05-2.42-.17zm-1.34-.08c.19.22.51.31 0 0 .09 0 .15.01.03-.06zm-2.88-.91s0 .37 0 0c-.03-.01-.03-.06.03-.06zM117 40.4c.14.14.69.1 0 0zm-14.59 0zm-.09 1.6c.15 0 .09-.1 0 0zm-2.67-1.8c.15 0 .11.09 0 0 .06-.01.07.05 0-.01zm-2.32.34c.6-.07 0-.05 0 0s-.01-.06 0-.01zm0 1.85s0 .37 0 0c-.05.06-.05 0 .01-.01zm-.81-.66zm-2.1 1c-.12-.35 0-.07 0 0zm1.27-.15c.05.51.4-.48 0 0 .02.05.06-.07.01-.01zm-.51-.63c.2.14.74.18 0 0zm-.13-.1zm-.24.09c.23.18.54-.06 0 0 .08.06.14-.03.01-.02zm-.21.83c.07.59-.08-.66 0 0zm-.33-.65zm-.23.09zm-9.9 1.89s-.27-.17 0 0zm4.73-.55s0-.33 0 0c.05-.12.06-.06.01 0zm3.9-.75c-.08.06-.27.32 0 0zm1-.06s.36.26 0 0c.05.05.11.04.04-.01zM87 42zm-.31 0h-.05zm-4.4.91c.31.21.63-.12 0 0 .01.02 0-.04-.06-.03zM82 44.27a27.16 27.16 0 0 1 5.22-.64c.17-.21.87-.76 1-.2l.05-.07c-.06 0-.06 0-.05.07.6-.31 5.56-1.3 5.55-1.37C92 41.72 82.42 44.79 82 44.27c.06-.01-.09-.1 0 0zm-2.61 1.9s.08.37 0 0zm-4.93 1.32zm-3.79-1.27c.15 0 .08-.11 0 0zm-2-.37s.07.36 0 0c-.04.06-.05.01.01 0zm-3.48.7c.29 0 .61-.08.95-.15zm-3.43 1.93s0 .37 0 0c-.05.06-.05 0 .01 0zm-5.49-1.54s0 .34 0 0c-.05.11-.05.06.01-.01zm-.16 2.64s0 .37 0 0c-.05.05-.05 0 .01 0zm-1.63-2.42c-.05.09 1 0 1.13 0-.14 0-1.11-.23-1.13 0-.05.11.01-.06.01 0zm-.6.06c.7.07.27-.44 0 0 .12 0 .12-.11.01 0zm-.46 2.38c.58.05.6-.45 0 0 .14.01.14-.11.01-.01zm0-2.71c.12.15.66.14 0 0zm-.29 2.28c-.05.1-.05.04.02-.01zm-1.5-2.22a3.32 3.32 0 0 0 1.55-.08c-.88-.7-.85 0-1.53.08zm-1.52-.27c0 .36 0 .07 0 0zm-1.28-.26c.06.08 1 .19 0 0 .07.07.08.01.03 0zm-2.42-.54c-.19.52.14.11 0 0zm-.2-.17c0 .07 0 .08.1.09s-.04-.01-.08-.08zm-1-.17c.17.3.61.18 0 0 .07.08.14.04.03 0zm-1.84-.67c.55.66.53.16 0 0 .16.13.08.02.02.01zm-.4-.12c-.06.17.48.14 0 0 .03.07.08.03.03.01zm-.19.19s-.11.35 0 0c-.04.06-.03-.01.03.01zm-7.13-.42s-.15.35 0 0c-.05.04-.03-.01.03.01zm-2.31-1c-.08.07.85.81 1 .42q-.19-.58-1-.42c-.07.13-.05.08.03.05zm-.28-.12s-.14.35 0 0zm-.9-.37zm-1.09-.37c-.21.55.15-.38 0 0zm-20.16-2.42c.53.41.4-.48 0 0 .09.05.09-.07 0 0zm-.47.12c.14 0 .1.08 0 0 .06-.01.07.05 0 0zM8.38 41c.29 0 1.83-.13 1.77-.58 0-.29-1.68.46-1.77.58s.05 0 0 0zm-.64.08zm-1 .3c0 .12.85-.11 1-.13a1.25 1.25 0 0 0-1 .13c.08.33.14-.03.03.04zm-.74.26z"/><path class="cls-1" d="M134.11 42.37c-.25-.19.58.87 0 0-.11-.08.05.07 0 0zM57.82 47c0-1.24 1.44.46 0 0 0 0 .18.09 0 0zm74.69-4.82c-1.12-.21 2.23-.07 0 0-.12-.03.26-.01 0 0zm.49 2.14c0 .08-2 0 0 0zm-7.23-1.1c.11.13-1.1.52 0 0zm5.36.78c-.77-.14-.65-.1 0 0zm-3.53-2.78c1.65-.49.21.94 0 0 .14-.04.04.18 0 0z"/><path class="cls-1" d="M131.86 42c-.5-.68 1.12.21 0 0-.05-.07.24 0 0 0zM48 48.48c.69.19.5.1 0 0zm37.23-6.68c-.14 0 0 0 0 0s.07.05 0 0zm45.11 2.2c-.11 0-.32-.21 0 0zm.66-2.23c.19-.44.09 0 0 0zm.49.16c.08-.09.21 0 0 0zm4.93.92c.26-.12.06.1 0 0zm-11.56.39c.42 0-.43.34 0 0 .06.01-.06.05 0 0zM61.5 46.83c0-.24.25 0 0 0 0-.05.06 0 0 0zm1.5-.28c-.09.1-.18 0 0 0zm57.6-5.77c-.26 0 0-.24 0 0zm10.17.96c-.26 0 0-.25 0 0zm-1.52-.28c-.19-.24.48.07 0 0zM26 41.44c-.07-.11 0-.17 0 0-.07-.07 0-.06 0 0zm52.58 5.32c-.11-.07 0-.18 0 0-.07-.05-.01-.06 0 0zm44.18-3.66c0 .09 0 .09 0 0zm1.24.11c.26-.19 0 .44 0 0zm-.46-.11c0 .24-.25 0 0 0 0 .06-.06 0 0 0zm-61.03 3.63c0-.24.25 0 0 0 0-.06.06-.01 0 0zm-.7.13c0-.15.09-.1 0 0zm23.66-3.35c.06 0 0 .27 0 0 .06.05.01.06 0 0zm2.89-.51c.07 0 0 .26 0 0 .07.1.01.1 0 0zm-1.11 20.06c.06-.01.01.06 0 0z"/><path class="cls-1" d="M1.11 60.21c4.88-7.43 21.14-4.53 27.74-2 3.45 1.34 6.87 2.85 10.23 4.28.63.27 19.64 5.85 19.57 4 0 .66-1.12-.08-1.12.41.3 1.12 11-1.16 12-1.35a.63.63 0 0 1-.39-.1c1.15-1.64 10.19-2.56 12.07-2.92 4.17-.79 8.11-1.52 12.36-2.05a137 137 0 0 1 26.12-.48c-.29 0-.85.19-1.18.18.86 0 7.17 1.15 7.23.64a4.42 4.42 0 0 1-1 .13c0 .28 10.9 1.09 10.84 2 0 0-6.2-.78-6.73-.86 4.62.67 10.05 1.53 13.84 4-2.87 0-6.35-2.51-9.49-2.49.12.4 2.87.26 3.29.93-2.4-.57-20.59-2.83-20.6-2.21.35 0 .54 0 .78.19a180.08 180.08 0 0 0-35 2.82c-1.81.3-29.37 6.07-29.13 3.6a.42.42 0 0 1 .32-.14c-.29 0-.63-.23-.91-.26 0 0 1.13-.34.75 0a48.45 48.45 0 0 1-6.33-1c-2.07-.47-8.36-3.66-9.92-3.1-.22.56-10.49-3.74-12.25-4.22a31.77 31.77 0 0 0-12.6-.35 17.54 17.54 0 0 1 1.95.08c-.91.32-8.77 2.58-9.32 2.07a.61.61 0 0 0 .5-.18c.35.22-5.71-.65-4.55-1.36l1-.29c.02-.11-1.18.29-.07.03zm128 2.48zm-2.95-.33s0-.37 0 0c.1-.05.09.01.03 0zm1.32.2zm.61 0c-.32 0 .38.48 0 0-.03-.03.08.04.03-.02zm-2.45-1a8.23 8.23 0 0 0 2.45.11c-.8-.18-1.6-.09-2.42-.17zm-1.34-.08c.19.22.51.31 0 0 .09 0 .15.01.03-.06zm-2.88-.91s0 .37 0 0c-.03-.01-.03-.07.03-.06zM117 60c.14.14.69.1 0 0zm-14.59 0zm-.13 1.56c.15 0 .09-.1 0 0zm-2.67-1.8c.15 0 .11.09 0 0 .1.04.11.1.04.05zm-2.32.34c.6-.07 0-.05 0 0s.03 0 .04.05zm0 1.85s0 .37 0 0c-.01.11-.01.05.05.05zm-.81-.66zm-2.1 1c-.12-.35 0-.07 0 0zm1.27-.15c.05.51.4-.48 0 0 .06.1.1-.01.05.05zm-.51-.63c.2.14.74.18 0 0zm-.13-.1zm-.24.09c.23.18.54-.06 0 0 .12.09.18.02.05.04zm-.21.83c.07.59-.08-.66 0 0zm-.33-.65zm-.23.09zm-9.91 1.92s-.27-.17 0 0zm4.73-.55s0-.33 0 0c.1-.14.11-.04.06.03zm3.9-.75c-.08.06-.27.32 0 0zm1-.06s.36.26 0 0c.1.08.16.07.09.02zM87 61.6zm-.31 0c-.04.04-.11-.01-.05-.02zm-4.4.91c.31.21.63-.12 0 0 .01.03 0-.03-.06-.01zM82 63.88a27.16 27.16 0 0 1 5.22-.64c.17-.21.87-.76 1-.2l.05-.07c-.06 0-.06 0-.05.07.6-.31 5.56-1.3 5.55-1.37C92 61.34 82.42 64.41 82 63.88c.06-.01-.09-.1 0 0zm-2.61 1.9s.08.37 0 0zm-4.94 1.32zm-3.79-1.27c.15 0 .08-.11 0 0zm-2-.37s.07.36 0 0c-.03.07-.04.02.02 0zm-3.48.7c.29 0 .61-.08.95-.15zm-3.43 1.93s0 .37 0 0c-.04.07-.04.01.02 0zm-5.49-1.54s0 .34 0 0c-.04.12-.04.06.02 0zm-.16 2.64s0 .37 0 0c-.04.06-.04 0 .02 0zm-1.63-2.42c-.05.09 1 0 1.13 0-.14 0-1.11-.23-1.13 0-.04.11.02-.05.02 0zm-.6.06c.7.07.27-.44 0 0 .13.01.13-.11.02 0zm-.46 2.38c.58.05.6-.45 0 0 .15.01.15-.1.02 0zm0-2.71c.12.15.66.14 0 0zm-.29 2.28c-.04.11-.04.05.03 0zm-1.5-2.22a3.32 3.32 0 0 0 1.55-.08c-.87-.69-.84.01-1.52.08zm-1.52-.27c0 .36 0 .07 0 0zM48.86 66c.06.08 1 .19 0 0 .04.1.05 0 0 0zm-2.42-.54c-.19.52.14.11 0 0zm-.2-.17c0 .07 0 .08.1.09s-.07.02-.11-.05zm-1-.17c.17.3.61.18 0 0 .04.11.11.07 0 .04zm-1.84-.67c.55.66.53.16 0 0 .13.2.05.06-.01.04zm-.4-.12c-.06.17.48.14 0 0 0 .1.05.06 0 .05zm-.19.19s-.11.35 0 0c-.07.08-.06.03 0 .04zm-7.13-.42s-.15.35 0 0c-.08.07-.06.02 0 .04zm-2.31-1c-.08.07.85.81 1 .42q-.19-.58-1-.42c-.1.17-.08.12 0 .08zm-.28-.12s-.14.35 0 0zm-.9-.37zm-1.09-.37c-.21.55.15-.38 0 0zm-20.19-2.39c.53.41.4-.48 0 0 .09.05.09-.06 0 0zm-.47.12c.14 0 .1.08 0 0 .06.03.07.03 0 .03zm-2.06.68c.29 0 1.83-.13 1.77-.58 0-.29-1.68.46-1.77.58s.05-.06 0 0zm-.64.08zm-1 .3c0 .12.85-.11 1-.13a1.25 1.25 0 0 0-1 .13c.08.29.14-.03.03-.03zm-.74.23z"/><path class="cls-1" d="M134.11 62c-.25-.19.58.87 0 0-.11-.1.05.05 0 0zm-76.29 4.65c0-1.24 1.44.46 0 0 0-.06.18.06 0 0zm74.69-4.86c-1.12-.21 2.23-.07 0 0-.12-.02.26 0 0 0zm.49 2.15c0 .08-2 0 0 0zm-7.23-1.1c.11.13-1.1.52 0 0zm5.36.79c-.77-.14-.65-.1 0 0zm-3.53-2.8c1.65-.49.21.94 0 0 .14-.04.04.17 0 0z"/><path class="cls-1" d="M131.86 61.61c-.5-.68 1.12.21 0 0-.05-.07.24.05 0 0zM48 68.1c.69.19.5.1 0 0zm37.23-6.68c-.14 0 0 0 0 0s.07.04 0 0zm45.11 2.2c-.11 0-.32-.21 0 0zm.66-2.23c.19-.44.09 0 0 0zm.49.15c.08-.09.21 0 0 0zm4.93.93c.26-.12.06.1 0 0zm-11.56.39c.42 0-.43.34 0 0 .06 0-.06.05 0 0zM61.5 66.45c0-.24.25 0 0 0 0-.06.06-.01 0 0zm1.5-.28c-.09.1-.18 0 0 0zm57.6-5.78c-.26 0 0-.24 0 0zm10.17.97c-.26 0 0-.25 0 0zm-1.52-.28c-.19-.24.48.07 0 0zM26 61.05c-.07-.11 0-.17 0 0-.07-.05 0-.05 0 0zm52.58 5.32c-.11-.07 0-.18 0 0-.07-.04-.01-.06 0 0zm44.18-3.65c0 .09 0 .09 0 0zm1.24.1c.26-.19 0 .44 0 0zm-.46-.1c0 .24-.25 0 0 0 0 .05-.06-.01 0 0zm-61.03 3.62c0-.24.25 0 0 0 0-.06.06-.01 0 0zm-.7.14c0-.15.09-.1 0 0zm23.66-3.36c.06 0 0 .27 0 0 .06.05.01.06 0 0zm2.89-.46c.07 0 0 .26 0 0 .07.05.01.06 0 0z"/></g></g></svg>