<svg xmlns="http://www.w3.org/2000/svg" viewBox="0 0 123.76 123.14"><defs><style>.cls-1{fill:#58595b}</style></defs><title>weather__rain</title><g id="Layer_2" data-name="Layer 2"><g id="General_Content" data-name="General Content"><path class="cls-1" d="M35.07 9.21c-.07.07-.07-.04 0 0z"/><path class="cls-1" d="M100.55 86.8c6.7-5.37 14.07-8.78 17.51-17.28a27.31 27.31 0 0 0-2.89-26.32c-4.91-6.89-13.53-10.14-21.73-10.33-4.53-.1-3.35 0-4.38-4.24-.18-.72-6.9-15.93-7.91-15 .5-.46 1.22 1.58 1.62 1.25.71-1.48-7.71-7.27-9.29-8.12a39.18 39.18 0 0 0-8.41-3.19 1.46 1.46 0 0 1 .58.31c-2.72.72-8.09-1-11.29-.61a35.71 35.71 0 0 0-12.14 3.2 33.49 33.49 0 0 0-14.9 15.14 35.15 35.15 0 0 0-3.22 9.78c-.19 1.16.27 7.32-.48 8.12-.55.59-2.13.07-2.73.3-3 1.13-5.87 2-8.52 3.93A24.12 24.12 0 0 0 4.19 54c.24-.57.28-1.34.6-1.94C3.23 55 3.16 60.17 2.08 62c0 0 .56 2.23.22 2.25a8.67 8.67 0 0 1-.3-1.69c-3.1 0 6.55 18.76 7.13 17.65-1 1-6.37-9.23-6.65-10.11 2.93 9.15 10.15 14.21 18.66 17.33-6 0-11.6-5.67-15.5-9.5-.18 1.32 3.84 3.65 4.38 4.83A26.24 26.24 0 0 1 .14 63.37c0-.6 3.63-17.61 5.2-16.44a4.1 4.1 0 0 1-1 1.14 25.63 25.63 0 0 1 12.4-9.87c3.63-1.36 3.35-.6 4.06-4.2 2.64-13.51 7.81-24.34 21-30.45a35.41 35.41 0 0 1 28.94-.83 36.2 36.2 0 0 1 9.69 6.1c.32.28 10.46 11.71 9 12.39a1 1 0 0 1-.4-.43c.24.5.36 1.09.56 1.6-.07-.19-1-1.45-.67-1.18.91 1.87 1.91 8.65 3.14 9.52.46.32 4.86-.25 5.76-.16 4.51.44 8.52 4.08 12.59 4.47a.6.6 0 0 0-.26-.43c15.62 7.53 17.45 30.94 7.45 43.46.78-1 1.68-2 2.38-3-1.51 3.33-9.52 13.75-13.95 12.66a2 2 0 0 0 1-.45c-.74 0-9.63 1.44-8.31 0a6.65 6.65 0 0 1 1.9-.49c.12-.13-2.12.42-.07.02zM2.24 70.89zM1 65.5c-.05-.08.4 0 0 0 0 .11 0 .11 0 0zm.32 2.5zm.36 1.08c-.16-.7-.25 1.07 0 0-.03-.14-.03.09 0-.03zm0-4.73a12.61 12.61 0 0 0 .85 4.29 26.21 26.21 0 0 1-.86-4.32zm-.1-2.42c-.33.56-.31 1 0 0-.07.07-.08.19-.01-.03zm1.38-5.05c0 .09-.38-.1 0 0-.04-.16.04-.14-.01-.03zm3.25-6.9c-.32.18-.69.93 0 0zM23.54 33c0 .11 0 .44 0 0zM22 32.44c0 .21.09.3 0 0zm2.75-4c-.05.21-.19.19 0 0 .01.1-.05.09.04.01zm1.06-3.83c-.36 1 0 0 0 0s.08.03.03.01zm-1.61-1c0 .1-.37-.14 0 0 .02-.07.07-.05.03.05zm1.16-.94zm1.11-3.84c.35.05.07 0 0 0zm-1.07 2.06c-.5-.24 0 1 0 0-.03.02.03.16.02.04zm.95-.39s-.93 1.2 0 0zm.2-.14zm.14-.42c-.3.21-.45.93 0 0-.08.12-.08.25.02.06zm-.43-.86zm.83 0zm.17-.4zM39.72 5.91s.57 0 0 0zm-7 4.94c0-.07.29.3 0 0-.02.15-.06.15-.02.01zm-4.53 5.55c.11-.3.08-.49 0 0zM27.12 18s-.7.43 0 0c-.05-.07-.12 0 0 0zm9-7.65a9.81 9.81 0 0 0-.8.67c.19-.24.54-.54.77-.71zm.46-.27c-.31-.2 0-.06 0 0zM43 6c-.64 0-.91.44 0 0-.1 0-.07 0 0 0zm.24-1.58c-2.79 1.35-6 3.41-8.2 4.62-.12.31-.9 1.64-1.29 1.2v.12c.08-.07.08-.07 0-.12-.36.71-6.78 7.66-6.05 8.11 2.51-2.83 4.15-5.88 7.16-8.34C36 9 42.09 3.92 43.25 4.39c-.1.05.15.06 0 0zm4.63-3c-.08.07-.1-.4 0 0zM57.33 0zm6 2.61q-.1-.17-.22 0a.55.55 0 0 0 .2.02zm3 1.52c-.09 0 .11-.38 0 0 .13 0 .12.05.02.02zm5.79 2.29c-.5-.25-1-.49-1.52-.73.46.21 1.09.52 1.54.75zm6.28 2.22c-.1 0 .25-.32 0 0 .14.04.11.09.02.02zm5.41 8.21c-.06 0 .33-.24 0 0 .19.04.13.08.02.02zm2.28-1.35c-.09 0 .33-.23 0 0 .14.08.09.11.02.02zm-.37 3.88a15 15 0 0 1-1.08-1.69c.11.19.81 1.85 1.08 1.69.18.06-.02.05.02.02zm.64.86c-.47-1.05-.78-.21 0 0-.02-.08-.13-.02.02.02zm2.37-.63a.85.85 0 0 0-.56-.73 1 1 0 0 0 .56.73c-.08-.19-.18-.14.03.02zm-2.23 1.54c0-.36-.45-1.07 0 0zm2.15-.84c-.07 0 .37-.19 0 0 .15.05.1.08 0 .01zM88 23.95a7.19 7.19 0 0 0-1.32-2.41c.11 1.33.69 1.58 1.32 2.41zm.79 2.63c.28-.21.07 0 0 0zm.61 2.24a.6.6 0 0 0-.35-.89c.06.29.28.58.35.89.04-.11-.02-.1 0 .01zm3.29 3.88c.48-.77-.4-.05 0 0zm.65.08a.64.64 0 0 0-.33 0 .64.64 0 0 1 .34.01zm1.89-.15c-.54-.33-1-.05 0 0-.09-.06-.23-.01.01 0zm3.41.43q-.42-.59-.9-.37c0 .29.75.35.9.37-.28-.16-.09-.06.01.01zm.72.11c0-.15-.87-.13 0 0 .02-.05-.09-.01.01 0zm.25-.2c-.08 0 .07-.39 0 0 .12-.03.11.03.01.03zm12 2.89c-.1 0 .24-.34 0 0 .09.03.06.07-.04.01zm3.54 3s-1.18-1.75-1.5-1.38a2.1 2.1 0 0 0 1.5 1.38c.13.01.08.05-.03.01zm.38.42c-.1 0 .3-.29 0 0zm1.22 1.34zm1.36 1.67zM116.65 79c.88-.33.32-1 0 0 .13-.09.04-.16 0 0zm-.6.71c.16-.17.29-.1 0 0 .09-.13.13-.09.01-.04zm-2.81 3.15c.33-.23 2.83-2.3 2.45-2.68a19.74 19.74 0 0 0-2.45 2.68c.11-.12.07-.17.01-.05zm-1 .77c.54-.4.12.34.89-.58q-.57-.28-.89.58zm-1.56 1.27c.08.12 1.49-1 1.66-1.13a6 6 0 0 0-1.66 1.13c.14.19.15-.22-.02-.05zm-1.28.85z"/><path class="cls-1" d="M7.68 77.61c-.49-1.26.88.53 1 .85a1 1 0 0 1-1-.85c-.08-.21.02.11 0 0zm74.57-62.97c-.3.25-.78-.22-1-.64a1.75 1.75 0 0 1 1 .64s-.17-.27 0 0zM6 75.41c-.79-1.26 1.08.68.73.92L6 75.41c-.12-.18.27.33 0 0zm-.74 2.51c-.39.28-.95-1.31-1-1.28.16-.1.9 1.16 1 1.28zM.38 64.86c-.32.73-.52-1-.22-1zm2.88 9.95c-.21-.41-.52-.63-.59-1.14.18.33.41.81.59 1.14zM3 67.4c.07.13.53 1.39.26 1.47-.12-.25-.47-1.27-.26-1.47.06.2-.19.14 0 0z"/><path class="cls-1" d="M5.43 74.38c0-1.13 1 1.77 0 0 0-.12.2.38 0 0zm86.23-45.33l-.17-.92a2.39 2.39 0 0 1 .17.92zM38.62 9c.48-.29-.31 0 0 0 .09-.06-.12 0 0 0zM2.48 73.51c.21.3-.21-1.28 0 0zm2.26-.57c.45 0 .09.18 0 0zm.39.88c-.11 0 .24.47 0 0zm5.37 6.66c.22.09.11.34 0 0zM.18 63.14c0 .8-.43-.79 0 0 .01.12-.06-.14 0 0zM77.56 10.1c-.14.18-.4-.32 0 0-.04.05-.09-.1 0 0zm-2.28-1.52c.27 0 .23.15 0 0zM3.41 55.42c.16-.48.21.07 0 0zM4.6 72.65c-.19-.46.21-.1 0 0zm-.9-2.49c.06-.31.25.78 0 0zM122.9 51.1c0 .16-.19.05 0 0-.02.13-.05.01 0 0zM49.45.58c.14 0 0 .21 0 0 .12.03.01.06 0 0zM.16 61.51c.24.58-.42 0 0 0zm.09-.93c-.22 0 0-.56 0 0-.05 0 .01-.11 0 0zM76.14 9c-.13.18-.42-.28 0 0-.04.06-.14-.05 0 0zm1.04.72c-.11.13-.13 0 0 0zM37.75 7.51c-.11 0-.15-.22 0 0-.12.01-.03-.04 0 0zm-4.08 3.25c-.11 0-.18-.2 0 0-.13.03-.04-.05 0 0zm45.27 81.9s.06.05 0 0zm-3.29-34.39c-3.6.28-5 5-7.24 8.64a57.7 57.7 0 0 0-3.63 6.83c-1 2.27-2.31 4.49-2.51 7 0 .05.67 5.95 1.08 5.74-.59.3-.21-.67-.67-.47-1.26.81 4.67 5.38 5 5.6a.4.4 0 0 1-.11-.27c.75-.37 5.72 1.22 7.11 1a11.08 11.08 0 0 0 5.94-2.88C85.2 85.2 85 79.2 82.71 73.84c.06.13.44.45.52.63-.69-1.61-1.32-3.15-2-4.45 0 0 .7.52.6.31-.29-.59-3.58-6.49-3.29-6.69s2.39 3.59 2.55 3.92c-1.47-2.89-3.65-6.06-4.65-8.92 1.36.64 2.76 4.6 3.83 5.78.13-.15-1.27-1.62-1-2.19 1.09 2 5.67 12.72 6.63 13q-.09.08 0 .08c-.11-.29-.19-.34 0-.59 3.71 9.5-1.29 19.71-12 20.74-8 .77-13.07-5.95-14.07-12.62 0 0 .52.69.2.51-1.43-9.47 6.44-21 11.21-28.82-.33.54-.83 1-1.17 1.6.66-2.19 2.13-4.38 3.14-6.44.63.81 2.58 2.84 2.58 4.07a.6.6 0 0 0-.37-.49c.13 1.2 1.72 2 1.51 3.67-.07.51-.51 2.66-1.32 1.32-.09.02.45.74.04.01zm5.78 8.86zm1 1.82c-.09-.01-.04-.03-.02.05zM82 68.1zm-.29-.32c.09.18.22-.43 0 0 .06.03.07-.07.04-.01zm.12 1.92a3.41 3.41 0 0 0-.9-1.43c.28.48.71.95.94 1.42zm.46.81c.09-.17.07-.4 0 0 .07-.08.05-.11.04-.01zm.22 2.11c.1 0 .05.02.04-.02zm.88 2.86c.08-.13-.08-.45 0 0zm.78 9zm1.45.57c0-.11-.06-.08 0 0zm-2.43.83c0-.08.09 0 0 0s.11-.03.04-.02zm-.54 1.27c.18-.3 0 0 0 0s-.01-.05.04-.02zm1.51 1.06c.06.04.01.01.03-.02zm-.88 0zM83 89.84c-.32-.2-.05 0 0 0zm.56-.7c.38.29-.14-.46 0 0 .03.03-.03-.07-.01 0zm-.73-.14c.31 0 .47-.2 0 0zm-.14 0zm0 .16c.25 0 .2-.26 0 0 .02-.05 0-.16-.05-.05zm.48.67zm-.64-.32zm-.06.16zM77 93.6c0-.07-.18-.14 0 0zm3.09-1.17c0-.08-.15-.24 0 0-.09-.12-.03-.08-.03-.01zm2.07-1.83s.05.42 0 0zm.54-.48c.06.05.3 0 0 0 .01.03.03 0-.03-.01zm-4.44 1.24zm-.19 0c-.01.07-.07.03-.07.02zm-2.48 1c.18.19.39-.1 0 0 .01.05-.01-.01-.04 0zm-.05 1.35c1.28-.2 2.77-.7 3.48-.88 0-.26.32-.8.57-.37v-.06.07c.24-.36 2.86-2.6 2.62-2.82-.61.24-6.19 4.9-6.66 4.07-.01-.01-.11-.12-.05-.01zm-1.94 1.58s0 .36 0 0zm-3.87-.22zm-1.63-2.71c.1 0 .08 0 0 0zm-.7-1.22c-.06.03-.03-.02 0 0zm-1.81-1.28zm-2.76-.76c-.07 0-.02-.03.01 0zm-.11-4c-.11 0-.26.09 0 0-.12.03-.06.01 0 .03zm-2.52.79c-.07 0-.02-.02 0 .02zm2-1.79c1.69.15-1 .24 0 0-.13.01.04.01-.01.02zm-.2-.32c.12.43.48.05 0 0 0 .04.1.01 0 0zm-2.4.26c.07.43.56.31 0 0-.01.09.11.07-.02-.04zm2.63-.61c-.11.1 0 .41 0 0zm-2.27.32c-.06 0-.3.05 0 0-.14-.03-.08-.04-.02 0zm1.91-1.4a1.27 1.27 0 0 0 .35.94c.44-.79-.22-.51-.37-.95zm.07-1c-.37 0-.07 0 0 0zm.06-.75s0 .63 0 0c-.08.03 0 .03 0 0zm.36-1.55c-.48-.16-.14.11 0 0zm.16-.12c-.07 0-.07 0-.08.06s0 .01.06-.06zm.07-.67c-.24.08-.12.43 0 0-.09.02-.04.07-.02-.01zm.5-1.26c-.64.33-.12.35 0 0-.15.11-.02.07 0 0zm.09-.26c-.18-.06-.11.33 0 0-.06.01-.02.07 0 .03zm-.18-.12c-.05-.06 0-.04 0 0zm-.23-5.15c-.05-.06 0-.04-.02 0zm.74-1.57c.29.29-1.12 1.29 0 0-.11-.09-.06-.07-.02 0zm.09-.19zm.3-.61zm.3-.75zm7.48-14.23c-.47-.27-.1 1 0 0-.07-.03-.03.13-.02 0zm.23-.5c-.08.13 0 0 0 0s-.06-.03-.02 0zM73 51c-.4.67-.6 1.88-.89 2.36A6.54 6.54 0 0 0 73 51s0 .15 0 0zm.38-.11zm.61.68c0-.21-.49-.93-.53-1 .12.2.23.89.53 1 .01-.51-.06-.05.01-.02zm.48.68c-.15-.35 0 .07 0 0z"/><path class="cls-1" d="M78.52 65c0 .22.22-.44 0 0-.01.08.03-.09 0 0zM63 86.06c1-.47 0 .87 0 0 0-.06 0 .13 0 0zm16.14-20.19c.39.71-1.16-1.1 0 0 .04.08-.14-.12 0 0zm1.47-1.51c.07 0 .93 1 0 0zM83 69c0-.09.92.35 0 0zm-1.7-3.47c.27.49.23.39 0 0zM80.54 69c-1.11-.61.66-.56 0 0-.09-.1.14-.16 0 0z"/><path class="cls-1" d="M79.3 66.3c-.32.66-.34-.66 0 0-.03.07-.07-.14 0 0zM59.86 80c-.14.58-.06.3 0 0-.03.14-.01.06 0 0zm17.29 11.33s.06.05 0 0zM81.65 66c.16.09 0 .19 0 0zm-2.1.89c-.47.16 0 0 0 0zm-.13-.36c-.19 0-.06-.11 0 0zm-1.72-2.91c-.28 0 0-.06 0 0zm5.67 5.86c-.13-.27.46.09 0 0-.02-.04.07.01 0 0zM64.13 88.06c.22-.16.09.12 0 0s.02.03 0 0zm.69.68c-.09 0-.08-.08 0 0zm17.91-15.58c.06.15-.24.1 0 0zM79.6 67c.08.15-.24.13 0 0zm.4.95c-.13.27-.14-.28 0 0zm-14.51-3.12c.13 0 .15.08 0 0 .07-.01.05.03 0 0zm7.37 30.86c-.08-.11 0-.17 0 0-.04-.06.01-.06 0 0zM83.68 70c-.23 0 .41-.2 0 0zm.09.33c.23-.11.07.15 0 0s.02.03 0 0zM64.51 88.57c.21-.17.09.12 0 0s.02.03 0 0zm-.31-.33c.11-.08.14 0 0 0zm13.55 4.71c.06 0 .1.24 0 0 .06.05.02.05 0 0zm1.76-.87c.06 0 .13.22 0 0 .06.03.03.05 0 0zM53.4 115.85s.04.04 0 0zM40.91 73.88c1.73 5.63-6.58 16-9.1 20.78a38.5 38.5 0 0 0-3.35 8c-.81 3-1.17 5.21 0 8.33.08.22 3.93 6.48 4.27 6.05-.43.54-.59-.65-.93-.28-.95 1.58 8 3.73 8.55 3.76a.44.44 0 0 1-.27-.18c1-1 7.07-1.36 8.85-2.58a14.35 14.35 0 0 0 5.3-6.73c2.57-6.49-.9-14.27-3.81-20.09.1.19.52.52.64.76-.31-.63-2.12-5.7-2.68-5.39a2.78 2.78 0 0 1 .59.61c.43-.23-4.74-7.79-4.3-8.14.19-.11 3 4.32 3.2 4.71-1.9-3.49-4.67-7.15-6-10.69 1.76 1 3.32 5.37 4.73 7 .18-.25-1.55-2-1.36-2.6 1.1 1.8 9.19 15.29 8.76 15.49-.14-.3-.25-.39-.14-.68 4.66 9.52 7.31 21.59-3.42 28.26a16.22 16.22 0 0 1-12.74 2.48c-1.72-.36-11.85-6.7-10.32-7.67.26-.1.43 0 0-.64 0 0 .85.57.43.49C21.15 104 29.39 90.38 35 80.66c-.28.47-.72.9-1 1.39.15-.86 2.7-7.57 3.61-7.57a.47.47 0 0 0-.19.42c-.53.09 5.12-3.82 3.44-1 .14.1.55-.9.05-.02zm7.2 9.12zm1.27 2.18s-.32.17 0 0c-.07 0-.02-.03 0 .02zm-.5-1zm-.35-.39c.13.23.17-.52 0 0 .03.04.03-.08.01-.01zm.39 2.21a5.08 5.08 0 0 0-1.14-1.71c.33.62.83 1.16 1.14 1.71zm.59 1c.08-.22 0-.5 0 0 .03-.08 0-.12 0 0zm.49 2.49s.32-.17 0 0c.12.02.07.04 0 0zm1.38 3.41c.06-.16-.17-.55 0 0zm3.89 11.17s0-.18 0 0zm1.56-.11c0-.13-.1-.06 0 0zm-1.75 2.15c0-.11.08-.06 0 0s.09-.04.03.01zm0 1.73c.07-.44 0 0 0 0h.05zm1.8.37s.36 0 0 0c.12.06.05.05.06 0zm-.83.49zm.33 1.94c-.37 0-.07 0 0 0zm.27-1.05c.49.11-.31-.45 0 0 .11.01.02-.06.06 0zm-.76.19c.24-.13.4-.49 0 0zm-.14.07zm0 .2c.24-.11.1-.41 0 0 .14-.05.09-.05.07 0zm.71.46zm-.71 0zm0 .21zm-4.18 7.12s-.27 0 0 0zm2.9-2.84s-.25-.17 0 0c-.07-.12-.02-.09 0 0zm1.4-3.06s.19.38 0 0zm.36-.8c.05 0 .34-.15 0 0 .05 0 .07-.05 0-.02zm-4 3.83zm-.19.14c.32.2.05 0 0 0zm-2.37 2.37c.29.08.4-.3 0 0 .05.01.01-.04-.02-.01zm.46 1.31c1.22-.92 2.63-2.15 3.39-2.77 0-.27 0-1 .45-.69v-.08.08c.13-.5 2-4.29 1.63-4.4-.62.7-4.28 8.59-5.47 7.87.02-.06-.13-.09-.02-.03zm-1.5 2.45s.16.34 0 0zm-4.35 1.63zm-3.08-1.76c.13 0 .07-.07 0 0zm-1.43-.84s0 .35 0 0c-.08.04-.08-.02-.03-.01zm-2.77-.54zm-3.33.22s-.18.32 0 0c-.04.05-.01-.03.03 0zm-2.39-4.1c-.05 0-.23.22 0 0-.08.05-.04.01.03 0zm-2 1.74s-.27.25 0 0c-.03 0 .01-.04.05 0zm.9-2.65c-.13 0 .58.61.61.65s-.4-.81-.61-.65.09-.03.05 0zm-.37-.31c.34.45.48-.12 0 0 .07.04.19-.03.04 0zm-2.11 1.2c.31.41.7.11 0 0 .11.09.2.03.04 0zm2.12-1.66c0 .14.26.47 0 0zm-2 1.22s-.26.18 0 0c-.04.02.01-.01.09 0zm1-2.29a2.15 2.15 0 0 0 .83.92c.19-1.02-.31-.52-.72-.92zm-.33-1.1c-.31.2-.06 0 0 0zm-.38-1s.28.76 0 0c-.03.06.02 0 0 0zm-.49-1.89c-.53-.24-.13.39 0 0-.07-.04-.03.1 0 0zm.08-.21c-.05.06-.05.06 0 .1s-.04 0 .01-.1zm-.23-.76c-.19.2.08.51 0 0-.05.05.02.09 0 0zm0-1.53c-.46.6 0 .43 0 0-.12.14 0 .04-.01 0zm0-.32c-.18 0 0 .4 0 0-.08 0-.02.04-.02 0zm-.23-.09s-.36 0 0 0c-.08-.05-.02-.05-.02-.01zm-.94-5.87s-.35-.12 0 0c-.06-.08-.01-.06-.02-.01zm.73-2q-.5-.25-.48.76c.51.3.17-.3.48-.76-.12-.11-.03-.09-.03-.02zm.09-.24s-.34-.13 0 0zm.3-.78zm.33-.93zm7.7-16.13c-.63.13.17.54 0 0-.1 0 0 .05-.02-.02zm.16-.39c-.06.11-.11 0 0 0s-.1 0-.02-.01zm.58-1.86c-.14.24-.91 1.33-.52 1.55s.57-1.41.52-1.55c-.03.08.02.11 0 0zm.29-.49zm.3-.83c-.1-.06-.38.63-.45.75a1 1 0 0 0 .45-.75c-.24-.11 0 .15.01.04zm.29-.6z"/><path class="cls-1" d="M44.77 80.34c0 .76-.2-.23-.43-.28-.2-.34.58-.17.43.28 0 .12.02-.08 0 0zM32.1 116.77c.77-.89.49 1 0 0 .04-.05.07.13 0 0zm13.44-35.35c.48.83-1.34-1.32 0 0 .05.09-.15-.15 0 0zm1.35-1.68c.07 0 1.12 1.26 0 0zM50 85.22c0-.1 1.05.47 0 0zm-2.23-4.08c.33.59.29.48 0 0zm-.34 3.96c-1.26-.78.63-.64 0 0-.1-.1.13-.1 0 0z"/><path class="cls-1" d="M45.77 81.94c-.24.74-.46-.8 0 0-.02.06-.1-.18 0 0zm-19.84 29.44c.16.68.13.36 0 0zM51 115.56s-.21 0 0 0c0 .04.12.01 0 0zm-2.8-33.89c.13.09 0 .28 0 0zm-2.1.96c-.46.16 0-.06 0 0zm-.17-.43c-.16 0-.08-.14 0 0zm-2.21-3.5c-.27-.07 0-.08 0 0zm6.73 7.15c-.17-.32.5.12 0 0-.02-.05.08.01 0 0zm-16.01 32.6c.13-.22.16.1 0 0 .03-.05.04.02 0 0zm1.13.44c-.09 0-.14-.06 0 0zm14.74-28.74c.1.19-.22.11 0 0zm-4.13-7.39c.1.18-.23.13 0 0zm.58 1.14c-.1.28-.19-.34 0 0zM29.19 92c.13 0 .16.08 0 0 .07 0 .05 0 0 0zM48 122c-.13-.05-.07-.17 0 0-.06-.08 0-.1 0 0zm2.85-35.54c-.27-.07.4-.21 0 0zm.15.39c.22-.12.1.19 0 0 0-.03 0 .04 0 0zm-15.86 31.97c.12-.23.17.08 0 0 .02-.05.04.02 0 0zm-.53-.2c.08-.13.11 0 0 0zm17.64-1.82c.07 0 .19.19 0 0 .08 0 .05.04 0 0zm1.54-1.85c.08 0 .21.15 0 0 .08-.01.04.05 0 0z"/></g></g></svg>