<svg xmlns="http://www.w3.org/2000/svg" viewBox="0 0 135.23 135.23"><defs><style>.cls-1{fill:#58595b}</style></defs><title>weather__clear-sky</title><g id="Layer_2" data-name="Layer 2"><g id="General_Content" data-name="General Content"><path class="cls-1" d="M51.21 53.36s.04.04 0 0zM89 68.5c7.06 7.68-7.57 19.54-13.6 21.3a25.93 25.93 0 0 1-11 .93 26 26 0 0 1-10.33-4.42c-.33-.24-7.17-6.51-6.39-7 .55-.32.54 1 .93.76-.29.32-3.65-10.36-3.7-11.27a.64.64 0 0 1-.15.37c-2-1.9 1.07-10.25 1.94-12A22.61 22.61 0 0 1 54.88 48c7.53-4.9 16.75-4.39 24.31.21-.22-.13-.82-.25-1.08-.37.79.39 5.22 4.44 5.42 4.25a4.9 4.9 0 0 1-.83-.49c.17-.19 6.53 8.09 5.32 8.75.2-.07-3-5-3.26-5.35 2.52 3.4 4.5 8.5 3.8 12.51-1.3-2.34-.57-6.07-2.36-8.59-.21.26 1.39 2.14.92 2.93A19 19 0 0 0 81.51 53c.06.05-6.29-4.67-6.48-4.2.32.11.46.12.56.42-9.69-4.71-21.07-.09-26.2 9C47.48 61.74 47 66.86 47.81 71c.29 1.53 5 11.74 5.57 11.17a.37.37 0 0 1-.32-.06c.18.16.31.51.49.67 0 0-1-.33-.57-.36 10.51 9.51 25.26 6 32.13-5.35-.29.48-.75.9-1 1.39.12-.6 2.08-7.83 2.3-7.92a.46.46 0 0 0 0 .46c-.4.24 2.29-4.64 2.67-3.41v.93c.07.09.02-1.1-.08-.02zm-4.45-13zm-1.73-2s.27-.25 0 0c.12-.04.08 0 .04-.04zm.76.93zm.42.37c-.17-.22-.09.56 0 0v-.04zm-1-2.26a8.08 8.08 0 0 0 1.62 1.61 21.38 21.38 0 0 0-1.54-1.66zm-.94-.82c0 .26.19.52 0 0 .08.03.12.07.08-.05zm-1.7-2.27s-.21.3 0 0c-.01-.04.02-.09.07-.05zM76.91 47c.07.18.56.36 0 0zm-13.77-1.92zm.08 1.56c.14 0 .06-.1 0 0zm-2.84-1.31c.14-.05.12.06 0 0 .06-.02.08.03 0 0zm-2.13.93c.54-.26 0 0 0 0s-.02-.05 0 0zm.59 1.74s.15.33 0 0c-.03.09-.05 0 0 0zm-.93-.38zm-1.44 1.64c-.25-.27 0-.06 0 0zm1-.61c.24.45.17-.54 0 0 .03.08.03-.05 0 .03zm-.68-.4c.26.06.68-.11 0 0zm-.16 0zm-.17.17c.27.07.43-.26 0 0 .09.01.11-.08.01-.02zm.16.84zm-.55-.47zm-.17.17zm-6.39 6.84s-.29.07 0 0zm2.92-3.28s-.22-.22 0 0c-.03-.13.01-.09.02-.01zm2.7-2.52c0 .07-.06.42 0 0zm.82-.49s.4.09 0 0c.05.06.05.04 0 .02zM50 52.43zm-.25.19c.33.18.06 0 0 0zm-2.41 3.73c.36-.1.32-.54 0 0 .12-.03.06-.06.03-.01zm.95 1a11.53 11.53 0 0 1 3-3.87c0-.26.15-1.09.57-.71v-.08.08a28.1 28.1 0 0 1 3.71-3.86c-2.45.59-6.64 8.43-7.25 8.44.02-.01-.13.04 0 .04zm.18 3s.35.13 0 0zm-.86 4.39zm-2.2 3c0-.14-.1-.1 0 0zm-.65 1.87s.37 0 0 0c.08.07.03.07.02.01zm.67 3.48l-.24-.93zM48 75.91s.33-.14 0 0c.1.03 0 .09 0 0zm1.12 5.41c.15-.02.1.01.02 0zm2.18-1.5s.29-.22 0 0c.09.01.05.04.02 0zm-.86 2.76c.07 0-.73-.76-.78-.83.08.11.53 1.05.78.83.15-.03-.02.03.02 0zm.49.37c-.48-.53-.5.14 0 0-.02-.05-.11.05.02-.01zm1.95-1.44c-.35-.38-.68 0 0 0-.06-.09-.14-.01.01-.01zm-1.83 2c0-.2-.41-.56 0 0zM52.78 82s.24-.24 0 0c.12-.06.08 0 0 0zm-.25 2.59a3.7 3.7 0 0 0-1.31-.89c.3 1.09.73.52 1.31.87zm1.14 1.08c.16-.32 0-.06 0 0zm1.06.79c0-.11-.8-.59 0 0-.01-.1-.04-.05 0-.02zm2.14 1.35c.31-.46-.11-.15 0 0zM57 88c0-.08 0-.08-.08-.1s.08.02.08.1zm1 .34c-.12-.33-.58-.28 0 0 0-.08-.09-.05 0 0zm1.81.86c-.54-.7-.53-.19 0 0-.11-.2-.04-.02.02 0zm.4.15c.06-.17-.48-.17 0 0 .04-.06-.04-.03.02-.01zm.19-.18s.12-.36 0 0c.09-.04.07.01.01-.01zm6.66-1s0-.38 0 0c.07-.11.07-.05.02-.05zm2.23-.06c0-.12-1-.35-1 0q.35.43 1 0c.06-.17.06-.11.01-.05zm.27 0s0-.38 0 0zm.86-.12zm1-.21c-.11-.58.07.38 0 0zm14-11.12c-.62.17.2.55 0 0-.03-.05.07 0 .04-.07zm.13-.41c-.06.12-.11 0 0 0s-.03-.05.04-.07zM86 74.3c-.09.26-.66 1.45-.31 1.62s.31-1.49.31-1.62c-.06.05 0 .07 0 0zm.19-.53zm.1-.88c-.09 0-.21.69-.26.83a.85.85 0 0 0 .26-.83c-.29-.08-.01.11-.04-.01zm.11-.66zm1.72-13.62c0-.86.22.31.41.4.15.43-.58 0-.41-.4 0-.14-.03.07 0 0z"/><path class="cls-1" d="M48.33 80c-1 .66-.36-1.48 0 0-.05 0-.05-.22 0 0zm39.02-22.72c-.48-1 1.35 1.65 0 0-.05-.11.15.18 0 0zm-1.44 1.64c-.07 0-1-1.4 0 0zm-3.64-5.35c0 .11-1.14-.21 0 0zm2.81 3.87c-.37-.59-.32-.48 0 0zm-.19-4.24c1.47.73-.51.82 0 0 .11.06-.1.16 0 0z"/><path class="cls-1" d="M87.1 56.68c.2-.76.57.9 0 0 .02-.08.13.2 0 0zM56.28 84.84c-.59-.37-.33-.2 0 0zm-7.63-31.39c-.09.12 0 0 0 0s.08-.02 0 0zm35.97 3.46c-.13-.08 0-.3 0 0zm2.07-1.02c.46-.15 0 .07 0 0zm.23.49c.13 0 .11.18 0 0zm2.08 4.3c.24.15 0 .09 0 0zm-7.37-7.6c.27.25-.52 0 0 0 .04.03-.08 0 0 0zm-35.08 23.6c-.22.1-.11-.23 0 0-.06.02-.03-.06 0 0zm-.68-1.43c.12.06.07.17 0 0zm33.92-26.37c-.21-.13.13-.2 0 0zm6.81 6.86c-.13-.21.21-.13 0 0zm-.76-1.26c0-.3.28.37 0 0zM75.79 85.86c.12 0 .07.16 0 0 .08.03.03.05 0 0zm-27.18-24.6c-.13.06-.17-.05 0 0-.08.03-.06-.02 0 0zM81 52.62c.29 0-.3.33 0 0zm-.23-.33c-.16.18-.16-.15 0 0-.04.04-.04-.03 0 0zm-34.6 23.43c-.23.09-.09-.24 0 0-.06.02-.02-.05 0 0zm.3.66c-.14.05-.11-.05 0 0zM50 54.52c.07 0 .21.16 0 0 .08-.01 0 .03 0 0zm1.77-2.12c.08 0 .19.18 0 0 .08 0 .04.04 0 0zm57.07 15.23c1.25-6.55 8.72 1.37 10.75-1.72-.54 1.46 1.77 0 2.07.63h9.19c-.28 0 0 .63 0 .69a6.78 6.78 0 0 0 1.08-.34s-.23.4-.15.4c.32 0 2-.13 2 .18s-1.21.4-1.24.4c.2 0 2.66 0 2.65.11a.68.68 0 0 1 0 .33c.08-.36-2 .33-1.8.3 0-.26.82.23.61.23-1.26.1-3 .06-3.79.06v.17h.12a.19.19 0 0 1 0 .23c-1.7-1.44-12.09.77-11.74-1-2.83 0-5.52.92-7.81.92.08 0 .25.17.37.17a3.62 3.62 0 0 1-1.71.92c-.19 0 .16-.46-.06-.46-.31.84-1.09-2.18-.51-2.18-.01-.15-.24-.04-.03-.04zm23.79.69zm-.55.06c0-.23 0-.17 0 0 .02-.06.02 0 .01 0zm.25.06zm.11-.11s.07.35 0 0c0-.01.02.05.01-.01zm-.47-.75zm-.25.06c0 .23 0 0 0 0s.04.05.01-.01zm-.53-.69c0 .24 0 .17 0 0 0 .05 0-.01.01-.01zm-.8-.29c0 .2 0 0 0 0zm-2.64-.34zm0 1.55zm-.46-2s0 .08 0 0-.02.04-.03-.02zm-.42.11c.1 0 0 0 0 0s-.04-.07-.04.02zm0 1.84c0 .23 0 .17 0 0-.08.04-.08-.02-.07-.02zm-.13-.75zm-.4.75c-.08-.07-.06-.02-.08-.02zm.23 0c0 .39 0-.25 0 0-.07.04-.06-.07-.07-.02zm-.08-.69c.05.26.18.36 0 0zm0-.12zm0 .06c.05.28.07 0 0 0s-.11-.01-.14-.01zm-.06.8zm0-.69zm0 .06zm-1.84.4c0-.21 0-.07 0 0zm.87.23c0-.34 0-.1 0 0-.21-.12-.21-.07-.22-.01zm.72-.17c.06-.23-.1.52 0 0zm.19.06c0 .19 0 .11 0 0-.22.04-.21.04-.22-.01zM124.94 66zm-.06-.06c0 .06-.01.06 0 .06zm-.81.12c0 .25.12 0 0 0s.01.02 0 .02zM124 67.4a2.83 2.83 0 0 1 1.14.23v-.06.06c0 .06.9-.91 1-.35a.43.43 0 0 0 .06-.23c-.09-.16-2.21-.09-2.17.35-.03 0-.03-.12-.03 0zm-.54 1.38c0 .25 0 .16 0 0zm-.94.23zm-.62-2zm-.35-.74c0 .23 0 .17 0 0-.02.04-.02-.02-.01-.02zm-.66.06zm-.67 1.55c0 .25 0 .16 0 0-.02.04-.02-.02 0-.02zm-1-1.78c0 .34 0 .1 0 0-.02.1-.02.04-.01-.02zm0 2.64c0 .25 0 .17 0 0-.04.04-.04-.02-.03-.02zm-.31-2.41s0-.24 0 0-.03-.08-.03-.02zm-.11.11c.13 0 0-.45 0 0-.02-.02-.02-.13-.03-.02zm-.06 2.41c.12 0 .1-.49 0 0-.01-.01-.01-.13-.03-.01zm0-2.7c0 .19 0 0 0 0zm0 2.3c0 .34 0 .1 0 0-.1.1-.1.04-.08-.02zm-.31-2.07c.18 0 .58-.72 0 0zm-.29-.11zm-.25 0c-.07.04-.07-.02-.08-.02zm-.47-.06c-.07.37.1.26 0 0-.09.04-.06.04-.08-.01zm0-.12zm-.19.12c0 .19.13 0 0 0s-.1-.01-.12-.01zm-.37-.12c.16.54.1 0 0 0s-.12.05-.12-.01zm-.08 0c0 .2.1 0 0 0s-.11-.01-.12-.01zm0 .23c0 .23 0 .17 0 0-.15.05-.15-.01-.14-.01zm-1.25 2.18c0 .25 0 .17 0 0-.15.05-.15-.01-.14-.01zm-.46 0c0-.05.25.27 0 0-.15.11-.15.05-.14-.01zm-.06 0c0 .25 0 .17 0 0zm-.18 0zm-.21.06zm-3.85.52c.11.57.08-.4 0 0-.12.04-.12-.08-.13-.02zm-.09.06s0 .08 0 0-.12.04-.13-.02zm-.4.4c.6 0 .16-.85 0 0-.12-.02-.12-.08-.13-.02zm-.12 0zm-.19.17c0 .38.2-.5 0 0-.14.29-.11-.07-.14-.01zm-.14.06zm23.67-3c-.16-.42 0 .12 0 0s.02.06 0 0z"/><path class="cls-1" d="M119.5 66.2c0-.72 0-.06 0 0s.04.05 0 0zm13.71.68c-.3 0 .47-.58 0 0-.02 0 .05-.05 0 0zm.17 2.01c0 .16-.23.24 0 0zm-1.38 0c.05.26-.22.38 0 0 0 .11 0 .11 0 0zm1 .11c-.15 0-.11 0 0 0zm-.69-2.29c.18-.45 0 .56 0 0 .03-.06.01.17 0 0z"/><path class="cls-1" d="M133.09 66.83c-.12-.63.17 0 0 0-.01-.06.05 0 0 0zm-8.45-1.27s-.11-.55 0 0c-.01 0 .01.06 0 0zm8.24 3.5c-.06.22 0 0 0 0zm.05-2.29c0-.5 0 0 0 0zm.07.06c0-.23 0 0 0 0zm.93-.12c0-.28 0 0 0 0zM131.86 69c.08 0-.07.35 0 0 .01 0-.02.06 0 0zm-11.67-2.8c0-.32 0 0 0 0zm.29-.12c0 .05 0 0 0 0zm10.52.8s0-.31 0 0zm1.89-.11s0-.33 0 0zm-.28-.06c-.06-.3.08 0 0 0zM113.51 69c0-.2 0-.09 0 0zm9.77.18c0-.21 0-.09 0 0-.01-.06 0-.06 0 0zm8.42-.12s0 .33 0 0zm-.09-.06c0 .31 0 0 0 0s-.01 0 0 0zm-11.23-2.8c0-.32 0 0 0 0s.01 0 0 0zm-.13.05c0-.07 0-.22 0 0zm4.38 1.03c0 .06 0 .25 0 0 .01.06 0 .06 0 0zm.53 0c0 .06 0 .25 0 0 .01.06 0 .06 0 0zM.21 67.63C1.5 61.08 8.93 69 11 65.91c-.56 1.45 1.77 0 2.07.63h9.19c-.28 0 0 .63 0 .69a6.76 6.76 0 0 0 1.08-.34s-.23.4-.14.4c.32 0 2-.13 2 .18s-1.21.4-1.24.4c.2 0 2.66 0 2.65.11a.69.69 0 0 1 0 .33c.08-.36-2 .33-1.8.3 0-.26.82.23.61.23-1.26.1-3 .06-3.79.06v.17h.12a.19.19 0 0 1 0 .23c-1.71-1.43-12.09.77-11.74-1-2.83 0-5.52.92-7.81.92.08 0 .25.17.37.17a3.62 3.62 0 0 1-1.71.92c-.19 0 .16-.46-.06-.46-.32.84-1.09-2.18-.51-2.18-.06-.15-.29-.04-.08-.04zm23.79.69zm-.55.06c0-.23 0-.17 0 0 .01-.06.01 0 0 0zm.25.06zm.11-.11s.07.35 0 0c-.01-.01.01.05 0-.01zm-.47-.75zm-.25.06c0 .23 0 0 0 0s.03.05.01-.01zm-.53-.69c0 .24 0 .17 0 0-.01.05-.01-.01 0-.01zm-.8-.29c0 .2 0 0 0 0zm-2.64-.34zm0 1.55zm-.46-2s0 .08 0 0-.03.04-.04-.02zm-.46.13c.1 0 0 0 0 0s0-.09 0 0zm0 1.84c0 .24 0 .17 0 0-.05.02-.05-.04-.04-.04zm-.2-.78zm-.4.75c.03-.06.04-.01.03-.01zm.23 0c0 .39 0-.25 0 0 .03.05.04-.06.03-.01zm-.08-.69c.05.26.18.36 0 0zm0-.12zm0 .06c.05.28.07 0 0 0h-.03zm-.06.8zm0-.69zm0 .06zm-1.84.4c0-.21 0-.07 0 0zm.87.23c0-.34 0-.1 0 0-.11-.11-.11-.06-.12 0zm.72-.17c.06-.23-.1.52 0 0zm.19.06c0 .19 0 .11 0 0-.11.05-.1.05-.11 0zM16.3 66zm-.05 0s-.02 0 0 0zm-.81.12c0 .25.12 0 0 0s0-.04-.01-.04zm-.09 1.32a2.82 2.82 0 0 1 1.14.23v-.06.06c0 .06.9-.91 1-.35a.43.43 0 0 0 .06-.23c-.09-.16-2.21-.09-2.17.35-.02-.04-.05-.16-.04-.04zm-.54 1.38c0 .26 0 .16 0 0zm-.94.23zm-.62-2zm-.35-.74c0 .23 0 .17 0 0-.01 0-.01-.06.01-.06zm-.66.06zm-.67 1.55c0 .26 0 .16 0 0 0 0 0-.06.01-.06zm-1-1.78c0 .34 0 .1 0 0 0 .06 0 0 .01-.06zm0 2.64c0 .23 0 .17 0 0-.03 0-.03-.06-.02-.06zm-.31-2.41s0-.25 0 0-.02-.12-.02-.06zm-.11.11c.13 0 0-.45 0 0-.01-.06-.01-.17-.02-.06zm-.06 2.41c.12 0 .1-.49 0 0 .01-.05.01-.17-.01-.05zm0-2.7c0 .19 0 0 0 0zm0 2.3c0 .34 0 .1 0 0-.09.06-.09 0-.09-.06zm-.31-2.07c.18 0 .58-.72 0 0zm-.29-.11zm-.25 0c-.06 0-.06-.06-.07-.06zm-.47-.06c-.07.37.1.26 0 0-.07 0-.04 0-.06-.05zm0-.12zm-.19.12c0 .19.13 0 0 0s-.09-.05-.11-.05zm-.37-.12c.15.54.1 0 0 0s-.11.01-.11-.05zm-.08 0c0 .2.1 0 0 0S8 66.08 8 66.08zm0 .23c0 .23 0 .18 0 0-.13.01-.13-.05-.13-.05zm-1.37 2.13c0 .25 0 .17 0 0-.01.06-.01 0 0 0zm-.46 0c0-.05.25.27 0 0-.01.12-.01.06 0 0zm-.06 0c0 .25 0 .17 0 0zm-.18 0zm-.21.06zM2 69.06c.11.57.08-.4 0 0 0 .06 0-.06 0 0zm-.09.06s0 .08 0 0 .01.06 0 0zm-.4.4c.6 0 .16-.85 0 0 .01 0 .01-.06 0 0zm-.12 0zm-.19.17c0 .38.2-.5 0 0 0 .31.02-.05 0 .01zm-.14.06zm23.81-2.98c-.16-.42 0 .12 0 0s.01.06 0 0z"/><path class="cls-1" d="M10.87 66.2c0-.72 0-.06 0 0s.03.05 0 0zm13.71.68c-.3 0 .47-.58 0 0-.02 0 .04-.05 0 0zm.16 2.01c0 .16-.23.24 0 0zm-1.35 0c.05.26-.22.38 0 0 .01.11-.04.11 0 0zm1 .11c-.15 0-.11 0 0 0zm-.71-2.29c.17-.45 0 .56 0 0 .02-.06.01.17 0 0z"/><path class="cls-1" d="M24.45 66.83c-.12-.63.17 0 0 0-.01-.06.05 0 0 0zM16 65.56s-.11-.55 0 0c0 0 0 .06 0 0zm8.24 3.5c-.06.22 0 0 0 0zm.05-2.29c0-.5 0 0 0 0zm.1.06c0-.23 0 0 0 0zm.9-.12c0-.28 0 0 0 0zM23.22 69c.08 0-.07.35 0 0 .01 0-.01.06 0 0zm-11.66-2.8c0-.32 0 0 0 0zm.29-.12c0 .05 0 0 0 0zm10.56.8s0-.31 0 0zm1.84-.11s0-.33 0 0zm-.25-.06c-.06-.3.08 0 0 0zM4.87 69c0-.2 0-.09 0 0zm9.77.18c0-.21 0-.09 0 0s0-.06 0 0zm8.19-.12c0 .08 0 .08 0 0zm.23 0s0 .33 0 0zM23 69c0 .31 0 0 0 0zm-11.25-2.8c0-.32 0 0 0 0s.01 0 0 0zm-.14.05c0-.07 0-.22 0 0zM16 67.28c0 .06 0 .25 0 0 0 .06 0 .06 0 0zm.52 0c0 .06 0 .25 0 0 .02.06 0 .06 0 0zm51.11-40.89c-6.55-1.28 1.38-8.71-1.72-10.75 1.45.55 0-1.77.63-2.07 0-2.64.06-6.27.06-9.21 0 .35.55 0 .63 0a6.76 6.76 0 0 0-.34-1.08s.4.23.4.14c0-.32-.13-2 .18-2s.4 1.21.4 1.24c0-.2 0-2.66.11-2.65a.69.69 0 0 1 .33 0c-.36-.08.33 2 .3 1.8-.26 0 .23-.82.23-.61.1 1.26.06 3 .06 3.79h.17v-.08a.19.19 0 0 1 .23 0c-1.43 1.71.77 12.09-1 11.74 0 2.83.92 5.52.92 7.81 0-.08.17-.25.17-.37a3.61 3.61 0 0 1 .92 1.72c0 .19-.46-.15-.46.06.84.32-2.18 1.09-2.18.51-.15-.01-.04.22-.04.01zm.69-23.79zm.06.55c-.23 0-.17 0 0 0-.06-.02 0-.02 0-.01zm.06-.25zm-.11-.11s.35-.07 0 0c-.01.01.05-.01-.01 0zm-.75.47zm.06.25c.23 0 0 0 0 0s.05-.03-.01-.01zm-.7.49c.23 0 .17 0 0 0 .06 0 0 0 0 0zm-.29.8c.2 0 0 0 0 0zm-.34 2.64zm1.55 0zm-2 .46s.08 0 0 0 .05.1-.01.1zm.14.5c0-.1 0 0 0 0s-.09 0 0 0zm1.84 0c.23 0 .17 0 0 0 .02.04-.03.04-.03.03zm-.75.13zm.75.4c-.09.07-.03.07-.03.07zm0-.23c.39 0-.25 0 0 0 .02.03-.09.02-.03.03zm-.69.08c.26-.05.36-.18 0 0zm-.12 0zm.06 0c.28-.05 0-.07 0 0s-.03.08-.03.1zm.8.06zm-.69 0zm.06 0zm.4 1.84c-.21 0-.07 0 0 0zm.23-.87c-.34 0-.1 0 0 0-.14.19-.08.19-.03.19zm-.17-.72c-.23-.06.52.1 0 0zm.06-.19c.19 0 .11 0 0 0 .03.18.03.17-.03.18zM66 10.29zm-.06.06c.06 0 .06.01.06 0zm.12.81c.25 0 0-.12 0 0s.02-.01.02 0zm1.32.09a2.93 2.93 0 0 1 .23-1.14h-.06.06c.06 0-.9-.9-.34-1a.43.43 0 0 0-.23-.06c-.16.09-.09 2.21.35 2.17.01.02-.1.04.01.03zm1.38.54c.25 0 .17 0 0 0zm.23.94zm-2 .62zm-.74.35c.24 0 .16 0 0 0 .06 0 .01 0 .01-.01zm.06.66zm1.55.67c.26 0 .16 0 0 0 .06-.03 0-.03 0-.03zm-1.78 1c.34 0 .1 0 0 0 .12-.03.06-.03 0-.03zm2.64 0c.23 0 .17 0 0 0 .06.02 0 .02 0-.03zm-2.41.31c.12.02-.05.01 0 .01zm.11.11c0-.13-.45 0 0 0 .01 0-.11 0 .01.01zm2.41.06c0-.12-.49-.1 0 0 .01-.01-.11-.01.01.01zm-2.7 0c.19 0 0 0 0 0zm2.3 0c.34 0 .1 0 0 0 .12.08.06.08.01.07zm-2.07.31c0-.18-.72-.58 0 0zm-.11.29zm0 .25s0-.21 0 0c.06.05.01.05.01.06zm-.06.47c.37.07.26-.1 0 0 .07.07.07.04.01.06zm-.12 0zm.12.19c.19 0 0-.13 0 0s.01.08.01.1zm-.12.37c.54-.15 0-.1 0 0s.07.1.01.1zm0 .08c.2 0 0-.1 0 0s.01.09.01.1zm.23 0c.23 0 .17 0 0 0 .07.13.01.13.01.12zm2.18 1.25c.24 0 .17 0 0 0 .07.13.01.13.01.12zm0 .46c-.06 0 .26-.25 0 0 .13.13.07.13.01.12zm0 .06c.24 0 .18 0 0 0zm0 .18zm.06.21zm.52 3.85c.57-.11-.41-.08 0 0 .07.11-.06.11.01.12zm.06.09s.08 0 0 0 .06.1.01.12zm.4.4c0-.6-.85-.16 0 0 .01.11-.05.11.01.12zm0 .12zm.17.19c.38 0-.5-.2 0 0 .31.12-.05.1.01.12zm.06.14zM66.77 1.73c-.42.16.12 0 0 0s.06-.01 0 0z"/><path class="cls-1" d="M66.2 15.73c-.72 0-.06 0 0 0s.06-.03 0 0zM66.89 2c0 .31-.58-.47 0 0 0 0-.06 0 0 0zm2.01-.15c.16 0 .24.23 0 0zm0 1.36c.26-.05.38.22 0 0 .1-.01.1.03 0 0zm.1-1c0 .15 0 .11 0 0zm-2.29.71c-.45-.17.56 0 0 0-.06-.02.18-.01 0 0z"/><path class="cls-1" d="M66.83 2.14c-.63.12 0-.18 0 0-.06.01 0-.04 0 0zm-1.26 8.45s-.55.11 0 0c0 .02.06-.01 0 0zm3.5-8.24c.22.06 0 0 0 0zm-2.3-.04c-.5 0 0 0 0 0zm.06-.1c-.23 0 0 0 0 0zm-.12-.91c-.28 0 0 0 0 0zM69 3.38c0-.08.35.07 0 0 0-.01.07.01 0 0zM66.2 15c-.32 0 0 0 0 0zm-.12-.25c.05 0 0 0 0 0zm.81-10.56s-.31 0 0 0zm-.12-1.85s-.33 0 0 0zm-.06.28c-.3.06 0-.08 0 0zM69 21.72c-.21 0-.09 0 0 0zm.18-9.72c-.21 0-.09 0 0 0s-.05 0 0 0zM69 3.62c.31 0 0 0 0 0s0 .01 0 0zm-2.8 11.23c-.32 0 0 0 0 0s0-.01 0 0zm.06.15c-.07 0-.22 0 0 0zm1.03-4.39c.06 0 .25 0 0 0 .06-.02.06 0 0 0zm0-.54c.06 0 .25 0 0 0 .06-.01.06 0 0 0zM67.63 135c-6.55-1.28 1.39-8.71-1.72-10.75 1.45.55 0-1.77.63-2.07V113c0 .28.63 0 .69 0a6.76 6.76 0 0 0-.34-1.08s.4.23.4.14c0-.32-.13-2 .18-2s.4 1.21.4 1.24c0-.2 0-2.66.11-2.65a.69.69 0 0 1 .33 0c-.36-.08.33 2 .3 1.8-.26 0 .23-.82.23-.61.1 1.26.06 3 .06 3.79h.17v-.12a.19.19 0 0 1 .23 0c-1.43 1.72.77 12.09-1 11.74 0 2.83.92 5.52.92 7.81 0-.08.17-.25.17-.37a3.61 3.61 0 0 1 .92 1.72c0 .19-.46-.16-.46.06.84.32-2.18 1.09-2.18.51-.15.02-.04.25-.04.02zm.69-23.79zm.06.55c-.23 0-.17 0 0 0-.06 0 0 0 0 .01zm.06-.25zm-.11-.11s.35-.07 0 0c-.01.03.05.01-.01.02zm-.75.47zm.06.25c.23 0 0 0 0 0s.05-.01-.01.01zm-.69.53c.23 0 .17 0 0 0 .05.03-.01.03-.01.02zm-.29.8c.2 0 0 0 0 0zm-.34 2.64zm1.55 0zm-2 .46s.08 0 0 0 .04.05-.02.06zm.13.45c0-.1 0 0 0 0s-.09 0 0 0zm1.84 0c.23 0 .17 0 0 0 .02.08-.03.08-.03.07zm-.75.13zm.75.4c-.09.07-.03.06-.03.07zm0-.23c.39 0-.25 0 0 0 .02.07-.09.06-.03.07zm-.69.08c.26-.05.36-.18 0 0zm-.12 0zm.06 0c.28-.05 0-.07 0 0s-.03.11-.03.13zm.8.06zm-.69 0zm.06 0zm.4 1.84c-.21 0-.07 0 0 0zm.23-.87c-.34 0-.1 0 0 0-.14.2-.08.2-.03.22zm-.17-.72c-.23-.06.52.1 0 0zm.06-.19c.19 0 .11 0 0 0 .03.21.03.2-.03.21zM66 118.93zm0 .07zm.12.81c.25 0 0-.12 0 0s-.04-.03-.04-.02zm1.32.09a2.93 2.93 0 0 1 .23-1.14h-.06.06c.06 0-.9-.9-.34-1a.43.43 0 0 0-.23-.06c-.16.09-.09 2.21.35 2.17-.05 0-.16.03-.05.01zm1.38.54c.25 0 .17 0 0 0zm.23.94zM67 122zm-.74.35c.24 0 .16 0 0 0 .05-.02 0-.02 0-.03zm.06.66zm1.55.67c.26 0 .16 0 0 0 .05-.02-.01-.02-.01-.03zm-1.78 1c.34 0 .1 0 0 0 .11-.02.05-.02-.01-.03zm2.64 0c.23 0 .17 0 0 0 .05.01-.01.01-.01-.01zm-2.41.31c.11.01-.06.01-.01.01zm.11.11c0-.13-.45 0 0 0 0-.01-.12-.01 0 0zm2.41.06c0-.12-.49-.1 0 0 0-.03-.12-.03 0-.01zm-2.7 0c.19 0 0 0 0 0zm2.3 0c.34 0 .1 0 0 0 .11.06.05.06 0 .05zm-2.07.31c0-.18-.72-.58 0 0zm-.11.29zm0 .25s0-.21 0 0c.05-.01 0-.01 0 .05zm-.06.47c.37.07.26-.1 0 0 .06.05.06.02 0 .04zm-.12 0zm.12.19c.19 0 0-.13 0 0v.09zm-.12.37c.54-.15 0-.1 0 0s.06.08 0 .08zm0 .08c.2 0 0-.1 0 0v.08zm.23 0c.23 0 .17 0 0 0 .06.12 0 .12 0 .1zm2.18 1.25c.24 0 .17 0 0 0 .06.11 0 .11 0 .1zm0 .46c-.06 0 .27-.25 0 0 .12.11.06.11 0 .1zm0 .06c.24 0 .17 0 0 0zm0 .18zm.06.21zm.52 3.85c.57-.11-.41-.08 0 0 .06.09-.07.09 0 .1zm.06.09s.08 0 0 0 .05.09 0 .1zm.4.4c0-.61-.85-.16 0 0 0 .09-.06.09 0 .1zm0 .12zm.17.19c.38 0-.5-.2 0 0 .3.07-.06.07 0 .07zm.06.14zm-2.99-23.71c-.42.16.12 0 0 0s.06-.01 0 0z"/><path class="cls-1" d="M66.2 124.36c-.72 0-.06 0 0 0s.06-.03 0 0zm.69-13.71c0 .31-.58-.47 0 0 0 .02-.06-.04 0 0zm2.01-.17c.16 0 .24.23 0 0zm0 1.36c.26-.05.38.22 0 0 .1-.01.1.04 0 0zm.1-1c0 .15 0 .11 0 0zm-2.29.71c-.45-.18.56 0 0 0-.06-.02.18-.01 0 0z"/><path class="cls-1" d="M66.83 110.77c-.63.12 0-.18 0 0-.06.01 0-.04 0 0zm-1.26 8.46s-.55.11 0 0c0 .01.06-.01 0 0zm3.5-8.23c.22.06 0 0 0 0zm-2.3-.06c-.5 0 0 0 0 0zm.06-.1c-.23 0 0 0 0 0zm-.12-.9c-.28 0 0 0 0 0zM69 112c0-.08.35.07 0 0 0 0 .07 0 0 0zm-2.8 11.67c-.32 0 0 0 0 0zm-.12-.29c.05 0 0 0 0 0zm.81-10.56s-.31 0 0 0zm-.12-1.82s-.33 0 0 0zm-.06.25c-.3.06 0-.08 0 0zm2.29 19.1c-.2 0-.09 0 0 0zm.18-9.76c-.21 0-.09 0 0 0s-.05 0 0 0zm-.18-8.34c.31 0 0 0 0 0s0 .01 0 0zm-2.8 11.23c-.32 0 0 0 0 0s0-.01 0 0zm.06.14c-.07 0-.22 0 0 0zm1.03-4.38c.06 0 .25 0 0 0 .06-.01.06 0 0 0zm0-.54c.06 0 .25 0 0 0 .06-.01.06 0 0 0zm30.36-81.09c-3.72-5.54 7.13-5.17 6.38-8.82.64 1.42 1.25-1.25 1.91-1 1.87-1.87 4.47-4.39 6.55-6.47-.25.25.38.4.45.44a6.76 6.76 0 0 0 .52-1s.12.44.18.38c.23-.23 1.3-1.49 1.53-1.28s-.57 1.14-.59 1.16c.14-.14 1.91-1.86 2-1.8a.69.69 0 0 1 .22.25c-.2-.31-1.15 1.62-1.06 1.49-.2-.17.74-.42.59-.27-.82 1-2.06 2.15-2.64 2.72 0 0 .12.16.1.15l.09-.09a.19.19 0 0 1 .15.17c-2.22.2-8 9.09-9 7.57-2 2-3.25 4.55-4.87 6.17.06-.06.3-.06.38-.14a3.62 3.62 0 0 1-.56 1.86c-.13.13-.22-.43-.36-.28.37.81-2.32-.77-1.91-1.18-.13-.13-.21.12-.06-.03zM115 21.28zm-.35.43c-.13-.2-.12-.12 0 0-.07-.06-.03-.02-.04-.01zm.21-.13zm0-.16s.29.2 0 0c-.04 0 .01.02-.04-.01zm-.86-.2zm-.13.21c.19.13 0 0 0 0s.02.02-.04-.01zm-.86-.11c.13.2.12.12 0 0-.01.04-.01 0-.01 0zm-.77.36c.17.11 0 0 0 0zm-2.11 1.63zm1.06 1.13zm-1.74-1.1s.07 0 0 0 .01.03-.04-.01zm-.22.38c.07-.07 0 0 0 0s-.08-.05-.04-.01zm1.23 1.28c.13.19.12.12 0 0 .04.08 0 0 0 0zm-.62-.43zm.24.81l.01.03zm.17-.17c.28.28-.14-.21 0 0 .04.08-.03-.01 0 .04zm-.54-.43c.22.15.38.13 0 0zm-.1-.07zm0 .07c.23.16.05-.05 0 0s.03.03.01.04zm.53.61zm-.52-.45zm0 .07zm-1 1.58c-.15-.15-.06 0 0 0zm.78-.45c-.21-.26-.07-.07 0 0-.07-.05-.03-.01 0 .04zm.39-.63c-.12-.21.3.44 0 0zm.18-.09c.13.13.09.06 0 0s.03.06.03.03zm-2.08-.36zm-.08 0s-.01.04 0 .03zm-.49.66c.21.15.09-.09 0 0s0 .02 0 .03zm.87 1a2.94 2.94 0 0 1 1-.64s0-1.28.45-.94a.42.42 0 0 0-.12-.2c-.17 0-1.63 1.5-1.29 1.78-.03.02-.13-.05-.04.02zm.59 1.35c.15.21.12.12 0 0zm-.5.82zm-1.86-1zm-.77-.28c.14.2.12.12 0 0 .03.1-.01.06 0 .05zm-.43.5zm.62 1.57c.15.22.11.11 0 0 .04.1 0 .06.01.05zm-2-.55c.22.27.07.07 0 0 .16.14.08.1.04.05zm1.85 1.88c.14.2.12.12 0 0 .08.1.04.06.04.05zm-1.93-1.48c.12.14.01.01.05.05zm0 .16c.09-.09-.29-.35 0 0 .06.04-.02-.04.05.05zm1.67 1.74c.08-.09-.28-.41 0 0 .06.04-.02-.04.05.05zm-1.93-1.88c.16.11 0 0 0 0zm1.61 1.64c.22.26.07.07 0 0 .12.14.08.1.04.05zM103.47 30c.13-.13-.1-.92 0 0zm-.28.13zm-.17.17s-.02-.01-.02 0zm-.37.29c.21.31.25.11 0 0 .03.05.05.02-.01 0zm-.11-.06zm-.05.22c.16.11.1-.1 0 0s0-.01-.01 0zm-.34.18c.49.27.07-.07 0 0 .09.07.03.07-.02 0zm-.05.05c.14.14.07-.07 0 0s-.01.02-.02.02zm.15.18c.12.19.12.13 0 0 .01.05-.03.01-.02 0zm.66 2.42c.14.2.12.12 0 0 .01.06-.03.01-.02.01zm-.32.32s.37 0 0 0c.05.1.01.1-.03.01zm0 0c.14.21.12.12 0 0zm-.13.13zm-.11.19zm-2.36 3.09c.48.33-.23-.34 0 0 .01.08-.09 0-.06.05zm0 .1s.07 0 0 0 .01.08-.08.05zm0 .57c.43-.43-.49-.72 0 0-.08.02-.12.02-.08.02zm-.09.09zm0 .26c.27.27-.21-.5 0 0 .1.24-.12-.02-.09.04zm-.06.14zm14.63-18.91c-.41-.19.1.07 0 0s.05.04 0 0z"/><path class="cls-1" d="M104.17 29.06c-.51-.51-.07 0 0 0s.06.02 0 0zm10.18-9.21c-.21.22-.08-.75 0 0-.01.02-.01-.07 0 0zm1.54 1.3c.11.11 0 .33 0 0zm-.96.96c.22.15.12.42 0 0 .07.04.02.07 0 0zm.75-.66c-.1.11-.06.09 0 0zm-2.09-1.09c-.19-.44.42.37 0 0-.03-.05.13.12 0 0z"/><path class="cls-1" d="M114.22 19.9c-.53-.36.12-.12 0 0-.04-.04.04-.03 0 0zm-6.87 5.1s-.46-.31 0 0c0 0 .05 0 0 0zm8.31-3.37c.11.19 0 0 0 0zm-1.6-1.63c-.34-.37 0 0 0 0zm.12-.06c-.14-.18 0 0 0 0zm.55-.72c-.18-.22 0 0 0 0zm.16 3.09c.06-.06.2.3 0 0 .01-.01.03.05 0 0zm-10.23 6.26c-.23-.22 0 0 0 0zm.12-.29zm8.04-6.89s-.22-.22 0 0zM114 20s-.23-.23 0 0zm-.2.15c-.26-.17.06-.06 0 0zm-11.88 15.13c-.17-.11-.06-.06 0 0s-.04-.04 0 0zm7.03-6.78c-.18-.12-.06-.06 0 0s-.04-.04 0 0zm5.77-6.01c.22.22 0 0 0 0s-.01 0 0 0zm-9.93 5.95c-.22-.23 0 0 0 0s.01-.01 0 0zm-.05.13c-.05-.05-.13-.18 0 0zm3.82-2.36c.05 0 .18.18 0 0 .05.03.04.04 0 0zm.38-.38s.18.18 0 0c.06.03.06.04 0 0zM19.1 116.15c-3.72-5.55 7.14-5.18 6.38-8.82.64 1.42 1.24-1.26 1.91-1 .53-.53 1.48-2.5 2.14-3.19 1.5-1.56 3-1.84 4.41-3.28-.24.25.37.39.45.44a6.75 6.75 0 0 0 .52-1s.12.44.18.38c.23-.23 1.3-1.49 1.53-1.28s-.57 1.14-.59 1.16c.14-.14 1.91-1.86 2-1.8a.67.67 0 0 1 .22.25c-.2-.31-1.15 1.62-1.06 1.49-.21-.17.74-.4.59-.27-.82 1-2.06 2.15-2.64 2.72 0 0 .12.16.1.15l.09-.09a.19.19 0 0 1 .15.17c-2.22.2-8 9.09-9 7.57-2 2-3.25 4.55-4.87 6.17.06-.06.3-.06.38-.14a3.62 3.62 0 0 1-.57 1.86c-.13.13-.21-.43-.36-.28.37.82-2.32-.77-1.91-1.18-.15-.12-.15.12-.05-.03zm17.31-16.33zm-.35.43c-.13-.2-.12-.12 0 0-.06-.05.01-.01.01 0zm.21-.13zm0-.16s.29.2 0 0c0 .04.06.04.01.04zm-.86-.2zm-.13.21c.19.13 0 0 0 0s.06.03.01.03zm-.86-.11c.13.2.12.12 0 0 .03.05-.01.01 0 0zm-.77.36c.17.11 0 0 0 0zm-2.11 1.63zM32.6 103zm-1.74-1.1s.07 0 0 0 .05.01 0-.02zm-.22.38c.07-.07 0 0 0 0s-.04-.06 0-.02zm1.28 1.33c.13.19.12.12 0 0 .08.02-.01-.02 0-.03zm-.62-.43zm.24.81s.01.01 0 .01zm.17-.17c.27.28-.15-.21 0 0 .04.01-.04-.07 0-.03zm-.54-.43c.22.15.38.13 0 0zm-.1-.07zm0 .07c.23.16.05-.05 0 0s.02-.04.01-.02zm.53.61zm-.52-.45zm0 .07zm-1 1.58c-.15-.15-.06 0 0 0zm.78-.45c-.21-.26-.07-.07 0 0-.08-.11-.04-.07 0-.03zm.39-.63c-.12-.21.3.44 0 0zm.18-.09c.13.13.09.06 0 0s.04-.03-.01-.03zm-2.08-.36zm-.08 0s-.02-.03-.01-.04zm-.49.66c.21.14.09-.09 0 0s0-.05-.01-.04zm.87 1a3 3 0 0 1 1-.64s0-1.28.45-.94a.44.44 0 0 0-.12-.2c-.17 0-1.63 1.5-1.29 1.78-.04-.05-.14-.11-.05-.04zm.59 1.35c.14.21.12.12 0 0zm-.5.82zm-1.86-1zm-.77-.28c.13.2.12.12 0 0 .03.03-.01-.01 0-.02zm-.42.5zm.62 1.57c.15.22.11.11 0 0 .03.03-.01-.01-.01-.02zm-2-.55c.22.27.07.07 0 0 .1.08.06.03.03-.01zm1.85 1.88c.14.2.12.12 0 0 .06.04.02 0 .03-.01zm-1.92-1.48c.1.07-.02-.05.02-.01zm0 .16c.09-.09-.28-.35 0 0 .03-.02-.05-.1.03-.02zm1.69 1.7c.09-.08-.28-.41 0 0 .02 0-.06-.07 0 0zM25 108.14c.16.11 0 0 0 0zm1.61 1.64c.22.27.07.07 0 0 .07.09.03.05 0 0zm-1.68-1.24c.13-.12-.1-.93 0 0zm-.28.13zm-.17.17s0-.01-.01 0zm-.37.29c.21.31.25.12 0 0 .02.05.04.03-.01 0zm-.11-.06zm-.05.22c.16.11.1-.09 0 0s0-.01-.02.01zm-.34.18c.5.28.07-.08 0 0 .09.06.02.05-.02 0zm-.06.05c.14.14.07-.07 0 0s-.01 0-.02.01zm.15.18c.13.2.12.12 0 0 .01.06-.03.02-.02.01zm.66 2.42c.14.2.12.12 0 0 .01.06-.03.02-.02.01zm-.32.32s.37 0 0 0c.05.11.01.06-.04.01zm0 0c.14.21.12.12 0 0zm-.13.13zm-.11.19zm-2.36 3.09c.48.33-.23-.34 0 0-.01.08-.09 0-.06.05zm0 .1s.07 0 0 0-.03.05-.08.05zm0 .57c.43-.43-.49-.72 0 0-.07.04-.11 0-.08.05zm-.09.09zm0 .26c.27.27-.21-.5 0 0 .12.25-.11-.01-.09.04zm-.06.14zm14.64-18.9c-.41-.19.1.07 0 0s.07.03 0 0z"/><path class="cls-1" d="M25.62 107.6c-.51-.51-.07 0 0 0s.07.02 0 0zm10.19-9.2c-.21.22-.08-.75 0 0-.02.01-.01-.08 0 0zm1.54 1.3c.11.11 0 .33 0 0zm-.97.96c.22.15.12.43 0 0 .05.03.02.06 0 0zm.75-.66c-.1.1-.07.09 0 0zM35 98.91c-.19-.44.42.37 0 0 0-.06.18.09 0 0z"/><path class="cls-1" d="M35.68 98.44c-.53-.35.13-.13 0 0-.05-.03.03-.03 0 0zm-6.87 5.09s-.46-.31 0 0c-.01 0 .05.03 0 0zm8.3-3.36c.11.19 0 0 0 0zm-1.59-1.65c-.34-.37 0 0 0 0zm.11-.03c-.14-.18 0 0 0 0zm.56-.72c-.18-.22 0 0 0 0zm.16 3.09c.06-.06.2.3 0 0 .01-.01.03.05 0 0zm-10.24 6.26c-.23-.22 0 0 0 0zm.12-.29zm8.04-6.9s-.22-.22 0 0zm1.23-1.39s-.23-.23 0 0zm-.24.16c-.25-.17.06-.06 0 0zm-11.88 15.13c-.17-.11-.06-.06 0 0s-.04-.04 0 0zM30.4 107c-.18-.12-.06-.06 0 0s-.04 0 0 0zm5.77-6c.22.22 0 0 0 0zm-9.92 6c-.23-.22 0 0 0 0zm-.06.12c-.05-.05-.12-.18 0 0zm3.81-2.37c.05 0 .18.18 0 0 .07.03.06.04 0 0zm.4-.38c.05 0 .18.18 0 0 .04.04.04.04 0 0zm67.22-6.73c5.53-3.73 5.18 7.14 8.82 6.38-1.42.63 1.25 1.25 1 1.91.53.53 2.5 1.48 3.19 2.14 1.56 1.5 1.85 3 3.28 4.41-.25-.24-.39.37-.44.45a6.82 6.82 0 0 0 1 .52s-.44.12-.38.18c.23.23 1.49 1.3 1.28 1.53s-1.14-.57-1.16-.59c.14.14 1.86 1.91 1.8 2a.69.69 0 0 1-.25.22c.31-.2-1.62-1.15-1.49-1.06.17-.2.42.74.27.59-1-.82-2.15-2.06-2.72-2.64l-.15.1s.08.1.09.09a.19.19 0 0 1-.17.15c-.2-2.22-9.09-8-7.57-9-2-2-4.55-3.25-6.17-4.87.06.06.06.3.14.38a3.61 3.61 0 0 1-1.86-.56c-.13-.13.43-.21.28-.36-.82.37.77-2.31 1.18-1.91.13-.13-.12-.21.03-.06zM114 114.95zm-.43-.35c.2-.13.12-.12 0 0 .01-.03-.03.01-.04 0zm.13.21zm.16 0s-.2.3 0 0c-.05 0-.07.05-.04 0zm.2-.86zm-.22-.13c-.13.19 0 0 0 0s-.06.06-.03 0zm.11-.86c-.2.13-.13.12 0 0-.08.04-.04-.01-.04.04zm-.36-.77c-.11.17 0 0 0 0zm-1.63-2.11zm-1.13 1.06zm1.1-1.74s0 .07 0 0-.07.05-.03 0zm-.38-.22c.07.07 0 0 0 0s.01-.04-.03 0zm-1.33 1.28c-.19.13-.12.12 0 0-.07.03-.03-.01-.02 0zm.43-.62zm-.81.24h-.02zm.17.17c-.27.28.21-.14 0 0-.07.03-.01-.04-.01-.01zm.43-.54c-.15.22-.13.38 0 0zm.07-.1zm-.07 0c-.16.23.05.05 0 0s-.02.02-.03 0zm-.61.53zm.45-.52zm-.07 0zm-1.58-1c.15-.15 0-.06 0 0zm.45.78c.26-.21.07-.07 0 0 .06-.08.02-.04-.03-.01zm.63.39c.21-.12-.44.3 0 0zm.09.18c-.13.13-.06.09 0 0s-.05.03-.02.03zm.36-2.08zm0-.08s-.03-.02-.02-.01zm-.66-.49c-.14.21.08.09 0 0s-.01-.01-.02-.01zm-1 .87a2.91 2.91 0 0 1 .64 1s1.28 0 .94.45a.43.43 0 0 0 .2-.12c0-.17-1.5-1.63-1.78-1.29-.01-.04.06-.14-.01-.05zm-1.35.59c-.21.15-.12.12 0 0zm-.83-.5zm1-1.86zm.28-.77c-.2.14-.12.12 0 0-.07.03-.03-.01-.03-.01zm-.5-.43zm-1.57.62c-.21.14-.12.12 0 0-.08.03-.04-.01-.03 0zm.55-2c-.26.22-.07.07 0 0-.08.11-.08.07-.03.03zm-1.88 1.85c-.2.14-.12.12 0 0-.08.07-.04.03-.03.04zm1.48-1.93c-.12.11.01 0-.03.04zm-.16 0c.1.09.35-.28 0 0-.02.05.06-.03-.03.04zm-1.74 1.67c.09.09.41-.28 0 0-.02.05.06-.03-.03.04zm1.88-1.93c-.11.16 0 0 0 0zm-1.66 1.65c-.27.22-.07.07 0 0-.1.07-.06.03 0 0zm1.24-1.68c.14.13.92-.1 0 0zm-.13-.28zm-.17-.17s0-.02-.01-.02zm-.29-.37c-.31.21-.11.25 0 0-.05.02-.03.04-.01-.02zm.06-.11zm-.22-.05c-.11.16.1.09 0 0s.01-.01-.01-.02zm-.18-.34c-.27.49.07.07 0 0-.07.08-.05.02-.01-.02zm-.05-.06c-.14.14.07.07 0 0s0-.01-.01-.02zm-.18.15c-.19.13-.12.12 0 0-.08.01-.02-.03-.01-.02zm-2.42.66c-.21.14-.12.12 0 0-.06.01-.02-.03-.02-.02zm-.32-.32s0 .37 0 0c-.11.05-.07.01-.02-.03zm0 0c-.21.14-.12.12 0 0zm-.13-.13zm-.19-.11zm-3.09-2.36c-.33.48.34-.23 0 0-.09.02-.01-.09-.05-.06zm-.1 0s0 .07 0 0-.09-.03-.06-.08zm-.57 0c.43.43.72-.49 0 0-.05-.07-.01-.12-.06-.08zm-.09-.09zm-.26 0c-.27.27.5-.22 0 0-.25.11.01-.11-.05-.09zm-.14-.06zm18.9 14.64c.19-.41-.07.1 0 0s-.04.04 0 0z"/><path class="cls-1" d="M106.17 104.16c.51-.51 0-.07 0 0s-.02.07 0 0zm9.21 10.18c-.21-.21.74-.08 0 0-.01-.01.07-.01 0 0zm-1.3 1.54c-.11.11-.33 0 0 0zm-.96-.96c-.15.22-.42.11 0 0-.04.08-.07.02 0 0zm.66.75c-.1-.1-.09-.07 0 0zm1.09-2.09c.44-.19-.37.42 0 0 .05-.03-.12.13 0 0z"/><path class="cls-1" d="M115.33 114.22c.35-.53.12.13 0 0 .04-.05.04.03 0 0zm-5.08-6.88s.31-.46 0 0c-.01 0-.03.05 0 0zm3.35 8.31c-.19.11 0 0 0 0zm1.66-1.59c.37-.34 0 0 0 0zm.03.11c.18-.15 0 0 0 0zm.71.55c.22-.18 0 0 0 0zm-3.08.16c.06.06-.3.2 0 0 .01.01-.05.03 0 0zm-6.26-10.23c.23-.22 0 0 0 0zm.29.12zm6.9 8.04s.22-.22 0 0zm1.38 1.19s.23-.23 0 0zm-.15-.21c.17-.25.06.06 0 0zm-15.13-11.88c.11-.17.06-.06 0 0s.05-.04 0 0zm6.78 7.03c.12-.18.06-.06 0 0s.04-.04 0 0zm6.02 5.77c-.22.22 0 0 0 0s-.01-.01 0 0zm-5.96-9.93c.23-.22 0 0 0 0s.01.01 0 0zm-.13-.05c.05-.05.18-.13 0 0zm2.34 3.82s-.18.18 0 0c0 .05 0 .04 0 0zm.4.38s-.18.18 0 0c-.03.07-.04.07 0 0zM19.08 19.09c5.53-3.73 5.18 7.14 8.82 6.38-1.42.64 1.25 1.24 1 1.91.53.53 2.5 1.48 3.19 2.14 1.56 1.5 1.84 3 3.28 4.41-.25-.24-.39.37-.44.45a6.84 6.84 0 0 0 1 .52s-.44.12-.38.18c.23.23 1.49 1.3 1.28 1.53s-1.14-.57-1.16-.59c.14.14 1.86 1.91 1.8 2a.69.69 0 0 1-.25.22c.31-.2-1.62-1.15-1.49-1.06.17-.2.42.74.27.59-1-.82-2.15-2.06-2.72-2.64l-.15.1.09.09a.19.19 0 0 1-.17.15c-.2-2.22-9.09-8-7.57-9-2-2-4.55-3.25-6.17-4.87.06.06.06.3.14.38a3.62 3.62 0 0 1-1.86-.57c-.13-.13.43-.21.28-.36-.82.37.77-2.32 1.18-1.91.12-.14-.12-.2.03-.05zM35.41 36.4zm-.41-.34c.2-.13.12-.12 0 0 0-.06 0 0 0 0zm.13.21zm.16 0s-.2.3 0 0c-.02-.01-.04.05-.01 0zm.2-.86zm-.22-.13c-.13.19 0 0 0 0s-.03.05-.01 0zm.11-.86c-.2.13-.13.12 0 0-.06.02-.02-.02-.01-.01zm-.38-.78c-.11.17 0 0 0 0zm-1.63-2.11zm-1.11 1.07zm1.1-1.74s0 .07 0 0-.04.04-.01-.01zm-.36-.23c.07.08 0 0 0 0s0-.03 0 0zm-1.33 1.28c-.19.13-.12.12 0 0-.07.03-.03-.01-.02 0zm.43-.62zm-.81.24s-.01.01-.02 0zm.17.17c-.28.28.21-.14 0 0-.06.04.02-.03-.02 0zm.43-.54c-.15.22-.13.38 0 0zm.07-.1zm-.07 0c-.16.23.05.05 0 0s-.01.02-.03.01zm-.61.53zm.45-.52zm-.07 0zm-1.58-1c.15-.15 0-.06 0 0zm.45.78c.26-.22.07-.07 0 0 .07-.07.03-.03-.02 0zm.63.39c.21-.12-.44.3 0 0zm.09.18c-.13.13-.06.09 0 0s-.05.04-.02-.01zm.36-2.08zm0-.08s-.02-.01-.01-.01zm-.66-.49c-.15.21.09.09 0 0l-.01-.01zm-1 .87a2.84 2.84 0 0 1 .64 1s1.28 0 .94.45a.43.43 0 0 0 .2-.12c0-.17-1.5-1.63-1.78-1.29 0-.04.05-.14-.01-.05zm-1.35.59c-.21.14-.12.12 0 0zm-.82-.5zm1-1.86zm.22-.77c-.2.13-.12.12 0 0 0 .03 0-.01 0 0zm-.5-.43zm-1.5.63c-.22.15-.11.12 0 0-.09.03-.05-.01 0 0zm.55-2c-.27.22-.07.07 0 0-.14.1-.09.06-.04.03zm-1.88 1.85c-.2.14-.12.12 0 0-.1.06-.06.02-.05.03zm1.48-1.93c-.15.11 0 0-.04.04zm-.16 0c.09.09.35-.28 0 0 .01.05.01-.04-.04.04zm-1.79 1.7c.08.08.41-.28 0 0 .02.02.1-.06 0 0zM27.09 25c-.11.16 0 0 0 0zm-1.64 1.6c-.26.21-.07.07 0 0-.09.07-.05.03 0 0zm1.24-1.68c.12.13.93-.1 0 0zm-.13-.28zm-.17-.17s.01 0 0-.01zm-.29-.37c-.31.22-.11.25 0 0-.05.02-.03.05 0-.01zm.06-.11zm-.22-.05c-.11.16.1.1 0 0s.06 0-.01-.02zm-.18-.34c-.27.49.07.08 0 0-.06.09-.04.02 0-.02zm-.06-.05c-.14.14.07.07 0 0s.01-.02 0-.02zm-.18.15c-.19.13-.12.12 0 0-.04 0-.01-.04 0-.03zm-2.42.66c-.21.14-.12.12 0 0-.1.01-.01-.04 0-.03zm-.32-.36s0 .37 0 0c-.09.08-.05 0 0 0zm0 0c-.21.14-.12.12 0 0zm-.13-.13zm-.19-.11zm-3.09-2.36c-.33.48.34-.23 0 0-.07.02.01-.06-.04-.03zm-.1 0s0 .07 0 0-.08 0-.04-.05zm-.57 0c.43.43.72-.49 0 0-.03-.04.01-.08-.04-.05zm-.09-.09zm-.26 0c-.27.27.5-.22 0 0-.24.15.02-.08-.03-.06zm-.14-.06zm18.91 14.67c.19-.41-.07.1 0 0s-.03.08 0 0z"/><path class="cls-1" d="M27.63 25.62c.51-.51 0-.07 0 0s-.02.06 0 0zm9.21 10.18c-.21-.21.74-.08 0 0-.02-.02.07-.01 0 0zm-1.31 1.54c-.11.11-.33 0 0 0zm-.96-.96c-.15.22-.42.11 0 0-.03.04-.06.01 0 0zm.67.75c-.1-.1-.09-.07 0 0zM36.32 35c.44-.19-.37.42 0 0 .06 0-.11.17 0 0z"/><path class="cls-1" d="M36.79 35.67c.36-.53.12.13 0 0 .03-.05.03.03 0 0zm-5.08-6.87s.31-.46 0 0c-.01-.01-.04.05 0 0zm3.35 8.3c-.19.11 0 0 0 0zm1.65-1.59c.37-.34 0 0 0 0zm.03.11c.18-.15 0 0 0 0zm.72.56c.22-.18 0 0 0 0zm-3.09.16c.06.06-.3.2 0 0 .01.01-.04.03 0 0zM28.12 26.1c.22-.23 0 0 0 0zm.28.13zm6.9 8.03s.22-.22 0 0zm1.39 1.23s.23-.23 0 0zm-.15-.24c.17-.25.06.06 0 0zM21.4 23.37c.11-.17.06-.06 0 0s.04-.04 0 0zm6.79 7.03c.12-.18.06-.06 0 0s.04-.05 0 0zm6.01 5.77c-.22.22 0 0 0 0s-.01-.01 0 0zm-5.95-9.93c.23-.22 0 0 0 0s.01.01 0 0zm-.14-.06c.05-.05.18-.13 0 0zM30.48 30c0 .05-.18.18 0 0-.03.06-.04 0 0 0zm.38.39s-.18.18 0 0c-.03.05-.04.04 0 0z"/></g></g></svg>