<svg xmlns="http://www.w3.org/2000/svg" viewBox="0 0 373.35 81.57"><title>wine__title</title><g data-name="Overlay Text" fill="#fff"><path d="M30.15 37.26a1.51 1.51 0 0 1-.36.22c-.18.09-.21.2-.09.32a4.28 4.28 0 0 1-1 .31 2 2 0 0 1-1.12 0 .3.3 0 0 0-.09.22c0 .09-.06.17-.18.23q-3.87.54-7.74 1.39t-7.92 1.4c-.12 0-.2.08-.23.22s-.11.23-.23.23a.85.85 0 0 1 0 1.17 1.64 1.64 0 0 0-.31 1.44 11.85 11.85 0 0 0-.54 2 3.53 3.53 0 0 1-.81 1.75 2.39 2.39 0 0 1-.27 1.67A1.87 1.87 0 0 0 9 51.39h-.36q-.27 1.17-.45 2.29a7 7 0 0 1-.63 2c0 .18.06.27.18.27s.15.09.09.27A4.43 4.43 0 0 0 7 58.68a5.49 5.49 0 0 1-.85 2.61.47.47 0 0 0 0 .41.74.74 0 0 1 .09.41c-.24-.06-.36 0-.36.18a.35.35 0 0 1-.27.36c0 .06.12.09.36.09q-.18.81-.31 1.62t-.31 1.71c-.18.12-.26.09-.23-.09s0-.21-.23-.09-.12.15 0 .27.12.27 0 .45c.12 0 .18 0 .18-.13a.3.3 0 0 1 .09-.23 5.11 5.11 0 0 1-.27 2.12 7.85 7.85 0 0 0-.36 2.56A3.68 3.68 0 0 0 4 72.54q-.09.9-.18 1.85c-.06.63-.12 1.27-.18 1.93a8 8 0 0 1-.36 1.8c-.12.06-.18 0-.18 0a.31.31 0 0 0-.1-.27 1 1 0 0 1-1.08.67A2.69 2.69 0 0 1 .45 78a8.55 8.55 0 0 0-.09-1.3q-.09-.59-.18-1.31-.09-.27 0-.13c.06.09.15.1.27 0a.63.63 0 0 0 0-.54c-.09-.12-.07-.27 0-.45-.06-.12-.12-.14-.18 0s-.15.08-.27 0l.4-.4q.23-.23 0-.68c-.12.06-.15.17-.09.32s0 .22-.09.22a.6.6 0 0 1 0-.63.75.75 0 0 0 0-.72q.18.18.14 0a.22.22 0 0 1 .13-.27 16.67 16.67 0 0 1 .36-3.6 28.45 28.45 0 0 0 .54-3.6 1.35 1.35 0 0 0 .23-.95.67.67 0 0 1 .38-.78 12.31 12.31 0 0 1 .36-2.66q.36-1.58.54-2.75a.21.21 0 0 0 .23-.13c0-.09.13-.1.31 0a3.15 3.15 0 0 1-.31.9c-.09.12-.08.42 0 .9a1.46 1.46 0 0 0-.43.56c-.18.33-.18.58 0 .76a5.92 5.92 0 0 0-.58 2.48A7 7 0 0 1 1.44 66a.08.08 0 0 0 .09.09.08.08 0 0 1 .09.09 1.35 1.35 0 0 0-.09.9.08.08 0 0 1-.09-.08c0-.06-.06-.06-.18 0a1.81 1.81 0 0 1-.13 1.31.78.78 0 0 0 .13 1 .76.76 0 0 0-.31.58q0 .4.14.31a3 3 0 0 0-.32 2.21 4.1 4.1 0 0 1-.22 2.38c.24.12.35.21.31.27a.57.57 0 0 0 0 .36l.27-.18.18.36a.29.29 0 0 0 .09-.45.6.6 0 0 1-.09-.54 1.42 1.42 0 0 0 .18-.22q.09-.14.36 0a3.21 3.21 0 0 1 .09-2c.18 0 .2.09 0 .27s-.14.3 0 .36q.09-1 .09-1.62v-1.65c.12-.06.18 0 .18.09a.16.16 0 0 0 .18.18 4.74 4.74 0 0 1-.27-1.12 2 2 0 0 1 .27-1.3c.12 0 .16.06.13.18a1.43 1.43 0 0 0 0 .36.77.77 0 0 0 .45-.81 1.05 1.05 0 0 1 .36-.9.43.43 0 0 0-.36-.31c-.18 0-.24-.17-.18-.41.12.06.21 0 .27 0s.06 0 0 .22a5.53 5.53 0 0 0 .67-1.75A5.37 5.37 0 0 0 4 62.37a1.4 1.4 0 0 0 .4-1.3 1.62 1.62 0 0 1 .41-1.4 11.93 11.93 0 0 1 .54-2.79A16.63 16.63 0 0 0 5.94 54c-.06-.24-.12-.22-.18 0s-.12.32-.18.14a.71.71 0 0 1 .09-.45q.45-.09.13-.45a.52.52 0 0 1 0-.72c.12.06.14.12 0 .18s-.08.15 0 .27c.18-.18.24-.32.18-.41l-.27-.41c.12 0 .15-.09.09-.27s.06-.21.36-.09a1.22 1.22 0 0 1-.04-.79c.06-.3.14-.61.23-.95a5.79 5.79 0 0 0 .18-.94 1.45 1.45 0 0 0-.23-.9c.06 0 .09.06.09.18A18.68 18.68 0 0 0 7.06 45 12.2 12.2 0 0 1 8 41.31c-.48.12-.69.38-.63.76a3.34 3.34 0 0 1-.09 1.3 1.57 1.57 0 0 0-.63 1.49 5.69 5.69 0 0 1-.45 2.21 1.22 1.22 0 0 1-.2-.27.5.5 0 0 0-.23-.18 2.4 2.4 0 0 0 .23-.85.75.75 0 0 1 .5-.67 1.55 1.55 0 0 1-.09-.9 4.29 4.29 0 0 1 .32-.95q.22-.49.4-1a1.74 1.74 0 0 0 .09-.94h-1.3a2.56 2.56 0 0 1-1.12-.13 12.15 12.15 0 0 0-.58-2.07 2.9 2.9 0 0 1 0-2.07 9.86 9.86 0 0 0 2.16.14 9.65 9.65 0 0 0 2.16-.32q1.53-4.32 2.83-8.78a85 85 0 0 1 3-8.59 2.19 2.19 0 0 0-1.53.22 2.37 2.37 0 0 1-1.62.23 1.47 1.47 0 0 1-1.57.31 3.48 3.48 0 0 0-1.85-.13 1.52 1.52 0 0 1-.67-.94A3.28 3.28 0 0 1 7 18a7.78 7.78 0 0 1 .27-1.21c.12-.39.21-.73.27-1q3.06-.45 6.34-1.17a63.37 63.37 0 0 1 6.52-1.08 3.12 3.12 0 0 1 2.52-.45 52.5 52.5 0 0 1 5.76-1.22q3.15-.49 5.76-.67.18.09.27 0A1.06 1.06 0 0 1 35 11q2-.09 4.19-.27a18.41 18.41 0 0 1 4.1.09A7.06 7.06 0 0 1 46.44 12 4 4 0 0 1 48 14.85a.29.29 0 0 0 .27.31c.18 0 .24.2.18.5-.12 0-.2 0-.23-.09s-.11-.09-.23-.09c-.06.18 0 .29.14.31s.19.11.13.23a.75.75 0 0 0-.94 0 1.6 1.6 0 0 1-1.12.22v-.72q-.18-.27-.68-.18c-.33.06-.49-.06-.49-.36a102 102 0 0 0-12.29 1 115 115 0 0 0-12.56 2.43 42.81 42.81 0 0 0-4 8.42q-1.69 4.49-3.18 9.35a51.74 51.74 0 0 0 5.22-.68 52.24 52.24 0 0 1 5.31-.67l.27-.27 4.05-.18q2-.09 4-.09a.79.79 0 0 0 .36.23.81.81 0 0 1 .36.22 1.13 1.13 0 0 1-1.08 1 1.92 1.92 0 0 0-1.35.63q-.18.18.13.41c.22.14.18.3-.12.48zM.9 77h.36a.53.53 0 0 0-.26-.5.43.43 0 0 1-.13.32c-.11.09-.09.18.03.18zm0-1.17a.89.89 0 0 1 .09.41c0 .15.09.19.27.13s.15-.18.09-.36-.15-.27-.27-.27-.08.13-.18.13zm0 1.53q.36.45.4 0t-.4.04zm.4-4.86a.23.23 0 0 1-.31.09l.27-.27c.12.04.14.1.04.22zm-.13.77c0 .21-.06.19-.18 0 .12-.19.18-.18.18.04zm.36-.77a.55.55 0 0 1 .14.5 4.19 4.19 0 0 0 0 .58c-.18-.06-.24-.21-.18-.45a2.61 2.61 0 0 0 .04-.59zm-.09 1.3c.12-.18.18-.18.18 0s-.06.2-.18 0zm.09.81c.12.24.18.25.18 0s-.06-.18-.18 0zm0 .54c.12.24.18.25.18 0s-.06-.15-.18 0zm.09-3.33c.12.24.12.3 0 .18s-.12-.18 0-.18zm.18-6.39c.12 0 .17.12.14.36s-.14.3-.32.18c0-.18 0-.29.09-.32s.09-.1.09-.22zm-.18 5.31a.8.8 0 0 1 .23.45v.36a.52.52 0 0 1-.18-.36zm0 1.08c0-.12 0-.17.09-.13s.03.07-.09.13zm.27-7q.09-.36.09 0t-.09-.02zm.45 12.42c-.18 0-.27 0-.27.09.18-.02.27-.05.27-.11zm.09-11.7q.09-.36 0 0t0-.02zm.18.9c.24-.06.36.12.36.54a.58.58 0 0 1-.36-.56zm.09 2.43c.18.12.3.09.36-.09s0-.3-.09-.36q.09.27-.13.22t-.14.21zM2.88 61c.06-.24.09-.26.09 0s-.03.2-.09 0zm.18 4c.12 0 .16.07.13.22a.64.64 0 0 1-.13.32c-.12-.06-.14-.13 0-.23a.25.25 0 0 0 0-.31zm0-2.52q.09-.27 0 .14t0-.16zm0-2.25a.08.08 0 0 1 .09-.09h.09c0 .04-.06.07-.18.07zm.18 3.6a.54.54 0 0 1 .09.54 2.42 2.42 0 0 0-.09.54.42.42 0 0 1 0-.5.81.81 0 0 0 0-.6zm0-7.11q.81 0 .54.72c-.12-.12-.23-.15-.31-.09a.55.55 0 0 1-.31.09 1.34 1.34 0 0 1 0-.4 1 1 0 0 0 .08-.34zm-.09 12.4c.18.12.27.06.27-.18s-.06-.33-.18-.27a.41.41 0 0 1 0 .18.61.61 0 0 0-.09.27zm.09-5.67c.12-.18.18-.17.18 0s-.06.24-.18 0zm.45 3.69a2.43 2.43 0 0 1 .23-.9c.15-.36.1-.57-.14-.63a1.62 1.62 0 0 1-.27.81.46.46 0 0 0 .18.72zm1.53-16.38v-.18c-.12.12-.12.18 0 .18v.63a.35.35 0 0 1-.23 0 .18.18 0 0 0-.13 0 .5.5 0 0 1 .09.72c-.18.24-.33.45-.45.63s.06.2.18 0 .18-.13.18 0 .07.33-.14.27-.35 0-.4.09a1.5 1.5 0 0 1 0 1.08 4.18 4.18 0 0 1-.5.9 1.23 1.23 0 0 1 0 .86 1.28 1.28 0 0 0 0 .76.52.52 0 0 0-.36-.18l.67-3.06.68-3.15c.18-.12.28-.13.31 0s.13.08.31 0a.26.26 0 0 0-.09.18c0 .12 0 .18.09.18a.16.16 0 0 1-.21.09zM3.51 62.64c.18-.06.27.06.27.36q-.27.18-.27 0zm.09 8.91c-.12.18-.11.19 0 0s.18-.12 0 0zm.4-9.18c-.12 0-.18 0-.18-.09s-.06-.09-.18-.09 0-.2 0-.22a.37.37 0 0 0 0-.23.29.29 0 0 1 .18.27.8.8 0 0 0 .18.36zm0-1.26q.18 0 0 .27c-.09.18-.2.24-.31.18s0-.27.09-.27a.16.16 0 0 0 .22-.18zM3.78 59a.36.36 0 0 1 .22-.14c0 .06 0 .14-.22.14zm0 .27c.06-.06.1-.08.14 0s.07 0 .13 0-.05-.05-.27-.05zM4 70.2a.63.63 0 0 0 0-.41.65.65 0 0 1 .13-.49.32.32 0 0 0-.36.36.73.73 0 0 0 .23.54zm0-10c0-.06.09-.09.27-.09a1.11 1.11 0 0 0 0 .63q-.45.09-.27-.13a.27.27 0 0 0 0-.4zm0 7.93c.24.12.37.06.41-.18s0-.36-.23-.36a.21.21 0 0 1-.14.22C4 67.84 4 68 4 68.13zm.18.72c0-.06.06-.12.18-.18s.09-.15-.09-.27a.18.18 0 0 1-.09.27c-.07.06-.07.12.05.18zm-.09-5q.27.18.27-.18c0-.24-.09-.3-.27-.18zm.18-5.13c.18.06.25.21.23.45s-.14.36-.31.36a1.86 1.86 0 0 1 0-.45 1.52 1.52 0 0 0 .13-.4zm.18 3.06c.3 0 .42-.12.36-.36h-.27a.37.37 0 0 1 0 .23s-.04-.03-.04.09zm0 .45c.12.24.16.25.13 0s-.02-.23-.08-.04zm.27-5.31c.24.06.31.18.22.36a3 3 0 0 0-.22.63c-.18-.06-.21-.18-.09-.36a.76.76 0 0 0 .14-.67zm.09 3.42c.12.24.18.25.18 0s.01-.22-.13-.04zm0 4.68q0 .45.27.45a.25.25 0 0 1 0-.32c.09-.09.07-.17 0-.22S5 65 4.86 65zM5 56.16c.12 0 .18.09.18.27-.18.06-.29 0-.31 0s.05-.21.13-.27zM5.22 60a.3.3 0 0 1 0-.45c.15-.12.1-.24-.13-.36a.79.79 0 0 0-.23.45c.01.21.14.36.36.36zm0-11q.27.27.36 0c.18.12.16.23 0 .32s-.2.17 0 .22a.41.41 0 0 1-.23.23h.23c0 .12-.18.18-.54.18a.81.81 0 0 1 0-.54 3.63 3.63 0 0 0 .18-.41zM5 64.53h.18v-.18H5zm.27-5.85c.12 0 .22-.12.31-.36s0-.36-.31-.36a1.13 1.13 0 0 1-.09.41q-.05.22.13.31zm-.09-5.4c.12-.18.18-.18.18 0s-.02.18-.14 0zm.31 2.12a.28.28 0 0 1-.31.22.62.62 0 0 1 0-.27.4.4 0 0 0 0-.18c.31 0 .38.08.35.23zm-.31 6.25c.06.24.09.24.09 0s.01-.24-.05 0zm.36 2.43v-.27c-.24 0-.36 0-.36.09s.18 0 .18.13.1.11.22.05zm.18-17q-.09.27.09.32c.12 0 .15.13.09.31-.3.12-.41.32-.31.58s0 .44-.31.5l.18-.9a3.15 3.15 0 0 1 .3-.82zm-.32 7.46c.12 0 .16 0 .13.14a.2.2 0 0 0 0 .22.21.21 0 0 1-.23-.13.2.2 0 0 1 .1-.23zm.36 8.73a.51.51 0 0 0-.36.18c.24 0 .36-.06.36-.18zm-.09-9.54h-.14c.03 0 .08-.06.14 0zm.09 6.57c-.06.06-.11.07-.13 0s0 0 0 .13c.06-.06.1-.08.13 0s0-.01 0-.13zm-.18 2c.06.18.1.17.13 0s-.01-.3-.13-.02zm.18-15.21c-.06-.24 0-.3.09-.18s.09.16-.09.16zm.09 3.24q.36-.09.32.27c0 .24-.17.3-.41.18a.72.72 0 0 0 .09-.47zm0 8.37c.12.06.24 0 .36-.18-.21-.02-.36.04-.36.16zm.09-9.18c.06.12.06.17 0 .14s-.06-.1 0-.16zm0 0c-.06-.24 0-.3.09-.18s.09.16-.09.16zm.18 8.55c-.06.3-.08.31 0 0s0-.26 0-.02zm.63-2.61q-.09.45.13.27t-.13-.29zm.25-.11c.18-.12.15-.3-.09-.54a1 1 0 0 1 0 .31q-.07.14.09.23zm-.07-12.06c.12.18.18.17.18 0s-.11-.24-.18 0zM7 54.36c.12.24.18.26.18 0s-.04-.18-.18 0zm.18-.72c0 .3.09.45.27.45q.2-.45-.25-.45zm.09-.09c.12 0 .21-.15.27-.45s0-.42-.18-.36a.81.81 0 0 1-.09.36.58.58 0 0 0 .02.45zm.18-1l-.09.09c.12 0 .18 0 .18-.09zm.27-5.49c.06.18.1.17.14 0s0-.23-.12.01zm.18 4.32c0 .12.06.13.18 0s.06-.1-.18 0c-.06-.12-.09-.15-.09-.09a.08.08 0 0 0 .11.1zm.27.63q0-.36-.18 0 .2.37.2-.01zm.27-5.58c.12-.12.09-.21-.09-.27s-.27 0-.27.09l.18.18zm-.18 4.5c.12 0 .19-.07.23-.22s0-.23-.14-.23a.36.36 0 0 1 0 .23.35.35 0 0 0-.07.23zm.36-5.49q.18-.27 0-.36c0 .12 0 .2-.09.22s-.01.09.11.15zM8.55 50q.27.18.27-.13c0-.21-.06-.32-.18-.32a.36.36 0 0 1 0 .23.35.35 0 0 0-.09.22zm.09-5.58h.27v-.32h-.27zM8.91 49a12.62 12.62 0 0 1 .5-1.53 2.09 2.09 0 0 0 0-1.53q-.18.72-.45 1.53A2.69 2.69 0 0 0 8.91 49zM9 45q.27.18.27-.27T9 44.46zm3.87-12.87a.9.9 0 0 1-.4.36.35.35 0 0 1-.4-.09 1.11 1.11 0 0 1-.27.41c-.06 0 0 .17.09.4a.64.64 0 0 0-.27.9.75.75 0 0 0-.5.76 1.57 1.57 0 0 1-.13.86h-.36a7.32 7.32 0 0 1 .32-1.3 2.27 2.27 0 0 0 .13-1.12c0 .12 0 .17-.09.13a.32.32 0 0 0-.27 0 2.72 2.72 0 0 1-.45 1.62 4 4 0 0 0-.63 1.62c.24.06.36 0 .36-.14a.32.32 0 0 1 .18-.31c.12.06.16.13.13.22s0 .17.14.23c0-.12.09-.17.27-.14a.71.71 0 0 0 .45 0q.18-.63.45-.18-.09-.27.09-.27a.52.52 0 0 0 .36-.18.71.71 0 0 1-.07-.31c0-.09-.06-.17-.18-.23.06.18 0 .27-.18.27a.36.36 0 0 0 0-.45.36.36 0 0 1 0-.45q.27-.09.27.13c0 .15.06.23.18.23a4.68 4.68 0 0 1 .36-1.49 4.68 4.68 0 0 0 .36-1.49 10.57 10.57 0 0 0 .54-1q-.09-.18-.22 0c-.09.12-.17.06-.23-.18a.87.87 0 0 1 .18-.45c.12-.18.12-.33 0-.45a2.55 2.55 0 0 1-.45.85 2.72 2.72 0 0 0-.45.77.36.36 0 0 1 .23 0 .94.94 0 0 0 .23.13.9.9 0 0 0 .09-.41c0-.15.06-.19.18-.13.12.3.1.45 0 .45s-.16.19-.04.43zm-3 13.46q0-.31-.27-.13v.27q.3.17.3-.15zm.27-.67c0-.36-.06-.54-.18-.54s-.15.23-.09.32a.66.66 0 0 0 .3.21zm-.27.27h.18V45H9.9zm.36-3.24a.25.25 0 0 0 0-.36.91.91 0 0 0-.31-.27.51.51 0 0 0 .34.62zm-.09.54a.58.58 0 0 1 .09.67 1.33 1.33 0 0 0-.18.67 8.28 8.28 0 0 0 .67-1.26 1.44 1.44 0 0 0 0-1.26 2.2 2.2 0 0 0-.23.72.5.5 0 0 1-.32.45zm.54-6.66c.12.3 0 .45-.27.45q-.15-.46.3-.46zm.36 7.92c.12-.24.18-.25.18 0s-.03.17-.15-.01zm1-9.45c.06-.18.09-.16.09 0s-.01.23-.07-.01zm.27-1.53h.27V33h-.27zM22 36.36c.6 0 .93-.12 1-.36a1 1 0 0 1-.54.18.61.61 0 0 0-.46.18zm1.58-.36a.67.67 0 0 1-.27-.09c-.12-.06-.18 0-.18.09a.18.18 0 0 1 .27.09c.06.12.12.09.18-.09zm.54.14c.12 0 .15-.14.09-.32-.24 0-.39.06-.45.18a.37.37 0 0 0 .36.14zm.45-.32q-.27.45.09.32c.24-.14.21-.2-.09-.32zm.63.09c.06.12.18.12.36 0s.21-.21.09-.27c-.06.12-.11.13-.14 0s-.11-.1-.22 0a.37.37 0 0 1-.09.27zm.63-.09q.45.54 1 0a.86.86 0 0 0-.5-.22.47.47 0 0 0-.5.22zm1.71-.09c-.06.06-.17.06-.32 0s-.22 0-.22.09a.82.82 0 0 1 .36.09c.12.09.18 0 .18-.18zm.27-.27c.06.3.15.42.27.36a1 1 0 0 1 .45-.09q-.09-.54-.27-.27c-.12.18-.26.18-.45 0zm1.17.27c-.12 0-.18 0-.18.09s.2-.03.2-.09zm.72-.09v.18h.3c.06-.18 0-.3-.09-.36a.16.16 0 0 1-.21.18zm.45 1.62c.12 0 .19 0 .23.09s0 .12-.14.18-.09-.09-.09-.27zm3.15 6.93a.38.38 0 0 1-.27-.41.67.67 0 0 0-.18-.5 19.29 19.29 0 0 1 2.56-2.61 7.91 7.91 0 0 1 3.46-1.62 2 2 0 0 1 1 .72 6.19 6.19 0 0 1 2.79 1.08A22.35 22.35 0 0 0 45 42.39a7.54 7.54 0 0 1 .5 4 13.26 13.26 0 0 1-1.17 3.69 19.23 19.23 0 0 1-2.07 3.33Q41 55 40.14 56.34q-1.8.54-3.42 1.17a4.52 4.52 0 0 1-3.42-.09 7.3 7.3 0 0 1-1.8-3.15 10.39 10.39 0 0 1-.31-3.46 14 14 0 0 1 .72-3.46 19 19 0 0 1 1.39-3.16zm6.93-.9a8.34 8.34 0 0 0-4.68 4.1 14.9 14.9 0 0 0-1.71 6.79 2 2 0 0 0 .85 0 4 4 0 0 1 .85-.09 17.1 17.1 0 0 0 4.27-4.41A14.09 14.09 0 0 0 42 43.47a3.79 3.79 0 0 1-.27-.68 2.12 2.12 0 0 0-.27-.58c-.48-.12-.76 0-.85.27a2.54 2.54 0 0 1-.38.81zm1.62 2.88a.68.68 0 0 1 .18-.4c.12-.15.06-.23-.18-.23a.3.3 0 0 1-.09.36c-.12.1-.09.21.09.27zm.54-2.7c.06.24.09.24.09 0s-.03-.24-.09 0zm38.88-1.53a4.33 4.33 0 0 1-1.89 1.71 4.2 4.2 0 0 0-1.89 1.8q-.36-.63-.54 0a12.34 12.34 0 0 0-2.75 1.75 16 16 0 0 1-2.93 1.94v.13l.14.13a8 8 0 0 0-1.94 1.35 4 4 0 0 1-2.39 1q.18.45-.54.81a4.47 4.47 0 0 0-1.17.81 6.08 6.08 0 0 0 2.16-1.08 12.44 12.44 0 0 1 2.25-1.35 1.35 1.35 0 0 1-.81.81 2.55 2.55 0 0 0-1 .63l-.09.09h-.27c.06.12.12.17.18.13a.14.14 0 0 0 .09-.13.08.08 0 0 0 .09-.09 2.36 2.36 0 0 0 1.57-.49 6.84 6.84 0 0 1 1.58-.95 3.19 3.19 0 0 1-1.53 1.3 3.05 3.05 0 0 0-1.59 1.4c-.12-.18-.31-.19-.58 0a.86.86 0 0 1-.68.13c.12 0 .19.12.23.36s0 .36-.23.36-.3 0-.18-.18.06-.3-.18-.36-.24.13-.18.23a3.29 3.29 0 0 1 .18.31.52.52 0 0 0-.63.09q-.36.27-.54-.18-.36.18 0 .41c.24.15.27.29.09.4a22.29 22.29 0 0 1-2.79 1.53 10.55 10.55 0 0 1-3.06 1q-1 .45-2 .81a8.06 8.06 0 0 0-1.84.9c-.12 0-.18 0-.18-.09s.07-.11 0-.13 0 0 0 .13a1.55 1.55 0 0 1-1 .5 7.82 7.82 0 0 1-1.44.13 7.1 7.1 0 0 1-1.4-.13 1.86 1.86 0 0 1-.85-.32.4.4 0 0 1-.27.23.79.79 0 0 0-.36.22 8.36 8.36 0 0 1-3.37-2.61 5.72 5.72 0 0 1-1.12-4v-.09a.73.73 0 0 1-.13-.18.71.71 0 0 0-.14-.18 19 19 0 0 1 1.85-5 26 26 0 0 1 2.75-4 32.51 32.51 0 0 1 3.28-3.42q1.75-1.57 3.56-3.1.9-.18 1.75-.41a5.85 5.85 0 0 1 2.21 0 14.08 14.08 0 0 1 1.35.58 4.18 4.18 0 0 1 1.08.76 3.62 3.62 0 0 0 .36.54 11.14 11.14 0 0 1-.94 2.43 1.91 1.91 0 0 1-2.12.9 1.15 1.15 0 0 1-.18-.85 1.44 1.44 0 0 0-.09-.86q-2.07 1.35-4 2.75a23.49 23.49 0 0 0-3.51 3.2 17.82 17.82 0 0 0-2.7 3.91 18.15 18.15 0 0 0-1.58 5.35 1.37 1.37 0 0 0 .36.72l.45.45a5.85 5.85 0 0 0 2.77-.09 19 19 0 0 0 2.09-.79 53.77 53.77 0 0 0 7.56-3.15Q65.16 51 68.44 49t6.48-4.23q3.19-2.16 6.62-4.23c.24.3.21.54-.09.72a.46.46 0 0 0-.18.68zM45.63 53.19v.09q-.18.09-.18 0c0-.06.06-.09.18-.09zm0-.45c.06.24.09.26.09 0s-.03-.18-.09 0zm.18-1.08c-.12.18-.1.21 0 .09s.19-.15 0-.09zm18.27 3.42a6.8 6.8 0 0 0-2.52.86 8.21 8.21 0 0 1-2.61.94 8.23 8.23 0 0 0 2.79-.63 21 21 0 0 0 2.34-1.17c.06-.06.07-.1 0-.13s0 .05 0 .13zm-4.41.27q.36.18.18 0c-.12-.12-.18-.12-.18 0zm.72-.18a4 4 0 0 1 .67-.27.86.86 0 0 0 .5-.36 1.13 1.13 0 0 0-1.17.63zm.72 1.71q.45.18.45-.09a1 1 0 0 1-.45.09zm3-1.17A1.83 1.83 0 0 0 63 56a4.47 4.47 0 0 1-.9.5c-.18 0-.27.06-.27.18.18 0 .27-.06.27-.18a1.79 1.79 0 0 0 1.13-.32 3.56 3.56 0 0 1 .85-.5.39.39 0 0 0 .31-.18q.13-.18 0-.27a.16.16 0 0 1-.18.18c-.21.03-.21.12-.13.3zm-2-.63c-.12.06-.15.11-.09.14s.09 0 .09-.14.15 0 .09 0-.1-.08-.1 0zm1.17-1.53c.24.12.31.12.23 0s-.18-.12-.24 0zm.27-.72c-.12.12-.12.23 0 .32a.33.33 0 0 1 .09.41 2.06 2.06 0 0 0 1-.81c-.18.12-.29.17-.31.13l-.23-.22a1.6 1.6 0 0 1-.23.45c-.11.11-.21.02-.33-.28zm1-.36q.36.18.18 0c-.14-.19-.2-.18-.2 0zm.18 2.7c-.12.06-.15.09-.09.09a.08.08 0 0 0 .09-.09c.12.06.24 0 .36-.18-.26-.06-.38.01-.38.18zm-.09-.36c.12.12.19.11.23 0s0-.23-.14-.23a.08.08 0 0 1-.09.09zm.27-1.08c0-.06.06-.09.18-.09a2.82 2.82 0 0 0-.27-.36.71.71 0 0 0 .07.45zm0-1.08h.36c0-.18-.12-.24-.36-.18zm1 1.53c-.12.18-.11.21 0 .09s.15-.15-.03-.09zm.09-1.71a.15.15 0 0 1 .13.09.14.14 0 0 0 .13.09v-.27a.14.14 0 0 1-.13-.09.15.15 0 0 0-.13-.09zm.45-.18a.32.32 0 0 0 .36-.36.21.21 0 0 0-.22.13.58.58 0 0 1-.17.23zM67.5 54c-.12-.06-.18 0-.18.09-.18-.06-.21-.14-.09-.23a.32.32 0 0 1 .36 0c.06.14.03.2-.09.14zm5.85-7.2c-.06-.06-.09 0-.09.09a.52.52 0 0 0-.36.18.82.82 0 0 0-.67.27 1.66 1.66 0 0 1-.68.45.21.21 0 0 1 .14-.22.21.21 0 0 0 .13-.22.23.23 0 0 0-.31.09.25.25 0 0 0 0 .36q-.09.18-.27 0l-.18-.18q.18.63-.31.67a.75.75 0 0 0-.68.5.53.53 0 0 0-.36.09c-.12 0-.24.12-.36.36a.91.91 0 0 0-.72.45c-.06-.18-.09-.21-.09-.09a.3.3 0 0 0-.27.13A2.2 2.2 0 0 1 68 50a.41.41 0 0 0 .36-.13 3.17 3.17 0 0 0 .18-.31l.09.09a.91.91 0 0 0 .72-.45q.18 0 .36-.36a.29.29 0 0 0 .36-.09 3.6 3.6 0 0 0 1.49-.72q.67-.54 1.3-1c.24.06.36 0 .36-.18l.09-.09c.12-.06.15-.1.09-.14s-.05.06-.05.18zm-4.5 5.94a.08.08 0 0 1 .09-.09q0-.27-.27-.18a.15.15 0 0 1 0 .18c.01.06.06.09.18.09zM69 49q.36.18.18 0c-.09-.16-.18-.16-.18 0zm.9-.45c.06.06.09 0 .09-.09s-.12-.01-.06.05zm.36 2.16c-.12.24-.24.36-.36.36.1-.28.27-.4.39-.4zm.81 0a.69.69 0 0 0-.5 0c-.09.06-.11 0 0-.27a.79.79 0 0 0 .36.09.16.16 0 0 1 .17.14zm-.36-2.79l-.09.09c-.12.06-.15.11-.09.13s.09 0 .09-.13c.06.06.09 0 .09-.09s.15 0 .09 0-.06-.1-.06-.04zm.09 1.53a.52.52 0 0 0-.18-.36c.03.2.09.32.21.32zm.27 1.26a.47.47 0 0 0 .18.23c.06 0 .06.11 0 .22s-.12-.06-.18-.18zm.45-.63a.52.52 0 0 1-.36.18c.03-.16.15-.26.39-.26zm.27.09c.06.24-.12.36-.54.36.27-.28.45-.4.57-.4zm-.45-.72c.06-.24.15-.3.27-.18s.06.14-.24.14zm.72.18a2.1 2.1 0 0 0-.27.31.3.3 0 0 1-.27.13c.15-.33.33-.48.57-.48zm-.27.54a.08.08 0 0 1 .09-.09c.12-.08.06-.01-.06.05zm.36.09c0 .12 0 .17-.09.13s0-.11.12-.17zm0 0a.08.08 0 0 1 .09-.09.08.08 0 0 1-.06.05zm.09-.09c0-.06 0-.07.09 0s.06-.04-.06-.04zm1-1.35c-.06.24-.15.3-.27.18s.03-.22.29-.22zm.18.9a1.72 1.72 0 0 0-.13.36c0 .12-.14.18-.32.18.18-.12.23-.24.14-.36s.03-.22.33-.22zm-.27-3.24c.24.12.3.11.18 0s-.16-.22-.16-.04zm.09 2.34a.08.08 0 0 1 .09-.09c.02.08-.01.11-.07.05zm.09-.09c0-.18.06-.19.18 0s.08.08-.16-.04zm.18.54v.13c0-.04-.04-.11.02-.17zm0 0q.09-.18.27 0t-.25-.04zm1.62-3.51l-.09.09a.81.81 0 0 0-.72.45c-.06 0-.15.06-.27.18-.06-.06-.09 0-.09.09-.18 0-.27.06-.27.18-.12-.06-.15 0-.09 0s.09.08.09 0c.18 0 .27-.06.27-.18l.09-.09c.06 0 .15-.06.27-.18a.9.9 0 0 0 .72-.45c.06.06.09 0 .09-.09a.74.74 0 0 0 .45-.27c-.12-.06-.21 0-.27 0a1.56 1.56 0 0 1-.16.23zm-.9 2.52a.4.4 0 0 0-.23.27.21.21 0 0 1-.23.18.4.4 0 0 1 .48-.49zm1.77-.85c0-.06 0-.08-.09 0a.15.15 0 0 1-.18 0c0 .06.09.09.27.09-.06.3-.2.38-.4.22s-.35-.07-.41.22c-.18-.06-.3 0-.36.09a.36.36 0 0 1-.36.18q.72-.54 1.48-1a6.21 6.21 0 0 1 1.75-.76q-.45.36-.85.63a4.7 4.7 0 0 1-.85.33zm-.9.72c0 .06 0 .08-.09 0s-.07 0 .05 0zm0 0c0-.12 0-.18.09-.18s-.07.18-.13.18zm.09-.18v-.09h.27q-.22.18-.31.12zm.45.18c0 .18-.06.21-.18.09s-.1-.15.14-.09zm-.09-1.8c.12-.18.18-.18.18 0s-.1.18-.22 0zm.09 1.8c0-.12 0-.18.09-.18s-.07.18-.13.18zm.09-.18c0-.06 0-.08.09 0s-.01.03-.13.03zm.27-2.79q.27.27.27 0-.27-.27-.27 0zm.72-.36c-.24-.06-.3 0-.18.09s.18.09.18-.09h.09c-.06 0-.13-.06-.13 0zm.27.63c.24 0 .3 0 .18.13s-.22.05-.22-.13zm.36 1.44c.18.12.21.18.09.18a.16.16 0 0 0-.18.18c-.18-.12-.21-.19-.09-.22s.14-.03.14-.14zm.45-.09c0-.18.06-.21.18-.09s.02.15-.22.09zm1.2-3.28c.06 0 .09 0 .09-.14-.09.06-.09.11-.09.14zm2.25-1.58c-.06-.12-.06-.17 0-.13s.08.07.02.13z"/><path d="M89.37 45.36c.06.12 0 .18 0 .18s-.13.06-.13.18 0 .18.09.18.09.06.09.18a.56.56 0 0 0 .18-.4.75.75 0 0 1 .27-.5c-.06-.12-.12-.1-.18 0s-.15.2-.27.13 0-.27.09-.27a.16.16 0 0 0 .18-.18q.09-.09 0-.13t0 .13a.73.73 0 0 0-.45.27c-.18-.18-.15-.32.09-.41a1.51 1.51 0 0 0 .54-.32.58.58 0 0 1 .13.6 2.44 2.44 0 0 0 0 .5q.45 0 .32-.54c-.09-.36-.26-.51-.5-.45a.35.35 0 0 1 .27-.36 3.39 3.39 0 0 0 .45-.18c.12.3.14.45 0 .45s-.14.15-.14.45v.18a1.73 1.73 0 0 0 .85-.45 1.83 1.83 0 0 1 .95-.45.48.48 0 0 0-.54-.36q.18-.36.4-.13c.15.15.37.13.68 0l-.23-.45a.36.36 0 0 1 0-.45c.24 0 .31.11.23.32s0 .31.31.31v.18a.52.52 0 0 0-.18.36c0 .06.15.09.45.09.06-.18 0-.25-.14-.22s-.2 0-.13-.22a3.16 3.16 0 0 1 .76-.09.78.78 0 0 0 .68-.45c-.06-.12-.12-.12-.18 0s-.15.12-.27 0a.8.8 0 0 1 .36-.23c.12 0 .21-.13.27-.31s0-.09 0-.09v-.09c.18-.06.25 0 .23.09a1.44 1.44 0 0 0 0 .36.41.41 0 0 0 .36-.13 3.08 3.08 0 0 0 .18-.32c0-.18 0-.21-.09-.09a.18.18 0 0 1-.27.09 1.66 1.66 0 0 1 1.22-.9 1.16 1.16 0 0 0 .94-1.17 1.14 1.14 0 0 0-.45-.27.86.86 0 0 1-.45-.36c-.18.06-.21.13-.09.22a.39.39 0 0 1 .18.32c-.18.06-.23.18-.13.36s0 .27-.31.27a.68.68 0 0 0 0-.5 1 1 0 0 1-.09-.5 1.67 1.67 0 0 0-1.26 1.17c.06.24.13.32.23.22a.38.38 0 0 1 .4 0c0-.18-.08-.25-.23-.22s-.2 0-.13-.22a2.41 2.41 0 0 0 .81-.54c.12.36.06.57-.18.63s-.27.24-.09.54q-.45-.27-.63 0a.87.87 0 0 1-.63.4c.12.12.15.21.09.27a1 1 0 0 0-.18.27c.24-.12.33-.13.27 0a1 1 0 0 0-.09.5c-.12-.12-.2-.15-.23-.09s-.14.09-.31.09a.61.61 0 0 0 .22-.81q-.23-.45.41-.72c-.12-.12-.27-.12-.45 0a.46.46 0 0 0-.18.54c-.18-.12-.39-.07-.63.14a6.19 6.19 0 0 1-.63.5A12.47 12.47 0 0 1 95 39.74a29 29 0 0 1 3.42-2.21 3 3 0 0 1 1.17.76A2.39 2.39 0 0 0 101 39a2.9 2.9 0 0 1 .4 1.17 7.85 7.85 0 0 0 .23 1.26 9.59 9.59 0 0 0-1.22 3.87 13.59 13.59 0 0 1-.94 3.87.73.73 0 0 1 0 1 1 1 0 0 0 0 1.17.66.66 0 0 0-.27.22c-.06.09-.15.11-.27 0a.76.76 0 0 1 .09.63l-.18.72c-.06.24-.11.45-.14.63s.07.33.31.45a9 9 0 0 0-.5 3.38 9.88 9.88 0 0 0 .67 3.63l.36.18.36.18a1.62 1.62 0 0 1-.18.81c-.18-.06-.3 0-.36 0a.69.69 0 0 1-.27.22 2.41 2.41 0 0 1-2-1.21q-.68-1.13-1.4-2.21a22.16 22.16 0 0 1-.16-7.97q.68-3.73 1.21-7.42-2.88 2.34-5.53 4.81t-5.54 4.82a.75.75 0 0 0-.4.09.67.67 0 0 1-.5 0 4.07 4.07 0 0 1-2.52 1 3.92 3.92 0 0 1-2.25-.75 4.9 4.9 0 0 1-1.62-1.94 6.25 6.25 0 0 1-.58-2.75q.27-1.26.45-2.83a6.63 6.63 0 0 1 .9-2.75 2.88 2.88 0 0 1 .31-1.67 12.57 12.57 0 0 0 .67-1.48q1 .45 2 .85a5.17 5.17 0 0 1 1.71 1.13 32.71 32.71 0 0 1-1.48 4 16.15 16.15 0 0 0-1.21 4.32 5.21 5.21 0 0 0 2.34-.67 11.65 11.65 0 0 0 1.85-1.35q.85-.76 1.67-1.57a7.22 7.22 0 0 1 1.89-1.35v.18c.18.06.3 0 .36-.09a.29.29 0 0 1 .11-.22zm1.89-2.07q0 .27-.45.27-.18-.45.45-.27zm.13.63a.35.35 0 0 1 .23.36.79.79 0 0 1-.36-.09L90.9 44a1.59 1.59 0 0 0 .18-.45.54.54 0 0 0 .31.37zm0 1.26a.36.36 0 0 0 .36-.18 1.39 1.39 0 0 1 .27-.36h-.45c.12.24.1.36 0 .36s-.28.06-.22.18zm0-2c.12-.24.18-.25.18 0s-.1.2-.22.02zm.54-.54c.12 0 .14.06 0 .18a.23.23 0 0 1-.31.09zm-.13.36a.37.37 0 0 0 .36.13c.12 0 .18 0 .18.22-.42.03-.6-.09-.54-.35zm.27 1.62h.27v-.18h-.27zm.36-.36c.24.06.3 0 .18-.09s-.18-.07-.18.11zm.72-1.62c.12-.18.25-.21.4-.09s.16.24 0 .36-.31.08-.23-.14.07-.23-.17-.11zm.09.63c0-.12 0-.16.09-.13s.03.09-.09.15zm1.44-1.08c-.24 0-.3-.15-.18-.45.12 0 .24-.12.36-.36.18.12.18.24 0 .36a.36.36 0 0 0-.18.47zm.9-.09a1.12 1.12 0 0 0 .9-.81 1.59 1.59 0 0 0-.54.41 5 5 0 0 1-.36.42zm.18-1.44c.12 0 .16.08.13.22s-.11.2-.22.13v-.27a.08.08 0 0 0 .09-.06zm.63-.63a.24.24 0 0 1 .27.27.24.24 0 0 1-.27-.25zm.27.72c.06-.24.09-.24.09 0s-.03.25-.09.02zm.09-1.26c.24.06.3 0 .18-.09s-.18-.07-.18.11z"/><path d="M114.75 39.15a11.44 11.44 0 0 0-5.53 3.55A9.26 9.26 0 0 0 107 49a1.34 1.34 0 0 1 .36 1 .56.56 0 0 0 .63.63 1.49 1.49 0 0 0 .72 1.17 5.57 5.57 0 0 0 1.17.72 11 11 0 0 0 1 1.35q.54.63 1 1.3a7.57 7.57 0 0 1 .85 1.53 5.21 5.21 0 0 1 .36 2 9.15 9.15 0 0 1-3.37 4.77 21.32 21.32 0 0 1-5.08 2.7q-.63-.27-.9 0a1.09 1.09 0 0 1-.72.22 2.83 2.83 0 0 1-2.39-.76 5.4 5.4 0 0 1-1.48-2.25 5.59 5.59 0 0 1-.27-2.61 2 2 0 0 1 1.47-1.77.75.75 0 0 1-.31.5c-.15.09-.23.28-.23.58 0 .06.15.09.45.09q-.54.45-.23.95a1.26 1.26 0 0 1 .23.95 3.88 3.88 0 0 0 3-.32q1.53-.77 2.88-1.3a5.27 5.27 0 0 1 1.8-1.94 4 4 0 0 0 1.59-2.51l-2.7-2.7a11.57 11.57 0 0 1-2.25-3.3 7.75 7.75 0 0 0-.09-1.08.92.92 0 0 0-.54-.81 13.37 13.37 0 0 1 .5-5q.67-2 1.48-4.37a2.37 2.37 0 0 0 1-.76 9.91 9.91 0 0 1 1.13-1.12 9.54 9.54 0 0 1 1.3-.95 2.34 2.34 0 0 1 1.67-.22 2.42 2.42 0 0 0 1.08.72 10.84 10.84 0 0 1 1.31.58 3.66 3.66 0 0 1 1 .77 1.7 1.7 0 0 1 .33 1.39zm32.58 5.04a.38.38 0 0 1-.27-.41.67.67 0 0 0-.18-.5 19.29 19.29 0 0 1 2.56-2.61 7.91 7.91 0 0 1 3.46-1.62 2 2 0 0 1 1 .72 6.19 6.19 0 0 1 2.79 1.08 22.35 22.35 0 0 0 2.31 1.54 7.54 7.54 0 0 1 .5 4 13.26 13.26 0 0 1-1.17 3.69 19.23 19.23 0 0 1-2.07 3.33q-1.22 1.58-2.11 2.93-1.8.54-3.42 1.17a4.52 4.52 0 0 1-3.42-.09 7.3 7.3 0 0 1-1.8-3.15 10.39 10.39 0 0 1-.31-3.46 14 14 0 0 1 .72-3.46 19 19 0 0 1 1.41-3.16zm6.93-.9a8.34 8.34 0 0 0-4.68 4.1 14.9 14.9 0 0 0-1.71 6.79 2 2 0 0 0 .85 0 4 4 0 0 1 .85-.09 17.1 17.1 0 0 0 4.27-4.41 14.09 14.09 0 0 0 2.21-6.21 3.79 3.79 0 0 1-.27-.68 2.12 2.12 0 0 0-.27-.58c-.48-.12-.76 0-.85.27a2.54 2.54 0 0 1-.4.81zm1.62 2.88a.68.68 0 0 1 .18-.4c.12-.15.06-.23-.18-.23a.3.3 0 0 1-.09.36c-.12.1-.09.21.09.27zm.54-2.7c.06.24.09.24.09 0s-.03-.24-.09 0zm26.1 9a7.91 7.91 0 0 0 4.41-1.31 28 28 0 0 1 3.69-2.16c-.18-.12-.24-.24-.18-.36a17.94 17.94 0 0 0 4.72-2.64 43.84 43.84 0 0 0 4.28-3.55 5.71 5.71 0 0 0-1.67 1.21 3.71 3.71 0 0 1-2.21 1 12.61 12.61 0 0 1 2.12-1.66l2.3-1.44a3.07 3.07 0 0 1-.85 1.89 11.74 11.74 0 0 1-1.72 1.55l-1.93 1.4a5.54 5.54 0 0 0-1.53 1.6q-.63-.36-1.12.36a2.1 2.1 0 0 1-1.12.9 1.66 1.66 0 0 0 1.17-.32 2.23 2.23 0 0 0 .81-.76h.49a1.31 1.31 0 0 1 .32.18c.12-.12.14-.22 0-.31a.37.37 0 0 1 0-.41 2.08 2.08 0 0 1 .63-.18q.18 0 .36-.36a.56.56 0 0 0 .67.09 3.16 3.16 0 0 0 .81-.54q.4-.36.85-.72a2.67 2.67 0 0 1 .72-.45l-1 1.89a3.11 3.11 0 0 1-1.54 1.32 3.35 3.35 0 0 1-.36.58 1.59 1.59 0 0 0-.27.5q-1.08.72-2.34 1.75t-2.61 2a16.16 16.16 0 0 1-2.93 1.62 7.25 7.25 0 0 1-3.28.58 3 3 0 0 1-1.8-.58 7 7 0 0 1-1.41-1.41c-.06-.18-.12-.23-.18-.13s-.15.08-.27 0a6.71 6.71 0 0 1-1.08-2.61 16.1 16.1 0 0 1-.27-3q0-1.53.13-3.11t.13-2.92a22.48 22.48 0 0 0-3.6 2.83 40.19 40.19 0 0 0-3.06 3.33q-1.44 1.75-2.79 3.64t-2.79 3.69a1.78 1.78 0 0 1-.94.13.91.91 0 0 0-.85.32 4.48 4.48 0 0 1-1.85-3.29 15.4 15.4 0 0 1 .31-4.14q.45-2.2 1.08-4.46a12.08 12.08 0 0 0 .45-4.32 3.09 3.09 0 0 1 1.94.22 3.92 3.92 0 0 1 1.3 1.13 12 12 0 0 1-.31 3.29 31.65 31.65 0 0 0-.58 3.65 26.68 26.68 0 0 0 2.61-2.83 10.24 10.24 0 0 1 2.79-2.48 10.33 10.33 0 0 1-1.89 2.07 7.87 7.87 0 0 0-1.8 2.16 6.7 6.7 0 0 0 2.07-1.8 9.4 9.4 0 0 1 1.89-1.89c-.12-.12-.18-.21-.18-.27a4.08 4.08 0 0 0 1.8-1.12q1-.94 1.89-1.75a3.19 3.19 0 0 0-1.8 1.08 3.17 3.17 0 0 1-1.71 1.08 6.24 6.24 0 0 1 1.56-1.59 3.13 3.13 0 0 1 2.07-.77 1.26 1.26 0 0 1 .95-.54 2.05 2.05 0 0 1 1 .27 10.4 10.4 0 0 1 .95.58 2.35 2.35 0 0 0 .9.41 2.8 2.8 0 0 1 1.44 2.07 13.41 13.41 0 0 1 .18 3.15q-.09 1.71-.27 3.51a7.53 7.53 0 0 0 .3 3.15zm-7.11-10.08c.06.18.09.17.09 0s-.03-.24-.09 0zm.18-.18a.64.64 0 0 0 .63-.36.89.89 0 0 1-.4.09c-.16 0-.23.06-.23.27zm1.44-.9c0-.12 0-.18.09-.18s.09-.06.09-.18a.2.2 0 0 0-.18.36zm14.31 8.28c0-.18-.06-.24-.18-.18s0 .27.09.27a.08.08 0 0 1 .09-.09zm0-1.53c.18-.12.19-.1 0 0s-.12.18 0 0zm.45-.27c.18-.12.19-.1 0 0s-.12.21 0 0zm.63-.72h.27v.27h-.27zm1.35-.72a.52.52 0 0 1-.36.18.52.52 0 0 1 .36-.18zm2.34.36v.18a.08.08 0 0 0-.11.11h-.18v-.2l.09-.09zm.63-1h.26v.18h-.27zM250.92 52a8.47 8.47 0 0 0-1.12 2.12A17.34 17.34 0 0 1 249 56a.08.08 0 0 0 .09.09.26.26 0 0 0 .18-.09c.12.12.15.22.09.31a.56.56 0 0 0-.09.32c-.12 0-.18-.09-.18-.27a1.53 1.53 0 0 0-.32.54 2.31 2.31 0 0 0-.13.81h-.27a.32.32 0 0 0 .36.36q0 .54-.27.63c-.06-.12 0-.21 0-.27s.1-.15 0-.27a1.32 1.32 0 0 0-.63 1.26 4.48 4.48 0 0 1-.09 1.53q.09.18.23.13a1 1 0 0 1 .31 0 .36.36 0 0 1-.18.36.58.58 0 0 0-.27.27c.06.18.12.22.18.13a.4.4 0 0 1 .36-.13q-.27.45.13.54c.27.06.38.3.32.72a.31.31 0 0 0 .09-.22c0-.09.06-.11.18 0a1.1 1.1 0 0 0 0-.63.29.29 0 0 1 .09-.36c0 .06-.09.07-.27 0s-.3-.2-.36-.5c.18 0 .21-.06.09-.18.12-.06.21 0 .27 0s.15.07.27 0c0 .24.12.3.36.18a.82.82 0 0 0 .13-.58c0-.21.1-.37.41-.5a.27.27 0 0 1 0-.27q0-.18-.23 0a2.83 2.83 0 0 1 .36-.45.62.62 0 0 0 .18-.45c-.12-.18-.2-.18-.23 0s-.11.24-.22.18v-.49a1.12 1.12 0 0 0-.09-.5c.3 0 .48-.09.54-.27.18.18.33.21.45.09s-.08-.21-.22-.27-.2-.24-.13-.54l.18-.09a.51.51 0 0 0 .18.36 1.72 1.72 0 0 0 .63-1.12 1 1 0 0 1 .54-.85 1.73 1.73 0 0 1 .23-1.3 13.28 13.28 0 0 0 .58-1.4.53.53 0 0 0-.09-.36 1 1 0 0 1-.18-.27.91.91 0 0 0 .22-.54c0-.24.13-.36.31-.36a.56.56 0 0 1-.09.32.46.46 0 0 0 0 .41 7.78 7.78 0 0 0 .95-2.16 13 13 0 0 1 .95-2.43q.09-.36-.13-.32c-.15 0-.2 0-.14-.22q.63.36.45-.32a2.07 2.07 0 0 1 0-1.21.18.18 0 0 0 .27-.09c.06-.12.12-.09.18.09a5.86 5.86 0 0 0 1.12-2.07 14.29 14.29 0 0 1 .95-2.34c-.24-.12-.31-.06-.22.18s0 .33-.22.27-.12-.41.18-.67a2.35 2.35 0 0 1 .72-.5c-.06-.18-.12-.21-.18-.09a.18.18 0 0 1-.27.09.73.73 0 0 1 .13-.45.72.72 0 0 0 .14-.45c.12 0 .18 0 .18-.13s.06-.1.18 0 .12.29 0 .31-.18.14-.18.32a.55.55 0 0 0 .36-.5 1.5 1.5 0 0 1 .18-.67q.27 0 .27-.36c-.18-.12-.26-.12-.22 0a.52.52 0 0 1 0 .36c-.12 0-.15-.09-.09-.27a.59.59 0 0 0 0-.45 1.11 1.11 0 0 0 .77-.41 2 2 0 0 0 .31-.77c.3-.06.36-.15.18-.27s-.24 0-.18.27q-.45.09-.13-.36c.21-.3.28-.51.22-.63.12-.06.18 0 .18 0s.06.13.18.13.18-.24.18-.54a.08.08 0 0 0 .09-.09c0-.06 0-.07 0 0a.19.19 0 0 0 0 .13.37.37 0 0 1-.27.09.86.86 0 0 1 .27-.5c.12-.09.15-.25.09-.5s.21-.15.45-.09.33-.06.27-.36q-.45.18-.22-.18a1.68 1.68 0 0 0 .22-.9c.3 0 .45-.12.45-.36a2.94 2.94 0 0 1 .09-.72.35.35 0 0 0-.41-.09 1.1 1.1 0 0 1-.4.09c.12.3.1.48 0 .54s-.2.24-.13.54q-.45-.09-.54.58c-.06.45-.27.71-.63.76v-.58a2.07 2.07 0 0 0-.18-.67 4.11 4.11 0 0 1-.32 1.13 7.08 7.08 0 0 0-.4 1.21 2.79 2.79 0 0 0-.67 1.17 2.43 2.43 0 0 1-.76 1.17.47.47 0 0 1 .18-.4q.18-.14 0-.41a1.87 1.87 0 0 0 .72-1.44 1.76 1.76 0 0 0-.41.63l-.31.81q-.36 0-.41.27t-.13.72a4.5 4.5 0 0 1-.54.94 2.57 2.57 0 0 0-.45 1.21 16.59 16.59 0 0 0-1.89 4.5 3.89 3.89 0 0 0 .58-1l.41-1q.27.45-.23 1.13a4.15 4.15 0 0 0-.67 1.3c-.12 0-.18 0-.18-.09s-.06-.09-.18-.09a.9.9 0 0 0 0 1.08c-.12 0-.18 0-.18-.09s-.06-.09-.18-.09a.29.29 0 0 1-.09.36.36.36 0 0 0 .27.09 17 17 0 0 0-.58 1.94 3.85 3.85 0 0 1-.86 1.67c-.06-.3 0-.48.09-.54s.12-.18 0-.36q.45-.09.18-.27t-.18.27h-.18a8.58 8.58 0 0 1 1.13-3.6 12.66 12.66 0 0 0 1.39-3.6 4.74 4.74 0 0 0 .77-1.12 1.5 1.5 0 0 0 .22-1.21 26.5 26.5 0 0 0 2.52-4.54 23.23 23.23 0 0 1 2.61-4.54v-.63a2.34 2.34 0 0 0 1-1.17 1.33 1.33 0 0 1 1.26-.81c.12 0 .27-.15.45-.45a1 1 0 0 1 1 .14.86.86 0 0 0 .9.13c0 .12 0 .2.09.22s.09.11.09.23h.54c.18 0 .27-.06.27-.18a2 2 0 0 0 1 .9 2.85 2.85 0 0 1 1.08.72q.27.9.63 1.89a4.83 4.83 0 0 1 .27 2.07 21.09 21.09 0 0 1 .41 4.68v5a.41.41 0 0 1-.23.22.21.21 0 0 0-.14.22.87.87 0 0 1 .32.95 4.34 4.34 0 0 1-.32.95l.27.27a16.15 16.15 0 0 0 0 2.07 16.15 16.15 0 0 1 0 2.07v.9a.81.81 0 0 1-.45.72c0 .12.06.15.18.09a.18.18 0 0 1 .27.09 7.49 7.49 0 0 0 0 2.16 6.88 6.88 0 0 1 0 2.07c-.12 0-.18 0-.18-.13s-.06-.1-.18 0a5 5 0 0 1 .54 2.7 8.25 8.25 0 0 0 .36 3 1.32 1.32 0 0 0-.27.36 1 1 0 0 0-.09.45c-.06.18 0 .27.09.27a.29.29 0 0 1 .27.18q.18 2.52.49 5a7.73 7.73 0 0 0 1.58 4c0-.12.15-.18.45-.18a1.43 1.43 0 0 1 .63-.18 11.67 11.67 0 0 0 1.93-2.83 10.24 10.24 0 0 0 .94-3.56 2.24 2.24 0 0 0 .86-1.3 7 7 0 0 0 .22-1.75 4.46 4.46 0 0 1 .45-1.08 1.72 1.72 0 0 0 .09-1.26 2 2 0 0 0 .49-1.08l.32-1.71q.18-1 .27-1.84t.18-1.58a.79.79 0 0 1 .22-.58 1.67 1.67 0 0 0 .31-.41 2.15 2.15 0 0 0-.13-.58c-.09-.27 0-.43.32-.5a.45.45 0 0 1 .09-.72 2.72 2.72 0 0 1-.09-.81.73.73 0 0 1 .36-.72 2.44 2.44 0 0 1 0-.5.43.43 0 0 0-.13-.41 1.13 1.13 0 0 0 .36-1.21.68.68 0 0 1 .54-.94.78.78 0 0 1-.27-.54 1.82 1.82 0 0 1 .14-.63c.09-.24.17-.45.22-.63a.51.51 0 0 0-.18-.54 6.52 6.52 0 0 0 .45-.67.86.86 0 0 0 0-.76c.12-.12.19-.13.22 0a.21.21 0 0 0 .22.13v-.54c-.12 0-.18 0-.18.13s-.06.14-.18.14a3.62 3.62 0 0 0 .4-1.31 7.6 7.6 0 0 0 0-1.39c.06.06.18.06.36 0q-.18-.45-.36 0c-.12-.06-.18-.1-.18-.13s-.06 0-.18 0q0-.27.27-.13a.36.36 0 0 0 .45 0 .61.61 0 0 1-.18-.45c0-.18.12-.3.36-.36-.06-.18-.12-.37-.18-.58s0-.32.27-.32c0-.18 0-.25-.13-.22s-.14 0-.14-.14c0-.36.09-.51.27-.45a1.53 1.53 0 0 1 0-.63 2.14 2.14 0 0 0 0-.72c.12-.06.18 0 .18 0s.06.17.18.23a2.47 2.47 0 0 1-.27-1.44c.24-.06.33 0 .27.18s0 .3.09.36.15-.16.09-.31 0-.23.09-.23c-.06-.18-.11-.24-.13-.18s-.11 0-.22-.09 0-.19 0-.23.1-.13 0-.31a.87.87 0 0 1-.36-.54 1.63 1.63 0 0 1 0-.77 1.55 1.55 0 0 1 .31-.67.64.64 0 0 1 .5-.27 1.22 1.22 0 0 0-.23-.32c-.09-.09-.11-.25 0-.5s.19-.15.23-.09.1.09.22.09q-.36-.18-.32-.76c0-.39.17-.52.41-.41a3.18 3.18 0 0 0-.18-.31.55.55 0 0 1-.09-.32c.12-.06.18 0 .18 0s.06.08.18 0a1.66 1.66 0 0 0 .09-.9 1 1 0 0 1 .09-.72c0-.12 0-.16-.09-.13a.61.61 0 0 1-.27 0 .68.68 0 0 1 .09-.63c.12-.06.15 0 .09.13s0 .23.18.23a.74.74 0 0 0 0-.45 2.69 2.69 0 0 1 0-.45c-.06-.18-.12-.18-.18 0s-.15.24-.27.18c0-.24.08-.39.23-.45a.55.55 0 0 0 .31-.36c0-.24 0-.25-.09 0s-.12.22-.18 0a1 1 0 0 1 .27-.67c.18-.21.09-.37-.27-.5a2 2 0 0 1 .36-.72q.27-.36-.18-.81a1.7 1.7 0 0 0 .09-.95 2.48 2.48 0 0 1 0-.94h.36q-.36-.18-.09-.67a.5.5 0 0 0-.18-.77 9.46 9.46 0 0 0-.18 1.08A12.36 12.36 0 0 1 283 21a6.46 6.46 0 0 1 0-2.16 6.56 6.56 0 0 0 0-2.16.5.5 0 0 0 .31-.67 2.72 2.72 0 0 0-.31-.77.36.36 0 0 1 .36-.18 1.54 1.54 0 0 1-.22-.72.84.84 0 0 1 .22-.72 1.84 1.84 0 0 1-.31-1q0-.63-.09-1.35a9.39 9.39 0 0 0-.18-1.35 2.58 2.58 0 0 0-.5-1.08.77.77 0 0 1 1-.27 6.55 6.55 0 0 0 1.13.36 3.64 3.64 0 0 1 .54 1.53 9.87 9.87 0 0 1 0 1.62l-.09 1.58A4.1 4.1 0 0 0 285 15c0 .06-.09.09-.27.09s-.18.21 0 .27.24.15.18.27a.52.52 0 0 1-.36-.09 1.32 1.32 0 0 1 .27.81v1.85a1.18 1.18 0 0 0 .18.67 2 2 0 0 0-.18 2.07 1.18 1.18 0 0 0-.49.9c-.09.48 0 .72.31.72-.12.06-.17.21-.13.45s0 .39-.22.45a.4.4 0 0 0 .22.23c.09 0 .13.13.13.31l-.27-.27a40.77 40.77 0 0 1-.41 4.36 23.84 23.84 0 0 0-.23 4.46.41.41 0 0 0-.22.23.21.21 0 0 1-.22.13 2.76 2.76 0 0 1 0 1.71 3.7 3.7 0 0 0 0 2 .3.3 0 0 0-.36.09.36.36 0 0 0 .07.29c.06.06.06.18 0 .36a1.23 1.23 0 0 0-.18.9.51.51 0 0 1-.36.63v1.22a.74.74 0 0 1-.46.89.7.7 0 0 1 .45.72v.9a5 5 0 0 0-.58 1.71q-.14.9-.23 1.84t-.26 1.83a6 6 0 0 1-.58 1.8 19.56 19.56 0 0 1-.9 5.4 25.24 25.24 0 0 0-1.08 5.31 6 6 0 0 0-.81 1.3 3.47 3.47 0 0 0-.36 1.49 17.32 17.32 0 0 0-.81 1.67 2 2 0 0 0 0 1.84c.24.06.36 0 .36-.27.12 0 .18.15.18.45a1.16 1.16 0 0 0 .27-.54.83.83 0 0 0 0-.54c0-.12 0-.13-.13 0a.25.25 0 0 1-.32 0c-.06.12 0 .19 0 .23s0 0-.22 0a2.65 2.65 0 0 1 .13-.72.56.56 0 0 1 .58-.45c.06.3.1.55.13.76a2.16 2.16 0 0 0 .32.77 1.62 1.62 0 0 0 .27-1q-.54-.18-.41-.54a4.88 4.88 0 0 0 .23-.9c.3 0 .45 0 .45-.09s.13.12 0 .18-.11.15 0 .27a.6.6 0 0 0 .36-.13c.12-.09.18 0 .18.22h.18c.06-.24 0-.35-.09-.32s-.18 0-.18-.13a11 11 0 0 1 .77-2.43 6 6 0 0 0 .5-2.52c.18.12.3.14.36 0a1.1 1.1 0 0 0 .13-.4 2.28 2.28 0 0 1 .13-.5q.09-.23.27-.23a3.17 3.17 0 0 0-.09-.9c-.06-.18-.15-.42-.27-.72h.81a.71.71 0 0 1-.18-.95 2.67 2.67 0 0 0 .27-1.12q-.36-.09-.27.36c.06.3 0 .42-.27.36a2.89 2.89 0 0 0 .18-.85 2.89 2.89 0 0 1 .18-.86q.18 0 .18.54a.08.08 0 0 0 .09-.09v.09a.43.43 0 0 0 .22-.45.46.46 0 0 0-.14-.39 2.42 2.42 0 0 0 .54-.81.35.35 0 0 1-.36-.27 1.24 1.24 0 0 0 .31-1.17.68.68 0 0 1 .5-.9c.06-.18 0-.28-.09-.32s-.15-.1-.09-.22a.78.78 0 0 0 .45-.67 1.26 1.26 0 0 0-.27-.77.54.54 0 0 0 .4-.58.91.91 0 0 1 .31-.76c-.3 0-.45-.24-.45-.72q.45-.09.27.54c.18-.06.27-.27.27-.63s-.09-.54-.27-.54q.36-.9.72-1.85a2.47 2.47 0 0 0 0-1.84 4.38 4.38 0 0 0 .45-1.3c.12-.57 0-.88-.27-.95a.87.87 0 0 0 .54-.81v-1.17a.77.77 0 0 0-.58.9 1.45 1.45 0 0 1-.41 1.17 5.82 5.82 0 0 0 .18-1.58 2.63 2.63 0 0 1 .45-1.57 1.79 1.79 0 0 1 0 .54 1.73 1.73 0 0 0 0 .54c.18.06.27 0 .27-.14s.09-.19.27-.13q-.09-.45-.13-.58c0-.09.07-.13.32-.13a7.07 7.07 0 0 1 .09-1.17c.06-.36.12-.69.18-1 0-.12-.08-.18-.22-.18s-.2-.09-.14-.27c-.18.06-.26.23-.22.5a.69.69 0 0 1-.14.58.39.39 0 0 1-.18-.58 4.72 4.72 0 0 0 .27-.76q.36.27.72-.45t-.18-1.08c0-.12.12-.24.36-.36a1.42 1.42 0 0 0-.27-.22.65.65 0 0 1-.18-.13 1.86 1.86 0 0 0-.09.72 2.64 2.64 0 0 1-.18 1 2.59 2.59 0 0 1-.18-1.31c.06-.39.15-.85.27-1.39.18-.06.24 0 .18.13a.47.47 0 0 0 0 .41.49.49 0 0 0 .22-.18c0-.06.13 0 .31.09-.24-.12-.36-.27-.36-.45a1.5 1.5 0 0 1 .13-.58 5.34 5.34 0 0 0 .22-.63.68.68 0 0 0-.09-.58 1 1 0 0 0 0-.77 1.21 1.21 0 0 1 0-.85.37.37 0 0 1 .23 0 .18.18 0 0 0 .13 0v-.54c-.06 0-.09.12-.09.36l-.27-.27c-.18 0-.26.08-.22.23s0 .2-.22.13a4.32 4.32 0 0 1-.09-.86 1.67 1.67 0 0 1 .27-.85 2.88 2.88 0 0 1-.18-1.08.77.77 0 0 1 .45-.81v1.44a2 2 0 0 1-.31 1.26c.06.12.13.18.22.18s.1.06 0 .18a1 1 0 0 0 .36-.45c-.06-.06-.11-.09-.13-.09s-.08 0-.14-.09a1.71 1.71 0 0 1 .18-.41q.09-.13-.09-.41c.12 0 .18 0 .18.09s.06 0 .18-.09q-.18-.09-.27-.54c-.06-.3 0-.48.27-.54-.18-.48-.2-.82 0-1a1.11 1.11 0 0 0 0-.95v-.09c0 .06-.11.09-.23.09a3.37 3.37 0 0 1 .18-1.08c.12 0 .18 0 .18-.09s0-.15-.09-.09a.26.26 0 0 0-.09.18c-.06-.36-.11-.66-.14-.9a4.71 4.71 0 0 1 0-1.08h.27c.06-.12 0-.19 0-.22a.55.55 0 0 1-.23-.13c-.06-.12 0-.17.14-.13s.19 0 .13-.14 0-.19 0-.22a.41.41 0 0 1-.23-.22.67.67 0 0 0-.13.72 1.33 1.33 0 0 1 0 .9.65.65 0 0 1-.27-.58V18a12.59 12.59 0 0 1 .09-1.48 6.19 6.19 0 0 0 0-1.49c0-.12 0-.18.13-.18s.14-.06.14-.18 0-.19-.09-.22-.06-.1 0-.22a1.24 1.24 0 0 1-.54-.09c.12-.24.21-.3.27-.18a.29.29 0 0 0 .27.18 6 6 0 0 1-.23-1.26 4.87 4.87 0 0 1 0-1.17.31.31 0 0 0-.22-.09c-.09 0-.17-.06-.22-.18.12-.24.19-.34.22-.32s.1-.07.22-.31a.48.48 0 0 0-.54-.36.39.39 0 0 0 0-.36 1.24 1.24 0 0 1-.09-.54c.42.24.85.48 1.3.72a1 1 0 0 1 .49 1.26.28.28 0 0 0 .23.31c.15 0 .23.11.23.23s.06.21 0 .27a.37.37 0 0 0-.09.27 5.58 5.58 0 0 1 .18 2 3.35 3.35 0 0 0 .18 1.62 30.06 30.06 0 0 0-.22 4.37 13.82 13.82 0 0 1-.5 4.09 2.85 2.85 0 0 1 .14 1.13q0 .59-.14 1.21t-.13 1.26a3 3 0 0 0 .13 1.17 13.63 13.63 0 0 0-.63 3.33q-.18 2.07-.18 3.51a7.57 7.57 0 0 0-.58 2.79q0 1.53-.22 3.33a1.8 1.8 0 0 0-.27 1.26 3.74 3.74 0 0 0-.27 1.93 1.87 1.87 0 0 1-.63 1.76 55.61 55.61 0 0 1-1.3 8.37q-.95 4-1.67 8.28a15.6 15.6 0 0 0-1.21 2.7q-.5 1.44-1.12 2.83a18.33 18.33 0 0 1-1.44 2.61 7 7 0 0 1-2.07 2l-1.21.13a2.15 2.15 0 0 0-.86.32 4.67 4.67 0 0 1-.86-.45 1.44 1.44 0 0 0-1-.18c.06-.12.06-.2 0-.23s-.09-.11-.09-.22-.09 0-.09 0h-.18a16.3 16.3 0 0 1-2.74-3.37 15.7 15.7 0 0 1-1.81-4.16q-.09-.9-.27-1.85a9.32 9.32 0 0 1-.18-1.75 1 1 0 0 0 .09-1.08 1.61 1.61 0 0 1-.09-1.17.91.91 0 0 1-.27-.85q.09-.5.18-1.21a4.4 4.4 0 0 1 .13 1.44 2.19 2.19 0 0 0 .4 1.44.18.18 0 0 1-.13 0 .18.18 0 0 0-.13 0 4.08 4.08 0 0 1 .09.94v1.17a4.91 4.91 0 0 0 .18 1 .94.94 0 0 0 .59.63c-.06.18-.12.24-.18.18a.37.37 0 0 0-.27-.09q-.09.45.09.58a.89.89 0 0 1 .27.32c-.06 0-.09.12-.09.36.06 0 .09-.12.09-.36a2.44 2.44 0 0 0 .23-1.26 12 12 0 0 0-.18-1.44c-.09-.48-.17-.94-.23-1.39a2 2 0 0 1 .18-1.21q-.18-1.53-.36-3.33a12.84 12.84 0 0 1 0-3.06c.06-.12 0-.18-.09-.18a.16.16 0 0 1-.18-.18 6.79 6.79 0 0 0 .22-2.07 15.28 15.28 0 0 0-.22-2.07q0-.27.27-.18c0-.12 0-.18-.09-.18a.25.25 0 0 1-.18-.09c.06-.48.13-1.11.22-1.89a1.53 1.53 0 0 0-.58-1.62c0-.24 0-.3.13-.18a.38.38 0 0 0 .31.18.67.67 0 0 0 .18-.5 2.31 2.31 0 0 0-.09-.63 1.3 1.3 0 0 1 0-.58.65.65 0 0 1 .41-.45c-.12-.12-.18-.21-.18-.27s-.06-.12-.18-.18a3.52 3.52 0 0 0 .18-2 14.24 14.24 0 0 1-.18-2.16c-.06 0-.09.12-.09.36-.12-.12-.18-.21-.18-.27a.73.73 0 0 0-.09-.27h.36a.8.8 0 0 1 0-.54q.09-.36-.18-.27v.5a.55.55 0 0 1-.36.5.76.76 0 0 1 .13.9c-.15.36-.08.6.22.72a.56.56 0 0 0-.18.41c0 .15-.09.17-.27 0-.06.12 0 .18 0 .18s.1.12 0 .36a.26.26 0 0 0-.09.18c-.06.18-.06.27 0 .27a.26.26 0 0 1 .18.09.66.66 0 0 0-.23.76 1.71 1.71 0 0 1 0 .86c.06.18.15.29.27.31s.18.17.18.41a1 1 0 0 0-.36-.18.93.93 0 0 0-.36.18 43.45 43.45 0 0 1 0-4.5 34.16 34.16 0 0 0 0-4.59h.36c0-.12-.12-.18-.36-.18q-.09-1.17-.14-2.34a7.16 7.16 0 0 0-.4-2.16 68.34 68.34 0 0 0-6.57 12.11Q256 49 253.26 55.44a.45.45 0 0 1 0 .54 3.1 3.1 0 0 1-.36.45 3.11 3.11 0 0 1-.81 2.16.37.37 0 0 0 .09.27c.06.06.06.15 0 .27a.21.21 0 0 0-.22.18.41.41 0 0 1-.22.27c.06.18.12.27.18.27a1.09 1.09 0 0 0-.27.5.81.81 0 0 1-.45.5c.12.12.17.19.13.22a1.35 1.35 0 0 0-.13.41 25.82 25.82 0 0 0-1.4 3.37q-.59 1.75-1.12 3.55-.54 0-.27.54a3.53 3.53 0 0 0-.95 1.89 3.28 3.28 0 0 1-1 1.89.57.57 0 0 1 0 .36.93.93 0 0 0 0 .36q-.72 1.08-1.39 2.34a18.38 18.38 0 0 1-1.48 2.34 10.55 10.55 0 0 1-1.89 1.94 5.7 5.7 0 0 1-2.52 1.13c-.06 0-.09.12-.09.36a4.18 4.18 0 0 1-3.29-.9 18.06 18.06 0 0 1-2.21-2.34l-.09.09v.18a7.23 7.23 0 0 1-1.5-2.8 24.05 24.05 0 0 1-.67-3.29 31.33 31.33 0 0 1-.27-3.37q0-1.71-.13-3.15a6.26 6.26 0 0 0 .27-1.8 6.63 6.63 0 0 1 .18-1.62q.18-2 .4-3.83t.41-3.65a8.19 8.19 0 0 1 .32-1.44q.22-.72.4-1.35a4.39 4.39 0 0 0 .09-.85v-.86q.18-.63.36-1.08a2.9 2.9 0 0 0 .18-1.08 6.91 6.91 0 0 1 .22-.85c.09-.27.16-.52.22-.76a11.18 11.18 0 0 0 .5-2.25 4.45 4.45 0 0 1 .76-2.07 6.53 6.53 0 0 1 .63-2.38q.54-1.12 1-2.12a11 11 0 0 1 1-4.14c.06-.12 0-.21 0-.27s-.11-.15 0-.27a1.23 1.23 0 0 0 .54-1.31 1.41 1.41 0 0 1 .54-1.39.15.15 0 0 0-.09-.13c-.06 0-.06-.1 0-.23q1.53-4.32 2.92-8.5t2.92-8.33c-.12-.18-.21-.13-.27.13a.6.6 0 0 1-.36.5 2.23 2.23 0 0 1 .18-1c.12-.24.24-.51.36-.81h.14c-.03 0 0 .08 0 .13a.93.93 0 0 0 .36-.63c.06-.3 0-.39-.18-.27A.53.53 0 0 1 245 11q.18-.18.27.09a2.61 2.61 0 0 1 .22-1.67 9.37 9.37 0 0 0 .59-1.84c.18 0 .21.12.09.36.24-.12.31-.24.22-.36a.9.9 0 0 0-.31-.27q.81-1.89 1.53-3.73T249 0q1.8.09 3.51.27A2.65 2.65 0 0 1 254.88 2a1.54 1.54 0 0 1-1.12.76 1.82 1.82 0 0 0-1.21.77 68.74 68.74 0 0 0-2.76 6.47q-1.21 3.33-2.65 6.66c0 .06.06.15.18.27a8.17 8.17 0 0 0-1.12 2.75 12.24 12.24 0 0 1-1 2.93v.22a.36.36 0 0 1 0 .22 10.45 10.45 0 0 0-.85 2.07q-.32 1.08-.76 2.43 0 .09-.45.27a.16.16 0 0 0 .18.18c.12 0 .15.09.09.27a3.88 3.88 0 0 0-.54 1.75 1.72 1.72 0 0 1-1 1.48c0 .12.07.17.23.14s.22 0 .22.13q-.45 1.08-.85 2.38a8.61 8.61 0 0 0-.41 2.57 1.48 1.48 0 0 1-.54.45.36.36 0 0 0 .09.27c.06.06.06.18 0 .36a.66.66 0 0 0-.27.22.67.67 0 0 1-.36.22c0 .12.06.15.18.09a.18.18 0 0 1 .27.09c-.12.24-.2.36-.22.36s0 .12.13.36a.73.73 0 0 0-.45.27.36.36 0 0 0 .09.27q.09.09 0 .27a4.19 4.19 0 0 0-.58 2 2.81 2.81 0 0 1-.86 1.93.32.32 0 0 0 .36.36.16.16 0 0 1-.18.18.29.29 0 0 0-.27.18 2.22 2.22 0 0 1-.27 1.84 2.22 2.22 0 0 0-.27 1.84 1.38 1.38 0 0 1-.54.18.54.54 0 0 1 .09.54.43.43 0 0 1-.45.36.24.24 0 0 0 .27.27c.18 0 .24.12.18.36-.12 0-.2 0-.22-.09s-.11 0-.22.09a3 3 0 0 1 .13 1.85 7.77 7.77 0 0 1-.58 1.67q.36 1.08-.36 1.53-.18 2.16-.45 4t-.72 4.05a.37.37 0 0 1-.27-.09 1.53 1.53 0 0 1 .36 1.3 5.16 5.16 0 0 1-.36 1.48c0 .12.09.18.27.18a46.56 46.56 0 0 0-.27 6.39 14.07 14.07 0 0 0 1.53 5.94 5.89 5.89 0 0 0 3.37-2.29q1.08-1.71 2.34-3.42c.06-.12 0-.21 0-.27s-.11-.15 0-.27a8.72 8.72 0 0 0 1.49-2.92 7.06 7.06 0 0 1 1.5-2.88.47.47 0 0 1 0-.45c.09-.12.07-.21 0-.27q1-2.25 1.89-4.59t1.62-4.5a.49.49 0 0 0 .22-.18.49.49 0 0 1 .23-.18 13.05 13.05 0 0 1 1.04-3.64q.81-1.76 1.44-3.56c.12.06.21 0 .27 0s.15-.1.27 0a3.11 3.11 0 0 1-.22.63 5 5 0 0 1-.31.54c0 .12.06.17.18.13a.27.27 0 0 1 .27 0 5.3 5.3 0 0 0-.67.41 1 1 0 0 0-.32.86c.3 0 .39-.15.27-.45.18.06.23.2.13.41s-.17.38-.23.5c-.06-.12-.12-.18-.18-.18s-.04.06.02.28zm-18.99 16a1 1 0 0 1 .09-.45.38.38 0 0 0 0-.36h-.18a.3.3 0 0 1 0 .4.3.3 0 0 0 .09.41zm0-1.17a5.94 5.94 0 0 0 .18-.95c.06-.45 0-.71-.18-.76a9 9 0 0 1 0 .9 2.35 2.35 0 0 0 0 .76zm0 2a.59.59 0 0 1 .14-.36c.09-.12 0-.18-.14-.18a2.07 2.07 0 0 1 0 .4c-.08.08-.06.13 0 .07zm.32-4.54c.09-.33 0-.47-.22-.41a.58.58 0 0 0 0 .45.41.41 0 0 1-.09.45c.06-.07.21-.24.3-.56zm0-2.3a1 1 0 0 0-.22.63 1 1 0 0 0 .58-.9 2 2 0 0 0-.13-1c.12.3.1.46 0 .5s-.23.1-.23.22a.36.36 0 0 1-.01.48zm0 1.53a.55.55 0 0 1 .09-.31c.06-.09 0-.17-.09-.23s-.11.08-.14.23a.26.26 0 0 0 .18.24zm.22 6.53a3.41 3.41 0 0 0-.22-1.85 7.5 7.5 0 0 1 0 1.8 3.12 3.12 0 0 0 .23 1.8 7.05 7.05 0 0 1 .03-1.8zm-.22-2.57q.27 0 .27-.41c0-.27-.06-.4-.18-.4a.75.75 0 0 1-.09.4.46.46 0 0 0 .04.34zm0 .54c.12.06.18 0 .18-.22s-.06-.26-.18-.13zm.09-1.53c.3-.06.4-.17.31-.31a2.11 2.11 0 0 0-.31-.41zm0 6.84c.18.12.27 0 .27-.36s-.09-.48-.27-.36a.76.76 0 0 1 .04.65zm.18-7.65a1 1 0 0 0 .18-.32q.09-.23-.27-.13a.3.3 0 0 1 0 .32c-.02.02.01.06.13.06zm.18 7.92c-.18 0-.27 0-.27.09.22-.07.31-.1.31-.16zm0-13.5a10 10 0 0 1 .27-1.39 1.43 1.43 0 0 0-.18-1.22 1.91 1.91 0 0 1-.13 1.35 1.26 1.26 0 0 0 .08 1.16zm0 4.68a8.24 8.24 0 0 1 .18-1.8 3.29 3.29 0 0 0 0-1.53 7.12 7.12 0 0 1-.18 1.53 4.49 4.49 0 0 0 .04 1.73zm.09 10.62c.06.18.09.19.09 0s0-.19-.05-.07zm.21-18.88a.4.4 0 0 1 0 .18.63.63 0 0 0 0 .27q.18.09.13-.09a1.45 1.45 0 0 1 0-.36h.18a6.46 6.46 0 0 1 .45-2.34 3.43 3.43 0 0 0 .18-2.16c-.12.66-.27 1.37-.45 2.12a14.7 14.7 0 0 0-.49 2.38zm0 3.87h.27v-.27H233zm.45-2a.71.71 0 0 0 .13-.36c0-.18 0-.3-.13-.36a.81.81 0 0 1-.09.36.29.29 0 0 0 .1.38zm.09-1a6.91 6.91 0 0 1 .22-.85c.09-.27.07-.46 0-.58a2 2 0 0 0-.21 1.46zm.18 7.47q-.18-.09 0-.27c.12-.12.12-.18 0-.18s-.18.12-.18.36.07.3.19.12zm.09-9.09a1 1 0 0 1 .22-.58q.22-.31-.22-.41a1.63 1.63 0 0 0-.13.5.54.54 0 0 0 .14.52zm0 2.52c.12.12.18.1.18 0s-.05-.15-.17.03zm.36-1c-.18 0-.27 0-.27.09a.15.15 0 0 1 .18 0c.07.03.1.01.1-.05zm-.17-5.54q.36-1.26.63-2.34t.63-2.16h-.36a13.37 13.37 0 0 1-.58 2.34 5.16 5.16 0 0 0-.32 2.16zm.27 2.25c0-.12-.09-.24-.27-.36a.71.71 0 0 1 .09.27c0 .09.06.09.18.09zm.09 2.34q-.27-.27-.27 0t.27 0zm-.09 3.06c-.12.18-.11.19 0 0s.18-.12 0 0zm.09-7.29a.29.29 0 0 1 .09.45.87.87 0 0 0-.18.45c.3.06.41-.09.32-.45s0-.57.22-.63h-.36v.09s-.09.03-.09.09zm-.09 1.35q.09.36.09 0t-.09 0zm.45 3.87c-.18 0-.27 0-.27.09a.15.15 0 0 1 .18 0c.06-.01.09-.03.09-.09zm0-.27c-.12.06-.15.11-.09.13s.09 0 .09-.13.15-.09.09-.27 0-.3.09-.36c-.18-.06-.26 0-.22.18a2.91 2.91 0 0 1 .04.45zm.27-6.57a.35.35 0 0 0-.27.36.61.61 0 0 0 .18.45 1 1 0 0 1 .18-.36c.06-.06 0-.21-.09-.45.24 0 .33-.07.27-.22a.35.35 0 0 1 .09-.41c-.24 0-.35.21-.35.63zm-.18 5.51c.06.24.09.26.09 0s-.03-.2-.09 0zm.18-4v.18h.27c.18-.18.12-.27-.18-.27a.08.08 0 0 1-.08.02zm.27 2.34h.18v-.18h-.18zm.36-5.76h-.18q-.27.36-.14.58t.32-.65zm-.27-1.62a10.22 10.22 0 0 1 .45-1.96 2.85 2.85 0 0 0 .09-1.84 12.72 12.72 0 0 1-.45 1.89 3.91 3.91 0 0 0-.09 1.84zm.09 4.41a.8.8 0 0 1 .09-.36c.06-.12 0-.15-.18-.09q.09.09 0 .27c-.06.05-.03.11.09.11zm0 7.29c.24 0 .36-.09.36-.27s-.2-.13-.23 0a2.66 2.66 0 0 1-.13.2zm.45-11.79c-.12.06-.18.13-.18.22a.5.5 0 0 1-.18.32c.24.06.36-.12.36-.54h.11c.06-.24 0-.36-.18-.36s-.06.11 0 .13.07.04.07.16zm-.36 3.6c.12 0 .18-.09.18-.27s-.06-.21-.18-.09zm.27 1.8v.18h.2c.06-.12 0-.18-.18-.18a.47.47 0 0 1 0-.41c.06-.15 0-.22-.09-.22a.89.89 0 0 0-.09.41c-.02.08.04.15.16.15zm0 1.89a.26.26 0 0 0-.18.09c.12-.07.18-.1.18-.16zm0-5.13c-.06.3-.06.32 0 0s.06-.31 0-.03zm.27 1.8c-.18-.18-.24-.27-.18-.27a.25.25 0 0 0 0 .32c.11.02.18 0 .18-.12zm-.07-4.48c.12-.06.21-.23.27-.5s0-.41-.27-.41a.39.39 0 0 1 0 .5.27.27 0 0 0 0 .41zm.36-3.51a.18.18 0 0 1-.13 0 .19.19 0 0 0-.13 0c-.12.06-.12.12 0 .18a.18.18 0 0 0 .24-.18zm-.36 7.47q.27.09.27-.32t-.27-.22a.86.86 0 0 1 .09.22 2 2 0 0 1-.09.32zm.36-7.74a1.47 1.47 0 0 1 .23-.67c.15-.27.07-.43-.23-.5a.83.83 0 0 1-.09.63c-.14.24-.11.42.07.54zm-.11 2.43c.18-.06.3-.28.36-.67s0-.58-.09-.58a2.78 2.78 0 0 0-.27 1.25zm.09 4q.18.18.18-.13t-.18-.13zm.18-8.1a7.57 7.57 0 0 0 .94-2.29 15.71 15.71 0 0 0 .41-2.66q-.45 1.53-.67 2.61a17.9 17.9 0 0 1-.68 2.3zm.27 2.43c-.18 0-.27 0-.27.09.18-.04.27-.07.27-.13zm.13-.4c0-.15 0-.19-.13-.14a.08.08 0 0 1-.09.09.08.08 0 0 0-.09.09c.18.08.28.03.31-.08zm0 4.09a.08.08 0 0 1 .09-.09c.06 0 0 0-.09-.09a.08.08 0 0 1-.09.09c-.1-.04-.07-.01.05.07zm.18-4.59V42a.37.37 0 0 0-.09-.27 1.12 1.12 0 0 1-.09.4c-.1.19-.04.26.14.26zm0 3.42v.27q.14-.22-.04-.31zm.72-6.57a2 2 0 0 0-.5 1 1.64 1.64 0 0 0 0 1 6.7 6.7 0 0 0 .22-1 6.52 6.52 0 0 1 .23-1h.09a.38.38 0 0 0 .14-.36.21.21 0 0 0-.23-.18c-.12.12-.15.2-.09.23s.1.09.1.27zm.45-1.08a1.36 1.36 0 0 1 .13-.9c.15-.3.13-.51 0-.63a1.21 1.21 0 0 1-.18.86q-.35.47.01.63zm-.27 3.65a1.06 1.06 0 0 0 .36-.9.33.33 0 0 0-.22.41.55.55 0 0 1-.14.49zm.36-7.11c-.12 0-.18 0-.18.09s.23-.03.23-.09zm.18 1.53a.37.37 0 0 1 .09-.27 1 1 0 0 0 .18-.27c-.12-.06-.23 0-.32.18s-.03.3.1.36zm0-2.43q.18.36.18 0t-.13 0zm.27 5.4c-.12.18-.11.2 0 0s.19-.12.05 0zm.09-6a3.92 3.92 0 0 1 .23-.76.58.58 0 0 0 0-.58 1.45 1.45 0 0 1-.18.63.76.76 0 0 0 0 .68zm.09 1.62a.16.16 0 0 1 .18-.18c.12 0 .15-.06.09-.18h-.36c.05.21.1.33.1.33zm.27-.54c.12-.3.06-.45-.18-.45a.42.42 0 0 1 0 .31q.05.11.23.11zm.72-4.95c-.12.3-.24.62-.36.94a6.25 6.25 0 0 0-.27.95c.12-.18.27-.42.45-.72a1.8 1.8 0 0 0 .18-1.17h.09a2.4 2.4 0 0 1 .23-.36c.09-.12.07-.21 0-.27a4.77 4.77 0 0 0-.3.6zm-.18-2.75c-.06.15-.15.17-.27 0v-.18c.12 0 .18 0 .18-.09s.2.1.14.25zm0 9.5a3 3 0 0 0 .18-.72c-.18.06-.27.17-.27.32a.9.9 0 0 0 .14.37zm.27-4.86q.18-.27 0-.36c0 .12 0 .2-.09.23s.02.04.14.1zm.54-4.14q.27.18.31-.14c0-.21 0-.31-.13-.31a1 1 0 0 1-.13.22.35.35 0 0 0 0 .2zm.27-.63c.06.18.09.18.09 0s.03-.21-.04-.03zm0 2.25q.18.27.18 0c.05-.28-.06-.27-.13-.03zM241 26c.12.06.19 0 .22-.18s0-.27-.13-.27a.4.4 0 0 1 0 .18.61.61 0 0 0-.09.27zm0 2.07q.09.27.13 0c.05-.24.01-.23-.13.01zm.09-6.12c.12-.3.13-.31 0 0s-.09.25.02.05zm.36-.9c.06.18.06.3 0 .36a.52.52 0 0 0-.09.36c-.12-.06-.15-.16-.09-.31s.14-.28.2-.4zm-.18 4.14c0 .12 0 .18.09.18s0-.09 0-.09v-.09a.11.11 0 0 0-.07.01zm.09 2.34a.37.37 0 0 0-.09-.27c.02.19.05.28.11.28zm.09-6.48c0-.12 0-.17.09-.13s.05.08-.07.14zm.09 2.52a.27.27 0 0 1 .09.18c0 .06.06.12.18.18a.33.33 0 0 1 .09-.41q.18-.13 0-.31a.54.54 0 0 1-.34.37zM242 23q.18.27.18 0c.01-.21-.05-.2-.18 0zm.09-4c.12-.24.18-.25.18 0s-.05.17-.17 0zm0 3.51c.18.12.29.09.32-.09s0-.27-.14-.27a.51.51 0 0 1-.17.35zm.27-4.23c.24 0 .3.06.18.18s-.18.21-.18.27c-.18-.06-.21-.14-.09-.23s.16-.17.1-.23zm.18 3.78c0-.12 0-.15.09-.09a.16.16 0 0 0-.18-.18c.01.21.04.26.1.26zm0-4.05c.18-.12.19-.12 0 0s-.11.11.01-.01zm0 3.6c.12 0 .24-.09.36-.27a.35.35 0 0 0-.35.26zm.36 51.84h.18v-.27h-.18zm.18-57.33c.18 0 .24 0 .18.13a.55.55 0 0 0-.09.32c.07-.01.04-.16-.08-.46zm.18-.54c.12-.06.18 0 .18.18-.06 0-.09.06-.09.18a.52.52 0 0 1-.08-.37zm.09 57.24a2.39 2.39 0 0 1 .81-.9c-.12-.24-.13-.37 0-.41a.41.41 0 0 0 .22-.22c0-.18-.15-.27-.45-.27l-.36.9a2.39 2.39 0 0 0-.21.89zm.18-57.87c.24-.06.31 0 .22.09a.6.6 0 0 0-.13.36.15.15 0 0 1 0-.18.33.33 0 0 0-.08-.28zm.36-.72h.11c-.06 0-.09.06-.09.18l-.09-.09zm.27 54.27c.12-.18.12-.3 0-.36 0 .12 0 .19-.09.23s-.07.06.1.12zm1 2.07c-.18 0-.21.06-.09.18s.15.06.09-.18c.12-.06.15-.13.09-.23a.55.55 0 0 1-.09-.31c.06-.12.09-.15.09-.09s.06.09.18.09c.06-.24 0-.36 0-.36s-.13-.09-.13-.27c.12 0 .15-.06.09-.18s0-.18.09-.18.18 0 .18.13.09.19.27.14a2.39 2.39 0 0 0-.09-.72.81.81 0 0 1 .09-.63c-.12-.12-.33-.09-.63.09a1 1 0 0 1-.36 1q-.45.31-.18 1a.18.18 0 0 1-.27-.09c-.06-.12-.15-.09-.27.09.12.06.13.22 0 .5s0 .41.32.41a.55.55 0 0 0 .14-.5c0-.21 0-.32.22-.32q.26.33.26.42zM244.35 24c.06.18.09.18.09 0s-.03-.15-.09 0zm.09-11a.08.08 0 0 0 .09.09c0-.12 0-.18.09-.18s.09-.06.09-.18h-.27zm.45 55.71c-.18 0-.27 0-.27.09.18-.04.27-.07.27-.13zm0-57.15a.7.7 0 0 1-.18.63v-.36a.29.29 0 0 1 .18-.31zm.45 56q.18-.18-.09-.09c-.06.12-.04.15.09.03zm-.09-56.88c.12.12.18.09.18-.09s-.06-.24-.18-.18zm.27-.45a.08.08 0 0 1 .09-.09c0-.18-.06-.24-.18-.18s.03.21.09.21zm.09 55a.58.58 0 0 0 .13-.27c0-.12 0-.18-.13-.18a.71.71 0 0 1-.09.27c-.06.05-.03.11.09.11zm-.09 1.8c.12.18.18.17.18 0s-.06-.31-.18-.03zm.09-57.78q.18.09.32-.18c.09-.18.07-.3 0-.36a.72.72 0 0 0-.09.31c-.05-.02-.11.1-.23.16zm.23 60.71a.26.26 0 0 1 .13-.32c-.12 0-.24.15-.36.45.18-.01.25-.09.22-.2zm1-6.26c0-.18-.12-.24-.36-.18 0 .3.06.45.18.45-.06.36-.18.42-.36.18s-.33-.21-.45.09a.8.8 0 0 0 .36.23.78.78 0 0 1 .36.22q.18.45-.13.45a.4.4 0 0 0-.4.36c.3.18.45.24.45.18-.18-.06-.29 0-.31 0s-.13.1-.31 0a.94.94 0 0 1 .09.72.4.4 0 0 0 .36.54l.81-1.35c.06 0 .07 0 0 .09s0 .12.13.18v-.36a.3.3 0 0 0 .36.09 1.11 1.11 0 0 0 .27-.18.59.59 0 0 1 .18-.72c.24-.24.18-.45-.18-.63.24 0 .37 0 .41-.13s.16-.08.4 0a.59.59 0 0 1 0-.63.64.64 0 0 0-.09-.72c-.24-.12-.39-.08-.45.13s-.15.25-.27.13a1 1 0 0 1 .09-.45l.18-.36q-.36-.27-.54.09c-.12.24-.3.24-.54 0a1.24 1.24 0 0 0-.09.54c.12.06.18 0 .18-.09s.09-.15.27-.09c-.12.3-.27.45-.45.45a1.69 1.69 0 0 0-.54.09c.12 0 .18 0 .18.13s.06.13.18.13.3-.12.54 0 .39 0 .45-.27a.84.84 0 0 1 0 .49.69.69 0 0 1-.32.5c0-.3-.09-.42-.27-.36a.41.41 0 0 1-.34-.01zm-.81 5a1 1 0 0 0 .18-.31c.06-.15.12-.17.18 0a.81.81 0 0 1-.13.4.3.3 0 0 0 0 .41 1 1 0 0 0 .22-.58.69.69 0 0 0-.13-.58H246a.49.49 0 0 1 0 .41c-.09-.04-.06.07.06.13zm0-60.48c.12.18.18.17.18 0s-.03-.36-.15-.12zm.72 54.18c-.06 0-.12.06-.18.18h.27c.03-.24 0-.3-.06-.3zm.09 1.35a.15.15 0 0 0 0 .18c0 .06 0 .09-.13.09.16-.3.22-.39.16-.39zm.09 3.92q.09-.23-.27-.13a.34.34 0 0 1 0 .32c0 .15 0 .22.13.22a1.09 1.09 0 0 1 .21-.54zm.09-5.8c.12.06.18 0 .18-.18s0-.24-.09-.18a.19.19 0 0 1 0 .14s-.11-.03-.11.09zm.27 1.26a.08.08 0 0 1 .09.09.08.08 0 0 0 .09.09c0 .12-.06.15-.18.09s-.09-.28.03-.4zm.27-1a.57.57 0 0 0 .23-.58 1 1 0 0 0-.23-.58h-.27q.36.18.13.58t.17.45zm-.09 3.24v-.09c.12 0 .17 0 .13.09a.31.31 0 0 1-.13.14h-.13s.04-.14.16-.26zm0-1.08c.12 0 .19.08.22.23a.26.26 0 0 1-.13.31c-.12.06-.15 0-.09-.13a.48.48 0 0 0 .03-.53zm.81-3.6c0 .24-.06.24-.18 0 .15-.36.21-.36.21-.12zm.18-1.89v.2q0 .13-.27.13a.6.6 0 0 1 .18-.45zm-.27 4.86c.12-.18.18-.18.18 0s-.03.06-.15-.12zM249.3 61a.79.79 0 0 1 .09-.36.82.82 0 0 0 .09-.36c-.06 0-.15.12-.27.36a1.12 1.12 0 0 0-.81-.36c-.06-.18 0-.27.09-.27s.15-.06.09-.18a.4.4 0 0 1 .45.45 2.68 2.68 0 0 1 .18-.32 3.3 3.3 0 0 0 .18-.32.58.58 0 0 0 .54.36q0 .36-.27.41c-.18 0-.21.19-.09.5a.36.36 0 0 0-.27.09zm-.9-1.62h.18v.18h-.18zm0 6.3q.09.27.13 0c.03-.09-.01-.1-.13.02zm.27-8c.18 0 .25-.1.23-.32s0-.28.22-.22a.74.74 0 0 1-.09.41.73.73 0 0 0-.09.4c-.12-.06-.18-.11-.18-.13s-.03-.07-.09-.13zm.81.72c.06.24 0 .33-.18.27s-.21 0-.09.27a1 1 0 0 1-.54.09c.06-.18.12-.24.18-.18s0-.06-.09-.36a2.33 2.33 0 0 1 .72-.08zm-.72 3.69q.27-.27.27 0c-.06.12-.09.15-.09.09s-.06-.08-.18-.08zm.27 2c.06.18.1.17.14 0s-.02-.25-.17-.01zm.32-6.39c-.15.12-.17.12 0 0s.14-.13-.01-.01zm0 .27h.18v.18h-.18zm.18-1.35c0-.12.06-.15.18-.09a.67.67 0 0 0 .27.09.55.55 0 0 0-.13.5.55.55 0 0 1-.13.5c0-.06-.09-.09-.27-.09a.86.86 0 0 1 .18-.45.29.29 0 0 0-.15-.47zm1.17-3.69a2.66 2.66 0 0 0 .31.41q.13.13 0 .58a.22.22 0 0 1-.13-.27c0-.12 0-.18-.13-.18a.08.08 0 0 0-.09.09.08.08 0 0 1-.09.09.58.58 0 0 1 .27.31c.06.15.15.17.27 0q.18.27-.22.41a.45.45 0 0 0-.31.58c-.18.06-.26 0-.23-.13s0-.17-.22 0a9 9 0 0 0-.54 1.08.5.5 0 0 1 .09-.63.62.62 0 0 0 .09-.72h.45a.41.41 0 0 1 .13-.58c.21-.15.25-.43.14-.85q.16.16.16-.2zm-.32 3.07v.36a1.31 1.31 0 0 0-.45 0c-.06 0-.15 0-.27-.14a.81.81 0 0 1 .72-.22zm-.18-.9c.24 0 .36.09.36.27-.12 0-.22.09-.32.27s-.22.18-.41 0a.68.68 0 0 1 .23-.27.3.3 0 0 0 .14-.29zm-.18 4c0 .24-.06.36-.18.36v-.36zm.54-3.15c.12 0 .18.09.18.27-.06-.06-.09 0-.09.09s-.09-.09-.09-.31zm.18 1.08a.33.33 0 0 0 0-.27q0-.09.13 0v.27zm.18-5v.45q-.27-.19 0-.48zm.18.72q.27 0 .27.54a.28.28 0 0 1-.32-.22.34.34 0 0 1 .05-.33zm.5-.63c0 .18-.17.24-.41.18s-.14-.28 0-.31a.88.88 0 0 0 .32-.23q.13.08.08.35zm0 1.35c0 .36-.15.39-.45.09a.41.41 0 0 1 .23-.23c.03-.03.11.01.17.13zm0 1.44c.06-.24.09-.27.09-.09s-.08.18-.14.08zm.45-5.31c0 .3-.06.39-.18.27s-.11-.22.13-.28zm.27 3.33a1 1 0 0 1 0 .81 2 2 0 0 1-.36.63.55.55 0 0 1 0-.72 2 2 0 0 0 .31-.73zM252 50.4c.18 0 .25 0 .22.13s.08.08.32 0a.25.25 0 0 1 0 .32c-.09.09-.17.08-.22 0s-.17.06-.14.18 0 .15-.22.09c-.05-.51-.02-.72.04-.72zm.09-2.34a1.15 1.15 0 0 1 .23.13.91.91 0 0 0 .23.13 1.68 1.68 0 0 0 .13-.45.29.29 0 0 0-.23-.36c0 .18-.06.29-.18.31a.21.21 0 0 0-.18.24zm.36 1.89c.12 0 .18.12.18.36-.12 0-.18-.12-.18-.31zm0 4.59h.27c0-.24-.06-.33-.18-.27a.18.18 0 0 1 0 .13.19.19 0 0 0-.09.14zm.18-7.11c.12.06.19 0 .22-.27s0-.36 0-.36a.33.33 0 0 0 0 .31.26.26 0 0 1-.22.32zm.18 1.89c-.18-.3-.21-.51-.09-.63a.5.5 0 0 1 .09.63zm0 1.08h.19v.36h-.27v-.27a.08.08 0 0 0 .08-.09zm.18 3.06a.15.15 0 0 0-.09-.13c-.06 0-.09 0-.09.13a.08.08 0 0 1 .09.09c0 .06.03.03.1-.09zm0-5.4c.06 0 .15.06.27.18a.26.26 0 0 0-.09.18H253zm.18-.81c.24-.06.36 0 .36.27a.29.29 0 0 0-.27.18.15.15 0 0 1 0-.18.33.33 0 0 0-.09-.27zm.27 1.62q.27 0 .09.32c-.12.21-.24.31-.36.31a1.07 1.07 0 0 1 .18-.27.52.52 0 0 0 .09-.36zm0-2c0-.12 0-.14.13 0s.08.2 0 .31a.25.25 0 0 1-.09-.18zm.09 3c-.06-.24 0-.32.09-.22s.09.15-.09.21zm.45-3.78a.8.8 0 0 0-.09.36c0 .12-.09.15-.27.09 0-.19.12-.34.38-.46zm-.09 5.22V51h-.27v.27zm-.18-4.5h.29v.09l-.09.09h-.13c.04 0-.01-.13-.07-.19zm.58-1.26s-.08.06-.13.18a.24.24 0 0 0 .27-.27c.12.12.1.21 0 .27a.57.57 0 0 0-.31.27c-.12-.12-.13-.31 0-.58a.69.69 0 0 1 .5-.5.37.37 0 0 1-.09.27q-.09.09 0 .27c-.16.05-.21.08-.24.08zm-.31.54a.08.08 0 0 1 .09-.09c0 .11-.07.14-.07.08zm.09 4.23c.06.12.09.09.09-.09s-.03-.16-.09.08zm.81-6q-.18.54-.36.54c-.12-.12-.21-.18-.27-.18a2.3 2.3 0 0 0 .27-.32c.06-.12.18-.14.36-.08zm-.45 2.43v-.18c.06 0 .08 0 0 .09a1.3 1.3 0 0 1-.22.27zm.18 2.52q.18.09.18-.23t-.18-.13zm.27-5.94a.08.08 0 0 1 .09.09.08.08 0 0 0 .09.09.21.21 0 0 1-.13.22c-.09 0-.11.11 0 .22q-.23-.21-.05-.66zm.18-.36c.06.24 0 .31 0 .22s-.12-.19 0-.26zm.36-1.8a.69.69 0 0 1 .09.63.5.5 0 0 1-.54.45 5 5 0 0 0 .27-.63 3.31 3.31 0 0 1 .18-.49zm-.36 6.83c-.12.18-.11.2 0 0s.18-.15 0 0zm0-5a.21.21 0 0 1 .18-.23q.18 0 0-.4c.3.06.37.17.22.31a1.66 1.66 0 0 1-.4.25zm.45 1.35a.3.3 0 0 0-.09.22c0 .09-.09.11-.27 0 .12-.06.18-.14.18-.23s.05-.12.18-.06zm.45-2.61a4.77 4.77 0 0 0-.27.63q-.27-.09-.18-.41c.06-.27.21-.35.49-.29zm-.36 3.06c0-.12.12-.18.36-.18a.52.52 0 0 1-.36.11zm2.34-5.49l-.67.36a1.51 1.51 0 0 1-.77.18c-.12.18-.12.26 0 .22a1.26 1.26 0 0 1 .27 0 2.33 2.33 0 0 1-.23.36c-.09.12-.08.3 0 .54-.18-.12-.29-.09-.31.09a.46.46 0 0 1-.22.36q-.54-.18-.41-.54a2.29 2.29 0 0 0 .13-.81 1.08 1.08 0 0 0 .41-.49q.13-.31.49.13a.26.26 0 0 0 .14-.32c0-.15 0-.22.13-.22.06.3.18.39.36.27a4.5 4.5 0 0 1 .45-.27.16.16 0 0 1 .23.07zm-2.25 7.29c.12.18.18.17.18 0s-.06-.31-.18-.07zm.36-5.76q-.27 0-.09.13c.12.09.15 0 .09-.13a.16.16 0 0 0 .18-.18c0-.12.09-.15.27-.09a.3.3 0 0 0-.13-.27 2.06 2.06 0 0 1-.37-.3zm0 2c.12-.18.18-.19.18 0s-.06.03-.23-.09zm.27.45a.15.15 0 0 1 0 .18q0 .09.13.09a.16.16 0 0 1-.18.18h-.18c.05-.39.11-.54.23-.54zm0 0c-.06-.18 0-.28 0-.31a.57.57 0 0 0 .22-.14q.18.09 0 .32c0 .06-.1.1-.22.04zm.45-5.4c.3.12.37.27.22.45a.78.78 0 0 0-.22.45.43.43 0 0 0 .5-.41.51.51 0 0 1 .4-.49 3.14 3.14 0 0 1 .32-1.12 3.43 3.43 0 0 1 .58-.77c0 .12 0 .18.09.18s.09.06.09.18a3 3 0 0 0-.76 1.35 2.23 2.23 0 0 1-.85 1.26c-.24-.12-.35-.13-.32 0s-.08.17-.32.23a.77.77 0 0 1 .22-.63c.15-.26.17-.47.05-.77zm.36 7.56c0-.12 0-.19.09-.22s0-.08-.09-.14c0 .12 0 .2-.09.23s-.04-.02.09.04zm.36-1.08a.26.26 0 0 0-.18.09c.12-.09.18-.12.18-.18zm.63-9.09q.27 0 .41-.41c.09-.27.07-.43 0-.5 0 .24-.08.39-.22.45s-.25.18-.19.37zm.18 3.6c.18-.12.19-.12 0 0s-.12.03 0-.09zm.27-1c-.12 0-.18 0-.18-.14s.06-.16.18-.22zm0-3.69c.12.12.24.09.36-.09s.12-.33 0-.45a.4.4 0 0 1-.22.22c-.1-.04-.14.06-.14.24zm0 1.17c.3-.12.43-.3.4-.54a.5.5 0 0 1 .32-.54.66.66 0 0 0 0 .5.93.93 0 0 1 0 .58.3.3 0 0 0-.36.09c-.12.04-.24.01-.36-.17zm.63.45c.18 0 .27.11.27.31s-.12.29-.36.23a.93.93 0 0 1 .09-.62zm.8-2.51v-.36c-.24-.06-.36 0-.36.18s.13.24.36.18zm0 1.62a.22.22 0 0 0-.13.27c0 .12 0 .15-.22.09.12-.28.23-.36.35-.36zm.09-2.07c.12-.18.27-.43.45-.77a.74.74 0 0 0 0-.85 1.05 1.05 0 0 1-.36.9.49.49 0 0 0-.08.72zm0-1c.06.24.09.26.09 0s-.02-.17-.08.01zm.45-1c-.12.06-.13.12 0 .18s.1 0 0-.18c.12-.12.18-.21.18-.27s-.17.11-.17.29zm0 4.23a.29.29 0 0 0 .18-.27.79.79 0 0 1 .09-.36c-.12 0-.22.09-.31.27s-.07.28.05.38zm-.09-1.17a.09.09 0 0 1 .18 0V34a.15.15 0 0 0-.17-.07zm.54-3.6q-.27-.27-.27 0t.28.02zm.54 3.33c-.12 0-.18 0-.18-.09s-.06-.06-.18 0-.09.2.09.22.28.01.28-.11zm-.18-3.06h-.09l-.09.09c.13.02.19-.01.19-.07zm2.16-2.34q-.18.27-.23.27v.36a.55.55 0 0 0-.28.13.73.73 0 0 1-.41.09q.18.36-.13.5t-.23.58a.48.48 0 0 0-.54.54q0 .54-.45.45a.29.29 0 0 0 .27.18.29.29 0 0 1 .27.18 3.63 3.63 0 0 0 .31-.58 1.11 1.11 0 0 1 .41-.5c.24.12.33.18.27.18l.4-.41a3.33 3.33 0 0 0 .41-.5c-.24-.18-.33-.33-.27-.45a1 1 0 0 1 .36-.36 6.13 6.13 0 0 0 .54-.41.64.64 0 0 0 .27-.5.38.38 0 0 0-.49.23c-.07.21-.23.22-.47.04zm-1.89 4.59a.41.41 0 0 1-.23.22.21.21 0 0 0-.13.23c.36.06.48-.09.36-.45.18 0 .21-.06.09-.18s-.14-.04-.08.2zm-.27-2.52c.12 0 .18.09.18.27.12-.12.15-.23.09-.32s0-.13.18-.13c0-.3 0-.45-.09-.45a.29.29 0 0 1-.18.27.36.36 0 0 0-.17.38zm.72 1.71q-.18.27 0 0c.13-.08.13-.1.01-.02zm-.07-2.5l.18-.09c-.18 0-.18.03-.18.09zm.45 1.71c.18 0 .27 0 .27-.09l-.18.09zm.18-1.35a.09.09 0 0 1 .18 0v.09a.15.15 0 0 0-.19-.09zm1.26-.27a.36.36 0 0 1 .09-.41c.12-.15.06-.19-.18-.13a.53.53 0 0 0 .08.54zm1.26-2a.15.15 0 0 0-.09-.13c-.06 0-.12 0-.18.13.12 0 .18 0 .18.09s.02.05.08-.07zm.72 16.92a5.1 5.1 0 0 1 0 1.8 2.49 2.49 0 0 0 .32 1.71c-.06.12-.11.15-.13.09a.5.5 0 0 0-.23-.18c-.06.24 0 .36.18.36s.24.12.18.36q-.54-.27-.27.41a2.52 2.52 0 0 1 .18 1.3h-.27a2.48 2.48 0 0 0 0 .95 4.76 4.76 0 0 0 .27.94.25.25 0 0 1-.09-.18c0-.06-.06 0-.18.09a1.08 1.08 0 0 1 .13.9 1.16 1.16 0 0 0 .23 1c-.06 0-.09 0-.09-.14s0-.13-.09-.13A11.08 11.08 0 0 1 266 56a2.41 2.41 0 0 0 .5 1.93q-.09.18-.27 0a.23.23 0 0 0-.36 0 5.13 5.13 0 0 1 0-2.7.46.46 0 0 1-.27-.68 1.28 1.28 0 0 0 0-.94 2.57 2.57 0 0 0 0-1.89 1.71 1.71 0 0 1 .18-1.71 10.35 10.35 0 0 1-.18-2.79q.08-1.5.26-2.67zM266 50c.06.18.09.17.09 0s.01-.2-.09 0zm.09-8.73c.3-.06.37 0 .22.18s-.18.16-.18-.14zm0 1.08c.3.12.36.24.18.36s-.14-.08-.14-.32zm0 .45c.12 0 .19.08.22.22a.26.26 0 0 1-.13.31c-.06 0-.08-.06 0-.18a.52.52 0 0 0-.05-.31zm0 3.51c.06-.06.09 0 .09.18h-.09zm.18 9.5c0 .15-.06.17-.18 0 .16-.1.22-.11.22.04zm-.18.4c.06-.18.09-.18.09 0s.01.22-.05.04zm.18 3.15c.12.06.12.15 0 .27-.12-.06-.15-.11-.09-.13a.15.15 0 0 0 .13-.1zm-.09-.45h.27v.18h-.27zm.36-25.56q0-.45-.27-.45a.63.63 0 0 1 0 .41c.05.19.13.2.31.08zm-.27 2.43a.36.36 0 0 1 .22 0 .18.18 0 0 0 .13 0 .7.7 0 0 0-.18-.81c-.12.18-.15.3-.09.36s.08.31-.04.49zm.36-1.17c0-.48-.06-.72-.18-.72a.73.73 0 0 1-.13.45c-.06.16.05.25.35.31zm-.18 2.7q.09-.27.13-.13c0 .09.1.08.22 0a1 1 0 0 0 0-.49 4.54 4.54 0 0 0-.14-.5h-.27q.27.45 0 .67a.35.35 0 0 0 .1.49zm.22 25.69c.24 0 .3.12.18.36-.12.06-.18-.06-.18-.36zm.36.63c.12 0 .14.08 0 .23s-.2.19-.32.13 0-.27 0-.27a.31.31 0 0 0 .29-.09zm0-10.35c.12.06.19 0 .23-.22s0-.28-.14-.23a.26.26 0 0 1-.12.17q-.06.1 0 .28zm.18-1.8c-.12 0-.18 0-.18.09s.18-.03.18-.09zm-.21 3.33a.24.24 0 0 0 .27-.27.24.24 0 0 0-.27.27zm.27-5.4a1.89 1.89 0 0 1 0-1.21q.22-.76-.13-1a5.87 5.87 0 0 1-.14 1.13 1.31 1.31 0 0 0 .3 1.08zm-.09 3.15a.47.47 0 0 1 0-.41c.06-.15 0-.22-.09-.22-.09.36-.09.57.12.63zm-.09-6.75c.24.06.36-.09.36-.45s-.09-.54-.27-.54a1.58 1.58 0 0 0 .09.58c.09.16.03.29-.15.41zm0 3.78c.06.24.09.26.09 0s0-.18-.06 0zm0 1.35v.36a1.51 1.51 0 0 0 .09-.36c.03-.06 0-.06-.06 0zm.18 16v-.45h-.18V67zm0-20a.23.23 0 0 1 .09-.32c.12-.09.09-.16-.09-.22a.71.71 0 0 1-.09.27.18.18 0 0 0 .12.33zm0 9.36a.52.52 0 0 1 .09-.36c.06-.06 0-.12-.18-.18s0 .24.12.58zm.09-13h-.09a4.66 4.66 0 0 1 0 .72.73.73 0 0 0 .13.54v-1.18h.18a.47.47 0 0 1 0-.4c.06-.15 0-.23-.27-.23-.06.12 0 .21 0 .27s.14.18.08.36zm.18-2.52a.34.34 0 0 1 0-.32c0-.15 0-.22-.13-.22a.44.44 0 0 0-.09.32c-.02.23.07.3.25.3zm0 18.27a.53.53 0 0 0-.27-.45.62.62 0 0 1 0 .4c.04.23.12.25.3.13zm-.18-20.7c.12.18.18.18.18 0s-.03-.1-.15.08zm0 4c.12.18.18.17.18 0s-.03-.2-.15.04zm.27 17.55a.36.36 0 0 0-.27.09c.21.01.3.01.3-.05zm0 7.11c-.12-.12-.11-.23 0-.32s.1-.13-.13-.13-.15 0-.09.13a1 1 0 0 0 .25.36zm1.26-17.64c.06.12.1.15.13.09s0-.09-.13-.09c0-.18 0-.21-.13-.09s-.02.19.16.13zm7.29 18c.12.18.18.19.18 0s-.03-.08-.15.04zm.81.27a.67.67 0 0 1 .22-.27c.09-.06.08-.15 0-.27a1.21 1.21 0 0 1-.23.31c-.1.13-.08.21.02.27zm.36-3.33c.06 0 .09.12.09.36-.12 0-.18 0-.18-.13a.3.3 0 0 1 .12-.19zm.27-.18c.24.12.33.24.27.36h-.09l-.09.09c-.03.04-.06-.11-.06-.41zm.18-1.17v-.18.18zm.09.81c0-.12 0-.18.09-.18s.09.06.09.18-.09.06-.09 0 .02-.02-.06.04zm.81-1.89c0 .12-.12.24-.36.36s-.33 0-.27-.27c.12.12.2.1.23 0s.19-.17.43-.05zm-.6 4.12c.06-.24.09-.26.09 0s-.03.15-.09 0zm.72-1c-.12 0-.2-.08-.22-.23s-.11-.22-.23-.22a.41.41 0 0 0 .09.45.23.23 0 0 0 .36 0zm0-1.44a.08.08 0 0 1-.09.09c-.06-.02-.03-.05.09-.11zm0-.81a.41.41 0 0 1 .18.25q0 .13-.13.23c-.02-.05-.05-.23-.05-.5zm0 .81c0-.12 0-.17.09-.13s.03.05-.09.11zm.18-1.62q.36-.09.32.14a.64.64 0 0 1-.14.31c-.12-.06-.17-.12-.13-.18a.32.32 0 0 0-.05-.29zm1.8-4.23a.47.47 0 0 1 .09.5 1.89 1.89 0 0 0-.09.5c-.3-.12-.39-.27-.27-.45a2.29 2.29 0 0 0 .27-.57zm0-13.68c.18.12.27.06.27-.18s-.06-.36-.18-.36a1.25 1.25 0 0 0-.09.51zM281 40h.27v.27H281zm.27 16q.09-.27.09 0c-.02.24-.05.22-.11 0zm.63-3.6c.06-.18.09-.16.09 0s-.05.22-.11-.02zm.1-20.09q.45.09.4-.32t-.4-.31zm.18 18.81c0 .18-.06.15-.18-.09.09-.12.15-.09.15.09zm0-22.5c.18-.06.24 0 .18.18a.57.57 0 0 0 0 .45c-.18.06-.26 0-.22-.18a2.9 2.9 0 0 0 .01-.45zm.09 13.32a.26.26 0 0 1 .09-.18c.06-.06 0-.09-.09-.09a.15.15 0 0 1-.09.14c-.09.03-.06.07.06.13zm0 8c.12.06.15.11.09.13s-.09.11-.09.23c-.12-.06-.15-.12-.09-.18a.26.26 0 0 0 .06-.12zm-.09-20.52h.18v.18h-.18zm.18 1.62h-.09a.36.36 0 0 0-.09.27c.12.12.18.13.18 0V31q.27.18.09 1.08a.47.47 0 0 0 .32-.72 2.45 2.45 0 0 0-.41-.72zm0-4.32q.45.18.22.81c-.15.42-.2.69-.13.81q-.45-.18-.13-.67a.84.84 0 0 0 .01-.94zm0 22.77c.06-.24.09-.24.09 0s-.07.25-.12.01zm.18-2a.52.52 0 0 1 .36.18c.06.24 0 .39 0 .45a2.28 2.28 0 0 0-.32.27 1.12 1.12 0 0 1-.07-.87zm.41-18.41c0-.21 0-.31-.14-.31a.36.36 0 0 1-.09.27c-.06.06-.06.15 0 .27s.16.02.19-.19zm-.09-6.43a.14.14 0 0 0 .14.09c.06.18.06.29 0 .31s-.09.11-.09.23-.15 0-.09-.23 0-.31-.09-.31c.02-.09.06-.12.09-.06zm0-.9c.18 0 .24.08.18.22a.7.7 0 0 0 0 .5c-.18.06-.29 0-.32-.22a.55.55 0 0 1 .15-.47zm-.09 25.11q.36.09.14.27t-.13-.24zm0-20.07c.06-.18.09-.16.09 0s-.02.27-.08.03zm0 .54a.16.16 0 0 1 .18.18c-.06-.06-.09 0-.09.09s-.08-.06-.08-.24zM283 46c.12 0 .15.09.09.27s0 .27.18.27c-.12.12-.22.09-.31-.09A.35.35 0 0 1 283 46zm-.09-24.48c.06-.24.09-.27.09-.09s-.07.2-.13.08zm.45 21.33c.24.06.34.2.31.4a1.41 1.41 0 0 1-.22.58.29.29 0 0 1-.09-.36 1.1 1.1 0 0 0-.04-.63zm.45-25.92a.83.83 0 0 0-.09-1 1.87 1.87 0 0 1 0 .45.86.86 0 0 0 .05.54zm0 23.58c.18.18.24.35.18.5a4.06 4.06 0 0 0-.18.67.72.72 0 0 1-.09-.58 1.59 1.59 0 0 0 .05-.6zm0-24.84c0-.24 0-.24-.09 0s.05.23.05-.01zm.09 2.43q0-.27-.09 0 .05.26.05-.01zm.23 21.82c0 .21-.14.32-.32.32a1.55 1.55 0 0 0 .09-.63c.1-.01.21.1.18.31zm-.23-7.69h.1v.18h-.18zm.36 8.64c.06-.18.09-.16.09 0s-.07.23-.13-.01zm.27-5.67c0-.06.09-.09.27-.09-.04.05-.13.08-.31.08zm.36-13.59c0-.06.06-.09.18-.09s-.07-.04-.22.08zm.18 7.2a.37.37 0 0 0 .27.09 1.69 1.69 0 0 0 .09.54c.06.18 0 .33-.27.45a1.4 1.4 0 0 0 0-.58 4.59 4.59 0 0 0-.16-.51zm0 5.49a.36.36 0 0 1 .18.36c-.12.06-.17 0-.14 0a.41.41 0 0 0-.11-.37zm.09-6.3c.06-.12.14-.15.23-.09s.1.15 0 .27-.18 0-.18 0-.03-.18-.09-.18zm.18-.9c.24-.12.36 0 .36.22s-.12.38-.36.31zm.45-7.56q.45.18.32 1.35a4 4 0 0 1-.5 1.71q.09-.81.13-1.58c-.01-.51.01-1.02.01-1.49zm0 10.35c-.12.18-.11.2 0 0s.14-.13-.04-.01zm.36-17.64q-.09.45.13.23c.11-.16.07-.24-.17-.24zm0 5q.18.18.18-.13t-.18-.13zm.27-.81c.06 0 .07-.1 0-.32s-.11-.28-.23-.22v.4c.01.19.07.23.19.17zm9.32 40.98c-.12.06-.21 0-.27 0s-.09-.07-.09 0a1.55 1.55 0 0 0 .45.45c.24.18.3.36.18.54s-.08.25-.22.23-.25 0-.31.22a3.25 3.25 0 0 1-2-1.21 5 5 0 0 1-.95-2.16 9.7 9.7 0 0 1-.09-2.66 11.06 11.06 0 0 1 .59-2.7c-.12-.18-.1-.27 0-.27s.22-.06.22-.18l1.45-5.18q.7-2.5 1.4-5.17a1.67 1.67 0 0 1 1.71-.31c.66.21 1.23.4 1.71.58a2.77 2.77 0 0 1 .45 1.48 5.93 5.93 0 0 1-.22 1.58 12 12 0 0 1-.59 1.62 9.32 9.32 0 0 0-.54 1.53q-.9 2.88-1.8 5.54a22.66 22.66 0 0 0-1.08 6.07zm.72-6c.24.06.3 0 .18 0s-.18-.15-.18-.03zm7.11-28.17a11.57 11.57 0 0 1-.36 2.79 3.23 3.23 0 0 1-1.8 2.16 2.65 2.65 0 0 1-1.53-1 2.56 2.56 0 0 1-.36-1.94 9 9 0 0 0 1.93-1.26 3.28 3.28 0 0 1 2.12-.78zm20.61 29.22a7.91 7.91 0 0 0 4.41-1.31 28 28 0 0 1 3.69-2.16c-.18-.12-.24-.24-.18-.36a18 18 0 0 0 4.72-2.64 44.08 44.08 0 0 0 4.28-3.55 5.71 5.71 0 0 0-1.67 1.21 3.71 3.71 0 0 1-2.21 1 12.57 12.57 0 0 1 2.12-1.66l2.29-1.44a3.06 3.06 0 0 1-.86 1.89 11.69 11.69 0 0 1-1.7 1.55l-1.93 1.4a5.56 5.56 0 0 0-1.53 1.6q-.63-.36-1.12.36a2.1 2.1 0 0 1-1.12.9 1.66 1.66 0 0 0 1.17-.32 2.23 2.23 0 0 0 .81-.76h.5a1.29 1.29 0 0 1 .31.18c.12-.12.13-.22 0-.31a.37.37 0 0 1 0-.41 2.08 2.08 0 0 1 .63-.18c.12 0 .24-.12.36-.36a.56.56 0 0 0 .67.09 3.13 3.13 0 0 0 .81-.54c.27-.24.55-.48.86-.72a2.66 2.66 0 0 1 .72-.45l-1 1.89a3.11 3.11 0 0 1-1.49 1.35 3.35 3.35 0 0 1-.36.58 1.55 1.55 0 0 0-.27.5q-1.08.72-2.34 1.75t-2.61 2a16.19 16.19 0 0 1-2.92 1.62 7.26 7.26 0 0 1-3.29.58 3 3 0 0 1-1.8-.58 7 7 0 0 1-1.44-1.39c-.06-.18-.12-.23-.18-.13s-.15.08-.27 0a6.69 6.69 0 0 1-1.08-2.61 16 16 0 0 1-.27-3q0-1.53.13-3.11t.14-2.92a22.45 22.45 0 0 0-3.6 2.83 40.18 40.18 0 0 0-3.06 3.33q-1.44 1.75-2.79 3.64t-2.79 3.69a1.79 1.79 0 0 1-.95.13.91.91 0 0 0-.86.32 4.48 4.48 0 0 1-1.84-3.29 15.38 15.38 0 0 1 .32-4.14q.45-2.2 1.08-4.46a12.09 12.09 0 0 0 .45-4.32 3.09 3.09 0 0 1 1.94.22 3.91 3.91 0 0 1 1.3 1.13 12.06 12.06 0 0 1-.31 3.29 31.65 31.65 0 0 0-.59 3.65 26.63 26.63 0 0 0 2.54-2.89 10.23 10.23 0 0 1 2.79-2.48 10.31 10.31 0 0 1-1.89 2.07 7.86 7.86 0 0 0-1.8 2.16 6.71 6.71 0 0 0 2.07-1.8 9.42 9.42 0 0 1 1.89-1.89c-.12-.12-.18-.21-.18-.27a4.09 4.09 0 0 0 1.8-1.12q1-.94 1.89-1.75a3.18 3.18 0 0 0-1.8 1.08 3.18 3.18 0 0 1-1.71 1.08 6.25 6.25 0 0 1 1.62-1.57 3.12 3.12 0 0 1 2.07-.77 1.26 1.26 0 0 1 .95-.54 2 2 0 0 1 1 .27 10 10 0 0 1 .95.58 2.37 2.37 0 0 0 .9.41 2.8 2.8 0 0 1 1.45 2.06 13.35 13.35 0 0 1 .18 3.15q-.09 1.71-.27 3.51a7.53 7.53 0 0 0 .27 3.15zm-7.11-10.08c.06.18.09.17.09 0s-.03-.24-.09 0zm.18-.18a.65.65 0 0 0 .63-.36.89.89 0 0 1-.41.09c-.15 0-.22.06-.22.27zm1.44-.9c0-.12 0-.18.09-.18s.09-.06.09-.18a.18.18 0 0 0-.27.09.18.18 0 0 0 .09.27zM333 49.59c0-.18-.06-.24-.18-.18s0 .27.09.27a.08.08 0 0 1 .09-.09zm0-1.53c.18-.12.19-.1 0 0s-.12.18 0 0zm.45-.27c.18-.12.19-.1 0 0s-.12.21 0 0zm.63-.72h.27v.27h-.27zm1.35-.72a.51.51 0 0 1-.36.18.52.52 0 0 1 .36-.18zm2.34.36v.18a.08.08 0 0 0-.09.09h-.18v-.18l.09-.09zm.63-1h.27v.18h-.27z"/><path d="M372.87 42.12v.09a.08.08 0 0 0 .09.09q-1.81.7-3.96 1.7t-3.83 1.84c.06.24.15.35.27.31a1 1 0 0 0 .36-.18l.36-.27a.59.59 0 0 1 .36-.14 8.23 8.23 0 0 1-2.88 2q-1.71.72-3.24 1.44c-.06.24 0 .41.09.5a.47.47 0 0 1 .18.41q-.36.09-.36-.13c0-.15-.09-.25-.27-.32a1.1 1.1 0 0 1-1 .72 1.36 1.36 0 0 0-1.08.54c0 .06.12.15.36.27a1.91 1.91 0 0 1-.58.41l-.67.31c0 .24.12.33.36.27a3.55 3.55 0 0 1-.81.45 1 1 0 0 1-.9-.09c-.36.48-.6.81-.72 1q-2.7.9-5.22 1.89a19 19 0 0 1-5.94 1.17 6.49 6.49 0 0 1-4.32-1.4 6.58 6.58 0 0 1-2.12-3.29 9.52 9.52 0 0 1-.18-4.14 11.22 11.22 0 0 1 1.44-4q1.17-1.26 2.34-2.48a17 17 0 0 1 2.61-2.21 14.51 14.51 0 0 1 3.1-1.62 10.49 10.49 0 0 1 3.74-.63 3.9 3.9 0 0 1 1.89 3.11 7 7 0 0 1-.72 3.83 34.57 34.57 0 0 0-3.51 3.06 10.26 10.26 0 0 1-4 2.43 4.52 4.52 0 0 1-2.47-.27 2.58 2.58 0 0 1-1.31-1.8q-1.44 1-1.71 3.78a4.66 4.66 0 0 0 1.89 1.35 33.7 33.7 0 0 0 9-1.12 68.36 68.36 0 0 0 7.92-2.7q3.82-1.57 7.6-3.29a58.31 58.31 0 0 1 7.84-2.89zm-22.59-4a10.14 10.14 0 0 0-4.28 2.11 19.58 19.58 0 0 0-3.19 3.6c.24 0 .36 0 .36.09a1.63 1.63 0 0 1-.9.58 1 1 0 0 0-.72.59 25.09 25.09 0 0 0 5.58-2.48 9.22 9.22 0 0 0 3.69-4.61c-.18 0-.27 0-.27-.13s-.06-.14-.18-.14a.35.35 0 0 1 0 .23.18.18 0 0 0-.09.11zm-6.75 15.12a4.94 4.94 0 0 0 .81.31q.45.14.63-.13a1.78 1.78 0 0 0-.81-.31q-.64-.19-.63.08zm3.06-1.24a5.05 5.05 0 0 0 3.06 0l3-1a35.62 35.62 0 0 0 6.79-2.12 52.23 52.23 0 0 0 5.56-2.8q-2.25.72-4.46 1.58l-4.46 1.75q-2.25.9-4.63 1.62a26.7 26.7 0 0 1-4.86.97zm8 1.08c.18.12.27.09.27-.09-.23-.1-.32-.07-.26.11zm1.44-.81h.27v-.18h-.3zm.45-.18a2.08 2.08 0 0 0 .54-.27.3.3 0 0 0-.36-.09.36.36 0 0 0-.17.38zm.45-.81a1.41 1.41 0 0 1 .54-.23c.18 0 .3-.16.36-.41a1.38 1.38 0 0 1-.58.23.35.35 0 0 0-.31.43zm1.62-.63c.24-.12.36-.06.36.18h-.36zm1.26-.81h.27v.27h-.27zm1-.63c.18 0 .28.06.31.18a.22.22 0 0 1-.13.27c-.12-.04-.18-.19-.18-.43zm6.12-3.69h.18c.06.12 0 .18-.27.18v-.09s.09-.01.09-.07zm.09-.45h.27v.27H367zm1.44-.36a.83.83 0 0 1-1.08.45c.12-.16.48-.31 1.08-.43zm0 0c-.12-.18-.09-.23.09-.13s.24.08.18 0c.18.06.21.13.09.22a.25.25 0 0 1-.36-.07zm4.41-2.61a.42.42 0 0 1 .45-.27c.06.18 0 .26-.09.22a.52.52 0 0 0-.36.07z"/></g></svg>